<svg xmlns="http://www.w3.org/2000/svg" viewBox="0 0 637 70.37"><defs><style>.cls-1{fill:#fff;}.cls-2{fill:red;}</style></defs><g id="Layer_2" data-name="Layer 2"><g id="Слой_1" data-name="Слой 1"><path class="cls-1" d="M33.42,34.85v22H24.13v-3.6a15,15,0,0,1-11.32,4.5Q7,57.78,3.49,54.7a10.15,10.15,0,0,1-3.49-8,9.4,9.4,0,0,1,3.78-7.91C6.31,36.86,9.71,35.89,14,35.89h9.3V34.25a6.38,6.38,0,0,0-1.77-4.84,7.14,7.14,0,0,0-5.13-1.68,10.49,10.49,0,0,0-5,1.2,19.49,19.49,0,0,0-4.8,3.89L1.35,26.6A20.3,20.3,0,0,1,17.54,19q7.34,0,11.61,4.16T33.42,34.85ZM23.31,43v-.45H15.36q-5.17,0-5.17,3.75a3.49,3.49,0,0,0,1.46,3,6.29,6.29,0,0,0,3.86,1.09,7.87,7.87,0,0,0,5.58-2.06A6.91,6.91,0,0,0,23.31,43Z"/><path class="cls-1" d="M77.22,24.47a19.5,19.5,0,0,1,5.14,13.82,19.76,19.76,0,0,1-5.14,13.9,16.69,16.69,0,0,1-12.85,5.59q-7,0-11.09-4.5V70.37H43.16V19.78h9.3v4.65Q56.29,19,64.37,19A16.8,16.8,0,0,1,77.22,24.47Zm-5.13,13.9A10.34,10.34,0,0,0,69.39,31a9.72,9.72,0,0,0-13.6-.15,10.23,10.23,0,0,0-2.66,7.49,10.35,10.35,0,0,0,2.66,7.53,8.94,8.94,0,0,0,6.71,2.74,9.1,9.1,0,0,0,6.85-2.85A10.13,10.13,0,0,0,72.09,38.37Z"/><path class="cls-1" d="M113.08,19.78V28.7h-2.7a10.32,10.32,0,0,0-7.3,2.47q-2.67,2.47-2.67,7.2V56.88H90.3V19.78h9.29V24.2a12.46,12.46,0,0,1,10.19-4.87A11,11,0,0,1,113.08,19.78Z"/><path class="cls-1" d="M116.52,38.29a18,18,0,0,1,5.78-13.71,20.51,20.51,0,0,1,28.21,0,18,18,0,0,1,5.81,13.71A18,18,0,0,1,150.47,52a19.12,19.12,0,0,1-14.16,5.66,18.74,18.74,0,0,1-14-5.66A18.13,18.13,0,0,1,116.52,38.29Zm26.72,7.27A10,10,0,0,0,146,38.37a10.25,10.25,0,0,0-2.74-7.27,9.6,9.6,0,0,0-13.75,0,10.29,10.29,0,0,0-2.7,7.31,10,10,0,0,0,2.7,7.19,9.72,9.72,0,0,0,13.75,0Z"/><path class="cls-1" d="M160.81,50.58l5.1-6.14c3.19,3.34,6.67,5,10.41,5a6.5,6.5,0,0,0,3.41-.79,2.5,2.5,0,0,0,1.32-2.28,2.15,2.15,0,0,0-.79-1.76,14.49,14.49,0,0,0-3-1.62l-4-1.64a21.87,21.87,0,0,1-7.72-4.76,9.27,9.27,0,0,1-2.39-6.56,9.77,9.77,0,0,1,3.74-8.13q3.75-3,9.89-3a17.27,17.27,0,0,1,13.34,5.54L185,30.72a11.91,11.91,0,0,0-8.32-3.52c-2.65,0-4,.88-4,2.62a2.14,2.14,0,0,0,.82,1.73,13,13,0,0,0,3.07,1.57l3.6,1.5q5.55,2.25,8,4.8a9.07,9.07,0,0,1,2.44,6.52,10.35,10.35,0,0,1-4.12,8.69,16.35,16.35,0,0,1-10.34,3.15Q166.21,57.78,160.81,50.58Z"/><path class="cls-1" d="M222.11,48.41v8.47a28.68,28.68,0,0,1-7,.9q-7.12,0-11-3.52T200.3,43.84V28.33h-5.84V19.78h5.84V10.42h10.12v9.36h10.49v8.55H210.42V42.94c0,2.1.54,3.58,1.61,4.46s2.84,1.31,5.29,1.31C218.16,48.71,219.76,48.61,222.11,48.41Z"/><path class="cls-1" d="M228,6.29A6,6,0,0,1,229.9,1.8,6.35,6.35,0,0,1,234.47,0a6.47,6.47,0,0,1,4.61,1.8A5.9,5.9,0,0,1,241,6.29a5.83,5.83,0,0,1-1.91,4.43,6.51,6.51,0,0,1-4.61,1.79,6.38,6.38,0,0,1-4.57-1.79A5.9,5.9,0,0,1,228,6.29Zm1.42,50.59V19.78h10.12v37.1Z"/><path class="cls-1" d="M272.39,19.78V28.7H269.7a10.35,10.35,0,0,0-7.31,2.47c-1.78,1.65-2.66,4-2.66,7.2V56.88H249.61V19.78h9.29V24.2a12.46,12.46,0,0,1,10.19-4.87A11,11,0,0,1,272.39,19.78Z"/><path class="cls-2" d="M281,19.84l34.77,16.9v3L281,56.69V47l18.58-8.74L281,29.48Z"/><path class="cls-1" d="M356,37.61V49.07h-2.89V38a5.32,5.32,0,0,0-1.14-3.58,4,4,0,0,0-3.17-1.33,4.58,4.58,0,0,0-4.68,4.65V49.07h-2.89V38A5.2,5.2,0,0,0,340,34.42a4,4,0,0,0-3.16-1.35,4.39,4.39,0,0,0-3.35,1.37,4.91,4.91,0,0,0-1.3,3.54V49.07H329.3V30.82H332v1.92a6.85,6.85,0,0,1,5.44-2.33,5.83,5.83,0,0,1,5.62,3.15,7.19,7.19,0,0,1,6.25-3.15,6.25,6.25,0,0,1,4.88,1.95A7.56,7.56,0,0,1,356,37.61Z"/><path class="cls-1" d="M375.73,37.83V49.07H373V46.71a8.23,8.23,0,0,1-10.75,1.37,4.55,4.55,0,0,1-1.76-3.73,4.45,4.45,0,0,1,1.8-3.71,7.61,7.61,0,0,1,4.76-1.39h5.76V37.68a4.65,4.65,0,0,0-1.18-3.41,4.32,4.32,0,0,0-3.24-1.2A6.58,6.58,0,0,0,363.11,36l-1.92-1.57a8.11,8.11,0,0,1,7.42-4,7,7,0,0,1,5.21,1.93A7.46,7.46,0,0,1,375.73,37.83Zm-2.89,4.23v-.45h-5.43c-2.62,0-3.93.87-3.93,2.59a2.45,2.45,0,0,0,1.07,2.12,4.52,4.52,0,0,0,2.71.76,5.71,5.71,0,0,0,3.94-1.46A4.56,4.56,0,0,0,372.84,42.06Z"/><path class="cls-1" d="M391.54,30.82v2.55h-1.08a6,6,0,0,0-4.07,1.46,5,5,0,0,0-1.67,3.9V49.07h-2.88V30.82h2.7v2.59a6.64,6.64,0,0,1,5.66-2.74A5.79,5.79,0,0,1,391.54,30.82Z"/><path class="cls-1" d="M395.4,49.07V21h2.89v28.1Zm6.67-10.23,8.62,10.23H407L398.59,38.8l7.6-8H410Z"/><path class="cls-1" d="M429.72,40.83H415.3a6.31,6.31,0,0,0,2.13,4.34A6.69,6.69,0,0,0,422,46.82a7.71,7.71,0,0,0,5.59-2.47l1.68,1.95a9.81,9.81,0,0,1-7.3,3.18,9.4,9.4,0,0,1-6.88-2.75A9.14,9.14,0,0,1,412.3,40,9.32,9.32,0,0,1,415,33.2a8.87,8.87,0,0,1,6.61-2.79,8.18,8.18,0,0,1,5.94,2.33A7.89,7.89,0,0,1,430,38.66,11.13,11.13,0,0,1,429.72,40.83Zm-14.31-2.55H427a5.07,5.07,0,0,0-1.58-3.82A5.44,5.44,0,0,0,421.56,33a6,6,0,0,0-4,1.45A6.64,6.64,0,0,0,415.41,38.28Z"/><path class="cls-1" d="M445,46.64v2.43a14,14,0,0,1-3,.41A6.43,6.43,0,0,1,437.4,48a5.74,5.74,0,0,1-1.61-4.42V33.41h-3.07V30.82h3.07v-5h2.89v5h5.69v2.59h-5.69v10a3.36,3.36,0,0,0,.95,2.68,4.49,4.49,0,0,0,2.91.8A15.26,15.26,0,0,0,445,46.64Z"/><path class="cls-1" d="M448.57,23.85a2,2,0,0,1,.64-1.47,2.07,2.07,0,0,1,1.53-.62,2,2,0,0,1,1.5.62,2,2,0,0,1,.64,1.47,2,2,0,0,1-.62,1.5,2.1,2.1,0,0,1-1.52.6,2.14,2.14,0,0,1-1.53-.6A2,2,0,0,1,448.57,23.85Zm.71,25.22V30.82h2.89V49.07Z"/><path class="cls-1" d="M473.6,37.61V49.07h-2.89V37.94a5.05,5.05,0,0,0-1.21-3.52,4.25,4.25,0,0,0-3.32-1.35,4.65,4.65,0,0,0-3.45,1.37,4.77,4.77,0,0,0-1.34,3.5V49.07H458.5V30.82h2.7v2a7.23,7.23,0,0,1,5.62-2.36,6.42,6.42,0,0,1,5,2A7.4,7.4,0,0,1,473.6,37.61Z"/><path class="cls-1" d="M494.51,30.82h2.73V47.31a8.28,8.28,0,0,1-8.88,8.92,11.71,11.71,0,0,1-8.58-3.52l1.69-2a10.27,10.27,0,0,0,6.82,2.89,5.56,5.56,0,0,0,6.07-6.11V45.85a7.37,7.37,0,0,1-2.91,2.23,9.38,9.38,0,0,1-3.87.8,8.55,8.55,0,0,1-6.41-2.62,9.08,9.08,0,0,1-2.55-6.59,9.15,9.15,0,0,1,2.57-6.6,8.53,8.53,0,0,1,6.39-2.66,9.34,9.34,0,0,1,4,.88,7,7,0,0,1,2.91,2.46Zm-.12,8.85a6.2,6.2,0,0,0-1.85-4.82,6.46,6.46,0,0,0-4.52-1.7A6.27,6.27,0,0,0,483.38,35a6.4,6.4,0,0,0-1.84,4.7A6.25,6.25,0,0,0,488,46.22a6.4,6.4,0,0,0,4.54-1.7A6.3,6.3,0,0,0,494.39,39.67Z"/><path class="cls-1" d="M527.74,37.83V49.07H525V46.71a8.23,8.23,0,0,1-10.75,1.37,4.55,4.55,0,0,1-1.76-3.73,4.45,4.45,0,0,1,1.8-3.71,7.61,7.61,0,0,1,4.76-1.39h5.77V37.68a4.69,4.69,0,0,0-1.18-3.41,4.36,4.36,0,0,0-3.25-1.2A6.58,6.58,0,0,0,515.12,36l-1.92-1.57a8.11,8.11,0,0,1,7.42-4,7,7,0,0,1,5.21,1.93A7.46,7.46,0,0,1,527.74,37.83Zm-2.88,4.23v-.45h-5.44c-2.62,0-3.93.87-3.93,2.59a2.45,2.45,0,0,0,1.07,2.12,4.53,4.53,0,0,0,2.72.76,5.7,5.7,0,0,0,3.93-1.46A4.57,4.57,0,0,0,524.86,42.06Z"/><path class="cls-1" d="M548.65,30.82h2.73V47.31a8.27,8.27,0,0,1-8.88,8.92,11.71,11.71,0,0,1-8.58-3.52l1.69-2a10.27,10.27,0,0,0,6.82,2.89,5.56,5.56,0,0,0,6.07-6.11V45.85a7.33,7.33,0,0,1-2.9,2.23,9.46,9.46,0,0,1-3.88.8,8.55,8.55,0,0,1-6.41-2.62,9.08,9.08,0,0,1-2.55-6.59,9.15,9.15,0,0,1,2.57-6.6,8.53,8.53,0,0,1,6.39-2.66,9.39,9.39,0,0,1,4,.88,7.08,7.08,0,0,1,2.9,2.46Zm-.11,8.85a6.21,6.21,0,0,0-1.86-4.82,6.44,6.44,0,0,0-4.51-1.7A6.28,6.28,0,0,0,537.52,35a6.43,6.43,0,0,0-1.83,4.7,6.59,6.59,0,0,0,11,4.82A6.27,6.27,0,0,0,548.54,39.67Z"/><path class="cls-1" d="M573.83,40.83H559.4a6.36,6.36,0,0,0,2.14,4.34,6.65,6.65,0,0,0,4.57,1.65,7.7,7.7,0,0,0,5.58-2.47l1.69,1.95a9.83,9.83,0,0,1-7.31,3.18,9.38,9.38,0,0,1-6.87-2.75A9.11,9.11,0,0,1,556.4,40a9.36,9.36,0,0,1,2.72-6.77,8.89,8.89,0,0,1,6.61-2.79,8.16,8.16,0,0,1,5.94,2.33,7.89,7.89,0,0,1,2.38,5.92A11.09,11.09,0,0,1,573.83,40.83Zm-14.32-2.55h11.58a5.06,5.06,0,0,0-1.57-3.82A5.47,5.47,0,0,0,565.66,33a5.93,5.93,0,0,0-4,1.45A6.6,6.6,0,0,0,559.51,38.28Z"/><path class="cls-1" d="M594.21,37.61V49.07h-2.89V37.94a5.05,5.05,0,0,0-1.21-3.52,4.26,4.26,0,0,0-3.32-1.35,4.65,4.65,0,0,0-3.45,1.37,4.77,4.77,0,0,0-1.35,3.5V49.07h-2.88V30.82h2.7v2a7.23,7.23,0,0,1,5.62-2.36,6.42,6.42,0,0,1,5,2A7.4,7.4,0,0,1,594.21,37.61Z"/><path class="cls-1" d="M599,39.93a9.36,9.36,0,0,1,17.09-5.55L614,36a6.53,6.53,0,0,0-5.43-3,6.24,6.24,0,0,0-4.72,2A6.74,6.74,0,0,0,602,39.93a6.82,6.82,0,0,0,1.92,4.89,6.26,6.26,0,0,0,4.72,2A6.49,6.49,0,0,0,614,43.9l2.06,1.61a8.54,8.54,0,0,1-7.49,4A9.54,9.54,0,0,1,599,39.93Z"/><path class="cls-1" d="M633.93,30.82H637l-9,20.8q-2,4.6-6.19,4.61a10.34,10.34,0,0,1-2.8-.38V53.42c1,.12,1.78.19,2.2.19A4.34,4.34,0,0,0,623.7,53a4.93,4.93,0,0,0,1.65-2.27l1-2.17-7.57-17.69h3.11l6,14.54Z"/></g></g></svg>