<svg viewBox="0 0 1318 243" fill="#fff" version="1.1" xmlns="http://www.w3.org/2000/svg" xmlns:xlink="http://www.w3.org/1999/xlink">
        <path d="M97,96.89 C67.45,96.89 49.13,108.84 39.7,128.67 L39.56,128.67 L37.46,128.67 L41.04,41.24 L0.58,41.24 L0.58,238.53 L39.07,238.53 L35.95,206.86 L38.08,206.81 C46.95,228.83 65.66,242.26 96.99,242.26 C143.4,242.26 169.86,212.82 169.86,169.57 C169.87,126.33 143.41,96.89 97,96.89 Z M85.27,217.26 C54.9,217.26 37.59,199.95 37.59,169.58 C37.59,139.21 54.91,121.9 85.27,121.9 C115.63,121.9 132.95,139.22 132.95,169.58 C132.95,199.94 115.64,217.26 85.27,217.26 Z M635.22,160.06 L635.22,238.53 L597.71,238.53 L597.71,167.71 C597.71,142.61 592.34,120.89 561.81,120.89 C528.56,120.89 523.34,151.39 523.34,169.57 L523.34,238.53 L485.23,238.53 L485.23,100.62 L521.72,100.62 L517.99,141.94 L520.21,141.94 C526.13,118.86 539.17,96.88 574.99,96.88 C623.17,96.89 635.22,130.53 635.22,160.06 Z M1174.92,100.62 L1212.43,100.62 L1212.43,238.53 L1174.92,238.53 L1174.92,100.62 Z M1213.97,58.97 C1213.97,70.18 1204.88,79.27 1193.67,79.27 C1182.46,79.27 1173.37,70.18 1173.37,58.97 C1173.37,47.76 1182.46,38.67 1193.67,38.67 C1204.88,38.67 1213.97,47.76 1213.97,58.97 Z M288.95,97.15 C290.6,97.24 292.29,97.51 294.05,97.68 L294.05,133.15 C284.04,129.17 260.34,122.76 245.35,137.83 C241.27,141.93 237.89,146.77 235.48,152.63 C233.06,158.5 231.86,165.26 231.86,172.9 L231.86,238.52 L193.41,238.52 L193.41,100.62 L229.9,100.62 L227.14,141.94 L229.12,141.94 C235.65,102.01 270.67,96.21 288.95,97.15 Z M1146.56,97.15 C1148.21,97.24 1149.9,97.51 1151.66,97.68 L1151.66,133.15 C1141.65,129.17 1117.95,122.76 1102.96,137.83 C1098.88,141.93 1095.5,146.77 1093.09,152.63 C1090.67,158.5 1089.47,165.26 1089.47,172.9 L1089.47,238.52 L1051.02,238.52 L1051.02,100.62 L1087.51,100.62 L1084.75,141.94 L1086.73,141.94 C1093.26,102.01 1128.28,96.21 1146.56,97.15 Z M981.76,128.67 L979.66,128.67 L979.52,128.67 C970.09,108.84 951.77,96.89 922.22,96.89 C875.81,96.89 849.35,126.33 849.35,169.58 C849.35,212.83 875.81,242.27 922.22,242.27 C953.55,242.27 972.26,228.84 981.13,206.82 L983.36,206.87 L980.15,238.54 L1018.64,238.54 L1018.64,100.62 L980.26,100.62 L981.76,128.67 Z M933.95,217.26 C903.58,217.26 886.27,199.94 886.27,169.58 C886.27,139.21 903.59,121.9 933.95,121.9 C964.31,121.9 981.63,139.22 981.63,169.58 C981.63,199.94 964.32,217.26 933.95,217.26 Z M383.98,96.89 C337.57,96.89 303.41,118.75 303.41,169.58 C303.41,218.98 337.57,242.27 383.98,242.27 C423.84,242.27 443.84,232.82 458.63,210.99 L430.73,194.62 C422.49,211.58 406.06,223.96 383.98,223.96 C355.77,223.96 341.05,206.86 339.1,176.73 L464.21,176.73 C464.21,176.73 464.21,176.73 464.21,176.73 L464.23,176.73 L464.22,176.69 C464.43,174.36 464.55,171.99 464.55,169.57 C464.54,119.46 430.39,96.89 383.98,96.89 Z M339.43,158.58 C342.38,131.2 357.02,116.76 383.98,116.76 C411,116.76 425.64,130.69 428.55,158.58 L339.43,158.58 Z M790.44,128.67 L788.34,128.67 L788.2,128.67 C778.77,108.84 760.45,96.89 730.9,96.89 C684.49,96.89 658.03,126.33 658.03,169.58 C658.03,212.83 684.49,242.27 730.9,242.27 C762.23,242.27 780.94,228.84 789.81,206.82 L791.94,206.87 L788.82,238.54 L827.31,238.54 L827.31,41.24 L786.85,41.24 L790.44,128.67 Z M742.63,217.26 C712.26,217.26 694.95,199.95 694.95,169.58 C694.95,139.21 712.27,121.9 742.63,121.9 C773,121.9 790.31,139.22 790.31,169.58 C790.32,199.94 773,217.26 742.63,217.26 Z M1279.31,0 C1257.99,0 1240.64,17.35 1240.64,38.67 C1240.64,59.99 1257.99,77.34 1279.31,77.34 C1300.63,77.34 1317.98,59.99 1317.98,38.67 C1317.98,17.35 1300.63,0 1279.31,0 Z M1279.31,71.79 C1261.05,71.79 1246.19,56.93 1246.19,38.67 C1246.19,20.41 1261.05,5.55 1279.31,5.55 C1297.57,5.55 1312.43,20.41 1312.43,38.67 C1312.43,56.93 1297.57,71.79 1279.31,71.79 Z M1292.63,38.36 C1290.04,36.25 1286.51,35.19 1282.05,35.19 L1271.73,35.19 L1271.73,24.76 L1293.86,24.76 L1293.86,18.65 L1265.1,18.65 L1265.1,59 L1282.05,59 C1286.51,59 1290.03,57.93 1292.63,55.8 C1295.22,53.67 1296.52,50.76 1296.52,47.07 C1296.52,43.37 1295.22,40.47 1292.63,38.36 Z M1287.44,51.44 C1286,52.52 1284.03,53.05 1281.53,53.05 L1271.73,53.05 L1271.73,41.06 L1281.53,41.06 C1284.03,41.06 1286,41.6 1287.44,42.67 C1288.88,43.75 1289.6,45.21 1289.6,47.05 C1289.6,48.9 1288.88,50.37 1287.44,51.44 Z" id="Shape"></path>
</svg>