<svg width="186" height="60" viewBox="0 0 186 60" fill="none" xmlns="http://www.w3.org/2000/svg">
<path d="M65.2441 30.0431V18.8711H72.1708V19.9138H66.3613V23.7123H71.7984V24.755H66.3613V29.0748H72.3942V30.0431H65.2441Z" fill="#58B33E"/>
<path d="M74.5547 30.0431V18.8711H75.6719V23.7123H81.7792V18.8711H82.8964V30.0431H81.7792V24.755H75.6719V30.0431H74.5547Z" fill="#58B33E"/>
<path d="M85.8008 30.0431V18.8711H92.8019V19.9138H86.9925V23.7123H92.4295V24.755H86.9925V29.0748H92.9509V30.0431H85.8008Z" fill="#58B33E"/>
<path d="M95.1113 30.0431V18.8711H98.2395C99.4312 18.8711 100.325 19.0945 100.995 19.6159C101.666 20.1373 102.038 20.8821 102.038 21.8503C102.038 22.8185 101.666 23.5633 100.995 24.0847C100.325 24.606 99.3567 24.8295 98.2395 24.8295H96.2285V30.0431H95.1113ZM96.303 23.8612H98.2395C99.1332 23.8612 99.8036 23.7123 100.25 23.3399C100.697 22.9675 100.921 22.5206 100.921 21.8503C100.921 20.5097 100.027 19.8393 98.165 19.8393H96.2285V23.8612H96.303Z" fill="#58B33E"/>
<path d="M104.271 30.0431V18.8711H110.602V19.9138H105.389V30.0431H104.271Z" fill="#58B33E"/>
<path d="M113.358 18.8711H112.241V30.0431H113.358V18.8711Z" fill="#58B33E"/>
<path d="M115.369 30.0433L118.423 25.1277C117.529 24.9787 116.859 24.6063 116.337 24.0849C115.816 23.5636 115.593 22.8933 115.593 21.9995C115.593 20.9568 115.965 20.212 116.635 19.6162C117.306 19.0203 118.348 18.7969 119.54 18.7969H122.668V29.9689H121.551V25.1277H119.54L116.635 29.9689H115.369V30.0433ZM119.763 24.2339H121.625V19.8396H119.763C117.753 19.8396 116.784 20.5844 116.784 21.9995C116.784 22.7443 117.008 23.2657 117.529 23.6381C118.05 24.0105 118.795 24.2339 119.763 24.2339Z" fill="#58B33E"/>
<path d="M134.808 30.3411C133.095 30.3411 131.755 29.8197 130.638 28.7025C129.52 27.5853 128.999 26.1702 128.999 24.4572C128.999 22.7441 129.52 21.329 130.638 20.2118C131.755 19.0946 133.17 18.5732 134.808 18.5732C135.628 18.5732 136.373 18.7222 137.117 19.0201C137.862 19.318 138.383 19.7649 138.756 20.2863L137.788 20.9566C137.49 20.5842 137.117 20.2118 136.596 19.9139C136.075 19.616 135.479 19.467 134.808 19.467C133.393 19.467 132.276 19.9139 131.457 20.8821C130.638 21.8504 130.191 22.9676 130.191 24.3827C130.191 25.7978 130.638 26.915 131.457 27.8832C132.276 28.8515 133.468 29.2983 134.808 29.2983C136.298 29.2983 137.341 28.777 138.086 27.6598L138.979 28.2556C138.607 28.8515 138.011 29.3728 137.266 29.7452C136.596 30.1921 135.777 30.3411 134.808 30.3411Z" fill="#58B33E"/>
<path d="M150.151 28.7025C149.034 29.8197 147.619 30.3411 145.98 30.3411C144.342 30.3411 142.927 29.8197 141.809 28.7025C140.692 27.5853 140.171 26.1702 140.171 24.4572C140.171 22.7441 140.692 21.329 141.809 20.2118C142.927 19.0946 144.342 18.5732 145.98 18.5732C147.619 18.5732 149.034 19.0946 150.151 20.2118C151.268 21.329 151.79 22.7441 151.79 24.4572C151.79 26.1702 151.268 27.5853 150.151 28.7025ZM142.629 27.9577C143.448 28.9259 144.565 29.3728 145.98 29.3728C147.395 29.3728 148.513 28.9259 149.332 27.9577C150.151 26.9895 150.598 25.8723 150.598 24.5316C150.598 23.191 150.151 21.9993 149.332 21.0311C148.513 20.0628 147.395 19.616 145.98 19.616C144.565 19.616 143.448 20.0628 142.629 21.0311C141.809 21.9993 141.363 23.1165 141.363 24.5316C141.363 25.9468 141.735 26.9895 142.629 27.9577Z" fill="#58B33E"/>
<path d="M154.099 30.0431V18.8711H155.216V23.7123H161.323V18.8711H162.515V30.0431H161.323V24.755H155.216V30.0431H154.099Z" fill="#58B33E"/>
<path d="M173.985 32.7988V30.0431H165.42V18.8711H166.537V29.0748H172.644V18.8711H173.762V29.0748H175.028V32.7988H173.985Z" fill="#58B33E"/>
<path d="M176.22 30.0433L179.273 25.1277C178.38 24.9787 177.709 24.6063 177.188 24.0849C176.667 23.5636 176.443 22.8933 176.443 21.9995C176.443 20.9568 176.816 20.212 177.486 19.6162C178.231 19.0948 179.199 18.7969 180.391 18.7969H183.519V29.9689H182.476V25.1277H180.465L177.56 29.9689H176.22V30.0433ZM180.614 24.2339H182.476V19.8396H180.614C178.603 19.8396 177.635 20.5844 177.635 21.9995C177.635 22.7443 177.858 23.2657 178.38 23.6381C178.901 24.0105 179.646 24.2339 180.614 24.2339Z" fill="#58B33E"/>
<path d="M66.5846 42.0348C66.2122 42.0348 65.8398 41.8859 65.4674 41.6624C65.1695 41.439 65.0205 41.0666 65.0205 40.6197C65.0205 40.3963 65.095 40.1728 65.1695 40.0239C65.2439 39.8749 65.3929 39.7259 65.5419 39.577C65.6908 39.5025 65.8398 39.3535 66.0632 39.2791C66.2122 39.2046 66.4356 39.1301 66.7335 39.1301C67.0315 39.1301 67.2549 39.0556 67.4783 39.0556C67.7018 39.0556 67.9997 39.0556 68.2976 39.0556V38.9067C68.2976 38.0874 67.9252 37.715 67.1059 37.715C66.5846 37.715 66.1377 37.8639 65.7653 38.2363L65.3929 37.7895C65.8398 37.3426 66.4356 37.1191 67.1804 37.1191C67.7018 37.1191 68.1487 37.2681 68.4466 37.566C68.7445 37.8639 68.9679 38.2363 68.9679 38.7577V40.7687C68.9679 41.1411 68.9679 41.5135 69.0424 41.8114H68.4466C68.3721 41.5879 68.3721 41.29 68.3721 41.0666C67.8507 41.7369 67.3294 42.0348 66.5846 42.0348ZM66.7335 41.439C67.1804 41.439 67.5528 41.29 67.7763 40.9921C68.0742 40.6942 68.1487 40.3218 68.1487 39.9494V39.577H67.9252C67.6273 39.577 67.3294 39.577 67.1059 39.577C66.8825 39.577 66.5846 39.6515 66.3611 39.7259C66.1377 39.8004 65.9143 39.8749 65.7653 40.0239C65.6163 40.1728 65.5419 40.3218 65.5419 40.5452C65.5419 40.8431 65.6163 41.0666 65.8398 41.2155C66.2122 41.3645 66.4356 41.439 66.7335 41.439Z" fill="#58B33E"/>
<path d="M70.16 41.9598C69.9366 41.9598 69.7876 41.9598 69.6387 41.8853L69.7132 41.2895C69.7876 41.2895 69.9366 41.364 70.0111 41.364C70.3835 41.364 70.6069 41.1405 70.8303 40.7681C70.9793 40.3957 71.0538 39.7254 71.0538 38.8317V37.2676H74.3309V41.8109H73.7351V37.7889H71.7986V38.9806C71.7986 39.8744 71.6496 40.6192 71.4262 41.0661C71.1283 41.6619 70.7559 41.9598 70.16 41.9598Z" fill="#58B33E"/>
<path d="M76.0439 41.8861V37.3428H76.7143V39.0558H77.8315C78.4273 39.0558 78.7997 39.2048 79.1721 39.4282C79.47 39.6517 79.619 40.024 79.619 40.4709C79.619 40.9178 79.47 41.2902 79.1721 41.5137C78.8742 41.7371 78.4273 41.8861 77.8315 41.8861H76.0439ZM76.7143 41.2902H77.9059C78.5763 41.2902 78.9487 40.9923 78.9487 40.4709C78.9487 39.8751 78.5763 39.5772 77.9059 39.5772H76.7143V41.2902Z" fill="#58B33E"/>
<path d="M81.5558 41.8861V37.8641H79.8428V37.3428H83.7902V37.8641H82.1517V41.8861H81.5558Z" fill="#58B33E"/>
<path d="M86.6949 42.0343C86.0246 42.0343 85.4287 41.8109 84.9818 41.364C84.535 40.9171 84.3115 40.3213 84.3115 39.6509C84.3115 38.9806 84.535 38.3848 84.9818 37.9379C85.4287 37.491 85.9501 37.2676 86.6204 37.2676C87.2907 37.2676 87.8121 37.491 88.259 37.9379C88.6314 38.3848 88.8548 38.9061 88.8548 39.5765C88.8548 39.7254 88.8548 39.7999 88.8548 39.8744H85.0563C85.0563 40.3213 85.2053 40.6937 85.5777 41.0661C85.8756 41.364 86.248 41.5129 86.7694 41.5129C87.0673 41.5129 87.3652 41.4385 87.6631 41.2895C87.8866 41.1405 88.11 40.9171 88.259 40.7681L88.7803 41.1405C88.1845 41.6619 87.5142 42.0343 86.6949 42.0343ZM85.0563 39.2785H88.1845C88.1845 38.8317 88.0355 38.4593 87.7376 38.2358C87.4397 37.9379 87.1418 37.7889 86.6204 37.7889C86.1735 37.7889 85.8011 37.9379 85.5032 38.2358C85.2798 38.5337 85.1308 38.8317 85.0563 39.2785Z" fill="#58B33E"/>
<path d="M90.1953 44.1942V37.3421H90.8656V38.1613C91.0146 37.8634 91.3125 37.64 91.6104 37.491C91.9083 37.3421 92.2807 37.2676 92.5787 37.2676C93.249 37.2676 93.8448 37.491 94.2917 37.9379C94.7386 38.3848 94.962 38.9806 94.962 39.6509C94.962 40.3213 94.7386 40.9171 94.2917 41.364C93.8448 41.8109 93.3235 42.0343 92.5787 42.0343C92.2807 42.0343 91.9083 41.9598 91.6104 41.8109C91.3125 41.6619 91.0146 41.4385 90.8656 41.1405V44.2687H90.1953V44.1942ZM92.5042 41.4385C93.0255 41.4385 93.4724 41.2895 93.7703 40.9171C94.0683 40.5447 94.2172 40.1723 94.2172 39.5765C94.2172 39.0551 94.0683 38.6082 93.7703 38.2358C93.4724 37.8634 93.0255 37.7145 92.5042 37.7145C91.9828 37.7145 91.6104 37.8634 91.238 38.2358C90.9401 38.6082 90.7167 39.0551 90.7167 39.5765C90.7167 40.0978 90.8656 40.5447 91.238 40.9171C91.6104 41.2895 91.9828 41.4385 92.5042 41.4385Z" fill="#58B33E"/>
<path d="M96.3027 41.8861V37.3428H96.973V39.2793H99.5798V37.3428H100.25V41.8861H99.5798V39.8006H96.973V41.8861H96.3027Z" fill="#58B33E"/>
<path d="M103.155 42.0348C102.783 42.0348 102.41 41.8859 102.038 41.6624C101.74 41.439 101.591 41.0666 101.591 40.6197C101.591 40.3963 101.665 40.1728 101.74 40.0239C101.814 39.8749 101.963 39.7259 102.112 39.577C102.261 39.5025 102.41 39.3535 102.634 39.2791C102.783 39.2046 103.006 39.1301 103.304 39.1301C103.602 39.1301 103.825 39.0556 104.049 39.0556C104.272 39.0556 104.57 39.0556 104.868 39.0556V38.9067C104.868 38.0874 104.496 37.715 103.676 37.715C103.155 37.715 102.708 37.8639 102.336 38.2363L101.963 37.7895C102.41 37.3426 103.006 37.1191 103.751 37.1191C104.272 37.1191 104.719 37.2681 105.017 37.566C105.315 37.8639 105.538 38.2363 105.538 38.7577V40.7687C105.538 41.1411 105.538 41.5135 105.613 41.8114H105.017C104.942 41.5879 104.942 41.29 104.942 41.0666C104.421 41.7369 103.825 42.0348 103.155 42.0348ZM103.304 41.439C103.751 41.439 104.123 41.29 104.347 40.9921C104.645 40.6942 104.719 40.3218 104.719 39.9494V39.577H104.496C104.198 39.577 103.9 39.577 103.676 39.577C103.453 39.577 103.155 39.6515 102.931 39.7259C102.708 39.8004 102.485 39.8749 102.336 40.0239C102.187 40.1728 102.112 40.3218 102.112 40.5452C102.112 40.8431 102.187 41.0666 102.41 41.2155C102.783 41.3645 103.006 41.439 103.304 41.439Z" fill="#58B33E"/>
<path d="M107.996 41.8861V37.8641H106.357V37.3428H110.305V37.8641H108.666V41.8861H107.996Z" fill="#58B33E"/>
<path d="M111.273 41.8861V37.3428H111.944V40.9923L114.625 37.3428H115.37V41.8861H114.7V38.2365L112.018 41.8861H111.273Z" fill="#58B33E"/>
<path d="M117.008 41.8861V37.3428H119.168C119.615 37.3428 119.913 37.4172 120.21 37.6407C120.508 37.7896 120.657 38.0876 120.657 38.5345C120.657 38.7579 120.583 38.9813 120.434 39.1303C120.285 39.2792 120.061 39.4282 119.838 39.5027C120.136 39.5027 120.359 39.6516 120.583 39.8751C120.806 40.0985 120.881 40.322 120.881 40.6944C120.881 41.0668 120.732 41.3647 120.434 41.5881C120.136 41.8116 119.689 41.9605 119.168 41.9605H117.008V41.8861ZM117.678 39.2793H119.093C119.317 39.2793 119.54 39.2048 119.689 39.1303C119.838 39.0558 119.913 38.8324 119.913 38.6089C119.913 38.1621 119.615 37.9386 118.944 37.9386H117.678V39.2793ZM117.678 41.2902H119.093C119.391 41.2902 119.689 41.2157 119.838 41.1413C120.061 40.9923 120.136 40.8433 120.136 40.5454C120.136 40.0241 119.764 39.8006 119.093 39.8006H117.604V41.2902H117.678Z" fill="#58B33E"/>
<path d="M122.222 41.8861V37.3428H122.892V39.2793H125.499V37.3428H126.169V41.8861H125.499V39.8006H122.892V41.8861H122.222Z" fill="#58B33E"/>
<path d="M129.074 42.0348C128.701 42.0348 128.329 41.8859 127.957 41.6624C127.659 41.439 127.51 41.0666 127.51 40.6197C127.51 40.3963 127.584 40.1728 127.659 40.0239C127.733 39.8749 127.882 39.7259 128.031 39.577C128.18 39.5025 128.329 39.3535 128.552 39.2791C128.701 39.2046 128.925 39.1301 129.223 39.1301C129.521 39.1301 129.744 39.0556 129.968 39.0556C130.191 39.0556 130.489 39.0556 130.787 39.0556V38.9067C130.787 38.0874 130.414 37.715 129.595 37.715C129.074 37.715 128.627 37.8639 128.255 38.2363L127.882 37.7895C128.329 37.3426 128.925 37.1191 129.67 37.1191C130.191 37.1191 130.638 37.2681 130.936 37.566C131.234 37.8639 131.457 38.2363 131.457 38.7577V40.7687C131.457 41.1411 131.457 41.5135 131.532 41.8114H130.936C130.861 41.5879 130.861 41.29 130.861 41.0666C130.34 41.7369 129.744 42.0348 129.074 42.0348ZM129.223 41.439C129.67 41.439 130.042 41.29 130.266 40.9921C130.563 40.6942 130.638 40.3218 130.638 39.9494V39.577H130.414C130.117 39.577 129.819 39.577 129.595 39.577C129.372 39.577 129.074 39.6515 128.85 39.7259C128.627 39.8004 128.404 39.8749 128.255 40.0239C128.106 40.1728 128.031 40.3218 128.031 40.5452C128.031 40.8431 128.106 41.0666 128.329 41.2155C128.701 41.3645 128.925 41.439 129.223 41.439Z" fill="#58B33E"/>
<path d="M137.341 42.0343C136.671 42.0343 136.075 41.8109 135.628 41.364C135.181 40.9171 134.958 40.3213 134.958 39.6509C134.958 38.9806 135.181 38.3848 135.628 37.9379C136.075 37.491 136.597 37.2676 137.267 37.2676C137.937 37.2676 138.459 37.491 138.905 37.9379C139.278 38.3848 139.501 38.9061 139.501 39.5765C139.501 39.7254 139.501 39.7999 139.501 39.8744H135.703C135.703 40.3213 135.852 40.6937 136.224 41.0661C136.522 41.364 136.894 41.5129 137.416 41.5129C137.714 41.5129 138.012 41.4385 138.31 41.2895C138.533 41.1405 138.756 40.9171 138.905 40.7681L139.427 41.1405C138.756 41.6619 138.086 42.0343 137.341 42.0343ZM135.703 39.2785H138.831C138.831 38.8317 138.682 38.4593 138.384 38.2358C138.086 37.9379 137.788 37.7889 137.267 37.7889C136.82 37.7889 136.448 37.9379 136.15 38.2358C135.852 38.5337 135.703 38.8317 135.703 39.2785Z" fill="#58B33E"/>
<path d="M140.767 41.8861V37.3428H141.437V39.2793H144.044V37.3428H144.714V41.8861H144.044V39.8006H141.437V41.8861H140.767Z" fill="#58B33E"/>
<path d="M148.438 42.0343C147.768 42.0343 147.172 41.8109 146.725 41.364C146.278 40.9171 146.055 40.3213 146.055 39.6509C146.055 38.9806 146.278 38.3848 146.725 37.9379C147.172 37.491 147.693 37.2676 148.364 37.2676C149.034 37.2676 149.555 37.491 150.002 37.9379C150.375 38.3848 150.598 38.9061 150.598 39.5765C150.598 39.7254 150.598 39.7999 150.598 39.8744H146.725C146.725 40.3213 146.874 40.6937 147.246 41.0661C147.544 41.364 147.917 41.5129 148.438 41.5129C148.736 41.5129 149.034 41.4385 149.332 41.2895C149.555 41.1405 149.779 40.9171 149.928 40.7681L150.449 41.1405C149.853 41.6619 149.183 42.0343 148.438 42.0343ZM146.799 39.2785H149.928C149.928 38.8317 149.779 38.4593 149.481 38.2358C149.183 37.9379 148.885 37.7889 148.364 37.7889C147.917 37.7889 147.544 37.9379 147.246 38.2358C146.948 38.5337 146.799 38.8317 146.799 39.2785Z" fill="#58B33E"/>
<path d="M151.864 44.1942V37.3421H152.535V38.1613C152.684 37.8634 152.981 37.64 153.279 37.491C153.577 37.3421 153.95 37.2676 154.248 37.2676C154.918 37.2676 155.514 37.491 155.961 37.9379C156.408 38.3848 156.631 38.9806 156.631 39.6509C156.631 40.3213 156.408 40.9171 155.961 41.364C155.514 41.8109 154.992 42.0343 154.248 42.0343C153.95 42.0343 153.577 41.9598 153.279 41.8109C152.981 41.6619 152.684 41.4385 152.535 41.1405V44.2687H151.864V44.1942ZM154.248 41.4385C154.769 41.4385 155.216 41.2895 155.514 40.9171C155.812 40.5447 155.961 40.1723 155.961 39.5765C155.961 39.0551 155.812 38.6082 155.514 38.2358C155.216 37.8634 154.769 37.7145 154.248 37.7145C153.726 37.7145 153.354 37.8634 152.981 38.2358C152.684 38.6082 152.46 39.0551 152.46 39.5765C152.46 40.0978 152.609 40.5447 152.981 40.9171C153.279 41.2895 153.726 41.4385 154.248 41.4385Z" fill="#58B33E"/>
<path d="M157.972 41.8861V37.3428H161.025V37.8641H158.642V41.8861H157.972Z" fill="#58B33E"/>
<path d="M163.93 42.0343C163.26 42.0343 162.664 41.8109 162.217 41.364C161.77 40.9171 161.547 40.3213 161.547 39.6509C161.547 38.9806 161.77 38.3848 162.217 37.9379C162.664 37.491 163.185 37.2676 163.856 37.2676C164.526 37.2676 165.047 37.491 165.494 37.9379C165.867 38.3848 166.09 38.9061 166.09 39.5765C166.09 39.7254 166.09 39.7999 166.09 39.8744H162.292C162.292 40.3213 162.441 40.6937 162.813 41.0661C163.111 41.364 163.483 41.5129 164.005 41.5129C164.303 41.5129 164.601 41.4385 164.898 41.2895C165.122 41.1405 165.345 40.9171 165.494 40.7681L166.016 41.1405C165.345 41.6619 164.675 42.0343 163.93 42.0343ZM162.217 39.2785H165.345C165.345 38.8317 165.196 38.4593 164.898 38.2358C164.601 37.9379 164.303 37.7889 163.781 37.7889C163.334 37.7889 162.962 37.9379 162.664 38.2358C162.441 38.5337 162.292 38.8317 162.217 39.2785Z" fill="#58B33E"/>
<path d="M168.325 41.8861V37.8641H166.687V37.3428H170.634V37.8641H168.995V41.8861H168.325Z" fill="#58B33E"/>
<path d="M171.602 41.8861V37.3428H172.272V40.9923L174.953 37.3428H175.698V41.8861H175.028V38.2365L172.346 41.8861H171.602Z" fill="#58B33E"/>
<path d="M177.411 41.8861V37.3428H178.081V39.5027L180.167 37.3428H181.135L178.826 39.5027L181.359 41.8861H180.39L178.081 39.5772V41.8861H177.411Z" fill="#58B33E"/>
<path d="M183.518 42.0348C183.146 42.0348 182.773 41.8859 182.401 41.6624C182.103 41.439 181.954 41.0666 181.954 40.6197C181.954 40.3963 182.029 40.1728 182.103 40.0239C182.178 39.8749 182.327 39.7259 182.475 39.577C182.624 39.5025 182.773 39.3535 182.997 39.2791C183.146 39.2046 183.369 39.1301 183.667 39.1301C183.965 39.1301 184.189 39.0556 184.412 39.0556C184.635 39.0556 184.933 39.0556 185.231 39.0556V38.9067C185.231 38.0874 184.859 37.715 184.04 37.715C183.518 37.715 183.071 37.8639 182.699 38.2363L182.327 37.7895C182.773 37.3426 183.369 37.1191 184.114 37.1191C184.635 37.1191 185.082 37.2681 185.38 37.566C185.678 37.8639 185.902 38.2363 185.902 38.7577V40.7687C185.902 41.1411 185.902 41.5135 185.976 41.8114H185.38C185.306 41.5879 185.306 41.29 185.306 41.0666C184.784 41.7369 184.189 42.0348 183.518 42.0348ZM183.667 41.439C184.114 41.439 184.486 41.29 184.71 40.9921C185.008 40.6942 185.082 40.3218 185.082 39.9494V39.577H184.859C184.561 39.577 184.263 39.577 184.04 39.577C183.816 39.577 183.518 39.6515 183.295 39.7259C183.071 39.8004 182.848 39.8749 182.699 40.0239C182.55 40.1728 182.475 40.3218 182.475 40.5452C182.475 40.8431 182.55 41.0666 182.773 41.2155C183.146 41.3645 183.369 41.439 183.667 41.439Z" fill="#58B33E"/>
<path d="M31.2816 51.7916C26.7383 50.8979 22.7909 48.9614 19.2158 46.578C14.3746 43.2264 8.04383 33.693 13.2574 23.1913C19.4393 10.7532 33.4415 8.74224 43.4218 10.8277C33.8884 9.85944 24.6529 14.4027 19.5882 21.4783C14.5981 28.4049 16.1621 34.8847 16.4601 36.2253C18.9924 37.1936 19.1413 37.2681 21.8226 37.7894C37.4634 40.7686 52.5084 31.1607 56.5303 15.9668C56.4558 15.8923 56.6047 16.0413 56.5303 15.9668C52.4339 8.22088 44.9859 2.33696 35.6759 0.549445C26.8128 -1.16359 18.0986 1.21977 11.5444 6.43336C9.16103 8.29536 7.07559 10.5298 5.28808 13.0621C5.28808 13.1366 5.2136 13.1366 5.2136 13.211C4.99016 13.509 4.8412 13.8069 4.61776 14.1048C4.54328 14.1793 4.4688 14.3282 4.39432 14.4027C4.24536 14.6262 4.0964 14.9241 3.94744 15.222C3.87296 15.371 3.79848 15.5199 3.724 15.6689C3.57504 15.8923 3.42608 16.1902 3.3516 16.4137C3.27712 16.5626 3.20264 16.7861 3.05368 16.935C2.90472 17.1585 2.83024 17.3819 2.75576 17.6053C2.68128 17.8288 2.6068 18.0522 2.45784 18.2012C2.38336 18.4246 2.2344 18.6481 2.15992 18.8715C2.08544 19.0949 2.01096 19.3184 1.862 19.5418C1.78752 19.7653 1.71304 19.9887 1.63856 20.2121C1.56408 20.4356 1.4896 20.7335 1.41512 20.9569C1.34064 21.1804 1.26616 21.3293 1.19168 21.5528C1.1172 21.8507 1.04272 22.1486 0.968239 22.4465C0.893759 22.5955 0.893759 22.7445 0.81928 22.9679C0.67032 23.4148 0.59584 23.9361 0.52136 24.383C0.3724 25.0533 0.297919 25.6492 0.223439 26.3195C0.223439 26.4685 0.14896 26.6919 0.14896 26.8409C0.0744805 27.3622 0.0744799 27.8836 0 28.4049C0 28.5539 0 28.6284 0 28.7773C0 29.3732 0 30.0435 0 30.6393C0 30.7883 0 30.8628 0 31.0117C0 31.5331 0.0744802 32.0545 0.0744802 32.5758C0.0744802 32.7248 0.0744805 32.8737 0.14896 33.0227C0.22344 33.6185 0.29792 34.2888 0.3724 34.8847C0.44688 35.4805 0.595839 36.1508 0.744799 36.7467C0.744799 36.8956 0.81928 36.9701 0.81928 37.1191C0.968239 37.7149 1.1172 38.3108 1.26616 38.8321V38.9066C1.4896 39.5025 1.63856 40.1728 1.93648 40.7686C1.93648 40.8431 2.01096 40.9176 2.01096 40.992C2.2344 41.5879 2.45784 42.1092 2.68128 42.6306C2.68128 42.7051 2.75576 42.7051 2.75576 42.7796C3.3516 43.9712 3.94744 45.0884 4.69223 46.2056L4.76672 46.2801C6.62871 49.1104 8.86311 51.6427 11.5444 53.7281C15.1939 56.5583 19.4393 58.5693 24.2805 59.4631C36.7931 61.8464 49.0078 56.1115 55.4131 45.9077C48.8588 51.1213 40.1447 53.5047 31.2816 51.7916Z" fill="#58B33E"/>
</svg>
