<?xml version="1.0" encoding="utf-8"?>
<!-- Generator: Adobe Illustrator 21.1.0, SVG Export Plug-In . SVG Version: 6.00 Build 0)  -->
<svg version="1.1" id="Layer_1" fill="#fff" xmlns="http://www.w3.org/2000/svg" xmlns:xlink="http://www.w3.org/1999/xlink" x="0px" y="0px"
	 viewBox="0 0 102.7 141.7" style="enable-background:new 0 0 102.7 141.7;" xml:space="preserve">
<path d="M4.2,4.5v94h94v-94H4.2z M48.1,51.5L8.5,91.1V11.9L48.1,51.5z M11.5,8.8h79.2L51.2,48.5L11.5,8.8z M51.2,54.6
	l39.6,39.6H11.5L51.2,54.6z M54.2,51.5l39.6-39.6v79.2L54.2,51.5z M41.5,35.2v3.8h19.1V8.8H41.5v3.6h14.9v9.7H41.5v3.5h14.9v9.6
	H41.5z M67.4,77.5c0,4.6-1.6,8.5-4.7,11.8c-3.1,3.3-7,4.9-11.6,4.9c-4.5,0-8.4-1.6-11.5-4.9c-3.2-3.3-4.7-7.2-4.7-11.7
	c0-4.5,1.6-8.3,4.8-11.5c3.2-3.2,7.1-4.8,11.5-4.8c4.5,0,8.3,1.6,11.4,4.8C65.8,69.2,67.4,73,67.4,77.5z M63,77.4
	c0-3.2-1.2-6-3.5-8.4c-2.3-2.4-5.1-3.6-8.3-3.6c-3.2,0-6,1.2-8.3,3.7c-2.3,2.4-3.5,5.2-3.5,8.4c0,3.3,1.1,6.2,3.4,8.7
	c2.3,2.5,5.1,3.8,8.4,3.8c3.5,0,6.3-1.2,8.5-3.7C61.9,83.9,63,80.9,63,77.4z M32.7,133.3v4.3H7.4v-33.7h25.3v4H11.9v10.8h20.8v3.9
	H11.9v10.7H32.7z M58.8,137.6L50.2,124l-8.6,13.6h-5.1l11.2-17l-11-16.7h5.2l8.3,13.5l8.2-13.5h5.2l-11,16.7l11.2,17H58.8z
	 M98.2,120.6c0,4.9-1.7,9.1-5,12.5c-3.3,3.5-7.4,5.2-12.3,5.2c-4.8,0-8.9-1.7-12.3-5.2c-3.4-3.5-5-7.7-5-12.5
	c0-4.7,1.7-8.8,5.2-12.2c3.4-3.4,7.5-5.1,12.3-5.1c4.8,0,8.8,1.7,12.2,5.1C96.5,111.7,98.2,115.8,98.2,120.6z M93.4,120.5
	c0-3.4-1.2-6.4-3.7-8.9c-2.5-2.6-5.4-3.8-8.8-3.8c-3.4,0-6.4,1.3-8.8,3.9c-2.5,2.6-3.7,5.6-3.7,9c0,3.5,1.2,6.6,3.7,9.3
	c2.4,2.7,5.4,4,8.9,4c3.7,0,6.7-1.3,9.1-4C92.3,127.3,93.4,124.2,93.4,120.5z"/>
</svg>
