<svg xmlns="http://www.w3.org/2000/svg" viewBox="0 0 119.65 25.76">
  <defs>
    <style>
      .cls-1 {
        fill: #ffb228;
      }
    </style>
  </defs>
  <g id="Слой_2" data-name="Слой 2">
    <g id="Layer_1" data-name="Layer 1">
      <g>
        <path class="cls-1" d="M14,0C5.94,0,0,5,0,12.86s5.94,12.9,14,12.9,14-5,14-12.9S22.08,0,14,0Zm0,19.79c-4.38,0-7.27-2.58-7.27-6.93S9.65,6,14,6s7.26,2.57,7.26,6.88S18.4,19.79,14,19.79Z"/>
        <path class="cls-1" d="M49.39,7V6.57H32.55V.65H57.48V9L40.64,18.48v.38H57.48v5.92H32.55V16.42Z"/>
        <path class="cls-1" d="M113.14,17.11h.4V.82h6.11V25H111l-9.74-16.3h-.4V25H94.73V.82h8.63Z"/>
        <path class="cls-1" d="M76.4,0c-8.09,0-14,5-14,12.86s5.94,12.9,14,12.9,14-5,14-12.9S84.45,0,76.4,0Zm0,19.79c-4.38,0-7.27-2.58-7.27-6.93S72,6,76.4,6s7.27,2.57,7.27,6.88S80.78,19.79,76.4,19.79Z"/>
      </g>
    </g>
  </g>
</svg>
