<svg xmlns="http://www.w3.org/2000/svg" viewBox="0 0 97.13 121.3">
  <defs>
    <style>
      .cls-1 {
        fill: #ffb228;
      }

      .cls-2 {
        fill: #5a5c5f;
      }
    </style>
  </defs>
  <g id="Слой_2" data-name="Слой 2">
    <g id="Layer_1" data-name="Layer 1">
      <g>
        <g>
          <path class="cls-1" d="M23.79,0C10.07,0,0,8.74,0,22.53S10.07,45.12,23.79,45.12s23.78-8.81,23.78-22.59S37.43,0,23.79,0Zm0,34.65c-7.42,0-12.33-4.5-12.33-12.12s4.91-12.06,12.33-12.06S36.11,15,36.11,22.53,31.21,34.65,23.79,34.65Z"/>
          <path class="cls-1" d="M83.41,12.17V11.5H54.87V1.14H97.13V15.83L68.59,32.36V33H97.13V43.39H54.87V28.76Z"/>
          <path class="cls-1" d="M86.09,82.49h.67V54H97.13V96.21H82.43L65.91,67.67h-.68V96.21H54.87V54H69.5Z"/>
          <path class="cls-1" d="M23.79,52.52C10.07,52.52,0,61.26,0,75.05S10.07,97.64,23.79,97.64s23.78-8.81,23.78-22.59S37.43,52.52,23.79,52.52Zm0,34.65c-7.42,0-12.33-4.5-12.33-12.12S16.37,63,23.79,63s12.32,4.5,12.32,12.06S31.21,87.17,23.79,87.17Z"/>
        </g>
        <g>
          <path class="cls-2" d="M9.17,107.37A3.6,3.6,0,0,1,11,108.76a4.82,4.82,0,0,1,.79,1.78,9,9,0,0,1,.2,1.81,7.25,7.25,0,0,1-.88,3.71,4,4,0,0,1-3.68,2H2.74v-11H7.47A5.74,5.74,0,0,1,9.17,107.37ZM5,109v7.16H7.09a2.28,2.28,0,0,0,2.26-1.6,5.48,5.48,0,0,0,.35-2.09,5.12,5.12,0,0,0-.52-2.57,2.22,2.22,0,0,0-2.09-.9Z"/>
          <path class="cls-2" d="M18.87,110.16a3.18,3.18,0,0,1,1.4,1.2,3.89,3.89,0,0,1,.65,1.68,10.05,10.05,0,0,1,.07,1.61H15.08a2,2,0,0,0,.85,1.71,2.17,2.17,0,0,0,1.17.3,1.79,1.79,0,0,0,1.18-.37,1.69,1.69,0,0,0,.43-.56h2.17a2.65,2.65,0,0,1-.79,1.47A3.92,3.92,0,0,1,17,118.38a4.46,4.46,0,0,1-2.86-1,4,4,0,0,1-1.24-3.25,4.43,4.43,0,0,1,1.12-3.24,3.91,3.91,0,0,1,2.9-1.12A4.49,4.49,0,0,1,18.87,110.16ZM15.7,112a2.24,2.24,0,0,0-.57,1.26h3.66a1.79,1.79,0,0,0-.57-1.29,1.87,1.87,0,0,0-1.26-.43A1.67,1.67,0,0,0,15.7,112Z"/>
          <path class="cls-2" d="M27.07,110h2.27l-2.93,8.12H24.18L21.26,110h2.39l1.69,6Z"/>
          <path class="cls-2" d="M35.84,110.16a3.29,3.29,0,0,1,1.4,1.2,4,4,0,0,1,.65,1.68,11.4,11.4,0,0,1,.07,1.61H32a2,2,0,0,0,.85,1.71,2.21,2.21,0,0,0,1.17.3,1.77,1.77,0,0,0,1.18-.37,1.71,1.71,0,0,0,.44-.56h2.16a2.57,2.57,0,0,1-.78,1.47A4,4,0,0,1,34,118.38a4.41,4.41,0,0,1-2.85-1,3.93,3.93,0,0,1-1.24-3.25A4.42,4.42,0,0,1,31,110.9a3.93,3.93,0,0,1,2.91-1.12A4.56,4.56,0,0,1,35.84,110.16ZM32.66,112a2.17,2.17,0,0,0-.56,1.26h3.65a1.79,1.79,0,0,0-.56-1.29,1.87,1.87,0,0,0-1.26-.43A1.68,1.68,0,0,0,32.66,112Z"/>
          <path class="cls-2" d="M41.2,118.11H39.07v-11H41.2Z"/>
          <path class="cls-2" d="M50,117.12a3.8,3.8,0,0,1-3.12,1.26,3.81,3.81,0,0,1-3.13-1.26,5.07,5.07,0,0,1,0-6.1,3.77,3.77,0,0,1,3.13-1.29A3.76,3.76,0,0,1,50,111a5.07,5.07,0,0,1,0,6.1Zm-1.7-1.18a3.78,3.78,0,0,0,0-3.76,1.71,1.71,0,0,0-1.43-.65,1.73,1.73,0,0,0-1.44.65,3.78,3.78,0,0,0,0,3.76,1.71,1.71,0,0,0,1.44.66A1.7,1.7,0,0,0,48.34,115.94Z"/>
          <path class="cls-2" d="M59.41,110.86a4.35,4.35,0,0,1,1,3.09,4.86,4.86,0,0,1-1,3.27,3.15,3.15,0,0,1-2.5,1.12,2.64,2.64,0,0,1-1.62-.48,3.27,3.27,0,0,1-.69-.79v4.23h-2.1V110h2v1.2a3.36,3.36,0,0,1,.73-.83,2.66,2.66,0,0,1,1.69-.55A3.21,3.21,0,0,1,59.41,110.86Zm-1.63,1.53a1.52,1.52,0,0,0-1.4-.72,1.6,1.6,0,0,0-1.61,1.09,4.16,4.16,0,0,0-.22,1.48,2.35,2.35,0,0,0,.76,2,1.75,1.75,0,0,0,1.07.33,1.56,1.56,0,0,0,1.36-.68,3.61,3.61,0,0,0,0-3.49Z"/>
          <path class="cls-2" d="M72,110a2.36,2.36,0,0,1,.94.73,2.3,2.3,0,0,1,.46,1,7.18,7.18,0,0,1,.08,1.2l0,5.12H71.32v-5.17a1.69,1.69,0,0,0-.15-.76,1.05,1.05,0,0,0-1-.56,1.23,1.23,0,0,0-1.22.73,2.31,2.31,0,0,0-.17.93v4.83H66.6v-4.83a2.68,2.68,0,0,0-.14-1,1,1,0,0,0-1-.59,1.25,1.25,0,0,0-1.23.59,2.29,2.29,0,0,0-.17,1v4.89H61.86V110h2.06v1.18a3.68,3.68,0,0,1,.75-.9,2.93,2.93,0,0,1,3.1-.07,2.41,2.41,0,0,1,.7,1,2.69,2.69,0,0,1,1-1,3.2,3.2,0,0,1,1.46-.34A2.82,2.82,0,0,1,72,110Z"/>
          <path class="cls-2" d="M80.75,110.16a3.29,3.29,0,0,1,1.4,1.2A4,4,0,0,1,82.8,113a10.05,10.05,0,0,1,.07,1.61H77a1.94,1.94,0,0,0,.84,1.71,2.21,2.21,0,0,0,1.17.3,1.77,1.77,0,0,0,1.18-.37,1.71,1.71,0,0,0,.44-.56h2.17A2.65,2.65,0,0,1,82,117.2a3.93,3.93,0,0,1-3,1.18,4.44,4.44,0,0,1-2.86-1,3.93,3.93,0,0,1-1.24-3.25,4.38,4.38,0,0,1,1.12-3.24,3.9,3.9,0,0,1,2.9-1.12A4.53,4.53,0,0,1,80.75,110.16ZM77.57,112a2.23,2.23,0,0,0-.56,1.26h3.65A1.75,1.75,0,0,0,80.1,112a1.87,1.87,0,0,0-1.26-.43A1.69,1.69,0,0,0,77.57,112Z"/>
          <path class="cls-2" d="M90.49,110.46a2.69,2.69,0,0,1,.79,2.18v5.47H89.11v-4.94a2.33,2.33,0,0,0-.17-1,1.19,1.19,0,0,0-1.18-.63,1.46,1.46,0,0,0-1.47.92,3.11,3.11,0,0,0-.21,1.24v4.39H84V110H86v1.18a3.48,3.48,0,0,1,.77-.9,2.68,2.68,0,0,1,1.66-.49A3.11,3.11,0,0,1,90.49,110.46Z"/>
          <path class="cls-2" d="M92.42,111.58v-1.51h1.14V107.8h2.1v2.27H97v1.51H95.66v4.29a1,1,0,0,0,.12.62,1.44,1.44,0,0,0,.78.12H97v1.58l-1,0a2.69,2.69,0,0,1-2.06-.52,1.54,1.54,0,0,1-.35-1.12v-5Z"/>
        </g>
      </g>
    </g>
  </g>
</svg>
