<svg width="24" height="24" fill="none" xmlns="http://www.w3.org/2000/svg"><path fill-rule="evenodd" clip-rule="evenodd" d="M10.777 19.86c-1.032-1.02-2.307-2.42-3.392-3.955-.577-.815-1.127-1.706-1.553-2.624.622 1.347 1.531 2.686 2.509 3.899a32.195 32.195 0 002.436 2.68zm.573 1.9l-.002-.001C11.025 21.479 4 15.39 4 10a8 8 0 1116 0c0 5.4-7 11.5-7.35 11.76a1 1 0 01-1.3 0zm.831-.91l.502-.47c1.099-1.026 2.649-2.655 3.933-4.472.993-1.406 1.909-3.037 2.246-4.648-.416 1.99-1.722 4.1-3.185 5.921a31.296 31.296 0 01-3.28 3.477c-.085.077-.158.14-.216.191zM12 19.65c2.13-1.99 6-6.31 6-9.65a6 6 0 10-12 0c0 3.34 3.87 7.65 6 9.65zm2.591-11.162zm-3.176-1.43zM9.058 9.415zm.72-2.74a4 4 0 114.444 6.651 4 4 0 01-4.444-6.652zm1.11 4.988a2 2 0 102.223-3.325 2 2 0 00-2.222 3.325z" fill="#1B1C1E"/></svg>