<svg width="24" height="24" fill="none" xmlns="http://www.w3.org/2000/svg"><path fill-rule="evenodd" clip-rule="evenodd" d="M4.555 5.993l6.184 10.21A3.962 3.962 0 0112 16c.846 0 1.631.263 2.278.711l8.285-4.59.97 1.749-7.929 4.393a4 4 0 11-6.547-.972l-5.63-9.298H0v-2h4.555zM12 18a2 2 0 100 4 2 2 0 000-4zm4.526-18l5.5 9.526-9.526 5.5-2.229-3.861-.021.012-.596-1.081L7 5.5 16.526 0zm1.628 6.82l-6.131 3.379 1.21 2.095 6.061-3.5-1.14-1.974zm-2.36-4.088l-6.062 3.5 1.29 2.235 6.132-3.379-1.36-2.356z" fill="#242424"/></svg>