<svg width="24" height="24" fill="none" xmlns="http://www.w3.org/2000/svg"><path d="M20.381 7.15c-.01-.54-.02-1.05-.02-1.544a.7.7 0 00-.7-.7c-2.994 0-5.273-.86-7.173-2.708a.7.7 0 00-.976 0c-1.9 1.848-4.179 2.708-7.173 2.708a.7.7 0 00-.7.7c0 .494-.01 1.004-.02 1.544-.096 5.025-.227 11.907 8.152 14.811a.699.699 0 00.458 0c8.38-2.904 8.248-9.786 8.152-14.811zm-8.38 13.407c-7.187-2.61-7.078-8.329-6.982-13.38.006-.303.012-.597.015-.885 2.804-.119 5.047-.968 6.966-2.64 1.92 1.672 4.162 2.521 6.966 2.64.004.288.01.581.016.884.096 5.052.205 10.77-6.982 13.381z" fill="#000"/><path d="M14.41 9.568l-3.379 3.379-1.441-1.442a.7.7 0 00-.99.99l1.936 1.937a.698.698 0 00.99 0l3.874-3.874a.7.7 0 00-.99-.99z" fill="#000"/></svg>