<svg width="40" height="40" viewBox="0 0 40 40" fill="none" xmlns="http://www.w3.org/2000/svg">
<path d="M4.16664 18.3332V13.3332C4.62664 13.3332 5 12.9599 5 12.4999C5 12.0399 4.62664 11.6665 4.16664 11.6665C1.86836 11.6665 0 13.5365 0 15.8332V17.4999C0 18.8782 1.12164 19.9999 2.5 19.9999H4.16664C4.62664 19.9999 5 19.6265 5 19.1665C5 18.7065 4.62664 18.3332 4.16664 18.3332Z" fill="#FFB228"/>
<path d="M35.8334 11.6665C35.3734 11.6665 35 12.0399 35 12.4999C35 12.9599 35.3734 13.3332 35.8334 13.3332V18.3332C35.3734 18.3332 35 18.7066 35 19.1666C35 19.6266 35.3734 19.9999 35.8334 19.9999H37.5C38.8784 19.9999 40 18.8782 40 17.4999V15.8332C40 13.5365 38.1316 11.6665 35.8334 11.6665Z" fill="#FFB228"/>
<path d="M14.1667 35C13.7067 35 13.3334 35.3734 13.3334 35.8334H8.33335C8.33335 35.3734 7.95999 35 7.49999 35C7.03999 35 6.66663 35.3734 6.66663 35.8334V37.5C6.66663 38.8784 7.78827 40 9.16663 40H12.5001C13.8784 40 15.0001 38.8784 15.0001 37.5V35.8334C15.0001 35.3734 14.6267 35 14.1667 35Z" fill="#FFB228"/>
<path d="M32.5 35C32.04 35 31.6666 35.3734 31.6666 35.8334H26.6666C26.6666 35.3734 26.2933 35 25.8333 35C25.3733 35 25 35.3734 25 35.8334V37.5C25 38.8784 26.1216 40 27.5 40H30.8334C32.2117 40 33.3334 38.8784 33.3334 37.5V35.8334C33.3334 35.3734 32.96 35 32.5 35Z" fill="#FFB228"/>
<path d="M32.5001 0H7.50009C5.20173 0 3.33345 1.87 3.33345 4.16664V32.5C3.33345 34.7966 5.20181 36.6666 7.50009 36.6666H32.5001C34.7985 36.6666 36.6667 34.7966 36.6667 32.5V4.16664C36.6667 1.87 34.7985 0 32.5001 0ZM10.8335 3.33336H29.1668C30.5452 3.33336 31.6668 4.455 31.6668 5.83336C31.6668 7.21172 30.5452 8.33336 29.1668 8.33336H10.8335C9.45509 8.33336 8.33345 7.21172 8.33345 5.83336C8.33345 4.455 9.45509 3.33336 10.8335 3.33336ZM10.8335 31.6666C9.45509 31.6666 8.33345 30.545 8.33345 29.1666C8.33345 27.7883 9.45509 26.6666 10.8335 26.6666C12.2118 26.6666 13.3335 27.7883 13.3335 29.1666C13.3335 30.545 12.2117 31.6666 10.8335 31.6666ZM29.1667 31.6666C27.7884 31.6666 26.6667 30.545 26.6667 29.1666C26.6667 27.7883 27.7884 26.6666 29.1667 26.6666C30.5451 26.6666 31.6667 27.7883 31.6667 29.1666C31.6667 30.545 30.5451 31.6666 29.1667 31.6666ZM33.3335 20.8334C33.3335 22.2117 32.2118 23.3334 30.8335 23.3334H9.16673C7.78837 23.3334 6.66673 22.2117 6.66673 20.8334V12.5C6.66673 11.1216 7.78837 10 9.16673 10H30.8334C32.2117 10 33.3334 11.1216 33.3334 12.5V20.8334H33.3335Z" fill="#FFB228"/>
</svg>
