<svg width="40" height="40" viewBox="0 0 40 40" fill="none" xmlns="http://www.w3.org/2000/svg">
<g clip-path="url(#clip0)">
<path d="M39.7472 5.81748C39.5283 5.54381 39.1968 5.38451 38.8462 5.38451H8.13694L7.27819 1.66342C7.15733 1.1399 6.69115 0.769043 6.15389 0.769043H1.15389C0.516702 0.769043 6.10352e-05 1.28568 6.10352e-05 1.92295C6.10352e-05 2.56021 0.516702 3.07678 1.15389 3.07678H5.236L11.0651 28.3362C11.1858 28.8597 11.6521 29.2306 12.1894 29.2306H35.3077C35.945 29.2306 36.4615 28.714 36.4615 28.0768C36.4615 27.4395 35.9449 26.9229 35.3077 26.9229H13.1073L12.2198 23.0768H35.3848C35.9244 23.0768 36.392 22.7027 36.5105 22.1762L39.9719 6.79162C40.0489 6.44959 39.9662 6.09123 39.7472 5.81748Z" fill="#FFB228"/>
<path d="M16.9232 30.769C14.5904 30.769 12.6924 32.6669 12.6924 34.9998C12.6924 37.3327 14.5903 39.2306 16.9232 39.2306C19.256 39.2306 21.1539 37.3327 21.1539 34.9998C21.1539 32.6669 19.2561 30.769 16.9232 30.769Z" fill="#FFB228"/>
<path d="M30.7694 30.769C28.4365 30.769 26.5386 32.6669 26.5386 34.9998C26.5386 37.3327 28.4365 39.2306 30.7694 39.2306C33.1022 39.2306 35.0001 37.3327 35.0001 34.9998C35.0001 32.6669 33.1022 30.769 30.7694 30.769Z" fill="#FFB228"/>
</g>
<defs>
<clipPath id="clip0">
<rect x="6.10352e-05" width="40" height="40" fill="white"/>
</clipPath>
</defs>
</svg>
