<svg width="40" height="40" viewBox="0 0 40 40" fill="none" xmlns="http://www.w3.org/2000/svg">
<g clip-path="url(#clip0)">
<path d="M32.9296 20.3907H31.6796V20.0001C31.6796 19.3529 31.1549 18.8282 30.5078 18.8282H3.94525C3.29806 18.8282 2.77338 19.3529 2.77338 20.0001V27.8126C2.77338 31.938 5.83455 35.3613 9.80463 35.9317V38.8282C9.80463 39.4754 10.3293 40.0001 10.9765 40.0001H23.4765C24.1237 40.0001 24.6484 39.4754 24.6484 38.8282V35.9317C28.2356 35.4163 31.0802 32.5717 31.5956 28.9845H32.9296C35.2989 28.9845 37.2265 27.0569 37.2265 24.6876C37.2265 22.3182 35.2989 20.3907 32.9296 20.3907ZM32.9296 26.6407H31.6796V22.7345H32.9296C34.0066 22.7345 34.8828 23.6107 34.8828 24.6876C34.8828 25.7645 34.0066 26.6407 32.9296 26.6407Z" fill="#FFB228"/>
<path d="M15.6269 0.266602C15.127 -0.144336 14.3885 -0.0722262 13.9774 0.427774C13.5665 0.927696 13.6387 1.66621 14.1386 2.07715C14.8598 2.66996 15.2734 3.5502 15.2734 4.49223C15.2734 5.43426 14.8598 6.31449 14.1386 6.90731C12.8738 7.94691 12.1484 9.48715 12.1484 11.1329C12.1484 12.1743 12.4406 13.1868 12.9935 14.0611C13.3381 14.6061 14.0613 14.7724 14.6103 14.4252C15.1573 14.0793 15.3203 13.3554 14.9744 12.8084C14.6589 12.3095 14.4921 11.7301 14.4921 11.1329C14.4921 10.1908 14.9057 9.31059 15.6269 8.71777C16.8917 7.67809 17.6171 6.13793 17.6171 4.49223C17.6171 2.84652 16.8917 1.30637 15.6269 0.266602Z" fill="#FFB228"/>
<path d="M22.0381 7.06883C21.6273 6.56883 20.8888 6.49656 20.3887 6.90766C19.1238 7.94727 18.3985 9.4875 18.3985 11.1332C18.3985 12.1745 18.6907 13.1871 19.2436 14.0615C19.5883 14.6066 20.3115 14.7727 20.8604 14.4258C21.4074 14.0798 21.5705 13.356 21.2245 12.809C20.909 12.31 20.7422 11.7305 20.7422 11.1333C20.7422 10.1913 21.1558 9.31102 21.877 8.7182C22.377 8.30719 22.4491 7.56867 22.0381 7.06883Z" fill="#FFB228"/>
</g>
<defs>
<clipPath id="clip0">
<rect x="-6.10352e-05" width="40" height="40" fill="white"/>
</clipPath>
</defs>
</svg>
