<svg width="60" height="60" viewBox="0 0 60 60" fill="none" xmlns="http://www.w3.org/2000/svg">
<path d="M50 0H12.5C9.74363 0 7.49996 2.24238 7.49996 5.00004V10.0001H6.24992C5.55898 10.0001 4.99988 10.5592 4.99988 11.2501C4.99988 11.9411 5.55898 12.5002 6.24992 12.5002H11.25C11.9384 12.5002 12.5 13.0604 12.5 13.7502C12.5 14.4398 11.9384 15.0002 11.25 15.0002H8.74999C8.05906 15 7.49996 15.5591 7.49996 16.25V22.5H6.24992C5.55898 22.5 4.99988 23.0591 4.99988 23.75C4.99988 24.441 5.55898 25.0001 6.24992 25.0001H11.25C11.9384 25.0001 12.5 25.5604 12.5 26.2501C12.5 26.9399 11.9384 27.5 11.25 27.5H8.74999C8.05906 27.5 7.49996 28.0591 7.49996 28.7501V35H6.24992C5.55898 35 4.99988 35.5591 4.99988 36.2501C4.99988 36.941 5.55898 37.5001 6.24992 37.5001H11.25C11.9384 37.5001 12.5 38.0604 12.5 38.7502C12.5 39.4398 11.9384 40.0002 11.25 40.0002H8.74999C8.05906 40 7.49996 40.5591 7.49996 41.25V47.5H6.24992C5.55898 47.5 4.99988 48.0591 4.99988 48.75C4.99988 49.4409 5.55898 50 6.24992 50H11.25C11.9384 50 12.5 50.5603 12.5 51.2501C12.5 51.9397 11.9384 52.5001 11.25 52.5001H8.74999C8.05906 52.5 7.49996 53.0591 7.49996 53.75V55.0001C7.49996 57.7576 9.74363 60 12.5 60H50C52.7564 60 55 57.7576 55 55V5.00004C54.9999 2.24238 52.7564 0 50 0ZM47.4999 39.7216C47.4999 41.2536 46.2523 42.4999 44.7216 42.4999C29.7119 42.4999 17.4999 30.288 17.4999 15.2782C17.4999 13.7462 18.7475 12.4999 20.2782 12.4999H25.6249C27.1557 12.4999 28.4032 13.7462 28.4032 15.2782C28.4032 17.0141 28.6742 18.717 29.2088 20.3416C29.5286 21.3548 29.265 22.4339 28.5253 23.1737L26.3353 26.0899C28.2177 29.5481 30.4246 31.7552 33.9085 33.662L36.9554 31.361C37.5706 30.7323 38.6814 30.4686 39.6751 30.8105C41.2815 31.3403 42.9856 31.6125 44.7215 31.6125C46.2523 31.6125 47.4998 32.8588 47.4998 34.3908V39.7216H47.4999Z" fill="#FFB228"/>
</svg>
