<svg width="512" height="512" viewBox="0 0 512 512" fill="none" xmlns="http://www.w3.org/2000/svg">
<path d="M487 180H452V128.785L323.215 0H60V180H25V453H60V512H452V453H487V180ZM332 51.2148L400.785 120H332V51.2148ZM90 30H302V150H422V180H90V30ZM422 482H90V453H422V482ZM457 423H55V210H457V423Z" fill="black"/>
<path d="M181 347V286C181 261.188 160.812 241 136 241H91V392H136C160.812 392 181 371.812 181 347ZM121 271H136C144.27 271 151 277.73 151 286V347C151 355.27 144.27 362 136 362H121V271Z" fill="black"/>
<path d="M256 392C280.812 392 301 371.812 301 347V286C301 261.188 280.812 241 256 241C231.188 241 211 261.188 211 286V347C211 371.812 231.188 392 256 392ZM241 286C241 277.73 247.73 271 256 271C264.27 271 271 277.73 271 286V347C271 355.27 264.27 362 256 362C247.73 362 241 355.27 241 347V286Z" fill="black"/>
<path d="M391 392H406V362H391C374.457 362 361 348.543 361 332V301C361 284.457 374.457 271 391 271H406V241H391C357.914 241 331 267.914 331 301V332C331 365.086 357.914 392 391 392Z" fill="black"/>
</svg>
