<svg width="50" height="50" viewBox="0 0 50 50" fill="none" xmlns="http://www.w3.org/2000/svg">
<path d="M50 24.944L25 0.00317383L0 24.944L2.07243 27.0213L6.16554 22.9379V49.997H43.8344V22.9379L47.9276 27.0213L50 24.944ZM23.5328 29.189V36.8079C21.7226 35.0119 19.7493 32.3725 19.7493 29.6716C19.7493 25.9372 23.3467 22.5753 25.0076 21.2223C26.9912 22.8301 30.2507 26.2004 30.2507 29.6716C30.2507 32.4984 28.1898 35.1108 26.4672 36.8013V29.1891H23.5328V29.189ZM40.9001 47.0626H26.4672V40.7004C28.2639 39.3068 33.1851 35.0026 33.1851 29.6715C33.1851 23.289 26.1301 18.3774 25.8297 18.1714L25 17.6024L24.1703 18.1714C23.8699 18.3774 16.8149 23.289 16.8149 29.6715C16.8149 35.0026 21.7362 39.3068 23.5328 40.7004V47.0626H9.09998V20.0105L25 4.14803L40.9001 20.0105V47.0626Z" fill="#FFB228"/>
</svg>
