<svg width="40" height="40" viewBox="0 0 40 40" fill="none" xmlns="http://www.w3.org/2000/svg">
<g clip-path="url(#clip0)">
<path d="M8.94266 8.35906C10.5204 8.35906 11.7994 7.08004 11.7994 5.50228C11.7994 3.92453 10.5204 2.64551 8.94266 2.64551C7.36491 2.64551 6.08589 3.92453 6.08589 5.50228C6.08589 7.08004 7.36491 8.35906 8.94266 8.35906Z" fill="#FFB228"/>
<path d="M14.5364 12.0741C13.8969 10.2131 12.8246 9.26953 11.3492 9.26953C10.4098 9.26953 7.59064 9.26953 6.5358 9.26953C5.0605 9.26953 3.98809 10.2131 3.34864 12.0741C2.35748 14.9583 0.106791 21.1162 0.0842131 21.178C-0.177191 21.893 0.19054 22.6846 0.905457 22.946C1.62084 23.2074 2.41216 22.8393 2.67341 22.1247C2.69068 22.0773 4.00746 18.4747 5.07558 15.4754L3.47364 24.7896C3.38184 25.2638 3.74723 25.7019 4.22543 25.7019C4.52199 25.7019 4.8791 25.7019 5.2773 25.7019V35.7007C5.2773 36.6142 6.01784 37.3548 6.93135 37.3548C7.84478 37.3548 8.5854 36.6142 8.5854 35.7007V25.7019C8.82321 25.7019 9.0618 25.7019 9.29961 25.7019V35.7007C9.29961 36.6142 10.0401 37.3548 10.9537 37.3548C11.8672 37.3548 12.6077 36.6142 12.6077 35.7007V25.7019C13.006 25.7019 13.7498 25.6967 13.7939 25.6889V21.2001L12.8364 15.6322C13.0588 16.288 13.3068 17.021 13.58 17.8297C13.6636 18.077 13.8143 18.2903 14.0089 18.4511C14.3488 17.5076 15.0673 16.7419 15.9799 16.3362C15.3795 14.56 14.8472 12.9784 14.5364 12.0741Z" fill="#FFB228"/>
<path d="M33.5707 10.4449C35.0183 10.4449 36.1918 9.27141 36.1918 7.82379C36.1918 6.37617 35.0183 5.20264 33.5707 5.20264C32.1231 5.20264 30.9495 6.37617 30.9495 7.82379C30.9495 9.27141 32.1231 10.4449 33.5707 10.4449Z" fill="#FFB228"/>
<path d="M36.9837 11.5881H30.1581C28.5034 11.5881 27.1504 12.9239 27.1421 14.5658V22.6128L25.2958 22.1708V19.5375C25.2894 18.2523 24.2343 17.2107 22.944 17.2107H17.4803C16.19 17.2107 15.1349 18.2523 15.1285 19.5325V26.7822C15.1285 27.3427 15.596 27.7939 16.1623 27.7672C16.6927 27.7423 17.1008 27.2854 17.1008 26.7543C17.1008 26.7193 17.0999 19.5278 17.1024 19.4928C17.124 19.1775 17.5796 19.2029 17.5792 19.519V36.1196C17.5792 36.7655 18.0968 37.2907 18.7399 37.3027C19.4031 37.3151 19.9459 36.7518 19.9459 36.0886V26.661H20.4568V36.1197C20.4568 36.7656 20.9744 37.2907 21.6175 37.3028C22.2807 37.3152 22.8235 36.7519 22.8235 36.0886L22.824 19.5381C22.824 19.2207 23.3232 19.1841 23.3238 19.5425V22.9487C23.3238 23.4049 23.6367 23.8015 24.0804 23.9076L27.4808 24.7217C27.7117 24.9706 28.0407 25.1273 28.4071 25.1273C29.1038 25.1273 29.6717 24.5598 29.6717 23.8627C29.6717 23.8452 29.6715 14.5745 29.6723 14.557C29.6881 14.2011 30.222 14.2169 30.2216 14.5733L30.1946 35.8371C30.1946 36.6936 30.9041 37.3843 31.7674 37.3536C32.5897 37.3244 33.2296 36.6236 33.2296 35.8008V23.7073H33.8848V35.8008C33.8848 36.6237 34.5247 37.3246 35.347 37.3537C36.2103 37.3844 36.9199 36.6937 36.9199 35.8372L36.9205 14.5501C36.9205 14.2048 37.4664 14.1493 37.4709 14.5784V23.863C37.4709 24.5767 38.0621 25.1522 38.7816 25.1267C39.4669 25.1024 40.0001 24.5183 40.0001 23.8327V14.5722C39.9914 12.9239 38.6385 11.5881 36.9837 11.5881Z" fill="#FFB228"/>
<path d="M20.2119 16.4412C21.6029 16.4412 22.7305 15.3136 22.7305 13.9226C22.7305 12.5317 21.6029 11.4041 20.2119 11.4041C18.821 11.4041 17.6934 12.5317 17.6934 13.9226C17.6934 15.3136 18.821 16.4412 20.2119 16.4412Z" fill="#FFB228"/>
</g>
<defs>
<clipPath id="clip0">
<rect width="40" height="40" fill="white"/>
</clipPath>
</defs>
</svg>
