<svg width="40" height="40" viewBox="0 0 40 40" fill="none" xmlns="http://www.w3.org/2000/svg">
<g clip-path="url(#clip0)">
<path d="M36.4225 5.24414L33.0892 1.91078C32.7636 1.58523 32.2363 1.58523 31.9108 1.91078C31.5853 2.23633 31.5853 2.76367 31.9108 3.08914L34.655 5.83328L31.9108 8.57742C31.7546 8.73367 31.6667 8.94523 31.6667 9.16664V11.6666C31.6667 13.5051 33.1617 15 35 15V29.1666C35 29.6264 34.6265 30 34.1667 30C33.7069 30 33.3333 29.6265 33.3333 29.1666V27.5C33.3333 26.1214 32.2119 25 30.8333 25H30V3.33336C30 1.49492 28.5051 0 26.6667 0H10C8.16167 0 6.66667 1.49492 6.66667 3.33336V33.3334C4.82831 33.3334 3.33331 34.8283 3.33331 36.6667V39.1667C3.33331 39.6273 3.70605 40.0001 4.16667 40.0001H32.5C32.9607 40.0001 33.3334 39.6273 33.3334 39.1667V36.6667C33.3334 34.8284 31.8385 33.3334 30 33.3334V26.6667H30.8334C31.2932 26.6667 31.6668 27.0402 31.6668 27.5001V29.1667C31.6668 30.5453 32.7882 31.6667 34.1668 31.6667C35.5453 31.6667 36.6668 30.5453 36.6668 29.1667V5.83336C36.6667 5.61195 36.5788 5.40039 36.4225 5.24414ZM26.6667 14.1821C26.6667 14.6427 26.2939 15.0155 25.8333 15.0155H10.8333C10.3727 15.0155 9.99995 14.6427 9.99995 14.1821V4.16664C9.99995 3.70602 10.3727 3.33328 10.8333 3.33328H25.8333C26.2939 3.33328 26.6667 3.70602 26.6667 4.16664V14.1821Z" fill="#FFB228"/>
</g>
<defs>
<clipPath id="clip0">
<rect width="40" height="40" fill="white"/>
</clipPath>
</defs>
</svg>
