<svg width="20" height="20" viewBox="0 0 20 20" fill="none" xmlns="http://www.w3.org/2000/svg">
<path d="M18.2941 14.0224C18.0104 13.8665 17.6542 13.9702 17.4984 14.2538C17.3426 14.5374 17.4462 14.8937 17.7298 15.0494C18.4278 15.4329 18.8281 15.858 18.8281 16.2157C18.8281 16.6532 18.2082 17.3314 16.4682 17.9225C14.7493 18.5066 12.4521 18.8282 10 18.8282C7.54785 18.8282 5.2507 18.5066 3.53176 17.9225C1.7918 17.3314 1.17188 16.6532 1.17188 16.2157C1.17188 15.858 1.57219 15.4329 2.27016 15.0494C2.55379 14.8936 2.65738 14.5374 2.50156 14.2537C2.34574 13.9701 1.98961 13.8665 1.7059 14.0223C0.927695 14.4499 0 15.1775 0 16.2157C0 17.0116 0.547344 18.1463 3.15477 19.0321C4.99195 19.6563 7.42297 20 10 20C12.577 20 15.008 19.6563 16.8452 19.0321C19.4527 18.1463 20 17.0116 20 16.2157C20 15.1775 19.0723 14.4499 18.2941 14.0224Z" fill="#222222"/>
<path d="M5.57635 17.0753C6.7658 17.4114 8.33686 17.5964 10.0001 17.5964C11.6633 17.5964 13.2344 17.4114 14.4238 17.0753C15.879 16.6643 16.6169 16.0692 16.6169 15.3068C16.6169 14.5443 15.879 13.9493 14.4238 13.5383C14.1008 13.447 13.7495 13.367 13.376 13.2987C13.1731 13.6492 12.9606 14.0099 12.7383 14.3811C13.1518 14.4431 13.5399 14.5191 13.8924 14.6089C14.9634 14.8817 15.3546 15.1888 15.4351 15.3068C15.3546 15.4249 14.9634 15.732 13.8925 16.0047C12.8788 16.2629 11.5747 16.4102 10.2012 16.4233C10.1346 16.4282 10.0676 16.431 10.0001 16.431C9.93256 16.431 9.86557 16.4282 9.799 16.4233C8.42545 16.4102 7.12131 16.2629 6.10768 16.0047C5.03674 15.732 4.64553 15.4249 4.5651 15.3068C4.64553 15.1888 5.03678 14.8817 6.10771 14.6089C6.46021 14.5192 6.84838 14.4431 7.26186 14.3811C7.03963 14.01 6.82709 13.6491 6.62424 13.2987C6.25072 13.367 5.89936 13.447 5.57635 13.5383C4.12115 13.9493 3.3833 14.5444 3.3833 15.3068C3.3833 16.0692 4.12115 16.6643 5.57635 17.0753Z" fill="#222222"/>
<path d="M10.0001 15.2591C10.5217 15.2591 10.9955 14.9934 11.2676 14.5482C13.1742 11.4288 15.447 7.31758 15.447 5.44684C15.447 2.44344 13.0035 0 10.0001 0C6.99666 0 4.55322 2.44344 4.55322 5.44684C4.55322 7.31758 6.826 11.4288 8.7326 14.5482C9.00471 14.9934 9.47854 15.2591 10.0001 15.2591ZM7.81076 5.07285C7.81076 3.8657 8.79291 2.88359 10.0001 2.88359C11.2073 2.88359 12.1894 3.8657 12.1894 5.07285C12.1894 6.28004 11.2073 7.26215 10.0001 7.26215C8.79291 7.26215 7.81076 6.28008 7.81076 5.07285Z" fill="#222222"/>
</svg>
