<svg width="50" height="50" viewBox="0 0 50 50" fill="none" xmlns="http://www.w3.org/2000/svg">
<path d="M25.2278 8.5971C26.0344 8.5971 26.6923 7.93912 26.6923 7.13254C26.6923 6.32595 26.0344 5.66797 25.2278 5.66797C24.4211 5.66797 23.7632 6.32585 23.7632 7.13254C23.7632 7.93922 24.4212 8.5971 25.2278 8.5971Z" fill="#FFB228"/>
<path d="M49.1436 38.9969L33.305 31.7656C35.772 29.5492 37.3264 26.3361 37.3264 22.7663V17.8975C37.886 17.6467 38.4162 17.3769 38.9119 17.0883C39.2688 16.8805 39.5213 16.5318 39.6074 16.1278C39.6934 15.724 39.605 15.3026 39.3638 14.9673L37.4945 12.3692L40.3021 7.04272C40.5003 6.66662 40.5254 6.22296 40.3708 5.82703C40.2161 5.43111 39.897 5.1218 39.4964 4.97963L25.7176 0.089242C25.4008 -0.0232369 25.0548 -0.0232369 24.7379 0.089242L10.9594 4.97973C10.5587 5.12189 10.2397 5.43111 10.085 5.82713C9.93036 6.22315 9.95536 6.66682 10.1537 7.04282L12.9475 12.3434L11.0801 15.0154C10.8449 15.352 10.7618 15.7719 10.8511 16.1727C10.9404 16.5735 11.1938 16.9184 11.5496 17.1234C12.0246 17.397 12.5546 17.6558 13.1293 17.8985V22.7664C13.1293 26.2624 14.6203 29.4161 16.9991 31.6269L0.856382 38.9969C0.334703 39.2351 0 39.7558 0 40.3293V48.5306C0 49.3394 0.655736 49.9951 1.46457 49.9951C2.2734 49.9951 2.92914 49.3394 2.92914 48.5306V41.2706L12.1951 37.0402L19.0664 45.2025C19.3276 45.5128 19.7058 45.7008 20.1108 45.7218C20.1363 45.7232 20.1616 45.7239 20.1869 45.7239C20.5651 45.7239 20.9298 45.5775 21.2033 45.3137L25 41.6533L28.7967 45.3137C29.0702 45.5775 29.435 45.7239 29.8131 45.7239C29.8384 45.7239 29.8637 45.7232 29.8892 45.7218C30.2942 45.7007 30.6724 45.5127 30.9336 45.2025L37.8049 37.0402L47.0709 41.2706V48.5306C47.0709 49.3394 47.7266 49.9951 48.5354 49.9951C49.3443 49.9951 50 49.3394 50 48.5306V40.3293C50 39.7558 49.6653 39.2351 49.1436 38.9969ZM25 37.7553L21.987 34.4236C23.0188 34.7109 24.1056 34.865 25.2278 34.865C26.1384 34.865 27.0255 34.7632 27.8791 34.5716L25 37.7553ZM14.4679 15.2812L15.1819 14.2595H35.246L35.9876 15.2902C33.2155 16.5071 29.5632 17.1891 25.6888 17.1891C21.6517 17.1891 17.3254 16.4328 14.4679 15.2812ZM25.2278 3.02356L36.9218 7.17414L34.731 11.3304H15.7246L13.5338 7.17414L25.2278 3.02356ZM16.0583 22.7664V18.8916C18.9166 19.667 22.3251 20.1182 25.6887 20.1182C28.7868 20.1182 31.7816 19.7095 34.3973 18.9572V22.7664C34.3973 27.8225 30.2839 31.9359 25.2278 31.9359C20.1717 31.9359 16.0583 27.8225 16.0583 22.7664ZM20.2982 42.1174L14.9729 35.7915L18.0177 34.4015L22.8077 39.6981L20.2982 42.1174ZM29.7018 42.1174L27.1924 39.6981L31.9824 34.4015L35.0272 35.7915L29.7018 42.1174Z" fill="#FFB228"/>
</svg>
