<svg width="40" height="40" viewBox="0 0 40 40" fill="none" xmlns="http://www.w3.org/2000/svg">
<path d="M29.375 2.57812C24.636 2.57812 21.5941 5.86031 20 8.81633C18.4059 5.86023 15.364 2.57812 10.625 2.57812C4.61227 2.57812 0 7.45672 0 13.9272C0 15.6155 0.338047 17.1741 0.960469 18.6719H9.90063L11.9205 14.6321C12.3188 13.8379 13.6187 13.8379 14.017 14.6321L17.6562 21.9106L18.9517 19.3197C19.35 18.5255 20.65 18.5255 21.0483 19.3197L22.3438 21.9106L25.983 14.6322C26.3813 13.838 27.6812 13.838 28.0795 14.6322L30.0994 18.6719H39.0395C39.662 17.1741 40 15.6155 40 13.9272C40 7.45672 35.3877 2.57812 29.375 2.57812Z" fill="#FFB228"/>
<path d="M29.375 21.0155C28.931 21.0155 28.5259 20.7649 28.3268 20.3678L27.0313 17.7769L23.3921 25.0553C23.1929 25.4524 22.7879 25.703 22.3438 25.703C21.8997 25.703 21.4946 25.4524 21.2955 25.0553L20 22.4644L18.7046 25.0553C18.3063 25.8495 17.0063 25.8495 16.608 25.0553L12.9688 17.7769L11.6733 20.3678C11.4742 20.7649 11.0691 21.0155 10.625 21.0155H2.19043C4.60238 24.8104 8.94621 28.415 14.3798 33.0009C15.9053 34.2883 17.5281 35.6583 19.2321 37.1357C19.4529 37.3268 19.7264 37.4218 20 37.4218C20.2735 37.4218 20.547 37.3268 20.7679 37.1357C22.4719 35.6583 24.0947 34.2884 25.6201 33.0009C31.0538 28.415 35.3975 24.8104 37.8095 21.0155H29.375Z" fill="#FFB228"/>
</svg>
