<svg width="16" height="16" viewBox="0 0 16 16" fill="#222" xmlns="http://www.w3.org/2000/svg">
<g clip-path="url(#clip0)">
<path d="M11.375 5.37695C11.9273 5.37695 12.375 4.92923 12.375 4.37695C12.375 3.82467 11.9273 3.37695 11.375 3.37695C10.8227 3.37695 10.375 3.82467 10.375 4.37695C10.375 4.92923 10.8227 5.37695 11.375 5.37695Z" fill="black"/>
<path d="M15.8274 5.18537C15.4936 4.33556 14.8816 3.10941 13.8613 2.09391C12.8446 1.08192 11.6314 0.487421 10.7927 0.16686C9.87199 -0.185045 8.82572 0.0367665 8.12728 0.73192L5.67298 3.17472C4.94545 3.89881 4.73576 5.013 5.15117 5.94721C5.27998 6.23696 5.42007 6.52037 5.56976 6.79418L0.183062 12.1808C0.0658435 12.2981 0 12.457 0 12.6228V15.3728C0 15.718 0.279811 15.9978 0.624998 15.9978H3.37499C3.72017 15.9978 3.99998 15.718 3.99998 15.3728V14.2478L5.12498 14.2478C5.47017 14.2478 5.74998 13.968 5.74998 13.6228V12.4978H6.87497C7.22016 12.4978 7.49997 12.218 7.49997 11.8728C7.49997 11.5276 7.22016 11.2478 6.87497 11.2478H5.12498C4.77979 11.2478 4.49998 11.5276 4.49998 11.8728V12.9978L3.37499 12.9978C3.0298 12.9978 2.74999 13.2776 2.74999 13.6228V14.7478H1.25V12.8817L6.79232 7.33939C6.99594 7.13577 7.0341 6.81943 6.88475 6.57324C6.66816 6.21624 6.46919 5.83474 6.29341 5.43934C6.08719 4.97556 6.19226 4.42153 6.55485 4.06063L9.00912 1.61785C9.35953 1.26914 9.88446 1.15792 10.3466 1.33448C11.0722 1.61185 12.1181 2.12241 12.9795 2.97985C13.8463 3.84247 14.3739 4.90381 14.6639 5.64224C14.8449 6.10312 14.7349 6.62671 14.3838 6.97621L11.8998 9.44851C11.5381 9.80848 10.9982 9.91373 10.5243 9.71663C10.1335 9.55407 9.75496 9.36095 9.39934 9.14267C9.10518 8.96211 8.72031 9.05423 8.53975 9.34842C8.35919 9.6426 8.45128 10.0275 8.74547 10.208C9.15646 10.4603 9.59346 10.6833 10.0443 10.8708C10.9862 11.2626 12.0607 11.052 12.7816 10.3345L15.2655 7.8622C15.9701 7.16099 16.1906 6.11027 15.8274 5.18537Z" fill="black"/>
</g>
<defs>
<clipPath id="clip0">
<rect width="16" height="16" fill="#222"/>
</clipPath>
</defs>
</svg>
