<svg width="30" height="30" viewBox="0 0 30 30" fill="none" xmlns="http://www.w3.org/2000/svg">
<g clip-path="url(#clip0)">
<path d="M22.7672 11.2969C21.6786 10.2129 20.4025 9.38391 19.0127 8.84068V4.92867H15.8789V0H14.1211V4.92867H10.9873V8.84068C9.59754 9.38385 8.32143 10.2129 7.23281 11.2969C5.36016 13.1625 4.23926 15.5848 4.02832 18.1922H25.9717C25.7607 15.5848 24.6398 13.1625 22.7672 11.2969Z" fill="#E16C6C"/>
<path d="M15.8789 26.4053H14.1211V30H15.8789V26.4053Z" fill="#E16C6C"/>
<path d="M20.4692 24.0466L19.1337 25.1897L21.4714 27.9207L22.8069 26.7775L20.4692 24.0466Z" fill="#E16C6C"/>
<path d="M9.53098 24.0482L7.19348 26.7786L8.52863 27.9216L10.8661 25.1912L9.53098 24.0482Z" fill="#E16C6C"/>
<path d="M9.79923 19.9498C10.2369 22.423 12.4067 24.3109 15 24.3109C17.5934 24.3109 19.7631 22.423 20.2008 19.9498L9.79572 19.9287C9.7963 19.9357 9.79806 19.9428 9.79923 19.9498Z" fill="#E16C6C"/>
</g>
<defs>
<clipPath id="clip0">
<rect width="30" height="30" fill="white"/>
</clipPath>
</defs>
</svg>
