<svg width="50" height="50" viewBox="0 0 50 50" fill="none" xmlns="http://www.w3.org/2000/svg">
<g clip-path="url(#clip0)">
<path d="M24.9999 8.55054C22.5769 8.55054 20.6055 10.5232 20.6055 12.9478C20.6055 15.3724 22.5769 17.3451 24.9999 17.3451C27.423 17.3451 29.3944 15.3725 29.3944 12.9478C29.3944 10.5231 27.423 8.55054 24.9999 8.55054ZM24.9999 14.4154C24.1922 14.4154 23.5351 13.757 23.5351 12.9478C23.5351 12.1386 24.1922 11.4802 24.9999 11.4802C25.8076 11.4802 26.4648 12.1386 26.4648 12.9478C26.4648 13.757 25.8076 14.4154 24.9999 14.4154Z" fill="#FFB228"/>
<path d="M49.948 45.4638L43.5136 21.9064C43.3388 21.2665 42.7524 20.8276 42.1006 20.8276H33.5733C34.6892 17.9591 35.2541 15.3159 35.2541 12.9478C35.2541 7.28917 30.6543 2.68555 25.0005 2.68555C19.3467 2.68555 14.7469 7.28917 14.7469 12.9477C14.7469 15.3158 15.3118 17.959 16.4277 20.8275H7.90036C7.24001 20.8275 6.6613 21.2693 6.48737 21.9063L0.0529873 45.4638C-0.201408 46.395 0.500839 47.3145 1.46598 47.3145C2.00953 47.3145 48.0054 47.3145 48.535 47.3145C49.5006 47.3145 50.2024 46.3946 49.948 45.4638ZM25.0005 5.61524C29.039 5.61524 32.3245 8.9046 32.3245 12.9477C32.3245 15.4498 31.5518 18.3867 30.0277 21.6764C28.3998 25.1892 26.2795 28.2891 25.0005 30.0218C23.1321 27.4908 21.3019 24.5435 19.9733 21.6766C18.4493 18.3867 17.6765 15.4497 17.6765 12.9477C17.6765 8.9046 20.962 5.61524 25.0005 5.61524ZM9.01872 23.7573H17.7206C19.3841 27.1422 21.7423 30.7336 23.7783 33.2388C24.4875 34.112 25.5157 34.1092 26.2227 33.2388C28.2937 30.6906 30.6737 27.0263 32.2804 23.7573H39.2271L30.2831 36.0787H5.65329L9.01872 23.7573ZM3.38454 44.3848L4.85309 39.0084H28.1565L24.2537 44.3848H3.38454ZM27.8738 44.3848L41.4921 25.6241L46.6164 44.3848H27.8738Z" fill="#FFB228"/>
</g>
<defs>
<clipPath id="clip0">
<rect width="50" height="50" fill="white"/>
</clipPath>
</defs>
</svg>
