<svg width="16" height="16" viewBox="0 0 16 16" fill="none" xmlns="http://www.w3.org/2000/svg">
<g clip-path="url(#clip0)">
<path d="M0.333768 2.97362C2.5297 4.83334 6.38289 8.10516 7.51539 9.12531C7.66742 9.263 7.83048 9.333 7.99976 9.333C8.1687 9.333 8.33148 9.26366 8.48317 9.12663C9.61664 8.10547 13.4698 4.83334 15.6658 2.97362C15.8025 2.85806 15.8234 2.65494 15.7127 2.51366C15.4568 2.18719 15.0753 2 14.6664 2H1.33311C0.924267 2 0.542736 2.18719 0.286893 2.51369C0.176205 2.65494 0.197049 2.85806 0.333768 2.97362Z" fill="#FFB228"/>
<path d="M15.8067 3.98127C15.6885 3.92627 15.5495 3.94546 15.4512 4.02946C14.013 5.24852 12.1182 6.85921 10.6892 8.08837C10.614 8.15283 10.5717 8.24755 10.5733 8.34683C10.5749 8.4458 10.6208 8.53921 10.6983 8.60105C12.0261 9.66452 14.0271 11.1274 15.472 12.1671C15.5297 12.2088 15.598 12.23 15.6667 12.23C15.7188 12.23 15.7709 12.2179 15.8187 12.1932C15.9301 12.1362 16 12.0216 16 11.8966V4.28368C16 4.1538 15.9245 4.03565 15.8067 3.98127Z" fill="#FFB228"/>
<path d="M0.528 12.1669C1.97331 11.1271 3.97463 9.66427 5.30209 8.60077C5.37956 8.53892 5.42547 8.44548 5.42709 8.34655C5.42872 8.24726 5.38641 8.15255 5.31122 8.08808C3.88216 6.85892 1.98697 5.24823 0.548844 4.02917C0.449875 3.94517 0.310562 3.92664 0.193375 3.98098C0.0755313 4.03536 0 4.15352 0 4.28339V11.8964C0 12.0214 0.07 12.136 0.181313 12.1929C0.229156 12.2177 0.28125 12.2297 0.333344 12.2297C0.402031 12.2297 0.470375 12.2085 0.528 12.1669Z" fill="#FFB228"/>
<path d="M15.5915 13.0745C14.196 12.0761 11.6254 10.2148 10.0909 8.96936C9.96586 8.86748 9.78486 8.87073 9.66183 8.97686C9.36074 9.23954 9.10877 9.46092 8.93005 9.6217C8.38121 10.1171 7.61949 10.1171 7.06936 9.62105C6.8913 9.46058 6.63936 9.23854 6.33824 8.97683C6.21617 8.87004 6.03486 8.86679 5.90952 8.96933C4.3802 10.2105 1.80664 12.0741 0.408859 13.0745C0.331047 13.1305 0.280922 13.2167 0.271172 13.3121C0.261734 13.4075 0.293297 13.5022 0.358734 13.5725C0.611047 13.8444 0.966516 14.0003 1.33339 14.0003H14.6667C15.0336 14.0003 15.3887 13.8444 15.6417 13.5726C15.7068 13.5026 15.7387 13.4078 15.7292 13.3125C15.7195 13.2171 15.6693 13.1305 15.5915 13.0745Z" fill="#FFB228"/>
</g>
<defs>
<clipPath id="clip0">
<rect width="16" height="16" fill="white"/>
</clipPath>
</defs>
</svg>
