<svg width="40" height="40" viewBox="0 0 40 40" fill="none" xmlns="http://www.w3.org/2000/svg">
<g clip-path="url(#clip0)">
<path d="M23.6249 21.2307L19.7183 24.9849C19.4548 25.2381 19.088 25.3539 18.7272 25.2981C18.3661 25.2423 18.0517 25.0212 17.8769 24.7003L15.138 19.6685L6.27811 25.736L0.119364 38.3121C-0.0584483 38.6753 -0.0364952 39.1046 0.177489 39.4477C0.391552 39.7909 0.767411 39.9994 1.17186 39.9994H30.9375C31.3419 39.9994 31.7177 39.7909 31.9319 39.4477C32.1458 39.1045 32.1679 38.6753 31.99 38.3121L23.6249 21.2307Z" fill="#FFB228"/>
<path d="M15.8208 16.8286C16.1432 16.906 16.4177 17.1165 16.5762 17.4077L19.2015 22.2308L22.5425 19.0202L17.1072 7.9213C16.9104 7.5195 16.5021 7.26489 16.0547 7.26489C15.6073 7.26489 15.199 7.51958 15.0022 7.9213L8.37128 21.4617L14.8848 17.001C15.1582 16.8139 15.4985 16.7509 15.8208 16.8286Z" fill="#FFB228"/>
<path d="M31.7976 11.7188C33.7361 11.7188 35.3132 10.1417 35.3132 8.2032C35.3132 6.26469 33.7361 4.6875 31.7976 4.6875C29.8591 4.6875 28.282 6.26469 28.282 8.2032C28.282 10.1417 29.859 11.7188 31.7976 11.7188Z" fill="#FFB228"/>
<path d="M24.767 9.375H25.7049C26.3521 9.375 26.8768 8.85031 26.8768 8.20312C26.8768 7.55594 26.3521 7.03125 25.7049 7.03125H24.767C24.1198 7.03125 23.5952 7.55594 23.5952 8.20312C23.5952 8.85031 24.1198 9.375 24.767 9.375Z" fill="#FFB228"/>
<path d="M31.7976 3.28262C32.4448 3.28262 32.9694 2.75793 32.9694 2.11074V1.17285C32.9694 0.525664 32.4448 0.000976562 31.7976 0.000976562C31.1504 0.000976562 30.6257 0.525664 30.6257 1.17285V2.11074C30.6257 2.75793 31.1504 3.28262 31.7976 3.28262Z" fill="#FFB228"/>
<path d="M36.7184 8.20312C36.7184 8.85031 37.243 9.375 37.8902 9.375H38.8281C39.4753 9.375 40 8.85031 40 8.20312C40 7.55594 39.4753 7.03125 38.8281 7.03125H37.8902C37.243 7.03125 36.7184 7.55594 36.7184 8.20312Z" fill="#FFB228"/>
<path d="M30.6257 14.2959V15.2338C30.6257 15.881 31.1504 16.4057 31.7976 16.4057C32.4448 16.4057 32.9694 15.881 32.9694 15.2338V14.2959C32.9694 13.6487 32.4448 13.124 31.7976 13.124C31.1504 13.124 30.6257 13.6487 30.6257 14.2959Z" fill="#FFB228"/>
<path d="M26.6606 11.6827L25.9975 12.3459C25.5399 12.8035 25.54 13.5455 25.9976 14.0031C26.2265 14.232 26.5263 14.3463 26.8262 14.3463C27.126 14.3463 27.4261 14.2319 27.6548 14.0031L28.318 13.3399C28.7756 12.8822 28.7755 12.1402 28.3178 11.6825C27.8602 11.2249 27.1182 11.2249 26.6606 11.6827Z" fill="#FFB228"/>
<path d="M26.6606 4.72337C26.8895 4.95228 27.1895 5.06673 27.4893 5.06673C27.7891 5.06673 28.0891 4.95228 28.3178 4.72353C28.7755 4.26595 28.7756 3.52392 28.318 3.06618L27.6548 2.40298C27.1972 1.94548 26.4553 1.9454 25.9976 2.4029C25.5399 2.86048 25.5399 3.60251 25.9974 4.06017L26.6606 4.72337Z" fill="#FFB228"/>
<path d="M36.1057 5.06699C36.4056 5.06699 36.7055 4.95254 36.9343 4.72371L37.5975 4.06051C38.0552 3.60293 38.0552 2.8609 37.5975 2.40324C37.1399 1.94566 36.3979 1.94566 35.9402 2.40324L35.277 3.06645C34.8194 3.52402 34.8194 4.26606 35.277 4.72371C35.5059 4.95254 35.8059 5.06699 36.1057 5.06699Z" fill="#FFB228"/>
<path d="M36.9344 11.6828C36.4768 11.2252 35.7348 11.2252 35.2771 11.6828C34.8195 12.1404 34.8195 12.8824 35.2771 13.3401L35.9403 14.0033C36.1691 14.2321 36.4691 14.3465 36.7689 14.3465C37.0688 14.3465 37.3688 14.2321 37.5975 14.0033C38.0552 13.5457 38.0552 12.8036 37.5975 12.346L36.9344 11.6828Z" fill="#FFB228"/>
<path d="M31.0383 21.4089C30.8362 21.0225 30.4362 20.7803 30 20.7803C29.5638 20.7803 29.1638 21.0225 28.9616 21.4089L27.5983 24.015C27.5983 24.015 34.9202 38.8844 35.3454 39.9991H38.8281C39.2381 39.9991 39.6183 39.7849 39.8306 39.4342C40.0429 39.0835 40.0565 38.6473 39.8665 38.284L31.0383 21.4089Z" fill="#FFB228"/>
</g>
<defs>
<clipPath id="clip0">
<rect width="40" height="40" fill="white"/>
</clipPath>
</defs>
</svg>
