<svg width="60" height="60" viewBox="0 0 60 60" fill="none" xmlns="http://www.w3.org/2000/svg">
<g clip-path="url(#clip0)">
<path d="M44.1797 38.7876C49.026 38.7876 52.9688 34.8448 52.9688 29.9985V15.936C52.9688 11.0897 49.026 7.14697 44.1797 7.14697C39.3334 7.14697 35.3906 11.0897 35.3906 15.936V29.9985C35.3906 34.8448 39.3334 38.7876 44.1797 38.7876Z" fill="#FFB228"/>
<path d="M58.2422 21.2095C57.2714 21.2095 56.4844 21.9965 56.4844 22.9673V29.9985C56.4844 36.7833 50.9645 42.3032 44.1797 42.3032C37.3949 42.3032 31.875 36.7833 31.875 29.9985V22.9673C31.875 21.9965 31.088 21.2095 30.1172 21.2095C29.1464 21.2095 28.3594 21.9965 28.3594 22.9673V29.9985C28.3594 38.1277 34.5227 44.8434 42.4219 45.7206V52.8501H37.1484C36.1777 52.8501 35.3906 53.6371 35.3906 54.6079C35.3906 55.5787 36.1777 56.3657 37.1484 56.3657H51.2109C52.1817 56.3657 52.9688 55.5787 52.9688 54.6079C52.9688 53.6371 52.1817 52.8501 51.2109 52.8501H45.9375V45.7206C53.8366 44.8434 60 38.1277 60 29.9985V22.9673C60 21.9964 59.213 21.2095 58.2422 21.2095Z" fill="#FFB228"/>
<path d="M31.875 15.9362C31.875 14.9654 31.088 14.1784 30.1172 14.1784H27.5708L24.5411 8.11884C23.8646 6.76603 21.8992 6.84595 21.3368 8.25209L16.0877 21.3746L10.5738 4.83337C10.0417 3.23705 7.77187 3.23341 7.23855 4.83337L4.12359 14.1783H1.75781C0.787031 14.1783 0 14.9653 0 15.9361C0 16.9069 0.787031 17.6939 1.75781 17.6939H5.39062C6.14719 17.6939 6.81891 17.2098 7.0582 16.4919L8.90625 10.948L14.2699 27.0389C14.5032 27.7387 15.1486 28.2184 15.8859 28.2401C16.6134 28.2616 17.2922 27.8293 17.5696 27.1358L23.1471 13.1921L24.9123 16.7223C25.21 17.3178 25.8186 17.694 26.4845 17.694H30.1173C31.088 17.694 31.875 16.907 31.875 15.9362Z" fill="#FFB228"/>
</g>
<defs>
<clipPath id="clip0">
<rect width="60" height="60" fill="white"/>
</clipPath>
</defs>
</svg>
