<svg width="50" height="50" viewBox="0 0 50 50" fill="none" xmlns="http://www.w3.org/2000/svg">
<g clip-path="url(#clip0)">
<path d="M8.76427 34.4364L10.7922 33.2474C11.6943 32.7183 12.8117 32.7244 13.7077 33.2634L15.6052 34.404C16.5218 34.9552 17.5526 35.231 18.5841 35.231C19.5938 35.231 20.6043 34.9663 21.508 34.4364L23.5359 33.2474C24.4381 32.7183 25.5554 32.7244 26.4519 33.2634L28.3489 34.404C30.164 35.495 32.4257 35.5072 34.2522 34.4364L36.2801 33.2474C37.1822 32.7183 38.2992 32.7244 39.1956 33.2634L41.0927 34.404C42.9077 35.495 45.1694 35.5072 46.9959 34.4364L49.0257 33.2462L47.5441 30.719L45.5139 31.9092C44.6133 32.4375 43.4975 32.4314 42.6025 31.8932L40.7051 30.7526C39.1731 29.8313 37.3219 29.6783 35.6827 30.2975V7.87888C35.6827 5.14984 37.9028 2.92969 40.6319 2.92969H43.1156V0H40.6315C36.2873 0 32.753 3.53432 32.753 7.87888V10.2737H20.4655V7.87888C20.4655 5.14984 22.6856 2.92969 25.4147 2.92969H27.8984V0H25.4147C21.0701 0 17.5358 3.53432 17.5358 7.87888V32.0999C17.3916 32.0427 17.2504 31.9748 17.1146 31.8932L15.2176 30.7526C13.4018 29.6608 11.1382 29.6482 9.31053 30.7201L7.28226 31.9092C6.38161 32.4375 5.26581 32.4314 4.37088 31.8932L2.48604 30.7602L0.976562 33.271L2.8614 34.404C4.67606 35.495 6.93779 35.5072 8.76427 34.4364ZM29.8588 31.8932L27.9613 30.7526C26.1456 29.6608 23.8819 29.6482 22.0543 30.7201L20.4655 31.6517V23.6866H32.753V31.9187C31.855 32.4371 30.748 32.428 29.8588 31.8932ZM32.7526 13.2034V20.7569H20.4655V13.2034H32.7526Z" fill="#FFB228"/>
<path d="M8.76427 41.8208L10.7922 40.6317C11.6943 40.1026 12.8117 40.1087 13.7077 40.6478L15.6052 41.7884C17.4198 42.8794 19.6815 42.8916 21.508 41.8208L23.5359 40.6317C24.4381 40.1026 25.5554 40.1087 26.4519 40.6478L28.3489 41.7884C30.1636 42.8794 32.4253 42.8919 34.2522 41.8208L36.2801 40.6317C37.1822 40.1026 38.2992 40.1087 39.1956 40.6478L41.0927 41.7884C42.0097 42.3396 43.0405 42.6154 44.0716 42.6154C45.0817 42.6154 46.0922 42.3506 46.9959 41.8208L49.0257 40.6306L47.5437 38.1033L45.5139 39.2935C44.6129 39.8219 43.4975 39.8158 42.6025 39.2775L40.7051 38.1369C38.8893 37.0448 36.6261 37.0326 34.798 38.1045L32.7702 39.2935C31.8695 39.8219 30.7537 39.8158 29.8588 39.2775L27.9617 38.1369C26.1456 37.0448 23.8819 37.0326 22.0543 38.1045L20.0264 39.2935C19.1257 39.8219 18.0099 39.8158 17.115 39.2775L15.218 38.1369C13.4018 37.0448 11.1382 37.0326 9.31053 38.1045L7.28264 39.2935C6.38161 39.8219 5.26619 39.8158 4.37126 39.2775L2.48642 38.1445L0.976562 40.655L2.8614 41.7884C4.67606 42.8794 6.93779 42.8919 8.76427 41.8208Z" fill="#FFB228"/>
<path d="M45.5139 46.6782C44.6129 47.2066 43.4975 47.2005 42.6025 46.6622L40.7051 45.5216C38.8893 44.4295 36.6257 44.4169 34.798 45.4888L32.7702 46.6782C31.8691 47.2066 30.7537 47.2005 29.8588 46.6622L27.9613 45.5216C26.1456 44.4295 23.8819 44.4173 22.0543 45.4888L20.0264 46.6782C19.1257 47.2062 18.0099 47.2005 17.115 46.6622L15.2176 45.5216C13.4018 44.4295 11.1382 44.4173 9.31053 45.4888L7.28264 46.6782C6.38161 47.2062 5.26619 47.2005 4.37126 46.6622L2.48642 45.5289L0.976562 48.0397L2.8614 49.1731C4.67567 50.2637 6.93779 50.2763 8.76427 49.2055L10.7922 48.0161C11.6943 47.487 12.8117 47.4934 13.7077 48.0321L15.6052 49.1731C17.4198 50.2641 19.6815 50.2763 21.508 49.2055L23.5359 48.0161C24.4381 47.487 25.5554 47.4934 26.4519 48.0321L28.3489 49.1731C30.1636 50.2637 32.4253 50.2763 34.2522 49.2055L36.2801 48.0161C37.1822 47.487 38.2992 47.4934 39.1956 48.0321L41.0927 49.1731C42.0097 49.7243 43.0405 50.0001 44.0716 50.0001C45.0817 50.0001 46.0922 49.7353 46.9959 49.2055L49.0257 48.0149L47.5437 45.4877L45.5139 46.6782Z" fill="#FFB228"/>
</g>
<defs>
<clipPath id="clip0">
<rect width="50" height="50" fill="white"/>
</clipPath>
</defs>
</svg>
