<svg width="30" height="30" viewBox="0 0 30 30" fill="none" xmlns="http://www.w3.org/2000/svg">
<path d="M23.7891 5.39062H21.1523V0.878906C21.1523 0.393516 20.7588 0 20.2734 0C19.788 0 19.3945 0.393516 19.3945 0.878906V5.39062H10.6055V0.878906C10.6055 0.393516 10.212 0 9.72656 0C9.24117 0 8.84766 0.393516 8.84766 0.878906V5.39062H6.21094C5.72578 5.39062 5.33203 5.78438 5.33203 6.26953V9.78516C5.33203 10.2703 5.72578 10.6641 6.21094 10.6641H7.08984V15.0586C7.08984 19.1385 10.1941 22.5064 14.165 22.9248H14.1652C14.5836 26.8955 17.9515 30 22.0312 30C22.5166 30 22.9102 29.6065 22.9102 29.1211C22.9102 28.6357 22.5166 28.2422 22.0312 28.2422C18.9182 28.2422 16.3381 25.9179 15.9342 22.9137H15.9346C19.8574 22.4502 22.9102 19.1039 22.9102 15.0586V10.6641H23.7891C24.2742 10.6641 24.668 10.2703 24.668 9.78516V6.26953C24.668 5.78438 24.2742 5.39062 23.7891 5.39062ZM17.3795 15.6803L15.6217 17.4381C14.8066 18.2531 13.5551 17.0186 14.3783 16.1947L15.2742 15.2994L12.849 14.0871C12.3135 13.8187 12.1969 13.1033 12.6205 12.6791L14.3783 10.9213C15.1998 10.0998 16.4443 11.3414 15.6217 12.1646L14.7258 13.06L17.151 14.2723C17.6865 14.5406 17.8031 15.2561 17.3795 15.6803Z" fill="#28FF64"/>
</svg>
