<svg width="40" height="40" viewBox="0 0 40 40" fill="none" xmlns="http://www.w3.org/2000/svg">
<g clip-path="url(#clip0)">
<path d="M30.9461 19.3027H39.7648L38.22 11.8872C38.1067 11.3437 37.6276 10.9546 37.0725 10.9546H23.4986L30.9461 19.3027Z" fill="#FFB228"/>
<path d="M16.4792 10.9543H2.92761C2.3725 10.9543 1.89337 11.3438 1.78015 11.8873L0.235352 19.3027H8.96857L16.4792 10.9543Z" fill="#FFB228"/>
<path d="M20 17.5735C19.3539 17.5735 18.8281 18.0993 18.8281 18.7454C18.8281 19.3914 19.3539 19.9169 20 19.9169C20.6461 19.9169 21.1719 19.3914 21.1719 18.7454C21.1719 18.099 20.6461 17.5735 20 17.5735Z" fill="#FFB228"/>
<path d="M18.7841 33.5151H21.1278V39.9986H18.7841V33.5151Z" fill="#FFB228"/>
<path d="M30.4208 21.6464C30.087 21.6464 29.7687 21.5039 29.5465 21.2546L21.1719 11.8668V5.85907H26.4999C27.1066 5.85907 27.4817 5.19806 27.1704 4.67712L26.1264 2.92999L27.1704 1.18286C27.4817 0.661926 27.1066 0.000915531 26.4999 0.000915531H20.014C20.0095 0.000610352 20.0049 0 20 0C19.3527 0 18.8281 0.524597 18.8281 1.17188V11.8475L10.3619 21.2582C10.1395 21.5054 9.823 21.6464 9.49066 21.6464H0V38.8266C0 39.4739 0.524597 39.9985 1.17188 39.9985H16.4401V32.3431C16.4401 31.6962 16.9647 31.1713 17.612 31.1713H22.2995C22.9468 31.1713 23.4714 31.6962 23.4714 32.3431V39.9985H38.8281C39.4754 39.9985 40 39.4739 40 38.8266V21.6464H30.4208ZM7.14264 33.9056C7.14264 34.5529 6.61804 35.0775 5.97076 35.0775C5.32379 35.0775 4.79889 34.5529 4.79889 33.9056V32.3431C4.79889 31.6962 5.32379 31.1713 5.97076 31.1713C6.61804 31.1713 7.14264 31.6962 7.14264 32.3431V33.9056ZM7.14264 27.6559C7.14264 28.3032 6.61804 28.8278 5.97076 28.8278C5.32379 28.8278 4.79889 28.3032 4.79889 27.6559V26.0934C4.79889 25.4465 5.32379 24.9216 5.97076 24.9216C6.61804 24.9216 7.14264 25.4465 7.14264 26.0934V27.6559ZM11.8301 33.9056C11.8301 34.5529 11.3055 35.0775 10.6583 35.0775C10.0113 35.0775 9.48639 34.5529 9.48639 33.9056V32.3431C9.48639 31.6962 10.0113 31.1713 10.6583 31.1713C11.3055 31.1713 11.8301 31.6962 11.8301 32.3431V33.9056ZM11.8301 27.6559C11.8301 28.3032 11.3055 28.8278 10.6583 28.8278C10.0113 28.8278 9.48639 28.3032 9.48639 27.6559V26.0934C9.48639 25.4465 10.0113 24.9216 10.6583 24.9216C11.3055 24.9216 11.8301 25.4465 11.8301 26.0934V27.6559ZM18.7695 27.6559C18.7695 28.3032 18.2449 28.8278 17.5977 28.8278C16.9504 28.8278 16.4258 28.3032 16.4258 27.6559V26.0934C16.4258 25.4465 16.9504 24.9216 17.5977 24.9216C18.2449 24.9216 18.7695 25.4465 18.7695 26.0934V27.6559ZM16.4844 18.7451C16.4844 16.8066 18.0615 15.2298 20 15.2298C21.9385 15.2298 23.5156 16.8066 23.5156 18.7451C23.5156 20.6839 21.9385 22.2607 20 22.2607C18.0615 22.2607 16.4844 20.6839 16.4844 18.7451ZM23.5742 27.6559C23.5742 28.3032 23.0496 28.8278 22.4023 28.8278C21.7551 28.8278 21.2305 28.3032 21.2305 27.6559V26.0934C21.2305 25.4465 21.7551 24.9216 22.4023 24.9216C23.0496 24.9216 23.5742 25.4465 23.5742 26.0934V27.6559ZM30.2206 33.9056C30.2206 34.5529 29.6957 35.0775 29.0488 35.0775C28.4015 35.0775 27.8769 34.5529 27.8769 33.9056V32.3431C27.8769 31.6962 28.4015 31.1713 29.0488 31.1713C29.6957 31.1713 30.2206 31.6962 30.2206 32.3431V33.9056ZM30.2206 27.6559C30.2206 28.3032 29.6957 28.8278 29.0488 28.8278C28.4015 28.8278 27.8769 28.3032 27.8769 27.6559V26.0934C27.8769 25.4465 28.4015 24.9216 29.0488 24.9216C29.6957 24.9216 30.2206 25.4465 30.2206 26.0934V27.6559ZM34.9081 33.9056C34.9081 34.5529 34.3832 35.0775 33.7363 35.0775C33.089 35.0775 32.5644 34.5529 32.5644 33.9056V32.3431C32.5644 31.6962 33.089 31.1713 33.7363 31.1713C34.3832 31.1713 34.9081 31.6962 34.9081 32.3431V33.9056ZM34.9081 27.6559C34.9081 28.3032 34.3832 28.8278 33.7363 28.8278C33.089 28.8278 32.5644 28.3032 32.5644 27.6559V26.0934C32.5644 25.4465 33.089 24.9216 33.7363 24.9216C34.3832 24.9216 34.9081 25.4465 34.9081 26.0934V27.6559Z" fill="#FFB228"/>
</g>
<defs>
<clipPath id="clip0">
<rect width="40" height="40" fill="white"/>
</clipPath>
</defs>
</svg>
