<svg width="30" height="30" viewBox="0 0 30 30" fill="none" xmlns="http://www.w3.org/2000/svg">
<g clip-path="url(#clip0)">
<path d="M26.7381 6.72235C25.7734 7.68705 24.2119 7.68718 23.247 6.72235C22.2846 5.75989 22.2846 4.19383 23.247 3.23136L24.1421 2.33628L27.6331 5.82733L26.7381 6.72235ZM29.6763 5.13331L24.8265 0.283486C24.4485 -0.0944953 23.8357 -0.0944953 23.4577 0.283486L21.8784 1.86279C20.3965 3.34472 20.1944 5.62809 21.2705 7.33018L11.8104 16.7903L8.15818 13.1381C7.7802 12.7601 7.16735 12.7601 6.78937 13.1381L3.1765 16.751C0.735859 19.1916 -0.387984 22.6823 0.170913 26.0883L0.589481 28.6421C0.656622 29.0522 0.977806 29.3733 1.38791 29.4405C4.11253 29.8877 4.57459 30 5.67157 30C8.49872 30 11.2515 28.8816 13.279 26.8535L16.8925 23.2406C17.2705 22.8626 17.2705 22.2498 16.8925 21.8718L15.2323 20.2117C14.8544 19.8337 14.2416 19.8337 13.8637 20.2117L11.0695 23.0059C10.8801 23.1952 10.6328 23.2896 10.3848 23.2896C9.53117 23.2896 9.08889 22.2485 9.70065 21.6377C14.8825 16.4567 17.4572 13.8808 22.6388 8.6996C24.3141 9.76205 26.5994 9.59843 28.1068 8.09111L29.6861 6.5118C30.0459 6.15196 30.0863 5.54323 29.6763 5.13331Z" fill="#E16C6C"/>
</g>
<defs>
<clipPath id="clip0">
<rect width="30" height="30" fill="white"/>
</clipPath>
</defs>
</svg>
