<svg width="50" height="50" viewBox="0 0 50 50" fill="none" xmlns="http://www.w3.org/2000/svg">
<g clip-path="url(#clip0)">
<path d="M49.841 47.8745L40.3223 29.029C40.073 28.5357 39.5675 28.2246 39.0148 28.2246H10.9848C10.4321 28.2246 9.92656 28.5357 9.67734 29.029L0.158692 47.8745C-0.332323 48.8468 0.375001 49.9998 1.46602 49.9998H48.5336C49.6229 49.9998 50.3328 48.8484 49.841 47.8745ZM26.4646 31.1543H38.1138L41.3934 37.6474H26.4646V31.1543ZM23.5351 47.0701H3.84697L7.12656 40.577H23.5351V47.0701ZM23.5351 37.6474H8.60635L11.8859 31.1543H23.5351V37.6474ZM26.4646 47.0701V40.577H42.873L46.1527 47.0701H26.4646Z" fill="#FFB228"/>
<path d="M24.9999 7.52051C22.0384 7.52051 19.6292 9.92998 19.6292 12.8916C19.6292 15.8532 22.0385 18.2627 24.9999 18.2627C27.9614 18.2627 30.3707 15.8532 30.3707 12.8916C30.3707 9.92998 27.9615 7.52051 24.9999 7.52051ZM24.9999 15.333C23.6539 15.333 22.5586 14.2378 22.5586 12.8916C22.5586 11.5454 23.6539 10.4502 24.9999 10.4502C26.346 10.4502 27.4412 11.5454 27.4412 12.8916C27.4412 14.2378 26.3461 15.333 24.9999 15.333Z" fill="#FFB228"/>
<path d="M24.9999 0C24.1909 0 23.5352 0.655859 23.5352 1.46484V4.68818C23.5352 5.49717 24.191 6.15303 24.9999 6.15303C25.8089 6.15303 26.4646 5.49717 26.4646 4.68818V1.46484C26.4646 0.655859 25.8089 0 24.9999 0Z" fill="#FFB228"/>
<path d="M24.9999 19.6304C24.1909 19.6304 23.5352 20.2861 23.5352 21.0952V24.3185C23.5352 25.1275 24.1909 25.7834 24.9999 25.7834C25.8089 25.7834 26.4646 25.1275 26.4646 24.3185V21.0952C26.4646 20.2862 25.8089 19.6304 24.9999 19.6304Z" fill="#FFB228"/>
<path d="M20.2352 6.0549L17.9562 3.7757C17.3842 3.20363 16.4567 3.20372 15.8847 3.7757C15.3126 4.34777 15.3126 5.27521 15.8847 5.84728L18.1637 8.12648C18.7356 8.69855 19.663 8.69855 20.2352 8.12648C20.8072 7.55441 20.8072 6.62697 20.2352 6.0549Z" fill="#FFB228"/>
<path d="M34.1152 19.9358L31.8361 17.6566C31.2642 17.0845 30.3367 17.0846 29.7647 17.6566C29.1926 18.2286 29.1926 19.1561 29.7647 19.7281L32.0437 22.0073C32.6157 22.5794 33.543 22.5794 34.1152 22.0073C34.6873 21.4353 34.6873 20.5078 34.1152 19.9358Z" fill="#FFB228"/>
<path d="M16.7967 11.4268H13.5735C12.7646 11.4268 12.1088 12.0826 12.1088 12.8916C12.1088 13.7006 12.7647 14.3564 13.5735 14.3564H16.7967C17.6057 14.3564 18.2614 13.7006 18.2614 12.8916C18.2614 12.0826 17.6057 11.4268 16.7967 11.4268Z" fill="#FFB228"/>
<path d="M36.4262 11.4268H33.203C32.3941 11.4268 31.7383 12.0826 31.7383 12.8916C31.7383 13.7006 32.394 14.3564 33.203 14.3564H36.4262C37.2352 14.3564 37.8909 13.7006 37.8909 12.8916C37.8909 12.0826 37.2352 11.4268 36.4262 11.4268Z" fill="#FFB228"/>
<path d="M20.235 17.6566C19.6631 17.0845 18.7356 17.0845 18.1637 17.6566L15.8846 19.9358C15.3125 20.5079 15.3125 21.4353 15.8846 22.0074C16.4565 22.5793 17.384 22.5794 17.956 22.0074L20.235 19.7282C20.8071 19.1561 20.8071 18.2287 20.235 17.6566Z" fill="#FFB228"/>
<path d="M34.1153 3.7757C33.5433 3.20372 32.6158 3.20363 32.0438 3.7757L29.7647 6.05489C29.1926 6.62696 29.1926 7.5544 29.7647 8.12647C30.3367 8.69845 31.2642 8.69854 31.8362 8.12647L34.1153 5.84728C34.6874 5.27521 34.6874 4.34777 34.1153 3.7757Z" fill="#FFB228"/>
</g>
<defs>
<clipPath id="clip0">
<rect width="50" height="50" fill="white"/>
</clipPath>
</defs>
</svg>
