<svg width="40" height="40" viewBox="0 0 40 40" fill="none" xmlns="http://www.w3.org/2000/svg">
<path d="M26.1929 14.9789V35.3124H36.2344V1.33813C36.2344 0.691467 35.7092 0.16626 35.0626 0.16626H20C19.353 0.16626 18.8281 0.691467 18.8281 1.33813V11.4633H22.6773C24.6155 11.4633 26.1929 13.0407 26.1929 14.9789ZM28.8696 6.35919C28.8696 5.71222 29.3945 5.18732 30.0415 5.18732C30.6888 5.18732 31.2134 5.71222 31.2134 6.35919V7.61438C31.2134 8.26166 30.6888 8.78625 30.0415 8.78625C29.3945 8.78625 28.8696 8.26166 28.8696 7.61438V6.35919ZM28.8696 12.6354C28.8696 11.9882 29.3945 11.4636 30.0415 11.4636C30.6888 11.4636 31.2134 11.9882 31.2134 12.6354V13.8906C31.2134 14.5379 30.6888 15.0625 30.0415 15.0625C29.3945 15.0625 28.8696 14.5379 28.8696 13.8906V12.6354ZM28.8696 18.9114C28.8696 18.2641 29.3945 17.7395 30.0415 17.7395C30.6888 17.7395 31.2134 18.2641 31.2134 18.9114V20.1666C31.2134 20.8138 30.6888 21.3384 30.0415 21.3384C29.3945 21.3384 28.8696 20.8138 28.8696 20.1666V18.9114ZM28.8696 25.1873C28.8696 24.5403 29.3945 24.0154 30.0415 24.0154C30.6888 24.0154 31.2134 24.5403 31.2134 25.1873V26.4425C31.2134 27.0898 30.6888 27.6144 30.0415 27.6144C29.3945 27.6144 28.8696 27.0898 28.8696 26.4425V25.1873ZM23.8489 6.35919C23.8489 5.71222 24.3738 5.18732 25.0208 5.18732C25.668 5.18732 26.1926 5.71222 26.1926 6.35919V7.61438C26.1926 8.26166 25.668 8.78625 25.0208 8.78625C24.3738 8.78625 23.8489 8.26166 23.8489 7.61438V6.35919Z" fill="#FFB228"/>
<path d="M3.68225 11.1304H12.4689C14.4992 11.1304 16.1511 9.47845 16.1511 7.44812C16.1511 5.39429 14.4843 3.76556 12.4689 3.76556H12.3514C12.0828 1.6452 10.2676 0 8.07556 0C5.88348 0 4.0683 1.6452 3.79974 3.76556H3.68225C1.62506 3.76556 0 5.43579 0 7.44781C0 9.47845 1.65192 11.1304 3.68225 11.1304Z" fill="#FFB228"/>
<path d="M38.8281 37.6562H1.17188C0.524597 37.6562 0 38.1808 0 38.8281C0 39.4754 0.524597 40 1.17188 40H38.8281C39.4754 40 40 39.4754 40 38.8281C40 38.1808 39.4754 37.6562 38.8281 37.6562Z" fill="#FFB228"/>
<path d="M23.8492 35.3126V14.979C23.8492 14.332 23.3243 13.8071 22.6773 13.8071H4.93744C4.29077 13.8071 3.76556 14.332 3.76556 14.979V35.3126H10.1251V31.3807C10.1251 30.7328 10.65 30.2088 11.297 30.2088H16.3181C16.9647 30.2088 17.4899 30.7328 17.4899 31.3807V35.3126H23.8492ZM9.9585 26.3593C9.9585 27.0066 9.43359 27.5312 8.78662 27.5312C8.13934 27.5312 7.61475 27.0066 7.61475 26.3593V25.1041C7.61475 24.4572 8.13934 23.9323 8.78662 23.9323C9.43359 23.9323 9.9585 24.4572 9.9585 25.1041V26.3593ZM9.9585 20.0834C9.9585 20.7307 9.43359 21.2552 8.78662 21.2552C8.13934 21.2552 7.61475 20.7307 7.61475 20.0834V18.8282C7.61475 18.1809 8.13934 17.6563 8.78662 17.6563C9.43359 17.6563 9.9585 18.1809 9.9585 18.8282V20.0834ZM14.9792 26.3593C14.9792 27.0066 14.4543 27.5312 13.8074 27.5312C13.1601 27.5312 12.6355 27.0066 12.6355 26.3593V25.1041C12.6355 24.4572 13.1601 23.9323 13.8074 23.9323C14.4543 23.9323 14.9792 24.4572 14.9792 25.1041V26.3593ZM14.9792 20.0834C14.9792 20.7307 14.4543 21.2552 13.8074 21.2552C13.1601 21.2552 12.6355 20.7307 12.6355 20.0834V18.8282C12.6355 18.1809 13.1601 17.6563 13.8074 17.6563C14.4543 17.6563 14.9792 18.1809 14.9792 18.8282V20.0834ZM17.6562 18.8282C17.6562 18.1809 18.1808 17.6563 18.8281 17.6563C19.4754 17.6563 20 18.1809 20 18.8282V20.0834C20 20.7307 19.4754 21.2552 18.8281 21.2552C18.1808 21.2552 17.6562 20.7307 17.6562 20.0834V18.8282ZM17.6562 25.1041C17.6562 24.4572 18.1808 23.9323 18.8281 23.9323C19.4754 23.9323 20 24.4572 20 25.1041V26.3593C20 27.0066 19.4754 27.5312 18.8281 27.5312C18.1808 27.5312 17.6562 27.0066 17.6562 26.3593V25.1041Z" fill="#FFB228"/>
<path d="M12.4689 32.5525H15.1462V35.3125H12.4689V32.5525Z" fill="#FFB228"/>
</svg>
