<svg width="40" height="40" viewBox="0 0 40 40" fill="none" xmlns="http://www.w3.org/2000/svg">
<path d="M29.5004 12.5596V10.2158H27.5842L27.6486 12.5596H29.5004Z" fill="#FFB228"/>
<path d="M21.1719 3.47931V0H18.8281V3.41431C15.2695 3.84674 12.4362 6.66443 11.9806 10.2158H27.5845C27.1475 6.8103 24.5242 4.07928 21.1719 3.47931Z" fill="#FFB228"/>
<path d="M11.9806 10.2158H10.4996V12.5596H11.9162L11.9806 10.2158Z" fill="#FFB228"/>
<path d="M29.8163 20.7534L19.9966 15.2468L10.6247 20.4427L9.7583 21.0452H30.2417L29.8163 20.7534Z" fill="#FFB228"/>
<path d="M38.125 27.3904H30.3906V37.9687H28.0127V23.3889H25.4034V37.9687H23.0597V23.3889H16.7899V37.9687H14.4461V23.3889H11.9873V37.9687H9.60938V27.3904H1.875V37.6562H0V39.9999H40V37.6562H38.125V27.3904ZM7.86041 35.0332H5.51666V32.8674H7.86041V35.0332ZM7.86041 31.1266H5.51666V28.9611H7.86041V31.1266ZM21.1719 37.9687H18.8281V33.7036H21.1719V37.9687ZM21.1719 31.0143H18.8281V28.8485H21.1719V31.0143ZM21.1719 27.1078H18.8281V24.9423H21.1719V27.1078ZM34.2603 35.0332H31.9165V32.8674H34.2603V35.0332ZM34.2603 31.1266H31.9165V28.9611H34.2603V31.1266Z" fill="#FFB228"/>
<path d="M1.875 25.0466H9.60938V22.7029H0V25.0466H1.875Z" fill="#FFB228"/>
<path d="M30.3906 22.7029V25.0466H40V22.7029H30.3906Z" fill="#FFB228"/>
<path d="M11.9162 17.0469L20.0034 12.5596H11.9162V17.0469Z" fill="#FFB228"/>
<path d="M27.6486 16.851V12.5596H20.0034L27.6486 16.851Z" fill="#FFB228"/>
</svg>
