<svg width="40" height="40" viewBox="0 0 40 40" fill="none" xmlns="http://www.w3.org/2000/svg">
<g clip-path="url(#clip0)">
<path d="M1.53142 11.2527L3.66295 12.5064C4.17957 12.0682 4.81327 11.7902 5.48567 11.7063L20.5515 9.85549C20.936 9.80825 21.2859 10.0815 21.3331 10.4659C21.3804 10.8507 21.1072 11.2006 20.7224 11.2479L5.65685 13.099C5.4302 13.1284 5.20972 13.1949 5.00465 13.2959L20.6306 22.5057L39.7301 11.2527L20.6306 0L1.53142 11.2527Z" fill="#FFB228"/>
<path d="M20.2746 23.9241L6.6076 15.8728V23.1722C6.6076 25.1025 8.27626 26.9789 11.1856 28.3203C14.1676 29.599 17.3861 30.2341 20.6306 30.1838C23.8748 30.2344 27.0934 29.5994 30.0753 28.3203C32.985 26.9789 34.6537 25.1025 34.6537 23.1722V15.8728L20.987 23.9241C20.7672 24.0535 20.4944 24.0535 20.2746 23.9241Z" fill="#FFB228"/>
<path d="M4.50414 38.5977L3.10183 30.885L0.297226 40L4.50414 38.5977Z" fill="#FFB228"/>
<path d="M5.20528 28.7815C5.20391 27.8927 4.64175 27.1015 3.80297 26.8071V15.1864C3.80503 14.8913 3.86939 14.5999 3.9923 14.3315C4.19429 13.8793 4.54932 13.5129 4.99507 13.2966L3.6585 12.5071C3.29525 12.8152 2.99809 13.1942 2.78582 13.6204C2.53624 14.1049 2.40444 14.6413 2.40067 15.1864V26.8071C1.39482 27.1655 0.817943 28.2214 1.05999 29.2615C1.30238 30.3015 2.28632 30.9941 3.34695 30.8712C4.40758 30.7487 5.20733 29.8493 5.20528 28.7815Z" fill="#FFB228"/>
</g>
<defs>
<clipPath id="clip0">
<rect width="40" height="40" fill="white"/>
</clipPath>
</defs>
</svg>
