<svg width="30" height="30" viewBox="0 0 30 30" fill="none" xmlns="http://www.w3.org/2000/svg">
<g clip-path="url(#clip0)">
<path d="M7.24167 11.3105C5.67225 12.9817 0 19.2673 0 22.7584C0 26.7578 3.24194 30.0001 7.24167 30.0001C11.2411 30.0001 14.4833 26.7578 14.4833 22.7584C14.4833 19.2651 8.81083 12.9822 7.24167 11.3105ZM6.68462 27.7718C3.91677 27.7689 1.67415 25.526 1.67116 22.7584H2.78526C2.78798 24.9107 4.53203 26.655 6.68462 26.6577V27.7718Z" fill="#E16C6C"/>
<path d="M15.5974 1.32349C13.035 4.4754 11.6981 6.90243 11.6981 7.71788C11.6981 9.87156 13.4438 11.6172 15.5974 11.6172C17.7508 11.6172 19.4968 9.87156 19.4968 7.71788C19.4968 6.91957 18.1346 4.44412 15.5974 1.32349Z" fill="#E16C6C"/>
<path d="M5.57053 0C4.90767 0.878009 4.34844 1.82946 3.90427 2.83585C3.97934 3.70216 4.70095 4.3691 5.57053 4.37563C6.43657 4.37889 7.16035 3.71739 7.23488 2.85434C6.79044 1.84278 6.23202 0.885081 5.57053 0Z" fill="#E16C6C"/>
</g>
<defs>
<clipPath id="clip0">
<rect width="30" height="30" fill="white"/>
</clipPath>
</defs>
</svg>
