<svg width="50" height="50" viewBox="0 0 50 50" fill="none" xmlns="http://www.w3.org/2000/svg">
<path d="M47.6985 44.9548H44.6111V0.753012C44.6111 0.301205 44.3099 0 43.8581 0H6.20751C5.7557 0 5.4545 0.301205 5.4545 0.753012V44.9548H2.36715C1.91534 44.9548 1.61414 45.256 1.61414 45.7078V49.247C1.61414 49.6988 1.91534 50 2.36715 50H47.6232C48.075 50 48.3762 49.6988 48.3762 49.247V45.7078C48.4515 45.3313 48.075 44.9548 47.6985 44.9548ZM6.96052 1.50602H43.1051V44.9548H41.1473V4.14157C41.1473 3.68976 40.8461 3.38855 40.3943 3.38855H9.67136C9.21956 3.38855 8.91835 3.68976 8.91835 4.14157V44.9548H6.96052V1.50602ZM25.7858 31.0994V18.75H39.6412V31.0994H25.7858ZM39.6412 32.6054V44.9548H25.7858V32.6054H39.6412ZM25.7858 17.244V4.89458H39.6412V17.244H25.7858ZM10.4244 31.0994V18.75H24.2798V31.0994H10.4244ZM24.2798 32.6054V44.9548H10.4244V32.6054H24.2798ZM10.4244 17.244V4.89458H24.2798V17.244H10.4244ZM3.12016 48.494V46.4608H9.67136H40.3943H46.9455V48.494H3.12016Z" fill="#FFB228"/>
</svg>
