<svg xmlns="http://www.w3.org/2000/svg" viewBox="0 0 512 512"><path fill="#f0f0f0" d="M0 85.338h512v341.326H0z"/><path fill="#d80027" d="M0 128.001h512v42.663H0z"/><path fill="#0052b4" d="M0 170.664h512v42.663H0z"/><path fill="#d80027" d="M0 256.001h512v42.663H0z"/><path fill="#0052b4" d="M0 298.664h512v42.663H0z"/><path fill="#d80027" d="M0 384.001h512v42.663H0z"/><path fill="#f0f0f0" d="M0 85.338h256v170.663H0z"/><path fill="#d80027" d="M144 85.336h-32v69.334H0v32h112v69.333h32V186.67h112v-32H144z"/><path d="M196.892 200.351L256 233.188v-32.837zm-41.066 0L256 256.003v-15.737l-71.847-39.915zm73.491 55.652l-73.491-40.832v40.832z" fill="#0052b4"/><path fill="#f0f0f0" d="M155.826 200.351L256 256.003v-15.737l-71.847-39.915z"/><path fill="#d80027" d="M155.826 200.351L256 256.003v-15.737l-71.847-39.915z"/><path d="M45.171 200.35L0 225.445V200.35zm55.003 7.077v48.575H12.745z" fill="#0052b4"/><path fill="#d80027" d="M71.846 200.351L0 240.266v15.737l100.174-55.652z"/><path d="M59.108 140.988L0 108.151v32.837zm41.066 0L0 85.336v15.737l71.847 39.915zM26.683 85.336l73.491 40.833V85.336z" fill="#0052b4"/><path fill="#f0f0f0" d="M100.174 140.988L0 85.336v15.737l71.847 39.915z"/><path fill="#d80027" d="M100.174 140.988L0 85.336v15.737l71.847 39.915z"/><path d="M210.829 140.989L256 115.895v25.094zm-55.003-7.077V85.337h87.429z" fill="#0052b4"/><path fill="#d80027" d="M184.154 140.988L256 101.074V85.336l-100.174 55.652z"/></svg>