<svg xmlns="http://www.w3.org/2000/svg" viewBox="0 0 512 512"><path fill="#6da544" d="M0 85.337h512v341.326H0z"/><path d="M215.864 256.006L0 399.911V112.089zM512 112.089v287.822L296.136 256.006z"/><path fill="#0052b4" d="M512 112.089L296.136 256.006 512 399.911v26.757h-40.125L256 282.752 40.125 426.668H0v-26.757l215.864-143.905L0 112.089V85.331h40.125L256 229.248 471.875 85.331H512z"/><path fill="#ffda44" d="M512 112.089L296.136 256.006 512 399.911v26.757h-40.125L256 282.752 40.125 426.668H0v-26.757l215.864-143.905L0 112.089V85.331h40.125L256 229.248 471.875 85.331H512z"/></svg>