<svg xmlns="http://www.w3.org/2000/svg" viewBox="0 0 512 512"><path fill="#ffda44" d="M0 85.337h512v341.326H0z"/><path d="M0 199.078l512 207.183v-46.67l-238.768-94.393L0 152.412z"/><path fill="#f0f0f0" d="M512 359.588v-46.665L0 105.739v46.673"/><g fill="#d80027"><path d="M304.224 237.452c0 26.633-21.591 48.224-48.224 48.224s-48.224-21.591-48.224-48.224a48.002 48.002 0 015.796-22.94c-10.465 10.702-16.925 25.337-16.925 41.488 0 32.779 26.573 59.353 59.353 59.353s59.353-26.574 59.353-59.353c0-16.15-6.46-30.786-16.925-41.488a48.002 48.002 0 015.796 22.94z"/><path d="M244.87 181.805h22.258v111.282H244.87z"/><path d="M293.095 204.066h-74.191c0 5.122 4.461 9.274 9.583 9.274h-.309a9.274 9.274 0 009.274 9.274 9.274 9.274 0 009.274 9.274h18.548a9.274 9.274 0 009.274-9.274 9.274 9.274 0 009.274-9.274h-.308c5.119 0 9.581-4.151 9.581-9.274zm-89.03 96.445h103.869v22.258H204.065z"/><path d="M278.261 307.935h44.514v22.258h-44.514zm-89.032 0h44.514v22.258h-44.514z"/></g></svg>