<svg xmlns="http://www.w3.org/2000/svg" viewBox="0 0 512 512"><path fill="#d80027" d="M0 85.334h512v341.337H0z"/><path fill="#f0f0f0" d="M0 85.334h256v170.663H0z"/><g fill="#d80027"><path d="M144 85.33h-32v69.333H0v32h112v69.334h32v-69.334h112v-32H144z"/><path d="M0 85.329v15.083l57.377 38.251H80z"/></g><path d="M0 107.951v30.712h46.069zm96-22.62v48.913L22.628 85.331z" fill="#2e52b2"/><path fill="#d80027" d="M256 85.329v15.083l-57.377 38.251H176z"/><path d="M256 107.951v30.712h-46.069zm-96-22.62v48.913l73.372-48.913z" fill="#2e52b2"/><path fill="#d80027" d="M0 85.329v15.083l57.377 38.251H80z"/><path d="M0 107.951v30.712h46.069zm96-22.62v48.913L22.628 85.331z" fill="#2e52b2"/><path fill="#d80027" d="M256 85.329v15.083l-57.377 38.251H176z"/><path d="M256 107.951v30.712h-46.069zm-96-22.62v48.913l73.372-48.913z" fill="#2e52b2"/><path fill="#d80027" d="M0 255.997v-15.082l57.377-38.252H80z"/><path d="M0 233.376v-30.713h46.069zm96 22.618v-48.912l-73.372 48.912z" fill="#2e52b2"/><path fill="#d80027" d="M256 255.997v-15.082l-57.377-38.252H176z"/><path d="M256 233.376v-30.713h-46.069zm-96 22.618v-48.912l73.372 48.912z" fill="#2e52b2"/><path d="M332.058 189.214v81.623c0 39.76 103.884 39.76 103.884 0v-81.623H332.058z" fill="#f3f3f3"/><path d="M332.058 270.837c0 39.76 51.942 51.942 51.942 51.942s51.942-12.182 51.942-51.942v.001H332.058v-.001z" fill="#6da544"/><path fill="#a2001d" d="M384 238.188l-24.116 10.388v22.261L384 285.678l24.116-14.841v-22.261z"/><path fill="#338af3" d="M359.88 226.312h48.228v22.261H359.88z"/></svg>