<svg xmlns="http://www.w3.org/2000/svg" viewBox="0 0 512 512"><path fill="#fcfcfc" d="M0 85.331h512v341.337H0z"/><path d="M307.942 226.313v14.84h20.368a89.466 89.466 0 01-32.977 27.952 18.49 18.49 0 00-13.362-5.691c-8.85 0-16.248 6.2-18.1 14.492a90.227 90.227 0 01-7.871.348 90.21 90.21 0 01-7.871-.348c-1.852-8.292-9.251-14.492-18.1-14.492-5.25 0-9.987 2.185-13.362 5.69a89.46 89.46 0 01-32.976-27.951h20.368v-14.84h-51.942c0 57.373 46.511 103.884 103.884 103.884 57.374 0 103.884-46.511 103.884-103.884h-51.943z" fill="#d80027"/></svg>