<svg xmlns="http://www.w3.org/2000/svg" viewBox="0 0 512 512"><path fill="#0052b4" d="M0 85.331h512v341.337H0z"/><path d="M160.299 189.212l3.685 11.337h11.919l-9.643 7.007 3.684 11.336-9.645-7.006-9.644 7.006 3.684-11.336-9.643-7.007h11.919zm37.101-11.131l3.685 11.338h11.919l-9.643 7.006 3.684 11.337-9.645-7.007-9.644 7.007 3.684-11.337-9.643-7.006h11.919zm37.103-11.13l3.683 11.337h11.919l-9.643 7.007 3.684 11.336-9.643-7.006-9.645 7.006 3.684-11.336-9.643-7.007h11.919zm117.198 22.261l-3.685 11.337h-11.919l9.643 7.007-3.684 11.336 9.645-7.006 9.644 7.006-3.684-11.336 9.643-7.007h-11.919zM314.6 178.081l-3.685 11.338h-11.919l9.643 7.006-3.684 11.337 9.645-7.007 9.644 7.007-3.684-11.337 9.643-7.006h-11.919zm-37.103-11.13l-3.683 11.337h-11.919l9.643 7.007-3.684 11.336 9.643-7.006 9.645 7.006-3.684-11.336 9.643-7.007h-11.92z" fill="#f0f0f0"/><path d="M285.682 263.414L256 226.312l-14.84 7.421v14.84l-22.261 14.84h-14.84v19.172c21.751 8.808 37.101 30.12 37.101 55.03H256v-14.84l14.84-14.84 14.84 14.84 14.841-14.839v-14.84l14.84-22.261-29.679-7.421z" fill="#ffda44"/></svg>