<svg xmlns="http://www.w3.org/2000/svg" viewBox="0 0 512 512"><path fill="#ffda44" d="M0 85.333h512V426.67H0z"/><path fill="#d80027" d="M0 85.33h512v341.332"/><path d="M300.611 300.621c-7.011 2.754-15.156 2.462-22.223-1.505-12.486-7.008-16.944-22.871-9.934-35.359l-2.128-1.193c21.38-5.156 37.199-24.562 36.922-47.464-.173-14.238-6.535-26.976-16.486-35.692l-15.582 15.963c5.891 4.695 9.71 11.896 9.808 19.998.174 14.319-11.335 26.111-25.653 26.285l.029 2.439c-15.155-15.937-39.87-19.932-59.565-8.242-12.243 7.269-20.093 19.147-22.667 32.124l21.616 5.513c1.121-7.45 5.447-14.357 12.414-18.494 12.314-7.309 28.28-3.239 35.59 9.076l2.098-1.244c-6.225 21.092 2.671 44.494 22.644 55.706 12.417 6.969 26.627 7.828 39.154 3.568l-6.037-21.479zm-45.1-44.13z" fill="#ff9811"/><path d="M319.191 200.915l-12.062 43.047-36.194-6.684-23.297-48.023-62.938 22.334-4.964-13.986-16.466-2.029 12.407 34.966 43.313-11.077 12.309 34.686-29.941 44.187 50.81 43.337-9.631 11.292 6.476 15.277 24.078-28.229-31.249-31.97 23.885-28.002 53.238 3.837 12.127-65.673 14.594 2.695 9.993-13.247-36.488-6.738zm-63.204 56.241v.001-.001z" fill="#ffeacf"/></svg>