<svg xmlns="http://www.w3.org/2000/svg" viewBox="0 0 512 512"><path fill="#0052b4" d="M0 85.337h512v341.326H0z"/><path d="M233.839 185.115l-20.844 9.803 11.1 20.187-22.633-4.33-2.868 22.864-15.765-16.816-15.766 16.816-2.867-22.864-22.634 4.33 11.1-20.187-20.843-9.803 20.843-9.805-11.1-20.185 22.633 4.328 2.869-22.864 15.765 16.816 15.765-16.816 2.868 22.864 22.634-4.328-11.1 20.186zm193.078-99.778L0 421.52v3.762L503.756 85.337z" fill="#f0f0f0"/><path fill="#ff9811" d="M512 85.337h-8.244L0 425.282v1.381h3.723L512 136.998z"/></svg>