<svg xmlns="http://www.w3.org/2000/svg" viewBox="0 0 512 512"><path fill="#d80027" d="M0 85.331h512v341.337H0z"/><path fill="#0052b4" d="M0 85.331h256v170.663H0z"/><path d="M165.483 181.79l2.764 8.504h8.939l-7.232 5.254 2.763 8.503-7.234-5.255-7.233 5.255 2.763-8.503-7.233-5.254h8.94zm-44.904-66.783l4.606 14.173h14.9l-12.055 8.757 4.605 14.171-12.056-8.758-12.054 8.758 4.605-14.171-12.056-8.757h14.901zm44.522 14.841l4.606 14.172h14.9l-12.055 8.757 4.604 14.173-12.055-8.76-12.054 8.76 4.604-14.173-12.055-8.757h14.9zm-35.192 59.363l4.606 14.172h14.9l-12.055 8.758 4.604 14.171-12.055-8.759-12.054 8.759 4.604-14.171-12.055-8.758h14.9zm-39.01-37.103l4.605 14.173h14.9l-12.055 8.757 4.604 14.173-12.054-8.76-12.055 8.76 4.604-14.173-12.055-8.757h14.9z" fill="#f0f0f0"/></svg>