<svg width="59" height="59" fill="none" xmlns="http://www.w3.org/2000/svg"><path d="m23.166 33.757 21.281-12.22v24.44l-21.28 12.215V33.757ZM0 45.977v-24.44l21.281 12.22v24.435L0 45.977Zm59-34.841a1.842 1.842 0 0 1-.988 1.305 2.402 2.402 0 0 1-.897.21h-8.98a1.827 1.827 0 0 1-1.127-.368 1.81 1.81 0 0 1-.66-.98 2.711 2.711 0 0 1-4.709 0c-.124.432-.39.81-.756 1.073a1.719 1.719 0 0 1-1.571.194 6.758 6.758 0 0 1-2.63-1.396c-.44-.45-.852-.926-1.237-1.423a.534.534 0 0 1-.086-.317V3.275a.673.673 0 0 1 .113-.36A6.307 6.307 0 0 1 38.804.302c.236-.094.478-.175.724-.242a1.751 1.751 0 0 1 2.008 1.074c.033.07.06.15.098.231.244-.406.59-.742 1.003-.976a2.761 2.761 0 0 1 3.716.976l.087-.22a1.7 1.7 0 0 1 .626-.83c.29-.205.638-.314.994-.314h9.088c.402-.006.795.123 1.115.367.32.244.547.587.645.976 0 .059.049.118.07.182l.022 9.61Zm-29.1-4.8V3.759a.907.907 0 0 1 .258-.756.92.92 0 0 1 .757-.264h1.62a.912.912 0 0 1 .92.589.897.897 0 0 1 .052.382v5.284a.897.897 0 0 1-.582.92.912.912 0 0 1-.385.057h-1.68a.918.918 0 0 1-.903-.586.902.902 0 0 1-.057-.375c-.006-.908 0-1.793 0-2.674Zm-1.912 3.517V7.984c-2.42-.018-4.79.692-6.797 2.036a11.95 11.95 0 0 0-4.451 5.498 51.576 51.576 0 0 0-2.992 12.016l8.554 4.79 4.039-2.256s-4.04-9.047-4.04-14.55c0-1.501.6-2.94 1.665-4.002a5.713 5.713 0 0 1 4.022-1.663Z" fill="#FFCA18"/></svg>