<svg width="48" height="58" fill="none" xmlns="http://www.w3.org/2000/svg"><path d="m44.764 14.361-2.418 9.02h-.963l-6.404-6.404L37.6 7.203l7.164 7.158Zm-5.674 9.021h-12.4l-2.633-2.633 9.78-2.622 5.255 5.255ZM26.259 9.4l9.773-2.622-2.616 9.78-9.78 2.622L26.26 9.4ZM47.03 25.024H14.255a.98.98 0 0 0-.974 1.025l2.232 29.554a1.982 1.982 0 0 0 1.976 1.824h26.304a1.982 1.982 0 0 0 1.976-1.824L48 26.049a.969.969 0 0 0-.968-1.025ZM24.664 53.027H22.72v-23.58h1.943v23.58Zm6.948 0H29.67v-23.58h1.942v23.58Zm6.954 0h-1.948v-23.58h1.948v23.58ZM26.332 1.32 25.24.22a.759.759 0 0 0-1.07 0l-8.88 8.84-1.766-1.766a.606.606 0 0 0-.85 0l-5.385 5.385a.606.606 0 0 0 0 .85l1.772 1.76-8.84 8.88a.759.759 0 0 0 0 1.07l1.1 1.093a.759.759 0 0 0 1.07 0L26.332 2.39a.759.759 0 0 0 0-1.07ZM10.306 14.082 9.174 12.95l3.783-3.783 1.132 1.133-3.783 3.782Z" fill="#FFCA18"/></svg>