<svg width="84" height="84" fill="none" xmlns="http://www.w3.org/2000/svg"><path d="M55.895 55.87c2.73-.19 2.73-.19 2.73-2.95v-3.84c0-1.09-.51-1.62-1.59-1.62h-30.27c-1.13 0-1.62.52-1.63 1.67v4.79c0 1.59.43 1.9 1.93 1.91h.81V75.3h-8.27V22.38h44.55v53h-8.26V55.87ZM29.265 33.5h2.7a1.39 1.39 0 0 0 1.53-1.5v-5.32a1.379 1.379 0 0 0-1.49-1.55h-5.32a1.38 1.38 0 0 0-1.53 1.51v5.32a1.39 1.39 0 0 0 1.51 1.53c.86.02 1.73.01 2.6.01Zm12.74-8.38h-2.79a1.38 1.38 0 0 0-1.48 1.47V32a1.38 1.38 0 0 0 1.48 1.48h5.4a1.37 1.37 0 0 0 1.44-1.48v-5.4a1.379 1.379 0 0 0-1.48-1.48c-.87-.02-1.74 0-2.57 0Zm8.29 4.09V32a1.38 1.38 0 0 0 1.47 1.49h5.4a1.38 1.38 0 0 0 1.45-1.49v-5.4a1.358 1.358 0 0 0-1.47-1.49h-5.4a1.39 1.39 0 0 0-1.49 1.55c-.02.86 0 1.71 0 2.55h.04Zm-20.9 15.45h2.53a1.41 1.41 0 0 0 1.57-1.56v-5.23a1.397 1.397 0 0 0-.92-1.51 1.4 1.4 0 0 0-.63-.07h-5.24a1.4 1.4 0 0 0-1.57 1.56v5.23a1.41 1.41 0 0 0 1.56 1.58c.9.02 1.8 0 2.7 0Zm16.67-4.18v-2.71a1.37 1.37 0 0 0-1.47-1.47h-5.41a1.36 1.36 0 0 0-1.48 1.47v5.4a1.37 1.37 0 0 0 1.47 1.48h5.41a1.37 1.37 0 0 0 1.48-1.47c.02-.9 0-1.8 0-2.7Zm12.56 0v-2.62a1.41 1.41 0 0 0-1.55-1.58h-5.23a1.4 1.4 0 0 0-1.58 1.55v5.24a1.41 1.41 0 0 0 1.55 1.58h5.23a1.41 1.41 0 0 0 1.58-1.56c.01-.86 0-1.73 0-2.6v-.01ZM41.876 11.17h-18.87c-1.61 0-2-.41-2-2V1.75c0-1.26.43-1.75 1.68-1.75h38.38c1.25 0 1.74.49 1.74 1.74v7.68c0 1.25-.49 1.74-1.74 1.74l-19.19.01Zm-.001 66.99h39.77c1.72 0 2.09.37 2.1 2.09v2a1.41 1.41 0 0 1-1.48 1.48H2.195c-1.84.01-2.19-.33-2.19-2.17v-2a1.37 1.37 0 0 1 1.4-1.4h40.47Zm-25.18-2.83H2.855V39.15h13.84v36.18Zm-2.69-29.19v-2.79a1.358 1.358 0 0 0-1.47-1.47h-5.41a1.35 1.35 0 0 0-1.52 1.47v5.41a1.36 1.36 0 0 0 1.47 1.48h5.41a1.37 1.37 0 0 0 1.52-1.48v-2.62Zm-4.17 15.27h2.61a1.42 1.42 0 0 0 1.56-1.54v-5.32a1.38 1.38 0 0 0-1.57-1.55h-5.32a1.38 1.38 0 0 0-1.51 1.57v5.32a1.38 1.38 0 0 0 1.52 1.51c.88.03 1.81.01 2.71.01Zm0 2.79h-2.79a1.36 1.36 0 0 0-1.44 1.47v5.41a1.37 1.37 0 0 0 1.46 1.49h5.41a1.36 1.36 0 0 0 1.53-1.47v-5.4a1.39 1.39 0 0 0-1.55-1.49c-.89-.02-1.73-.01-2.58-.01h-.04Zm57.22-25.08h13.85V75.3h-13.85V39.12Zm6.95 2.75h-2.71a1.36 1.36 0 0 0-1.48 1.46v5.41a1.371 1.371 0 0 0 1.46 1.49h5.41a1.37 1.37 0 0 0 1.48-1.47v-5.41a1.39 1.39 0 0 0-1.55-1.49l-2.61.01Zm4.17 15.37v-2.53c0-1.15-.5-1.66-1.63-1.67h-5.08c-1.18 0-1.67.51-1.68 1.72v4.88c0 1.27.49 1.76 1.72 1.77h4.89c1.26 0 1.75-.49 1.76-1.72.01-.82 0-1.63 0-2.45h.02Zm-4.17 6.96h-2.7a1.36 1.36 0 0 0-1.48 1.47v5.4a1.37 1.37 0 0 0 1.47 1.49h5.4a1.37 1.37 0 0 0 1.48-1.47v-5.41a1.38 1.38 0 0 0-1.47-1.48c-.92-.02-1.83 0-2.7 0Zm-32.13-44.66h-23.11c-1.6 0-2-.4-2-2v-2.18a1.38 1.38 0 0 1 1.39-1.36h46.74c1.73 0 2.1.37 2.1 2.09v2.09a1.37 1.37 0 0 1-1.38 1.39h-.79l-22.95-.03Z" fill="#FFCA18"/><path d="M40.435 75.32h-9.66V55.88h9.66v19.44Zm12.57.01h-9.69V55.9h9.69v19.43Zm-36.29-44.62v5.58H1.905c-1.44 0-1.9-.45-1.9-1.86v-2.26a1.33 1.33 0 0 1 1.31-1.45c5.13-.02 10.23-.01 15.4-.01Zm50.291 5.57v-5.57h14.83c1.42 0 1.87.44 1.88 1.87v2.26a1.33 1.33 0 0 1-1.34 1.43c-5.08.02-10.18.01-15.37.01Zm-39 16.72v-2.71h27.8V53h-27.8Zm2.65-22.31h-2.65V28h2.66l-.01 2.69Zm9.899-2.76h2.65v2.72h-2.65v-2.72Zm12.55.07h2.68v2.68h-2.68V28ZM30.676 41.84h-2.67v-2.71h2.7l-.03 2.71Zm12.559-2.71v2.68h-2.7v-2.68h2.7Zm12.581.02v2.65h-2.72v-2.65h2.72ZM8.415 47.38v-2.66h2.72v2.66h-2.72Zm2.72 8.5v2.67h-2.69v-2.67h2.69Zm0 11.12v2.68h-2.69V67h2.69Zm61.51-22.32h2.66v2.71h-2.66v-2.71Zm-.009 11.19h2.69v2.68h-2.69v-2.68Zm2.679 13.9h-2.67v-2.71h2.67v2.71Z" fill="#FFCA18"/></svg>