<svg width="84" height="84" fill="none" xmlns="http://www.w3.org/2000/svg"><path d="M11.198 72.534v-34.23a1.47 1.47 0 0 1 .67-1.36c9.807-7.147 19.61-14.31 29.41-21.49l.6-.42c.19.12.39.23.57.36 9.847 7.2 19.697 14.403 29.55 21.61a1.46 1.46 0 0 1 .59 1v34.49l-61.39.04Zm27.8-20.87c0 .66-.06 1.24-.11 1.81l-1.16 14.53a1.45 1.45 0 0 0 1 1.73 1.42 1.42 0 0 0 1.74-.8c5.48-8.667 10.967-17.36 16.46-26.08.79-1.24.15-2.32-1.34-2.33h-11.97c-1.13 0-1.72.49-1.72 1.39 0 .9.59 1.4 1.72 1.4h9.7l-12.15 19.21a1.27 1.27 0 0 1-.17-.72c.28-3.65.57-7.3.85-10.95.11-1.44-.39-2-1.83-2h-8.7c-.24 0-.48 0-.81-.06l12.12-19.16c.11.62.13 1.253.06 1.88-.11 1.57-.25 3.13-.34 4.7a1.311 1.311 0 0 0 1.24 1.5 1.331 1.331 0 0 0 1.5-1.24c.03-.142.05-.286.06-.43.314-4 .62-7.97.92-11.91a1.43 1.43 0 0 0-1-1.71 1.46 1.46 0 0 0-1.72.85c-5.473 8.666-10.94 17.333-16.4 26a2.29 2.29 0 0 0-.18 1.61c.18.66.85.77 1.51.77h10.72v.01Z" fill="#FFCA18"/><path d="m41.899 11.544-12.07 8.82-22.93 16.76c-1.24.91-1.85.81-2.73-.43a893.44 893.44 0 0 1-3.64-5.11c-.8-1.13-.71-1.77.39-2.55L40.749.544c1-.73 1.28-.72 2.33 0l39.75 28.46c1.14.82 1.24 1.45.41 2.62-1.24 1.7-2.42 3.38-3.64 5.1-.85 1.2-1.48 1.3-2.67.43l-34.18-25-.85-.61Zm-.01 63.84h34.25c1.65 0 2 .39 2 2.06v4.62c0 1.19-.5 1.69-1.71 1.69H7.309c-1.24 0-1.72-.49-1.72-1.76v-4.79c0-1.36.46-1.82 1.84-1.82h34.46Zm30.699-57.15-4.17-3c-4-2.84-7.97-5.673-11.91-8.5a1.33 1.33 0 0 1-.68-1.27c.05-1.28 0-2.56 0-3.84 0-1.1.5-1.6 1.6-1.6 4.514-.013 9.037-.02 13.57-.02 1 0 1.58.55 1.59 1.55.01 5.45 0 10.98 0 16.68Z" fill="#FFCA18"/></svg>