<svg width="62" height="84" fill="none" xmlns="http://www.w3.org/2000/svg"><path d="M30.69 83.8A31 31 0 0 1 .32 57.89c-.94-5.78.28-11.13 2.54-16.37a123.004 123.004 0 0 1 12.8-22.23C20.07 13.05 24.74 7 29.32.89 30.19-.27 31.1-.29 32 .79a236.696 236.696 0 0 1 22.18 32 65.559 65.559 0 0 1 6.32 14.45c1.88 6.79.77 13.31-2.36 19.43-5 9.72-13 15.31-23.8 16.86-1.2.18-2.43.19-3.65.27Zm-2.94-30.75c-.05.74-.08 1.37-.13 2L26.5 69.39a1.44 1.44 0 0 0 2.71.93c5.48-8.666 10.966-17.363 16.46-26.09.78-1.24.15-2.33-1.34-2.34H32.39c-1.12 0-1.72.51-1.71 1.41.01.9.6 1.38 1.73 1.38h9.69C38 51.19 34 57.56 30 63.92a1.73 1.73 0 0 1-.2-.92c.28-3.53.55-7.06.83-10.6.14-1.68-.3-2.17-2-2.17h-9.35L31.4 31a5.25 5.25 0 0 1 .09 1.7c-.11 1.56-.23 3.13-.35 4.69a1.391 1.391 0 1 0 2.75.28c.35-4.11.65-8.23 1-12.34a1.4 1.4 0 0 0-2.64-.82l-.28.44-6.7 10.55-9.4 14.88-.14.22a1.52 1.52 0 0 0-.22 1.71 1.58 1.58 0 0 0 1.56.74h10.68Z" fill="#FFCA18"/></svg>