<svg width="84" height="62" fill="none" xmlns="http://www.w3.org/2000/svg"><path d="M83 14.005H57.84c-1.6 0-2 .4-2 2v12.79c0 1.48.44 1.91 1.93 1.91h9.07a2.07 2.07 0 0 1 1.67.67c1.79 1.86 3.65 3.63 5.49 5.51a2.55 2.55 0 0 0 2 .82h7.71c.034.148.058.299.07.45v10.73a4.16 4.16 0 0 1-3.5 4.12 5.076 5.076 0 0 1-.68 0 12.65 12.65 0 1 0-25.16 0H29.29a12.6 12.6 0 0 0-4.52-11 12.14 12.14 0 0 0-8.77-2.9 12.71 12.71 0 0 0-11.81 13.9 4.06 4.06 0 0 1-3.12-1.4A4 4 0 0 1 0 48.845V9.775a4.17 4.17 0 0 1 4.5-4.18h55.73c3.76 0 7.51-.11 11.26 0 5.19.2 8.91 2.79 11.17 7.47.131.307.245.62.34.94Zm-63.46 0H7.42c-1.37 0-1.83.46-1.83 1.83v13.08c0 1.37.46 1.83 1.83 1.83h24.25c1.36 0 1.83-.46 1.83-1.83v-13.12c0-1.37-.5-1.79-1.83-1.79H19.54ZM53 30.795v-14.91c0-1.49-.43-1.92-1.92-1.92H38.21c-1.48 0-1.92.43-1.92 1.92v29.65c0 1.49.44 1.92 1.92 1.92h12.91c1.48 0 1.88-.45 1.88-1.92v-14.74Z" fill="#FFCA18"/><path d="M16.76 61.405a9.77 9.77 0 1 1 9.76-9.67 9.78 9.78 0 0 1-9.76 9.67Zm4.17-9.76a4.18 4.18 0 1 0-4.13 4.18 4.19 4.19 0 0 0 4.13-4.18Zm55.84-.02a9.77 9.77 0 1 1-9.86-9.75 9.78 9.78 0 0 1 9.86 9.75Zm-5.59 0a4.18 4.18 0 1 0-4.18 4.2 4.19 4.19 0 0 0 4.18-4.16v-.04Zm-1.39-34.84h13.87v18.11c-1.85 0-3.74-.1-5.61 0a4.001 4.001 0 0 1-3.61-1.51c-1.32-1.5-2.81-2.85-4.22-4.28a1.22 1.22 0 0 1-.41-.71c-.02-3.81-.02-7.67-.02-11.61Zm-2.85 11.1h-8.27v-11.06h8.27v11.06ZM6 2.745A3.93 3.93 0 0 1 9.82.005h24.94a3.92 3.92 0 0 1 3.94 2.74H6Zm2.41 25.11v-11h9.67v11H8.41Zm22.26-11.04v11.06H21v-11.06h9.67Zm19.52 27.81H39.13v-27.8h11.06v27.8Z" fill="#FFCA18"/><path d="M18.14 51.685a1.39 1.39 0 1 1-1.33-1.43 1.4 1.4 0 0 1 1.33 1.43ZM67 50.255a1.389 1.389 0 1 1 0 2.75 1.42 1.42 0 0 1-1.34-1.42 1.39 1.39 0 0 1 1.34-1.33Z" fill="#FFCA18"/></svg>