<svg width="84" height="83" fill="none" xmlns="http://www.w3.org/2000/svg"><path d="M80.907 75.35a11.241 11.241 0 1 0-22.33 0h-22.28a11.401 11.401 0 0 0-11.51-12.57 11.4 11.4 0 0 0-10.78 12.56h-1.38a1.362 1.362 0 0 1-1.42-1.44c0-4.16-.1-8.31 0-12.47a7.34 7.34 0 0 1 7.39-7h52.31a12.551 12.551 0 0 1 12.82 12.77v6.1c0 1.66-.41 2.06-2.06 2l-.76.05Zm-32-12.56h-2.78a1.311 1.311 0 0 0-1.46 1.36 1.328 1.328 0 0 0 1.43 1.41h5.48a1.331 1.331 0 0 0 1.43-1.36 1.36 1.36 0 0 0-1.52-1.41h-2.58ZM37.647 2.8v22.26a5.59 5.59 0 0 1-.69.05 70.477 70.477 0 0 1-7.56-.19 6.67 6.67 0 0 1-5.65-6.57c0-2.93-.06-5.86 0-8.8a6.92 6.92 0 0 1 6.76-6.74c2.35-.05 4.7-.01 7.14-.01Zm2.79 34.87v13.91h-21.67c.11-.27.19-.51.31-.74 1.6-3.207 3.206-6.42 4.82-9.64.295-.595.629-1.17 1-1.72a3.94 3.94 0 0 1 3.53-1.83c3.69.05 7.38 0 11.06 0l.95.02Zm2.88.01h12.61a3.13 3.13 0 0 1 2.51 1.38c.502.626.947 1.296 1.33 2 1.69 3.31 3.33 6.63 5 9.95.08.15.14.31.23.53h-21.68V37.68ZM48.837 14v12c0 1.48-.44 1.91-1.92 1.92-1.48.01-3.14 0-4.71 0-1.25 0-1.73-.5-1.74-1.75V1.74c.01-1.25.54-1.74 1.75-1.74h4.88c1.25 0 1.74.48 1.74 1.74.01 4.11 0 8.2 0 12.26Z" fill="#FFCA18"/><path d="M16.747 73.92a8.38 8.38 0 1 1 8.35 8.4 8.42 8.42 0 0 1-8.35-8.4Zm53.07-8.34a8.37 8.37 0 1 1-8.42 8.32 8.41 8.41 0 0 1 8.42-8.32Zm-61.48.03v2.64a7 7 0 0 1-8.33-6.48V19.83a6.94 6.94 0 0 1 6.1-7.2 34.99 34.99 0 0 1 4.1-.07h5.1v2.79h-7.07c-.695-.027-1.39.006-2.08.1a4 4 0 0 0-3.35 4v5.58c0 11.83.07 23.66 0 35.49 0 3.58 2.31 5.39 5.06 5.06.157 0 .314.01.47.03Zm12.54-46.08h-1.35a1.348 1.348 0 0 1-1.37-1.4V9.78a1.33 1.33 0 0 1 1.45-1.4h1.27v11.15Zm30.79-11.16V5.6h7.14a1.27 1.27 0 0 1 1.2 1.4 1.28 1.28 0 0 1-1.33 1.32c-2.3.07-4.62.05-7.01.05Zm0 13.96v-2.8h6.77c1 0 1.55.52 1.56 1.36a1.358 1.358 0 0 1-1.52 1.42c-2.24.03-4.47.02-6.81.02Z" fill="#FFCA18"/></svg>