<svg width="84" height="84" fill="none" xmlns="http://www.w3.org/2000/svg"><path d="M61.46 31.968a19.59 19.59 0 0 0-39.18 0c-2 0-3.93.05-5.9 0a1.53 1.53 0 0 1-1-1c-.54-2.61-2.27-4.25-4.33-5.66-.19-.14-.47-.22-.56-.4a3.409 3.409 0 0 1-.58-1.51c0-.65.6-1 1.29-1.06 1-.1 2.09-.18 3.11-.36a6.5 6.5 0 0 0 5.31-8.35 20.644 20.644 0 0 0-1.18-3 1.48 1.48 0 0 1 .18-1.84 1.52 1.52 0 0 1 1.85-.16c1.142.532 2.33.957 3.55 1.27a6.45 6.45 0 0 0 7.73-5.37c.18-1 .27-2 .35-3a1.48 1.48 0 0 1 1-1.47 1.42 1.42 0 0 1 1.64.67 25.2 25.2 0 0 0 2.28 2.76 6.748 6.748 0 0 0 9.82 0c.731-.783 1.4-1.622 2-2.51.45-.62.92-1.16 1.78-.92.86.24 1 .9 1.07 1.69.063 1.083.21 2.16.44 3.22a6.468 6.468 0 0 0 8.17 4.8 23.563 23.563 0 0 0 3.07-1.21 1.44 1.44 0 0 1 2 2c-.476.993-.88 2.02-1.21 3.07a6.508 6.508 0 0 0 5.28 8.34c1 .17 2 .27 3 .35a1.42 1.42 0 0 1 .78 2.65c-1 .73-2 1.47-2.84 2.29a6.17 6.17 0 0 0-1.83 3.3c-.24 1.1-.63 1.43-1.74 1.44-1.79-.03-3.53-.03-5.35-.03Z" fill="#FFCA18"/><path d="M25.22 31.888a16.69 16.69 0 0 1 33.37 0H25.22Zm16.68 51.83H29.79c-1.42 0-1.86-.44-1.87-1.87v-4.8c0-1.2.5-1.7 1.7-1.7H54.1c1.25 0 1.73.49 1.73 1.75v4.88c0 1.25-.48 1.74-1.73 1.74H41.9Zm29.66-16.75c-.78-3.25-1.54-6.45-2.32-9.72.31 0 .56-.05.81-.05h10.18c.58 0 .87.13 1.06.72.72 2.29 1.51 4.57 2.26 6.85.47 1.39-.1 2.2-1.53 2.2H71.56Zm-57.04-9.77-2.33 9.77H1.35a1.33 1.33 0 0 1-1.26-1.81c.81-2.51 1.65-5 2.51-7.51a.74.74 0 0 1 .51-.43c3.78-.03 7.55-.02 11.41-.02Zm28.79 9.77v-9.73h10.33c.3 3.2.61 6.41.92 9.68l-11.25.05Zm-2.87-9.72v9.65H29.2l.92-9.65h10.32Zm28.24 9.72H57.37c-.31-3.21-.61-6.41-.93-9.69.3 0 .54-.05.79-.05h8.28c.61 0 .9.11 1.05.79.66 2.95 1.39 5.88 2.12 8.95Zm-53.6 0c.75-3.16 1.48-6.24 2.23-9.3 0-.17.28-.41.43-.41h9.57l-.92 9.71H15.08Zm48.94-32.11h6.5c3.28 0 3-.34 4 2.88.74 2.25 1.5 4.5 2.28 6.83-.32 0-.56.06-.8.06h-9c-.65 0-.88-.19-1-.82-.62-2.77-1.31-5.53-2-8.29.02-.18.02-.38.02-.66Zm-44.19 0c-.66 2.79-1.29 5.47-1.93 8.15-.39 1.63-.4 1.62-2.11 1.62H7.02c.07-.27.1-.48.17-.69.83-2.59 1.68-5.17 2.55-7.76.36-1.09.69-1.32 1.84-1.32h8.25Zm11.49 9.71.92-9.6h8.17v9.6h-9.09Zm20.2-9.6c.3 3.22.6 6.42.91 9.67h-9.09v-9.67h8.18Zm15.39 12.48h10.87l2.31 6.92H68.56l-1.65-6.92Zm-51.72 6.93H3.68l2.34-6.92h10.81l-1.64 6.92Zm7.52-19.49h6.72l-.91 9.69H20.4l2.31-9.69Zm40.65 9.71h-8.12c-.3-3.2-.61-6.42-.92-9.69h6.7l2.34 9.69Zm-22.95 9.76h-10l.66-6.9h9.36l-.02 6.9Zm12.3-6.87.66 6.87h-10v-6.87h9.34Zm-34.64 6.87 1.64-6.89h8.53l-.66 6.89h-9.51Zm38.1.01-.66-6.87h8.51l1.63 6.87h-9.48Zm-21.23 18.12v-2.69h13.87v2.69H34.94Z" fill="#FFCA18"/></svg>