<svg width="78" height="84" fill="none" xmlns="http://www.w3.org/2000/svg"><path d="M34.138 53.12c-.32.2-.51.31-.69.44a82.91 82.91 0 0 1-31.45 14.02A1.5 1.5 0 0 1 .208 67c-.44-.72-.12-1.32.38-1.88a87.37 87.37 0 0 1 12.91-11.59 72.17 72.17 0 0 1 17.57-9.67l.84-.3a7.179 7.179 0 0 0 2.57 6.44 6.69 6.69 0 0 0 4.68 1.57 6.818 6.818 0 0 0 5.07-2.52 7.35 7.35 0 0 0 1.57-5.66c2.26 1 4.39 1.81 6.44 2.82A84.172 84.172 0 0 1 77.068 65c.55.59 1 1.22.46 2s-1.15.73-1.93.55a82.758 82.758 0 0 1-31.26-14c-.2-.14-.42-.27-.74-.47.39 3.07.75 6 1.12 8.93.78 6.29 1.51 12.58 2.38 18.85.32 2.27 0 2.9-2.61 2.84-4-.08-8.08 0-12.12 0-1.5 0-2-.6-1.81-2 .92-7.333 1.837-14.666 2.75-22 .26-2.14.54-4.29.83-6.58Zm9.26-13.8c-3.11-2.17-6-2.16-8.95-.07-.21-1.4-.46-2.7-.6-4a83.491 83.491 0 0 1 3.47-33.65c0-.16.12-.33.17-.49A1.39 1.39 0 0 1 38.868 0a1.36 1.36 0 0 1 1.38 1.12c.59 2.06 1.23 4.11 1.73 6.2A82.417 82.417 0 0 1 44.238 31c-.15 2.71-.54 5.41-.84 8.32Zm31.94 5.27c-.3 2.39-.57 4.78-.89 7.16a1.35 1.35 0 0 1-1.67 1.33c-.88-.18-1.27-.81-1.07-1.86.65-3.132.821-6.345.51-9.53-1.24-11.506-6.836-20.216-16.79-26.13a48.81 48.81 0 0 0-5.69-2.56c-1.05-.45-1.45-1-1.13-1.89.32-.89 1.07-1.11 2.1-.72 13.727 5.214 21.77 15.084 24.13 29.61.14.92.21 1.85.27 2.78v1.83l.23-.02Zm-72.79-.02a36.41 36.41 0 0 1 24.56-34.25c1.13-.38 2 0 2.14 1 .14 1-.38 1.33-1.16 1.59a31.511 31.511 0 0 0-8.93 4.64c-9.52 7.27-14.09 16.9-13.73 28.83a41.84 41.84 0 0 0 .57 4.84c.16 1.15-.42 1.9-1.47 1.83-.82 0-1.16-.57-1.28-1.29-.18-1.12-.39-2.24-.5-3.36-.11-1.12-.13-2.55-.2-3.83Z" fill="#FFCA18"/><path d="M10.998 44.4c.48-10.84 5.28-19.09 14.84-24.4.62-.35 1.31-.56 1.85 0a1.671 1.671 0 0 1 .49 1.35 2.43 2.43 0 0 1-1.13 1.18 25 25 0 0 0-10 9.72 24.67 24.67 0 0 0-3.31 13.16c0 1.49-.34 2.07-1.32 2.1-.98.03-1.42-.63-1.42-2.15v-.96Zm53 .2c-.39-9.79-4.68-17.24-13.26-22.11l-.39-.2a1.38 1.38 0 0 1-.66-1.91 1.309 1.309 0 0 1 1.93-.54 39.398 39.398 0 0 1 5 3.3 27.51 27.51 0 0 1 10.14 22.68c0 1.2-.62 1.78-1.63 1.64a1.19 1.19 0 0 1-1.13-1.21V44.6Zm-20.94.07a4.19 4.19 0 1 1-4.12-4.21 4.18 4.18 0 0 1 4.12 4.21ZM25.678 76c0 1.32-.91 2.06-1.86 1.65a33.91 33.91 0 0 1-9-5.86 1.371 1.371 0 0 1 1.81-2.06 38.814 38.814 0 0 0 8.37 5.44c.33.17.55.65.68.83Zm37.87-5.28c-.184.409-.42.792-.7 1.14a35.237 35.237 0 0 1-8.78 5.73 1.391 1.391 0 1 1-1.22-2.49 38.236 38.236 0 0 0 8.23-5.32 1.82 1.82 0 0 1 1.5-.19c.42.14.63.71.97 1.13Zm-39.03-5.15c.93 0 2.3 1.08 2.33 1.86a1.4 1.4 0 0 1-1.36 1.48c-1 0-2.33-1.12-2.33-2a1.37 1.37 0 0 1 1.36-1.34ZM54.588 67c0 1.07-1.89 2.28-2.85 1.82a1.39 1.39 0 0 1-.8-1.66 2.93 2.93 0 0 1 2.49-1.56 1.36 1.36 0 0 1 1.16 1.4Z" fill="#FFCA18"/></svg>