<svg width="84" height="84" fill="none" xmlns="http://www.w3.org/2000/svg"><path d="M9.657 30.727h39.2c0 .33.07.64.08 1a170.478 170.478 0 0 0 3.78 28.58 203.015 203.015 0 0 0 5.67 21.26c.45 1.36-.13 2.15-1.58 2.15H1.717c-1.45 0-2-.78-1.58-2.14a208.94 208.94 0 0 0 7.62-31.79 149.588 149.588 0 0 0 1.82-17.93c.01-.37.05-.74.08-1.13Zm8.55 25.08h1.29a1.39 1.39 0 1 0 0-2.78h-2.35c-1.4 0-1.91.51-1.83 1.91a13.72 13.72 0 0 0 6.54 11.29c1.19.76 1.85.58 2.56-.64 1-1.74 2-3.48 3-5.2a1.062 1.062 0 0 1 .75-.5c3.12.31 5-.76 6.31-3.61a.829.829 0 0 1 .51-.44h5.29a11 11 0 0 1-4.29 7.44c-.27-.44-.48-.81-.72-1.17a1.32 1.32 0 0 0-1.87-.52 1.342 1.342 0 0 0-.51 2c.41.76.84 1.52 1.3 2.26a1.42 1.42 0 0 0 2.28.52 13.73 13.73 0 0 0 6.72-11.44c.08-1.4-.43-1.9-1.82-1.91h-6.1a.73.73 0 0 1-.82-.56 5.49 5.49 0 0 0-6.19-3.53.83.83 0 0 1-.69-.28c-.88-1.46-1.72-2.95-2.62-4.51a10.9 10.9 0 0 1 8.62 0c-.25.44-.46.78-.64 1.14a1.37 1.37 0 0 0 .49 2 1.34 1.34 0 0 0 1.93-.59c.44-.71.86-1.44 1.26-2.18a1.44 1.44 0 0 0-.68-2.3 13.7 13.7 0 0 0-13.2 0c-1.26.64-1.43 1.29-.72 2.53 1 1.74 2 3.46 3 5.21a1.08 1.08 0 0 1 0 1c-1.75 2.46-1.75 4.67.05 7.22a.8.8 0 0 1 .12.67c-.84 1.52-1.71 3-2.63 4.59a11.1 11.1 0 0 1-4.34-7.62Zm42.89 27.84c.62-1.56-.07-3-.52-4.38a203.074 203.074 0 0 1-7.65-34.19 3.649 3.649 0 0 1 0-.38h23.86c.19 2.23.36 4.43.57 6.62a155.07 155.07 0 0 0 4.79 25.69c.44 1.6.94 3.18 1.4 4.76a1.41 1.41 0 0 1-1.44 2h-20.67a3.116 3.116 0 0 1-.34-.12Zm-51.37-55.8v-6.93a1.35 1.35 0 0 1 1.39-1.38h35.61c1.61 0 2 .39 2 2v6.32l-39-.01Zm66.97 13.97h-24.2l-.72-8.33h22.95c1.55 0 2 .41 2 2l-.03 6.33Zm-55.929-28.14c.084-1.063.241-2.119.47-3.16a6.49 6.49 0 0 1 4.52-4.57 1.44 1.44 0 0 0 1.08-1.12 6.94 6.94 0 0 1 6.15-4.82c1.17-.07 1.83.39 1.87 1.31.04.92-.5 1.38-1.64 1.47a4.14 4.14 0 0 0-3.93 3.94c-.09 1.2-.44 1.54-1.68 1.64a4.14 4.14 0 0 0-3.9 4.05v2.53c0 1.19-.48 1.79-1.41 1.78-.93-.01-1.37-.61-1.38-1.82v-1.21l-.15-.02Zm33.609 13.66a7.238 7.238 0 0 1 1.61-5.33 6.49 6.49 0 0 1 3.38-2.19 1.13 1.13 0 0 0 .89-.89 6.92 6.92 0 0 1 6.42-5c1 0 1.58.46 1.62 1.3.04.84-.5 1.42-1.54 1.49a4.13 4.13 0 0 0-4 4c-.08 1.08-.48 1.49-1.57 1.57a4.13 4.13 0 0 0-4 4.3v2.61a1.331 1.331 0 0 1-1.39 1.45 1.36 1.36 0 0 1-1.39-1.46c-.05-.52-.03-1.07-.03-1.85Zm11.16 1.01c0-3 1.67-4.63 4.64-4.63h2.26a1.35 1.35 0 0 0 1.46-1.3c.18-1.08.79-1.62 1.65-1.47a1.52 1.52 0 0 1 1.13 1.88 4.23 4.23 0 0 1-4 3.68h-2.88a1.332 1.332 0 0 0-1.47 1.5v1.39a1.32 1.32 0 0 1-1.42 1.33 1.3 1.3 0 0 1-1.35-1.3c-.04-.42-.02-.73-.02-1.08Zm-24.92-15.79h-1.57a1.319 1.319 0 0 0-1.42 1.45v1.4a1.32 1.32 0 0 1-1.37 1.38 1.3 1.3 0 0 1-1.4-1.34c-.06-.753-.04-1.51.06-2.26a4.16 4.16 0 0 1 4.07-3.42h2.71a1.36 1.36 0 0 0 1.51-1.34c.16-1 .77-1.56 1.6-1.44a1.5 1.5 0 0 1 1.18 1.84 4.22 4.22 0 0 1-4 3.72h-1.4l.03.01Z" fill="#FFCA18"/><path d="M29.287 51.627a2.79 2.79 0 1 1-2.81 2.71 2.8 2.8 0 0 1 2.81-2.71Z" fill="#FFCA18"/></svg>