<svg width="280" height="293" fill="none" xmlns="http://www.w3.org/2000/svg"><path d="M276.522 187.962l-21.532-18.954c1.595-7.108 2.393-14.216 2.393-22.113 0-7.108-.798-15.006-2.393-22.113l21.532-18.955c3.19-3.159 3.988-8.687 1.595-11.846l-27.114-44.226c-2.392-3.95-7.177-5.529-11.962-3.95l-27.912 10.268c-9.57-7.108-19.937-13.426-31.102-17.375l-5.582-30.01C173.647 3.947 169.66 0 164.875 0h-49.444v.79c-7.975 0-9.57 4.738-10.367 7.897l-5.583 29.221c-11.164 3.949-22.33 10.267-31.101 17.375L40.468 45.016c-3.988-1.58-9.57 0-11.963 3.949L1.392 93.191c-2.392 3.95-1.595 9.477 1.595 11.847l21.532 18.954c-1.595 7.108-2.393 14.216-2.393 22.113 0 7.898.798 15.005 2.393 22.113L2.986 187.173c-3.19 3.159-3.987 8.687-1.595 12.636l27.114 44.226c2.393 3.949 7.975 5.528 11.963 3.949l27.912-10.267c9.57 7.108 19.937 12.636 31.101 17.375l5.583 29.221c.797 4.738 4.785 8.687 9.569 8.687h51.837c4.785 0 8.772-3.949 9.57-8.687l5.582-29.221c11.165-3.949 21.532-10.267 31.102-17.375l27.912 10.267c3.987 1.579 9.57 0 11.962-3.949l27.114-44.226c.798-3.949 0-9.478-3.19-11.847zm-137.167 33.96c-37.481 0-68.583-24.483-68.583-62.391 0-36.329 63.001-105.038 65.394-108.197 1.595-1.58 5.582-1.58 7.177 0 2.392 3.16 65.393 71.868 65.393 108.197-.797 37.119-31.101 62.391-69.381 62.391z" fill="#E7ECEF"/><path fill-rule="evenodd" clip-rule="evenodd" d="M138.558 187.37c17.869 0 32.896-14.882 32.896-32.578h21.931c0 29.691-24.846 54.296-54.827 54.296V187.37z" fill="#E7ECEF"/></svg>