<svg width="131" height="574" fill="none" xmlns="http://www.w3.org/2000/svg"><path d="M122.051 471.385l-39.034 26.844c-3.998-11.804-17.898-26.463-37.89-26.463-12.187 0-23.04 3.998-29.894 11.042-7.998 7.996-12.186 17.134-12.186 37.885v47.976c0 4.379 2.094 5.331 5.521 5.331h114.054c4.379 0 5.522-1.904 5.522-5.331v-18.847c0-3.427-1.143-5.521-5.522-5.521H29.704V518.98c0-9.9 6.283-17.515 16.184-17.515 8.95 0 15.423 8.758 15.423 18.086v3.808c0 4.379 2.095 5.521 5.522 5.521h15.232c5.332 0 7.426-.381 9.711-2.094l30.656-20.561c3.998-2.666 5.712-4.95 5.712-9.519v-22.465c0-3.618-3.427-4.569-6.093-2.856zM43.032 348.777C12.948 348.777 0 377.334 0 399.989c0 22.656 12.948 50.832 43.032 50.832h44.936c30.084 0 43.032-28.176 43.032-50.832 0-22.655-12.948-51.212-43.032-51.212H43.032zm42.27 29.89c12.186 0 19.231 8.757 19.231 21.322 0 12.375-7.045 21.133-19.23 21.133H45.697c-12.186 0-19.231-8.758-19.231-21.133 0-12.565 7.045-21.322 19.23-21.322h39.605zM63.977 265.099L8.187 230.83c-2.094-1.332-5.33-.38-5.33 2.856v22.275c0 3.807 1.522 5.14 5.52 7.805l30.656 18.848-30.655 19.038c-3.999 2.475-5.522 3.998-5.522 7.615v22.465c0 3.236 3.237 3.998 5.331 2.856l55.79-34.459 58.264 33.888c2.285 1.523 5.903.571 5.903-2.285v-21.703c0-4.189-.381-5.902-5.331-8.377L88.92 282.614l33.893-18.848c4.95-2.665 5.331-4.188 5.331-8.377v-21.703c0-2.856-3.618-3.808-5.903-2.285l-58.264 33.698zM43.032 114.52C12.948 114.52 0 143.077 0 165.732c0 22.655 12.948 50.832 43.032 50.832h44.936c30.084 0 43.032-28.177 43.032-50.832s-12.948-51.212-43.032-51.212H43.032zm42.27 29.889c12.186 0 19.231 8.758 19.231 21.323 0 12.375-7.045 21.132-19.23 21.132H45.697c-12.186 0-19.231-8.757-19.231-21.132 0-12.565 7.045-21.323 19.23-21.323h39.605zM101.487 5.521v54.83H8.377c-4.378 0-5.52 2.094-5.52 5.52V84.72c0 3.427 1.142 5.521 5.52 5.521h114.245c3.427 0 5.522-1.142 5.522-5.52V5.52c0-4.379-2.095-5.521-5.522-5.521h-15.613c-3.428 0-5.522 1.142-5.522 5.521z" fill="#EBEFF3"/></svg>