<svg width="32" height="41" viewBox="0 0 32 41" fill="none" xmlns="http://www.w3.org/2000/svg">
<rect width="32" height="32" fill="#1B3529"/>
<path d="M11.1052 12H12.9431V19.1555H11.1052V18.1896H7.81725L9.66207 16.4392H11.1052V14.5384L6 19.3214V16.7969L11.1052 12Z" fill="white"/>
<path d="M14.9534 13.8749H13.4448V12H20.0345L18.0534 13.8749H16.9328V19.1555H14.9534V13.8749Z" fill="white"/>
<path d="M24.1759 13.728H20.4948V17.4345H22.4879C22.5742 17.4374 22.6594 17.4145 22.7327 17.3688C22.7997 17.327 22.8534 17.2671 22.8879 17.196C22.9255 17.1149 22.9444 17.0263 22.9431 16.9368C22.9461 16.8108 22.9032 16.6879 22.8224 16.5912C22.78 16.5452 22.7282 16.5089 22.6704 16.4851C22.6126 16.4612 22.5503 16.4503 22.4879 16.453H20.8914V14.7198H22.8482C23.1061 14.7171 23.3615 14.7708 23.5965 14.8771C23.8302 14.9798 24.0394 15.1312 24.2103 15.3212C24.3903 15.5223 24.5287 15.7572 24.6173 16.0124C24.7207 16.3022 24.7716 16.6083 24.7673 16.9161C24.7664 17.2038 24.7157 17.4891 24.6173 17.7593C24.5216 18.0191 24.3823 18.2605 24.2052 18.473C24.0377 18.6786 23.8307 18.8484 23.5965 18.9724C23.3689 19.0925 23.1158 19.1559 22.8586 19.1573H18.6689V13.728L20.4948 12H26L24.1759 13.728Z" fill="white"/>
<path d="M16 41L10 31L22 31L16 41Z" fill="#1B3529"/>
</svg>
