<svg width="67" height="67" fill="none" xmlns="http://www.w3.org/2000/svg"><path d="M31.556 1.09a4.131 4.131 0 0 1 1.976 3.535v9.356h11.565a4.168 4.168 0 0 1 4.028-3.119h11.436a6.24 6.24 0 0 1 6.237 6.238 6.24 6.24 0 0 1-6.237 6.237H49.125a4.168 4.168 0 0 1-4.028-3.119H33.532v9.357a4.13 4.13 0 0 1-1.976 3.534 4.148 4.148 0 0 1-4.041.182L2.565 20.816a4.142 4.142 0 0 1-2.3-3.716 4.14 4.14 0 0 1 2.3-3.717L27.515.908a4.146 4.146 0 0 1 4.041.182Zm6.134 32.643c0-2.3 1.858-4.158 4.158-4.158H62.64c2.3 0 4.158 1.858 4.158 4.158v8.317c0 2.3-1.858 4.158-4.158 4.158H41.848a4.154 4.154 0 0 1-4.158-4.158v-8.317ZM4.423 50.367h12.475c2.3 0 4.159 1.858 4.159 4.158v8.317c0 2.3-1.859 4.158-4.159 4.158H4.423a4.154 4.154 0 0 1-4.158-4.158v-8.317c0-2.3 1.858-4.158 4.158-4.158Zm24.95 0H62.64c2.3 0 4.158 1.858 4.158 4.158v8.317c0 2.3-1.858 4.158-4.158 4.158H29.373a4.154 4.154 0 0 1-4.158-4.158v-8.317c0-2.3 1.858-4.158 4.158-4.158Z" fill="#1B3529"/></svg>