<svg width="32" height="41" viewBox="0 0 32 41" fill="none" xmlns="http://www.w3.org/2000/svg">
<rect width="32" height="32" fill="#1B3529"/>
<g clip-path="url(#clip0_850_1620)">
<path d="M10.5455 6C9.05027 6 7.81818 7.23209 7.81818 8.72727V10.0909C7.81818 10.2115 7.77029 10.3271 7.68505 10.4123C7.5998 10.4976 7.48419 10.5455 7.36364 10.5455H6.90909C6.40704 10.5455 6.00005 10.9525 6 11.4545V15.0909C6.00005 15.593 6.40704 15.9999 6.90909 16H7.36364C7.48419 16 7.5998 16.0479 7.68505 16.1331C7.77029 16.2184 7.81818 16.334 7.81818 16.4545V24.1818C7.81818 25.1734 8.64482 26 9.63636 26C10.6279 26 11.4545 25.1734 11.4545 24.1818V23.7273C11.4545 23.6676 11.4663 23.6085 11.4891 23.5533C11.512 23.4982 11.5455 23.4481 11.5877 23.4059C11.6299 23.3637 11.68 23.3302 11.7351 23.3073C11.7903 23.2845 11.8494 23.2727 11.9091 23.2727H20.0909C20.1506 23.2727 20.2097 23.2845 20.2649 23.3073C20.32 23.3302 20.3701 23.3637 20.4123 23.4059C20.4545 23.4481 20.488 23.4982 20.5109 23.5533C20.5337 23.6085 20.5455 23.6676 20.5455 23.7273V24.1818C20.5455 25.1734 21.3721 26 22.3636 26C23.3552 26 24.1818 25.1734 24.1818 24.1818V16.4545C24.1818 16.334 24.2297 16.2184 24.315 16.1331C24.4002 16.0479 24.5158 16 24.6364 16H25.0909C25.593 15.9999 25.9999 15.593 26 15.0909V11.4545C25.9999 10.9525 25.593 10.5455 25.0909 10.5455H24.6364C24.5158 10.5455 24.4002 10.4976 24.315 10.4123C24.2297 10.3271 24.1818 10.2115 24.1818 10.0909V8.72727C24.1818 7.23209 22.9497 6 21.4545 6H10.5455ZM10.0909 10.5455H14.6364C14.8882 10.5455 15.0909 10.7482 15.0909 11V15.5455C15.0909 15.7973 14.8882 16 14.6364 16H10.0909C9.83909 16 9.63636 15.7973 9.63636 15.5455V11C9.63636 10.7482 9.83909 10.5455 10.0909 10.5455ZM17.3636 10.5455H21.9091C22.1609 10.5455 22.3636 10.7482 22.3636 11V15.5455C22.3636 15.7973 22.1609 16 21.9091 16H17.3636C17.1118 16 16.9091 15.7973 16.9091 15.5455V11C16.9091 10.7482 17.1118 10.5455 17.3636 10.5455ZM10.0909 17.8182H12.8182C13.07 17.8182 13.2727 18.0209 13.2727 18.2727V19.1818C13.2727 19.4336 13.07 19.6364 12.8182 19.6364H10.0909C9.83909 19.6364 9.63636 19.4336 9.63636 19.1818V18.2727C9.63636 18.0209 9.83909 17.8182 10.0909 17.8182ZM19.1818 17.8182H21.9091C22.1609 17.8182 22.3636 18.0209 22.3636 18.2727V19.1818C22.3636 19.4336 22.1609 19.6364 21.9091 19.6364H19.1818C18.93 19.6364 18.7273 19.4336 18.7273 19.1818V18.2727C18.7273 18.0209 18.93 17.8182 19.1818 17.8182Z" fill="white"/>
</g>
<path d="M16 41L10 31L22 31L16 41Z" fill="#1B3529"/>
<defs>
<clipPath id="clip0_850_1620">
<rect width="20" height="20" fill="white" transform="translate(6 6)"/>
</clipPath>
</defs>
</svg>
