<svg width="52" height="82" fill="none" xmlns="http://www.w3.org/2000/svg"><path fill="#fff" d="M.5.5h51v81H.5z"/><g clip-path="url(#a)" fill="#1B3529"><path d="M6 15.791V46h11.666V13.604L6 15.792Zm8.334 26.875h-5v-3.332h5v3.332Zm0-6.666h-5v-3.334h5V36Zm0-6.666h-5V26h5v3.334Zm0-6.668h-5v-3.332h5v3.332ZM21 6v40h25V10.687L21 6Zm10 36.666h-5v-3.332h5v3.332ZM31 36h-5v-3.334h5V36Zm0-6.666h-5V26h5v3.334Zm0-6.668h-5v-3.332h5v3.332ZM31 16h-5v-3.334h5V16Zm10 26.666h-5v-3.332h5v3.332ZM41 36h-5v-3.334h5V36Zm0-6.666h-5V26h5v3.334Zm0-6.668h-5v-3.332h5v3.332Z"/></g><path d="M12.975 60.13c-1.06 0-1.937-.35-2.63-1.05-.687-.7-1.03-1.56-1.03-2.58s.343-1.88 1.03-2.58c.693-.7 1.57-1.05 2.63-1.05.64 0 1.226.153 1.76.46.54.307.96.72 1.26 1.24l-.81.47c-.2-.387-.5-.693-.9-.92a2.52 2.52 0 0 0-1.31-.35c-.807 0-1.467.26-1.98.78-.507.52-.76 1.17-.76 1.95 0 .773.253 1.42.76 1.94.513.52 1.173.78 1.98.78.48 0 .916-.113 1.31-.34.4-.233.7-.54.9-.92l.81.46a3.31 3.31 0 0 1-1.25 1.25 3.52 3.52 0 0 1-1.77.46Zm4.573-2.23c.087.447.29.793.61 1.04.327.247.727.37 1.2.37.66 0 1.14-.243 1.44-.73l.74.42c-.486.753-1.22 1.13-2.2 1.13-.793 0-1.44-.247-1.94-.74-.493-.5-.74-1.13-.74-1.89 0-.753.244-1.38.73-1.88.487-.5 1.117-.75 1.89-.75.734 0 1.33.26 1.79.78.467.513.7 1.133.7 1.86 0 .127-.01.257-.03.39h-4.19Zm1.73-2.21c-.466 0-.853.133-1.16.4-.306.26-.496.61-.57 1.05h3.34c-.073-.473-.26-.833-.56-1.08-.3-.247-.65-.37-1.05-.37Zm5.98-.82c.587 0 1.057.187 1.41.56.354.367.53.867.53 1.5V60h-.87v-3.02c0-.407-.11-.72-.33-.94-.22-.227-.523-.34-.91-.34-.433 0-.783.137-1.05.41-.266.267-.4.68-.4 1.24V60h-.87v-5h.87v.72c.354-.567.894-.85 1.62-.85Zm5.875.97h-1.33v2.71c0 .247.047.423.14.53.1.1.25.153.45.16.2 0 .447-.007.74-.02V60c-.76.1-1.317.04-1.67-.18-.353-.227-.53-.65-.53-1.27v-2.71h-.99V55h.99v-1.14l.87-.26V55h1.33v.84Zm1.93 0c.286-.62.806-.93 1.56-.93v.91c-.427-.02-.794.093-1.1.34-.307.247-.46.643-.46 1.19V60h-.87v-5h.87v.84ZM39.34 55h.87v5h-.87v-.86c-.433.66-1.063.99-1.89.99-.7 0-1.297-.253-1.79-.76-.493-.513-.74-1.137-.74-1.87 0-.733.247-1.353.74-1.86a2.392 2.392 0 0 1 1.79-.77c.827 0 1.457.33 1.89.99V55Zm-1.78 4.29c.507 0 .93-.17 1.27-.51.34-.347.51-.773.51-1.28s-.17-.93-.51-1.27a1.707 1.707 0 0 0-1.27-.52c-.5 0-.92.173-1.26.52-.34.34-.51.763-.51 1.27s.17.933.51 1.28c.34.34.76.51 1.26.51Zm3.968.71v-7.3h.87V60h-.87Zm-22.596 7.87c.7 0 1.296.257 1.79.77.493.507.74 1.127.74 1.86 0 .733-.247 1.357-.74 1.87-.494.507-1.09.76-1.79.76-.827 0-1.457-.33-1.89-.99V75h-.87v-7h.87v.86c.433-.66 1.063-.99 1.89-.99Zm-.11 4.42c.5 0 .92-.17 1.26-.51.34-.347.51-.773.51-1.28s-.17-.93-.51-1.27c-.34-.347-.76-.52-1.26-.52-.507 0-.93.173-1.27.52-.34.34-.51.763-.51 1.27s.17.933.51 1.28c.34.34.763.51 1.27.51ZM26.64 68h.87v5h-.87v-.86c-.434.66-1.064.99-1.89.99-.7 0-1.297-.253-1.79-.76-.494-.513-.74-1.137-.74-1.87 0-.733.247-1.353.74-1.86a2.392 2.392 0 0 1 1.79-.77c.826 0 1.456.33 1.89.99V68Zm-1.78 4.29c.506 0 .93-.17 1.27-.51.34-.347.51-.773.51-1.28s-.17-.93-.51-1.27a1.707 1.707 0 0 0-1.27-.52c-.5 0-.92.173-1.26.52-.34.34-.51.763-.51 1.27s.17.933.51 1.28c.34.34.76.51 1.26.51Zm4.838-3.45c.287-.62.807-.93 1.56-.93v.91c-.427-.02-.793.093-1.1.34-.307.247-.46.643-.46 1.19V73h-.87v-5h.87v.84ZM36.339 73h-1.08l-2.28-2.37V73h-.87v-7h.87v4.21L35.14 68h1.12l-2.39 2.42L36.34 73Z" fill="#161616"/><path stroke="#1B3529" d="M.5.5h51v81H.5z"/><defs><clipPath id="a"><path fill="#fff" transform="translate(6 6)" d="M0 0h40v40H0z"/></clipPath></defs></svg>