<svg width="40" height="40" viewBox="0 0 40 40" fill="none" xmlns="http://www.w3.org/2000/svg">
<g clip-path="url(#clip0_670_1918)">
<path d="M0 9.7915V40H11.6665V7.604L0 9.7915ZM8.3335 36.6665H3.3335V33.3335H8.3335V36.6665ZM8.3335 30H3.3335V26.6665H8.3335V30ZM8.3335 23.3335H3.3335V20H8.3335V23.3335ZM8.3335 16.6665H3.3335V13.3335H8.3335V16.6665Z" fill="#1B3529"/>
<path d="M15 0V40H40V4.6875L15 0ZM25 36.6665H20V33.3335H25V36.6665ZM25 30H20V26.6665H25V30ZM25 23.3335H20V20H25V23.3335ZM25 16.6665H20V13.3335H25V16.6665ZM25 10H20V6.6665H25V10ZM35 36.6665H30V33.3335H35V36.6665ZM35 30H30V26.6665H35V30ZM35 23.3335H30V20H35V23.3335ZM35 16.6665H30V13.3335H35V16.6665Z" fill="#1B3529"/>
</g>
<defs>
<clipPath id="clip0_670_1918">
<rect width="40" height="40" fill="white"/>
</clipPath>
</defs>
</svg>
