<svg width="90" height="92" fill="none" xmlns="http://www.w3.org/2000/svg"><path fill="#CB9F3A" d="M0 0h90v73H0z"/><path d="M52.5 42.26c-1.66 0-3-1.68-3-3.76 0-2.06 1.34-3.74 3-3.74s3 1.68 3 3.74c0 2.08-1.34 3.76-3 3.76ZM45 26.5c-2.48 0-4.5-1.68-4.5-3.74 0-2.08 2.02-3.76 4.5-3.76s4.5 1.68 4.5 3.76c0 2.06-2.02 3.74-4.5 3.74Zm-7.5 15.76c-1.66 0-3-1.68-3-3.76 0-2.06 1.34-3.74 3-3.74s3 1.68 3 3.74c0 2.08-1.34 3.76-3 3.76ZM45 20.5c.82 0 1.5.68 1.5 1.5s-.68 1.5-1.5 1.5-1.5-.68-1.5-1.5.68-1.5 1.5-1.5ZM58.5 28c-.64 0-1.26.14-1.82.4-.96-1.22-2.26-2.26-3.82-3.06a9.683 9.683 0 0 0 1.82-5.64v-.12c2.18-.46 3.82-2.4 3.82-4.74 0-2.66-2.18-4.84-4.84-4.84-1.38 0-2.66.58-3.5 1.5a9.626 9.626 0 0 0-10.32 0c-.84-.92-2.12-1.5-3.5-1.5-2.66 0-4.84 2.18-4.84 4.84a4.87 4.87 0 0 0 3.8 4.74v.12c0 2.1.7 4.06 1.82 5.64-1.54.8-2.84 1.84-3.8 3.06A4.48 4.48 0 0 0 27 32.5c0 2.5 2 4.5 4.5 4.5h.12c-.08.48-.12 1-.12 1.5 0 4.14 2.68 7.5 6 7.5 2.02 0 3.8-1.26 4.9-3.18.84.12 1.7.18 2.6.18.9 0 1.76-.06 2.6-.18 1.1 1.92 2.88 3.18 4.9 3.18 3.32 0 6-3.36 6-7.5 0-.5-.04-1.02-.12-1.5h.12c2.5 0 4.5-2 4.5-4.5S61 28 58.5 28ZM16.134 59.12h.75v2.22h-.93V60h-4.62v1.34h-.93v-2.22h.61c.433-.54.65-1.36.65-2.46V53h4.47v6.12Zm-4.07 0h3.14v-5.25h-2.61v2.81c0 1.06-.177 1.873-.53 2.44ZM21.497 55h.7v5h-.86v-3.51L18.567 60h-.7v-5h.86v3.51l2.77-3.51Zm5.744 0v.84h-1.7V60h-.87v-4.16h-1.71V55h4.28Zm4.19 0v5h-.86v-1.8h-.73l-1.4 1.8h-1.06l1.46-1.85a1.68 1.68 0 0 1-.91-.56 1.484 1.484 0 0 1-.35-.98c0-.46.164-.843.49-1.15.327-.307.737-.46 1.23-.46h2.13Zm-2.1 2.42h1.24v-1.61h-1.24a.942.942 0 0 0-.63.22.733.733 0 0 0-.26.59c0 .24.087.433.26.58.174.147.384.22.63.22ZM35.9 55h.87v5h-.87v-1.8c-.4.173-.85.26-1.35.26-.64 0-1.137-.15-1.49-.45-.347-.307-.52-.757-.52-1.35V55h.87v1.61c0 .373.1.64.3.8.206.16.507.24.9.24.473 0 .903-.087 1.29-.26V55Zm5.822 0h.7v5h-.86v-3.51L38.792 60h-.7v-5h.86v3.51l2.77-3.51Zm2.844-.75v-.76h2.7v.76h-2.7Zm2.81.75h.7v5h-.86v-3.51L44.446 60h-.7v-5h.86v3.51l2.77-3.51Zm6.874 5.13c-.753 0-1.38-.25-1.88-.75-.5-.507-.75-1.133-.75-1.88 0-.747.25-1.37.75-1.87.5-.507 1.127-.76 1.88-.76a2.5 2.5 0 0 1 1.33.36c.394.233.687.55.88.95l-.73.42a1.473 1.473 0 0 0-.59-.64c-.26-.16-.556-.24-.89-.24-.5 0-.92.17-1.26.51-.333.34-.5.763-.5 1.27 0 .5.167.92.5 1.26.34.34.76.51 1.26.51.334 0 .634-.077.9-.23.267-.16.47-.373.61-.64l.74.43c-.213.393-.52.71-.92.95-.4.233-.843.35-1.33.35ZM61.43 55h.87v5h-.87v-.86c-.432.66-1.063.99-1.89.99-.7 0-1.296-.253-1.79-.76-.492-.513-.74-1.137-.74-1.87 0-.733.248-1.353.74-1.86a2.392 2.392 0 0 1 1.79-.77c.828 0 1.458.33 1.89.99V55Zm-1.78 4.29c.508 0 .93-.17 1.27-.51.34-.347.51-.773.51-1.28s-.17-.93-.51-1.27a1.707 1.707 0 0 0-1.27-.52c-.5 0-.92.173-1.26.52-.34.34-.51.763-.51 1.27s.17.933.51 1.28c.34.34.76.51 1.26.51Zm8.269-.12h.69v2.17h-.86V60h-3.75v1.34h-.86v-2.17h.61c.32-.44.48-1.057.48-1.85V55h3.69v4.17Zm-3.18 0h2.32v-3.36h-1.97v1.51c0 .747-.117 1.363-.35 1.85Zm8.832.2a2.563 2.563 0 0 1-1.87.76 2.563 2.563 0 0 1-1.87-.76c-.506-.507-.76-1.13-.76-1.87 0-.74.254-1.363.76-1.87a2.563 2.563 0 0 1 1.87-.76 2.56 2.56 0 0 1 1.87.76c.514.507.77 1.13.77 1.87 0 .74-.256 1.363-.77 1.87Zm-1.87-.09c.5 0 .92-.17 1.26-.51.34-.34.51-.763.51-1.27s-.17-.93-.51-1.27c-.34-.34-.76-.51-1.26-.51a1.7 1.7 0 0 0-1.25.51c-.34.34-.51.763-.51 1.27s.17.93.51 1.27c.34.34.757.51 1.25.51Zm7.896.72h-1.08l-2.28-2.37V60h-.87v-5h.87v2.21l2.16-2.21h1.12l-2.39 2.42 2.47 2.58Z" fill="#fff"/><path d="M45 92 33 72h24L45 92Z" fill="#CB9F3A"/></svg>