<svg width="32" height="41" viewBox="0 0 32 41" fill="none" xmlns="http://www.w3.org/2000/svg">
<rect width="32" height="32" fill="#CB9F3A"/>
<g clip-path="url(#clip0_850_1632)">
<path d="M20.1667 23.9222C19.2444 23.9222 18.5 22.9889 18.5 21.8333C18.5 20.6889 19.2444 19.7555 20.1667 19.7555C21.0889 19.7555 21.8333 20.6889 21.8333 21.8333C21.8333 22.9889 21.0889 23.9222 20.1667 23.9222ZM16 15.1667C14.6222 15.1667 13.5 14.2333 13.5 13.0889C13.5 11.9333 14.6222 11 16 11C17.3778 11 18.5 11.9333 18.5 13.0889C18.5 14.2333 17.3778 15.1667 16 15.1667ZM11.8333 23.9222C10.9111 23.9222 10.1667 22.9889 10.1667 21.8333C10.1667 20.6889 10.9111 19.7555 11.8333 19.7555C12.7556 19.7555 13.5 20.6889 13.5 21.8333C13.5 22.9889 12.7556 23.9222 11.8333 23.9222ZM16 11.8333C16.4556 11.8333 16.8333 12.2111 16.8333 12.6667C16.8333 13.1222 16.4556 13.5 16 13.5C15.5445 13.5 15.1667 13.1222 15.1667 12.6667C15.1667 12.2111 15.5445 11.8333 16 11.8333ZM23.5 16C23.1444 16 22.8 16.0778 22.4889 16.2222C21.9556 15.5444 21.2333 14.9667 20.3667 14.5222C21 13.6333 21.3778 12.5556 21.3778 11.3889V11.3222C22.5889 11.0667 23.5 9.98889 23.5 8.68889C23.5 7.21111 22.2889 6 20.8111 6C20.0444 6 19.3333 6.32222 18.8667 6.83333C18.0096 6.28909 17.0153 6.00008 16 6.00008C14.9847 6.00008 13.9904 6.28909 13.1333 6.83333C12.6667 6.32222 11.9556 6 11.1889 6C9.71112 6 8.50001 7.21111 8.50001 8.68889C8.50001 9.97778 9.41112 11.0556 10.6111 11.3222V11.3889C10.6111 12.5556 11 13.6444 11.6222 14.5222C10.7667 14.9667 10.0445 15.5444 9.51112 16.2222C9.13142 16.0512 8.71486 15.9781 8.29961 16.0098C7.88437 16.0415 7.48371 16.1768 7.13433 16.4035C6.78496 16.6301 6.49804 16.9408 6.29987 17.3071C6.10169 17.6734 5.99859 18.0835 6.00001 18.5C6.00001 19.8889 7.11112 21 8.50001 21H8.56668C8.52223 21.2667 8.50001 21.5555 8.50001 21.8333C8.50001 24.1333 9.9889 26 11.8333 26C12.9556 26 13.9445 25.3 14.5556 24.2333C15.0222 24.3 15.5 24.3333 16 24.3333C16.5 24.3333 16.9778 24.3 17.4445 24.2333C18.0556 25.3 19.0444 26 20.1667 26C22.0111 26 23.5 24.1333 23.5 21.8333C23.5 21.5555 23.4778 21.2667 23.4333 21H23.5C24.8889 21 26 19.8889 26 18.5C26 17.1111 24.8889 16 23.5 16Z" fill="white"/>
</g>
<path d="M16 41L10 31L22 31L16 41Z" fill="#CB9F3A"/>
<defs>
<clipPath id="clip0_850_1632">
<rect width="20" height="20" fill="white" transform="translate(6 6)"/>
</clipPath>
</defs>
</svg>
