<svg width="32" height="41" viewBox="0 0 32 41" fill="none" xmlns="http://www.w3.org/2000/svg">
<rect width="32" height="32" fill="#1B3529"/>
<path d="M25.4717 13.2783C25.4802 12.7601 25.3393 12.2504 25.0659 11.8102C24.7924 11.3699 24.398 11.0177 23.9297 10.7957C23.8907 10.3131 23.67 9.86323 23.3123 9.53697C22.9545 9.2107 22.4863 9.0323 22.0022 9.03778C21.8499 9.04999 21.6996 9.08107 21.555 9.1303C21.5235 8.78807 21.3974 8.46137 21.1907 8.18681C20.9839 7.91224 20.7049 7.70067 20.3847 7.5758C20.0645 7.45093 19.7159 7.41769 19.3778 7.47981C19.0398 7.54194 18.7258 7.69697 18.4709 7.92752C18.4709 7.41631 18.2679 6.92604 17.9064 6.56456C17.5449 6.20308 17.0546 6 16.5434 6C16.0322 6 15.5419 6.20308 15.1805 6.56456C14.819 6.92604 14.6159 7.41631 14.6159 7.92752C14.6159 7.92752 14.6776 7.95837 14.6776 8.00463C14.423 7.78628 14.1147 7.63996 13.7846 7.58081C13.4545 7.52167 13.1145 7.55184 12.8 7.66822C12.4854 7.7846 12.2077 7.98295 11.9956 8.24273C11.7835 8.5025 11.6447 8.81426 11.5935 9.14572C11.3494 9.06789 11.0941 9.03141 10.8379 9.03778C10.4565 9.03459 10.0802 9.12579 9.74253 9.30325C9.40487 9.48071 9.11634 9.73893 8.90264 10.0549C8.68893 10.3709 8.55669 10.7348 8.5177 11.1143C8.4787 11.4937 8.53415 11.8769 8.67912 12.2298C8.19608 12.3648 7.77048 12.6541 7.4673 13.0537C7.16412 13.4532 7 13.941 7 14.4426C7 14.9441 7.16412 15.4319 7.4673 15.8314C7.77048 16.231 8.19608 16.5203 8.67912 16.6554C8.83824 17.1472 9.15857 17.571 9.58832 17.8582C10.0181 18.1455 10.5321 18.2795 11.0474 18.2385C11.5627 18.1975 12.0491 17.9839 12.4281 17.6322C12.807 17.2806 13.0562 16.8115 13.1356 16.3007C13.4177 16.5474 13.7678 16.7016 14.1379 16.7479V24.458L11.5935 26H19.3036L16.8364 24.458V21.3739C17.9745 19.9992 19.4447 18.9376 21.1078 18.2899C21.4487 18.3699 21.8034 18.3709 22.1447 18.2928C22.4861 18.2147 22.8051 18.0597 23.0773 17.8395C23.3496 17.6193 23.5679 17.3398 23.7157 17.0223C23.8634 16.7048 23.9366 16.3578 23.9297 16.0077C23.9342 15.9255 23.9342 15.8432 23.9297 15.761C24.398 15.5389 24.7924 15.1867 25.0659 14.7465C25.3393 14.3062 25.4802 13.7965 25.4717 13.2783ZM16.8364 20.2328V14.9283C17.2527 15.6685 18.0361 16.1295 18.8873 16.1311H19.3191C19.3437 16.8096 19.6645 17.4402 20.198 17.8581C18.9402 18.4348 17.8003 19.2401 16.8364 20.2328Z" fill="white"/>
<path d="M16 41L10 31L22 31L16 41Z" fill="#1B3529"/>
</svg>
