<svg width="54" height="92" fill="none" xmlns="http://www.w3.org/2000/svg"><path fill="#1B3529" d="M0 0h53.25v73H0z"/><path d="M43.25 23.101a4.858 4.858 0 0 0-2.776-4.469 3.442 3.442 0 0 0-3.47-3.164 3.324 3.324 0 0 0-.805.166 3.332 3.332 0 0 0-5.551-2.165 3.47 3.47 0 0 0-6.94 0s.112.056.112.14a3.385 3.385 0 0 0-5.552 2.053 4.125 4.125 0 0 0-1.36-.194 4.164 4.164 0 0 0-3.886 5.746 4.136 4.136 0 0 0 0 7.966 4.135 4.135 0 0 0 8.022-.639 3.375 3.375 0 0 0 1.804.805v13.878L18.268 46h13.879l-4.441-2.776v-5.55a18.875 18.875 0 0 1 7.688-5.552 4.134 4.134 0 0 0 5.08-4.108 4.112 4.112 0 0 0 0-.444 4.858 4.858 0 0 0 2.775-4.469ZM27.705 35.619v-9.548a4.246 4.246 0 0 0 3.691 2.165h.777a4.134 4.134 0 0 0 1.582 3.109 20.125 20.125 0 0 0-6.05 4.274ZM20.316 53v7h-.93v-6.12h-3.22V60h-.93v-7h5.08Zm5.552 2h.87v5h-.87v-.86c-.433.66-1.063.99-1.89.99-.7 0-1.296-.253-1.79-.76-.493-.513-.74-1.137-.74-1.87 0-.733.247-1.353.74-1.86a2.392 2.392 0 0 1 1.79-.77c.827 0 1.457.33 1.89.99V55Zm-1.78 4.29c.507 0 .93-.17 1.27-.51.34-.347.51-.773.51-1.28s-.17-.93-.51-1.27a1.707 1.707 0 0 0-1.27-.52c-.5 0-.92.173-1.26.52-.34.34-.51.763-.51 1.27s.17.933.51 1.28c.34.34.76.51 1.26.51Zm6.728-4.42c.7 0 1.297.257 1.79.77.494.507.74 1.127.74 1.86 0 .733-.246 1.357-.74 1.87-.493.507-1.09.76-1.79.76-.826 0-1.456-.33-1.89-.99V62h-.87v-7h.87v.86c.434-.66 1.064-.99 1.89-.99Zm-.11 4.42c.5 0 .92-.17 1.26-.51.34-.347.51-.773.51-1.28s-.17-.93-.51-1.27c-.34-.347-.76-.52-1.26-.52-.506 0-.93.173-1.27.52-.34.34-.51.763-.51 1.27s.17.933.51 1.28c.34.34.764.51 1.27.51Zm7.909.71h-1.08l-2.28-2.37V60h-.87v-5h.87v2.21l2.16-2.21h1.12l-2.39 2.42 2.47 2.58Z" fill="#fff"/><path d="m26.625 92-12-20h24l-12 20Z" fill="#1B3529"/></svg>