<svg width="32" height="41" viewBox="0 0 32 41" fill="none" xmlns="http://www.w3.org/2000/svg">
<rect width="32" height="32" fill="#CB9F3A"/>
<path d="M9.05944 8.36023C9.0589 8.36023 9.0583 8.36023 9.05776 8.36023C8.8686 8.36023 8.69069 8.43397 8.55634 8.56797C8.42052 8.70346 8.3457 8.88387 8.3457 9.07592V19.8076C8.3457 20.2011 8.66712 20.5221 9.06227 20.5231C10.7281 20.5271 13.5191 20.8743 15.4445 22.8892V11.6582C15.4445 11.5248 15.4104 11.3994 15.3461 11.2957C13.7659 8.7508 10.7291 8.36414 9.05944 8.36023Z" fill="white"/>
<path d="M23.6544 19.8076V9.0758C23.6544 8.88375 23.5796 8.70334 23.4438 8.56785C23.3094 8.43384 23.1314 8.36011 22.9424 8.36011C22.9418 8.36011 22.9412 8.36011 22.9407 8.36011C21.2711 8.36408 18.2343 8.75075 16.654 11.2957C16.5897 11.3994 16.5557 11.5247 16.5557 11.6581V22.889C18.4811 20.8742 21.272 20.527 22.9379 20.523C23.333 20.522 23.6544 20.201 23.6544 19.8076Z" fill="white"/>
<path d="M25.2844 10.8351H24.7655V19.8076C24.7655 20.8124 23.9468 21.6317 22.9405 21.6342C21.5275 21.6375 19.1976 21.9138 17.5476 23.4755C20.4014 22.7768 23.4097 23.231 25.1242 23.6217C25.3383 23.6705 25.5595 23.6201 25.731 23.4834C25.9019 23.347 26 23.1432 26 22.9244V11.5506C26 11.1561 25.6789 10.8351 25.2844 10.8351Z" fill="white"/>
<path d="M7.23448 19.8076V10.8351H6.71556C6.32108 10.8351 6 11.1561 6 11.5506V22.9242C6 23.1431 6.09805 23.3468 6.26896 23.4832C6.44034 23.6198 6.66135 23.6704 6.87576 23.6215C8.59024 23.2307 11.5987 22.7766 14.4523 23.4753C12.8023 21.9137 10.4725 21.6375 9.05947 21.6341C8.05321 21.6317 7.23448 20.8124 7.23448 19.8076Z" fill="white"/>
<path d="M16 41L10 31L22 31L16 41Z" fill="#CB9F3A"/>
</svg>
