<svg width="32" height="41" viewBox="0 0 32 41" fill="none" xmlns="http://www.w3.org/2000/svg">
<rect width="32" height="32" fill="#1B3529"/>
<g clip-path="url(#clip0_517_1752)">
<path d="M21.9092 21.8334H14.4142C13.3333 21.8334 12.375 21.1242 12.0825 20.1084L9.54917 11.5242C9.45917 11.2134 9.16 11 8.81833 11H6.83333C6.3725 11 6 10.6267 6 10.1667C6 9.70671 6.3725 9.33337 6.83333 9.33337H8.81833C9.89917 9.33337 10.8567 10.0425 11.1492 11.0584L11.6233 12.6667H24.3692C24.8892 12.6667 25.3825 12.9142 25.6883 13.3292C25.9917 13.7409 26.0792 14.2559 25.9283 14.7425L24.2092 20.1992C23.8725 21.1842 22.95 21.8334 21.9092 21.8334ZM24.37 14.3334H24.3783H24.37Z" fill="white"/>
<path d="M15.1667 26C14.2475 26 13.5 25.2525 13.5 24.3333C13.5 23.4141 14.2475 22.6666 15.1667 22.6666C16.0858 22.6666 16.8333 23.4141 16.8333 24.3333C16.8333 25.2525 16.0858 26 15.1667 26ZM15.1667 24.3325V24.3333V24.3325Z" fill="white"/>
<path d="M20.9999 26C20.0808 26 19.3333 25.2525 19.3333 24.3333C19.3333 23.4141 20.0808 22.6666 20.9999 22.6666C21.9191 22.6666 22.6666 23.4141 22.6666 24.3333C22.6666 25.2525 21.9191 26 20.9999 26ZM20.9999 24.3325V24.3333V24.3325Z" fill="white"/>
</g>
<path d="M16 41L10 31L22 31L16 41Z" fill="#1B3529"/>
<defs>
<clipPath id="clip0_517_1752">
<rect width="20" height="20" fill="white" transform="translate(6 6)"/>
</clipPath>
</defs>
</svg>
