<svg width="32" height="41" viewBox="0 0 32 41" fill="none" xmlns="http://www.w3.org/2000/svg">
<rect width="32" height="32" fill="#CB9F3A"/>
<g clip-path="url(#clip0_850_1595)">
<path d="M25.4591 13.8788L24.2118 13.567C24.0423 12.9943 23.8128 12.4411 23.5265 11.9145L24.1885 10.8117C24.3573 10.5306 24.313 10.1706 24.0811 9.93903L22.061 7.91895C21.8297 7.68876 21.4705 7.64342 21.1883 7.81152L20.0852 8.47349C19.5589 8.1868 19.0061 7.95731 18.4334 7.78781L18.1216 6.54129C18.0421 6.22321 17.7564 6 17.4286 6H14.5714C14.2436 6 13.9579 6.22321 13.8784 6.54129L13.5666 7.78781C12.9939 7.95731 12.4411 8.1868 11.9148 8.47349L10.8117 7.81152C10.5302 7.64342 10.171 7.68876 9.93903 7.91895L7.91895 9.93903C7.68701 10.1706 7.64272 10.5306 7.81152 10.8117L8.47349 11.9145C8.18715 12.4411 7.95766 12.9943 7.78816 13.567L6.54095 13.8788C6.22321 13.9583 6 14.2436 6 14.5714V17.4286C6 17.7564 6.22321 18.0417 6.54095 18.1212L7.78816 18.433C7.95766 19.0064 8.18715 19.5589 8.47349 20.0855L7.81152 21.1883C7.64272 21.4694 7.68701 21.8294 7.91895 22.061L9.93903 24.0811C10.171 24.3119 10.5302 24.358 10.8117 24.1885L11.9148 23.5265C12.4411 23.8132 12.9939 24.0427 13.5666 24.2122L13.8784 25.4587C13.9579 25.7768 14.2436 26 14.5714 26H17.4286C17.7564 26 18.0421 25.7768 18.1216 25.4587L18.4334 24.2122C19.0061 24.0427 19.5589 23.8132 20.0852 23.5265L21.1883 24.1885C21.4705 24.358 21.8297 24.3119 22.061 24.0811L24.0811 22.061C24.313 21.8294 24.3573 21.4694 24.1885 21.1883L23.5265 20.0855C23.8128 19.5589 24.0423 19.0064 24.2118 18.433L25.4591 18.1212C25.7768 18.0417 26 17.7564 26 17.4286V14.5714C26 14.2436 25.7768 13.9583 25.4591 13.8788ZM16 22.4286C12.4496 22.4286 9.57143 19.5504 9.57143 16C9.57143 12.4496 12.4496 9.57143 16 9.57143C19.5504 9.57143 22.4286 12.4496 22.4286 16C22.4286 19.5504 19.5504 22.4286 16 22.4286Z" fill="white"/>
<path d="M15.9999 10.2858C12.844 10.2858 10.2856 12.8441 10.2856 16.0001C10.2856 19.156 12.844 21.7143 15.9999 21.7143C19.1558 21.7143 21.7142 19.156 21.7142 16.0001C21.7142 12.8441 19.1558 10.2858 15.9999 10.2858ZM18.8571 17.6072C18.8571 17.7579 18.7622 17.8925 18.6199 17.9434L16.1199 18.8363C16.0815 18.8502 16.0404 18.8572 15.9999 18.8572C15.9595 18.8572 15.9183 18.8502 15.88 18.8363L13.38 17.9434C13.2377 17.8925 13.1428 17.7579 13.1428 17.6072V16.4581L15.6309 17.3631C15.7495 17.4063 15.8737 17.4286 15.9999 17.4286C16.1262 17.4286 16.2503 17.4063 16.3661 17.3638L18.8571 16.4583V17.6072ZM19.9285 18.8572C19.7311 18.8572 19.5714 18.6975 19.5714 18.5001V15.4384L16.122 16.6927C16.0822 16.7074 16.0411 16.7143 15.9999 16.7143C15.9588 16.7143 15.9176 16.7074 15.8779 16.6927L11.9493 15.2641C11.8084 15.2132 11.7142 15.0786 11.7142 14.9286C11.7142 14.7787 11.8084 14.644 11.9493 14.5931L15.8779 13.1645C15.9574 13.1352 16.0425 13.1352 16.122 13.1645L20.0506 14.5931C20.1915 14.644 20.2856 14.7787 20.2856 14.9286V18.5001C20.2856 18.6975 20.1259 18.8572 19.9285 18.8572Z" fill="white"/>
</g>
<path d="M16 41L10 31L22 31L16 41Z" fill="#CB9F3A"/>
<defs>
<clipPath id="clip0_850_1595">
<rect width="20" height="20" fill="white" transform="translate(6 6)"/>
</clipPath>
</defs>
</svg>
