<svg width="32" height="41" viewBox="0 0 32 41" fill="none" xmlns="http://www.w3.org/2000/svg">
<rect width="32" height="32" fill="#1B3529"/>
<path d="M25.9999 21.4013C25.9999 21.1883 25.865 20.9987 25.6637 20.9289L21.8024 19.5907C21.4776 19.4781 21.1387 19.7194 21.1387 20.0631V24.7524C21.1387 25.0286 21.3625 25.2524 21.6387 25.2524H22.5225C22.7987 25.2524 23.0225 25.0286 23.0225 24.7524V23.9015C23.0225 23.6254 23.2464 23.4015 23.5225 23.4015H23.6943C23.9704 23.4015 24.1943 23.6254 24.1943 23.9015V24.7524C24.1943 25.0286 24.4181 25.2524 24.6943 25.2524H25.4999C25.776 25.2524 25.9999 25.0286 25.9999 24.7524L25.9999 21.4013Z" fill="white"/>
<path d="M13.6144 17.328C13.8905 17.328 14.1144 17.1041 14.1144 16.828V16.4803C14.1144 16.2042 14.3382 15.9803 14.6144 15.9803H15.0759C15.352 15.9803 15.5759 16.2042 15.5759 16.4803V16.926C15.5759 17.148 15.7559 17.328 15.9779 17.328C16.1999 17.328 16.3799 17.148 16.3799 16.926V15.9803H17.3171C17.5932 15.9803 17.8171 16.2042 17.8171 16.4803V16.828C17.8171 17.1041 18.0409 17.328 18.3171 17.328H18.4315C18.7076 17.328 18.9315 17.1041 18.9315 16.828V13.1175C18.9315 12.963 18.86 12.8171 18.738 12.7224L16.5516 11.026L17.3645 11.6568V10.131C17.3645 10.0371 17.3381 9.9452 17.2883 9.86567L16.9499 9.32506C16.9181 9.27413 16.8773 9.22936 16.8295 9.19291L16.7482 9.13088C16.6243 9.03629 16.5516 8.88932 16.5516 8.73343V7.70972C16.5516 7.55802 16.4827 7.41452 16.3644 7.31962L15.9658 7L15.5671 7.31962C15.4488 7.41452 15.3799 7.55802 15.3799 7.70972V8.71851C15.3799 8.88275 15.2992 9.03652 15.1641 9.12988L15.0312 9.22168C14.9643 9.26792 14.9097 9.3298 14.8721 9.40195L14.6236 9.87876C14.5864 9.95012 14.5669 10.0294 14.5669 10.1099L14.567 11.6568L15.3799 11.026L13.1935 12.7224C13.0714 12.8171 13 12.963 13 13.1175V16.828C13 17.1041 13.2239 17.328 13.5 17.328H13.6144Z" fill="white"/>
<path d="M12.5288 18.1672C12.2527 18.1672 12.0288 18.3911 12.0288 18.6672V24.7532C12.0288 25.0293 12.2527 25.2532 12.5288 25.2532H13.7369C14.013 25.2532 14.2369 25.0293 14.2369 24.7532V23.4303C14.3255 21.4294 17.6644 21.4309 17.7522 23.4303V24.7532C17.7522 25.0293 17.976 25.2532 18.2522 25.2532H19.4602C19.7364 25.2532 19.9602 25.0293 19.9602 24.7532V18.6672C19.9602 18.3911 19.7364 18.1672 19.4602 18.1672H12.5288ZM14.3149 20.7672C14.3149 21.0022 14.1244 21.1927 13.8894 21.1927H13.5687C13.3337 21.1927 13.1432 21.0022 13.1432 20.7672C13.1432 20.5322 13.3337 20.3417 13.5687 20.3417H13.8894C14.1244 20.3417 14.3149 20.5322 14.3149 20.7672ZM16.5804 20.7672C16.5804 21.0022 16.3899 21.1927 16.1549 21.1927H15.8342C15.5992 21.1927 15.4087 21.0022 15.4087 20.7672C15.4087 20.5322 15.5992 20.3417 15.8342 20.3417H16.1549C16.3899 20.3417 16.5804 20.5322 16.5804 20.7672ZM18.0996 21.1927C17.8646 21.1927 17.6742 21.0022 17.6742 20.7672C17.6742 20.5322 17.8646 20.3417 18.0996 20.3417H18.4204C18.6554 20.3417 18.8459 20.5322 18.8459 20.7672C18.8459 21.0022 18.6554 21.1927 18.4204 21.1927H18.0996Z" fill="white"/>
<path d="M6.33919 20.8967C6.1364 20.9656 6 21.156 6 21.3702V24.7525C6 25.0286 6.22386 25.2525 6.5 25.2525H7.30567C7.58181 25.2525 7.80567 25.0286 7.80567 24.7525V23.9016C7.80567 23.6254 8.02953 23.4016 8.30567 23.4016H8.4774C8.75354 23.4016 8.9774 23.6254 8.9774 23.9016V24.7525C8.9774 25.0286 9.20126 25.2525 9.4774 25.2525H10.3613C10.6374 25.2525 10.8613 25.0286 10.8613 24.7525V20.0586C10.8613 19.7161 10.5247 19.475 10.2005 19.5852L6.33919 20.8967Z" fill="white"/>
<path d="M16 41L10 31L22 31L16 41Z" fill="#1B3529"/>
</svg>
