<svg width="63" height="67" fill="none" xmlns="http://www.w3.org/2000/svg"><path d="M62.518 24.68a8.92 8.92 0 0 0-1.362-4.884 9.028 9.028 0 0 0-3.812-3.374 6.34 6.34 0 0 0-2.071-4.188 6.446 6.446 0 0 0-4.396-1.66 6.236 6.236 0 0 0-1.5.308 6.125 6.125 0 0 0-1.222-3.139A6.203 6.203 0 0 0 45.45 5.71a6.258 6.258 0 0 0-3.377-.319 6.229 6.229 0 0 0-3.043 1.49 6.386 6.386 0 0 0-1.894-4.535A6.495 6.495 0 0 0 32.563.468c-1.715 0-3.36.676-4.573 1.878a6.385 6.385 0 0 0-1.894 4.534s.207.103.207.257a6.363 6.363 0 0 0-6.3-1.12 6.31 6.31 0 0 0-2.698 1.912 6.234 6.234 0 0 0-1.35 3.004 7.774 7.774 0 0 0-2.534-.36 7.813 7.813 0 0 0-3.675.884 7.738 7.738 0 0 0-2.818 2.5 7.636 7.636 0 0 0-.75 7.235 7.71 7.71 0 0 0-4.066 2.741 7.6 7.6 0 0 0-1.568 4.62 7.6 7.6 0 0 0 1.568 4.62 7.711 7.711 0 0 0 4.066 2.741 7.65 7.65 0 0 0 3.05 4.002 7.76 7.76 0 0 0 9.528-.752 7.624 7.624 0 0 0 2.373-4.43 6.318 6.318 0 0 0 3.363 1.488V61.87L15.956 67h25.868l-8.278-5.13V51.611a35.17 35.17 0 0 1 14.33-10.26 7.775 7.775 0 0 0 3.48.01 7.736 7.736 0 0 0 3.128-1.508 7.652 7.652 0 0 0 2.142-2.718 7.587 7.587 0 0 0 .718-3.375 7.49 7.49 0 0 0 0-.82 9.028 9.028 0 0 0 3.812-3.376 8.92 8.92 0 0 0 1.362-4.884ZM33.546 47.815V30.17a7.926 7.926 0 0 0 6.88 4.001h1.45a7.62 7.62 0 0 0 2.948 5.745 37.51 37.51 0 0 0-11.278 7.9Z" fill="#1B3529"/></svg>