<svg width="77" height="92" fill="none" xmlns="http://www.w3.org/2000/svg"><path fill="#CB9F3A" d="M0 0h77v73H0z"/><path d="M22.93 30.427v5.798a4.15 4.15 0 0 0 2.145 3.631l10.317 5.633a4.097 4.097 0 0 0 3.962 0l10.316-5.633a4.15 4.15 0 0 0 2.146-3.631v-5.798l-12.462 6.809a4.097 4.097 0 0 1-3.962 0L22.93 30.427Zm12.462-19.932-17.394 9.492c-1.424.784-1.424 2.847 0 3.631l17.394 9.491a4.097 4.097 0 0 0 3.962 0l16.589-9.058v12.195a2.07 2.07 0 0 0 2.063 2.063 2.07 2.07 0 0 0 2.063-2.063V23.02c0-.764-.412-1.445-1.072-1.816L39.354 10.495a4.21 4.21 0 0 0-3.962 0ZM15.228 53h.94l-2.25 5.34c-.254.6-.577 1.037-.97 1.31-.394.267-.874.383-1.44.35v-.86c.386.04.7-.017.94-.17.24-.153.44-.417.6-.79l.07-.16-2.37-5.02h.94l1.86 4 1.68-4Zm4.848 2h.87v5h-.87v-2.09h-2.59V60h-.87v-5h.87v2.08h2.59V55Zm2.634-.91a.57.57 0 0 1-.42-.17.558.558 0 0 1-.17-.41.56.56 0 0 1 .17-.41.555.555 0 0 1 .42-.18c.16 0 .297.06.41.18.114.113.17.25.17.41 0 .16-.056.297-.17.41a.559.559 0 0 1-.41.17ZM22.27 60v-5h.87v5h-.87Zm5.528-2.57c.513.213.77.6.77 1.16 0 .413-.14.753-.42 1.02-.274.26-.667.39-1.18.39h-2.5v-5h2.3c.5 0 .886.127 1.16.38.273.247.41.573.41.98 0 .48-.18.837-.54 1.07Zm-1.07-1.65h-1.41v1.31h1.41c.506 0 .76-.223.76-.67 0-.427-.254-.64-.76-.64Zm.19 3.43c.253 0 .446-.06.58-.18.14-.12.21-.29.21-.51 0-.207-.07-.367-.21-.48-.134-.12-.327-.18-.58-.18h-1.6v1.35h1.6Zm3.199-1.31c.086.447.29.793.61 1.04.326.247.726.37 1.2.37.66 0 1.14-.243 1.44-.73l.74.42c-.487.753-1.22 1.13-2.2 1.13-.794 0-1.44-.247-1.94-.74-.494-.5-.74-1.13-.74-1.89 0-.753.243-1.38.73-1.88.486-.5 1.116-.75 1.89-.75.733 0 1.33.26 1.79.78.466.513.7 1.133.7 1.86 0 .127-.01.257-.03.39h-4.19Zm1.73-2.21c-.467 0-.854.133-1.16.4-.307.26-.497.61-.57 1.05h3.34c-.074-.473-.26-.833-.56-1.08-.3-.247-.65-.37-1.05-.37Zm6.25-.82c.7 0 1.296.257 1.79.77.493.507.74 1.127.74 1.86 0 .733-.247 1.357-.74 1.87-.494.507-1.09.76-1.79.76-.827 0-1.457-.33-1.89-.99V62h-.87v-7h.87v.86c.433-.66 1.063-.99 1.89-.99Zm-.11 4.42c.5 0 .92-.17 1.26-.51.34-.347.51-.773.51-1.28s-.17-.93-.51-1.27c-.34-.347-.76-.52-1.26-.52-.507 0-.93.173-1.27.52-.34.34-.51.763-.51 1.27s.17.933.51 1.28c.34.34.763.51 1.27.51Zm6.028.84c-.754 0-1.38-.25-1.88-.75-.5-.507-.75-1.133-.75-1.88 0-.747.25-1.37.75-1.87.5-.507 1.127-.76 1.88-.76.493 0 .937.12 1.33.36.393.233.687.55.88.95l-.73.42a1.474 1.474 0 0 0-.59-.64c-.26-.16-.557-.24-.89-.24-.5 0-.92.17-1.26.51-.334.34-.5.763-.5 1.27 0 .5.166.92.5 1.26.34.34.76.51 1.26.51.333 0 .633-.077.9-.23.267-.16.47-.373.61-.64l.74.43c-.214.393-.52.71-.92.95-.4.233-.843.35-1.33.35ZM50.764 55h.7v5h-.86v-3.51L47.834 60h-.7v-5h.86v3.51l2.77-3.51Zm5.744 0v.84h-1.7V60h-.87v-4.16h-1.71V55h4.28Zm1.177 2.9c.087.447.29.793.61 1.04.327.247.727.37 1.2.37.66 0 1.14-.243 1.44-.73l.74.42c-.487.753-1.22 1.13-2.2 1.13-.793 0-1.44-.247-1.94-.74-.493-.5-.74-1.13-.74-1.89 0-.753.243-1.38.73-1.88s1.117-.75 1.89-.75c.733 0 1.33.26 1.79.78.467.513.7 1.133.7 1.86 0 .127-.01.257-.03.39h-4.19Zm1.73-2.21c-.467 0-.853.133-1.16.4-.307.26-.497.61-.57 1.05h3.34c-.073-.473-.26-.833-.56-1.08-.3-.247-.65-.37-1.05-.37ZM66.43 55v.84h-1.7V60h-.87v-4.16h-1.71V55h4.28Z" fill="#fff"/><path d="m38.5 92-12-20h24l-12 20Z" fill="#CB9F3A"/></svg>