<svg width="32" height="41" viewBox="0 0 32 41" fill="none" xmlns="http://www.w3.org/2000/svg">
<rect width="32" height="32" fill="#CB9F3A"/>
<path d="M8.7813 17.4703V20.1583C8.7813 20.8566 9.16394 21.5071 9.77616 21.8419L14.5591 24.4534C15.1331 24.7691 15.8218 24.7691 16.3958 24.4534L21.1788 21.8419C21.791 21.5071 22.1736 20.8566 22.1736 20.1583V17.4703L16.3958 20.627C15.8218 20.9427 15.1331 20.9427 14.5591 20.627L8.7813 17.4703ZM14.5591 8.22958L6.49504 12.6299C5.83499 12.9934 5.83499 13.95 6.49504 14.3135L14.5591 18.7139C15.1331 19.0295 15.8218 19.0295 16.3958 18.7139L24.0868 14.5144V20.1679C24.0868 20.694 24.5173 21.1245 25.0434 21.1245C25.5695 21.1245 26 20.694 26 20.1679V14.0361C26 13.6822 25.8087 13.3665 25.5026 13.1943L16.3958 8.22958C16.1132 8.07885 15.7978 8 15.4775 8C15.1571 8 14.8418 8.07885 14.5591 8.22958Z" fill="white"/>
<path d="M16 41L10 31L22 31L16 41Z" fill="#CB9F3A"/>
</svg>
