<svg width="40" height="31" viewBox="0 0 40 31" fill="none" xmlns="http://www.w3.org/2000/svg">
<path fill-rule="evenodd" clip-rule="evenodd" d="M24.4238 0.800002L23.5296 2.6353H26.0708C30.6355 2.6353 34.3532 6.35295 34.3532 10.9177C34.3532 15.4824 30.6355 19.2 26.0708 19.2H22.0238V21.0353H26.0708C31.6238 21.0353 36.1885 16.5177 36.1885 10.9177C36.1885 5.31765 31.6708 0.800002 26.0708 0.800002H24.4238ZM23.1532 3.34118L22.0238 5.60001V18.4471H26.0708C30.2591 18.4471 33.6473 15.0588 33.6473 10.8706C33.6473 6.68236 30.2591 3.29412 26.0708 3.29412H23.1532V3.34118ZM21.3179 7.01178L19.4826 10.6824V21.6942H18.7767V12.1412L13.8826 21.9765L13.459 21.2236L13.5061 21.1294C15.2943 17.6471 17.0355 14.1177 18.7767 10.5883L19.059 10.0235C20.2355 7.62354 21.4591 5.22354 22.6355 2.82353L23.6238 0.84706H21.6002C19.5767 4.89413 17.5532 8.94119 15.5296 13.0353C14.8237 14.4941 14.0708 15.9059 13.3649 17.3647C13.1296 17.8824 12.8943 18.353 12.659 18.8706L12.4708 19.2471L3.01196 0.0470582H3.7649L12.5179 17.553L13.5061 15.5294L5.78844 0H6.54138L13.8826 14.7765C16.3296 9.88237 18.7767 4.98824 21.2238 0.0470582H26.0708C32.0473 0.0470582 36.8944 4.89412 36.8944 10.8706C36.8944 16.8471 32.0473 21.6942 26.0708 21.6942H21.3179V7.01178Z" fill="#161616"/>
<path d="M3.10589 30.0231H0V26.9172H3.10589V27.529H0.611767V29.4114H2.49412V28.7996H1.88236V28.1878H3.10589V30.0231Z" fill="#161616"/>
<path d="M10.494 28.7996H9.88227V30.0231H9.27051V26.9172H12.3764V28.7996H11.294L12.3764 30.0231H11.6235L10.494 28.7996ZM9.83522 28.1878H11.7176V27.529H9.83522V28.1878Z" fill="#161616"/>
<path d="M18.447 26.9172H21.5529V30.0231H18.447V26.9172ZM20.9411 27.529H19.0588V29.4114H20.9411V27.529Z" fill="#161616"/>
<path d="M28.2824 26.9172V29.4114H30.1648V26.9172H30.7765V30.0231H27.6707V26.9172H28.2824Z" fill="#161616"/>
<path d="M37.5058 30.0231H36.894V26.9172H39.9999V28.7996H37.5058V30.0231ZM39.3882 27.529H37.5058V28.1408H39.3882V27.529Z" fill="#161616"/>
</svg>
