<svg width="56" height="68" fill="none" xmlns="http://www.w3.org/2000/svg"><path fill="#fff" d="M.5.5h55v67H.5z"/><path fill-rule="evenodd" clip-rule="evenodd" d="m32.424 6.8-.894 1.835h2.54c4.566 0 8.283 3.718 8.283 8.283 0 4.564-3.718 8.282-8.282 8.282h-4.047v1.835h4.047c5.553 0 10.117-4.517 10.117-10.117 0-5.6-4.517-10.118-10.117-10.118h-1.647Zm-1.27 2.541-1.13 2.259v12.847h4.047a7.572 7.572 0 0 0 7.576-7.576 7.572 7.572 0 0 0-7.576-7.577h-2.918v.047Zm-1.836 3.67-1.835 3.671v11.012h-.706v-9.553l-4.894 9.836-.424-.753.047-.095c1.788-3.482 3.53-7.011 5.27-10.54l.283-.566c1.176-2.4 2.4-4.8 3.576-7.2l.989-1.976H29.6a2958.242 2958.242 0 0 0-6.07 12.188c-.706 1.46-1.46 2.87-2.165 4.33-.235.517-.47.988-.706 1.506l-.188.376-9.459-19.2h.753l8.753 17.506.988-2.024L13.788 6h.753l7.342 14.776c2.447-4.894 4.894-9.788 7.34-14.729h4.848c5.976 0 10.823 4.847 10.823 10.824 0 5.976-4.847 10.823-10.823 10.823h-4.753V13.012Z" fill="#161616"/><path d="M11.106 36.023H8v-3.106h3.106v.612H8.612v1.882h1.882V34.8h-.612v-.612h1.224v1.835Zm7.388-1.223h-.612v1.223h-.612v-3.106h3.106V34.8h-1.082l1.082 1.223h-.753L18.494 34.8Zm-.659-.612h1.883v-.659h-1.883v.659Zm8.612-1.271h3.106v3.106h-3.106v-3.106Zm2.494.612H27.06v1.882h1.882V33.53Zm7.341-.612v2.494h1.883v-2.494h.611v3.106h-3.105v-3.106h.611Zm9.224 3.106h-.612v-3.106H48V34.8h-2.494v1.223Zm1.882-2.494h-1.882v.612h1.882v-.612Zm-36.31 9.494v.88h-3v6.12h-.93v-7h3.93Zm4.058 6.37a2.563 2.563 0 0 1-1.87.76 2.563 2.563 0 0 1-1.87-.76c-.507-.507-.76-1.13-.76-1.87 0-.74.253-1.363.76-1.87a2.563 2.563 0 0 1 1.87-.76c.733 0 1.357.254 1.87.76.513.507.77 1.13.77 1.87 0 .74-.257 1.363-.77 1.87Zm-1.87-.09c.5 0 .92-.17 1.26-.51.34-.34.51-.763.51-1.27s-.17-.93-.51-1.27c-.34-.34-.76-.51-1.26-.51a1.7 1.7 0 0 0-1.25.51c-.34.34-.51.764-.51 1.27 0 .507.17.93.51 1.27.34.34.757.51 1.25.51Zm7.66-4.28v5h-.87v-4.16h-1.97v2.04c0 .82-.167 1.394-.5 1.72-.327.32-.79.454-1.39.4v-.82c.34.047.593-.027.76-.22.173-.2.26-.566.26-1.1v-2.86h3.71Zm5.538 4.37a2.563 2.563 0 0 1-1.87.76 2.563 2.563 0 0 1-1.87-.76c-.507-.507-.76-1.13-.76-1.87 0-.74.253-1.363.76-1.87a2.563 2.563 0 0 1 1.87-.76c.733 0 1.357.254 1.87.76.513.507.77 1.13.77 1.87 0 .74-.257 1.363-.77 1.87Zm-1.87-.09c.5 0 .92-.17 1.26-.51.34-.34.51-.763.51-1.27s-.17-.93-.51-1.27c-.34-.34-.76-.51-1.26-.51a1.7 1.7 0 0 0-1.25.51c-.34.34-.51.764-.51 1.27 0 .507.17.93.51 1.27.34.34.757.51 1.25.51Zm6.996-1.85c.513.213.77.6.77 1.16 0 .413-.14.754-.42 1.02-.274.26-.667.39-1.18.39h-2.5v-5h2.3c.5 0 .886.127 1.16.38.273.247.41.574.41.98 0 .48-.18.837-.54 1.07Zm-1.07-1.65h-1.41v1.31h1.41c.506 0 .76-.223.76-.67 0-.426-.254-.64-.76-.64Zm.19 3.43c.253 0 .446-.06.58-.18.14-.12.21-.29.21-.51 0-.206-.07-.367-.21-.48-.134-.12-.327-.18-.58-.18h-1.6v1.35h1.6Zm6.049-4.21h.87v5h-.87v-2.09h-2.59v2.09h-.87v-5h.87v2.08h2.59v-2.08Zm5.824 0h.7v5h-.86v-3.51l-2.77 3.51h-.7v-5h.86v3.51l2.77-3.51Zm2.844-.75v-.76h2.7v.76h-2.7Zm2.81.75h.7v5h-.86v-3.51l-2.77 3.51h-.7v-5h.86v3.51l2.77-3.51Zm-25.572 17.37a2.563 2.563 0 0 1-1.87.76 2.563 2.563 0 0 1-1.87-.76c-.506-.507-.76-1.13-.76-1.87 0-.74.254-1.363.76-1.87a2.563 2.563 0 0 1 1.87-.76c.733 0 1.357.254 1.87.76.514.507.77 1.13.77 1.87 0 .74-.256 1.363-.77 1.87Zm-1.87-.09c.5 0 .92-.17 1.26-.51.34-.34.51-.763.51-1.27s-.17-.93-.51-1.27c-.34-.34-.76-.51-1.26-.51a1.7 1.7 0 0 0-1.25.51c-.34.34-.51.764-.51 1.27 0 .507.17.93.51 1.27.34.34.757.51 1.25.51Zm8.686-3.53c.466.48.7 1.063.7 1.75s-.234 1.27-.7 1.75c-.467.48-1.09.763-1.87.85v1.9h-.86v-1.9c-.78-.087-1.404-.37-1.87-.85a2.417 2.417 0 0 1-.7-1.75c0-.687.233-1.27.7-1.75.466-.48 1.09-.763 1.87-.85v-1.9h.86v1.9c.78.087 1.403.37 1.87.85Zm-4.44 1.75c0 .46.15.85.45 1.17.306.32.726.517 1.26.59v-3.52c-.534.067-.954.26-1.26.58-.3.32-.45.713-.45 1.18Zm2.57 1.76c.533-.073.95-.27 1.25-.59.3-.32.45-.71.45-1.17 0-.46-.15-.85-.45-1.17-.3-.32-.717-.517-1.25-.59v3.52Zm4.038-5.17a.57.57 0 0 1-.42-.17.559.559 0 0 1-.17-.41c0-.16.056-.297.17-.41a.555.555 0 0 1 .42-.18c.16 0 .296.06.41.18.113.114.17.25.17.41a.56.56 0 0 1-.17.41.559.559 0 0 1-.41.17Zm-.44 5.91v-5h.87v5h-.87Zm4.547.13c-.753 0-1.38-.25-1.88-.75-.5-.506-.75-1.133-.75-1.88 0-.747.25-1.37.75-1.87.5-.506 1.127-.76 1.88-.76.493 0 .937.12 1.33.36.393.233.687.55.88.95l-.73.42a1.474 1.474 0 0 0-.59-.64c-.26-.16-.557-.24-.89-.24-.5 0-.92.17-1.26.51-.333.34-.5.764-.5 1.27 0 .5.167.92.5 1.26.34.34.76.51 1.26.51.333 0 .633-.076.9-.23.267-.16.47-.373.61-.64l.74.43c-.213.393-.52.71-.92.95-.4.233-.843.35-1.33.35Z" fill="#161616"/><path stroke="#161616" d="M.5.5h55v67H.5z"/></svg>