<svg width="16" height="16" viewBox="0 0 16 16" fill="none" xmlns="http://www.w3.org/2000/svg">
<path fill-rule="evenodd" clip-rule="evenodd" d="M15.3372 10.7893C15.5475 11.0412 15.7466 11.3012 15.8989 11.5936C16.1147 12.0093 15.9192 12.4667 15.5442 12.4915L13.2133 12.4905C12.6121 12.5401 12.1325 12.2995 11.7293 11.8909C11.4066 11.5642 11.1077 11.2165 10.7974 10.8787C10.6702 10.7407 10.537 10.6108 10.3779 10.5081C10.0597 10.3028 9.78353 10.3656 9.60169 10.6955C9.41649 11.031 9.37448 11.4025 9.3563 11.7765C9.33133 12.322 9.16542 12.4655 8.61407 12.4904C7.43578 12.5457 6.31753 12.3685 5.2787 11.7777C4.36284 11.2568 3.65263 10.5215 3.03447 9.68907C1.83089 8.06814 0.909193 6.287 0.0808054 4.45596C-0.105658 4.04343 0.0307068 3.82198 0.488638 3.81414C1.24905 3.79946 2.00936 3.80051 2.77067 3.8131C3.07973 3.81759 3.28433 3.99379 3.40366 4.284C3.81507 5.2895 4.31847 6.24614 4.95036 7.13287C5.11863 7.36895 5.29022 7.60502 5.53456 7.77119C5.80487 7.95517 6.01068 7.89419 6.13784 7.59489C6.21854 7.4051 6.25386 7.20069 6.27205 6.99743C6.3323 6.29813 6.34024 5.60004 6.23457 4.90319C6.1697 4.46829 5.92326 4.18676 5.48667 4.10446C5.26388 4.0625 5.29705 3.9801 5.40492 3.8537C5.59228 3.6357 5.76849 3.5 6.11976 3.5H8.75406C9.16878 3.58136 9.26088 3.76654 9.31766 4.18132L9.31992 7.08986C9.3154 7.25044 9.40061 7.72693 9.69158 7.83321C9.92447 7.90887 10.078 7.72369 10.2177 7.57691C10.8484 6.91153 11.2986 6.12518 11.7007 5.31092C11.8792 4.95289 12.0327 4.58106 12.1814 4.20954C12.2916 3.93385 12.4645 3.79821 12.7769 3.80422L15.3122 3.80646C15.3874 3.80646 15.4635 3.80756 15.5363 3.81994C15.9635 3.89231 16.0806 4.07499 15.9486 4.48967C15.7407 5.14026 15.3362 5.68244 14.9407 6.22712C14.5179 6.80864 14.0657 7.37025 13.6464 7.95522C13.2611 8.4894 13.2917 8.75866 13.7703 9.22261C14.301 9.73766 14.8612 10.2223 15.3372 10.7893Z" fill="white"/>
</svg>
