<svg width="16" height="16" viewBox="0 0 16 16" fill="none" xmlns="http://www.w3.org/2000/svg">
<path d="M15.6636 4.22097C15.4818 3.54677 14.9364 3.01452 14.2455 2.82823C13 2.5 8 2.5 8 2.5C8 2.5 3 2.5 1.74545 2.82823C1.05455 3.00565 0.518182 3.5379 0.327273 4.22097C4.33488e-08 5.44516 0 8 0 8C0 8 -2.16744e-08 10.5548 0.336364 11.779C0.518182 12.4532 1.06364 12.9855 1.75455 13.1718C3 13.5 8 13.5 8 13.5C8 13.5 13 13.5 14.2545 13.1718C14.9455 12.9944 15.4818 12.4621 15.6727 11.779C16 10.5548 16 8 16 8C16 8 16 5.44516 15.6636 4.22097ZM6.36364 10.3242V5.67581L10.5455 8L6.36364 10.3242Z" fill="white"/>
</svg>
