<svg width="13" height="13" fill="none" xmlns="http://www.w3.org/2000/svg"><path d="M6.72 8.56c-.293 0-.44 0-.734-.144l.44-.43-.587-.573-4.994 4.87a.428.428 0 0 0 0 .574c.147.143.147.143.293.143.147 0 .294 0 .294-.143l3.966-3.868c.294.286.735.43 1.175.43h.294c.294 0 .44-.144.735-.287l-.735-.573H6.72Zm6.17-7.307c0-.143-.147-.143-.147-.143h-.44s-.148 0-.148.143L7.602 5.694l.587.573 2.644-2.578A17.313 17.313 0 0 1 8.777 6.84l.587.573c1.175-1.289 2.35-3.151 3.526-5.73.147-.143.147-.286 0-.43Z" fill="#36445E"/><path d="m8.924 8.13-.588-.717-.734-.573-1.47-1.432c.148-.287.295-.573.295-.86v-.286c0-.573-.294-1.146-.588-1.576L3.195.107a.455.455 0 0 0-.588 0 .428.428 0 0 0 0 .573l2.644 2.58c.147.286.294.573.294 1.003 0 .143 0 .43-.147.573L1.873 1.253c0-.143-.147-.143-.294-.143s-.147 0-.294.143a.428.428 0 0 0 0 .573l3.526 3.438c-.44.287-1.029.144-1.47-.143L.699 2.543a.455.455 0 0 0-.588 0 .428.428 0 0 0 0 .573l2.644 2.578c.44.43 1.028.573 1.47.573h.293c.294 0 .588-.143.881-.286l6.464 6.303c.146.143.146.143.293.143s.147 0 .294-.143a.428.428 0 0 0 0-.573L8.924 8.129Z" fill="#36445E"/></svg>