<svg width="13" height="13" fill="none" xmlns="http://www.w3.org/2000/svg"><g clip-path="url(#a)"><path d="M7.944 6.5c1.012-.578 1.734-1.733 1.734-3.033C9.678 1.589 8.088 0 6.21 0 4.333 0 2.744 1.589 2.744 3.467c0 1.3.723 2.455 1.734 3.033C1.878 7.222 0 9.678 0 12.422c0 .145.144.434.433.434.29 0 .434-.145.434-.434a5.486 5.486 0 0 1 5.489-5.489 5.486 5.486 0 0 1 5.488 5.49c0 .144.145.433.434.433.289 0 .433-.145.433-.434-.289-2.744-2.167-5.2-4.767-5.922ZM3.467 3.467c0-1.59 1.3-2.745 2.744-2.745 1.589 0 2.745 1.3 2.745 2.745 0 1.589-1.3 2.744-2.745 2.744-1.589 0-2.744-1.155-2.744-2.744Z" fill="#36445E"/></g><defs><clipPath id="a"><path fill="#fff" d="M0 0h13v13H0z"/></clipPath></defs></svg>