<svg width="15" height="15" fill="none" xmlns="http://www.w3.org/2000/svg"><g clip-path="url(#a)"><path d="M15 7.5a7.5 7.5 0 1 0-15 0 7.5 7.5 0 0 0 15 0Z" fill="#314262"/><path d="m6.71 8.427 3.434-3.686a.772.772 0 0 1 .563-.241c.21.002.41.092.559.252a.892.892 0 0 1 .234.6.893.893 0 0 1-.225.603l-4 4.294a.773.773 0 0 1-.565.251.773.773 0 0 1-.566-.251l-2.4-2.576a.863.863 0 0 1-.18-.28.913.913 0 0 1 .17-.945.799.799 0 0 1 .263-.188.752.752 0 0 1 .619.006.81.81 0 0 1 .26.192l1.834 1.97Z" fill="#fff"/></g><defs><clipPath id="a"><path fill="#fff" d="M0 0h15v15H0z"/></clipPath></defs></svg>