<svg width="12" height="12" fill="none" xmlns="http://www.w3.org/2000/svg"><g clip-path="url(#a)"><path d="M11.867 11.73s.133 0 0 0c.133 0 0 0 0 0v-.135l-3.6-8.629c0-.135-.134-.135-.4-.135-.134 0-.267 0-.267.135L5.333 8.36c0 .27.134.404.267.539h.133c.134 0 .267-.135.267-.27l2-4.584 3.067 7.416H.8L5.067 1.348 6 3.506c0 .134.133.27.267.27H6.4c.267-.27.267-.54.267-.675L5.467.27C5.333.135 5.333 0 5.2 0h-.267C4.8 0 4.8.135 4.8.27L0 11.595v.27L.133 12h11.6c.134 0 .134-.135.134-.27 0 .135 0 .135 0 0Z" fill="#36445E"/></g><defs><clipPath id="a"><path fill="#fff" d="M0 0h12v12H0z"/></clipPath></defs></svg>