<svg width="14" height="14" fill="none" xmlns="http://www.w3.org/2000/svg"><path d="M13.053 4.731v1.577H0V4.731h8.379c.33-.203.494-.443.494-.722 0-.456-.209-.823-.627-1.102-.418-.279-1.051-.418-1.9-.418-1.28 0-2.552.26-3.819.779L1.824.931C3.294.311 4.769 0 6.251 0c1.14 0 2.134.171 2.983.513.861.342 1.52.83 1.976 1.463.469.62.703 1.349.703 2.185 0 .203-.019.393-.057.57h1.197ZM0 7.353h13.053V8.93H4.997c-.532.24-.798.557-.798.95 0 .43.209.779.627 1.045.418.253 1.064.38 1.938.38.798 0 1.602-.101 2.413-.304.81-.203 1.514-.475 2.109-.817l.779 2.318c-.81.418-1.666.741-2.565.969-.9.215-1.786.323-2.66.323-1.165 0-2.179-.165-3.04-.494-.849-.342-1.507-.823-1.976-1.444-.456-.633-.684-1.368-.684-2.204 0-.253.032-.494.095-.722H0V7.353Z" fill="#314262"/></svg>