<svg width="13" height="13" fill="none" xmlns="http://www.w3.org/2000/svg"><g clip-path="url(#a)" fill="#36445E"><path d="M.722 9.822V7.655H0v2.022C0 11.556 1.444 13 3.178 13h2.166v-.723H3.178c-1.3 0-2.456-1.155-2.456-2.455Zm11.556 0c0 1.3-1.156 2.456-2.456 2.456H7.656V13h2.166C11.556 13 13 11.555 13 9.822V7.655h-.722v2.167ZM9.822 0H7.656v.722h2.166c1.3 0 2.456 1.156 2.456 2.456v2.166H13V3.178C13 1.444 11.556 0 9.822 0ZM0 3.178v2.166h.722V3.178c0-1.3 1.156-2.456 2.456-2.456h2.166V0H3.178C1.444 0 0 1.444 0 3.178Z"/></g><defs><clipPath id="a"><path fill="#fff" d="M0 0h13v13H0z"/></clipPath></defs></svg>