<svg width="24" height="24" fill="none" xmlns="http://www.w3.org/2000/svg"><path d="M20.5 18.5V18H22a.5.5 0 00.5-.5v-4.995a.5.5 0 00-.026-.147l-.043-.079-.02-.036-.013-.039a.11.11 0 00-.009-.018L20 9a2.5 2.5 0 00-2-1h-2.5V5.5A2.5 2.5 0 0013 3H4a2.5 2.5 0 00-2.5 2.5v12a.5.5 0 00.5.5h1.5v.5a2.5 2.5 0 005 0V18h7v.5a2.5 2.5 0 005 0zM3 17h-.5V5.5A1.5 1.5 0 014 4h9a1.5 1.5 0 011.5 1.5V17H7.999l-.149-.164a2.5 2.5 0 00-3.7 0L4.001 17H3zm13-5h-.5V9H18a1.5 1.5 0 011.2.6l1.2 1.6.6.8h-5zm5 1h.5v4h-1.501l-.15-.164a2.5 2.5 0 00-3.516-.183l-.833.744V13H21zM7.247 17.667a1.5 1.5 0 11-2.495 1.666 1.5 1.5 0 012.495-1.666zm12 0a1.5 1.5 0 11-2.495 1.667 1.5 1.5 0 012.495-1.667z" fill="#1B1C1E" stroke="#1B1C1E"/></svg>