<svg width="24" height="24" fill="none" xmlns="http://www.w3.org/2000/svg"><path d="M21.712 15.58l-4.52-4.51c.095-.46.141-.93.14-1.4a7.669 7.669 0 00-10.91-6.95 1 1 0 00-.29 1.62l4.35 4.34-1.8 1.8-4.34-4.35a1 1 0 00-.88-.27 1 1 0 00-.74.56 7.67 7.67 0 007 10.91c.47.001.94-.045 1.4-.14l4.51 4.52a1.002 1.002 0 001.639-.326 1 1 0 00-.22-1.094l-4.9-4.9a1 1 0 00-.95-.26 5.88 5.88 0 01-1.48.2 5.671 5.671 0 01-5.72-5.66 6 6 0 01.08-1l3.92 3.93a1 1 0 001.42 0l3.18-3.21a1 1 0 000-1.39l-3.89-3.92c.331-.054.666-.08 1-.08a5.67 5.67 0 015.66 5.67c-.003.5-.07.997-.2 1.48a1 1 0 00.26.95l4.9 4.9a1.004 1.004 0 101.42-1.42h-.04z" fill="#1B1C1E"/></svg>