<?xml version="1.0" encoding="iso-8859-1"?>
<!-- Generator: Adobe Illustrator 19.0.0, SVG Export Plug-In . SVG Version: 6.00 Build 0)  -->
<svg version="1.1" id="Capa_1" fill="#ffb228" xmlns="http://www.w3.org/2000/svg" xmlns:xlink="http://www.w3.org/1999/xlink" x="0px" y="0px"
	 viewBox="0 0 512 512" style="enable-background:new 0 0 512 512;" xml:space="preserve">
<g>
	<g>
		<g>
			<path d="M486.4,0H25.6C11.468,0.015,0.015,11.468,0,25.6v460.8c0.015,14.132,11.468,25.585,25.6,25.6h460.8
				c14.132-0.015,25.585-11.468,25.6-25.6V25.6C511.985,11.468,500.532,0.015,486.4,0z M494.933,486.4
				c-0.003,4.711-3.822,8.53-8.533,8.533H25.6c-4.711-0.003-8.53-3.822-8.533-8.533V25.6c0.003-4.711,3.822-8.53,8.533-8.533h460.8
				c4.711,0.003,8.53,3.822,8.533,8.533V486.4z"/>
			<path d="M469.333,34.133H42.667c-2.264-0.001-4.435,0.897-6.035,2.498s-2.499,3.772-2.498,6.035v426.667
				c-0.001,2.264,0.897,4.435,2.498,6.035c1.601,1.601,3.772,2.499,6.035,2.498h426.667c2.264,0.001,4.435-0.897,6.035-2.498
				c1.601-1.601,2.499-3.772,2.498-6.035V42.667c0.001-2.264-0.897-4.435-2.498-6.035C473.768,35.031,471.597,34.132,469.333,34.133
				z M354.482,51.2l31.235,36.45c10.79,12.563,19.027,27.109,24.25,42.825l5.25,15.758c1.442,4.294,1.109,8.986-0.925,13.033
				l-13.042,26.092c-3.091,6.331-9.799,10.066-16.808,9.358l-76.467-6.95c-0.584,0.001-1.166,0.064-1.736,0.188
				c-2.347-3.248-5.249-6.056-8.572-8.296l-25.532-17.023c5.749-3.815,10.205-9.284,12.782-15.685l8.1-20.292
				c4.206-10.421,2.986-22.248-3.258-31.592l-2-3.033c-1.243-1.83-2.661-3.535-4.233-5.092L319.267,51.2H354.482z M288.667,302.2
				l-13.564-13.564c1.206-1.232,2.317-2.553,3.322-3.953l24.542-36.808c2.466-3.71,4.184-7.865,5.058-12.233l4.183-20.892
				c0.607-3.098,0.783-6.265,0.522-9.41l70.161,6.377c1.067,0.092,2.125,0.142,3.175,0.142c2.445-0.025,4.879-0.313,7.262-0.858
				l6.996,48.992c0.734,5.044,2.579,9.863,5.4,14.108l7.958,11.942c1.025,1.475,2.163,2.867,3.406,4.164l-25.114,50.227
				c-2.875,5.797-8.796,9.455-15.266,9.433h-14.583c-6.934,0.009-13.797-1.4-20.167-4.142l-43.292-18.549v-0.842
				C298.642,317.286,295.049,308.613,288.667,302.2z M172.375,261.125l-17.047-22.727c4.403-5.853,6.791-12.975,6.805-20.299
				v-17.571c0.794,0.056,1.583,0.146,2.383,0.146c3.194,0.002,6.372-0.444,9.442-1.325l39.925-11.45
				c1.088-0.292,2.159-0.642,3.208-1.05c0.117-0.05,0.942-0.358,1.05-0.408l35.871-15.377l34.187,22.794
				c5.769,3.822,8.646,10.759,7.275,17.542l-4.183,20.892c-0.438,2.187-1.299,4.268-2.533,6.125l-24.533,36.8
				c-2.854,4.305-7.513,7.075-12.658,7.525L179.2,289.32v-7.72C179.18,274.22,176.787,267.041,172.375,261.125z M178.952,306.484
				l74.165-6.742c2.527-0.232,5.021-0.742,7.436-1.522l16.047,16.047c3.189,3.208,4.986,7.543,5,12.067v17.492
				c-0.005,2.649-0.621,5.261-1.8,7.633L263.975,383.1c-2.875,5.797-8.796,9.456-15.267,9.433h-46.4
				c-2.922-0.047-5.792-0.775-8.383-2.125l-34.626-13.352c-1.326-6.511-4.537-12.489-9.233-17.19l-11.351-11.351l25.926-18.149
				C172.587,324.799,177.789,316.116,178.952,306.484z M187.733,74.733V51.2h107.4l-26.83,26.83c-2.925-0.807-5.944-1.22-8.979-1.23
				h-71.799C187.569,76.107,187.733,75.43,187.733,74.733z M181.826,93.867h77.5c5.706-0.008,11.038,2.842,14.2,7.592l2.017,3.058
				c3.129,4.667,3.741,10.583,1.633,15.792l-8.117,20.325c-1.671,4.183-4.935,7.532-9.075,9.308l-48.108,20.634l-0.808,0.3
				c-0.527,0.216-1.067,0.399-1.617,0.55l-40.183,11.517c-7.438,2.043-15.333-1.058-19.392-7.617l-10.055-12.271
				c3.408-5.382,5.227-11.617,5.247-17.988V138.6c0.014-4.523,1.811-8.859,5-12.067l27.667-27.667
				C179.255,97.335,180.625,95.661,181.826,93.867z M51.2,51.2h119.467v23.533c-0.014,4.523-1.811,8.859-5,12.067L138,114.467
				c-6.382,6.413-9.976,15.086-10,24.133v6.467c-0.012,9.421-7.646,17.054-17.067,17.067H92.425c-3.094,0-6.13-0.841-8.783-2.433
				L51.2,140.235V51.2z M51.2,160.139l23.658,14.195c5.306,3.185,11.378,4.867,17.567,4.867h18.508
				c5.773-0.038,11.439-1.558,16.456-4.414l8.786,10.681c2.439,3.658,5.562,6.81,9.198,9.282c-0.15,0.495-0.253,1.003-0.306,1.518
				V218.1c0.013,5.185-2.348,10.092-6.409,13.317l-26.05,20.85c-3.028,2.415-6.785,3.731-10.658,3.733H51.2V160.139z M51.2,273.067
				h50.75c7.749-0.007,15.267-2.642,21.325-7.475l19.451-15.562l15.991,21.32c2.207,2.963,3.405,6.556,3.417,10.25v20.808
				c-0.006,5.565-2.72,10.778-7.275,13.975L87.05,363.85c-2.866,2.011-6.282,3.088-9.783,3.083H51.2V273.067z M138,457.267
				l3.533,3.533H51.2V384h26.067c7.002,0.01,13.836-2.144,19.567-6.167l27.686-19.381L138,371.933c6.65,6.67,6.65,17.463,0,24.133
				c-6.382,6.413-9.976,15.086-10,24.133v12.933C128.024,442.181,131.618,450.854,138,457.267z M251.738,460.8h-86.071l-15.6-15.6
				c-3.189-3.208-4.986-7.543-5-12.067V420.2c0.014-4.523,1.811-8.859,5-12.067c3.683-3.73,6.445-8.268,8.068-13.252L187.05,406
				c4.74,2.362,9.962,3.595,15.258,3.6h46.4c3.328-0.005,6.638-0.493,9.825-1.45L271.458,434c0.048,0.096,0.126,0.176,0.176,0.272
				L251.738,460.8z M273.063,460.8l10.079-13.439l16.795,13.439H273.063z M327.267,460.8l-35.95-28.758
				c-1.923-1.543-3.492-3.481-4.6-5.683l-13.555-27.117c2.45-2.508,4.5-5.378,6.08-8.508l15.825-31.65
				c2.035-4.201,3.188-8.774,3.387-13.437l36.78,15.762c8.493,3.657,17.645,5.537,26.892,5.525h14.583
				c3.593-0.015,7.16-0.595,10.573-1.719l34.386,34.386c0.922,0.846,1.892,1.64,2.904,2.376L387.805,460.8H327.267z M460.8,460.8
				h-52.872l32.346-51.754c1.823,0.337,3.672,0.522,5.526,0.554h15V460.8z M460.8,392.533h-15c-4.523-0.014-8.859-1.811-12.067-5h0
				l-31.764-31.764c2.099-2.316,3.873-4.907,5.272-7.703l24.323-48.646c1.252,0.462,2.529,0.85,3.827,1.163l25.408,5.079V392.533z
				 M460.8,288.259l-22.059-4.409c-4.436-0.901-8.338-3.515-10.858-7.275l-7.958-11.95c-1.413-2.12-2.336-4.528-2.7-7.05
				l-7.708-53.983c-0.089-0.309-0.197-0.612-0.322-0.907c2.998-2.769,5.478-6.052,7.322-9.693l13.041-26.1
				c0.726-1.539,1.336-3.129,1.825-4.758H460.8V288.259z M460.8,145.067h-28.427c-0.232-1.427-0.554-2.839-0.964-4.225
				l-5.258-15.767c-5.914-17.813-15.25-34.299-27.483-48.533L376.946,51.2H460.8V145.067z"/>
		</g>
	</g>
</g>
<g>
</g>
<g>
</g>
<g>
</g>
<g>
</g>
<g>
</g>
<g>
</g>
<g>
</g>
<g>
</g>
<g>
</g>
<g>
</g>
<g>
</g>
<g>
</g>
<g>
</g>
<g>
</g>
<g>
</g>
</svg>
