<svg height="368pt" fill="#ffb228" viewBox="0 0 368 368" width="368pt" xmlns="http://www.w3.org/2000/svg"><path d="m363.054688.617188c-.976563-.402344-2.015626-.617188-3.054688-.617188h-352c-1.039062 0-2.078125.214844-3.054688.617188-1.960937.816406-3.511718 2.367187-4.328124 4.328124-.402344.976563-.617188 2.015626-.617188 3.054688v352c0 1.039062.214844 2.078125.617188 3.054688.808593 1.960937 2.367187 3.519531 4.328124 4.328124.976563.402344 2.015626.617188 3.054688.617188h128c1.039062 0 2.078125-.214844 3.054688-.617188 1.960937-.808593 3.519531-2.367187 4.328124-4.328124.402344-.976563.617188-2.015626.617188-3.054688v-216h216c1.039062 0 2.078125-.214844 3.054688-.617188 1.953124-.808593 3.511718-2.367187 4.328124-4.328124.402344-.976563.617188-2.015626.617188-3.054688v-128c0-1.039062-.214844-2.078125-.617188-3.054688-.816406-1.960937-2.367187-3.511718-4.328124-4.328124zm-70.367188 63.382812h-217.375l-48-48h313.375zm-228.6875 11.3125v217.375l-48 48v-313.375zm8 232 44.6875 44.6875h-89.375zm8-14.625v-201.375l48 48v201.375zm59.3125-164.6875-48-48h201.375l48 48zm168-56 44.6875-44.6875v89.375zm0 0"/></svg>