<?xml version="1.0" encoding="iso-8859-1"?>
<!-- Generator: Adobe Illustrator 19.0.0, SVG Export Plug-In . SVG Version: 6.00 Build 0)  -->
<svg version="1.1" id="Layer_1" fill="#ffb228" xmlns="http://www.w3.org/2000/svg" xmlns:xlink="http://www.w3.org/1999/xlink" x="0px" y="0px"
	 viewBox="0 0 512 512" style="enable-background:new 0 0 512 512;" xml:space="preserve">
<g>
	<g>
		<path d="M501.106,340.864h-59.915V206.939c0-49.458-19.262-95.965-54.239-130.955C351.965,41.01,305.458,21.747,256,21.747
			c-102.115,0-185.191,83.077-185.191,185.191v133.924H10.894C4.878,340.863,0,345.741,0,351.757s4.878,10.894,10.894,10.894h11.983
			v116.709c0,6.015,4.878,10.894,10.894,10.894h47.932h43.574H256h130.723h43.574h47.932c6.015,0,10.894-4.878,10.894-10.894
			V362.651h11.983c6.015,0,10.894-4.878,10.894-10.894S507.122,340.864,501.106,340.864z M70.809,468.466H44.664V362.651h26.145
			V468.466z M114.383,468.466H92.596V362.651h21.787V468.466z M245.106,468.466H136.17V362.651h108.936V468.466z M245.106,340.864
			H136.17v-45.305h108.936V340.864z M245.106,273.771H136.17v-66.832c0-62.404,47.945-113.82,108.936-119.34V273.771z
			 M375.83,468.466H266.894V362.651H375.83V468.466z M375.83,340.864H266.894v-45.305H375.83V340.864z M375.83,273.772H266.894
			V87.601c60.991,5.519,108.936,56.935,108.936,119.34V273.772z M419.404,468.466h-21.787V362.651h21.787V468.466z M419.404,340.863
			h-21.787v-56.199v-77.726c0-78.089-63.528-141.617-141.617-141.617s-141.617,63.528-141.617,141.617v77.726v56.199H92.596V206.939
			c0-90.101,73.303-163.404,163.404-163.404c43.641,0,84.676,16.996,115.546,47.855c30.862,30.874,47.858,71.91,47.858,115.55
			V340.863z M467.336,468.466h-26.145V362.651h26.145V468.466z"/>
	</g>
</g>
<g>
	<g>
		<path d="M203.894,180.171c-5.311-2.826-11.909-0.81-14.734,4.502l-24.482,46.024c-2.826,5.312-0.81,11.909,4.501,14.734
			c1.63,0.867,3.381,1.278,5.107,1.278c3.898,0,7.669-2.098,9.628-5.78l24.482-46.024
			C211.221,189.593,209.205,182.996,203.894,180.171z"/>
	</g>
</g>
<g>
	<g>
		<path d="M225.04,158.523c-0.142-0.686-0.349-1.373-0.621-2.037c-0.272-0.654-0.61-1.285-1.002-1.874
			c-0.403-0.599-0.861-1.156-1.362-1.657s-1.057-0.959-1.657-1.362c-0.587-0.391-1.219-0.73-1.874-0.99
			c-0.663-0.272-1.351-0.49-2.037-0.621c-1.405-0.283-2.854-0.283-4.259,0c-0.697,0.131-1.384,0.349-2.036,0.621
			c-0.664,0.26-1.296,0.599-1.885,0.99c-0.599,0.403-1.155,0.861-1.656,1.362c-0.501,0.501-0.96,1.058-1.351,1.657
			c-0.392,0.588-0.73,1.22-1.002,1.874c-0.272,0.665-0.479,1.351-0.621,2.037c-0.142,0.708-0.218,1.427-0.218,2.135
			c0,0.708,0.076,1.427,0.218,2.124c0.142,0.697,0.349,1.383,0.621,2.037c0.272,0.663,0.61,1.295,1.002,1.884
			c0.391,0.599,0.85,1.156,1.351,1.657s1.057,0.959,1.656,1.35c0.588,0.392,1.22,0.731,1.885,1.003
			c0.654,0.272,1.339,0.478,2.036,0.62c0.698,0.142,1.417,0.218,2.124,0.218c0.719,0,1.428-0.076,2.135-0.218
			c0.686-0.142,1.374-0.348,2.037-0.62c0.655-0.272,1.286-0.611,1.874-1.003c0.6-0.391,1.156-0.849,1.657-1.35
			s0.959-1.058,1.362-1.657c0.392-0.588,0.73-1.22,1.002-1.884c0.272-0.655,0.479-1.34,0.621-2.037
			c0.142-0.698,0.206-1.416,0.206-2.124C225.246,159.95,225.181,159.231,225.04,158.523z"/>
	</g>
</g>
<g>
	<g>
		<path d="M350.205,151.04c-5.312-2.83-11.908-0.81-14.732,4.501l-24.483,46.023c-2.826,5.312-0.81,11.908,4.501,14.733
			c1.63,0.868,3.381,1.279,5.107,1.279c3.898,0,7.668-2.098,9.627-5.78l24.483-46.023
			C357.531,160.461,355.516,153.866,350.205,151.04z"/>
	</g>
</g>
<g>
	<g>
		<path d="M315.707,233.688c-0.141-0.696-0.348-1.381-0.62-2.047c-0.272-0.655-0.611-1.285-1.003-1.874
			c-0.402-0.6-0.859-1.156-1.362-1.657c-2.025-2.026-4.836-3.192-7.701-3.192c-2.865,0-5.665,1.165-7.702,3.192
			c-0.501,0.501-0.959,1.057-1.351,1.657c-0.391,0.588-0.73,1.219-1.002,1.874c-0.272,0.664-0.478,1.351-0.62,2.048
			c-0.143,0.697-0.218,1.416-0.218,2.124c0,0.707,0.075,1.427,0.218,2.124c0.142,0.697,0.347,1.383,0.62,2.036
			c0.272,0.664,0.611,1.296,1.002,1.885c0.392,0.599,0.85,1.155,1.351,1.656c0.501,0.502,1.057,0.96,1.657,1.351
			c0.588,0.403,1.219,0.73,1.884,1.002c0.655,0.272,1.34,0.49,2.037,0.632c0.697,0.142,1.416,0.207,2.124,0.207
			c2.876,0,5.676-1.166,7.701-3.193c0.502-0.501,0.96-1.057,1.362-1.656c0.392-0.588,0.731-1.22,1.003-1.885
			c0.272-0.654,0.478-1.339,0.62-2.036c0.142-0.698,0.207-1.417,0.207-2.124C315.914,235.104,315.847,234.384,315.707,233.688z"/>
	</g>
</g>
<g>
</g>
<g>
</g>
<g>
</g>
<g>
</g>
<g>
</g>
<g>
</g>
<g>
</g>
<g>
</g>
<g>
</g>
<g>
</g>
<g>
</g>
<g>
</g>
<g>
</g>
<g>
</g>
<g>
</g>
</svg>
