<?xml version="1.0"?>
<svg xmlns="http://www.w3.org/2000/svg" id="outline" fill="#ffb228" viewBox="0 0 512 512" width="512" height="512"><path d="M344,320H295.452a45.75644,45.75644,0,0,1,12.12609-8.84473,62.05548,62.05548,0,0,0,27.57715-27.57715l16-32-14.31054-7.15624-16,32a45.95568,45.95568,0,0,1-20.42285,20.42285A62.11256,62.11256,0,0,0,275.2937,320H256.24622l1.90759-7.63086a37.31138,37.31138,0,0,1,22.28271-25.52734A53.33048,53.33048,0,0,0,310.5,256.11719l4.99072-13.3086-14.98144-5.61718L295.51855,250.5a37.29808,37.29808,0,0,1-21.02392,21.48633,53.35315,53.35315,0,0,0-31.86328,36.50195L239.7536,320H219.544l12.6015-33.60352a39.4702,39.4702,0,0,1,22.248-22.73828,49.05422,49.05422,0,0,0,24.60108-21.6748l-13.98926-7.76563a33.00532,33.00532,0,0,1-16.55371,14.585,55.50514,55.50514,0,0,0-31.2876,31.97559L202.45605,320H192V297.45068l16.14551-43.0542a39.47079,39.47079,0,0,1,22.24756-22.73828,48.82924,48.82924,0,0,0,5.47509-2.59277l-7.73632-14.00586a32.89938,32.89938,0,0,1-3.68018,1.74316,55.50514,55.50514,0,0,0-31.2876,31.97559L192,251.88257V218.42236l5.82324-8.73584a33.125,33.125,0,0,1,19.564-13.78711,49.15489,49.15489,0,0,0,12.35156-4.94238L221.84131,177.043a33.21419,33.21419,0,0,1-8.3335,3.334A49.09641,49.09641,0,0,0,192,192.01953V172.79541a105.96114,105.96114,0,0,0,35.37793-32.26123l-13.18164-9.06836A89.915,89.915,0,0,1,182.04645,160H161.76923a91.759,91.759,0,0,0,30.91925-27.36133l-13.03614-9.27734A75.68376,75.68376,0,0,1,151.937,147.08789L126.11188,160H94.1297l5.80145-9.66895A29.66526,29.66526,0,0,1,125.2417,136a45.733,45.733,0,0,0,36.41309-18.207A34.64984,34.64984,0,0,1,189.2417,104H232V88H189.2417a50.7275,50.7275,0,0,0-40.38721,20.19336A29.6567,29.6567,0,0,1,125.2417,120a45.74575,45.74575,0,0,0-39.03027,22.09863L75.47046,160H24a8.00008,8.00008,0,0,0-8,8V488a8.00008,8.00008,0,0,0,8,8H344a8.00008,8.00008,0,0,0,8-8V328A8.00008,8.00008,0,0,0,344,320ZM32,176H176V320H32Zm0,160H176V480H32ZM336,480H192V336H336Z"/><path d="M489.45215,126.4668a18.00432,18.00432,0,0,0-30.33838-9.23926l-1.61768-11.32422A20.95592,20.95592,0,0,0,436.853,88,20.73924,20.73924,0,0,0,424,92.45459V48a8.00008,8.00008,0,0,0-8-8H256a8.00008,8.00008,0,0,0-8,8V208a8.00008,8.00008,0,0,0,8,8h62.12329a22.03087,22.03087,0,0,0,3.14233,2.73535L368,252.11719V296a8.00008,8.00008,0,0,0,8,8h16V488a8.00008,8.00008,0,0,0,8,8h72a8.00008,8.00008,0,0,0,8-8V304h8a8.00008,8.00008,0,0,0,8-8V160a8.03038,8.03038,0,0,0-.15527-1.56934ZM312.02539,200H264V56H408V82.85352A22.292,22.292,0,0,0,397.126,80a20.24034,20.24034,0,0,0-14.40674,5.96777,20.47088,20.47088,0,0,0-5.76367,17.28907l1.57617,11.0332a18.48038,18.48038,0,0,0-32.56592,15.43359l11.4165,51.376-10.5581-2.64063a32.79818,32.79818,0,0,0-22.59326,2.48145A21.98682,21.98682,0,0,0,312.02539,200ZM328,200.73047a6.093,6.093,0,0,1,3.38574-5.47949,16.77664,16.77664,0,0,1,11.5586-1.26953l17.89685,4.4746,4.59533,32.16724-34.87011-24.90747A6.13888,6.13888,0,0,1,328,200.73047ZM464,480H408V304h56Zm16-192H384V248a7.97714,7.97714,0,0,0-.08875-1.13062l.00818-.00122-8-56-.01562.0022c-.02881-.2019-.04956-.40454-.09424-.60571L361.585,126.252a2.48058,2.48058,0,0,1,4.54883-1.81347l19.00635,31.67773a7.99993,7.99993,0,0,0,14.77929-5.24805l-7.125-49.875a4.39641,4.39641,0,0,1,1.23828-3.71191A4.34612,4.34612,0,0,1,397.126,96a6.442,6.442,0,0,1,6.16894,4.6543l13.0127,45.54394A8.00015,8.00015,0,0,0,432,144V108.85254a4.85305,4.85305,0,0,1,9.65723-.68652l6.42334,44.96484a8,8,0,0,0,15.68066.80957l6.10693-24.42773a1.99632,1.99632,0,0,1,3.89454.09277L480,160.792Z"/><path d="M48,200v72H64V208H88V192H56A8.00008,8.00008,0,0,0,48,200Z"/><rect x="104" y="192" width="16" height="16"/><path d="M48,360v72H64V368H88V352H56A8.00008,8.00008,0,0,0,48,360Z"/><rect x="104" y="352" width="16" height="16"/><path d="M224,368h24V352H216a8.00008,8.00008,0,0,0-8,8v72h16Z"/><rect x="264" y="352" width="16" height="16"/><path d="M280,80v72h16V88h24V72H288A8.00008,8.00008,0,0,0,280,80Z"/><rect x="336" y="72" width="16" height="16"/></svg>
