<svg version="1.1" id="Layer_1" xmlns="http://www.w3.org/2000/svg" x="0" y="0" viewBox="0 0 512 512" xml:space="preserve"><style>.st0{fill:#763a9c}</style><g id="Слой_1"><path class="st0" d="M193.8 499c-1.9-1.6-47.9-38.9-94.4-92.3C35.4 333.2 3 267.4 3 211.2v-5.7C3 94.4 93.4 4 204.5 4S406 94.4 406 205.5v5.7c0 2.6-.1 5.4-.2 8.2l-34.6-31.6c-9-85.5-80.5-149.9-166.7-149.9-92.4 0-167.6 75.2-167.6 167.6v5.7c0 42 22.8 92.1 67.8 148.9 35.4 44.8 75.4 82.1 96.8 100.9v44.2l-7.7-6.2zm133.4-127.9h59.9V431h-59.9z"/><path class="st0" d="M293.5 508.8c-28.2 0-51.1-22.9-51.1-51.1v-70.9l-14 12.8-22.8-25 151.1-137.9 151.1 137.9-22.8 25-14-12.8v70.9c0 28.2-22.9 51.1-51.1 51.1H293.5zm-17.2-152.9v101.8c0 9.5 7.7 17.2 17.2 17.2h126.3c9.5 0 17.2-7.7 17.2-17.2V355.9l-80.4-73.3-80.3 73.3z"/><path d="M204.5 284c-43.3 0-78.5-35.2-78.5-78.5s35.2-78.5 78.5-78.5 78.5 35.2 78.5 78.5-35.2 78.5-78.5 78.5zm0-127c-26.7 0-48.5 21.8-48.5 48.5s21.8 48.5 48.5 48.5 48.5-21.8 48.5-48.5-21.8-48.5-48.5-48.5z" fill="#b690d1"/></g></svg>