<svg xmlns="http://www.w3.org/2000/svg" viewBox="0 0 512 512"><path d="M508.65 115.988L363.186 261.451 505.061 403.43c4.295-7.385 6.939-15.85 6.939-24.992V133.563c0-6.206-1.278-12.087-3.35-17.575zm-46.737-32.512H50.087c-8.327 0-16.066 2.236-22.982 5.847L245.76 307.976c6.344 6.344 17.363 6.344 23.596 0l217.626-217.52c-7.402-4.323-15.894-6.98-25.069-6.98zM4.201 113.611C1.527 119.733 0 126.465 0 133.563v244.875c0 8.997 2.573 17.327 6.743 24.632L150.15 259.56 4.201 113.611z"/><path d="M339.478 285.159l-46.414 46.525c-19.496 19.275-51.084 19.591-70.901 0l-48.306-48.417-141.851 141.75c5.625 2.192 11.69 3.507 18.081 3.507h411.826c6.235 0 12.146-1.284 17.657-3.376L339.478 285.159z"/></svg>