<svg xmlns="http://www.w3.org/2000/svg" viewBox="0 0 512 512" fill="#a9a7a9"><path class="st0" d="M510.9 396.7c-1.4-4.4-10.7-10.8-27.6-19.3-4.6-2.7-11.1-6.3-19.6-10.9-8.5-4.6-16.2-8.9-23.1-12.7-6.9-3.9-13.4-7.6-19.5-11.3-1-.7-4-2.8-9.1-6.4-5.1-3.5-9.4-6.1-12.9-7.8-3.5-1.7-7-2.5-10.4-2.5-4.8 0-10.9 3.5-18.2 10.4-7.3 6.9-13.9 14.4-20 22.6-6.1 8.1-12.5 15.6-19.3 22.5-6.8 6.9-12.4 10.4-16.7 10.4-2.2 0-4.9-.6-8.2-1.8-3.3-1.2-5.8-2.2-7.5-3.1-1.7-.9-4.6-2.5-8.7-5.1-4.1-2.5-6.4-3.9-6.9-4.2-33.2-18.4-61.7-39.5-85.5-63.3-23.8-23.8-44.8-52.2-63.3-85.5-.2-.5-1.6-2.8-4.2-6.9-2.5-4.1-4.2-7-5.1-8.7-.8-1.7-1.9-4.2-3.1-7.5-1.2-3.3-1.8-6-1.8-8.2 0-4.4 3.5-9.9 10.4-16.7 6.9-6.8 14.4-13.2 22.5-19.3 8.1-6.1 15.6-12.7 22.5-20 6.9-7.3 10.4-13.3 10.4-18.2 0-3.4-.8-6.8-2.5-10.4-1.7-3.5-4.3-7.8-7.8-12.9-3.5-5.1-5.6-8.1-6.4-9.1-3.6-6.1-7.4-12.5-11.3-19.4-3.9-6.9-8.1-14.6-12.7-23.1-4.6-8.5-8.2-15-10.9-19.6-8.5-17-14.9-26.2-19.3-27.6C113.6.4 111 0 107.6 0c-6.5 0-15 1.2-25.6 3.6-10.5 2.4-18.8 5-24.9 7.6-12.1 5.1-25 19.9-38.5 44.4C6.2 78.4 0 101 0 123.3c0 6.5.4 12.9 1.3 19.1.8 6.2 2.4 13.2 4.5 20.9 2.2 7.8 3.9 13.5 5.3 17.3 1.3 3.8 3.8 10.5 7.5 20.2 3.6 9.7 5.8 15.6 6.5 17.8 8.5 23.8 18.5 45 30.2 63.6 19.1 31 45.3 63.1 78.4 96.2 33.1 33.1 65.2 59.2 96.2 78.4 18.7 11.6 39.9 21.7 63.6 30.2 2.2.7 8.1 2.9 17.8 6.5 9.7 3.6 16.4 6.1 20.2 7.5 3.8 1.3 9.5 3.1 17.3 5.3 7.8 2.2 14.7 3.7 20.9 4.6 6.2.8 12.5 1.3 19.1 1.3 22.3 0 44.8-6.2 67.6-18.5 24.5-13.6 39.3-26.4 44.4-38.6 2.7-6.1 5.2-14.4 7.6-24.9 2.4-10.5 3.6-19.1 3.6-25.6 0-3.6-.4-6.2-1.1-7.9z"/></svg>