<svg version="1.1" id="Слой_1" xmlns="http://www.w3.org/2000/svg" x="0" y="0" viewBox="0 0 512 512" xml:space="preserve"><style>.st1{fill:#b690d1}</style><g id="surface1"><path d="M473.5 138.9v-.4c-.2-4.9-.4-10.1-.5-15.9-.4-28.2-22.9-51.6-51.1-53.2C363.1 66.2 317.5 47 278.6 9l-.3-.3c-12.7-11.6-31.8-11.6-44.5 0l-.4.3C194.5 47 149 66.2 90.1 69.5 61.9 71 39.4 94.4 39 122.6c-.1 5.8-.2 11-.5 15.9v.9c-1.1 60-2.6 134.7 22.4 202.5 13.7 37.3 34.6 69.7 61.9 96.3 31.1 30.3 71.8 54.4 121 71.6 1.6.6 3.3 1 5 1.4 2.4.5 4.8.7 7.2.7s4.8-.2 7.2-.7c1.7-.3 3.4-.8 5-1.4 49.2-17.2 89.9-41.3 120.9-71.6 27.3-26.7 48.1-59.1 61.9-96.4 25-67.9 23.6-142.7 22.5-202.9zm-50.7 192.6c-26.4 71.5-80.2 120.6-164.5 150-.3.1-.6.2-1 .3-.9.2-1.8.2-2.6 0l-.9-.3c-84.4-29.4-138.3-78.5-164.6-150-23-62.5-21.7-131.1-20.6-191.6v-.3c.2-5.2.4-10.6.5-16.6.2-12.5 10.2-22.9 22.7-23.6 33.3-1.9 62.6-8.3 89.5-19.7s50.7-27.4 72.9-49c1.1-1 2.6-1 3.7 0 22.2 21.6 46.1 37.6 72.9 49 26.9 11.4 56.2 17.8 89.5 19.7 12.6.7 22.5 11.1 22.7 23.6.1 6 .2 11.5.5 16.6 1.1 60.7 2.4 129.3-20.7 191.9z" fill="#763a9c"/><path class="st1" d="M256 128.4c-70.4 0-127.6 57.2-127.6 127.6S185.6 383.6 256 383.6 383.6 326.4 383.6 256c0-70.3-57.2-127.6-127.6-127.6zm0 225.2c-53.8 0-97.6-43.8-97.6-97.6s43.8-97.6 97.6-97.6 97.6 43.8 97.6 97.6-43.8 97.6-97.6 97.6z"/><path class="st1" d="M292.7 216.4l-59.3 59.3-16.1-16.1c-5.9-5.9-15.4-5.9-21.2 0-5.9 5.9-5.9 15.4 0 21.2l26.7 26.7c2.9 2.9 6.8 4.4 10.6 4.4s7.7-1.5 10.6-4.4l69.9-69.9c5.9-5.9 5.9-15.4 0-21.2-5.9-5.9-15.4-5.9-21.2 0z"/></g></svg>