<svg xmlns="http://www.w3.org/2000/svg" viewBox="0 0 512 512"><path d="M119.5 349.9c-14.1 0-25.6 11.5-25.6 25.6s11.5 25.6 25.6 25.6 25.6-11.5 25.6-25.6c0-14.2-11.5-25.6-25.6-25.6zm0 34.1c-4.7 0-8.5-3.8-8.5-8.5s3.8-8.5 8.5-8.5 8.5 3.8 8.5 8.5-3.8 8.5-8.5 8.5zm273-34.1c-14.1 0-25.6 11.5-25.6 25.6s11.5 25.6 25.6 25.6 25.6-11.5 25.6-25.6c0-14.2-11.4-25.6-25.6-25.6zm0 34.1c-4.7 0-8.5-3.8-8.5-8.5s3.8-8.5 8.5-8.5 8.5 3.8 8.5 8.5c.1 4.7-3.8 8.5-8.5 8.5z" fill="#b690d1"/><path d="M505.5 228.4l-58.8-66.2c-4.9-5.5-11.9-8.6-19.2-8.6h-77.7v-51.2c0-14.1-11.5-25.6-25.6-25.6H25.6C11.5 76.8 0 88.3 0 102.4v221.9c0 2.3.9 4.4 2.5 6s3.8 2.5 6 2.5H17v25.6c0 14.1 11.5 25.6 25.6 25.6h17.7c4.2 29.4 29.4 51.2 59.1 51.2s54.8-21.8 59.1-51.2h155c4.2 29.4 29.4 51.2 59.1 51.2s54.8-21.8 59.1-51.2h34.8c14.1 0 25.6-11.5 25.6-25.6v-113c-.1-6.3-2.4-12.3-6.6-17zM17.1 315.7V102.4c0-4.7 3.8-8.5 8.5-8.5h298.7c4.7 0 8.5 3.8 8.5 8.5v213.3H17.1zm43.3 51.2H42.7c-4.7 0-8.5-3.8-8.5-8.5v-25.6h43.6c-9.4 9.2-15.5 21.2-17.4 34.1zm59.1 51.2c-23.6 0-42.7-19.1-42.7-42.7s19.1-42.7 42.7-42.7 42.7 19.1 42.7 42.7c-.1 23.6-19.2 42.7-42.7 42.7zm85.3-51.2h-26.3c-1.9-13-8-25-17.3-34.1h43.6v34.1zm76.8 0h-59.7v-34.1h59.7v34.1zm51.9 0h-34.8v-34.1h52.1c-9.4 9.2-15.5 21.2-17.3 34.1zm59 51.2c-23.6 0-42.7-19.1-42.7-42.7s19.1-42.7 42.7-42.7 42.7 19.1 42.7 42.7-19.1 42.7-42.7 42.7zm102.4-59.7c0 4.7-3.8 8.5-8.5 8.5h-34.8c-4.3-29.4-29.4-51.1-59.1-51.2h-42.7v-145H384V256c0 14.1 11.5 25.6 25.6 25.6h85.3v76.8zm0-93.9h-85.3c-4.7 0-8.5-3.8-8.5-8.5v-85.3h26.5c2.5 0 4.8 1 6.4 2.9l58.8 66.2c1.4 1.6 2.2 3.6 2.2 5.7l-.1 19z" fill="#763a9c"/></svg>