<svg width="16" height="16" fill="none" xmlns="http://www.w3.org/2000/svg"><path fill-rule="evenodd" clip-rule="evenodd" d="M15.337 10.79c.21.251.41.511.562.804.216.415.02.873-.355.898l-2.33-.002c-.602.05-1.082-.19-1.485-.6-.322-.326-.621-.674-.932-1.011a2.204 2.204 0 00-.42-.37c-.317-.206-.593-.143-.775.186-.186.336-.228.707-.246 1.082-.025.545-.19.689-.742.713-1.178.056-2.296-.122-3.335-.712-.916-.521-1.626-1.257-2.245-2.089C1.831 8.07.91 6.287.081 4.456c-.187-.413-.05-.634.408-.642a63.66 63.66 0 012.282 0c.309.004.513.18.633.47A14.034 14.034 0 004.95 7.133c.169.236.34.472.585.638.27.184.476.123.603-.176.08-.19.116-.394.134-.598.06-.699.068-1.397-.037-2.094-.065-.435-.312-.716-.748-.799-.223-.042-.19-.124-.082-.25.187-.218.363-.354.715-.354h2.634c.415.081.507.267.564.681L9.32 7.09c-.005.16.08.637.372.743.232.076.386-.11.526-.256.63-.665 1.08-1.452 1.483-2.266.178-.358.332-.73.48-1.101.11-.276.284-.412.596-.406l2.535.002c.075 0 .152.002.224.014.428.072.545.255.413.67-.208.65-.613 1.192-1.008 1.737-.423.582-.875 1.143-1.295 1.728-.385.534-.354.804.124 1.268.531.515 1.091 1 1.567 1.566z" fill="#fff"/></svg>