<svg width="341" height="427" fill="none" xmlns="http://www.w3.org/2000/svg"><path d="M226.769 0H296v69.23h-69.231V0zM196 69.23h30.769V100H196V69.23zM109.231 352H40v-69.231h69.231V352zM140 282.769h-30.769V252H140v30.769z" fill="#FFF0EA"/><path fill-rule="evenodd" clip-rule="evenodd" d="M50.483 170.412c.26 4.974 3.165 10.005 8.976 20.069l77.468 134.178c5.81 10.065 8.715 15.095 12.892 17.808a20.757 20.757 0 0012.387 3.319c4.976-.26 10.008-3.165 20.072-8.976l80.266-46.341c10.064-5.811 15.096-8.716 17.809-12.895a20.75 20.75 0 003.319-12.387c-.26-4.974-3.164-10.005-8.975-20.069l-77.468-134.179c-5.811-10.064-8.715-15.095-12.893-17.807a20.75 20.75 0 00-12.387-3.32c-4.975.26-10.007 3.166-20.071 8.976L71.611 145.13c-10.064 5.81-15.096 8.716-17.809 12.895a20.752 20.752 0 00-3.319 12.387zm23.262 1.806c.087 1.658 1.056 3.337 2.993 6.692l9.683 16.77c1.937 3.355 2.906 5.034 4.298 5.938a6.927 6.927 0 004.13 1.106c1.657-.087 3.334-1.055 6.689-2.992l82.663-47.725c3.354-1.937 5.031-2.905 5.936-4.298a6.934 6.934 0 001.107-4.129c-.052-.992-.42-1.992-1.122-3.353a42.293 42.293 0 00-.697-1.286c-.342-.61-.733-1.289-1.174-2.052l-9.683-16.771c-1.339-2.319-2.215-3.837-3.09-4.853a5.644 5.644 0 00-1.208-1.085 6.937 6.937 0 00-4.13-1.106c-1.658.087-3.335 1.056-6.689 2.993l-82.663 47.725c-3.355 1.937-5.031 2.905-5.936 4.297a6.934 6.934 0 00-1.107 4.129zm56.127 71.055c8.271-4.775 11.105-15.349 6.329-23.62-4.775-8.272-15.35-11.105-23.621-6.33-8.27 4.775-11.104 15.35-6.329 23.621 4.776 8.272 15.35 11.105 23.621 6.329zm45.264-46.1c4.776 8.272 1.942 18.846-6.329 23.621-8.271 4.775-18.845 1.942-23.621-6.329-4.775-8.271-1.941-18.846 6.329-23.621 8.271-4.775 18.846-1.942 23.621 6.329zm32.606 1.142c8.271-4.775 11.105-15.349 6.329-23.621-4.775-8.271-15.35-11.104-23.621-6.329-8.27 4.775-11.104 15.35-6.329 23.621 4.776 8.271 15.35 11.104 23.621 6.329zm-49.062 60.273c4.776 8.271 1.942 18.845-6.329 23.62-8.271 4.776-18.845 1.943-23.621-6.329-4.775-8.271-1.941-18.845 6.329-23.621 8.271-4.775 18.846-1.942 23.621 6.33zm32.606 1.141c8.271-4.775 11.105-15.349 6.329-23.621-4.775-8.271-15.35-11.104-23.621-6.329-8.27 4.775-11.104 15.35-6.329 23.621 4.776 8.272 15.351 11.104 23.621 6.329zm45.264-46.1c4.776 8.272 1.942 18.846-6.329 23.621-8.27 4.775-18.845 1.942-23.621-6.329-4.775-8.271-1.941-18.846 6.33-23.621 8.27-4.775 18.845-1.942 23.62 6.329zm16.15 62.556c8.271-4.775 11.105-15.349 6.33-23.621-4.776-8.271-15.351-11.104-23.621-6.329-8.271 4.775-11.105 15.35-6.329 23.621 4.775 8.271 15.35 11.104 23.62 6.329zm-95.161 15.009c-8.271 4.775-11.105 15.349-6.33 23.62 4.776 8.272 15.351 11.105 23.621 6.33l38.935-22.48c8.271-4.775 11.105-15.349 6.33-23.62-4.776-8.272-15.351-11.105-23.621-6.33l-38.935 22.48z" fill="#FFF0EA"/><path fill-rule="evenodd" clip-rule="evenodd" d="M50.483 130.412c.26 4.974 3.165 10.005 8.976 20.069l77.468 134.178c5.81 10.065 8.715 15.095 12.892 17.808a20.757 20.757 0 0012.387 3.319c4.976-.26 10.008-3.165 20.072-8.976l80.266-46.341c10.064-5.811 15.096-8.716 17.809-12.895a20.75 20.75 0 003.319-12.387c-.26-4.974-3.164-10.005-8.975-20.069L197.229 70.939c-5.811-10.064-8.715-15.095-12.893-17.807a20.75 20.75 0 00-12.387-3.32c-4.975.26-10.007 3.166-20.071 8.976L71.611 105.13c-10.064 5.81-15.096 8.716-17.809 12.895a20.752 20.752 0 00-3.319 12.387zm23.262 1.806c.087 1.658 1.056 3.337 2.993 6.692l9.683 16.77c1.937 3.355 2.906 5.034 4.298 5.938a6.927 6.927 0 004.13 1.106c1.657-.087 3.334-1.055 6.689-2.992l82.663-47.725c3.354-1.937 5.031-2.905 5.936-4.298a6.934 6.934 0 001.107-4.129c-.052-.992-.42-1.992-1.122-3.353-.205-.397-.436-.82-.697-1.286-.342-.61-.733-1.289-1.174-2.052l-9.683-16.771c-1.339-2.32-2.215-3.837-3.09-4.853a5.646 5.646 0 00-1.208-1.085 6.927 6.927 0 00-4.13-1.106c-1.658.088-3.335 1.056-6.689 2.993l-82.663 47.725c-3.355 1.937-5.031 2.905-5.936 4.297a6.934 6.934 0 00-1.107 4.129zm56.127 71.055c8.271-4.775 11.105-15.349 6.329-23.62-4.775-8.272-15.35-11.105-23.621-6.33-8.27 4.775-11.104 15.35-6.329 23.621 4.776 8.272 15.35 11.105 23.621 6.329zm45.264-46.1c4.776 8.272 1.942 18.846-6.329 23.621-8.271 4.775-18.845 1.942-23.621-6.329-4.775-8.271-1.941-18.846 6.329-23.621 8.271-4.775 18.846-1.942 23.621 6.329zm32.606 1.142c8.271-4.775 11.105-15.349 6.329-23.621-4.775-8.271-15.35-11.104-23.621-6.329-8.27 4.775-11.104 15.35-6.329 23.621 4.776 8.271 15.35 11.104 23.621 6.329zm-49.062 60.273c4.776 8.271 1.942 18.845-6.329 23.62-8.271 4.776-18.845 1.943-23.621-6.329-4.775-8.271-1.941-18.845 6.329-23.621 8.271-4.775 18.846-1.942 23.621 6.33zm32.606 1.141c8.271-4.775 11.105-15.349 6.329-23.621-4.775-8.271-15.35-11.104-23.621-6.329-8.27 4.775-11.104 15.35-6.329 23.621 4.776 8.272 15.351 11.104 23.621 6.329zm45.264-46.1c4.776 8.272 1.942 18.846-6.329 23.621-8.27 4.775-18.845 1.942-23.621-6.329-4.775-8.271-1.941-18.846 6.33-23.621 8.27-4.775 18.845-1.942 23.62 6.329zm16.15 62.556c8.271-4.775 11.105-15.349 6.33-23.621-4.776-8.271-15.351-11.104-23.621-6.329-8.271 4.775-11.105 15.35-6.329 23.621 4.775 8.271 15.35 11.104 23.62 6.329zm-95.161 15.009c-8.271 4.775-11.105 15.349-6.33 23.62 4.776 8.272 15.351 11.105 23.621 6.33l38.935-22.48c8.271-4.775 11.105-15.349 6.33-23.62-4.776-8.272-15.351-11.105-23.621-6.33l-38.935 22.48z" fill="#fff"/></svg>