<svg width="161" height="24" fill="none" xmlns="http://www.w3.org/2000/svg"><path fill-rule="evenodd" clip-rule="evenodd" d="M3.897 6.313c.377-.002 1.496-.103 1.97 1.496.319 1.078.827 2.843 1.525 5.296h.285c.748-2.586 1.262-4.351 1.542-5.296.479-1.616 1.676-1.496 2.155-1.496h3.695v11.494h-3.766v-6.774h-.253l-2.099 6.774H6.118l-2.1-6.779h-.252v6.779H0V6.313h3.897zm16.58 0v6.778h.3l2.554-5.574c.495-1.109 1.552-1.204 1.552-1.204h3.644v11.494h-3.844v-6.779h-.3l-2.504 5.574c-.496 1.104-1.603 1.205-1.603 1.205h-3.644V6.313h3.845zm21.339 5.462c-.536 1.52-2.22 2.608-4.085 2.608h-4.032v3.424h-3.656v-6.032h11.773z" fill="#00B24D"/><path fill-rule="evenodd" clip-rule="evenodd" d="M37.685 6.313h-8.056c.192 2.559 2.395 4.75 4.677 4.75h7.541c.436-2.128-1.063-4.75-4.162-4.75z" fill="url(#paint0_linear)"/><path d="M81.26 17.956h-3.04L80.123 6.2h3.039l-1.9 11.755zM92.278 6.488a7.49 7.49 0 00-2.727-.5c-3.001 0-5.115 1.6-5.128 3.888-.025 1.689 1.514 2.626 2.664 3.19 1.176.574 1.576.95 1.576 1.463-.012.787-.95 1.15-1.825 1.15-1.214 0-1.864-.187-2.852-.625l-.4-.188-.426 2.639c.713.325 2.026.613 3.39.625 3.19 0 5.265-1.575 5.29-4.014.012-1.338-.8-2.364-2.551-3.201-1.063-.538-1.714-.9-1.714-1.451.012-.5.55-1.013 1.75-1.013a5.163 5.163 0 012.264.45l.275.125.414-2.538zm4.038 7.303l1.213-3.289c-.012.025.25-.687.4-1.125l.212 1.013s.576 2.814.701 3.401h-2.526zm3.752-7.59h-2.351c-.725 0-1.276.212-1.589.975l-4.515 10.78h3.19l.637-1.764h3.903c.087.413.362 1.763.362 1.763h2.815l-2.452-11.754zM75.682 6.2l-2.977 8.016-.325-1.625c-.55-1.876-2.276-3.914-4.202-4.927l2.726 10.28h3.214L78.896 6.2h-3.214z" fill="#00579F"/><path d="M69.94 6.2h-4.89l-.05.238c3.815.976 6.341 3.327 7.379 6.153L71.316 7.19c-.175-.75-.713-.963-1.376-.988z" fill="#FAA61A"/><path d="M160.328 21.845v.052h.048c.011 0 .02-.003.027-.007.006-.004.009-.01.009-.02 0-.008-.003-.015-.009-.019a.05.05 0 00-.027-.006h-.048zm.049-.037a.09.09 0 01.058.017c.013.01.02.026.02.045a.05.05 0 01-.016.04.08.08 0 01-.047.02l.064.074h-.049l-.06-.074h-.019v.074h-.042v-.196h.091zm-.013.263a.151.151 0 00.063-.013.159.159 0 00.087-.087.17.17 0 00.013-.064.17.17 0 00-.048-.117.157.157 0 00-.115-.047.157.157 0 00-.117.047.156.156 0 00-.035.053.153.153 0 00-.013.064c0 .022.004.044.013.064a.159.159 0 00.087.087c.02.009.042.013.065.013zm0-.375a.214.214 0 01.214.21.204.204 0 01-.062.15.215.215 0 01-.237.045.237.237 0 01-.069-.046.217.217 0 01-.062-.148.2.2 0 01.017-.082.207.207 0 01.114-.113.211.211 0 01.085-.016zm-19.8-.754c0-.373.244-.68.643-.68.382 0 .64.294.64.68 0 .386-.258.68-.64.68-.399 0-.643-.307-.643-.68zm1.718 0V19.88h-.462v.258c-.146-.192-.368-.312-.67-.312-.595 0-1.062.467-1.062 1.115 0 .648.467 1.114 1.062 1.114.302 0 .524-.12.67-.31v.257h.462v-1.061zm15.594 0c0-.373.244-.68.644-.68.382 0 .639.294.639.68 0 .386-.257.68-.639.68-.4 0-.644-.307-.644-.68zm1.718 0v-1.913h-.461v1.11c-.147-.192-.369-.312-.671-.312-.595 0-1.061.467-1.061 1.115 0 .648.466 1.114 1.061 1.114.302 0 .524-.12.671-.31v.257h.461v-1.061zm-11.584-.701c.297 0 .488.186.537.514h-1.101c.049-.306.235-.514.564-.514zm.009-.414c-.622 0-1.057.453-1.057 1.115 0 .675.453 1.114 1.088 1.114.32 0 .612-.08.87-.297l-.226-.342a1.016 1.016 0 01-.618.222c-.297 0-.568-.137-.634-.52h1.576c.004-.057.009-.115.009-.177-.005-.662-.413-1.115-1.008-1.115zm5.572 1.115c0-.373.244-.68.644-.68.382 0 .639.294.639.68 0 .386-.257.68-.639.68-.4 0-.644-.307-.644-.68zm1.718 0V19.88h-.461v.258c-.147-.192-.369-.312-.671-.312-.595 0-1.061.467-1.061 1.115 0 .648.466 1.114 1.061 1.114.302 0 .524-.12.671-.31v.257h.461v-1.061zm-4.324 0c0 .644.448 1.114 1.132 1.114.32 0 .533-.07.764-.253l-.222-.373a.932.932 0 01-.556.191c-.368-.004-.639-.27-.639-.68 0-.408.271-.674.639-.678.201 0 .383.066.556.19l.222-.372c-.231-.182-.444-.254-.764-.254-.684 0-1.132.471-1.132 1.115zm5.95-1.115a.627.627 0 00-.56.311v-.257h-.457v2.122h.462v-1.19c0-.35.151-.546.452-.546a.75.75 0 01.289.053l.142-.435a.979.979 0 00-.328-.058zm-12.371.222c-.222-.146-.528-.222-.865-.222-.538 0-.884.258-.884.68 0 .346.258.56.732.626l.218.031c.253.036.373.102.373.222 0 .164-.169.258-.484.258-.32 0-.55-.102-.706-.222l-.217.359c.253.187.572.275.918.275.613 0 .969-.288.969-.692 0-.373-.28-.568-.742-.635l-.217-.031c-.2-.027-.36-.067-.36-.209 0-.155.151-.248.404-.248.271 0 .533.102.661.182l.2-.373zm5.954-.222a.626.626 0 00-.559.311v-.257h-.457v2.122h.461v-1.19c0-.35.151-.546.453-.546a.75.75 0 01.289.053l.142-.435a.98.98 0 00-.329-.058zm-3.938.054h-.754v-.644h-.467v.644h-.43v.422h.43v.968c0 .492.191.785.737.785.2 0 .431-.062.577-.164l-.133-.395a.856.856 0 01-.408.12c-.231 0-.306-.143-.306-.355v-.96h.754v-.421zm-6.9 2.122v-1.332c0-.502-.319-.839-.835-.844-.271-.004-.55.08-.746.378a.778.778 0 00-.701-.378.703.703 0 00-.622.315v-.261h-.462v2.122h.466v-1.176c0-.369.205-.565.52-.565.307 0 .462.2.462.56v1.181h.466v-1.176c0-.369.213-.565.52-.565.315 0 .466.2.466.56v1.181h.466z" fill="#231F20"/><path d="M160.613 14.945v-.31h-.081l-.093.213-.093-.213h-.082v.31h.058v-.234l.087.202h.059l.088-.202v.234h.057zm-.513 0v-.257h.104v-.052h-.265v.052h.104v.257h.057z" fill="#F79410"/><path d="M151.425 16.279h-6.993V3.709h6.993v12.57z" fill="#FF5F00"/><path d="M144.88 9.994a7.98 7.98 0 013.052-6.285A7.993 7.993 0 00135 9.994a7.993 7.993 0 0012.932 6.284 7.98 7.98 0 01-3.052-6.284z" fill="#EB001B"/><path d="M160.859 9.994a7.994 7.994 0 01-12.933 6.284 7.98 7.98 0 003.053-6.284 7.98 7.98 0 00-3.053-6.285 7.994 7.994 0 0112.933 6.285z" fill="#F79E1B"/><defs><linearGradient id="paint0_linear" x1="41.921" y1="9.3" x2="29.629" y2="9.3" gradientUnits="userSpaceOnUse"><stop stop-color="#1F5CD7"/><stop offset="1" stop-color="#02AEFF"/></linearGradient></defs></svg>