<?xml version="1.0" encoding="utf-8"?><svg xmlns="http://www.w3.org/2000/svg" xmlns:xlink="http://www.w3.org/1999/xlink"><symbol viewBox="0 0 16 16" id="arrow-dropdown" xmlns="http://www.w3.org/2000/svg"><path fill-rule="evenodd" clip-rule="evenodd" d="M13.354 9.646l-.708.707L8 5.708l-4.646 4.647-.708-.708L8 4.293l5.354 5.353z"/></symbol><symbol viewBox="0 0 52 34" id="arrow-long" xmlns="http://www.w3.org/2000/svg"><path fill-rule="evenodd" clip-rule="evenodd" d="M17.293.293L.586 17l16.707 16.707 1.414-1.414L4.414 18H52v-2H4.414L18.707 1.707 17.293.293z"/></symbol><symbol viewBox="0 0 16 16" id="arrow-small" xmlns="http://www.w3.org/2000/svg"><path d="M10.477 7.526L7.144 4.193a.67.67 0 00-.947.947L9.064 8l-2.867 2.86a.667.667 0 00.217 1.092.668.668 0 00.73-.146l3.333-3.333a.666.666 0 000-.947z"/></symbol><symbol viewBox="0 0 32 32" id="attachment" xmlns="http://www.w3.org/2000/svg"><path fill-rule="evenodd" clip-rule="evenodd" d="M5.507 15.214a5.253 5.253 0 117.43-7.429l9.84 9.84a3.14 3.14 0 11-4.442 4.442l-9.811-9.811.707-.707 9.811 9.81a2.14 2.14 0 103.027-3.027l-9.84-9.84a4.253 4.253 0 10-6.015 6.015l9.49 9.49a6.366 6.366 0 109.002-9.003l-9.46-9.46.707-.707 9.46 9.46a7.366 7.366 0 01-10.416 10.417l-9.49-9.49z"/></symbol><symbol viewBox="0 0 32 32" id="cart" xmlns="http://www.w3.org/2000/svg"><path fill-rule="evenodd" clip-rule="evenodd" d="M6.11 6H2V5h4.89l.75 3h21.518L26.38 18H10.14l.75 3H25v1H10.11l-4-16zm3.78 11h15.73l2.222-8H7.89l2 8zM13.5 28a1.5 1.5 0 100-3 1.5 1.5 0 000 3zm0 1a2.5 2.5 0 100-5 2.5 2.5 0 000 5zM22.5 28a1.5 1.5 0 100-3 1.5 1.5 0 000 3zm0 1a2.5 2.5 0 100-5 2.5 2.5 0 000 5z"/></symbol><symbol viewBox="0 0 32 32" id="check" xmlns="http://www.w3.org/2000/svg"><path fill-rule="evenodd" clip-rule="evenodd" d="M27.365 8.342L12.04 24.732l-7.405-7.92.73-.683 6.675 7.14 14.595-15.61.73.683z"/></symbol><symbol viewBox="0 0 16 12" id="checked" xmlns="http://www.w3.org/2000/svg"><path d="M14.709 1.21a1 1 0 00-1.42 0l-7.45 7.46-3.13-3.14A1.022 1.022 0 001.288 7l3.84 3.84a1 1 0 001.42 0l8.16-8.16a1 1 0 000-1.47z"/></symbol><symbol viewBox="0 0 17 17" id="clock" xmlns="http://www.w3.org/2000/svg"><path fill-rule="evenodd" clip-rule="evenodd" d="M8.5 16a7.5 7.5 0 100-15 7.5 7.5 0 000 15zm0 1a8.5 8.5 0 100-17 8.5 8.5 0 000 17z"/><path d="M8 4h1v5H8V4z"/><path d="M13 8v1H8V8h5z"/></symbol><symbol viewBox="0 0 16 16" id="close" xmlns="http://www.w3.org/2000/svg"><path fill-rule="evenodd" clip-rule="evenodd" d="M7.293 8L1.646 2.354l.708-.708L8 7.293l5.646-5.647.708.708L8.707 8l5.647 5.646-.707.708L8 8.707l-5.646 5.647-.708-.707L7.293 8z"/></symbol><symbol viewBox="0 0 16 16" id="cross" xmlns="http://www.w3.org/2000/svg"><path fill-rule="evenodd" clip-rule="evenodd" d="M7.293 8L1.646 2.354l.708-.708L8 7.293l5.646-5.647.708.708L8.707 8l5.647 5.646-.707.708L8 8.707l-5.646 5.647-.708-.707L7.293 8z"/></symbol><symbol viewBox="0 0 15 18" id="cube" xmlns="http://www.w3.org/2000/svg"><path fill-rule="evenodd" clip-rule="evenodd" d="M7.5.413l7 4.308v8.559l-7 4.307-7-4.307V4.72l7-4.307zm-6 5.482L7 9.28v6.825l-5.5-3.384V5.895zM8 16.105l5.5-3.384V5.895L8 9.28v6.825zm-.5-7.692L13.046 5 7.5 1.587 1.954 5 7.5 8.413z"/></symbol><symbol viewBox="0 0 24 24" id="eye" xmlns="http://www.w3.org/2000/svg"><path fill-rule="evenodd" clip-rule="evenodd" d="M21.004 12l-.002-.004C19.092 7.562 15.592 5 12 5c-3.593 0-7.092 2.562-9.002 6.996L2.998 12l.002.004C4.909 16.438 8.407 19 12 19c3.593 0 7.092-2.562 9.002-6.996l.002-.004zm.916-.4C19.9 6.91 16.1 4 12 4s-7.9 2.91-9.92 7.6a1 1 0 000 .8C4.1 17.09 7.9 20 12 20s7.9-2.91 9.92-7.6a1.001 1.001 0 000-.8z"/><path fill-rule="evenodd" clip-rule="evenodd" d="M12 15a3 3 0 100-6 3 3 0 000 6zm0 1a4 4 0 100-8 4 4 0 000 8z"/></symbol><symbol viewBox="0 0 24 24" id="filter" xmlns="http://www.w3.org/2000/svg"><path d="M1.607 16.08H12.36c.24-1.68 1.8-3.192 3.648-3.192s3.408 1.512 3.648 3.192h2.736c.216 0 .408.144.408.36s-.192.36-.408.36H19.68a3.685 3.685 0 01-3.672 3.384 3.685 3.685 0 01-3.672-3.384H1.607c-.216 0-.408-.144-.408-.36s.192-.36.408-.36zm14.4 3.384a2.888 2.888 0 002.88-2.88 2.888 2.888 0 00-2.88-2.88 2.888 2.888 0 00-2.88 2.88 2.888 2.888 0 002.88 2.88zM22.391 8.16h-8.568c-.288 1.68-1.8 3.096-3.648 3.096S6.815 9.84 6.527 8.16h-4.92c-.216 0-.408-.144-.408-.36s.192-.36.408-.36h4.896c.12-1.92 1.728-3.456 3.672-3.456 1.944 0 3.552 1.536 3.672 3.456h8.544c.216 0 .408.144.408.36s-.192.36-.408.36zM10.175 4.704a2.888 2.888 0 00-2.88 2.88 2.888 2.888 0 002.88 2.88 2.889 2.889 0 002.88-2.88 2.888 2.888 0 00-2.88-2.88z"/></symbol><symbol viewBox="0 0 32 32" id="instagram" xmlns="http://www.w3.org/2000/svg"><path d="M16 12.693a3.306 3.306 0 100 6.613 3.306 3.306 0 000-6.613zm13.24-3.266a8.706 8.706 0 00-.56-3.014 5.333 5.333 0 00-3.093-3.093 8.707 8.707 0 00-3.013-.56c-1.72-.093-2.227-.093-6.574-.093-4.346 0-4.853 0-6.573.093a8.707 8.707 0 00-3.013.56A5.333 5.333 0 003.32 6.413a8.706 8.706 0 00-.56 3.014c-.093 1.72-.093 2.226-.093 6.573s0 4.853.093 6.573a9.146 9.146 0 00.56 3.027c.267.702.68 1.338 1.214 1.867.53.536 1.172.95 1.88 1.213a8.706 8.706 0 003.013.56c1.72.093 2.227.093 6.573.093 4.347 0 4.854 0 6.574-.093a8.706 8.706 0 003.013-.56 5.186 5.186 0 001.88-1.213A5.252 5.252 0 0028.68 25.6a8.798 8.798 0 00.56-3.027c.094-1.72.094-2.226.094-6.573s0-4.853-.094-6.573zm-3.386 10.666a7.64 7.64 0 01-.52 2.4 5.148 5.148 0 01-2.84 2.84 7.64 7.64 0 01-2.414.467h-8.16a7.64 7.64 0 01-2.413-.467 4.68 4.68 0 01-1.747-1.146 4.68 4.68 0 01-1.093-1.694 7.32 7.32 0 01-.453-2.413V16v-4.08a7.32 7.32 0 01.453-2.413A4.68 4.68 0 017.814 7.76a4.787 4.787 0 011.693-1.093A7.64 7.64 0 0111.92 6.2h8.16a7.64 7.64 0 012.414.467 4.68 4.68 0 011.746 1.146 4.681 4.681 0 011.094 1.694 7.64 7.64 0 01.466 2.413V16c0 2.747.094 3.027.054 4.08v.013zm-2.134-9.92a3.172 3.172 0 00-1.88-1.88A5.333 5.333 0 0020 8h-8a5.333 5.333 0 00-1.84.347 3.173 3.173 0 00-1.88 1.813A5.693 5.693 0 008 12v8c.014.628.13 1.25.347 1.84a3.174 3.174 0 001.88 1.88c.569.21 1.168.326 1.773.347h8a5.333 5.333 0 001.84-.347 3.175 3.175 0 001.88-1.88c.224-.588.34-1.21.347-1.84v-4-4a5.04 5.04 0 00-.347-1.84v.013zM16 21.093A5.08 5.08 0 0110.92 16 5.094 5.094 0 1116 21.093zm5.334-9.186a1.2 1.2 0 010-2.387 1.2 1.2 0 010 2.387z"/></symbol><symbol viewBox="0 0 13 20" id="location" xmlns="http://www.w3.org/2000/svg"><path fill-rule="evenodd" clip-rule="evenodd" d="M5.97 16.795h.002A.792.792 0 006.5 17a.792.792 0 00.528-.204C7.313 16.575 13 11.39 13 6.8a6.962 6.962 0 00-1.904-4.808C9.877.716 8.224 0 6.5 0 4.776 0 3.123.716 1.904 1.992A6.962 6.962 0 000 6.8c0 4.582 5.708 9.756 5.97 9.995zm.534-.868l.177-.164a26.05 26.05 0 002.646-2.936C10.767 10.955 12 8.741 12 6.8c0-1.552-.59-3.033-1.627-4.117C9.338 1.6 7.943 1 6.5 1c-1.444 0-2.838.6-3.873 1.683A5.963 5.963 0 001 6.8c0 1.935 1.237 4.144 2.68 6.016a26.917 26.917 0 002.824 3.11zM3 19h7v1H3v-1z"/><path d="M6 6h1v1H6V6z"/></symbol><symbol viewBox="0 0 32 32" id="phone" xmlns="http://www.w3.org/2000/svg"><path fill-rule="evenodd" clip-rule="evenodd" d="M4.532 8.761l5.978-5.978 5.832 5.83-3.518 3.808.091.229c.132.32.322.76.558 1.247.48.987 1.123 2.102 1.817 2.78.667.653 1.745 1.26 2.698 1.713a21.75 21.75 0 001.425.615l3.969-3.35 5.816 5.816-5.974 5.974-.293-.097.157-.474-.157.474h-.002l-.005-.002-.017-.006-.065-.022-.249-.086a53.608 53.608 0 01-3.902-1.563c-2.327-1.043-5.156-2.526-7.002-4.254-2.066-1.935-3.83-5.047-5.066-7.628a54.275 54.275 0 01-1.85-4.351c-.045-.12-.08-.215-.102-.279l-.026-.073-.007-.02-.003-.006.472-.165-.472.165-.103-.297zm1.154.26l.024.067a53.275 53.275 0 001.814 4.267c1.229 2.564 2.927 5.53 4.849 7.33 1.717 1.607 4.416 3.036 6.727 4.071a52.553 52.553 0 003.825 1.532l.03.011 4.83-4.828-4.46-4.46-3.711 3.133-.271-.097.168-.471-.168.47h-.003l-.008-.003-.029-.01a12.112 12.112 0 01-.488-.19 22.83 22.83 0 01-1.257-.55c-.968-.46-2.175-1.125-2.968-1.9-.824-.807-1.529-2.055-2.016-3.059a22.804 22.804 0 01-.784-1.812l-.01-.03-.003-.008-.001-.002.47-.172-.47.17-.104-.285 3.283-3.554-4.445-4.444-4.824 4.825z"/></symbol><symbol viewBox="0 0 32 32" id="search" xmlns="http://www.w3.org/2000/svg"><path fill-rule="evenodd" clip-rule="evenodd" d="M15 24a9 9 0 100-18 9 9 0 000 18zm0 1c5.523 0 10-4.477 10-10S20.523 5 15 5 5 9.477 5 15s4.477 10 10 10z"/><path fill-rule="evenodd" clip-rule="evenodd" d="M27.146 27.854l-5.5-5.5.708-.708 5.5 5.5-.708.708z"/></symbol><symbol viewBox="0 0 32 32" id="slider-arrow" xmlns="http://www.w3.org/2000/svg"><path fill-rule="evenodd" clip-rule="evenodd" d="M11.207 15.5L21.353 5.354l-.707-.708L9.793 15.5l10.853 10.854.707-.707L11.207 15.5z"/></symbol><symbol viewBox="0 0 16 16" id="support" xmlns="http://www.w3.org/2000/svg"><path fill-rule="evenodd" clip-rule="evenodd" d="M8 .667c2.95 0 5.333 2.463 5.333 5.492v3.015c0 2.595-1.75 4.775-4.106 5.346a1.333 1.333 0 11-.172-1.335c1.694-.48 2.944-2.09 2.944-4.01V6.158c0-2.302-1.796-4.16-4-4.16-2.204 0-4 1.858-4 4.16v3.015a.667.667 0 01-1.333 0V6.16C2.666 3.13 5.049.667 7.999.667zM1.332 5.333c.368 0 .666.299.666.667v3.333a.667.667 0 01-1.333 0V6c0-.368.298-.667.667-.667zm13.333 0c.368 0 .667.299.667.667v3.333a.667.667 0 01-1.334 0V6c0-.368.299-.667.667-.667z"/></symbol><symbol viewBox="0 0 32 32" id="vk" xmlns="http://www.w3.org/2000/svg"><path d="M20.098 2.667h-8.181c-7.472 0-9.25 1.777-9.25 9.236v8.18c0 7.473 1.764 9.25 9.236 9.25h8.18c7.473 0 9.25-1.763 9.25-9.236v-8.18c0-7.473-1.763-9.25-9.235-9.25zm4.097 19.027H22.25c-.736 0-.958-.597-2.277-1.916-1.153-1.111-1.64-1.25-1.931-1.25-.403 0-.514.11-.514.667v1.75c0 .472-.153.75-1.389.75a7.59 7.59 0 01-5.93-3.556 15.5 15.5 0 01-3.07-6.444c0-.292.111-.556.667-.556H9.75c.5 0 .68.222.875.736.945 2.778 2.556 5.195 3.209 5.195.25 0 .36-.112.36-.737v-2.86c-.083-1.306-.777-1.417-.777-1.89a.48.48 0 01.5-.444h3.056c.416 0 .555.208.555.708v3.861c0 .417.18.556.306.556.25 0 .444-.139.902-.597a15.996 15.996 0 002.39-3.973.838.838 0 01.847-.555h1.944c.583 0 .708.292.583.708a24.266 24.266 0 01-2.61 4.486c-.21.32-.292.487 0 .862.194.291.874.86 1.333 1.402a8.645 8.645 0 011.638 2.278c.167.542-.11.82-.666.82z"/><path fill-rule="evenodd" clip-rule="evenodd" d="M24.861 20.875c.167.542-.11.82-.666.82H22.25c-.515 0-.779-.294-1.345-.924a24.038 24.038 0 00-.932-.993c-1.153-1.111-1.64-1.25-1.931-1.25-.403 0-.514.11-.514.667v1.75c0 .472-.153.75-1.389.75a7.59 7.59 0 01-5.93-3.556 15.5 15.5 0 01-3.07-6.444c0-.292.111-.556.667-.556H9.75c.5 0 .68.222.875.736.945 2.778 2.556 5.195 3.209 5.195.25 0 .36-.112.36-.737v-2.86c-.05-.803-.333-1.154-.542-1.416-.132-.163-.235-.292-.235-.474a.48.48 0 01.5-.444h3.056c.416 0 .555.208.555.708v3.861c0 .417.18.556.306.556.25 0 .444-.139.902-.597a15.996 15.996 0 002.39-3.973.838.838 0 01.847-.555h1.944c.583 0 .708.292.583.708a24.266 24.266 0 01-2.61 4.486c-.21.32-.292.487 0 .862.099.148.325.37.583.623.248.243.525.514.75.78a8.645 8.645 0 011.638 2.277zm-.903-2.956a9.644 9.644 0 011.8 2.511l.035.073.024.078c.138.447.17 1.06-.26 1.56-.395.458-.96.554-1.362.554H22.25c-.335 0-.649-.072-.948-.23a2.851 2.851 0 01-.68-.529 14.339 14.339 0 01-.47-.506l-.113-.126a21.12 21.12 0 00-.767-.813 9.15 9.15 0 00-.744-.653v1.107c0 .327-.05.966-.676 1.384-.467.31-1.094.366-1.713.366h-.033l-.034-.003a8.59 8.59 0 01-6.68-3.973 16.501 16.501 0 01-3.23-6.814l-.023-.104v-.107c0-.246.042-.698.4-1.075.363-.383.852-.48 1.267-.48H9.75c.408 0 .85.096 1.225.435.321.292.483.675.586.947l.006.016.005.016c.448 1.316 1.053 2.543 1.612 3.426l.01.017v-1.49c-.03-.419-.143-.587-.225-.698-.029-.04-.058-.076-.1-.128l-.01-.012a3.453 3.453 0 01-.158-.21 1.529 1.529 0 01-.284-.875v-.036l.003-.037a1.48 1.48 0 011.513-1.371h3.04c.364 0 .877.095 1.23.563.297.391.325.857.325 1.145V14.3a14.992 14.992 0 001.666-2.97A1.837 1.837 0 0122 10.139h1.917c.408 0 1.003.097 1.373.62.36.507.26 1.072.168 1.376l-.018.061-.027.059a25.275 25.275 0 01-2.591 4.497l.016.018c.085.088.19.192.319.318l.028.027c.23.226.524.513.773.804zm-5.429-2.182v-.004zm-.508 3.789l-.012-.002s.004.002.01.002h.002zm2.077-15.86h-8.181c-3.753 0-5.663.473-6.72 1.53-1.057 1.055-1.53 2.96-1.53 6.707v8.18c0 3.755.47 5.664 1.524 6.721 1.054 1.057 2.959 1.53 6.712 1.53h8.18c3.755 0 5.664-.47 6.722-1.525 1.056-1.053 1.529-2.958 1.529-6.712v-8.18c0-3.755-.47-5.664-1.524-6.721-1.054-1.056-2.959-1.53-6.712-1.53zm-8.181-1h8.18c7.473 0 9.237 1.778 9.237 9.25v8.181c0 7.473-1.778 9.236-9.25 9.236h-8.18c-7.473 0-9.237-1.777-9.237-9.25v-8.18c0-7.459 1.778-9.236 9.25-9.236z"/></symbol><symbol viewBox="0 0 32 32" id="youtube" xmlns="http://www.w3.org/2000/svg"><path d="M30.668 12.947a11.333 11.333 0 00-1.213-5.507 3.893 3.893 0 00-2.293-1.333 104.48 104.48 0 00-11.16-.414c-3.711-.064-7.423.07-11.12.4a3.827 3.827 0 00-1.947.987c-1.2 1.107-1.333 3-1.467 4.6a64.387 64.387 0 000 8.64c.039.9.173 1.794.4 2.667.161.673.486 1.296.947 1.813.543.538 1.235.9 1.987 1.04a60.24 60.24 0 008.666.44c4.667.067 8.76 0 13.6-.373a3.84 3.84 0 002.04-1.04 3.32 3.32 0 00.814-1.334c.476-1.463.71-2.994.693-4.533.053-.747.053-5.253.053-6.053zM12.988 19.8v-8.253l7.894 4.146c-2.214 1.227-5.134 2.614-7.894 4.107z"/><path fill-rule="evenodd" clip-rule="evenodd" d="M29.668 12.93v-.018c.06-1.7-.302-3.387-1.052-4.913a2.894 2.894 0 00-1.592-.9c-3.659-.331-7.333-.466-11.006-.406h-.034a103.6 103.6 0 00-10.965.392 2.827 2.827 0 00-1.396.721l-.01.01c-.4.368-.665.907-.84 1.618-.172.699-.236 1.462-.302 2.258l-.005.063c-.19 2.83-.19 5.668 0 8.498v.012l.001.012c.036.83.16 1.654.369 2.457l.003.01.002.01c.12.503.36.968.7 1.357.39.379.882.636 1.416.74 2.816.347 5.653.49 8.49.43l.018-.001h.018c4.63.066 8.68 0 13.46-.367a2.841 2.841 0 001.462-.757 2.32 2.32 0 00.564-.928l.002-.005c.443-1.359.66-2.782.644-4.211v-.042l.003-.041c.05-.7.05-5.148.05-5.982v-.018zm-2.6 12.977c-4.84.373-8.933.44-13.6.373a60.24 60.24 0 01-8.666-.44 3.813 3.813 0 01-1.987-1.04 4.187 4.187 0 01-.947-1.813 12.733 12.733 0 01-.4-2.667 64.387 64.387 0 01.009-8.742c.13-1.577.283-3.415 1.458-4.498a3.827 3.827 0 011.947-.987c3.697-.33 7.409-.464 11.12-.4 3.724-.061 7.45.077 11.16.414a3.893 3.893 0 012.293 1.333 11.333 11.333 0 011.213 5.507c0 .8 0 5.306-.053 6.053a14.108 14.108 0 01-.693 4.533 3.32 3.32 0 01-.814 1.334 3.84 3.84 0 01-2.04 1.04zm-15.08-4.429V9.892l11 5.778-1.622.898c-1.125.624-2.425 1.285-3.773 1.97l-.111.057a175.12 175.12 0 00-4.018 2.085l-1.476.798zm1-9.931l7.894 4.146a61.76 61.76 0 01-1.06.573c-.871.46-1.817.942-2.798 1.44-.991.503-2.017 1.024-3.036 1.56-.334.177-.668.355-1 .534v-8.253z"/></symbol></svg>