<svg width="32" height="32" fill="none" xmlns="http://www.w3.org/2000/svg"><path d="M24.1 11.357H7.9c-.497 0-.9-.415-.9-.928V7.643C7 5.079 9.015 3 11.5 3h1.8c.497 0 .9.416.9.929v3.714h3.6V3.929c0-.513.403-.929.9-.929h1.8C22.985 3 25 5.079 25 7.643v2.786c0 .512-.403.928-.9.928zm-3.877 1.977L11.5 17.088v-3.874h8.7c.065 0 .084.093.023.12zm.277 4.528l-9 3.869V19.1l9-3.87v2.63zm0 4.644l-9 3.869v-2.633l9-3.869v2.633zm0 2.011v2.626c0 1.024-.807 1.857-1.8 1.857h-5.4c-.596 0-1.12-.304-1.448-.765l8.648-3.718z" fill="#000"/></svg>