<svg width="32" height="32" fill="none" xmlns="http://www.w3.org/2000/svg"><path fill-rule="evenodd" clip-rule="evenodd" d="M10.81 2h1.176a2.87 2.87 0 012.862 2.861v.66h-3.425v1.328h3.425V8.57h-1.734v1.328h1.734v1.72h-3.425v1.329h3.425v1.723h-1.734v1.328h1.734v1.72h-3.425v1.33h3.425V21.1a5.38 5.38 0 011.945 4.151 5.397 5.397 0 11-8.847-4.15V4.861A2.871 2.871 0 0110.809 2zm14.242 9.167V9.089h-2.858V6.226h-2.078V9.09h-2.863v2.078h2.863v2.858h2.078v-2.858h2.858zM13.944 25.423c0-.92 1.402-.92 1.402 0a3.568 3.568 0 01-3.567 3.566c-.92 0-.92-1.4 0-1.4a2.163 2.163 0 002.165-2.166z" fill="#1E2021"/><path d="M25.052 16.063v2.078h-7.799v-2.078h7.799z" fill="#1E2021"/></svg>