<svg width="32" height="32" fill="none" xmlns="http://www.w3.org/2000/svg"><path d="M27.985 10.687a2.46 2.46 0 00-4.053-1.873l-5.226-3.025a2.46 2.46 0 10-4.836 0l-5.234 3.02a2.46 2.46 0 10-2.414 4.185v6.046a2.46 2.46 0 102.418 4.18l5.23 3.041a2.458 2.458 0 104.836 0l5.226-3.02a2.46 2.46 0 102.422-4.181v-6.07a2.459 2.459 0 001.631-2.303zm-11.7-6.148a.82.82 0 110 1.64.82.82 0 010-1.64zM7.041 9.867a.82.82 0 110 1.64.82.82 0 010-1.64zm0 12.296a.82.82 0 110-1.64.82.82 0 010 1.64zm9.242 5.328a.82.82 0 110-1.64.82.82 0 010 1.64zm6.783-6.148c0 .151.015.302.045.45l-5.217 3.021a2.459 2.459 0 00-3.217 0L9.46 21.798a2.46 2.46 0 00-1.598-2.758v-6.042a2.459 2.459 0 001.64-2.32 2.37 2.37 0 00-.046-.45l5.222-3.013a2.459 2.459 0 003.217 0l5.217 3.009a2.46 2.46 0 001.594 2.779v6.028a2.46 2.46 0 00-1.639 2.312zm2.46.82a.82.82 0 110-1.64.82.82 0 010 1.64zm0-10.656a.82.82 0 110-1.64.82.82 0 010 1.64z" fill="#000"/><path d="M16.517 10.268l4.972 2.87v5.74l-4.972 2.871-4.971-2.87v-5.741l4.971-2.87z" fill="#000"/></svg>