<svg width="32" height="32" fill="none" xmlns="http://www.w3.org/2000/svg"><rect width="32" height="32" rx="5" fill="#000"/><path d="M14.939 19.71c0-.636-.225-1.123-.674-1.46-.45-.344-1.258-.704-2.426-1.078-1.168-.382-2.092-.756-2.774-1.123-1.856-1.003-2.785-2.355-2.785-4.054 0-.884.247-1.67.741-2.359.502-.696 1.217-1.239 2.145-1.628.936-.39 1.985-.584 3.145-.584 1.168 0 2.209.213 3.122.64.913.42 1.621 1.014 2.123 1.786.509.77.763 1.647.763 2.627H14.95c0-.748-.236-1.328-.707-1.74-.472-.42-1.135-.63-1.988-.63-.824 0-1.464.177-1.92.529a1.632 1.632 0 00-.686 1.37c0 .531.266.977.798 1.336.539.36 1.329.697 2.37 1.011 1.916.577 3.312 1.292 4.188 2.145.876.854 1.314 1.917 1.314 3.19 0 1.415-.535 2.526-1.606 3.335-1.07.801-2.512 1.202-4.323 1.202-1.258 0-2.404-.229-3.437-.685-1.033-.465-1.823-1.097-2.37-1.898-.539-.802-.808-1.73-.808-2.786h3.38c0 1.805 1.078 2.707 3.235 2.707.8 0 1.426-.161 1.875-.483.45-.33.674-.786.674-1.37zM23.822 24h-3.257V11.849h3.257V24zM20.375 8.704c0-.487.16-.887.482-1.202.33-.314.775-.471 1.337-.471.554 0 .996.157 1.325.471.33.315.494.715.494 1.202 0 .494-.168.899-.505 1.213-.33.314-.768.472-1.314.472-.547 0-.988-.158-1.325-.472-.33-.314-.494-.719-.494-1.213z" fill="#FFDB03"/></svg>