<svg width="32" height="32" fill="none" xmlns="http://www.w3.org/2000/svg"><path fill-rule="evenodd" clip-rule="evenodd" d="M26.663 9.733l-2.125 17.53a1.122 1.122 0 01-1.114.987h-3.85a.558.558 0 00.075-.28v-5.43c0-3.91-2.827-6.141-6.538-6.561l-.757-6.246h14.309zm-7.856 16.834v.841a.842.842 0 01-.842.842H5.621a.842.842 0 01-.842-.842v-.841h14.028zm-.561-2.525a.56.56 0 01.561.56v.562a.56.56 0 01-.561.561H5.34a.561.561 0 01-.56-.561v-.561c0-.31.25-.561.56-.561h12.906zm-6.453-7.295c3.835 0 6.951 1.978 7.013 5.776l.001.116v.561H4.779v-.561c0-3.874 3.14-5.892 7.014-5.892zM20.21 3v3.928h6.453c.31 0 .56.251.56.56v1.404h-15.43V7.489a.56.56 0 01.561-.561h6.453V3h1.403z" fill="#000"/></svg>