<?xml version="1.0" encoding="iso-8859-1"?>
<!-- Generator: Adobe Illustrator 19.0.0, SVG Export Plug-In . SVG Version: 6.00 Build 0)  -->
<svg version="1.1" id="Capa_1" fill="#ffb228" xmlns="http://www.w3.org/2000/svg" xmlns:xlink="http://www.w3.org/1999/xlink" x="0px" y="0px"
	 viewBox="0 0 463.802 463.802" style="enable-background:new 0 0 463.802 463.802;" xml:space="preserve">
<g>
	<g>
		<path d="M383.6,295.951l-5.9-5.5c-0.1-0.1-0.1-0.3-0.1-0.4l-24.5-57.3c-5.1-12-16.8-19.8-29.8-19.9H145.1
			c-13,0.1-24.7,7.9-29.8,19.9l-24.2,56.5l-9,7.7c-9.6,8.2-15.1,20.2-15.1,32.8v97.4c0,17.5,14.2,31.8,31.8,31.8h0.1h18.3
			c17.5,0.1,31.8-14.1,31.8-31.6v-0.1v-11.4h166v11.2c0,17.5,14.2,31.7,31.7,31.8h0.1h18.3c17.5,0.1,31.8-14.1,31.9-31.7v-0.1v-99.9
			C397,315.351,392.1,304.151,383.6,295.951z M133.7,240.551c1.9-4.6,6.4-7.6,11.4-7.7h178.1c5,0.1,9.5,3.1,11.4,7.7l18.5,43.3h-8.4
			c-5.5-27.4-32.2-45.1-59.6-39.6c-20,4-35.6,19.6-39.6,39.6H115.2L133.7,240.551z M324.2,283.851h-57.8c5.5-16,22.9-24.4,38.9-18.9
			C314.1,268.051,321.1,274.951,324.2,283.851z M129,427.051c0,6.5-5.2,11.7-11.6,11.8c-0.1,0-0.1,0-0.2,0H98.9
			c-6.5,0.1-11.8-5.1-11.9-11.6v-0.1v-13.2c3.8,1.4,7.8,2,11.9,1.9H129V427.051z M377,427.151c0,6.5-5.3,11.8-11.8,11.8
			c0-0.1,0-0.1-0.1-0.1h-18.3c-6.5,0.1-11.8-5.1-11.8-11.6c0-0.1,0-0.1,0-0.2v-11.2h30.1c4,0.1,8.1-0.5,11.9-1.9V427.151z
			 M377.1,384.351H377c0,6.4-5.2,11.6-11.6,11.5c-0.1,0-0.2,0-0.3,0H98.9c-6.4,0.2-11.7-4.9-11.9-11.2c0-0.1,0-0.2,0-0.3v-54.6
			c0-6.7,2.9-13.2,8.1-17.5l9.7-8.3H363l6.9,6.6c4.6,4.4,7.2,10.4,7.2,16.7V384.351z"/>
	</g>
</g>
<g>
	<g>
		<path d="M161,325.851h-52c-5.5,0-10,4.5-10,10v36c0,5.5,4.5,10,10,10h52c5.5,0,10-4.5,10-10v-36
			C171,330.351,166.5,325.851,161,325.851z M151,361.851h-32v-16h32V361.851z"/>
	</g>
</g>
<g>
	<g>
		<path d="M355,325.851h-52c-5.5,0-10,4.5-10,10v36c0,5.5,4.5,10,10,10h52c5.5,0,10-4.5,10-10v-36
			C365,330.351,360.5,325.851,355,325.851z M345,361.851h-32v-16h32V361.851z"/>
	</g>
</g>
<g>
	<g>
		<path d="M265.5,359.851h-66.9c-5.5,0-10,4.5-10,10s4.5,10,10,10h66.9c5.5,0,10-4.5,10-10S271,359.851,265.5,359.851z"/>
	</g>
</g>
<g>
	<g>
		<path d="M265.5,332.851h-66.9c-5.5,0-10,4.5-10,10s4.5,10,10,10h66.9c5.5,0,10-4.5,10-10S271,332.851,265.5,332.851z"/>
	</g>
</g>
<g>
	<g>
		<path d="M453.8,4.851H10.2c-5.5-0.1-10.1,4.3-10.2,9.8v434.4c0.1,5.5,4.7,9.9,10.2,9.8h31.3c5.5,0,10.4-4.3,10.4-9.8v-309.2h360
			v309.2c0,5.5,4.9,9.8,10.4,9.8h31.3c5.5,0.1,10.1-4.3,10.2-9.8v-434.4C463.9,9.151,459.3,4.751,453.8,4.851z M32,438.851H20v-414
			h12V438.851z M412,119.851H52v-95h360V119.851z M444,438.851h-12v-414h12V438.851z"/>
	</g>
</g>
<g>
</g>
<g>
</g>
<g>
</g>
<g>
</g>
<g>
</g>
<g>
</g>
<g>
</g>
<g>
</g>
<g>
</g>
<g>
</g>
<g>
</g>
<g>
</g>
<g>
</g>
<g>
</g>
<g>
</g>
</svg>
