<?xml version="1.0" encoding="iso-8859-1"?>
<!-- Generator: Adobe Illustrator 19.0.0, SVG Export Plug-In . SVG Version: 6.00 Build 0)  -->
<svg version="1.1" id="Capa_1" fill="#ffb228" xmlns="http://www.w3.org/2000/svg" xmlns:xlink="http://www.w3.org/1999/xlink" x="0px" y="0px"
	 viewBox="0 0 512 512" style="enable-background:new 0 0 512 512;" xml:space="preserve">
<g>
	<g>
		<path d="M402.059,8.551c-96.915-11.401-195.212-11.401-292.126,0c-4.301,0.503-7.535,4.147-7.535,8.474v409.667
			c0,4.326,3.234,7.97,7.535,8.474c48.462,5.7,97.265,8.551,146.068,8.551c48.803,0,97.606-2.85,146.068-8.551
			c4.301-0.504,7.535-4.147,7.535-8.474V17.024C409.603,12.698,406.368,9.054,402.059,8.551z M392.536,419.079
			c-90.643,10.104-182.429,10.104-273.071,0V24.636c90.643-10.104,182.429-10.104,273.071,0V419.079z"/>
	</g>
</g>
<g>
	<g>
		<path d="M256,341.331c-18.825,0-34.134,15.309-34.134,34.134c0,18.825,15.309,34.134,34.134,34.134s34.134-15.309,34.134-34.134
			C290.134,356.64,274.825,341.331,256,341.331z M256,392.531c-9.412,0-17.067-7.655-17.067-17.067s7.655-17.067,17.067-17.067
			s17.067,7.655,17.067,17.067S265.412,392.531,256,392.531z"/>
	</g>
</g>
<g>
	<g>
		<path d="M298.667,68.225h-85.335c-14.114,0-25.6,11.486-25.6,25.6v34.134c0,14.114,11.486,25.6,25.6,25.6h85.335
			c14.114,0,25.6-11.486,25.6-25.6V93.826C324.268,79.711,312.782,68.225,298.667,68.225z M307.201,127.959
			c0,4.702-3.832,8.533-8.534,8.533h-85.335c-4.702,0-8.534-3.831-8.534-8.533V93.826c0-4.702,3.832-8.533,8.534-8.533h85.335
			c4.702,0,8.534,3.831,8.534,8.533V127.959z"/>
	</g>
</g>
<g>
	<g>
		<path d="M286.721,104.066c-3.772-2.833-9.122-2.057-11.947,1.707l-25.6,34.134c-2.825,3.772-2.065,9.122,1.707,11.947
			c1.536,1.152,3.337,1.707,5.112,1.707c2.594,0,5.163-1.178,6.835-3.413l25.6-34.134
			C291.252,112.241,290.492,106.89,286.721,104.066z"/>
	</g>
</g>
<g>
	<g>
		<path d="M213.333,460.799h-34.134c-4.711,0-8.534,3.823-8.534,8.533v34.134c0,4.71,3.823,8.533,8.534,8.533h34.134
			c4.71,0,8.533-3.823,8.533-8.533v-34.134C221.866,464.622,218.043,460.799,213.333,460.799z M204.799,494.933h-17.067v-17.067
			h17.067V494.933z"/>
	</g>
</g>
<g>
	<g>
		<path d="M332.801,460.799h-34.134c-4.71,0-8.533,3.823-8.533,8.533v34.134c0,4.71,3.823,8.533,8.533,8.533h34.134
			c4.711,0,8.534-3.823,8.534-8.533v-34.134C341.335,464.622,337.512,460.799,332.801,460.799z M324.268,494.933h-17.067v-17.067
			h17.067V494.933z"/>
	</g>
</g>
<g>
	<g>
		<path d="M401.069,307.197H110.931c-4.711,0-8.533,3.823-8.533,8.534v110.961c0,4.326,3.234,7.97,7.535,8.474
			c48.462,5.7,97.265,8.551,146.068,8.551c48.803,0,97.606-2.85,146.068-8.551c4.301-0.504,7.535-4.147,7.535-8.474V315.73
			C409.603,311.02,405.78,307.197,401.069,307.197z M392.536,419.079c-90.643,10.104-182.429,10.104-273.071,0v-94.815h273.071
			V419.079z"/>
	</g>
</g>
<g>
	<g>
		<path d="M230.57,426.29c-22.349-0.461-45.159-1.57-67.798-3.285c-2.372-0.196-4.702,0.64-6.443,2.253
			c-1.741,1.613-2.731,3.883-2.731,6.255v37.82c0,4.71,3.823,8.534,8.534,8.534H230.4c4.71,0,8.533-3.823,8.525-8.534v-34.509
			C238.925,430.181,235.212,426.384,230.57,426.29z M221.866,460.799h-51.201v-20.113c17.11,1.178,34.262,1.997,51.201,2.466
			V460.799z"/>
	</g>
</g>
<g>
	<g>
		<path d="M355.663,425.257c-1.732-1.613-4.036-2.432-6.443-2.253c-22.648,1.715-45.458,2.825-67.798,3.285
			c-4.642,0.094-8.354,3.891-8.354,8.534v34.509c0,4.71,3.823,8.534,8.533,8.534h68.268c4.711,0,8.534-3.823,8.525-8.533v-37.82
			C358.393,429.14,357.403,426.87,355.663,425.257z M341.335,460.799h-51.201v-17.647c16.939-0.469,34.091-1.289,51.201-2.466
			V460.799z"/>
	</g>
</g>
<g>
</g>
<g>
</g>
<g>
</g>
<g>
</g>
<g>
</g>
<g>
</g>
<g>
</g>
<g>
</g>
<g>
</g>
<g>
</g>
<g>
</g>
<g>
</g>
<g>
</g>
<g>
</g>
<g>
</g>
</svg>
