<svg id="Outline" fill="#ffb228" enable-background="new 0 0 64 64" height="512" viewBox="0 0 64 64" width="512" xmlns="http://www.w3.org/2000/svg"><path d="m4 61h56c.552 0 1-.448 1-1v-28c0-.552-.448-1-1-1h-27v-27c0-.552-.448-1-1-1h-28c-.552 0-1 .448-1 1v56c0 .552.448 1 1 1zm27-18.051c-5.279-.488-9.461-4.67-9.949-9.949h9.949zm0 2.013v3.007c-8.045-.514-14.455-6.924-14.969-14.969h3.007c.501 6.387 5.575 11.461 11.962 11.962zm2-11.962h9.949c-.488 5.279-4.67 9.461-9.949 9.949zm-11.949-2c.488-5.279 4.67-9.461 9.949-9.949v9.949zm9.949-11.962c-6.387.501-11.461 5.575-11.962 11.962h-3.007c.514-8.045 6.924-14.455 14.969-14.969zm-16.949 13.962c.517 9.138 7.811 16.432 16.949 16.949v9.051h-12.051c-.508-7.483-6.466-13.441-13.949-13.949v-12.051zm-9.051 18.059c4.174.473 7.468 3.767 7.941 7.941h-7.941zm9.955 7.941c-.489-5.282-4.673-9.466-9.955-9.955v-2.007c6.387.501 11.461 5.575 11.962 11.962zm32.083 0c.501-6.387 5.575-11.461 11.962-11.962v2.007c-5.282.489-9.466 4.673-9.955 9.955zm4.021 0c.473-4.174 3.767-7.468 7.941-7.941v7.941zm7.941-13.949c-7.483.508-13.441 6.466-13.949 13.949h-12.051v-9.051c9.138-.517 16.432-7.811 16.949-16.949h9.051zm-11.031-12.051c-.514 8.045-6.924 14.455-14.969 14.969v-3.007c6.387-.501 11.461-5.575 11.962-11.962zm-16.969-18.949c-9.138.517-16.432 7.811-16.949 16.949h-9.051v-12.051c7.483-.508 13.441-6.466 13.949-13.949h12.051zm-14.038-9.051c-.501 6.387-5.575 11.461-11.962 11.962v-2.007c5.282-.489 9.466-4.673 9.955-9.955zm-4.021 0c-.473 4.174-3.767 7.468-7.941 7.941v-7.941z"/><path d="m35.6 19.436.907 1.813c.108.218.228.431.355.641l-1.816 5.81c-.166.527.127 1.088.654 1.254.097.03.198.046.3.046s.203-.015.3-.045l5.708-1.785 3.4 2.04c.862.516 1.847.79 2.852.79h3.224c3.064 0 5.547-2.483 5.548-5.546 0-.706-.135-1.405-.397-2.061l-.558-1.393c1.081-2.741 1.009-5.803-.2-8.491l5.816-5.817c.39-.391.39-1.023 0-1.414l-2.986-2.985c-.39-.39-1.024-.39-1.414 0l-5.524 5.524c-1.213-.769-2.567-1.29-3.982-1.533l-.819-.137c-.589-.098-1.185-.147-1.782-.147h-1.322c-5.13.026-9.267 4.205-9.242 9.334.007 1.424.342 2.828.978 4.102zm4.858-2.351c.679-2.149 2.671-3.611 4.924-3.616.168 0 .339.008.509.025.84.087 1.646.381 2.345.856l-1.943 1.943 1.414 1.414 1.943-1.943c.475.699.769 1.505.856 2.345.236 2.431-1.262 4.696-3.591 5.432l-9.392 2.935zm13.758 3.182-.145.362c-.094.239-.094.504 0 .743l.706 1.764c.728 1.817-.154 3.881-1.971 4.609-.421.169-.869.255-1.322.255h-3.224c-.642.001-1.273-.171-1.825-.5l-1.872-1.123 2.948-.922c3.238-1.019 5.319-4.167 4.989-7.545-.134-1.3-.624-2.537-1.416-3.576l.92-.92.778.778c.39.39 1.024.39 1.414 0l.141-.14c.708 2.019.665 4.225-.121 6.215zm3.784-15.853 1.571 1.571-6.086 6.086-1.571-1.571zm-19.7 6.2c1.373-1.656 3.413-2.614 5.564-2.614h1.322c.487.001.973.041 1.453.12l.819.137c1.005.169 1.974.509 2.864 1.006l-.529.53c-.39.391-.39 1.024 0 1.414l.793.793-.92.92c-3.129-2.381-7.596-1.775-9.978 1.354-.507.666-.892 1.415-1.138 2.214l-.841 2.693-.32-.64c-.295-.591-.508-1.22-.635-1.868-.433-2.151.136-4.383 1.546-6.064z"/></svg>