<?xml version="1.0" encoding="iso-8859-1"?>
<!-- Generator: Adobe Illustrator 19.0.0, SVG Export Plug-In . SVG Version: 6.00 Build 0)  -->
<svg version="1.1" id="Capa_1" fill="#ffb228" xmlns="http://www.w3.org/2000/svg" xmlns:xlink="http://www.w3.org/1999/xlink" x="0px" y="0px"
	 viewBox="0 0 496 496" style="enable-background:new 0 0 496 496;" xml:space="preserve">
<g>
	<g>
		<g>
			<path d="M232,384H8c-4.418,0-8,3.582-8,8v96c0,4.418,3.582,8,8,8h224c4.418,0,8-3.582,8-8v-96C240,387.582,236.418,384,232,384z
				 M224,480H16v-48h208V480z M224,416H16v-16h208V416z"/>
			<path d="M488,384H264c-4.418,0-8,3.582-8,8v96c0,4.418,3.582,8,8,8h224c4.418,0,8-3.582,8-8v-96C496,387.582,492.418,384,488,384
				z M480,480H272v-48h208V480z M480,416H272v-16h208V416z"/>
			<path d="M128,264v96c0,4.418,3.582,8,8,8h224c4.418,0,8-3.582,8-8v-96c0-4.418-3.582-8-8-8H136C131.582,256,128,259.582,128,264z
				 M144,272h208v16H144V272z M144,304h208v48H144V304z"/>
			<path d="M488,256h-96c-4.418,0-8,3.582-8,8v96c0,4.418,3.582,8,8,8h96c4.418,0,8-3.582,8-8v-96C496,259.582,492.418,256,488,256z
				 M480,352h-80v-48h80V352z M480,288h-80v-16h80V288z"/>
			<path d="M8,368h96c4.418,0,8-3.582,8-8v-96c0-4.418-3.582-8-8-8H8c-4.418,0-8,3.582-8,8v96C0,364.418,3.582,368,8,368z M16,272
				h80v16H16V272z M16,304h80v48H16V304z"/>
			<path d="M8,240h224c4.418,0,8-3.582,8-8v-96c0-4.418-3.582-8-8-8H8c-4.418,0-8,3.582-8,8v96C0,236.418,3.582,240,8,240z M16,144
				h208v16H16V144z M16,176h208v48H16V176z"/>
			<path d="M488,128H264c-4.418,0-8,3.582-8,8v96c0,4.418,3.582,8,8,8h224c4.418,0,8-3.582,8-8v-96C496,131.582,492.418,128,488,128
				z M480,224H272v-48h208V224z M480,160H272v-16h208V160z"/>
			<path d="M136,112h224c4.418,0,8-3.582,8-8V8c0-4.418-3.582-8-8-8H136c-4.418,0-8,3.582-8,8v96C128,108.418,131.582,112,136,112z
				 M144,16h208v16H144V16z M144,48h208v48H144V48z"/>
			<path d="M8,112h96c4.418,0,8-3.582,8-8V8c0-4.418-3.582-8-8-8H8C3.582,0,0,3.582,0,8v96C0,108.418,3.582,112,8,112z M16,16h80v16
				H16V16z M16,48h80v48H16V48z"/>
		</g>
	</g>
</g>
<g>
</g>
<g>
</g>
<g>
</g>
<g>
</g>
<g>
</g>
<g>
</g>
<g>
</g>
<g>
</g>
<g>
</g>
<g>
</g>
<g>
</g>
<g>
</g>
<g>
</g>
<g>
</g>
<g>
</g>
</svg>
