<?xml version="1.0" encoding="iso-8859-1"?>
<!-- Generator: Adobe Illustrator 19.0.0, SVG Export Plug-In . SVG Version: 6.00 Build 0)  -->
<svg version="1.1" id="Capa_1" fill="#ffb228" xmlns="http://www.w3.org/2000/svg" xmlns:xlink="http://www.w3.org/1999/xlink" x="0px" y="0px"
	 viewBox="0 0 464.01 464.01" style="enable-background:new 0 0 464.01 464.01;" xml:space="preserve">
<g>
	<g>
		<path d="M392.002,304.005h64c4.424,0,8-3.576,8-8s-3.576-8-8-8h-64c-1.744,0-3.416,0-5.104,0h-53.8c-1.688,0-3.352,0-5.104,0
			H259.01c-11.128-2.312-19.008-12.192-19.008-24v-64c0-11.808,7.88-21.688,19.016-24h68.984c1.744,0,3.416,0,5.104,0h53.8
			c1.688,0,3.352,0,5.104,0h64c4.424,0,8-3.576,8-8s-3.576-8-8-8h-64c-13.232,0-24-10.768-24-24v-64
			c-0.008-13.232,10.76-24,23.992-24h64c4.424,0,8-3.576,8-8s-3.576-8-8-8h-64c-13.128,0-24.704,6.448-32,16.248
			c-7.296-9.8-18.872-16.248-32-16.248h-192c-13.128,0-24.704,6.448-32,16.248c-7.296-9.8-18.872-16.248-32-16.248h-64
			c-4.416,0-8,3.576-8,8s3.584,8,8,8h64c13.232,0,24,10.768,24,24v64c0,13.232-10.768,24-24,24h-64c-4.416,0-8,3.576-8,8
			s3.584,8,8,8h64c1.744,0,3.416,0,5.104,0h53.8c1.688,0,3.352,0,5.104,0h68.992c11.12,2.312,19,12.192,19,24v64
			c0,11.808-7.88,21.688-19.008,24h-68.992c-1.744,0-3.416,0-5.104,0h-53.8c-1.688,0-3.352,0-5.104,0H8.002c-4.416,0-8,3.576-8,8
			s3.584,8,8,8h64c13.232,0,24,10.768,24,24v64c0,13.232-10.768,24-24,24h-64c-4.416,0-8,3.576-8,8s3.584,8,8,8h64
			c13.128,0,24.704-6.448,32-16.248c7.296,9.8,18.872,16.248,32,16.248h192c13.128,0,24.704-6.448,32-16.248
			c7.296,9.8,18.872,16.248,32,16.248h64c4.424,0,8-3.576,8-8s-3.576-8-8-8h-64c-13.232,0-24-10.768-24-24v-64
			C368.002,314.773,378.77,304.005,392.002,304.005z M360.01,159.757c0.192,0.264,0.416,0.504,0.624,0.76h-1.256
			C359.586,160.261,359.81,160.021,360.01,159.757z M103.378,160.517c0.208-0.256,0.432-0.496,0.632-0.76
			c0.192,0.264,0.416,0.504,0.624,0.76H103.378z M103.994,304.253c-0.192-0.264-0.416-0.504-0.624-0.76h1.256
			C104.418,303.749,104.194,303.989,103.994,304.253z M136.002,160.005c-13.232,0-24-10.768-24-24v-64c0-13.232,10.768-24,24-24h192
			c13.232,0,24,10.768,24,24v64c0,13.232-10.768,24-24,24H136.002z M232.002,177.053c-0.264-0.368-0.592-0.688-0.872-1.048h1.736
			C232.594,176.365,232.266,176.685,232.002,177.053z M232.866,288.005h-1.736c0.28-0.36,0.6-0.68,0.872-1.048
			C232.266,287.325,232.594,287.645,232.866,288.005z M352.002,392.005c0,13.232-10.768,24-24,24h-192c-13.232,0-24-10.768-24-24
			v-64c0-13.232,10.768-24,24-24h192c13.232,0,24,10.768,24,24V392.005z M359.994,304.253c-0.192-0.264-0.416-0.504-0.624-0.76
			h1.256C360.418,303.749,360.194,303.989,359.994,304.253z"/>
	</g>
</g>
<g>
	<g>
		<path d="M173.658,66.349c-3.128-3.128-8.184-3.128-11.312,0l-32,32c-3.128,3.128-3.128,8.184,0,11.312
			c1.56,1.56,3.608,2.344,5.656,2.344c2.048,0,4.096-0.784,5.656-2.344l32-32C176.786,74.533,176.786,69.477,173.658,66.349z"/>
	</g>
</g>
<g>
	<g>
		<path d="M205.658,66.349c-3.128-3.128-8.184-3.128-11.312,0l-64,64c-3.128,3.128-3.128,8.184,0,11.312
			c1.56,1.56,3.608,2.344,5.656,2.344c2.048,0,4.096-0.784,5.656-2.344l64-64C208.786,74.533,208.786,69.477,205.658,66.349z"/>
	</g>
</g>
<g>
	<g>
		<path d="M397.658,194.349c-3.128-3.128-8.184-3.128-11.312,0l-32,32c-3.128,3.128-3.128,8.184,0,11.312
			c1.56,1.56,3.608,2.344,5.656,2.344c2.048,0,4.096-0.784,5.656-2.344l32-32C400.786,202.533,400.786,197.477,397.658,194.349z"/>
	</g>
</g>
<g>
	<g>
		<path d="M429.658,194.349c-3.128-3.128-8.184-3.128-11.312,0l-64,64c-3.128,3.128-3.128,8.184,0,11.312
			c1.56,1.56,3.608,2.344,5.656,2.344c2.048,0,4.096-0.784,5.656-2.344l64-64C432.786,202.533,432.786,197.477,429.658,194.349z"/>
	</g>
</g>
<g>
	<g>
		<path d="M45.658,322.349c-3.128-3.128-8.184-3.128-11.312,0l-32,32c-3.128,3.128-3.128,8.184,0,11.312
			c1.56,1.56,3.608,2.344,5.656,2.344s4.096-0.784,5.656-2.344l32-32C48.786,330.533,48.786,325.477,45.658,322.349z"/>
	</g>
</g>
<g>
	<g>
		<path d="M77.658,322.349c-3.128-3.128-8.184-3.128-11.312,0l-64,64c-3.128,3.128-3.128,8.184,0,11.312
			c1.56,1.56,3.608,2.344,5.656,2.344s4.096-0.784,5.656-2.344l64-64C80.786,330.533,80.786,325.477,77.658,322.349z"/>
	</g>
</g>
<g>
</g>
<g>
</g>
<g>
</g>
<g>
</g>
<g>
</g>
<g>
</g>
<g>
</g>
<g>
</g>
<g>
</g>
<g>
</g>
<g>
</g>
<g>
</g>
<g>
</g>
<g>
</g>
<g>
</g>
</svg>
