<svg width="168" height="86" fill="none" xmlns="http://www.w3.org/2000/svg"><g clip-path="url(#clip0)" fill-rule="evenodd" clip-rule="evenodd"><path d="M46.904 46.773v-7.19H44.17v-.962h6.578v.962h-2.746v7.19h-1.098zm4.79 2.273l-.113-.939c.224.059.417.09.583.09.226 0 .408-.039.543-.113a.898.898 0 00.335-.311c.065-.099.168-.348.31-.744.02-.057.051-.139.092-.245l-2.28-5.916h1.097l1.252 3.418c.16.435.308.89.435 1.369.118-.46.257-.907.42-1.346l1.284-3.44h1.018l-2.285 6.004c-.246.65-.437 1.095-.572 1.34-.182.33-.389.571-.623.725a1.498 1.498 0 01-.838.232c-.197 0-.416-.042-.657-.124zm6.362-.011v-8.167h.928v.767c.218-.3.465-.526.742-.676.274-.15.608-.225 1-.225.515 0 .967.13 1.36.389.394.26.69.626.888 1.098.201.473.302.991.302 1.555 0 .603-.11 1.148-.333 1.632-.22.484-.54.854-.962 1.112a2.518 2.518 0 01-1.328.385c-.34 0-.643-.07-.914-.21-.27-.14-.49-.319-.664-.534v2.874h-1.019zm.922-5.181c0 .759.156 1.32.47 1.685.313.362.693.545 1.138.545.452 0 .84-.188 1.163-.566.322-.376.485-.958.485-1.748 0-.753-.159-1.315-.473-1.69-.315-.375-.692-.563-1.129-.563-.435 0-.82.2-1.154.598-.334.399-.5.98-.5 1.739zm6.174-2.986h1.018v4.504l2.825-4.504h1.098v5.905h-1.018v-4.476l-2.826 4.476h-1.097v-5.905zm11.047 3.741l1.001.13c-.108.677-.388 1.208-.84 1.591-.45.384-1.005.575-1.662.575-.821 0-1.484-.263-1.983-.791-.5-.528-.752-1.285-.752-2.272 0-.637.109-1.195.323-1.674a2.23 2.23 0 01.984-1.076 2.953 2.953 0 011.434-.358c.653 0 1.188.163 1.602.487.415.325.682.784.8 1.382l-.992.15c-.094-.397-.26-.695-.5-.896-.24-.2-.53-.3-.87-.3-.514 0-.931.18-1.252.543-.32.36-.481.932-.481 1.714 0 .793.155 1.37.466 1.73.309.36.713.54 1.211.54.4 0 .733-.122 1.001-.363.269-.24.439-.611.51-1.112zm1.972-3.74h4.886v.827h-1.936v5.077h-1.014v-5.077H78.17v-.828zm6.508 0h1.018v4.503l2.825-4.504h1.098v5.905h-1.018v-4.476l-2.826 4.476H84.68v-5.905zm6.75 0h1.02v1.117c0 .48.029.832.087 1.048.058.216.2.406.421.567.223.162.503.241.839.241.384 0 .883-.1 1.494-.3v-2.674h1.02v5.905h-1.02v-2.38a5.96 5.96 0 01-1.755.288c-.456 0-.86-.114-1.208-.341-.35-.228-.587-.507-.71-.837a3.03 3.03 0 01-.188-1.09v-1.545zm11.177 4.002l1.053.127c-.166.605-.474 1.074-.922 1.408-.45.333-1.024.5-1.722.5-.879 0-1.576-.266-2.09-.798-.516-.531-.773-1.277-.773-2.237 0-.995.26-1.765.78-2.314.522-.548 1.196-.823 2.027-.823.804 0 1.461.269 1.969.806.51.537.765 1.295.765 2.268 0 .061-.001.15-.005.268h-4.483c.037.649.224 1.146.56 1.49.336.345.754.518 1.256.518.373 0 .692-.097.957-.29.264-.192.473-.5.628-.923zm-3.345-1.619h3.356c-.044-.495-.174-.87-.384-1.116a1.576 1.576 0 00-1.262-.579c-.468 0-.862.154-1.18.462-.32.307-.495.719-.53 1.233zm10.249 1.357l1.001.13c-.108.677-.389 1.208-.841 1.591-.45.384-1.004.575-1.661.575-.822 0-1.484-.263-1.983-.791-.501-.528-.752-1.285-.752-2.272 0-.637.108-1.195.323-1.674.216-.478.543-.837.984-1.076a2.95 2.95 0 011.433-.358c.654 0 1.189.163 1.602.487.416.325.682.784.8 1.382l-.991.15c-.095-.397-.261-.695-.5-.896-.24-.2-.53-.3-.87-.3-.514 0-.932.18-1.252.543-.321.36-.481.932-.481 1.714 0 .793.154 1.37.465 1.73.31.36.713.54 1.212.54.4 0 .732-.122 1.001-.363.268-.24.438-.611.51-1.112zm2.516-3.74h1.018v2.55c.325 0 .553-.06.683-.182.129-.124.32-.478.573-1.069.202-.467.364-.774.488-.922a.928.928 0 01.43-.3c.163-.053.424-.078.781-.078h.205v.828l-.284-.006c-.267 0-.439.04-.514.118-.079.081-.201.325-.364.729-.154.385-.295.65-.425.799-.127.15-.326.284-.593.406.437.116.868.516 1.291 1.201l1.115 1.83h-1.121l-1.088-1.83c-.222-.366-.417-.61-.581-.725a1.007 1.007 0 00-.596-.175v2.73h-1.018v-5.905zm9.904 5.175c-.379.315-.742.537-1.09.668-.35.129-.725.193-1.125.193-.661 0-1.167-.157-1.523-.474a1.563 1.563 0 01-.531-1.215 1.637 1.637 0 01.727-1.368c.218-.144.462-.254.734-.328.199-.051.5-.103.904-.15.824-.097 1.43-.21 1.819-.346l.006-.26c0-.408-.097-.696-.29-.861-.259-.228-.648-.34-1.16-.34-.479 0-.833.082-1.063.247-.228.165-.396.457-.506.877l-.995-.135c.091-.418.24-.758.446-1.014.207-.258.509-.457.901-.596a4.08 4.08 0 011.364-.208c.514 0 .93.06 1.25.178.321.12.557.268.709.448.151.18.255.406.317.681.033.171.051.479.051.923v1.334c0 .932.021 1.52.065 1.765.043.247.13.484.257.71h-1.064a2.074 2.074 0 01-.203-.73zm-.085-2.236c-.371.15-.926.275-1.664.38-.419.058-.717.125-.889.199a.867.867 0 00-.236 1.47c.205.175.507.265.903.265.392 0 .742-.084 1.047-.253.305-.169.531-.4.674-.693.111-.225.165-.56.165-1v-.368zm7.99-2.94v5.905h-1.014V44.47h-.588c-.359 0-.626.046-.802.137-.176.091-.431.383-.767.875l-.889 1.29h-1.262l1.098-1.59c.336-.486.67-.759 1.003-.822-.582-.08-1.013-.284-1.295-.618a1.737 1.737 0 01-.421-1.15c0-.513.183-.926.553-1.245.367-.32.9-.479 1.598-.479h2.786zm-1.014.828h-1.45c-.607 0-.999.093-1.175.279a.918.918 0 00-.262.649c0 .353.129.611.388.776.259.165.715.249 1.372.249h1.127v-1.953zM45.433 53.59h1.019v2.55c.324 0 .552-.06.682-.181.13-.124.32-.479.574-1.069.2-.467.363-.774.487-.922a.932.932 0 01.43-.3c.163-.053.424-.078.781-.078h.205v.827l-.284-.005c-.267 0-.438.04-.514.117-.08.082-.2.325-.363.73-.155.385-.296.65-.425.798-.128.15-.327.285-.594.407.437.115.868.516 1.291 1.2l1.115 1.83h-1.12l-1.088-1.83c-.223-.366-.418-.608-.582-.724a1.003 1.003 0 00-.595-.175v2.73h-1.019V53.59zm5.475 2.951c0-1.093.31-1.903.93-2.43.515-.435 1.145-.656 1.89-.656.826 0 1.503.266 2.026.8.526.53.787 1.265.787 2.203 0 .76-.116 1.359-.348 1.793a2.44 2.44 0 01-1.012 1.015 2.988 2.988 0 01-1.454.361c-.84 0-1.52-.264-2.04-.795-.52-.53-.779-1.292-.779-2.29zm1.047 0c0 .758.168 1.323.505 1.699.336.377.759.565 1.267.565.507 0 .928-.19 1.264-.567.334-.378.502-.955.502-1.73 0-.73-.168-1.284-.506-1.66a1.625 1.625 0 00-1.26-.563c-.508 0-.931.188-1.267.562-.337.373-.505.939-.505 1.694zm6.456-2.951h1.585l1.58 4.726 1.755-4.726h1.467v5.904h-1.019V54.74l-1.777 4.754h-.912l-1.682-4.982v4.982h-.997V53.59zm8.596 0h4.746v5.904h-1.02v-5.077h-2.706v5.077h-1.02V53.59zm10.844 5.176c-.378.315-.742.537-1.09.668-.35.129-.724.193-1.124.193-.661 0-1.168-.157-1.523-.474a1.562 1.562 0 01-.531-1.215 1.64 1.64 0 01.726-1.368c.219-.145.462-.255.735-.328.199-.052.5-.103.904-.15.823-.097 1.43-.211 1.818-.346l.006-.26c0-.408-.097-.697-.29-.862-.259-.227-.647-.34-1.16-.34-.478 0-.832.082-1.062.247-.228.166-.396.458-.506.877l-.996-.135c.091-.417.24-.757.447-1.013.207-.258.508-.458.9-.596a4.083 4.083 0 011.365-.209c.514 0 .93.061 1.25.179.32.12.556.267.709.448.15.18.255.406.317.68.033.172.05.48.05.923v1.334c0 .932.021 1.52.066 1.766.042.246.13.484.257.71h-1.065a2.09 2.09 0 01-.203-.73zm-.085-2.236c-.37.15-.925.275-1.664.38-.419.058-.716.125-.889.199a.866.866 0 00-.235 1.469c.205.176.506.265.902.265a2.13 2.13 0 001.048-.252c.305-.169.53-.4.674-.693.11-.226.164-.56.164-1v-.368zm3.262-2.94h1.02v2.458h2.826V53.59h1.018v5.904h-1.018v-2.619h-2.826v2.62h-1.02V53.59zm7.046 0h1.018v4.504l2.825-4.504h1.098v5.904h-1.019V55.02l-2.825 4.475h-1.097V53.59zm11.857 0v5.904h-1.015v-2.302h-.587c-.36 0-.626.046-.802.137-.176.091-.43.383-.767.875l-.889 1.29h-1.262l1.098-1.59c.336-.486.67-.76 1.003-.822-.582-.08-1.013-.285-1.295-.618a1.736 1.736 0 01-.421-1.15c0-.513.183-.927.552-1.246.368-.319.9-.478 1.598-.478h2.787zm-1.015.827h-1.449c-.607 0-.999.093-1.175.28a.92.92 0 00-.263.649c0 .353.13.61.389.776.259.165.715.248 1.372.248h1.126v-1.953z" fill="#3082FE"/><path d="M75.182 74.452c0 1.4.204 2.682.614 3.844.41 1.162.994 2.16 1.752 2.995a7.902 7.902 0 002.73 1.944c1.063.462 2.23.693 3.505.693 1.305 0 2.617-.26 3.937-.782 1.32-.522 2.51-1.23 3.573-2.123a11.021 11.021 0 002.571-3.107 7.587 7.587 0 00.979-3.733c0-1.072-.076-2.13-.228-3.173-.152-1.043-.455-1.967-.91-2.772a5.496 5.496 0 00-1.889-1.966c-.804-.507-1.858-.76-3.163-.76a8.37 8.37 0 00-2.23.313 6.755 6.755 0 00-2.025.916 5.119 5.119 0 00-1.457 1.497c-.379.596-.569 1.282-.569 2.057 0 .178.091.35.273.514.183.164.365.246.547.246a28.22 28.22 0 012.73-.94c.759-.208 1.457-.312 2.094-.312a4.9 4.9 0 012.002.402 20.109 20.109 0 01-.386 3.442c-.228 1.133-.622 2.146-1.184 3.04-.561.894-1.327 1.616-2.298 2.168-.971.551-2.23.827-3.778.827-.606 0-1.115-.283-1.524-.85-.41-.566-.728-1.236-.956-2.011a13.95 13.95 0 01-.478-2.37 18.239 18.239 0 01-.136-1.966c0-1.103.212-2.064.637-2.883a7.88 7.88 0 011.684-2.19 16.212 16.212 0 012.366-1.788c.88-.552 1.775-1.125 2.686-1.721-1.76 0-3.346.342-4.756 1.028-1.411.685-2.617 1.55-3.619 2.592-1 1.043-1.767 2.183-2.298 3.42-.53 1.237-.796 2.391-.796 3.464v.045zm-31.949-9.7c-.789 0-1.441.201-1.957.603-.516.403-.88.857-1.092 1.364-2.731.983-4.771 2.138-6.122 3.464-1.35 1.326-2.025 3.151-2.025 5.476 0 1.58.296 2.89.888 3.933a7.006 7.006 0 002.366 2.503c.986.626 2.14 1.066 3.46 1.32 1.319.252 2.707.38 4.163.38 1.275 0 2.397-.135 3.368-.403a8.256 8.256 0 002.617-1.23c.774-.55 1.487-1.273 2.14-2.167.651-.895 1.296-1.967 1.933-3.219l-.273-.223a44 44 0 01-5.302 1.72c-1.896.492-3.77.738-5.62.738-1.73 0-3.05-.156-3.96-.47-.91-.312-1.365-.975-1.365-1.988l.09-1.207c.031-.328.168-.552.41-.67.243-.12.531-.18.865-.18.455 0 .956.053 1.502.157a8.491 8.491 0 001.593.156c1.123 0 1.934-.014 2.435-.044.5-.03.978-.075 1.433-.135.061 0 .13.03.205.09.076.06.16.09.25.09.092 0 .289-.045.592-.135.303-.09.622-.186.956-.29.334-.105.652-.202.956-.29.303-.09.515-.135.637-.135.273 0 .508.052.705.157.197.104.387.305.57.603.302 0 .575-.082.818-.246.243-.164.433-.372.57-.626a3.89 3.89 0 00.318-.782c.076-.268.114-.522.114-.76 0-.983-.243-1.937-.729-2.86a8.446 8.446 0 00-1.888-2.415 9.573 9.573 0 00-2.64-1.653c-.986-.418-1.965-.626-2.936-.626h-.045zm3.231 5.453c0 .686-.273 1.028-.819 1.028l-7.373-.268c-.182-.179-.273-.357-.273-.536 0-.15.023-.261.068-.335.046-.075.114-.202.205-.38.334-.686.713-1.185 1.138-1.498.425-.313.895-.47 1.41-.47a9.07 9.07 0 013.3.627c1.078.417 1.859 1.028 2.344 1.832zm8.784-2.1v.491c1.032-.447 2.048-.67 3.05-.67.515 0 1.274.06 2.275.178a20.61 20.61 0 012.98.582c.987.268 1.852.625 2.595 1.072.743.447 1.115.999 1.115 1.654-.243.388-.713.693-1.41.917-.699.223-1.51.424-2.436.603-.925.179-1.896.38-2.912.603a17.59 17.59 0 00-2.8.85c-.849.343-1.547.782-2.093 1.318-.546.537-.819 1.237-.819 2.101 0 1.192.235 2.19.705 2.995a5.505 5.505 0 001.912 1.945c.804.491 1.737.849 2.799 1.072 1.062.224 2.17.336 3.322.336a21.37 21.37 0 003.39-.246c1.017-.164 2.162-.365 3.437-.604.394-.119.766-.402 1.115-.849.349-.447.66-.916.933-1.408.273-.492.493-.931.66-1.319.167-.387.25-.61.25-.67-.03-.03-.09-.045-.182-.045-.09 0-.28.06-.569.179-.288.12-.63.253-1.024.402-.394.15-.819.283-1.274.403-.455.119-.88.178-1.274.178a35.1 35.1 0 01-1.707-.067 15.836 15.836 0 01-2.594-.38 13.612 13.612 0 01-2.663-.894c-.85-.387-1.487-.923-1.911-1.609l.182-.626a15.373 15.373 0 012.093-.58 90.87 90.87 0 012.208-.425 58.83 58.83 0 002.23-.447 15.11 15.11 0 002.162-.648c1.335-.537 2.093-1.774 2.275-3.71-.607-.15-.91-.76-.91-1.833 0-.745-.266-1.386-.797-1.922-.53-.537-1.19-.976-1.98-1.319a11.516 11.516 0 00-2.525-.76 13.62 13.62 0 00-2.435-.246c-.607 0-1.335.052-2.185.157-.85.104-1.66.283-2.434.536-.774.253-1.427.596-1.958 1.028-.53.432-.796.991-.796 1.677zM2.563 65.091c0 1.938.413 3.392 1.239 4.36.826.97 1.606 1.454 2.34 1.454a7.98 7.98 0 011.652.778c.459.292.688.845.688 1.656v3.583c0 .901.023 1.633.069 2.197.046.563.092 1.002.137 1.318.046.315.115.653.207 1.014 2.11 1.532 4.382 2.298 6.814 2.298a9.27 9.27 0 001.686-.135c.482-.09.723-.36.723-.811 0-.856-.115-1.746-.344-2.67a25.032 25.032 0 00-.792-2.603c-.298-.811-.562-1.532-.791-2.163-.23-.631-.344-1.127-.344-1.487 0-.631.126-1.093.378-1.386.252-.293.815-.485 1.686-.575 2.983-.315 5.794-.912 8.432-1.791 2.638-.88 4.933-2.073 6.883-3.583a17.036 17.036 0 004.646-5.476c1.147-2.14 1.72-4.63 1.72-7.47 0-3.11-.791-5.79-2.374-8.044-1.583-2.254-3.59-4.113-6.023-5.577-2.432-1.465-5.082-2.558-7.95-3.279-2.867-.721-5.609-1.082-8.224-1.082-2.57 0-4.795.248-6.677.744-1.88.496-3.441 1.093-4.68 1.792-1.239.698-2.168 1.42-2.788 2.163-.619.743-.929 1.386-.929 1.926 0 1.352.15 2.648.448 3.887.298 1.24.688 2.4 1.17 3.482a24.942 24.942 0 001.583 3.008 29.182 29.182 0 001.755 2.535l.413.068c-.092-.901-.23-1.623-.413-2.163a66.637 66.637 0 00-1.205-3.955c-.436-1.285-.653-2.422-.653-3.414 0-.946.172-1.701.516-2.265.344-.563.768-.991 1.273-1.284a4.636 4.636 0 011.652-.575 11.53 11.53 0 011.72-.135c.414 0 .93.068 1.55.203.619.135 1.02.293 1.204.473-1.744 1.983-2.616 4.777-2.616 8.383 0 .991.012 1.78.035 2.366.023.586.034 1.059.034 1.42 0 .315.012.54.035.675.023.136.034.27.034.406 0 .856-.023 1.544-.069 2.062-.046.518-.092.946-.138 1.284a9.822 9.822 0 01-.137.811 2.38 2.38 0 00-.069.507c0 .451.092.88.275 1.285.184.405.276.721.276.946 0 .406-.115.665-.345.778a1.43 1.43 0 01-.619.169c-.184 0-.424-.158-.723-.474l-.963-1.014c-.344-.36-.688-.698-1.033-1.014-.344-.315-.654-.473-.929-.473-.321 0-.573.17-.757.507-.183.338-.333.766-.447 1.285a9.23 9.23 0 00-.207 1.622 36.45 36.45 0 00-.034 1.453zm30.009-8.247c-2.157 2.254-4.405 3.876-6.745 4.867-2.34.992-5.185 1.488-8.535 1.488l-1.445-.676c.23-1.352.367-3.47.413-6.355 0-.315.034-1.115.103-2.4.069-1.284.16-2.681.275-4.19.115-1.51.207-2.93.275-4.26.07-1.33.104-2.22.104-2.67 1.79.135 3.602.608 5.437 1.42 1.836.81 3.51 1.859 5.025 3.143 1.514 1.285 2.741 2.75 3.682 4.394.94 1.645 1.411 3.391 1.411 5.24zM98.074 83.75l2.913-1.923c.546-1.251 1.13-2.876 1.752-4.872a192.04 192.04 0 012.208-6.616l.591.358a183.098 183.098 0 011.707 4.045c.44 1.088.789 2.012 1.047 2.772.257.76.44 1.385.546 1.877.106.492.174.931.205 1.319-.395-.268-.835-.73-1.32-1.386a14.729 14.729 0 00-1.502-1.743v.178c0 1.014.121 1.863.364 2.548.243.686.546 1.245.91 1.677.364.432.751.745 1.161.938.409.194.781.29 1.115.29 1.456 0 2.564-.372 3.322-1.117.759-.745 1.138-1.594 1.138-2.547 0-.716-.068-1.371-.205-1.967a11.52 11.52 0 00-.546-1.744 41.168 41.168 0 00-.728-1.698 27.36 27.36 0 01-.751-1.833 16.65 16.65 0 01-.387-1.028 86.448 86.448 0 00-.592-1.632 43.013 43.013 0 00-.751-1.877 19.917 19.917 0 00-.864-1.788c-.304-.551-.615-.998-.933-1.341-.319-.343-.615-.514-.888-.514-.212 0-.44.06-.682.179-.243.119-.44.223-.592.313-.516.178-.888.402-1.115.67-.228.268-.41.559-.546.872-.137.313-.289.655-.455 1.028-.167.372-.448.752-.842 1.14-.516.149-.933.395-1.252.737-.318.343-.614.76-.887 1.252a14.136 14.136 0 00-.774 1.654c-.243.61-.531 1.274-.865 1.989-.09.268-.288.812-.591 1.632-.304.82-.623 1.713-.956 2.681-.334.969-.637 1.93-.91 2.884-.274.953-.41 1.698-.41 2.235 0 .417.076.655.227.715h.638l.5-.358zm22.3-18.998a8.895 8.895 0 01-.819-.358 17.27 17.27 0 00-.933-.424 14.646 14.646 0 00-.933-.358c-.303-.104-.561-.156-.774-.156-.242 0-.531.06-.864.178.273.745.508 1.796.705 3.152.197 1.356.357 2.808.478 4.358.121 1.55.212 3.084.273 4.604.061 1.52.091 2.801.091 3.844.182.507.455.969.819 1.386.364.417.759.797 1.184 1.14.424.343.849.633 1.274.871.425.239.789.418 1.092.537a5.013 5.013 0 002.117-.648 10.037 10.037 0 001.865-1.386 19.55 19.55 0 001.753-1.877c.576-.7 1.183-1.408 1.82-2.124l.546.09.182.357a.87.87 0 01.091.403c0 .357-.007.767-.022 1.229l-.046 1.319c-.015.417-.03.767-.045 1.05-.016.283-.023.44-.023.47 0 .834.288 1.571.865 2.212.576.64 1.638.961 3.185.961.273.09.607.134 1.002.134a6.195 6.195 0 00.751-.09c.166-.029.311-.066.432-.111s.182-.112.182-.201c0-.238-.091-.5-.273-.782a2.08 2.08 0 01-.319-.962c-.637-5.036-.955-8.612-.955-10.727 0-1.044.022-1.81.068-2.303.045-.491.144-.886.296-1.184.455-.596.743-1.14.864-1.632.122-.491.182-.797.182-.916 0-.12-.144-.276-.432-.47a8.06 8.06 0 00-1.047-.58 10.55 10.55 0 00-1.228-.492c-.41-.134-.706-.201-.888-.201-.516 0-1.032.238-1.547.715-.091.358-.289.872-.592 1.542s-.69 1.393-1.161 2.168a32.4 32.4 0 01-1.592 2.37 20.86 20.86 0 01-1.844 2.19 10.966 10.966 0 01-1.934 1.609c-.652.417-1.282.625-1.889.625-.333 0-.546-.119-.637-.357 0-1.222-.015-2.302-.045-3.24a54.722 54.722 0 00-.137-2.549 169.54 169.54 0 00-.182-2.123 439.31 439.31 0 00-.182-1.922 4.802 4.802 0 00-.364-.85 1.695 1.695 0 00-.41-.491zm18.25-1.609c0 .208-.03.573-.091 1.095-.06.521-.121 1.073-.182 1.654-.061.58-.121 1.147-.182 1.698-.061.552-.091.946-.091 1.185 0 .328.008.842.023 1.542.015.7.038 1.497.068 2.391.031.894.061 1.826.091 2.794.03.969.061 1.87.091 2.705.03.834.053 1.557.068 2.167.016.611.023 1.021.023 1.23.486.596.888 1.065 1.206 1.408.319.343.569.596.751.76.182.163.326.268.433.313a.764.764 0 00.295.067c.304 0 .546-.15.729-.447.394-.596.872-1.438 1.433-2.526a959.336 959.336 0 011.775-3.42 96.485 96.485 0 011.843-3.374c.607-1.058 1.169-1.87 1.684-2.437.668 0 1.001.358 1.001 1.073-.03.864-.053 1.423-.068 1.677-.015.253-.022.44-.022.558 0 .835.015 1.654.045 2.459.03.804.129 1.527.296 2.168.167.64.417 1.154.751 1.542.334.387.819.581 1.456.581.364 0 .766-.201 1.206-.603.44-.403.903-.91 1.388-1.52.486-.611.994-1.274 1.525-1.99a48.292 48.292 0 011.593-2.033 19.6 19.6 0 011.547-1.677c.501-.476.994-.774 1.479-.894.243 0 .418.142.524.425.106.283.159.514.159.693a60.37 60.37 0 01-.068 2.972 52.621 52.621 0 00-.068 2.66c0 .656.015 1.304.045 1.945.03.64.129 1.214.296 1.72.167.507.44.917.819 1.23.379.313.918.47 1.616.47 2.093-.627 3.443-1.506 4.05-2.638a18.05 18.05 0 01-.273-1.319 25.268 25.268 0 01-.227-1.609 30.659 30.659 0 01-.137-1.61c-.03-.52-.045-.975-.045-1.363 0-.983-.016-2.018-.046-3.106a21.315 21.315 0 00-.273-2.973c-.152-.894-.387-1.639-.705-2.235-.319-.596-.782-.894-1.389-.894-.758 0-1.539.134-2.343.403-.804.268-1.593.618-2.367 1.05a23.41 23.41 0 00-2.276 1.453 55.98 55.98 0 00-2.07 1.564 9.05 9.05 0 01-.41-1.475 10.409 10.409 0 01-.182-2.056c0-.834-.03-1.527-.091-2.079-.061-.55-.205-.99-.432-1.318a1.703 1.703 0 00-.956-.67c-.41-.12-.948-.18-1.616-.18-.212 0-.364-.007-.455-.022a1.443 1.443 0 00-.182-.022c-1.79 1.192-3.246 2.667-4.369 4.425a31.137 31.137 0 00-2.867 5.766h-.182l-.137.045a.533.533 0 01-.159-.045c-.076-.03-.114-.089-.114-.178v-1.475c0-.418-.007-.775-.023-1.073-.015-.298-.03-.566-.045-.805a12.114 12.114 0 01-.023-.76c-.152-1.907-.334-3.382-.546-4.425-.91-1.46-2.443-2.354-4.597-2.682v.045z" fill="#3082FE" stroke="#3082FE" stroke-width=".5"/><path d="M132.3.03c3.873 10.43 7.055 20.858 5.92 31.288-.973 11.787-5.186 20.56-10.476 28.107 3.677-.878 7.282-1.827 10.732-2.928 1.471-2.264 2.913-4.917 4.034-7.722 1.638-4.1 2.69-8.621 2.95-13.522.571-7.447-1.829-16.22-6.26-25.9 4.216 2.97 7.837 5.882 10.917 8.741C145.408 11.947 140.321 5.839 132.3.03z" fill="#E30016" stroke="#E30016" stroke-width=".216"/><path d="M142.65 13.5c6.761 16.1 6.342 31.273-3.322 44.921 13.404-3.123 21.829-8.81 21.378-19.073-1.155-8.835-7.391-17.375-18.056-25.848z" fill="#E30016" stroke="#E30016" stroke-width=".216"/></g><defs><clipPath id="clip0"><path fill="#fff" d="M0 0h168v85.75H0z"/></clipPath></defs></svg>