<svg width="217" height="116" fill="none" xmlns="http://www.w3.org/2000/svg"><g clip-path="url(#clip0)" fill-rule="evenodd" clip-rule="evenodd"><path d="M60.586 64.582v-9.316h-3.531v-1.247h8.496v1.247h-3.547v9.316h-1.418zm6.188 2.947l-.147-1.218c.29.076.54.116.754.116.292 0 .526-.05.701-.145.177-.096.32-.229.432-.403.085-.128.217-.45.402-.965.025-.073.065-.18.117-.317l-2.945-7.666h1.418l1.617 4.43c.207.563.397 1.153.562 1.773.152-.596.331-1.176.541-1.744l1.66-4.46h1.315l-2.952 7.783c-.317.84-.564 1.419-.739 1.736-.235.428-.502.74-.804.94-.304.199-.664.3-1.083.3-.255 0-.537-.055-.849-.16zm8.217-.015V56.931h1.198v.994c.282-.39.602-.682.959-.876.354-.194.786-.293 1.293-.293.664 0 1.248.17 1.754.504.51.337.891.812 1.149 1.424.259.613.389 1.284.389 2.015 0 .782-.142 1.488-.43 2.115-.284.627-.698 1.107-1.243 1.441-.544.332-1.115.5-1.714.5-.44 0-.831-.091-1.18-.273a2.67 2.67 0 01-.86-.692v3.724h-1.315zm1.19-6.714c0 .983.203 1.711.607 2.184.405.47.896.706 1.47.706.585 0 1.086-.244 1.503-.733.417-.487.627-1.242.627-2.266 0-.976-.205-1.704-.612-2.191-.407-.485-.894-.728-1.458-.728-.561 0-1.058.258-1.49.775-.431.516-.646 1.269-.646 2.253zm7.976-3.87h1.315v5.837l3.649-5.836h1.418v7.651h-1.316v-5.8l-3.649 5.8h-1.417v-7.651zm14.269 4.849l1.293.167c-.14.878-.502 1.566-1.086 2.063-.581.497-1.298.745-2.146.745-1.061 0-1.917-.342-2.561-1.025-.647-.684-.971-1.665-.971-2.944 0-.826.14-1.55.417-2.17.28-.62.701-1.084 1.27-1.394a3.802 3.802 0 011.852-.465c.844 0 1.535.212 2.07.632.536.42.88 1.016 1.033 1.79l-1.28.195c-.123-.514-.338-.9-.647-1.16a1.696 1.696 0 00-1.124-.39c-.663 0-1.203.234-1.617.704-.414.467-.621 1.208-.621 2.221 0 1.028.2 1.776.601 2.243.4.465.921.699 1.565.699.517 0 .946-.158 1.293-.47.347-.313.567-.792.659-1.441zm2.546-4.848h6.312v1.072h-2.5v6.58h-1.311v-6.58h-2.501v-1.072zm8.407 0h1.315v5.836l3.649-5.836h1.418v7.651h-1.315v-5.8l-3.649 5.8h-1.418v-7.651zm8.718 0h1.318v1.448c0 .623.038 1.078.113 1.358.074.28.257.526.544.736.287.209.649.312 1.083.312.497 0 1.141-.13 1.929-.389v-3.465h1.318v7.651h-1.318v-3.084c-.808.25-1.564.374-2.266.374-.589 0-1.111-.148-1.56-.443-.452-.295-.759-.657-.919-1.084a3.948 3.948 0 01-.242-1.412V56.93zm14.437 5.187l1.36.165c-.214.784-.611 1.392-1.19 1.825-.581.43-1.323.646-2.224.646-1.136 0-2.037-.344-2.7-1.033-.667-.688-.999-1.655-.999-2.9 0-1.288.337-2.287 1.008-2.998.674-.71 1.545-1.067 2.619-1.067 1.038 0 1.886.35 2.543 1.045.659.697.988 1.678.988 2.94 0 .078-.002.194-.007.346h-5.791c.048.842.29 1.486.724 1.931.434.448.973.672 1.622.672.482 0 .894-.126 1.236-.377.342-.248.611-.647.811-1.195zm-4.32-2.098h4.335c-.057-.642-.224-1.127-.497-1.447-.419-.499-.963-.75-1.629-.75-.604 0-1.114.2-1.526.598-.411.399-.638.932-.683 1.599zm13.238 1.759l1.293.167c-.14.878-.502 1.566-1.086 2.063-.581.497-1.297.745-2.146.745-1.061 0-1.917-.342-2.561-1.025-.646-.684-.971-1.665-.971-2.944 0-.826.14-1.55.417-2.17.28-.62.701-1.084 1.27-1.394a3.806 3.806 0 011.853-.465c.843 0 1.534.212 2.069.632.536.42.881 1.016 1.033 1.79l-1.281.195c-.122-.514-.336-.9-.646-1.16a1.695 1.695 0 00-1.123-.39c-.664 0-1.203.234-1.618.704-.414.467-.621 1.208-.621 2.221 0 1.028.2 1.776.602 2.243.399.465.921.699 1.564.699.517 0 .946-.158 1.293-.47.347-.313.567-.792.659-1.441zm3.25-4.848h1.316v3.305c.419 0 .714-.078.881-.236.167-.16.414-.62.741-1.385.26-.605.469-1.003.629-1.195.162-.192.347-.322.557-.388.209-.07.546-.101 1.008-.101h.265v1.072l-.367-.007c-.345 0-.567.051-.664.152-.103.106-.26.421-.47.945-.199.499-.382.843-.549 1.035-.164.195-.422.369-.766.527.564.15 1.121.668 1.667 1.556l1.441 2.371h-1.448l-1.405-2.37c-.287-.475-.539-.79-.751-.94a1.294 1.294 0 00-.769-.226v3.536h-1.316v-7.651zm12.792 6.707c-.489.408-.958.696-1.408.866-.451.167-.935.25-1.452.25-.854 0-1.508-.204-1.967-.614-.457-.411-.686-.937-.686-1.575a2.132 2.132 0 01.938-1.773 3.24 3.24 0 01.949-.425 9.406 9.406 0 011.168-.195c1.063-.125 1.847-.273 2.348-.447.005-.177.008-.29.008-.337 0-.53-.125-.903-.374-1.117-.335-.295-.837-.44-1.498-.44-.619 0-1.076.106-1.373.32-.294.214-.512.592-.654 1.136l-1.285-.175c.117-.54.31-.981.576-1.313.268-.335.657-.593 1.164-.772.506-.18 1.093-.27 1.762-.27.664 0 1.2.078 1.615.23.414.155.718.347.916.58.194.234.329.527.409.884.042.221.065.62.065 1.195v1.729c0 1.208.027 1.97.085 2.287.055.32.167.628.332.92h-1.376a2.742 2.742 0 01-.262-.944zm-.11-2.898c-.479.195-1.195.357-2.149.493-.541.076-.925.162-1.148.258a1.122 1.122 0 00-.304 1.904c.264.228.654.344 1.165.344a2.75 2.75 0 001.353-.327 2.04 2.04 0 00.871-.898c.143-.293.212-.726.212-1.296v-.478zm10.321-3.81v7.652h-1.31V61.6h-.759c-.464 0-.808.059-1.036.177-.227.118-.556.497-.99 1.134l-1.149 1.672h-1.629l1.417-2.06c.435-.63.866-.984 1.296-1.066-.752-.103-1.308-.369-1.673-.801a2.254 2.254 0 01-.544-1.491c0-.664.237-1.2.714-1.613.474-.414 1.163-.62 2.064-.62h3.599zm-1.31 1.073h-1.872c-.784 0-1.29.12-1.517.362a1.19 1.19 0 00-.34.84c0 .458.167.793.502 1.007.334.214.923.322 1.772.322h1.455v-2.53zM58.687 72.094h1.315V75.4c.42 0 .714-.079.881-.236.167-.16.415-.62.741-1.385.26-.605.47-1.004.63-1.195a1.19 1.19 0 01.556-.389c.21-.069.547-.101 1.008-.101h.265v1.073l-.367-.008c-.345 0-.566.052-.664.152-.102.106-.26.421-.47.945-.199.5-.381.844-.548 1.035-.165.195-.422.37-.767.527.565.15 1.121.669 1.668 1.557l1.44 2.37h-1.448l-1.405-2.37c-.287-.475-.539-.79-.751-.94a1.293 1.293 0 00-.769-.226v3.537h-1.315v-7.652zm7.071 3.825c0-1.417.4-2.467 1.2-3.149.667-.565 1.48-.85 2.442-.85 1.068 0 1.941.344 2.618 1.035.679.689 1.016 1.64 1.016 2.855 0 .987-.15 1.761-.45 2.325a3.159 3.159 0 01-1.307 1.315 3.857 3.857 0 01-1.877.468c-1.086 0-1.965-.342-2.636-1.03-.671-.687-1.006-1.675-1.006-2.97zm1.353 0c0 .981.217 1.714.651 2.2.434.49.981.734 1.638.734.653 0 1.198-.246 1.632-.735.432-.49.649-1.238.649-2.241 0-.947-.217-1.665-.654-2.152a2.096 2.096 0 00-1.627-.73c-.657 0-1.204.243-1.638.727-.434.485-.651 1.218-.651 2.197zm8.339-3.825h2.047l2.041 6.124 2.267-6.124h1.894v7.652h-1.315v-6.161l-2.296 6.16h-1.179l-2.171-6.456v6.457H75.45v-7.652zm11.102 0h6.13v7.652h-1.318v-6.58H87.87v6.58h-1.318v-7.652zm14.008 6.707c-.489.409-.959.696-1.408.866-.452.167-.936.25-1.453.25-.853 0-1.507-.203-1.966-.614-.457-.41-.687-.937-.687-1.574 0-.376.085-.718.26-1.028.172-.31.4-.558.678-.745.283-.187.597-.33.95-.426a9.408 9.408 0 011.167-.194c1.064-.126 1.847-.273 2.349-.448.005-.177.008-.29.008-.337 0-.529-.125-.903-.375-1.116-.334-.296-.836-.44-1.498-.44-.618 0-1.075.105-1.372.32-.295.213-.512.592-.654 1.135l-1.286-.174c.118-.541.31-.982.577-1.314.267-.334.656-.593 1.163-.772.507-.18 1.093-.27 1.762-.27.664 0 1.2.078 1.615.23.414.156.719.348.916.581.195.234.329.526.409.883.043.221.065.62.065 1.195v1.73c0 1.207.028 1.97.085 2.287.055.32.167.627.332.92h-1.375a2.7 2.7 0 01-.262-.945zm-.11-2.897c-.48.194-1.196.356-2.15.492-.54.076-.925.162-1.147.258a1.12 1.12 0 00-.704 1.038c0 .347.135.635.4.866.264.228.653.344 1.165.344.507 0 .958-.108 1.353-.327.394-.219.686-.519.871-.898.142-.292.212-.726.212-1.296v-.477zm4.213-3.81h1.318v3.185h3.649v-3.185h1.316v7.652h-1.316v-3.394h-3.649v3.394h-1.318v-7.652zm9.101 0h1.315v5.837l3.649-5.837h1.418v7.652h-1.315v-5.8l-3.649 5.8h-1.418v-7.652zm15.315 0v7.652h-1.31v-2.984h-.759c-.464 0-.809.06-1.036.177-.227.119-.556.497-.991 1.134l-1.148 1.673h-1.63l1.418-2.061c.434-.63.866-.984 1.295-1.065-.751-.104-1.307-.37-1.672-.802a2.254 2.254 0 01-.544-1.49c0-.665.237-1.2.714-1.614.474-.413 1.163-.62 2.064-.62h3.599zm-1.31 1.073h-1.872c-.784 0-1.29.12-1.518.361a1.195 1.195 0 00-.339.841c0 .458.167.792.502 1.006.334.214.923.322 1.772.322h1.455v-2.53z" fill="#fff"/><path d="M97.113 100.452c0 1.815.265 3.475.794 4.981.529 1.506 1.283 2.8 2.263 3.882a10.21 10.21 0 003.527 2.519c1.372.599 2.881.898 4.527.898 1.685 0 3.38-.338 5.085-1.013a16.544 16.544 0 004.614-2.752 14.274 14.274 0 003.322-4.026c.842-1.525 1.264-3.138 1.264-4.837 0-1.39-.098-2.761-.294-4.113-.196-1.351-.588-2.549-1.176-3.591a7.115 7.115 0 00-2.439-2.549c-1.039-.657-2.401-.985-4.086-.985a10.8 10.8 0 00-2.881.406 8.717 8.717 0 00-2.616 1.187 6.623 6.623 0 00-1.881 1.94c-.49.773-.735 1.661-.735 2.665 0 .232.118.454.353.667.235.212.47.318.706.318 1.371-.54 2.547-.946 3.527-1.216.979-.27 1.881-.406 2.704-.406.94 0 1.803.174 2.586.521a26.105 26.105 0 01-.499 4.461c-.294 1.467-.804 2.78-1.529 3.939-.725 1.158-1.714 2.095-2.968 2.81-1.254.714-2.881 1.071-4.88 1.071-.783 0-1.44-.367-1.969-1.101-.529-.733-.941-1.602-1.234-2.606a18.19 18.19 0 01-.618-3.07c-.117-1.043-.176-1.893-.176-2.55 0-1.428.274-2.673.823-3.736a10.22 10.22 0 012.175-2.838c.901-.83 1.92-1.603 3.057-2.317a205.267 205.267 0 003.468-2.23c-2.273 0-4.321.444-6.143 1.332-1.822.888-3.38 2.008-4.673 3.36-1.294 1.352-2.283 2.829-2.969 4.431-.686 1.603-1.029 3.1-1.029 4.49v.058zM55.844 87.881c-1.019 0-1.861.261-2.528.782-.666.522-1.136 1.11-1.41 1.767-3.528 1.275-6.163 2.771-7.907 4.49-1.744 1.718-2.616 4.083-2.616 7.096 0 2.046.382 3.746 1.146 5.097a9.066 9.066 0 003.057 3.244c1.274.811 2.763 1.381 4.468 1.709 1.704.328 3.497.492 5.378.492 1.647 0 3.097-.173 4.35-.521a10.643 10.643 0 003.38-1.593c1-.714 1.921-1.651 2.764-2.809.842-1.159 1.675-2.549 2.498-4.171l-.352-.29a56.66 56.66 0 01-6.849 2.23c-2.45.638-4.87.956-7.26.956-2.234 0-3.939-.203-5.114-.608-1.176-.406-1.764-1.265-1.764-2.578l.118-1.564c.039-.425.215-.714.529-.869.313-.154.685-.231 1.117-.231.587 0 1.234.067 1.94.202.705.135 1.39.203 2.057.203 1.45 0 2.498-.019 3.145-.058a26.011 26.011 0 001.852-.174c.078 0 .166.039.264.116a.512.512 0 00.324.116c.117 0 .372-.058.764-.174.392-.116.803-.241 1.234-.376a71.36 71.36 0 011.235-.377c.392-.116.666-.174.823-.174.353 0 .656.068.911.203s.5.396.735.782a1.84 1.84 0 001.058-.319c.313-.212.558-.482.735-.81.176-.329.313-.667.411-1.014.098-.348.147-.676.147-.985 0-1.274-.313-2.51-.94-3.707a10.937 10.937 0 00-2.44-3.129 12.36 12.36 0 00-3.41-2.143c-1.273-.54-2.537-.81-3.791-.81h-.059v0zm4.174 7.067c0 .889-.353 1.333-1.058 1.333l-9.524-.348c-.235-.232-.352-.463-.352-.695 0-.193.029-.338.088-.434a8.09 8.09 0 00.264-.493c.431-.888.921-1.535 1.47-1.94a2.996 2.996 0 011.822-.608c1.45 0 2.871.27 4.262.81 1.392.541 2.4 1.333 3.028 2.375zm11.347-2.722v.637c1.333-.579 2.645-.869 3.939-.869.666 0 1.646.078 2.94.232a26.77 26.77 0 013.85.753c1.273.348 2.39.811 3.35 1.39.96.58 1.44 1.294 1.44 2.144-.313.502-.92.898-1.822 1.187-.901.29-1.95.55-3.145.782-1.195.232-2.45.493-3.762.782-1.313.29-2.518.657-3.615 1.101-1.098.444-2 1.014-2.705 1.709-.705.695-1.058 1.602-1.058 2.722 0 1.545.304 2.839.911 3.882a7.125 7.125 0 002.47 2.519c1.038.638 2.243 1.101 3.615 1.391a20.76 20.76 0 004.291.434c1.607 0 3.067-.106 4.38-.318a188.8 188.8 0 004.438-.782c.51-.155.99-.522 1.44-1.101a14.07 14.07 0 001.206-1.825c.352-.637.636-1.207.852-1.709.215-.502.323-.791.323-.869-.039-.038-.118-.057-.235-.057-.118 0-.362.077-.735.231-.372.155-.813.328-1.323.522a16.59 16.59 0 01-1.645.521 6.521 6.521 0 01-1.647.232 45.69 45.69 0 01-2.204-.087 20.347 20.347 0 01-3.35-.493 17.523 17.523 0 01-3.44-1.158c-1.097-.502-1.92-1.197-2.469-2.086l.235-.811c.863-.309 1.764-.56 2.704-.753.941-.193 1.892-.376 2.852-.55a77.25 77.25 0 002.88-.579c.96-.213 1.891-.493 2.792-.84 1.725-.695 2.705-2.298 2.94-4.808-.784-.193-1.176-.985-1.176-2.375 0-.966-.343-1.796-1.029-2.491-.685-.695-1.538-1.265-2.557-1.709a14.836 14.836 0 00-3.263-.985c-1.156-.212-2.204-.318-3.145-.318-.783 0-1.724.067-2.821.203a16.537 16.537 0 00-3.145.695c-1 .328-1.842.772-2.528 1.332-.686.56-1.029 1.284-1.029 2.172v0zM3.312 88.321c0 2.512.533 4.395 1.6 5.651 1.067 1.256 2.075 1.884 3.023 1.884.83.291 1.54.627 2.134 1.007.592.38.889 1.095.889 2.146v4.643c0 1.168.03 2.118.088 2.848.06.73.12 1.299.178 1.708.06.409.149.847.267 1.314 2.726 1.986 5.66 2.979 8.801 2.979.83 0 1.556-.059 2.179-.176.622-.116.933-.467.933-1.051a14.4 14.4 0 00-.444-3.46 32.426 32.426 0 00-1.023-3.373 888.843 888.843 0 01-1.022-2.803c-.296-.818-.445-1.461-.445-1.928 0-.817.163-1.416.49-1.796.325-.38 1.051-.627 2.177-.744 3.853-.41 7.483-1.183 10.891-2.322 3.408-1.139 6.371-2.686 8.89-4.643a22.057 22.057 0 006.002-7.096c1.481-2.774 2.222-6.001 2.222-9.68 0-4.03-1.022-7.505-3.067-10.425-2.045-2.92-4.638-5.33-7.78-7.228-3.14-1.898-6.563-3.314-10.268-4.249-3.704-.934-7.245-1.401-10.624-1.401-3.319 0-6.193.32-8.623.963-2.43.643-4.445 1.416-6.046 2.322-1.6.905-2.8 1.84-3.6 2.803-.8.964-1.2 1.796-1.2 2.497 0 1.752.192 3.431.578 5.037.385 1.606.888 3.11 1.51 4.512a32.36 32.36 0 002.046 3.898 37.818 37.818 0 002.267 3.285l.533.088c-.119-1.168-.296-2.103-.533-2.803a86.58 86.58 0 00-1.556-5.125c-.563-1.665-.845-3.14-.845-4.424 0-1.227.222-2.205.667-2.935.445-.73.993-1.285 1.645-1.664a5.976 5.976 0 012.133-.745 14.81 14.81 0 012.223-.175c.533 0 1.2.087 2 .262.8.176 1.319.38 1.556.614-2.252 2.57-3.378 6.19-3.378 10.863 0 1.285.015 2.307.044 3.066.03.76.045 1.372.045 1.84 0 .408.015.7.044.876.03.175.045.35.045.525 0 1.11-.03 2-.09 2.672a37.374 37.374 0 01-.177 1.665c-.06.438-.119.788-.178 1.051-.06.263-.089.482-.089.657 0 .584.119 1.139.356 1.665.237.525.355.934.355 1.226 0 .526-.148.862-.444 1.008-.296.146-.563.218-.8.218-.237 0-.548-.204-.934-.613l-1.244-1.314a28.006 28.006 0 00-1.334-1.314c-.444-.409-.845-.613-1.2-.613-.415 0-.741.219-.978.657-.237.438-.43.993-.578 1.664a12.002 12.002 0 00-.267 2.103c-.03.73-.044 1.358-.044 1.883v0zm38.762-10.687c-2.786 2.92-5.69 5.022-8.713 6.307-3.022 1.285-6.697 1.927-11.024 1.927l-1.867-.875c.297-1.753.475-4.497.534-8.235 0-.41.044-1.446.133-3.11.089-1.665.207-3.475.356-5.432.148-1.956.266-3.796.355-5.519.09-1.723.134-2.876.134-3.46 2.311.175 4.652.788 7.023 1.84a26.59 26.59 0 016.49 4.073c1.956 1.664 3.541 3.563 4.756 5.694 1.215 2.132 1.823 4.395 1.823 6.79v0zm84.607 34.867l3.763-2.491c.705-1.622 1.46-3.727 2.263-6.314a250.712 250.712 0 012.851-8.573l.764.463a236.673 236.673 0 012.205 5.243 68.984 68.984 0 011.352 3.591c.333.985.568 1.796.705 2.433.138.637.226 1.207.265 1.709-.51-.348-1.078-.946-1.705-1.796a19.12 19.12 0 00-1.94-2.259v.232c0 1.313.157 2.413.47 3.302.314.888.706 1.612 1.176 2.172s.97.965 1.499 1.216c.529.251 1.009.377 1.44.377 1.882 0 3.312-.483 4.292-1.448.98-.966 1.469-2.066 1.469-3.302 0-.927-.088-1.777-.264-2.549a15.086 15.086 0 00-.706-2.259 51.362 51.362 0 00-.94-2.201 35.81 35.81 0 01-.97-2.376 21.4 21.4 0 01-.5-1.332c-.215-.618-.47-1.322-.764-2.114a56.391 56.391 0 00-.97-2.433 25.807 25.807 0 00-1.117-2.317c-.392-.715-.794-1.294-1.205-1.738-.412-.444-.794-.666-1.146-.666-.275 0-.569.077-.882.232-.314.154-.568.29-.764.405-.667.232-1.147.521-1.441.869a4.542 4.542 0 00-.705 1.13c-.176.405-.372.85-.588 1.332-.215.483-.578.975-1.087 1.477-.667.193-1.206.512-1.617.956a8.247 8.247 0 00-1.146 1.622 18.522 18.522 0 00-1 2.143 48.062 48.062 0 01-1.117 2.578c-.117.347-.372 1.052-.764 2.114a162.793 162.793 0 00-1.234 3.476 74.445 74.445 0 00-1.176 3.736c-.353 1.236-.529 2.201-.529 2.897 0 .54.098.849.294.926h.823l.646-.463v0zm28.806-24.619c-.314-.116-.666-.27-1.058-.464a22.909 22.909 0 00-1.205-.55 19.5 19.5 0 00-1.205-.464c-.392-.135-.725-.202-1-.202-.313 0-.686.077-1.117.231.353.966.657 2.327.911 4.084.255 1.757.461 3.64.618 5.648.157 2.008.274 3.997.352 5.967a127.5 127.5 0 01.118 4.981 5.58 5.58 0 001.058 1.796c.47.541.98 1.033 1.529 1.477a11.89 11.89 0 001.646 1.13c.548.309 1.019.541 1.41.695a6.446 6.446 0 002.734-.84 12.95 12.95 0 002.41-1.796 25.182 25.182 0 002.263-2.432 93.036 93.036 0 012.352-2.752l.705.116.235.463c.079.155.118.328.118.521 0 .464-.01.995-.029 1.594-.02.598-.039 1.168-.059 1.708-.02.541-.039.995-.059 1.362-.02.367-.029.569-.029.608 0 1.081.372 2.037 1.117 2.867.744.831 2.116 1.246 4.115 1.246.352.116.783.174 1.293.174a8.607 8.607 0 00.97-.116c.215-.039.402-.087.558-.145.157-.058.236-.145.236-.261 0-.309-.118-.647-.353-1.014a2.695 2.695 0 01-.412-1.245c-.823-6.526-1.234-11.161-1.234-13.903 0-1.351.029-2.346.088-2.983s.186-1.149.382-1.535c.588-.772.96-1.477 1.117-2.114.157-.637.235-1.033.235-1.188 0-.154-.186-.357-.558-.608a10.497 10.497 0 00-1.352-.753 13.562 13.562 0 00-1.588-.637c-.529-.174-.911-.26-1.146-.26-.666 0-1.332.308-1.999.926-.117.463-.372 1.13-.764 1.998a26.583 26.583 0 01-1.499 2.81 41.782 41.782 0 01-2.057 3.07 27.175 27.175 0 01-2.381 2.838c-.823.85-1.656 1.545-2.499 2.086-.842.541-1.656.811-2.439.811-.431 0-.706-.155-.823-.464 0-1.583-.02-2.983-.059-4.2a70.88 70.88 0 00-.176-3.301 220.18 220.18 0 00-.236-2.752c-.078-.85-.156-1.68-.235-2.49a6.16 6.16 0 00-.47-1.101 2.21 2.21 0 00-.529-.637v0zm23.574-2.086c0 .27-.039.744-.118 1.42-.078.675-.157 1.39-.235 2.143-.078.753-.157 1.487-.235 2.201-.078.715-.118 1.226-.118 1.535 0 .425.01 1.091.03 1.999.019.907.049 1.94.088 3.099.039 1.158.078 2.365.118 3.62.039 1.255.078 2.424.117 3.505.039 1.081.069 2.018.088 2.809.02.792.03 1.323.03 1.593a37.755 37.755 0 001.558 1.825c.411.444.734.772.97.985.235.212.421.347.558.405a.988.988 0 00.382.087c.392 0 .705-.193.941-.579.509-.772 1.126-1.863 1.851-3.273.725-1.41 1.49-2.887 2.293-4.431a125.912 125.912 0 012.381-4.374c.784-1.37 1.509-2.423 2.175-3.157.862 0 1.293.463 1.293 1.39-.039 1.12-.068 1.844-.088 2.173-.019.328-.029.569-.029.724 0 1.081.019 2.143.059 3.186.039 1.042.166 1.979.382 2.809.215.83.538 1.497.97 1.999.431.502 1.058.753 1.881.753.47 0 .989-.261 1.557-.782.569-.522 1.166-1.178 1.793-1.97a99.9 99.9 0 001.97-2.578 63.231 63.231 0 012.057-2.635 25.126 25.126 0 011.999-2.173c.647-.618 1.283-1.004 1.911-1.158.313 0 .538.183.676.55.137.367.205.666.205.898 0 1.39-.029 2.674-.088 3.852a68.924 68.924 0 00-.088 3.447c0 .849.02 1.689.059 2.52.039.83.166 1.573.382 2.23.215.656.568 1.187 1.058 1.593.49.405 1.186.608 2.087.608 2.704-.811 4.448-1.95 5.232-3.418a23.45 23.45 0 01-.353-1.708 34.348 34.348 0 01-.294-2.086 40.917 40.917 0 01-.176-2.085 31.243 31.243 0 01-.059-1.767c0-1.274-.02-2.616-.059-4.026a27.808 27.808 0 00-.352-3.852c-.196-1.159-.5-2.124-.912-2.897-.411-.772-1.009-1.158-1.793-1.158-.979 0-1.989.174-3.027.521a17.779 17.779 0 00-3.057 1.361 30.167 30.167 0 00-2.939 1.883 72.289 72.289 0 00-2.675 2.028c-.196-.502-.372-1.14-.529-1.912-.157-.772-.235-1.66-.235-2.665 0-1.08-.039-1.979-.118-2.693-.078-.715-.264-1.284-.558-1.71a2.2 2.2 0 00-1.235-.868c-.529-.154-1.224-.232-2.087-.232-.274 0-.47-.01-.587-.029a1.826 1.826 0 00-.236-.029c-2.312 1.545-4.193 3.457-5.643 5.735-1.45 2.279-2.685 4.77-3.704 7.473h-.235l-.176.058a.705.705 0 01-.206-.058c-.098-.039-.147-.116-.147-.232v-1.912c0-.54-.01-1.004-.029-1.39-.02-.386-.039-.734-.059-1.043a16.062 16.062 0 01-.029-.984c-.196-2.472-.431-4.383-.706-5.735-1.175-1.892-3.155-3.05-5.937-3.476v.058z" fill="#fff" stroke="#fff" stroke-width=".5"/><path d="M166.281-1.19c2.405 5.159 4.747 10.313 6.434 15.659 6.953 22.029 6.31 45.604-12.039 69.261 6.181-1.17 12.188-2.684 17.811-4.956l-2.933 3.51c7.758-.322 17.322-3.751 24.153-8.327 9.517-6.373 12.137-18.626 6.778-29.784-.821-1.709-1.614-3.498-2.825-5.124l-4.487-6.026a46.74 46.74 0 01-1.772-2.594c-.61-.948-1.251-1.87-1.954-2.983-1.636-2.59-3.835-5.632-6.566-9.126-8.312-9.2-15.635-15.12-22.6-19.51v0z" fill="#fff" stroke="#fff" stroke-width=".216"/><path d="M170.889 4.008c5.002 13.515 9.113 27.03 7.647 40.546-1.257 15.275-6.699 26.644-13.532 36.425 4.749-1.138 9.406-2.367 13.862-3.794 1.9-2.935 3.762-6.372 5.21-10.008 2.117-5.312 3.475-11.172 3.811-17.523.737-9.651-2.362-21.02-8.087-33.565 5.446 3.85 10.124 7.623 14.102 11.328-6.083-7.965-12.653-15.882-23.013-23.41v0z" fill="#E30016" stroke="#E30016" stroke-width=".216"/><path d="M184.255 21.463c8.734 20.865 8.192 40.527-4.29 58.215 17.314-4.047 28.196-11.419 27.613-24.717-1.492-11.45-9.546-22.517-23.323-33.498v0z" fill="#E30016" stroke="#E30016" stroke-width=".216"/></g><defs><clipPath id="clip0"><path fill="#fff" d="M0 0h217v115.094H0z"/></clipPath></defs></svg>