<?xml version="1.0" encoding="utf-8"?><svg xmlns="http://www.w3.org/2000/svg" xmlns:xlink="http://www.w3.org/1999/xlink"><symbol viewBox="0 0 24 24" id="arrow" xmlns="http://www.w3.org/2000/svg"><path fill-rule="evenodd" clip-rule="evenodd" d="M6.793 21.207a1 1 0 010-1.414L14.586 12 6.793 4.207a1 1 0 011.414-1.414l8.5 8.5a1 1 0 010 1.414l-8.5 8.5a1 1 0 01-1.414 0z"/></symbol><symbol viewBox="0 0 32 32" id="burger" xmlns="http://www.w3.org/2000/svg"><path d="M4 8h24v2H4zM4 15h24v2H4zM4 22h24v2H4z"/></symbol><symbol viewBox="0 0 24 24" id="calculator" xmlns="http://www.w3.org/2000/svg"><path fill-rule="evenodd" clip-rule="evenodd" d="M7 6v2h10V6H7z"/><path d="M7 10h2v2H7v-2zM7 14h2v2H7v-2zM11 10h2v2h-2v-2zM11 14h2v2h-2v-2zM15 10h2v2h-2v-2zM15 14h2v2h-2v-2z"/><path fill-rule="evenodd" clip-rule="evenodd" d="M5 4v16h14V4H5zM4 2a1 1 0 00-1 1v18a1 1 0 001 1h16a1 1 0 001-1V3a1 1 0 00-1-1H4z"/></symbol><symbol viewBox="0 0 32 32" id="cross" xmlns="http://www.w3.org/2000/svg"><path d="M8.223 6.808l16.97 16.97-1.414 1.414-16.97-16.97 1.414-1.414z"/><path d="M6.807 23.778l16.97-16.97 1.414 1.414-16.97 16.97-1.414-1.414z"/></symbol><symbol viewBox="0 0 32 32" id="instagram" xmlns="http://www.w3.org/2000/svg"><mask id="ea" maskUnits="userSpaceOnUse" x="2" y="2" width="28" height="28"><path d="M2.656 2.667h26.677V29.34H2.656V2.666z"/></mask><g mask="url(#ea)"><path fill-rule="evenodd" clip-rule="evenodd" d="M15.995 2.667c-3.623 0-4.077.015-5.5.08-1.42.065-2.39.29-3.238.62a6.538 6.538 0 00-2.362 1.538 6.538 6.538 0 00-1.538 2.363c-.33.848-.556 1.818-.62 3.237-.065 1.423-.08 1.877-.08 5.5 0 3.622.015 4.077.08 5.5.064 1.419.29 2.389.62 3.237.34.877.796 1.621 1.538 2.363a6.538 6.538 0 002.362 1.538c.849.33 1.819.555 3.238.62 1.423.065 1.877.08 5.5.08 3.622 0 4.076-.015 5.499-.08 1.42-.065 2.39-.29 3.238-.62a6.538 6.538 0 002.362-1.538 6.54 6.54 0 001.539-2.363c.33-.848.555-1.818.62-3.238.065-1.422.08-1.877.08-5.5 0-3.622-.015-4.076-.08-5.499-.065-1.42-.29-2.389-.62-3.237a6.54 6.54 0 00-1.539-2.363 6.538 6.538 0 00-2.362-1.538c-.849-.33-1.818-.555-3.238-.62-1.423-.065-1.877-.08-5.5-.08zm0 2.403c3.561 0 3.983.013 5.39.078 1.3.059 2.006.276 2.476.459a4.132 4.132 0 011.534.998c.467.466.756.91.998 1.533.182.47.4 1.177.459 2.477.064 1.406.078 1.828.078 5.39 0 3.561-.014 3.983-.078 5.39-.06 1.3-.277 2.006-.46 2.477a4.132 4.132 0 01-.997 1.533 4.132 4.132 0 01-1.534.998c-.47.183-1.176.4-2.477.46-1.406.063-1.828.077-5.39.077-3.561 0-3.983-.014-5.39-.078-1.3-.06-2.006-.276-2.476-.46a4.132 4.132 0 01-1.534-.997 4.132 4.132 0 01-.997-1.534c-.183-.47-.4-1.176-.46-2.476-.064-1.407-.077-1.829-.077-5.39 0-3.562.013-3.983.077-5.39.06-1.3.277-2.007.46-2.477a4.132 4.132 0 01.997-1.533 4.132 4.132 0 011.534-.998c.47-.183 1.176-.4 2.477-.46 1.406-.064 1.828-.077 5.39-.077z"/></g><path fill-rule="evenodd" clip-rule="evenodd" d="M15.994 20.45a4.446 4.446 0 110-8.891 4.446 4.446 0 010 8.892zm0-11.295a6.85 6.85 0 100 13.699 6.85 6.85 0 000-13.699zM24.717 8.885a1.6 1.6 0 11-3.201 0 1.6 1.6 0 013.2 0z"/></symbol><symbol viewBox="0 0 16 16" id="metro" xmlns="http://www.w3.org/2000/svg"><path d="M13.982 11.251l-3.148-7.978-2.653 4.66-2.652-4.66-3.15 7.978h-.926v1.204H6.21v-1.204H5.5l.69-1.987 1.991 3.282 1.989-3.282.692 1.987h-.712v1.204h4.758v-1.204h-.926z"/></symbol><symbol viewBox="0 0 24 24" id="odnoklassniki" xmlns="http://www.w3.org/2000/svg"><path d="M12.42 2c2.703 0 4.893 2.32 4.893 5.183 0 2.862-2.19 5.183-4.893 5.183-2.702 0-4.893-2.32-4.893-5.183S9.718 2 12.42 2zm0 7.325c1.117 0 2.023-.959 2.023-2.142 0-1.183-.906-2.143-2.023-2.143s-2.022.96-2.022 2.143c0 1.183.905 2.142 2.022 2.142zM10.693 16.49c-1.959-.423-3.133-1.406-3.195-1.458-.573-.487-.665-1.374-.205-1.982a1.28 1.28 0 011.87-.217c.012.01 1.264 1.027 3.324 1.029 2.06-.002 3.338-1.019 3.35-1.03a1.28 1.28 0 011.87.218c.46.608.368 1.495-.205 1.981-.063.054-1.285 1.062-3.3 1.475l2.807 3.107c.51.56.495 1.452-.034 1.992-.258.264-.59.395-.923.395-.349 0-.697-.144-.958-.431l-2.607-2.942-2.87 2.961c-.521.55-1.363.55-1.882-.002a1.469 1.469 0 01.001-1.992l2.957-3.105zM12.487 13.862c.003 0-.003 0 0 0s-.004 0 0 0z"/></symbol><symbol viewBox="0 0 32 32" id="phone" xmlns="http://www.w3.org/2000/svg"><path fill-rule="evenodd" clip-rule="evenodd" d="M10.7 8.037L8.367 9.594A.82.82 0 008 10.32c.058.682.13 1.418.254 1.906.63 2.416 2.155 4.977 4.345 7.17 2.19 2.192 4.748 3.718 7.162 4.348.494.128 1.27.218 1.91.255.3.017.587-.129.754-.384l.001-.002 1.534-2.332c.08-.123.026-.257-.066-.303l-.01-.006-3.691-1.904-.014-.008a.158.158 0 00-.114-.013.232.232 0 00-.13.08l-1.86 2.388-.744-.399c-1.375-.738-2.463-1.475-3.7-2.713-1.343-1.326-2.043-2.441-2.753-3.765l-.4-.744 2.367-1.842a.212.212 0 00.072-.123.225.225 0 00-.018-.15L11 8.111l-.003-.006c-.046-.092-.177-.146-.298-.068zm2.083-.833c-.6-1.192-2.094-1.553-3.183-.837L7.266 7.924a2.82 2.82 0 00-1.261 2.524v.014l.002.013c.055.64.135 1.566.312 2.251v.003c.735 2.819 2.47 5.682 4.866 8.08 2.395 2.398 5.256 4.135 8.073 4.871h.002c.681.177 1.61.276 2.297.315a2.845 2.845 0 002.541-1.284l.001-.001 1.535-2.333c.714-1.089.354-2.583-.837-3.184l-3.66-1.889c-.966-.527-2.131-.224-2.771.585l-.82 1.053a12.074 12.074 0 01-2.502-1.955l-.005-.006c-.913-.9-1.472-1.67-1.988-2.554l1.029-.801.006-.005a2.228 2.228 0 00.59-2.761l-1.893-3.656z"/></symbol><symbol viewBox="0 0 187 128" id="quote" xmlns="http://www.w3.org/2000/svg"><path fill-rule="evenodd" clip-rule="evenodd" d="M144.547 42.667c23.466 0 42.453 19.2 42.453 42.666C187 108.8 167.8 128 144.333 128c-23.466 0-42.666-19.2-42.666-42.667C101.667 38.187 139.853 0 187 0c0 0-27.947 10.453-42.453 42.667zM85.333 85.333c0 23.467-19.2 42.667-42.666 42.667C19.2 128 0 108.8 0 85.333 0 38.187 38.187 0 85.333 0c0 0-27.946 10.453-42.453 42.667 23.467 0 42.453 19.2 42.453 42.666z"/></symbol><symbol viewBox="0 0 24 22" id="star" xmlns="http://www.w3.org/2000/svg"><path d="M12 0l2.694 8.292h8.719l-7.054 5.124 2.694 8.292L12 16.584l-7.053 5.124 2.694-8.292L.587 8.292h8.719L12 0z"/></symbol><symbol viewBox="0 0 24 24" id="vkontakte" xmlns="http://www.w3.org/2000/svg"><path fill-rule="evenodd" clip-rule="evenodd" d="M21.213 19H19.03c-.827 0-1.081-.717-2.566-2.36-1.294-1.364-1.866-1.55-2.184-1.55-.446 0-.573.14-.573.81v2.152c0 .578-.17.925-1.57.925-2.31 0-4.877-1.527-6.68-4.372C2.743 10.441 2 7.318 2 6.671 2 6.324 2.127 6 2.742 6h2.185c.55 0 .763.278.975.925 1.082 3.4 2.884 6.385 3.626 6.385.276 0 .403-.14.403-.902V8.89c-.084-1.619-.87-1.758-.87-2.336 0-.277.213-.555.552-.555h3.436c.466 0 .636.278.636.879v4.742c0 .509.212.694.34.694.275 0 .508-.185 1.017-.74 1.57-1.92 2.693-4.881 2.693-4.881.149-.347.403-.67.955-.67h2.184c.657 0 .806.37.658.878-.276 1.388-2.948 5.506-2.948 5.506-.234.416-.318.6 0 1.064.233.347.996 1.064 1.505 1.711.934 1.157 1.655 2.128 1.845 2.8.212.67-.106 1.017-.72 1.017z"/></symbol></svg>