<svg width="48" height="48" fill="none" xmlns="http://www.w3.org/2000/svg"><path d="M11.52 1.92c-3.358 0-5.76 2.646-5.76 5.76v33.04h.004c0 .027-.004.052-.004.079 0 2.905 2.375 5.28 5.28 5.28h31.2v-1.92h-31.2a3.346 3.346 0 01-3.36-3.36 3.346 3.346 0 013.36-3.36h31.2V1.92H11.52zm5.76 4.806c1.06 0 1.92.857 1.92 1.914s-.86 1.914-1.92 1.914-1.92-.857-1.92-1.914.86-1.914 1.92-1.914zm14.56.982c1.306.034 2.42.47 3.28 1.33 1.172 1.17 2.186 3.421.366 7.5-.51 1.143-1.23 2.365-2.11 3.62.88 1.256 1.601 2.481 2.112 3.624 1.82 4.078.805 6.33-.365 7.5a4.437 4.437 0 01-.569.46c0-.021.006-.041.006-.062a3.8 3.8 0 00-.59-2.023c1.047-1.372.476-3.494-.235-5.09-.393-.88-.922-1.818-1.564-2.783a41.127 41.127 0 01-3.093 3.453 41.495 41.495 0 01-3.45 3.102c.669.443 1.32.834 1.944 1.157a3.794 3.794 0 00-.653 1.803 23.04 23.04 0 01-2.917-1.747c-2.877 2.005-5.524 3.063-7.67 3.063-1.381 0-2.556-.435-3.453-1.333-1.17-1.17-2.184-3.422-.365-7.5.51-1.143 1.23-2.366 2.11-3.62-.878-1.255-1.6-2.48-2.11-3.623-1.82-4.078-.805-6.33.365-7.5.177-.18.369-.334.569-.476 0 .026-.008.05-.008.077 0 .744.222 1.435.59 2.023-1.047 1.372-.476 3.494.235 5.09.393.88.922 1.817 1.564 2.783a41.093 41.093 0 013.093-3.454 41.449 41.449 0 013.452-3.097 20.87 20.87 0 00-1.948-1.16 3.798 3.798 0 00.653-1.799 23.174 23.174 0 012.915 1.744c2.956-2.06 5.668-3.119 7.845-3.062zm-.222 1.9c-1.591 0-3.68.833-6 2.375a41.04 41.04 0 013.46 3.1 41.112 41.112 0 013.093 3.453c.642-.965 1.172-1.902 1.564-2.782.758-1.7 1.38-4.01.03-5.36-.532-.53-1.264-.787-2.147-.787zm-7.616 3.54a39.026 39.026 0 00-3.722 3.294 38.396 38.396 0 00-3.281 3.72 38.637 38.637 0 003.281 3.72 38.669 38.669 0 003.716 3.29 38.846 38.846 0 003.724-3.29 38.397 38.397 0 003.281-3.72 38.652 38.652 0 00-3.281-3.72 38.744 38.744 0 00-3.718-3.295zM24 17.28c1.596 0 2.89 1.29 2.89 2.88 0 1.59-1.294 2.88-2.89 2.88a2.885 2.885 0 01-2.89-2.88c0-1.59 1.294-2.88 2.89-2.88zm-8.171 4.504c-.642.965-1.172 1.902-1.564 2.782-.758 1.7-1.38 4.01-.03 5.359 1.49 1.492 4.538.812 8.145-1.586-1.13-.9-2.287-1.93-3.457-3.102a41.108 41.108 0 01-3.094-3.453zm14.891 7.982c1.06 0 1.92.857 1.92 1.914s-.86 1.914-1.92 1.914-1.92-.857-1.92-1.914.86-1.915 1.92-1.915z" fill="#EC4176"/></svg>