<svg width="48" height="48" fill="none" xmlns="http://www.w3.org/2000/svg"><path d="M33.6 5.76a2.886 2.886 0 00-2.88 2.88v7.68a2.885 2.885 0 002.88 2.88h11.52A2.886 2.886 0 0048 16.32V8.64a2.886 2.886 0 00-2.88-2.88H33.6zm-4.8 7.68l-9.6 7.2v2.4l9.6-7.2v-2.4zM2.88 17.28A2.886 2.886 0 000 20.16v7.68a2.886 2.886 0 002.88 2.88H14.4a2.886 2.886 0 002.88-2.88v-7.68a2.886 2.886 0 00-2.88-2.88H2.88zm16.32 7.68v2.4l9.6 7.2v-2.4l-9.6-7.2zm14.4 3.84a2.886 2.886 0 00-2.88 2.88v7.68a2.885 2.885 0 002.88 2.88h11.52A2.886 2.886 0 0048 39.36v-7.68a2.886 2.886 0 00-2.88-2.88H33.6z" fill="#EC4176"/></svg>