<svg width="48" height="48" fill="none" xmlns="http://www.w3.org/2000/svg"><path d="M17.6 0v10.667h15.306a.8.8 0 01.588.213l3.84 4v-3.466a.799.799 0 01.852-.747h2.347V0H17.6zM7.467 2.133v12.8h4.747c.426 0 .586.107.586.534v1.44l3.094-1.974c.106-.106.373 0 .533 0H25.6v-2.666h-8.853a.747.747 0 01-.747-.853v-9.28H7.467zM11.04 22.08a4.32 4.32 0 10-.085 8.64 4.32 4.32 0 00.085-8.64zm25.974 0a4.32 4.32 0 100 8.64 4.32 4.32 0 000-8.64zM24 25.067a4.32 4.32 0 100 8.64 4.32 4.32 0 000-8.64zM10.133 35.2A7.094 7.094 0 003.2 42.24v2.56h11.573a9.813 9.813 0 013.04-6.027 6.72 6.72 0 00-5.92-3.573h-1.76zm25.973 0a6.88 6.88 0 00-5.92 3.573 9.813 9.813 0 013.041 6.027H44.8v-2.56a7.094 7.094 0 00-6.933-7.04h-1.76zm-12.96 3.2c-3.626 0-6.613 3.467-6.613 7.36V48h14.934v-2.24c0-3.893-2.987-7.36-6.614-7.36h-1.706z" fill="#EC4176"/></svg>