<svg width="48" height="48" fill="none" xmlns="http://www.w3.org/2000/svg"><path d="M24 0C10.745 0 0 10.745 0 24s10.745 24 24 24 24-10.745 24-24S37.255 0 24 0z" fill="#40B3E0"/><path d="M35.678 13.805l-4.287 21.613s-.6 1.499-2.248.78l-9.892-7.585-3.597-1.738-6.055-2.039s-.93-.33-1.02-1.049c-.09-.72 1.05-1.109 1.05-1.109l24.07-9.442s1.979-.87 1.979.57" fill="#fff"/><path d="M18.49 35.176s-.288-.027-.648-1.166c-.36-1.139-2.188-7.134-2.188-7.134l14.538-9.233s.84-.51.81 0c0 0 .15.09-.3.51-.45.42-11.42 10.282-11.42 10.282" fill="#D2E5F1"/><path d="M23.044 31.522L19.13 35.09s-.306.233-.64.087l.749-6.626" fill="#B5CFE4"/></svg>