<svg width="24" height="25" fill="none" xmlns="http://www.w3.org/2000/svg"><g clip-path="url(#clip0_73_163)"><path d="M11.988.5C5.364.5 0 5.876 0 12.5s5.364 12 11.988 12C18.624 24.5 24 19.124 24 12.5S18.624.5 11.988.5zM16.8 17.3a1.195 1.195 0 01-1.692 0l-3.948-3.948a1.2 1.2 0 01-.36-.852V7.7c0-.66.54-1.2 1.2-1.2.66 0 1.2.54 1.2 1.2v4.308l3.6 3.6a1.195 1.195 0 010 1.692z" fill="#7843E9"/></g><defs><clipPath id="clip0_73_163"><path fill="#fff" transform="translate(0 .5)" d="M0 0h24v24H0z"/></clipPath></defs></svg>