<svg width="20" height="20" fill="none" xmlns="http://www.w3.org/2000/svg"><g clip-path="url(#clip0_1053_283)"><path d="M13.334 5a.833.833 0 010 1.667H6.667a.833.833 0 010-1.667h6.667zm6.422 14.756a.833.833 0 01-1.178 0l-2.006-2.006a3.714 3.714 0 01-4.072-.049 3.75 3.75 0 115.834-3.118 3.714 3.714 0 01-.584 1.989l2.006 2.006a.833.833 0 010 1.178zm-5.172-3.09a2.083 2.083 0 100-4.166 2.083 2.083 0 000 4.167zm-3.75 1.667h-5a2.5 2.5 0 01-2.5-2.5V4.167a2.5 2.5 0 012.5-2.5h10a.833.833 0 01.833.833v6.667a.833.833 0 101.667 0V2.5a2.5 2.5 0 00-2.5-2.5h-10a4.172 4.172 0 00-4.167 4.167v11.666A4.172 4.172 0 005.834 20h5a.833.833 0 000-1.667z" fill="#EC4176"/></g><defs><clipPath id="clip0_1053_283"><path fill="#fff" d="M0 0h20v20H0z"/></clipPath></defs></svg>