<svg width="20" height="20" fill="none" xmlns="http://www.w3.org/2000/svg"><g clip-path="url(#clip0_1053_264)"><path d="M10 3.333a.833.833 0 01-.833-.833V.833a.833.833 0 111.666 0V2.5a.834.834 0 01-.833.833zm.833 15.834V17.5a.834.834 0 00-1.666 0v1.667a.833.833 0 001.666 0zM3.333 10a.833.833 0 00-.833-.833H.833a.833.833 0 100 1.666H2.5A.834.834 0 003.333 10zM20 10a.833.833 0 00-.833-.833H17.5a.833.833 0 000 1.666h1.667A.834.834 0 0020 10zm-5.518-6.07l.834-1.443a.834.834 0 00-1.443-.834l-.833 1.443a.833.833 0 101.443.833zM6.124 18.345l.833-1.443a.833.833 0 00-1.442-.833l-.833 1.442a.833.833 0 001.442.836v-.002zM4.233 6.656a.833.833 0 00-.304-1.138l-1.442-.834a.833.833 0 00-.834 1.443l1.443.833a.833.833 0 001.138-.304h-.002zm14.416 8.359a.834.834 0 00-.303-1.14l-1.443-.832a.833.833 0 00-.833 1.442l1.442.833a.834.834 0 001.14-.303h-.003zM6.656 4.232a.833.833 0 00.304-1.138l-.833-1.442a.833.833 0 00-1.443.833l.833 1.443a.833.833 0 001.139.304zm8.359 14.417a.834.834 0 00.303-1.138l-.833-1.443a.834.834 0 00-1.442.834l.833 1.442a.835.835 0 001.139.303v.002zm1.89-11.692l1.443-.833a.833.833 0 00-.833-1.442l-1.442.833a.833.833 0 00.833 1.442zM2.49 15.316l1.443-.834a.833.833 0 00-.834-1.442l-1.442.833a.834.834 0 00.83 1.445l.003-.002z" fill="#EC4176"/></g><defs><clipPath id="clip0_1053_264"><path fill="#fff" d="M0 0h20v20H0z"/></clipPath></defs></svg>