<svg width="120" height="120" fill="none" xmlns="http://www.w3.org/2000/svg"><circle cx="60" cy="60" r="45.206" fill="#27AE60" fill-opacity=".3"/><circle cx="60" cy="60" r="60" fill="#27AE60" fill-opacity=".3"/><circle cx="60" cy="60" r="29.589" fill="#27AE60"/><path d="M72.574 51.103l.006.006.007.007a1.507 1.507 0 010 2.215l-.006.005-.006.006-15.65 15.65h0a1.506 1.506 0 01-2.14 0h-.001l-7.365-7.365h0l-.005-.005a1.548 1.548 0 01.459-2.534l-.164-.377.164.377a1.548 1.548 0 011.69.304l6 6.019.291.291.291-.291 14.288-14.307.001-.001a1.508 1.508 0 012.14 0z" fill="#fff" stroke="#fff" stroke-width=".822"/></svg>