<svg width="121" height="24" fill="none" xmlns="http://www.w3.org/2000/svg"><g clip-path="url(#clip0)" fill="#fff"><path d="M7.698 2.083H6.61c-1.676 0-3.26 1.087-3.26 4.302 0 3.08 1.494 4.075 3.26 4.075h1.087V2.083zM5.977 12.18l-3.26 7.336h-2.4l3.577-7.834c-1.676-.86-2.808-2.445-2.808-5.298 0-4.076 2.536-6.068 5.57-6.068h3.08v19.155H7.697V12.18h-1.72zm43.833.59c0-4.212 1.63-6.929 4.8-6.929 1.223 0 1.902.317 2.49.68l-.316 1.992c-.544-.498-1.359-.951-2.22-.951-1.494 0-2.58 1.675-2.58 5.072 0 3.35.815 5.298 2.49 5.298.996 0 1.812-.408 2.264-.815l.498 1.54c-.724.633-1.584.995-2.807.995-2.898.046-4.619-2.309-4.619-6.883zm-6.113 0v6.747h-2.083V5.977h2.083v6.25l3.26-6.25h2.129l-3.351 6.34 3.849 7.154h-2.265l-3.622-6.701zm-9.827-1.223h3.442c0-2.31-.362-3.985-1.585-3.985-1.268-.045-1.72 1.54-1.857 3.985zm2.31 8.15c-2.808 0-4.483-2.218-4.483-6.384 0-4.347 1.223-7.517 4.075-7.517 2.264 0 3.714 1.675 3.714 6.249v1.132h-5.66c0 3.034.86 4.664 2.535 4.664 1.177 0 2.128-.543 2.672-.905l.498 1.584a5.285 5.285 0 01-3.351 1.178zm-8.876-12h-2.31v.227c0 2.853-.135 6.974-1.267 9.872h3.577V7.698zm3.125 14.446h-1.902v-2.626h-5.75v2.671h-1.858v-4.347h.816c1.222-2.853 1.358-7.019 1.358-10.641V6.068h6.25V17.84h1.086v4.302zM19.697 5.977v13.494h-2.083V13.45h-3.125v6.068h-2.083V5.977h2.083v5.706h3.125V5.977h2.083zm45.828.003c-.272-.996-.499-1.856-.634-2.717H64.8c.045.906.09 1.857.09 2.853V19.52h-1.222V.365h1.54l3.26 12.227c.136.498.317 1.494.407 2.218h.091c.09-.724.317-1.72.453-2.218L72.679.365h1.495V19.52h-1.268V6.116c0-.905.045-1.856.09-2.853h-.09a39.807 39.807 0 01-.634 2.672l-2.853 10.642h-1.042L65.525 5.98zm16.98 10.14v-3.713h-1.45c-2.218 0-3.305.996-3.305 3.351 0 1.902.815 2.989 2.128 2.989 1.223 0 2.129-1.177 2.627-2.627zm.045 1.585c-.634 1.268-1.585 2.083-2.943 2.083-1.812 0-3.08-1.449-3.08-3.894 0-2.898 1.585-4.392 4.483-4.392h1.495V9.826c0-2.038-.77-2.943-2.264-2.943-1.132 0-2.174.543-2.853 1.494l-.363-1.223c.544-.679 1.676-1.358 3.17-1.358 2.22 0 3.487 1.223 3.487 3.894v7.381c0 .951.136 1.993.317 2.49h-1.132c-.136-.407-.272-.905-.317-1.856zm10.643-5.252c0-3.532-.95-5.615-2.535-5.615-1.223 0-2.22 1.268-2.808 2.717v7.562c.543 1.087 1.268 1.63 2.49 1.63 1.721 0 2.853-2.038 2.853-6.294zm-5.343 6.113v5.117h-1.268V6.023h1.087l.09 2.219c.59-1.268 1.585-2.491 3.08-2.491 2.264 0 3.577 2.717 3.577 6.611 0 4.936-1.675 7.381-4.166 7.381-.996 0-1.857-.498-2.4-1.177zm10.277.951H96.86V5.977h1.268v6.385l4.529-6.385h1.222l-4.438 6.294 4.755 7.246h-1.404l-4.664-7.02v7.02zM106.006 12h4.936c.226-3.577-.86-5.208-2.219-5.208-1.449 0-2.581 1.812-2.717 5.208zm2.944 6.657c1.811 0 2.717-1.45 2.717-1.45l.407.997s-.996 1.54-3.17 1.54c-2.853 0-4.166-2.582-4.166-7.02 0-4.437 1.676-7.018 3.94-7.018 2.309 0 3.849 2.445 3.396 7.245h-6.113c.09 3.713 1.041 5.706 2.989 5.706zm8.708-11.597v12.453h-1.268V7.06h-3.124V5.974h7.471V7.06h-3.079z"/></g><defs><clipPath id="clip0"><path fill="#fff" d="M0 0h120.906v24H0z"/></clipPath></defs></svg>