<svg width="27" height="24" fill="none" xmlns="http://www.w3.org/2000/svg"><g clip-path="url(#clip0)"><path d="M16.8 11.4L6.6 9.6v13.3A1.1 1.1 0 007.7 24h17.6a1.1 1.1 0 001.1-1.1V18l-9.6-6.6z" fill="#185C37"/><path d="M16.8 0H7.7a1.1 1.1 0 00-1.1 1.1V6l10.2 6 5.4 1.8 4.2-1.8V6l-9.6-6z" fill="#21A366"/><path d="M6.6 6h10.2v6H6.6V6z" fill="#107C41"/><path opacity=".1" d="M13.9 4.8H6.6v15h7.3a1.103 1.103 0 001.1-1.1V5.9a1.103 1.103 0 00-1.1-1.1z" fill="#000"/><path opacity=".2" d="M13.3 5.4H6.6v15h6.7a1.103 1.103 0 001.1-1.1V6.5a1.103 1.103 0 00-1.1-1.1z" fill="#000"/><path opacity=".2" d="M13.3 5.4H6.6v13.8h6.7a1.103 1.103 0 001.1-1.1V6.5a1.103 1.103 0 00-1.1-1.1z" fill="#000"/><path opacity=".2" d="M12.7 5.4H6.6v13.8h6.1a1.103 1.103 0 001.1-1.1V6.5a1.103 1.103 0 00-1.1-1.1z" fill="#000"/><path d="M1.7 5.4h11a1.1 1.1 0 011.1 1.1v11a1.1 1.1 0 01-1.1 1.1h-11a1.1 1.1 0 01-1.1-1.1v-11a1.1 1.1 0 011.1-1.1z" fill="url(#paint0_linear)"/><path d="M4.006 15.575L6.32 11.99 4.2 8.425h1.705l1.157 2.28c.107.216.18.377.22.483h.015c.076-.173.156-.34.24-.503l1.236-2.26h1.566L8.165 11.97l2.229 3.605H8.728l-1.336-2.503a2.1 2.1 0 01-.16-.334h-.02c-.039.114-.09.222-.154.324l-1.376 2.513H4.006z" fill="#fff"/><path d="M25.3 0h-8.5v6h9.6V1.1A1.1 1.1 0 0025.3 0z" fill="#33C481"/><path d="M16.8 12h9.6v6h-9.6v-6z" fill="#107C41"/></g><defs><linearGradient id="paint0_linear" x1="2.893" y1="4.541" x2="11.507" y2="19.459" gradientUnits="userSpaceOnUse"><stop stop-color="#18884F"/><stop offset=".5" stop-color="#117E43"/><stop offset="1" stop-color="#0B6631"/></linearGradient><clipPath id="clip0"><path fill="#fff" transform="translate(.6)" d="M0 0h25.8v24H0z"/></clipPath></defs></svg>