<svg width="24" height="24" fill="none" xmlns="http://www.w3.org/2000/svg"><path d="M8.468 8.395l-.002.001-.003.002.005-.003zm9.954-.187a1.24 1.24 0 00-.23-.175 1 1 0 00-1.4.411 5.783 5.783 0 01-1.398 1.778 8.714 8.714 0 00-4.267-9.092 1 1 0 00-1.49.806 7.017 7.017 0 01-2.472 4.942l-.23.187a8.513 8.513 0 00-1.988 1.863 8.984 8.984 0 003.656 13.908.998.998 0 001.327-1.238 6.977 6.977 0 01-.19-2.581 9.004 9.004 0 004.313 4.016c.225.101.48.115.715.038a8.995 8.995 0 003.654-14.863zm-3.905 12.831a6.964 6.964 0 01-3.576-4.402 8.877 8.877 0 01-.18-.964 1 1 0 00-1.858-.362 8.958 8.958 0 00-1.205 4.717 6.985 6.985 0 01-1.176-9.868 6.554 6.554 0 011.562-1.458.745.745 0 00.075-.055s.296-.245.307-.25a8.968 8.968 0 002.898-4.633 6.736 6.736 0 011.386 8.088 1 1 0 001.184 1.418 7.856 7.856 0 003.862-2.688 7.002 7.002 0 01-3.279 10.457z" fill="url(#paint0_linear)"/><defs><linearGradient id="paint0_linear" x1="12" y1="1" x2="12" y2="23.12" gradientUnits="userSpaceOnUse"><stop stop-color="#FFCC4A"/><stop offset="1" stop-color="#EC7100"/></linearGradient></defs></svg>