<svg width="20" height="20" fill="none" xmlns="http://www.w3.org/2000/svg"><path d="M19.169 8.092a7.083 7.083 0 00-.759-3.442 2.434 2.434 0 00-1.433-.833 65.3 65.3 0 00-6.975-.259c-2.32-.04-4.64.044-6.95.25-.457.083-.88.298-1.217.617C1.085 5.117 1.002 6.3.92 7.3a40.242 40.242 0 000 5.4 7.96 7.96 0 00.25 1.667c.1.42.304.81.591 1.133.34.336.772.563 1.242.65 1.797.222 3.607.314 5.417.275 2.916.042 5.475 0 8.5-.233a2.4 2.4 0 001.275-.65c.233-.234.407-.52.508-.834a8.817 8.817 0 00.433-2.833c.034-.467.034-3.283.034-3.783zm-11.05 4.283V7.217l4.933 2.591c-1.383.767-3.208 1.634-4.933 2.567z" fill="#EF370F"/></svg>