<svg width="60" height="61" fill="none" xmlns="http://www.w3.org/2000/svg"><mask id="a" maskUnits="userSpaceOnUse" x="0" y="0" width="60" height="61"><path d="M60 30.389c0 16.568-13.431 30-30 30-16.569 0-30-13.432-30-30 0-16.569 13.431-30 30-30 16.569 0 30 13.431 30 30z" fill="#C4C4C4"/></mask><g mask="url(#a)"><path d="M52.214 50.582a29.713 29.713 0 007.612-19.9C59.826 14.208 46.472.854 30 .854S.174 14.21.174 30.681c0 7.648 2.88 14.622 7.613 19.901h44.427z" fill="#FFE854"/><path d="M39.014 51.263h17.618a19.905 19.905 0 005.963-4.54c-.752-2.198-1.597-4.247-2.298-4.866-1.705-1.505-9.088-2.721-9.088-2.721v-8.683h-6.771v8.683s-7.384 1.216-9.089 2.72c-.7.62-1.545 2.669-2.298 4.867a19.907 19.907 0 005.963 4.54z" fill="#FFAEA1"/><path d="M58.916 47.454l-.892 3.047c.57-.342 1.12-.711 1.651-1.107v-1.83c0-.449-.633-.54-.759-.11zm-22.945.109v1.83c.53.397 1.082.766 1.651 1.108l-.892-3.047c-.126-.43-.759-.339-.759.109z" fill="#F4958C"/><path d="M54.564 22.333s.373-2.787-.969-4.342a.318.318 0 00-.558.232l.016.197s-.77-1.502-2.752-2.092c-.275-.082-.507.22-.36.468l.09.152s-1.194-1.194-5.154-1.277a.318.318 0 00-.222.55l.227.212s-1.49.263-3.466 1.458a.318.318 0 00.095.582l.161.037a7.715 7.715 0 00-1.402 2.384.318.318 0 00.412.406c.255-.098-.606 2.815.128 5.244l7.013 1.584 7.013-1.584s.425-2.042-.272-4.211z" fill="#3A3839"/><path d="M44.955 22.192c-2.066-.443-3.536-1.254-4.273-.892 0 0-.606 2.814.128 5.243l4.33.978-.185-5.329z" fill="#111"/><path d="M53.175 27.885s.69-1.678 1.918-1.289c1.229.39-.03 4.027-2.428 4.256l.51-2.967z" fill="#FFAEA1"/><path d="M42.471 27.885s-.689-1.678-1.917-1.289c-1.23.39.03 4.027 2.427 4.256l-.51-2.967zm1.967 2.568v8.683c3.636 0 5.675-2.79 5.675-2.79l1.096-5.893h-6.771z" fill="#F4958C"/><path d="M53.347 25.767a3.924 3.924 0 01-.181-.699l-5.343-1.55-5.343 1.55c-.053.283-.11.528-.18.7-.316.77-.713.926-.765.944-.004.12-.007.242-.007.364 0 4.635 2.819 10.072 6.295 10.072 3.477 0 6.295-5.437 6.295-10.072 0-.122-.003-.243-.006-.364-.053-.017-.45-.174-.765-.945z" fill="#FFCFC2"/><path d="M43.693 27.076c0-.864.1-1.681.281-2.441l-1.494.433c-.053.283-.11.528-.18.7-.316.77-.713.927-.765.944-.004.12-.007.242-.007.364 0 4.636 2.819 10.072 6.295 10.072.37 0 .73-.062 1.083-.177-2.961-.969-5.213-5.752-5.213-9.895z" fill="#FFAEA1"/><path d="M39.014 40.323v10.94a19.745 19.745 0 008.81 2.06c3.164 0 6.154-.742 8.808-2.06v-10.94a49.79 49.79 0 00-3.1-.744v3.386a5.71 5.71 0 11-11.418 0V39.58a49.79 49.79 0 00-3.1.744z" fill="#3E4A68"/><path d="M45.499 50.999a2.324 2.324 0 012.324-2.324 5.71 5.71 0 01-5.71-5.71V39.58a49.79 49.79 0 00-3.099.744v10.94a19.745 19.745 0 008.81 2.06A2.324 2.324 0 0145.498 51z" fill="#303A59"/><path d="M47.823 22.669c-2.2 0-3.08-.698-3.842-.7h-.001c-.141 0-.278.023-.418.08-.713.285-.876 1.936-1.082 3.019h10.686c-.206-1.084-.369-2.734-1.082-3.02a1.098 1.098 0 00-.418-.079c-.762.002-1.642.7-3.843.7z" fill="#fff"/><path d="M46.623 23.868a1.2 1.2 0 011.2-1.2c-2.2 0-3.08-.697-3.842-.699h-.001c-.141 0-.278.023-.418.08-.713.285-.876 1.936-1.082 3.019h5.343a1.2 1.2 0 01-1.2-1.2z" fill="#EBF0F3"/><path d="M42.114 45.146h-3.1a1.162 1.162 0 010-2.324h3.1a1.162 1.162 0 110 2.324z" fill="#fff"/><path d="M40.37 43.984c0-.642.52-1.162 1.163-1.162h-2.518a1.162 1.162 0 100 2.324h2.517c-.641 0-1.162-.52-1.162-1.162z" fill="#EBF0F3"/><path d="M5.057 49.662h13.687a15.464 15.464 0 004.633-3.527c-.584-1.708-1.24-3.3-1.786-3.781-1.324-1.17-7.06-2.114-7.06-2.114v-6.746H9.27v6.746s-5.738.945-7.062 2.114c-.544.48-1.2 2.073-1.785 3.78a15.467 15.467 0 004.633 3.528z" fill="#FFAEA1"/><path d="M20.519 46.703l-.693 2.367c.442-.266.87-.553 1.282-.86v-1.423c0-.347-.492-.418-.59-.084zm-17.827.084v1.423c.412.307.84.594 1.283.86l-.693-2.367c-.098-.334-.59-.264-.59.084z" fill="#F4958C"/><path d="M17.137 27.185s.29-2.165-.752-3.373a.247.247 0 00-.434.18l.012.153s-.598-1.167-2.138-1.625c-.213-.064-.393.172-.28.363l.07.119s-.927-.928-4.003-.992a.247.247 0 00-.173.427l.176.165s-1.158.204-2.693 1.133a.247.247 0 00.074.451l.126.029a5.995 5.995 0 00-1.09 1.852c-.073.2.122.392.32.316.198-.076-.471 2.187.1 4.074l5.448 1.23 5.449-1.23s.33-1.586-.212-3.272z" fill="#3A3839"/><path d="M9.672 27.076c-1.606-.344-2.748-.974-3.32-.693 0 0-.471 2.187.1 4.074l3.363.76-.143-4.14z" fill="#111"/><path d="M16.058 31.5s.536-1.305 1.49-1.002c.955.303-.023 3.128-1.886 3.306l.396-2.305z" fill="#FFAEA1"/><path d="M7.742 31.5s-.535-1.305-1.49-1.002c-.954.303.023 3.128 1.886 3.306L7.742 31.5zm1.528 1.994v6.746c2.825 0 4.41-2.168 4.41-2.168l.85-4.578H9.27z" fill="#F4958C"/><path d="M16.192 29.854a3.053 3.053 0 01-.14-.544L11.9 28.106 7.75 29.31a3.05 3.05 0 01-.141.544c-.245.598-.554.72-.595.734a8.783 8.783 0 00-.004.282c0 3.602 2.19 7.825 4.89 7.825 2.701 0 4.89-4.223 4.89-7.825 0-.095-.001-.189-.004-.282-.041-.014-.35-.136-.594-.734z" fill="#FFCFC2"/><path d="M8.691 30.87c0-.67.077-1.306.219-1.896l-1.16.336c-.042.22-.086.41-.141.544-.245.598-.553.72-.594.734a8.783 8.783 0 00-.005.282c0 3.602 2.19 7.826 4.89 7.826.287 0 .568-.049.841-.138-2.3-.753-4.05-4.469-4.05-7.688z" fill="#FFAEA1"/><path d="M5.057 41.163v8.499a15.34 15.34 0 006.843 1.6 15.34 15.34 0 006.844-1.6v-8.5a38.586 38.586 0 00-2.408-.578v2.631a4.436 4.436 0 11-8.872 0v-2.631c-.726.152-1.585.35-2.407.579z" fill="#3E4A68"/><path d="M10.095 49.457c0-.998.808-1.806 1.805-1.806a4.436 4.436 0 01-4.436-4.436v-2.631c-.726.152-1.585.35-2.407.579v8.499a15.34 15.34 0 006.843 1.6 1.806 1.806 0 01-1.806-1.805z" fill="#303A59"/><path d="M11.9 27.446c-1.71 0-2.394-.542-2.985-.543a.85.85 0 00-.325.062c-.554.221-.68 1.503-.84 2.345h8.301c-.16-.841-.286-2.123-.84-2.345a.851.851 0 00-.325-.062c-.592.001-1.276.543-2.986.543z" fill="#fff"/><path d="M10.968 28.378c0-.515.417-.932.932-.932-1.71 0-2.394-.542-2.985-.543a.85.85 0 00-.325.062c-.554.221-.68 1.503-.84 2.345h4.15a.932.932 0 01-.932-.932z" fill="#EBF0F3"/><path d="M7.464 44.91H5.057a.903.903 0 010-1.806h2.407a.903.903 0 110 1.806z" fill="#fff"/><path d="M6.11 44.007c0-.499.404-.903.903-.903H5.057a.903.903 0 100 1.806h1.956a.903.903 0 01-.903-.903z" fill="#EBF0F3"/><path d="M16.754 57.408h26.492a29.933 29.933 0 008.968-6.826c-1.131-3.306-2.402-6.387-3.456-7.318C46.194 41 35.09 39.172 35.09 39.172V26.115H24.909v13.057s-11.103 1.829-13.667 4.092c-1.054.93-2.324 4.012-3.456 7.318a29.935 29.935 0 008.968 6.826z" fill="#FFAEA1"/><path d="M46.681 51.681l-1.341 4.583a29.914 29.914 0 002.483-1.666v-2.753c0-.673-.952-.81-1.142-.164zm-34.504.164v2.753a29.84 29.84 0 002.483 1.666l-1.34-4.584c-.19-.646-1.142-.51-1.142.164z" fill="#F4958C"/><path d="M40.136 13.904s.562-4.19-1.456-6.53a.478.478 0 00-.84.35l.024.296s-1.158-2.259-4.138-3.146c-.414-.123-.762.332-.541.704l.135.229s-1.796-1.797-7.75-1.92a.478.478 0 00-.334.826l.34.319s-2.24.395-5.211 2.193a.478.478 0 00.143.874l.243.056a11.602 11.602 0 00-2.11 3.585.478.478 0 00.62.61c.384-.146-.912 4.234.193 7.886L30 22.62l10.546-2.383s.639-3.07-.41-6.332z" fill="#8C4F5C"/><path d="M25.686 13.693c-3.107-.666-5.317-1.886-6.424-1.342 0 0-.913 4.233.192 7.885l6.51 1.47-.277-8.013z" fill="#7B3C47"/><path d="M38.048 22.254s1.036-2.524 2.884-1.938c1.848.586-.045 6.055-3.65 6.4l.766-4.462z" fill="#FFAEA1"/><path d="M21.952 22.254s-1.036-2.524-2.884-1.938c-1.848.586.045 6.055 3.65 6.4l-.766-4.462zm2.958 3.862v13.056c5.467 0 8.533-4.196 8.533-4.196l1.648-8.86H24.909z" fill="#F4958C"/><path d="M38.306 19.07c-.105-.258-.19-.627-.271-1.053L30 15.687l-8.034 2.33c-.081.426-.167.795-.272 1.052-.475 1.158-1.071 1.394-1.15 1.42-.007.182-.01.364-.01.548 0 6.97 4.238 15.146 9.466 15.146 5.228 0 9.466-8.176 9.466-15.146 0-.184-.004-.366-.01-.547-.079-.027-.675-.263-1.15-1.42z" fill="#FFCFC2"/><path d="M23.79 21.037c0-1.299.148-2.528.422-3.67l-2.246.65c-.081.426-.166.795-.272 1.052-.475 1.158-1.071 1.394-1.15 1.421-.006.181-.01.363-.01.547 0 6.97 4.238 15.146 9.466 15.146a5.21 5.21 0 001.628-.266c-4.453-1.457-7.839-8.65-7.839-14.88z" fill="#FFAEA1"/><path d="M16.754 40.958v16.45A29.692 29.692 0 0030 60.508c4.759 0 9.255-1.117 13.246-3.1v-16.45a74.826 74.826 0 00-4.66-1.12v5.093a8.586 8.586 0 11-17.172 0v-5.093c-1.407.295-3.07.676-4.66 1.12z" fill="#3E4A68"/><path d="M26.505 57.012A3.495 3.495 0 0130 53.517a8.586 8.586 0 01-8.586-8.586v-5.093c-1.407.295-3.07.676-4.66 1.12v16.45A29.692 29.692 0 0030 60.508a3.495 3.495 0 01-3.495-3.496z" fill="#303A59"/><path d="M30 14.409c-3.309 0-4.633-1.049-5.778-1.052h-.001c-.212 0-.418.035-.629.12-1.072.43-1.317 2.911-1.627 4.54h16.07c-.31-1.629-.555-4.11-1.627-4.54a1.648 1.648 0 00-.629-.12h-.001c-1.145.003-2.469 1.052-5.778 1.052z" fill="#fff"/><path d="M28.196 16.213c0-.996.807-1.804 1.804-1.804-3.309 0-4.633-1.049-5.778-1.052h-.001c-.212 0-.418.035-.629.12-1.072.43-1.317 2.911-1.627 4.54H30a1.804 1.804 0 01-1.804-1.804z" fill="#EBF0F3"/><path d="M21.414 48.21h-4.66a1.748 1.748 0 010-3.495h4.66a1.748 1.748 0 010 3.495z" fill="#fff"/><path d="M18.793 46.463c0-.965.782-1.748 1.747-1.748h-3.786a1.748 1.748 0 000 3.495h3.786a1.748 1.748 0 01-1.747-1.747z" fill="#EBF0F3"/></g></svg>