<svg width="61" height="61" fill="none" xmlns="http://www.w3.org/2000/svg"><g clip-path="url(#clip0)"><path d="M54.165 49.072a29.872 29.872 0 006.565-18.728c0-16.569-13.431-30-30-30-16.569 0-30 13.431-30 30A29.871 29.871 0 007.295 49.07h46.87z" fill="#fff"/><path d="M54.167 9.719V49.07C48.67 55.943 40.215 60.344 30.73 60.344c-9.484 0-17.94-4.402-23.438-11.273V9.72l2.048-.41 21.39-4.278L52.12 9.31l2.047.409z" fill="#EBF0F3"/><path d="M14.324 8.313L9.34 9.31l-2.048.409V49.07c5.498 6.871 13.954 11.273 23.438 11.273 9.484 0 17.94-4.402 23.437-11.273H23.7a9.375 9.375 0 01-9.375-9.375V8.313z" fill="#CEDDF7"/><path d="M30.73 56.47c8.414 0 15.234-1.574 15.234-3.516 0-1.941-6.82-3.515-15.234-3.515s-15.234 1.574-15.234 3.515c0 1.942 6.82 3.516 15.234 3.516z" fill="#8FB1DB"/><path d="M54.167 9.719H7.292V2.688A2.344 2.344 0 019.636.344h42.188a2.344 2.344 0 012.343 2.344v7.03z" fill="#9C68E1"/><path d="M16.668.344H9.636a2.344 2.344 0 00-2.344 2.344v7.03h7.032v-7.03A2.344 2.344 0 0116.668.344z" fill="#8C4CD1"/><path d="M43.074 6.79a1.758 1.758 0 100-3.517 1.758 1.758 0 000 3.516z" fill="#FFE854"/><path d="M49.48 6.79a1.758 1.758 0 100-3.517 1.758 1.758 0 000 3.516z" fill="#FF3345"/><path d="M11.98 6.79a1.758 1.758 0 100-3.517 1.758 1.758 0 000 3.516z" fill="#fff"/><path d="M11.98 6.848a1.818 1.818 0 01-1.816-1.817c0-1.001.814-1.816 1.816-1.816 1.002 0 1.816.815 1.816 1.816a1.818 1.818 0 01-1.816 1.817zm0-3.516c-.937 0-1.7.762-1.7 1.7 0 .936.763 1.698 1.7 1.698.937 0 1.7-.762 1.7-1.699s-.763-1.699-1.7-1.699z" fill="#000"/><path d="M11.98 6.79h24.687a1.758 1.758 0 000-3.517H11.98a1.758 1.758 0 000 3.516z" fill="#EBF0F3"/><path d="M18.308 5.031c0-.97.787-1.758 1.758-1.758H11.98a1.758 1.758 0 000 3.516h8.086c-.97 0-1.758-.787-1.758-1.758z" fill="#CEDDF7"/><path d="M35.678 45.313l-4.948-1.607-4.948 1.607s-15.044-.042-12.145 6.029H27.19c2.373.448 6.167 1.074 10.157 1.366 4.632.34 7.53.124 9.123-.453 1.016-.369 1.733-1.317 1.724-2.398-.039-4.579-12.516-4.544-12.516-4.544z" fill="#066AE7"/><path d="M13.637 51.342c.514.935 2.599 2.277 8.975 1.232 6.377-1.045 17.71-3.556 17.737-4.012.027-.455-1.046-1.32-2.439-1.32s-1.607.406-2.411.406-1.822-1.263-2.68-1.089c-.857.175-1.366 1.916-1.366 1.916s-8.117-.536-12.431-.268c-4.314.268-5.975 2.063-5.385 3.135z" fill="#0C99E6"/><path d="M49.322 45.102c-.06-.17-.322-.1-.523.121-.042.047-.12.123-.218.216v-.889c0-.193-.216-.255-.366-.15-.069-.163-.46-.05-.46-.05l-2.87.883-4.413-5.947s-.268-8.574-1.34-9.458c-1.072-.884-6.634-1.822-6.634-1.822v-1.93h-3.536v1.93s-5.562.938-6.634 1.822c-1.072.884-1.34 9.457-1.34 9.457l-4.412 5.948-2.87-.884s-.392-.112-.46.05c-.152-.104-.367-.042-.367.151v.89a5.17 5.17 0 01-.218-.217c-.201-.22-.462-.291-.523-.12-.06.17.834 1.456 1.045 1.748.211.291 1.136.894 1.708.783.573-.11 2.569-1.195 2.569-1.195s5.733-4.314 6.27-5.84c.535-1.528.964-6.68.964-6.68l.935 3.198c.101.346.153.704.153 1.064v7.133h9.896V38.18c0-.36.051-.718.153-1.064l.935-3.198s.429 5.152.965 6.68c.535 1.526 6.269 5.84 6.269 5.84s1.996 1.085 2.568 1.195c.573.11 1.497-.492 1.709-.783.21-.292 1.105-1.578 1.045-1.748zm-35.045 1.083a.454.454 0 01-.597-.009 29.564 29.564 0 01-.087-.078c-.115-.201-.129-.79-.17-1.2.19.188.504.386.784.544a.454.454 0 01.07.743zm32.906 0a.455.455 0 01.07-.743c.28-.158.594-.356.784-.543-.041.41-.055.998-.17 1.199l-.087.078a.454.454 0 01-.597.01z" fill="#0C99E6"/><path d="M28.962 28.006s2.706.214 2.974-1.93h-2.974v1.93z" fill="#066AE7"/><path d="M33.914 22.296c0 2.344-1.426 5.094-3.184 5.094-1.759 0-3.184-2.75-3.184-5.095 0-2.344 1.425-4.03 3.184-4.03 1.758 0 3.184 1.686 3.184 4.03z" fill="#0C99E6"/><path d="M27.332 45.313v-6.62c0-.528-.157-1.045-.45-1.486l-2.188-3.288.935 3.197c.101.346.153.705.153 1.065v7.132h1.55z" fill="#066AE7"/><path d="M50.066 19.973h-12.07a.879.879 0 110-1.758h12.07a.879.879 0 110 1.758zm-3.516-4.688h-8.554a.879.879 0 110-1.758h8.554a.879.879 0 110 1.758zm0 9.375h-8.554a.879.879 0 110-1.758h8.554a.879.879 0 110 1.758z" fill="#AAC5EE"/></g><defs><clipPath id="clip0"><path fill="#fff" transform="translate(.73 .344)" d="M0 0h60v60H0z"/></clipPath></defs></svg>