<svg width="101" height="101" fill="none" xmlns="http://www.w3.org/2000/svg"><g clip-path="url(#clip0)"><path d="M21.491 91.133h58.063c12.694-9.067 20.969-23.922 20.969-40.711 0-27.614-22.386-50-50-50-27.615 0-50 22.386-50 50 0 16.788 8.275 31.644 20.968 40.711z" fill="#B3E135"/><path d="M74.437 88.867a19.902 19.902 0 01-11.842-18.198v-5.86H38.45v5.86a19.903 19.903 0 01-11.842 18.198l-5.117 2.266a49.771 49.771 0 0029.032 9.289 49.77 49.77 0 0029.031-9.289l-5.117-2.266z" fill="#303A59"/><path d="M62.595 70.67v-5.862H38.45v5.861a19.9 19.9 0 01-6.68 14.872 49.852 49.852 0 0018.753 3.64c6.632 0 12.96-1.295 18.752-3.64a19.9 19.9 0 01-6.68-14.872z" fill="#232D47"/><path d="M90.757 80.5H10.288c-5.393 0-9.765-4.372-9.765-9.766V21.906c0-5.393 4.372-9.765 9.765-9.765h80.47c5.392 0 9.765 4.372 9.765 9.765v48.828c0 5.394-4.373 9.766-9.766 9.766z" fill="#3E4A68"/><path d="M24.741 78.547c0-1.079.875-1.953 1.954-1.953V16.047a1.953 1.953 0 110-3.906H10.288c-5.393 0-9.765 4.372-9.765 9.765v48.828c0 5.394 4.372 9.766 9.765 9.766h16.407a1.953 1.953 0 01-1.954-1.953z" fill="#303A59"/><path d="M10.288 76.594a5.866 5.866 0 01-5.859-5.86V21.906c0-3.23 2.628-5.86 5.86-5.86h80.468c3.23 0 5.86 2.63 5.86 5.86v48.828c0 3.231-2.63 5.86-5.86 5.86H10.288z" fill="#EBF0F3"/><path d="M16.734 70.734V21.906c0-3.23 2.628-5.86 5.859-5.86H10.288a5.866 5.866 0 00-5.859 5.86v48.828a5.866 5.866 0 005.86 5.86h12.304a5.866 5.866 0 01-5.86-5.86z" fill="#CEDDF7"/><path d="M90.269 23.322H53.38v-5.078h-5.715v5.078H10.777c-1.905 0-10.254.293-10.254 1.123 0 .83 4.394.83 4.834 1.025.44.195 3.564 1.074 4.248.928.683-.147 1.806-.635 1.806-.635s10.157 2.54 13.135 2.344h12.175c.428 0 1.201 2.263 1.989 5.04h23.625c.788-2.777 1.562-5.04 1.99-5.04h12.174c2.979.195 13.135-2.344 13.135-2.344s1.123.488 1.806.635c.684.146 3.81-.733 4.249-.928.439-.195 4.834-.195 4.834-1.025 0-.83-8.35-1.123-10.254-1.123z" fill="#FFAEA1"/><path d="M39.46 29.944a2.96 2.96 0 00-2.74-1.837c.428 0 1.202 2.263 1.99 5.04h2.062l-1.313-3.203zm8.205-6.622s4.546-.098 4.937-5.078h-4.937v5.078z" fill="#F4958C"/><path d="M47.625 7.696h.002c-.626 1.656.493 2.079-.133 3.735-.625 1.655-1.744 1.233-2.37 2.889-.625 1.655.493 2.078-.132 3.734-.022.06-.045.116-.07.17-.755 1.733-2.761 2.545-4.53 1.876-1.77-.668-2.737-2.604-2.158-4.404a3.47 3.47 0 01.06-.173c.626-1.655 1.745-1.233 2.37-2.888.626-1.656-.492-2.079.133-3.735.626-1.655 1.745-1.233 2.37-2.888h.003l4.455 1.684z" fill="#AA1E1E"/><path d="M57.869 11.236l-7.167 3.9-7.536-3.9s-1.032-3.397-.483-5.434c.548-2.037 2.249-2.246 2.249-2.246S45.503.422 50.83.422s9.542 3.447 7.038 10.814z" fill="#FF3345"/><path d="M42.683 5.802c-.549 2.037.483 5.434.483 5.434l3.741 1.936.321-.332V7.51c-1.253-.972-2.704-2.661-2.296-3.954 0 0-1.701.209-2.25 2.246z" fill="#E32828"/><path d="M45.106 12.54s-.697-1.697-1.94-1.303c-1.242.393.03 4.071 2.455 4.303l-.515-3z" fill="#F4958C"/><path d="M55.93 12.54s.696-1.697 1.939-1.303c1.242.393-.03 4.071-2.455 4.303l.515-3z" fill="#FFAEA1"/><path d="M56.103 10.398a3.949 3.949 0 01-.183-.707l-5.402-1.567-5.403 1.567a3.983 3.983 0 01-.183.707c-.32.779-.72.937-.774.955a11.2 11.2 0 00-.006.368c0 4.688 2.85 10.185 6.365 10.185 3.516 0 6.366-5.497 6.366-10.185a11.2 11.2 0 00-.006-.368c-.054-.018-.455-.176-.774-.955z" fill="#FFCFC2"/><path d="M46.341 11.721c0-.873.1-1.7.284-2.468l-1.51.438a3.987 3.987 0 01-.183.707c-.32.779-.72.937-.774.955a11.47 11.47 0 00-.006.368c0 4.688 2.85 10.185 6.365 10.185.374 0 .74-.062 1.095-.179-2.994-.98-5.271-5.816-5.271-10.006z" fill="#FFAEA1"/><path d="M50.517 7.264c-2.225 0-3.115-.705-3.885-.707-.143 0-.282.024-.424.08-.72.29-.885 1.958-1.093 3.054H55.92c-.208-1.096-.373-2.764-1.093-3.053a1.11 1.11 0 00-.423-.081c-.771.002-1.661.707-3.887.707z" fill="#fff"/><path d="M49.304 8.478c0-.67.543-1.214 1.213-1.214-2.225 0-3.115-.705-3.885-.707-.143 0-.282.024-.424.08-.72.29-.885 1.958-1.093 3.054h5.403c-.67 0-1.214-.543-1.214-1.213z" fill="#CEDDF7"/><path d="M80.47 74.722c-3.06-1.823-5.403-3.32-7.812-5.47-2.409-2.148-7.065-11.42-10.33-15.183l-12.273-4.478-11.349 4.478s-18.457.926-22.037 3.986c-2.05 1.752-1.71 10.467-1.595 18.539h7.644c.71-3.263 1.242-5.992 1.242-6.82 0-2.474-.976-5.795-.976-5.795s9.57 2.93 18.49 1.628c8.919-1.302 16.34 2.865 21.419 6.51 2.79 2.004 5.206 3.455 7.12 4.477h12.942c-1.028-.855-1.9-1.524-2.484-1.872z" fill="#8C4CD1"/><path d="M60.31 45.466a9.759 9.759 0 01.006-4.484c.49-2.063 1.256-5.183 2.009-7.835l-.06-.084a12.898 12.898 0 01-2.338-9.137l.075-.604H56.51l-.476 3.056a5.159 5.159 0 01-5.517 4.346A5.154 5.154 0 0145 26.378l-.475-3.056h-3.492l.075.604a12.898 12.898 0 01-2.337 9.137l-.061.084c.753 2.652 1.519 5.772 2.009 7.835a9.756 9.756 0 01.005 4.484l-2.018 8.603s2.735 4.691 11.817 4.691 11.806-4.69 11.806-4.69l-2.018-8.604z" fill="#FFE854"/><path d="M42.284 57.03l1.864-12.195a9.324 9.324 0 00-.572-4.844c2.543.082 4.19-1.296 4.19-1.296-2.807.482-5.04-.78-5.91-2.904l-1.923-4.69c-.355.802-1.16 1.959-1.163 1.961l-.06.084c.163.45 1.54 5.772 1.678 6.461.12.493.231.956.33 1.374.24.922.253 1.867.256 1.962.036 1.332-.171 2.194-.25 2.522l-2.018 8.604s.949 1.624 3.578 2.96z" fill="#FFCF11"/><path d="M87.632 71.597H13.413a1.953 1.953 0 110-3.907h74.22a1.953 1.953 0 110 3.907z" fill="#AAC5EE"/><path d="M73.96 73.55a3.906 3.906 0 100-7.813 3.906 3.906 0 000 7.813z" fill="#3E4A68"/></g><defs><clipPath id="clip0"><path fill="#fff" transform="translate(.523 .422)" d="M0 0h100v100H0z"/></clipPath></defs></svg>