<svg width="101" height="101" fill="none" xmlns="http://www.w3.org/2000/svg"><g clip-path="url(#clip0)"><path d="M89.582 81.635a49.786 49.786 0 0010.941-31.213c0-27.614-22.386-50-50-50-27.615 0-50 22.386-50 50a49.786 49.786 0 0010.94 31.213h78.119z" fill="#0C99E6"/><path d="M89.585 16.047v65.588c-9.162 11.45-23.256 18.787-39.062 18.787-15.807 0-29.9-7.336-39.063-18.787V16.047l3.412-.682 35.65-7.13 35.651 7.13 3.412.682z" fill="#EBF0F3"/><path d="M23.179 13.704l-8.307 1.661-3.412.682v65.588c9.162 11.45 23.256 18.787 39.063 18.787 15.806 0 29.9-7.336 39.062-18.787H38.804c-8.63 0-15.625-6.996-15.625-15.625V13.704z" fill="#CEDDF7"/><path d="M62.242 91.73H38.803a1.465 1.465 0 110-2.93h23.438a1.465 1.465 0 110 2.93zm-5.86-7.812H44.663a1.465 1.465 0 110-2.93h11.72a1.465 1.465 0 110 2.93z" fill="#8FB1DB"/><path d="M89.585 16.047H11.46V4.328A3.906 3.906 0 0115.366.422H85.68a3.906 3.906 0 013.906 3.906v11.719z" fill="#9C68E1"/><path d="M27.085.422H15.366a3.906 3.906 0 00-3.906 3.906v11.719h11.72V4.328A3.906 3.906 0 0127.085.422z" fill="#8C4CD1"/><path d="M71.096 11.164a2.93 2.93 0 100-5.86 2.93 2.93 0 000 5.86z" fill="#FFE854"/><path d="M81.773 11.164a2.93 2.93 0 100-5.86 2.93 2.93 0 000 5.86z" fill="#FF3345"/><path d="M40.757 42.414v-5.86a49.8 49.8 0 0119.531 0v5.86a49.795 49.795 0 01-19.53 0z" fill="#303A59"/><path d="M50.523 35.588a49.79 49.79 0 00-9.766.967v5.86c3.223.644 6.494.966 9.765.966a3.897 3.897 0 010-7.793z" fill="#232D47"/><path d="M70.054 51.203h-3.906a1.953 1.953 0 01-1.953-1.953V29.719c0-1.079.874-1.953 1.953-1.953h3.906c1.079 0 1.953.874 1.953 1.953V49.25a1.953 1.953 0 01-1.953 1.953z" fill="#303A59"/><path d="M70.054 43.406h-3.906a1.953 1.953 0 01-1.953-1.953v7.797c0 1.079.874 1.953 1.953 1.953h3.906a1.953 1.953 0 001.953-1.953v-7.797a1.953 1.953 0 01-1.953 1.953z" fill="#232D47"/><path d="M64.195 55.11h-3.907a1.953 1.953 0 01-1.953-1.954V25.813c0-1.08.875-1.954 1.953-1.954h3.907c1.078 0 1.953.875 1.953 1.953v27.344a1.953 1.953 0 01-1.953 1.953z" fill="#3E4A68"/><path d="M64.195 47.312h-3.907a1.953 1.953 0 01-1.953-1.953v7.797c0 1.079.875 1.953 1.953 1.953h3.907a1.953 1.953 0 001.953-1.953V45.36a1.953 1.953 0 01-1.953 1.953zm-33.204 3.891h3.907a1.953 1.953 0 001.953-1.953V29.719a1.953 1.953 0 00-1.953-1.953H30.99a1.953 1.953 0 00-1.953 1.953V49.25c0 1.079.875 1.953 1.953 1.953z" fill="#303A59"/><path d="M30.991 43.406h3.907a1.953 1.953 0 001.953-1.953v7.797a1.953 1.953 0 01-1.953 1.953H30.99a1.953 1.953 0 01-1.953-1.953v-7.797c0 1.078.875 1.953 1.953 1.953z" fill="#232D47"/><path d="M36.85 55.11h3.907a1.953 1.953 0 001.953-1.954V25.813a1.953 1.953 0 00-1.953-1.954h-3.906a1.953 1.953 0 00-1.953 1.953v27.344c0 1.079.874 1.953 1.953 1.953z" fill="#3E4A68"/><path d="M36.85 47.312h3.907a1.953 1.953 0 001.953-1.953v7.797a1.953 1.953 0 01-1.953 1.953h-3.906a1.953 1.953 0 01-1.953-1.953V45.36c0 1.078.874 1.953 1.953 1.953z" fill="#303A59"/><path d="M62.242 74.64H38.803a5.86 5.86 0 110-11.718h23.438a5.86 5.86 0 110 11.719z" fill="#0C99E6"/><path d="M70.902 69.486l-8.066-1.524c-.8-.151-1.5.55-1.349 1.348l1.525 8.066a1.154 1.154 0 001.95.602l1.23-1.23 4.255 4.254c.45.451 1.181.451 1.632 0l2.449-2.448c.45-.451.45-1.182 0-1.633l-4.255-4.254 1.23-1.23a1.154 1.154 0 00-.601-1.95z" fill="#3E4A68"/><path d="M44.663 68.781a5.86 5.86 0 015.86-5.86H38.804a5.86 5.86 0 100 11.72h11.719a5.86 5.86 0 01-5.86-5.86z" fill="#066AE7"/><path d="M19.273 11.164h41.146a2.93 2.93 0 000-5.86H19.273a2.93 2.93 0 000 5.86z" fill="#EBF0F3"/><path d="M29.82 8.234a2.93 2.93 0 012.93-2.93H19.272a2.93 2.93 0 000 5.86h13.476a2.93 2.93 0 01-2.93-2.93z" fill="#CEDDF7"/></g><defs><clipPath id="clip0"><path fill="#fff" transform="translate(.523 .422)" d="M0 0h100v100H0z"/></clipPath></defs></svg>