<svg width="101" height="101" fill="none" xmlns="http://www.w3.org/2000/svg"><g clip-path="url(#clip0)"><path d="M91.537 79.023a49.767 49.767 0 008.986-28.601c0-27.613-22.387-50-50-50-27.614 0-50 22.387-50 50a49.767 49.767 0 008.985 28.601h82.03z" fill="#66FADE"/><path d="M17.322 87.807h66.402a50.283 50.283 0 007.814-8.784v-64.93c0-5.392-4.373-9.765-9.765-9.765h-62.5c-5.393 0-9.766 4.373-9.766 9.766v64.93a50.284 50.284 0 007.815 8.783z" fill="#8C4F5C"/><path d="M17.322 87.807h66.402a50.283 50.283 0 007.814-8.784V52.375a3.906 3.906 0 11-7.812 0H17.32a3.906 3.906 0 11-7.813 0v26.648a50.284 50.284 0 007.815 8.784z" fill="#7B3C47"/><path d="M83.726 14.094v73.713c-8.83 7.847-20.461 12.615-33.203 12.615-12.742 0-24.373-4.768-33.203-12.615V14.094c0-1.076.877-1.953 1.953-1.953h62.5c1.076 0 1.953.877 1.953 1.953z" fill="#EBF0F3"/><path d="M27.085 14.094c0-1.076.877-1.953 1.953-1.953h-9.765a1.956 1.956 0 00-1.953 1.953v73.713a50.114 50.114 0 009.765 6.79V14.094z" fill="#CEDDF7"/><path d="M59.8 91.144c8.845 0 16.016-7.17 16.016-16.015S68.645 59.113 59.8 59.113c-8.845 0-16.015 7.17-16.015 16.016 0 8.845 7.17 16.015 16.015 16.015z" fill="#0C99E6"/><path d="M56.336 75.129c0-6.618 4.014-12.298 9.74-14.739a15.963 15.963 0 00-6.276-1.276c-8.845 0-16.015 7.17-16.015 16.015s7.17 16.015 16.015 16.015c2.227 0 4.349-.455 6.276-1.276-5.726-2.442-9.74-8.121-9.74-14.74z" fill="#0B88F9"/><path d="M75.815 76.197h-32.03a1.068 1.068 0 110-2.136h32.03a1.068 1.068 0 110 2.136z" fill="#066AE7"/><path d="M55.268 75.129c0-.59.478-1.068 1.068-1.068H43.785a1.068 1.068 0 100 2.136h12.55a1.068 1.068 0 01-1.067-1.068z" fill="#045BBA"/><path d="M75.104 81.891H44.496a1.068 1.068 0 110-2.136h30.607a1.068 1.068 0 010 2.136z" fill="#066AE7"/><path d="M55.268 80.823c0-.59.478-1.067 1.068-1.067h-11.84a1.068 1.068 0 100 2.135h11.84c-.59 0-1.068-.478-1.068-1.068z" fill="#045BBA"/><path d="M71.9 87.585H47.7a1.068 1.068 0 110-2.135h24.2a1.068 1.068 0 110 2.135z" fill="#066AE7"/><path d="M55.268 86.518c0-.59.478-1.068 1.068-1.068h-8.637a1.068 1.068 0 100 2.135h8.637c-.59 0-1.068-.478-1.068-1.067z" fill="#045BBA"/><path d="M75.104 70.502H44.496a1.068 1.068 0 010-2.135h30.607a1.068 1.068 0 010 2.135z" fill="#066AE7"/><path d="M55.268 69.435c0-.59.478-1.068 1.068-1.068h-11.84a1.068 1.068 0 000 2.135h11.84c-.59 0-1.068-.478-1.068-1.067z" fill="#045BBA"/><path d="M71.9 64.808H47.7a1.068 1.068 0 110-2.136h24.2a1.068 1.068 0 110 2.136z" fill="#066AE7"/><path d="M55.268 63.74c0-.59.478-1.068 1.068-1.068h-8.637a1.068 1.068 0 100 2.136h8.637c-.59 0-1.068-.478-1.068-1.068z" fill="#045BBA"/><path d="M34.308 48.322h-9.766a3.422 3.422 0 01-3.418-3.418V35.14a3.422 3.422 0 013.418-3.418h9.766a3.422 3.422 0 013.418 3.418v9.765a3.422 3.422 0 01-3.418 3.418zm-9.766-13.671a.489.489 0 00-.488.488v9.765c0 .27.219.489.488.489h9.766a.49.49 0 00.488-.489V35.14a.489.489 0 00-.488-.488h-9.766z" fill="#AAC5EE"/><path d="M60.288 21.418h-19.53a5.377 5.377 0 01-5.372-5.371V4.328c0-.81.656-1.465 1.465-1.465h27.344c.809 0 1.464.656 1.464 1.465v11.719a5.377 5.377 0 01-5.37 5.371zM38.316 5.793v10.254a2.444 2.444 0 002.441 2.441h19.531a2.444 2.444 0 002.442-2.441V5.793H38.316z" fill="#FFCF11"/><path d="M66.148 8.234h-31.25a3.906 3.906 0 110-7.812h31.25a3.906 3.906 0 110 7.812z" fill="#FFE854"/><path d="M50.523 4.328A3.906 3.906 0 0154.429.422H34.898a3.906 3.906 0 100 7.812h19.531a3.906 3.906 0 01-3.906-3.906z" fill="#FFCF11"/><path d="M52.476 41.682v-4.395a37.346 37.346 0 0114.648 0v4.395a37.346 37.346 0 01-14.648 0z" fill="#303A59"/><path d="M59.8 36.562a37.38 37.38 0 00-7.324.725v4.395a37.35 37.35 0 007.324.725 2.923 2.923 0 010-5.845z" fill="#232D47"/><path d="M74.448 48.273h-2.93a1.465 1.465 0 01-1.464-1.464V32.16c0-.809.656-1.465 1.465-1.465h2.93c.808 0 1.464.656 1.464 1.465v14.65c0 .809-.656 1.464-1.465 1.464z" fill="#303A59"/><path d="M74.448 42.425h-2.93a1.465 1.465 0 01-1.464-1.465v5.849c0 .809.656 1.464 1.465 1.464h2.93c.808 0 1.464-.656 1.464-1.465V40.96c0 .81-.656 1.465-1.465 1.465z" fill="#232D47"/><path d="M70.054 51.203h-2.93a1.465 1.465 0 01-1.465-1.465V29.23c0-.808.656-1.464 1.465-1.464h2.93c.809 0 1.465.656 1.465 1.465v20.507c0 .81-.656 1.465-1.465 1.465z" fill="#3E4A68"/><path d="M70.054 45.355h-2.93a1.465 1.465 0 01-1.465-1.465v5.848c0 .81.656 1.465 1.465 1.465h2.93c.809 0 1.465-.656 1.465-1.465V43.89c0 .81-.656 1.465-1.465 1.465zm-24.902 2.918h2.93c.808 0 1.464-.655 1.464-1.464V32.16c0-.809-.656-1.465-1.465-1.465h-2.93c-.808 0-1.464.656-1.464 1.465v14.65c0 .809.656 1.464 1.465 1.464z" fill="#303A59"/><path d="M45.152 42.425h2.93c.808 0 1.464-.656 1.464-1.465v5.849c0 .809-.656 1.464-1.465 1.464h-2.93a1.465 1.465 0 01-1.464-1.465V40.96c0 .81.656 1.465 1.465 1.465z" fill="#232D47"/><path d="M49.546 51.203h2.93c.809 0 1.465-.656 1.465-1.465V29.23c0-.808-.656-1.464-1.465-1.464h-2.93c-.809 0-1.465.656-1.465 1.465v20.507c0 .81.656 1.465 1.465 1.465z" fill="#3E4A68"/><path d="M49.546 45.355h2.93c.809 0 1.465-.656 1.465-1.465v5.848c0 .81-.656 1.465-1.465 1.465h-2.93a1.465 1.465 0 01-1.465-1.465V43.89c0 .81.656 1.465 1.465 1.465z" fill="#303A59"/><path d="M29.425 43.578c-.478 0-.926-.233-1.2-.624l-2.93-4.184a1.464 1.464 0 112.4-1.68l1.73 2.47 1.73-2.47a1.465 1.465 0 112.4 1.68l-2.93 4.184a1.464 1.464 0 01-1.2.624z" fill="#FF3345"/><path d="M34.308 83.43h-9.766a3.422 3.422 0 01-3.418-3.418v-9.766a3.422 3.422 0 013.418-3.418h9.766a3.422 3.422 0 013.418 3.418v9.766a3.422 3.422 0 01-3.418 3.418zm-9.766-13.672a.489.489 0 00-.488.488v9.766c0 .27.219.488.488.488h9.766a.489.489 0 00.488-.488v-9.766a.489.489 0 00-.488-.488h-9.766z" fill="#AAC5EE"/><path d="M29.425 78.686c-.478 0-.926-.233-1.2-.625l-2.93-4.184a1.465 1.465 0 112.4-1.68l1.73 2.47 1.73-2.47a1.465 1.465 0 012.4 1.68l-2.93 4.184a1.464 1.464 0 01-1.2.625z" fill="#FF3345"/></g><defs><clipPath id="clip0"><path fill="#fff" transform="translate(.523 .422)" d="M0 0h100v100H0z"/></clipPath></defs></svg>