<svg width="101" height="101" fill="none" xmlns="http://www.w3.org/2000/svg"><g clip-path="url(#clip0)"><path d="M50.523.422a49.775 49.775 0 00-23.867 6.054l-9.532 8.594 9.532 79.297h-.001a49.778 49.778 0 0023.868 6.055c27.614 0 50-22.386 50-50s-22.386-50-50-50z" fill="#0C99E6"/><path d="M88.413 22.102V90.46a3.905 3.905 0 01-3.906 3.906H26.655C11.088 85.894.524 69.393.524 50.422a49.77 49.77 0 018.789-28.32l41.21-3.516 37.891 3.516z" fill="#EBF0F3"/><path d="M16.636 47.167h-5.86v22.135h23.926v-5.86h-1.79c-8.989 0-16.276-7.286-16.276-16.275zm26.856 0h-5.86v22.135h23.926v-5.86h-1.79c-8.99 0-16.276-7.286-16.276-16.275zm-10.58 41.341c-8.989 0-16.276-7.287-16.276-16.276h-5.86v8.526a50.236 50.236 0 0015.88 13.61h8.046v-5.86h-1.79zM16.636 22.102h-5.86v22.135h23.926v-5.86h-1.79c-8.989 0-16.276-7.286-16.276-16.275zm26.856 0h-5.86v22.135h23.926v-5.86h-1.79c-8.99 0-16.276-7.286-16.276-16.275zm26.855 0h-5.86v22.135h23.926v-5.86h-1.79c-8.989 0-16.276-7.286-16.276-16.275z" fill="#CEDDF7"/><path d="M88.413 72.232v-2.93H64.488V47.167h23.925v-2.93H64.488V19.882l-.098-.01h-2.832v24.365H37.632V19.873H35.44l-.737.063v24.301H10.777v-22.26l-1.465.125a49.95 49.95 0 00-1.465 2.256v19.879H.904c-.12.968-.212 1.945-.275 2.93h7.218v22.135H4.212c.405.993.841 1.97 1.307 2.93h2.328v4.254a50.089 50.089 0 002.93 4.272v-8.526h23.926v22.135h2.93V72.232h23.925v22.135h2.93V72.232h23.925zm-53.71-2.93H10.777V47.167h23.925v22.135zm26.855 0H37.632V47.167h23.926v22.135z" fill="#AAC5EE"/><path d="M84.507 6.477H26.655A50.242 50.242 0 009.313 22.102h79.101v-11.72a3.905 3.905 0 00-3.906-3.905zM23.18 16.73a2.442 2.442 0 010-4.882 2.442 2.442 0 010 4.882zm13.672 0a2.442 2.442 0 010-4.882 2.442 2.442 0 010 4.882zm13.672 0a2.442 2.442 0 010-4.882 2.442 2.442 0 010 4.882zm13.672 0a2.442 2.442 0 010-4.882 2.442 2.442 0 010 4.882zm13.672 0a2.442 2.442 0 010-4.882 2.442 2.442 0 010 4.882z" fill="#FF3345"/><path d="M73.179 100.422c15.102 0 27.344-12.242 27.344-27.344 0-15.101-12.242-27.344-27.344-27.344S45.835 57.977 45.835 73.078c0 15.102 12.242 27.344 27.344 27.344z" fill="#FFE854"/><path d="M61.07 73.078c0-12.458 8.331-22.969 19.726-26.267a27.352 27.352 0 00-7.617-1.077c-15.102 0-27.344 12.243-27.344 27.344 0 15.102 12.242 27.344 27.344 27.344 2.644 0 5.2-.376 7.617-1.076-11.395-3.3-19.726-13.81-19.726-26.268z" fill="#FFCF11"/><path d="M65.855 75.275v-4.394a37.346 37.346 0 0114.648 0v4.394a37.346 37.346 0 01-14.648 0z" fill="#303A59"/><path d="M73.179 70.156c-2.453 0-4.907.241-7.324.725v4.394c2.417.484 4.87.725 7.324.725a2.923 2.923 0 010-5.844z" fill="#232D47"/><path d="M87.827 81.867h-2.93a1.465 1.465 0 01-1.464-1.465V65.754c0-.81.656-1.465 1.465-1.465h2.93c.808 0 1.464.656 1.464 1.465v14.648c0 .81-.656 1.465-1.465 1.465z" fill="#303A59"/><path d="M87.827 76.019h-2.93a1.465 1.465 0 01-1.464-1.465v5.848c0 .81.656 1.465 1.465 1.465h2.93c.808 0 1.464-.656 1.464-1.465v-5.848c0 .81-.656 1.465-1.465 1.465z" fill="#232D47"/><path d="M83.433 84.797h-2.93a1.465 1.465 0 01-1.465-1.465V62.824c0-.809.656-1.465 1.465-1.465h2.93c.809 0 1.465.656 1.465 1.465v20.508c0 .809-.656 1.465-1.465 1.465z" fill="#3E4A68"/><path d="M83.433 78.948h-2.93a1.465 1.465 0 01-1.465-1.464v5.848c0 .809.656 1.465 1.465 1.465h2.93c.809 0 1.465-.656 1.465-1.465v-5.848c0 .809-.656 1.465-1.465 1.465zM58.53 81.867h2.93c.81 0 1.465-.656 1.465-1.465V65.754c0-.81-.656-1.465-1.465-1.465h-2.93c-.809 0-1.464.656-1.464 1.465v14.648c0 .81.655 1.465 1.465 1.465z" fill="#303A59"/><path d="M58.53 76.019h2.93c.81 0 1.465-.656 1.465-1.465v5.848c0 .81-.656 1.465-1.465 1.465h-2.93a1.465 1.465 0 01-1.464-1.465v-5.848c0 .81.655 1.465 1.465 1.465z" fill="#232D47"/><path d="M62.925 84.797h2.93c.809 0 1.465-.656 1.465-1.465V62.824c0-.809-.656-1.465-1.465-1.465h-2.93c-.809 0-1.465.656-1.465 1.465v20.508c0 .809.656 1.465 1.465 1.465z" fill="#3E4A68"/><path d="M62.925 78.948h2.93c.809 0 1.465-.655 1.465-1.464v5.848c0 .809-.656 1.465-1.465 1.465h-2.93a1.465 1.465 0 01-1.465-1.465v-5.848c0 .809.656 1.465 1.465 1.465z" fill="#303A59"/><path d="M22.74 62.987c-.478 0-.926-.233-1.2-.624l-4.617-6.593a1.465 1.465 0 112.4-1.68l3.416 4.879 3.417-4.88a1.465 1.465 0 112.4 1.681l-4.617 6.593a1.463 1.463 0 01-1.2.624zM76.45 37.93c-.478 0-.925-.233-1.2-.624l-4.616-6.593a1.465 1.465 0 112.4-1.68l3.416 4.879 3.417-4.88a1.465 1.465 0 012.4 1.681l-4.617 6.593a1.463 1.463 0 01-1.2.625zm-53.71 0c-.478 0-.926-.233-1.2-.624l-4.617-6.593a1.465 1.465 0 112.4-1.68l3.416 4.879 3.417-4.88a1.465 1.465 0 012.4 1.681l-4.617 6.593a1.463 1.463 0 01-1.2.625z" fill="#0FE1C2"/><path d="M51.667 33.17l2.26-2.261a1.465 1.465 0 00-2.071-2.072l-2.26 2.26-2.261-2.26a1.465 1.465 0 00-2.072 2.072l2.26 2.26-2.26 2.26a1.465 1.465 0 102.072 2.072l2.26-2.26 2.26 2.26a1.46 1.46 0 001.037.43 1.465 1.465 0 001.036-2.5l-2.261-2.262z" fill="#FF3345"/><path d="M47.837 19.416a2.685 2.685 0 012.686-2.686 2.442 2.442 0 010-4.882 2.686 2.686 0 010-5.371H26.655A50.242 50.242 0 009.313 22.102h41.21a2.686 2.686 0 01-2.685-2.686zM23.18 16.73a2.442 2.442 0 010-4.882 2.442 2.442 0 010 4.882zm13.672 0a2.442 2.442 0 010-4.882 2.442 2.442 0 010 4.882z" fill="#E32828"/></g><defs><clipPath id="clip0"><path fill="#fff" transform="translate(.523 .422)" d="M0 0h100v100H0z"/></clipPath></defs></svg>