<svg width="81" height="81" fill="none" xmlns="http://www.w3.org/2000/svg"><g clip-path="url(#clip0)"><path d="M80.414 40.485c0 22.092-17.909 40-40 40-22.092 0-40-17.908-40-40 0-22.091 17.908-40 40-40 22.091 0 40 17.909 40 40z" fill="#6E35B8"/><path d="M59.294.485a8.55 8.55 0 00-6.077 2.536L40.414 15.958 27.61 3.02a8.55 8.55 0 00-14.626 6.014v6.185a8.55 8.55 0 008.55 8.55h37.76a8.55 8.55 0 008.55-8.55V9.035a8.55 8.55 0 00-8.55-8.55zm-37.76 21.747a2.303 2.303 0 01-2.3-2.3v-6.185c0-1.268 1.032-2.3 2.3-2.3.61 0 1.205.249 1.634.683l9.998 10.102H21.534zm40.06-2.3c0 1.268-1.033 2.3-2.3 2.3H47.66l10-10.103a2.315 2.315 0 011.634-.682c1.267 0 2.3 1.032 2.3 2.3v6.185z" fill="#C7D9FF"/><path d="M43.911 23.767h-6.995c-.973 0-1.762-.79-1.762-1.763v-10.33c0-.973.789-1.762 1.762-1.762h6.995c.974 0 1.763.79 1.763 1.763v10.329c0 .973-.789 1.763-1.763 1.763z" fill="#EBF0F3"/><path d="M73.325 63.22V23.77H7.502v39.45c7.22 10.431 19.267 17.265 32.912 17.265s25.692-6.834 32.911-17.264z" fill="#0C99E6"/><path d="M7.502 23.77h65.823v10.156H7.502V23.77z" fill="#066AE7"/><path d="M7.502 63.22a40.205 40.205 0 0012.5 11.67V23.77h-12.5v39.45z" fill="#066AE7"/><path d="M74.977 31.583H5.85a1.323 1.323 0 01-1.323-1.323V17.28c0-.73.592-1.322 1.323-1.322h69.126c.73 0 1.322.592 1.322 1.322v12.98c0 .73-.592 1.323-1.322 1.323z" fill="#63B0FF"/><path d="M15.466 30.26V17.28c0-.73.592-1.322 1.322-1.322H5.851c-.731 0-1.323.592-1.323 1.322v12.98c0 .73.592 1.323 1.323 1.323h10.937c-.73 0-1.322-.592-1.322-1.323z" fill="#0C99E6"/><path d="M46.93 74.473l-6.099-3.294a.88.88 0 00-.835 0l-6.1 3.294a.878.878 0 01-1.295-.772V15.958h15.625V73.7a.878.878 0 01-1.295.772z" fill="#fff"/><path d="M32.601 15.958V73.7a.878.878 0 001.295.772l6.1-3.294a.881.881 0 01.418-.105V15.958H32.6z" fill="#EBF0F3"/></g><defs><clipPath id="clip0"><path fill="#fff" transform="translate(.414 .485)" d="M0 0h80v80H0z"/></clipPath></defs></svg>