<svg width="81" height="81" fill="none" xmlns="http://www.w3.org/2000/svg"><g clip-path="url(#clip0)"><path d="M40.414 80.485c21.142 0 38.28-17.139 38.28-38.28 0-21.143-17.138-38.282-38.28-38.282-21.143 0-38.282 17.139-38.282 38.281s17.14 38.281 38.282 38.281z" fill="#445EA0"/><path d="M16.15 66.367a.784.784 0 01-.78-.781V11.618H10.2a.784.784 0 00-.781.78v52.274a38.502 38.502 0 007.357 7.646h43.187c.43 0 .781-.352.781-.781v-5.17H16.151z" fill="#FFAF10"/><path d="M12.388 12.399c0-.43.351-.781.781-.781H10.2a.784.784 0 00-.781.78v52.274a38.598 38.598 0 002.969 3.607v-55.88z" fill="#EF9614"/><path d="M21.307 60.742a.784.784 0 01-.781-.78V6.11h-4.818a.783.783 0 00-.781.781V66.03c0 .43.351.781.78.781h49.764c.43 0 .781-.351.781-.781v-5.286H21.307z" fill="#FF9518"/><path d="M17.739 66.029V6.89c0-.43.351-.781.781-.781h-2.812a.783.783 0 00-.781.781v59.14c0 .43.351.781.78.781h2.813a.783.783 0 01-.781-.781z" fill="#EF8318"/><path d="M71.408 60.404c0 .43-.352.781-.781.781H20.864a.784.784 0 01-.781-.78V1.266c0-.43.351-.782.781-.782h49.763c.43 0 .781.352.781.782v59.137z" fill="#D9EAFC"/><path d="M23.183 60.404V1.267c0-.43.352-.782.782-.782h-3.101a.784.784 0 00-.781.782v59.137c0 .43.351.781.78.781h3.102a.784.784 0 01-.782-.78z" fill="#C3DDF4"/><path d="M65.271 8.422H54.402a1.172 1.172 0 110-2.344h10.87a1.172 1.172 0 110 2.344zm0 3.984H54.402a1.172 1.172 0 110-2.344h10.87a1.172 1.172 0 110 2.344zm0 3.984H54.402a1.172 1.172 0 110-2.344h10.87a1.172 1.172 0 110 2.344zm0 3.984H54.402a1.172 1.172 0 110-2.343h10.87a1.172 1.172 0 110 2.343z" fill="#DB722C"/><path d="M45.007 48.185H26.7a1.172 1.172 0 110-2.343h18.306a1.172 1.172 0 010 2.343zm0 3.985H26.7a1.172 1.172 0 110-2.344h18.306a1.172 1.172 0 010 2.344zm0 3.984H26.7a1.172 1.172 0 110-2.344h18.306a1.172 1.172 0 110 2.344z" fill="#52BBEF"/><path d="M65.272 27.327H48.595a1.172 1.172 0 110-2.344h16.677a1.172 1.172 0 110 2.344zm0 3.984H48.595a1.172 1.172 0 110-2.343h16.677a1.172 1.172 0 110 2.343zm0 3.984H48.595a1.172 1.172 0 010-2.343h16.677a1.172 1.172 0 110 2.343zm0 3.985H48.595a1.172 1.172 0 110-2.344h16.677a1.172 1.172 0 110 2.344zm-40.676-5.083h4.57a4.57 4.57 0 014.568-4.57V25.06a9.138 9.138 0 00-9.138 9.138z" fill="#FE3745"/><path d="M36.052 22.742v4.569a4.569 4.569 0 014.569 4.569h4.569a9.138 9.138 0 00-9.138-9.138z" fill="#91E0E8"/><path d="M38.303 34.197a4.569 4.569 0 11-9.137 0h-4.57a9.138 9.138 0 0018.277 0h-4.57zm-8.458-15.723V7.562a.47.47 0 00-.469-.469h-2.841a.47.47 0 00-.469.469v10.912h3.779z" fill="#FFAF10"/><path d="M35.957 18.474V10.53a.47.47 0 00-.469-.47h-2.84a.47.47 0 00-.47.47v7.943h3.779z" fill="#FE3745"/><path d="M42.069 18.474v-4.35a.47.47 0 00-.469-.468h-2.84a.47.47 0 00-.47.468v4.35h3.779z" fill="#37C47A"/><path d="M48.18 18.474V7.562a.47.47 0 00-.468-.469H44.87a.47.47 0 00-.469.469v10.912h3.778z" fill="#91E0E8"/><path d="M59.725 50.44a.47.47 0 01.469-.47h2.118v-5.243a.784.784 0 00-.78-.781h-7.05a.784.784 0 00-.782.781v7.05c0 .43.351.782.781.782h5.244v-2.12z" fill="#FE3745"/><path d="M65.271 54.736c0 .43-.351.782-.78.782h-4.297a.784.784 0 01-.782-.782V50.44c0-.43.352-.782.782-.782h4.296c.43 0 .781.352.781.782v4.296z" fill="#37C47A"/><path d="M48.988 20.374h-23.73a1.172 1.172 0 110-2.343h23.73a1.172 1.172 0 110 2.343z" fill="#52BBEF"/></g><defs><clipPath id="clip0"><path fill="#fff" transform="translate(.414 .485)" d="M0 0h80v80H0z"/></clipPath></defs></svg>