<svg width="81" height="81" fill="none" xmlns="http://www.w3.org/2000/svg"><g clip-path="url(#clip0)"><path d="M70.204 67.175c6.348-7.08 10.21-16.433 10.21-26.69 0-22.091-17.909-40-40-40-22.092 0-40 17.909-40 40 0 10.257 3.862 19.61 10.209 26.69h59.581z" fill="#0C99E6"/><path d="M34.644 19.523l.005.002c-1.248 3.302.983 4.145-.264 7.447-1.248 3.302-3.48 2.459-4.727 5.761-1.248 3.302.983 4.145-.265 7.448-.044.118-.09.23-.137.338-1.507 3.457-5.508 5.076-9.036 3.743-3.528-1.333-5.459-5.194-4.303-8.784.036-.111.076-.226.12-.344 1.248-3.302 3.48-2.46 4.727-5.762 1.248-3.302-.983-4.145.265-7.447 1.247-3.302 3.478-2.459 4.726-5.76l.005.001 8.884 3.357z" fill="#AA1E1E"/><path d="M55.075 26.585l-14.293 7.777-15.03-7.777s-2.057-6.777-.964-10.84c1.094-4.062 4.486-4.478 4.486-4.478s1.14-6.25 11.764-6.25c10.626 0 19.03 6.875 14.037 21.568z" fill="#FF3345"/><path d="M24.788 15.746c-1.093 4.062.964 10.839.964 10.839l7.462 3.86.64-.663V19.153c-2.5-1.94-5.394-5.308-4.58-7.886 0 0-3.392.416-4.486 4.479z" fill="#E32828"/><path d="M20.087 74.94H60.74a40.2 40.2 0 009.465-7.765c-1.517-4.434-3.221-8.566-4.635-9.815-3.438-3.035-18.329-5.487-18.329-5.487v-17.51H33.586v17.51s-14.891 2.452-18.329 5.487c-1.413 1.249-3.117 5.381-4.634 9.815a40.195 40.195 0 009.464 7.765z" fill="#FFAEA1"/><path d="M60.74 74.94a40.08 40.08 0 003.577-2.384v-3.984c0-.896-1.262-1.087-1.528-.232l-2.049 6.6zm-40.653 0a40.08 40.08 0 01-3.576-2.384v-3.984c0-.896 1.262-1.087 1.527-.232l2.049 6.6z" fill="#F4958C"/><path d="M40.413 80.485A39.8 39.8 0 0060.74 74.94l-.215-.202a12.962 12.962 0 01-3.91-9.277V53.85a116.088 116.088 0 00-6.25-1.402v8.523c0 5.497-4.455 9.952-9.952 9.952-5.496 0-9.952-4.455-9.952-9.952v-8.523c-1.73.341-3.984.82-6.25 1.402v11.61a12.96 12.96 0 01-3.91 9.277l-.214.202a39.803 39.803 0 0020.326 5.545z" fill="#FFE854"/><path d="M35.633 75.705a4.78 4.78 0 014.78-4.781c-5.496 0-9.952-4.456-9.952-9.953v-8.523c-1.73.341-3.984.82-6.25 1.402v11.61c0 3.493-1.41 6.838-3.91 9.278l-.214.201a39.804 39.804 0 0020.326 5.545 4.78 4.78 0 01-4.78-4.78z" fill="#FFCF11"/><path d="M33.586 34.362v17.511c7.333 0 11.445-5.628 11.445-5.628l2.21-11.883H33.586zm-3.966-5.178s-1.39-3.385-3.867-2.6c-2.478.786.06 8.121 4.895 8.583l-1.027-5.983z" fill="#F4958C"/><path d="M51.553 24.912c-.142-.345-.256-.84-.364-1.41l-10.775-3.125-10.776 3.125c-.108.57-.222 1.065-.364 1.41-.637 1.553-1.437 1.87-1.543 1.906-.008.242-.013.487-.013.733 0 9.349 5.684 20.312 12.695 20.312 7.012 0 12.696-10.963 12.696-20.312 0-.246-.005-.49-.013-.733-.106-.036-.906-.353-1.543-1.906z" fill="#FFCFC2"/><path d="M32.084 27.551c0-1.742.2-3.39.567-4.923l-3.012.874c-.109.571-.223 1.065-.365 1.41-.637 1.553-1.437 1.87-1.543 1.906a22.25 22.25 0 00-.013.733c0 9.349 5.684 20.313 12.696 20.313a6.99 6.99 0 002.182-.357c-5.97-1.954-10.512-11.6-10.512-19.956z" fill="#FFAEA1"/><path d="M40.413 18.663c-4.437 0-6.213-1.407-7.749-1.411h-.001c-.284 0-.56.047-.843.16-1.438.577-1.767 3.905-2.182 6.09h21.55c-.415-2.185-.744-5.513-2.18-6.09a2.21 2.21 0 00-.844-.16h-.002c-1.535.004-3.31 1.41-7.748 1.41z" fill="#fff"/><path d="M37.994 21.082a2.42 2.42 0 012.42-2.42c-4.438 0-6.214-1.406-7.75-1.41h-.001c-.284 0-.56.047-.843.16-1.438.577-1.767 3.905-2.182 6.09h10.775a2.42 2.42 0 01-2.42-2.42z" fill="#EBF0F3"/><path d="M30.461 63.994h-6.25a2.344 2.344 0 010-4.688h6.25a2.344 2.344 0 010 4.688z" fill="#fff"/><path d="M26.945 61.65a2.344 2.344 0 012.344-2.343h-5.078a2.344 2.344 0 000 4.687h5.078a2.344 2.344 0 01-2.344-2.344z" fill="#EBF0F3"/><path d="M52.262 34.958v3.906c0 1.726-1.4 3.125-3.125 3.125h-7.552a1.172 1.172 0 000 2.344h7.552a5.469 5.469 0 005.469-5.469v-3.906h-2.344z" fill="#3B3868"/><path d="M51.725 38.08l3.075.556a3.125 3.125 0 003.631-2.52l1.112-6.15a3.125 3.125 0 00-2.519-3.631l-3.075-.556-2.224 12.3z" fill="#65669E"/><path d="M59.265 31.504l-.834 4.612a3.125 3.125 0 01-3.631 2.52l-3.075-.557.834-4.612 3.075.556a3.125 3.125 0 003.631-2.52z" fill="#504A7F"/><path d="M51.586 38.848a1.172 1.172 0 01-.945-1.361l2.085-11.532a1.172 1.172 0 012.307.417l-2.086 11.532a1.172 1.172 0 01-1.361.944z" fill="#65669E"/></g><defs><clipPath id="clip0"><path fill="#fff" transform="translate(.414 .485)" d="M0 0h80v80H0z"/></clipPath></defs></svg>