<svg width="81" height="81" fill="none" xmlns="http://www.w3.org/2000/svg"><g clip-path="url(#clip0)"><path d="M19.348 74.492H61.48c11.364-7.055 18.934-19.646 18.934-34.007 0-22.091-17.909-40-40-40-22.092 0-40 17.909-40 40 0 14.36 7.569 26.952 18.933 34.007z" fill="#FF3345"/><path d="M40.414.485a6.25 6.25 0 00-6.25 6.25v3.75h12.5v-3.75a6.25 6.25 0 00-6.25-6.25z" fill="#232D47"/><path d="M49.628 8.385l19.666 19.667 5.454-9.042a3.125 3.125 0 00-.467-3.824L62.493 3.398a3.125 3.125 0 00-3.824-.466l-9.041 5.453z" fill="#303A59"/><path d="M68.017 8.923l-5.524-5.525a3.125 3.125 0 00-3.824-.466l-9.041 5.453 5.524 5.525 9.042-5.454a3.125 3.125 0 013.823.467z" fill="#232D47"/><path d="M69.862 15.186l-7.369-7.368a3.125 3.125 0 014.42-4.42l7.368 7.369a3.125 3.125 0 01-4.419 4.42z" fill="#FFE854"/><path d="M66.913 7.818a3.125 3.125 0 014.42 0l-4.42-4.42a3.125 3.125 0 00-4.42 4.42l4.42 4.419a3.125 3.125 0 010-4.42z" fill="#FFCF11"/><path d="M11.533 28.052L31.199 8.385l-9.041-5.453a3.125 3.125 0 00-3.824.466L6.546 15.187a3.125 3.125 0 00-.467 3.823l5.454 9.042z" fill="#303A59"/><path d="M12.07 9.662l-5.524 5.525a3.125 3.125 0 00-.467 3.823l5.454 9.042 5.524-5.524-5.453-9.042a3.125 3.125 0 01.466-3.824z" fill="#232D47"/><path d="M18.334 7.818l-7.369 7.369a3.125 3.125 0 01-4.42-4.42l7.37-7.369a3.125 3.125 0 014.419 4.42z" fill="#FFE854"/><path d="M10.965 10.767a3.125 3.125 0 010-4.42l-4.42 4.42a3.125 3.125 0 004.42 4.42l4.42-4.42a3.125 3.125 0 01-4.42 0z" fill="#FFCF11"/><path d="M40.398 5.485c-17.18.009-31.234 14.341-31.234 31.52a74.101 74.101 0 0010.184 37.487A39.77 39.77 0 0032.35 79.67h16.125a39.77 39.77 0 0013.004-5.178 74.103 74.103 0 0010.184-37.486v-.27c0-17.237-14.028-31.26-31.266-31.25z" fill="#3E4A68"/><path d="M68.539 40.13a3.125 3.125 0 01-3.125-3.125h-50a3.125 3.125 0 11-6.25 0 74.102 74.102 0 0010.184 37.487A39.773 39.773 0 0032.35 79.67h16.125a39.773 39.773 0 0013.004-5.178 74.103 74.103 0 0010.184-37.486c0 1.725-1.4 3.124-3.125 3.124z" fill="#303A59"/><path d="M40.414 61.735c13.807 0 25-11.193 25-25s-11.193-25-25-25c-13.808 0-25 11.193-25 25s11.193 25 25 25z" fill="#FFE854"/><path d="M55.882 54.413c-.61-.61-.61-1.6 0-2.21L24.946 21.267a1.562 1.562 0 11-2.21-2.21c-9.763 9.764-9.763 25.593 0 35.356 9.763 9.763 25.592 9.763 35.355 0-.61.61-1.6.61-2.21 0z" fill="#FFCF11"/><path d="M40.414 58.61c12.08 0 21.875-9.793 21.875-21.875 0-12.08-9.794-21.875-21.875-21.875-12.082 0-21.875 9.794-21.875 21.875 0 12.082 9.793 21.875 21.875 21.875z" fill="#0C99E6"/><path d="M40.414 58.61c12.061 0 21.875-9.813 21.875-21.875a2.344 2.344 0 01-4.688 0H23.226a2.344 2.344 0 01-4.687 0c0 12.062 9.813 21.875 21.875 21.875z" fill="#066AE7"/><path d="M54.476 47.673H26.351a3.125 3.125 0 01-3.125-3.125V28.923a3.125 3.125 0 013.125-3.125h28.125a3.125 3.125 0 013.125 3.125v15.625a3.125 3.125 0 01-3.125 3.125z" fill="#FFE854"/><path d="M38.851 46.11c0-.863.7-1.562 1.563-1.562V28.923a1.562 1.562 0 110-3.125H26.35a3.125 3.125 0 00-3.125 3.125v15.625a3.125 3.125 0 003.125 3.125h14.063c-.863 0-1.563-.7-1.563-1.563z" fill="#FFCF11"/><path d="M54.476 28.923v15.625H26.351V28.923h28.125z" fill="#fff"/><path d="M26.351 28.923h7.205v15.625H26.35V28.923z" fill="#EBF0F3"/><path d="M44.84 66.423h-9.374a3.125 3.125 0 00-3.125 3.125V79.67c2.607.535 5.307.815 8.073.815 2.582 0 5.106-.247 7.552-.715V69.548c0-1.726-1.4-3.125-3.125-3.125z" fill="#3E4A68"/><path d="M38.59 69.548a3.125 3.125 0 013.126-3.125h-6.25a3.125 3.125 0 00-3.125 3.125V79.67c2.03.416 4.119.677 6.25.772V69.548z" fill="#303A59"/><path d="M55.934 67.308a3.125 3.125 0 100-6.25 3.125 3.125 0 000 6.25zm-31.041 0a3.125 3.125 0 100-6.25 3.125 3.125 0 000 6.25z" fill="#0C99E6"/><path d="M32.34 69.548h15.626v3.125H32.34v-3.125zm0 6.25h15.626v3.125H32.34v-3.125z" fill="#303A59"/><path d="M16.039 59.86H11.35a2.344 2.344 0 010-4.687h4.688a2.344 2.344 0 010 4.687zm48.75 0h4.687a2.344 2.344 0 000-4.687H64.79a2.344 2.344 0 100 4.687z" fill="#FFCF11"/><path d="M31.385 41.813a3.346 3.346 0 01-3.343-3.342V35c0-1.843 1.5-3.343 3.343-3.343s3.342 1.5 3.342 3.343v3.471a3.346 3.346 0 01-3.342 3.343zm0-7.812a1 1 0 00-.999.999v3.471a1 1 0 001.998 0V35a1 1 0 00-1-.999zm9.029 7.812a3.346 3.346 0 01-3.343-3.342V35c0-1.843 1.5-3.343 3.343-3.343s3.342 1.5 3.342 3.343v3.471c0 1.843-1.5 3.343-3.342 3.343zm0-7.812a1 1 0 00-1 .999v3.471a1 1 0 001.998 0V35a1 1 0 00-.998-.999zm9.028 7.812a3.346 3.346 0 01-3.342-3.342V35c0-1.843 1.5-3.343 3.342-3.343 1.843 0 3.343 1.5 3.343 3.343v3.471c0 1.843-1.5 3.343-3.343 3.343zm0-7.812a1 1 0 00-.998.999v3.471a1 1 0 001.998 0V35a1 1 0 00-1-.999z" fill="#0C99E6"/></g><defs><clipPath id="clip0"><path fill="#fff" transform="translate(.414 .485)" d="M0 0h80v80H0z"/></clipPath></defs></svg>