<svg width="132" height="131" fill="none" xmlns="http://www.w3.org/2000/svg"><g clip-path="url(#clip0)"><path d="M61.071 103.55v6.724l4.518 4.483 4.517-4.483v-6.724H61.07zm45.173-80.69v6.724l4.517 4.483 4.517-4.483v-6.723h-9.034zm-90.345 0v6.724l4.517 4.483 4.517-4.483v-6.723H15.9z" fill="#FFC477"/><path d="M119.796 49.757h-9.035v-15.69l4.517-4.483 8.561 4.236a9.058 9.058 0 013.638 3.313 8.96 8.96 0 011.353 4.712v7.912h-9.034z" fill="#3D9AE2"/><path d="M122.054 4.93v2.24l-2.258 4.483-6.776-4.483-4.517 4.483h-6.776l-2.259-2.241V4.929L97.21.446h20.327a4.547 4.547 0 013.19 1.317 4.474 4.474 0 011.327 3.166z" fill="#57565C"/><path d="M119.796 11.653v4.483a8.932 8.932 0 01-2.646 6.34 9.073 9.073 0 01-6.389 2.625 9.068 9.068 0 01-6.388-2.625 8.932 8.932 0 01-2.646-6.34v-4.483h6.776l4.517-4.483 6.776 4.483z" fill="#FFC477"/><path d="M101.727 49.757h-9.035v-7.912a8.959 8.959 0 011.354-4.712 9.054 9.054 0 013.638-3.313l8.56-4.236 4.517 4.483v15.69h-9.034z" fill="#1E81CE"/><path d="M74.623 130.446H65.59v-15.689l4.517-4.483 8.56 4.236a9.06 9.06 0 013.638 3.312 8.962 8.962 0 011.354 4.712v7.912h-9.035z" fill="#3D9AE2"/><path d="M76.882 85.619v2.241l-2.259 4.483-6.776-4.483-4.517 4.483h-6.776L54.295 90.1v-4.48l-2.258-4.483h20.327a4.548 4.548 0 013.19 1.317 4.48 4.48 0 011.328 3.166z" fill="#57565C"/><path d="M74.623 92.343v4.483a8.93 8.93 0 01-2.646 6.339 9.067 9.067 0 01-6.388 2.626 9.067 9.067 0 01-6.389-2.626 8.93 8.93 0 01-2.646-6.34v-4.482h6.776l4.517-4.483 6.776 4.483z" fill="#FFC477"/><path d="M56.554 130.446H47.52v-7.912a8.962 8.962 0 011.353-4.712 9.06 9.06 0 013.638-3.312l8.56-4.236 4.518 4.483v15.689h-9.035z" fill="#1E81CE"/><path d="M29.45 49.757h-9.034v-15.69l4.517-4.483 8.56 4.236a9.054 9.054 0 013.639 3.313 8.959 8.959 0 011.353 4.712v7.912h-9.034z" fill="#3D9AE2"/><path d="M31.71 4.93v2.24l-2.26 4.483-6.775-4.483-4.517 4.483h-6.776L9.123 9.412V4.929L6.865.446h20.327a4.549 4.549 0 013.19 1.317A4.48 4.48 0 0131.71 4.93z" fill="#57565C"/><path d="M29.45 11.653v4.483a8.931 8.931 0 01-2.645 6.34 9.07 9.07 0 01-6.389 2.625 9.07 9.07 0 01-6.388-2.625 8.931 8.931 0 01-2.646-6.34v-4.483h6.776l4.517-4.483 6.776 4.483z" fill="#FFC477"/><path d="M11.382 49.757H2.347v-7.912a8.96 8.96 0 011.354-4.712 9.055 9.055 0 013.638-3.313l8.56-4.236 4.517 4.483v15.69h-9.034z" fill="#1E81CE"/><path d="M24.933 23.891v2.242a9.03 9.03 0 01-9.034 0V23.89a9.028 9.028 0 009.034 0zm90.345 0v2.242a9.027 9.027 0 01-9.034 0V23.89a9.026 9.026 0 009.034 0zm-45.172 80.69v2.241a9.024 9.024 0 01-4.517 1.21 9.025 9.025 0 01-4.518-1.21v-2.241a9.035 9.035 0 009.035 0z" fill="#FFB655"/><path d="M78.479 16.793l-3.194 3.169 2.92 2.898H52.972l2.92-2.898-3.193-3.17-6.776 6.725a2.233 2.233 0 000 3.17l6.776 6.723 3.194-3.169-2.92-2.898h25.232l-2.92 2.898 3.194 3.17 6.776-6.725a2.233 2.233 0 000-3.17l-6.776-6.723zm40.655 51.551l-6.776-6.724a2.268 2.268 0 00-3.194 0l-6.775 6.724 3.193 3.17 2.921-2.898v37.175H98.145l2.92-2.898-3.194-3.17-6.775 6.725a2.232 2.232 0 000 3.169l6.775 6.724 3.194-3.169-2.92-2.898h12.616c.599 0 1.174-.236 1.597-.657.424-.42.662-.99.662-1.584V68.616l2.92 2.898 3.194-3.17zm-85.828 31.38l-3.193 3.169 2.92 2.898H22.675V68.616l2.92 2.898 3.194-3.17-6.776-6.724a2.268 2.268 0 00-3.193 0l-6.776 6.724 3.193 3.17 2.92-2.898v39.417c0 .594.239 1.164.662 1.584.424.421.998.657 1.597.657h12.617l-2.92 2.898 3.193 3.169 6.776-6.724a2.231 2.231 0 000-3.169l-6.776-6.724z" fill="#FF9811"/><path d="M117.537 105.791h4.517v4.483h-4.517v-4.483zm0-8.965h4.517v4.482h-4.517v-4.482zm0-8.966h4.517v4.483h-4.517V87.86zM9.123 105.791h4.518v4.483H9.122v-4.483zm0-8.965h4.518v4.482H9.122v-4.482zm0-8.966h4.518v4.483H9.122V87.86z" fill="#FFA733"/></g><defs><clipPath id="clip0"><path fill="#fff" transform="translate(.089 .446)" d="M0 0h131v130H0z"/></clipPath></defs></svg>