<svg width="132" height="131" fill="none" xmlns="http://www.w3.org/2000/svg"><path d="M124.948 57.321v18.282h-8.188v48.75h-12.281l-2.047-22.344-2.047 22.344h-12.28v-48.75h-8.188V57.32c0-2.155.862-4.221 2.398-5.745a8.22 8.22 0 015.79-2.38h28.655a8.23 8.23 0 014.954 1.656 8.13 8.13 0 012.937 4.29c.197.71.297 1.443.297 2.18z" fill="#4D5E78"/><path d="M124.948 57.321v18.282h-8.188v48.75h-12.281l-2.047-22.344-2.047 22.344h-12.28V91.238a117.118 117.118 0 0036.546-36.095c.197.71.297 1.442.297 2.178z" fill="#485870"/><path d="M96.292 49.196l6.14 10.157 6.141-10.157H96.292z" fill="#E0E0DE"/><path d="M100.385 59.352h4.094v34.532h-4.094V59.352zm8.188 4.063h8.187v4.063h-8.187v-4.063zm-20.469 0h8.188v4.063h-8.188v-4.063z" fill="#404F66"/><path d="M86.057 59.352h4.094v22.344h-4.094V59.353zm28.657 0h4.093v22.344h-4.093V59.353z" fill="#404F66"/><path d="M102.47 49.196c-3.8 0-7.444-1.498-10.131-4.164a14.164 14.164 0 01-4.197-10.054v-14.22a6.07 6.07 0 011.799-4.308 6.165 6.165 0 014.342-1.785h16.375c1.628 0 3.19.642 4.342 1.785a6.072 6.072 0 011.798 4.309v14.218c0 3.772-1.509 7.388-4.196 10.055a14.386 14.386 0 01-10.132 4.164z" fill="#FEC9A3"/><path d="M116.76 22.79H88.104v-8.125c0-2.155.863-4.221 2.398-5.745a8.22 8.22 0 015.79-2.38h12.281c2.171 0 4.254.856 5.789 2.38a8.091 8.091 0 012.398 5.745v8.125z" fill="#404F66"/><path d="M114.714 28.884h-1.31c-1.849 0-3.691-.225-5.485-.67a22.794 22.794 0 00-10.973 0c-1.794.445-3.636.67-5.486.67h-1.309a4.11 4.11 0 01-2.895-1.19 4.047 4.047 0 01-1.199-2.873c0-1.077.432-2.11 1.2-2.872a4.11 4.11 0 012.894-1.19h24.563c1.085 0 2.127.428 2.894 1.19a4.045 4.045 0 011.199 2.872 4.046 4.046 0 01-1.199 2.873 4.108 4.108 0 01-2.894 1.19z" fill="#4D5E78"/><path d="M88.104 93.884h28.656v4.062H88.104v-4.062z" fill="#404F66"/><path d="M114.714 65.446L96.292 75.603h28.656v-6.094l-10.234-4.063z" fill="#FEB784"/><path d="M96.292 75.603l-6.14-4.063-10.235 4.063v10.156h38.89a6.163 6.163 0 004.342-1.785 6.07 6.07 0 001.799-4.309v-4.063H96.292z" fill="#FEC9A3"/><path d="M6.23 61.384h10.234v22.344H12.37a6.165 6.165 0 01-4.342-1.785 6.07 6.07 0 01-1.799-4.31v-16.25z" fill="#FEC093"/><path d="M27.721 6.54c2.285 0 4.548.447 6.659 1.314a17.43 17.43 0 015.644 3.743 17.258 17.258 0 013.771 5.601 17.152 17.152 0 011.325 6.608V55.29H10.323V23.806c0-4.58 1.833-8.971 5.096-12.209A17.466 17.466 0 0127.72 6.54z" fill="#92563A"/><path d="M20.595 14.665H36.97c1.629 0 3.19.642 4.342 1.785a6.07 6.07 0 011.799 4.309v12.187c0 3.771-1.51 7.388-4.197 10.055a14.384 14.384 0 01-10.131 4.164c-3.8 0-7.445-1.498-10.132-4.164a14.164 14.164 0 01-4.197-10.055V20.76a6.07 6.07 0 011.799-4.31 6.165 6.165 0 014.342-1.784z" fill="#FEC9A3"/><path d="M10.323 30.915l3.37-.418a32.325 32.325 0 0021.192-11.77l8.188 10.157 2.047-4.063V22.79c0-4.31-1.725-8.443-4.796-11.49a16.439 16.439 0 00-11.58-4.76h-2.657a15.84 15.84 0 00-9.848 3.428 15.666 15.666 0 00-4.36 5.439 15.546 15.546 0 00-1.556 6.777v8.731z" fill="#92563A"/><path d="M16.464 112.165h12.28v12.188h-12.28v-12.188zm12.281 0h12.281v12.188H28.745v-12.188z" fill="#FEC9A3"/><path d="M16.464 57.321l-.951.944a8.802 8.802 0 00-2.04 3.148 8.75 8.75 0 00.523 7.297 8.828 8.828 0 002.468 2.83v4.063h24.562V71.54a8.83 8.83 0 002.468-2.83 8.759 8.759 0 00.522-7.297 8.8 8.8 0 00-2.04-3.148l-.95-.944H16.464z" fill="#F59898"/><path d="M51.26 55.29v6.094H41.026v14.219H16.464v-14.22H6.229V55.29c0-2.155.863-4.221 2.398-5.745a8.22 8.22 0 015.79-2.38h28.656c2.171 0 4.254.857 5.789 2.38a8.095 8.095 0 012.398 5.745zm-4.093 56.875H10.323l5.355-31.888.786-4.674h24.562l6.14 36.562z" fill="#F59898"/><path d="M47.167 112.165H10.323l5.355-31.888a118.18 118.18 0 006.734-4.674h18.614l6.14 36.562zM51.26 55.29v6.094H41.026v14.219H22.412a116.466 116.466 0 0025.85-26.597 8.115 8.115 0 012.213 2.807 8.055 8.055 0 01.785 3.477z" fill="#ED9191"/><path d="M49.214 99.978h-6.141a2.055 2.055 0 01-1.447-.595 2.025 2.025 0 01-.6-1.437V61.384H51.26v36.562c0 .539-.215 1.056-.599 1.437-.384.38-.904.595-1.447.595zM20.557 47.165l8.188 16.25 8.187-16.25H20.557z" fill="#FEC9A3"/><path d="M16.464 61.384h26.609v32.5h-26.61v-32.5z" fill="#FFB531"/><path d="M43.073 85.759H12.37a6.165 6.165 0 01-4.342-1.785 6.07 6.07 0 01-1.799-4.309v-4.063h22.516l6.14-6.093 4.094 2.031-2.047 4.063h6.141v10.156zm14.328-73.125h16.375c1.629 0 3.19.642 4.342 1.785a6.07 6.07 0 011.799 4.308v14.22c0 3.77-1.51 7.387-4.197 10.053a14.384 14.384 0 01-10.131 4.165c-3.8 0-7.445-1.498-10.132-4.164a14.164 14.164 0 01-4.197-10.055V18.728a6.07 6.07 0 011.799-4.31 6.165 6.165 0 014.342-1.784z" fill="#FEC9A3"/><path d="M79.917 26.852l-6.141-10.156-2.98.986a25.973 25.973 0 01-18.313-.757 5.455 5.455 0 01-1.81-1.252 5.373 5.373 0 01-.92-6.143 5.428 5.428 0 012.011-2.182 5.485 5.485 0 012.867-.808h17.098a8.22 8.22 0 015.79 2.38 8.094 8.094 0 012.398 5.745v12.188z" fill="#F98500"/><path d="M88.104 55.29v18.281h-8.187v18.282H51.26V73.57h-8.187V55.29c0-2.155.863-4.221 2.398-5.745a8.22 8.22 0 015.79-2.38h28.656a8.231 8.231 0 013.135.616 8.18 8.18 0 012.658 1.76 8.11 8.11 0 011.774 2.638c.411.986.622 2.044.62 3.111z" fill="#CFCFCD"/><path d="M88.104 55.29v18.281h-8.187v18.282H51.26V81.742C64.48 74.762 77 65.2 87.583 52.426c.347.916.524 1.886.522 2.864z" fill="#C7C7C5"/><path d="M49.214 57.321h4.093v22.344h-4.093V57.321zm28.656 0h4.094v22.344H77.87V57.321z" fill="#B0B0AE"/><path d="M61.495 47.165l2.047 6.094-2.047 26.406 4.094 4.063 4.093-4.063-2.047-26.406 2.047-6.094h-8.187z" fill="#348FD9"/><path d="M79.917 124.353H67.635L65.59 99.978l-2.047 24.375H51.26v-32.5h28.657v32.5z" fill="#4D5E78"/><path d="M55.354 73.571l21.709 9.792c.532.24 1.11.365 1.694.365h5.253a4.11 4.11 0 002.895-1.19 4.047 4.047 0 001.2-2.873v-6.094l-28.657-8.125-4.094 8.125z" fill="#DBDBD9"/><path d="M55.354 73.571H43.073V63.415h10.234l6.141 2.031-4.094 8.125z" fill="#FEC9A3"/><path d="M75.823 73.571l-21.708 9.792c-.532.24-1.11.365-1.694.365h-5.254a4.11 4.11 0 01-2.895-1.19 4.047 4.047 0 01-1.199-2.873v-6.094l28.656-8.125 4.094 8.125z" fill="#E0E0DE"/><path d="M75.823 73.571h12.281V63.415H77.87l-6.14 2.031 4.093 8.125z" fill="#FEC9A3"/><path d="M16.464 112.165h24.562v4.063H16.464v-4.063z" fill="#FEC093"/><path d="M26.698 112.165h4.094v12.188h-4.094v-12.188z" fill="#FEB784"/><path d="M51.26 91.853h28.657v4.062H51.26v-4.063z" fill="#485870"/></svg>