<svg width="132" height="131" fill="none" xmlns="http://www.w3.org/2000/svg"><g clip-path="url(#clip0)"><path d="M84.243 47.587V19.77H48.566v27.818H20.532v35.406h28.032v27.819h35.678v-27.82h28.033V47.588H84.244z" fill="#FF6243"/><path d="M57.671 78.29h-.113a2.179 2.179 0 01-2.02-1.695l-3.03-13.541-1.616 3.207a2.186 2.186 0 01-1.954 1.196H.905v-4.333h46.683l3.762-7.469a2.162 2.162 0 012.221-1.181 2.177 2.177 0 011.867 1.68l2.654 11.863 6.242-18.578a2.184 2.184 0 012.07-1.482h.036a2.18 2.18 0 012.056 1.544l5.217 17.255 1.792-2.669a2.189 2.189 0 011.816-.964h54.584v4.334H78.49l-3.712 5.536a2.216 2.216 0 01-2.138.94 2.18 2.18 0 01-1.77-1.517L66.295 57.3l-6.55 19.5a2.182 2.182 0 01-2.075 1.49z" fill="#FFB655"/></g><defs><clipPath id="clip0"><path fill="#fff" transform="translate(.905 .29)" d="M0 0h131v130H0z"/></clipPath></defs></svg>