<svg width="132" height="131" fill="none" xmlns="http://www.w3.org/2000/svg"><g clip-path="url(#clip0)"><path d="M78.011 110.118l-2.258-15.69c9.98 0 18.068 8.028 18.068 17.931v17.931H64.46v-22.414l13.552 2.242z" fill="#5AAAE7"/><path d="M75.752 94.428l2.26 15.69-13.553-2.242 11.293-13.448zm-22.586 0l11.293 13.448-13.551 2.242 2.258-15.69z" fill="#1E81CE"/><path d="M46.39 130.29H35.097v-17.931c0-9.903 8.09-17.931 18.07-17.931l-2.26 15.69 13.552-2.242v22.414H46.39z" fill="#3D9AE2"/><path d="M75.752 94.428L64.46 107.876 53.166 94.428h22.586zm2.259-26.897v8.966c0 7.427-6.068 13.448-13.552 13.448s-13.551-6.021-13.551-13.448v-8.966a2.102 2.102 0 01.022-.38c4.54-.807 14.591-2.915 18.047-6.344a16.794 16.794 0 009.012 6.455c.018.089.025.18.022.27z" fill="#FFDAAA"/><path d="M80.27 67.531a9.47 9.47 0 01-2.281-.269 16.794 16.794 0 01-9.013-6.455c-3.455 3.43-13.506 5.537-18.046 6.344-1.4.246-2.281.38-2.281.38 0-8.665 7.078-15.69 15.81-15.69 8.733 0 15.81 7.025 15.81 15.69z" fill="#898890"/><path d="M116.408 29.428h-6.776v26.897H96.08V29.428h-6.776l13.552-13.448 13.552 13.448zm-38.397-15.69h-6.776v13.449H57.684V13.738h-6.776L64.459.29l13.552 13.448zM41.873 42.876h-6.776v26.897H21.545V42.876H14.77l13.55-13.448 13.552 13.448z" fill="#FF6243"/><path d="M80.27 112.359h4.517v17.931H80.27v-17.931z" fill="#3D9AE2"/><path d="M44.132 112.359h4.517v17.931h-4.517v-17.931z" fill="#1E81CE"/><path d="M57.683 31.67h4.518v8.965h-4.518v-8.966zm9.035 0h4.517v4.482h-4.517V31.67zm0 8.965h4.517v4.483h-4.517v-4.483zm-9.035 4.483h4.518V49.6h-4.518v-4.482zm38.884 15.689h4.518v8.966h-4.518v-8.966zm8.547 4.483h4.517v4.483h-4.517V65.29zm-83.081 8.966h4.517v4.482h-4.517v-4.482zm8.547 0h4.517v8.965H30.58v-8.965zm0 13.448h4.517v4.483H30.58v-4.483zm-8.547-4.483h4.517v4.483h-4.517V83.22zm83.081-8.965h4.517v4.482h-4.517v-4.482zm0 8.965h4.517v4.483h-4.517V83.22z" fill="#FF5023"/></g><defs><clipPath id="clip0"><path fill="#fff" transform="translate(.089 .29)" d="M0 0h131v130H0z"/></clipPath></defs></svg>