<svg width="94" height="66" fill="none" xmlns="http://www.w3.org/2000/svg"><path d="M92.857.53c.31 2.172.543 4.422.698 6.75.155 2.327.233 4.034.233 5.12 0 10.396-1.862 20.25-5.586 29.56-3.724 9.464-8.301 17.455-13.732 23.972L50.962 60.58c2.948-6.672 5.353-14.275 7.215-22.81 1.707-8.378 2.56-16.37 2.56-23.973V8.21a31.948 31.948 0 01-.232-3.956c-.155-1.397-.31-2.638-.466-3.724h32.818zm-50.041 0c.31 2.172.543 4.422.698 6.75.155 2.327.233 4.034.233 5.12 0 10.396-1.862 20.25-5.586 29.56-3.724 9.464-8.302 17.455-13.732 23.972L.92 60.58c2.948-6.672 5.353-14.275 7.215-22.81 1.707-8.378 2.56-16.37 2.56-23.973V8.21a31.948 31.948 0 01-.232-3.956c-.155-1.397-.31-2.638-.466-3.724h32.818z" fill="url(#paint0_linear)"/><defs><linearGradient id="paint0_linear" x1="86.4" y1="101.159" x2="-6.884" y2="86.762" gradientUnits="userSpaceOnUse"><stop stop-color="#F6C266"/><stop offset=".334" stop-color="#DE394A"/><stop offset=".62" stop-color="#A13AA6"/><stop offset=".943" stop-color="#443BDD"/></linearGradient></defs></svg>