<svg width="150" height="28" fill="none" xmlns="http://www.w3.org/2000/svg"><rect x="93.763" y=".783" width="55.574" height="26.152" rx="13.076" fill="url(#paint0_linear)"/><path d="M109.681 7.512h2.522v11.995h-2.522V7.512zm4.863 3.298h2.522v8.697h-2.522V10.81zm1.261-1.213c-.464 0-.841-.134-1.132-.404a1.31 1.31 0 01-.436-1.002c0-.399.145-.733.436-1.002.291-.27.668-.404 1.132-.404.463 0 .84.129 1.131.388.291.258.437.581.437.97 0 .42-.146.77-.437 1.05-.291.27-.668.404-1.131.404zm6.365 1.407h2.231v1.94h-2.166v6.563h-2.522v-6.563h-1.342v-1.94h1.342v-.388c0-.992.291-1.778.873-2.36.593-.582 1.423-.873 2.49-.873.377 0 .732.043 1.067.129.344.075.63.189.856.34l-.662 1.826a1.726 1.726 0 00-1.019-.307c-.765 0-1.148.42-1.148 1.26v.373zm11.896 4.187c0 .032-.016.258-.048.679h-6.58c.119.538.399.964.841 1.277.442.312.992.469 1.649.469.453 0 .851-.065 1.196-.194.356-.14.685-.356.986-.647l1.342 1.455c-.819.937-2.015 1.406-3.589 1.406-.98 0-1.848-.188-2.602-.566-.755-.388-1.337-.921-1.746-1.6-.41-.679-.615-1.45-.615-2.312 0-.851.2-1.616.599-2.295a4.237 4.237 0 011.665-1.6c.711-.389 1.503-.583 2.376-.583.851 0 1.622.184 2.312.55a3.949 3.949 0 011.616 1.584c.399.68.598 1.471.598 2.377zm-4.51-2.603c-.571 0-1.051.162-1.439.485-.388.323-.625.765-.711 1.325h4.284c-.086-.55-.323-.986-.711-1.309-.388-.334-.862-.501-1.423-.501z" fill="#fff"/><path d="M2.286 22.307c-.606 0-1.364-.101-2.274-.253V3.861c.455-.05.86-.101 1.264-.152.353-.05.707-.05 1.01-.05.304 0 .657 0 1.011.05l1.213.152v18.193a9.936 9.936 0 01-2.224.253zm4.549-9.249c0-1.364.151-2.628.455-3.79a8.472 8.472 0 011.465-3.032c.657-.86 1.466-1.516 2.476-2.022 1.011-.505 2.224-.707 3.589-.707 1.415 0 2.577.253 3.588.707 1.01.506 1.819 1.163 2.476 2.022a8.471 8.471 0 011.466 3.032c.303 1.162.454 2.426.454 3.79 0 1.365-.151 2.628-.454 3.74a8.234 8.234 0 01-1.466 2.982 6.323 6.323 0 01-2.476 1.97c-1.011.456-2.224.708-3.588.708-1.415 0-2.578-.252-3.589-.707a6.322 6.322 0 01-2.476-1.971 8.234 8.234 0 01-1.465-2.982c-.304-1.112-.455-2.375-.455-3.74zm11.32 0c0-3.689-1.061-5.559-3.234-5.559-2.224 0-3.336 1.87-3.336 5.56 0 1.87.253 3.234.809 4.143.556.91 1.364 1.365 2.476 1.365 2.173 0 3.285-1.82 3.285-5.509zm-4.296 13.443v-.707c0-.152 0-.253.05-.405.102-.808.304-1.718.708-2.577l8.44 1.364c0 .658-.101 1.264-.202 1.92-.101.607-.253 1.264-.505 1.87l-8.49-1.465z" fill="#1158F2"/><path d="M37.915 16.849c0 1.111-.202 2.072-.606 2.78-.405.707-.96 1.313-1.668 1.717-.708.405-1.567.708-2.527.91-.96.152-2.072.253-3.234.253-.91 0-1.719-.05-2.477-.101-.707-.05-1.516-.152-2.375-.253V3.962a24.503 24.503 0 012.123-.253c.758-.05 1.667-.101 2.678-.101.96 0 1.87.101 2.73.253.858.151 1.566.454 2.223.808.606.404 1.112.91 1.465 1.516.354.657.556 1.415.556 2.426a4.48 4.48 0 01-.556 2.173c-.353.657-.808 1.162-1.364 1.516.404.152.758.354 1.112.607.353.252.707.556.96.91.303.353.505.808.657 1.313.202.455.303 1.011.303 1.719zm-8.49-5.964h.707c.708 0 1.314-.151 1.719-.455.404-.303.606-.808.606-1.566 0-.354-.05-.657-.202-.91a1.468 1.468 0 00-.556-.556 1.712 1.712 0 00-.758-.303 4.423 4.423 0 00-.809-.101h-.353c-.152 0-.253 0-.354.05v3.841zm0 3.588v4.296c.1 0 .252.05.455.05h.707c.303 0 .657-.05.96-.1.354-.051.657-.203.91-.354a2.04 2.04 0 00.657-.657c.152-.303.253-.657.253-1.061 0-.81-.253-1.365-.809-1.719-.556-.303-1.213-.455-2.072-.455h-1.061zm9.955-1.415c0-1.364.152-2.628.455-3.79a8.473 8.473 0 011.466-3.032c.657-.86 1.466-1.516 2.476-2.022 1.011-.505 2.224-.707 3.588-.707 1.416 0 2.578.253 3.589.707 1.01.506 1.819 1.163 2.476 2.022a8.471 8.471 0 011.465 3.032c.304 1.162.455 2.426.455 3.79 0 1.365-.151 2.628-.455 3.74a8.234 8.234 0 01-1.465 2.982 6.323 6.323 0 01-2.476 1.97c-1.011.456-2.224.708-3.589.708-1.415 0-2.577-.252-3.588-.707a6.323 6.323 0 01-2.476-1.971 8.235 8.235 0 01-1.466-2.982c-.303-1.112-.454-2.375-.454-3.74zm11.27 0c0-3.689-1.06-5.559-3.234-5.559-2.224 0-3.335 1.87-3.335 5.56 0 1.87.252 3.234.808 4.143.556.91 1.365 1.365 2.476 1.365 2.224 0 3.285-1.82 3.285-5.509zm12.13-9.501c3.234 0 5.66.809 7.327 2.426 1.668 1.617 2.477 3.992 2.477 7.176 0 3.234-.86 5.61-2.527 7.075-1.719 1.516-4.195 2.274-7.53 2.274-.86 0-1.668-.05-2.477-.1-.808-.102-1.566-.152-2.324-.253V3.96c.252-.05.556-.05.96-.1.404-.051.808-.102 1.263-.102.455-.05.91-.05 1.415-.1.506-.102.96-.102 1.415-.102zm-.557 14.909c.102 0 .253.05.405.05h.505c.657 0 1.264-.101 1.87-.253a3.226 3.226 0 001.516-.859c.404-.404.758-.96 1.01-1.667.254-.708.355-1.567.355-2.679 0-1.061-.152-1.97-.405-2.678a5.153 5.153 0 00-1.01-1.719 3.987 3.987 0 00-1.466-.91c-.556-.201-1.162-.252-1.769-.252h-1.061v10.967h.05zM83.398 3.911l1.213-.151c.405-.05.86-.05 1.314-.05.303 0 .657 0 1.112.05.455.05.86.1 1.162.151l-5.66 11.674v6.52c-.91.151-1.667.252-2.223.252-.607 0-1.365-.1-2.275-.252v-6.52c-.454-.91-.91-1.87-1.364-2.88-.505-1.01-.96-1.971-1.466-2.982a79.591 79.591 0 01-1.415-2.982c-.455-1.01-.91-1.97-1.364-2.88.303-.05.657-.101 1.162-.152.506-.05.96-.05 1.415-.05.354 0 .758 0 1.163.05.454.05.808.101 1.111.152l3.134 7.075 2.981-7.025z" fill="#060A38"/><defs><linearGradient id="paint0_linear" x1="98.184" y1="-13.303" x2="152.442" y2="-.771" gradientUnits="userSpaceOnUse"><stop stop-color="#F6C266"/><stop offset=".334" stop-color="#DE394A"/><stop offset=".62" stop-color="#A13AA6"/><stop offset=".943" stop-color="#443BDD"/></linearGradient></defs></svg>