<svg width="150" height="29" fill="none" xmlns="http://www.w3.org/2000/svg"><rect x="93.763" y=".899" width="55.574" height="26.152" rx="13.076" fill="url(#paint0_linear)"/><path d="M109.681 7.629h2.522v11.995h-2.522V7.629zm4.863 3.298h2.522v8.697h-2.522v-8.697zm1.261-1.213c-.464 0-.841-.135-1.132-.404a1.31 1.31 0 01-.436-1.002c0-.4.145-.733.436-1.003.291-.269.668-.404 1.132-.404.463 0 .84.13 1.131.388.291.259.437.582.437.97 0 .42-.146.77-.437 1.05-.291.27-.668.405-1.131.405zm6.365 1.406h2.231v1.94h-2.166v6.563h-2.522V13.06h-1.342v-1.94h1.342v-.387c0-.992.291-1.779.873-2.36.593-.583 1.423-.874 2.49-.874.377 0 .732.043 1.067.13.344.075.63.188.856.34l-.662 1.826a1.726 1.726 0 00-1.019-.307c-.765 0-1.148.42-1.148 1.26v.372zm11.896 4.187c0 .033-.016.259-.048.68h-6.58c.119.538.399.964.841 1.276.442.313.992.47 1.649.47a3.4 3.4 0 001.196-.195c.356-.14.685-.355.986-.646l1.342 1.454c-.819.938-2.015 1.407-3.589 1.407-.98 0-1.848-.189-2.602-.566-.755-.388-1.337-.921-1.746-1.6-.41-.68-.615-1.45-.615-2.312 0-.851.2-1.617.599-2.296a4.237 4.237 0 011.665-1.6c.711-.388 1.503-.582 2.376-.582.851 0 1.622.183 2.312.55a3.949 3.949 0 011.616 1.584c.399.679.598 1.471.598 2.376zm-4.51-2.602c-.571 0-1.051.161-1.439.485-.388.323-.625.765-.711 1.325h4.284c-.086-.55-.323-.986-.711-1.31-.388-.333-.862-.5-1.423-.5zM2.286 22.424c-.606 0-1.364-.101-2.274-.253V3.978c.455-.051.86-.102 1.264-.152.353-.05.707-.05 1.01-.05.304 0 .657 0 1.011.05l1.213.152V22.17a9.936 9.936 0 01-2.224.253zm4.549-9.249c0-1.365.151-2.628.455-3.79a8.472 8.472 0 011.465-3.032c.657-.86 1.466-1.517 2.476-2.022 1.011-.505 2.224-.707 3.589-.707 1.415 0 2.577.252 3.588.707 1.01.505 1.819 1.162 2.476 2.022a8.471 8.471 0 011.466 3.032c.303 1.162.454 2.425.454 3.79 0 1.364-.151 2.628-.454 3.74a8.234 8.234 0 01-1.466 2.982 6.323 6.323 0 01-2.476 1.97c-1.011.455-2.224.708-3.588.708-1.415 0-2.578-.253-3.589-.708a6.322 6.322 0 01-2.476-1.97 8.234 8.234 0 01-1.465-2.982c-.304-1.112-.455-2.375-.455-3.74zm11.32 0c0-3.69-1.061-5.559-3.234-5.559-2.224 0-3.336 1.87-3.336 5.559 0 1.87.253 3.234.809 4.144.556.91 1.364 1.365 2.476 1.365 2.173 0 3.285-1.82 3.285-5.509zm-4.296 13.443v-.708c0-.151 0-.252.05-.404.102-.808.304-1.718.708-2.577l8.44 1.364c0 .657-.101 1.264-.202 1.92-.101.607-.253 1.264-.505 1.87l-8.49-1.465zm24.056-9.653c0 1.112-.202 2.072-.606 2.78-.405.707-.96 1.314-1.668 1.718-.708.404-1.567.708-2.527.91a21.09 21.09 0 01-3.234.252c-.91 0-1.719-.05-2.477-.1-.707-.051-1.516-.152-2.375-.253V4.078a24.499 24.499 0 012.123-.252c.758-.05 1.667-.101 2.678-.101.96 0 1.87.1 2.73.252.858.152 1.566.455 2.223.809.606.404 1.112.91 1.465 1.516.354.657.556 1.415.556 2.426a4.48 4.48 0 01-.556 2.173c-.353.657-.808 1.162-1.364 1.516.404.152.758.354 1.112.606.353.253.707.556.96.91.303.354.505.809.657 1.314.202.455.303 1.01.303 1.718zm-8.49-5.963h.707c.708 0 1.314-.152 1.719-.455.404-.303.606-.808.606-1.567 0-.353-.05-.657-.202-.91a1.468 1.468 0 00-.556-.555 1.712 1.712 0 00-.758-.303 4.423 4.423 0 00-.809-.101h-.353c-.152 0-.253 0-.354.05v3.84zm0 3.588v4.296c.1 0 .252.05.455.05h.707c.303 0 .657-.05.96-.1.354-.051.657-.203.91-.355a2.04 2.04 0 00.657-.657c.152-.303.253-.657.253-1.06 0-.81-.253-1.365-.809-1.72-.556-.302-1.213-.454-2.072-.454h-1.061zm9.955-1.415c0-1.365.152-2.628.455-3.79a8.473 8.473 0 011.466-3.032c.657-.86 1.466-1.517 2.476-2.022 1.011-.505 2.224-.707 3.588-.707 1.416 0 2.578.252 3.589.707 1.01.505 1.819 1.162 2.476 2.022a8.471 8.471 0 011.465 3.032c.304 1.162.455 2.425.455 3.79 0 1.364-.151 2.628-.455 3.74a8.234 8.234 0 01-1.465 2.982 6.323 6.323 0 01-2.476 1.97c-1.011.455-2.224.708-3.589.708-1.415 0-2.577-.253-3.588-.708a6.323 6.323 0 01-2.476-1.97 8.235 8.235 0 01-1.466-2.982c-.303-1.112-.454-2.375-.454-3.74zm11.27 0c0-3.69-1.06-5.559-3.234-5.559-2.224 0-3.335 1.87-3.335 5.559 0 1.87.252 3.234.808 4.144.556.91 1.365 1.365 2.476 1.365 2.224 0 3.285-1.82 3.285-5.509zm12.13-9.501c3.234 0 5.66.808 7.327 2.426 1.668 1.617 2.477 3.992 2.477 7.176 0 3.234-.86 5.61-2.527 7.075-1.719 1.516-4.195 2.274-7.53 2.274-.86 0-1.668-.05-2.477-.1-.808-.102-1.566-.152-2.324-.253V4.078c.252-.05.556-.05.96-.101.404-.05.808-.101 1.263-.101.455-.05.91-.05 1.415-.101.506-.101.96-.101 1.415-.101zm-.557 14.908c.102 0 .253.05.405.05h.505c.657 0 1.264-.1 1.87-.252a3.226 3.226 0 001.516-.859c.404-.404.758-.96 1.01-1.668.254-.707.355-1.566.355-2.678 0-1.062-.152-1.971-.405-2.679a5.153 5.153 0 00-1.01-1.718 3.987 3.987 0 00-1.466-.91c-.556-.202-1.162-.252-1.769-.252h-1.061v10.966h.05zM83.398 4.028l1.213-.152c.405-.05.86-.05 1.314-.05.303 0 .657 0 1.112.05.455.051.86.102 1.162.152l-5.66 11.674v6.52c-.91.151-1.667.252-2.223.252-.607 0-1.365-.101-2.275-.253v-6.519c-.454-.91-.91-1.87-1.364-2.88-.505-1.011-.96-1.971-1.466-2.982a79.599 79.599 0 01-1.415-2.982 78.4 78.4 0 00-1.364-2.88c.303-.051.657-.102 1.162-.152.506-.05.96-.05 1.415-.05.354 0 .758 0 1.163.05.454.05.808.101 1.111.152l3.134 7.075 2.981-7.025z" fill="#fff"/><defs><linearGradient id="paint0_linear" x1="98.184" y1="-13.187" x2="152.442" y2="-.654" gradientUnits="userSpaceOnUse"><stop stop-color="#F6C266"/><stop offset=".334" stop-color="#DE394A"/><stop offset=".62" stop-color="#A13AA6"/><stop offset=".943" stop-color="#443BDD"/></linearGradient></defs></svg>