<svg width="320" height="1118" fill="none" xmlns="http://www.w3.org/2000/svg"><path d="M-458 0h778v1118h-778V0z" fill="url(#paint0_radial)"/><circle cx="240.369" cy="117.222" r="28.222" transform="rotate(90 240.369 117.222)" fill="#F5E3FF"/><circle r="1.083" transform="scale(1 -1) rotate(77.197 357.34 .416)" fill="#1158F2"/><circle r="1.083" transform="scale(1 -1) rotate(77.197 364.159 17.14)" fill="#EDC0D6"/><circle r="2.583" transform="scale(1 -1) rotate(77.197 390.83 6.212)" fill="#1158F2"/><circle r="4.75" transform="scale(1 -1) rotate(77.197 363.452 -20.515)" fill="#ABDCFB"/><circle r="1.083" transform="scale(1 -1) rotate(-71.74 -76.955 -133.704)" fill="#1158F2"/><circle r="2.583" transform="scale(1 -1) rotate(-71.74 -181.098 -252.885)" fill="#1158F2"/><circle r="4.75" transform="scale(1 -1) rotate(-71.74 -272.671 -203.481)" fill="#ABDCFB"/><circle cx="28.609" cy="760.725" r="28.609" fill="#F5E3FF"/><circle r="1.098" transform="scale(-1 1) rotate(-12.803 3086.304 1531.697)" fill="#1158F2"/><circle r="1.098" transform="scale(-1 1) rotate(-12.803 2991.877 1491.964)" fill="#EDC0D6"/><circle r="2.619" transform="scale(-1 1) rotate(-12.803 2928.739 1642.772)" fill="#1158F2"/><circle r="4.815" transform="scale(-1 1) rotate(-12.803 3145.746 1640.157)" fill="#ABDCFB"/><circle r="1.098" transform="scale(1 -1) rotate(18.26 2929.513 -225.273)" fill="#1158F2"/><circle r="2.619" transform="scale(1 -1) rotate(18.26 2889.71 365.872)" fill="#1158F2"/><circle r="4.815" transform="scale(1 -1) rotate(18.26 3262.881 477.494)" fill="#ABDCFB"/><defs><radialGradient id="paint0_radial" cx="0" cy="0" r="1" gradientUnits="userSpaceOnUse" gradientTransform="matrix(-208.28887 198.14988 -156.93806 -164.96832 217.952 429.993)"><stop stop-color="#0596FF" stop-opacity=".1"/><stop offset="1" stop-color="#0596FF" stop-opacity="0"/></radialGradient></defs></svg>