<?xml version="1.0" encoding="utf-8"?><svg xmlns="http://www.w3.org/2000/svg" xmlns:xlink="http://www.w3.org/1999/xlink"><symbol viewBox="0 0 24 24" id="arrow-big" xmlns="http://www.w3.org/2000/svg"><path fill-rule="evenodd" clip-rule="evenodd" d="M13.498 4.298l6.216 6.482a1.05 1.05 0 010 1.44l-6.216 6.482a.949.949 0 01-1.381 0 1.05 1.05 0 010-1.44l4.548-4.744H3v-2.037h13.665L12.117 5.74a1.05 1.05 0 010-1.44.949.949 0 011.38 0z"/></symbol><symbol viewBox="0 0 21 21" id="arrow-small" xmlns="http://www.w3.org/2000/svg"><path fill-rule="evenodd" clip-rule="evenodd" d="M8.06 14.306a1 1 0 010-1.414l2.293-2.293L8.06 8.306a1 1 0 011.415-1.414l3 3a1 1 0 010 1.414l-3 3a1 1 0 01-1.415 0z"/></symbol><symbol viewBox="0 0 16 16" id="close" xmlns="http://www.w3.org/2000/svg"><path d="M1.455 0L16 14.546 14.545 16 0 1.455 1.455 0z"/><path d="M0 14.545L14.546 0 16 1.455 1.455 16 0 14.545z"/></symbol><symbol viewBox="0 0 26 26" id="facebook" xmlns="http://www.w3.org/2000/svg"><path d="M.389 13.275c0-6.903 5.596-12.5 12.5-12.5s12.5 5.597 12.5 12.5c0 6.624-5.152 12.044-11.667 12.473v-9.973h3.334V14.11h-3.334v-2.5a2.5 2.5 0 012.5-2.5h.834V7.442h-.834a4.167 4.167 0 00-4.166 4.167v2.5H8.722v1.666h3.334v9.973C5.54 25.32.389 19.898.389 13.275z"/></symbol><symbol viewBox="0 0 24 26" id="instagram" xmlns="http://www.w3.org/2000/svg"><path d="M12.194 9.109c-2.173 0-3.935 1.865-3.935 4.166 0 2.302 1.762 4.167 3.935 4.167 2.174 0 3.936-1.865 3.936-4.167 0-2.3-1.762-4.166-3.935-4.166z"/><path fill-rule="evenodd" clip-rule="evenodd" d="M7.472.775C3.56.775.39 4.133.39 8.275v10c0 4.143 3.171 7.5 7.083 7.5h9.445c3.912 0 7.083-3.357 7.083-7.5v-10c0-4.142-3.171-7.5-7.083-7.5H7.472zm-.787 12.5c0-3.221 2.467-5.833 5.51-5.833 3.042 0 5.509 2.612 5.509 5.833 0 3.222-2.467 5.834-5.51 5.834-3.042 0-5.509-2.612-5.509-5.834zm11.019-5.833h1.574V5.775h-1.574v1.667z"/></symbol><symbol viewBox="0 0 25 26" id="linkedin" xmlns="http://www.w3.org/2000/svg"><path fill-rule="evenodd" clip-rule="evenodd" d="M0 3.275a2.5 2.5 0 012.5-2.5h20a2.5 2.5 0 012.5 2.5v20a2.5 2.5 0 01-2.5 2.5h-20a2.5 2.5 0 01-2.5-2.5v-20zM8.333 9.11H6.667V7.442h1.666V9.11zm-1.666 10v-8.334h1.666v8.334H6.667zm7.5-6.667a2.5 2.5 0 00-2.5 2.5v4.167H10v-8.334h1.667v.833a4.167 4.167 0 016.667 3.334v4.167h-1.667v-4.167a2.5 2.5 0 00-2.5-2.5z"/></symbol><symbol viewBox="0 0 25 25" id="play" xmlns="http://www.w3.org/2000/svg"><path d="M21.419 12.145l-18 10.5v-21l18 10.5z"/></symbol><symbol viewBox="0 0 25 26" id="twitter" xmlns="http://www.w3.org/2000/svg"><path d="M24.353 3.22a.828.828 0 00-.528-.732.758.758 0 00-.842.23c-.544.64-1.232 1.074-1.93 1.272-.97-.96-2.274-1.548-3.707-1.548-3.075 0-5.567 2.643-5.567 5.902v.733C7.071 8.69 4.553 4.904 3.874 2.983a.793.793 0 00-.696-.54.781.781 0 00-.746.46C.785 6.398.531 9.787 1.728 12.673c1.05 2.528 3.159 4.542 6.149 5.876-1.359 1.02-3.646 2.226-6.312 2.226a.794.794 0 00-.753.592c-.1.351.028.73.316.935 2.556 1.807 5.236 1.807 7.728 1.807h.076c7.651 0 13.851-6.577 13.851-14.688v-.797c.572-.616 1.018-1.246 1.29-2.06.305-.91.367-1.964.28-3.344z"/></symbol></svg>