<svg width="32" height="32" fill="none" xmlns="http://www.w3.org/2000/svg"><path d="M24.665 25.146c.171 0 .328.096.404.254l.971 1.943a.454.454 0 0 1-.403.657.445.445 0 0 1-.404-.254l-.972-1.943a.454.454 0 0 1 .404-.657ZM7.382 25.4a.458.458 0 0 1 .404-.253c.335 0 .554.355.404.656l-.972 1.943a.458.458 0 0 1-.404.254.454.454 0 0 1-.403-.657l.971-1.943Z" fill="#fff" stroke="#1D1D1B"/><path d="M8.442 24.21h15.593c1.99 0 3.36-1.396 3.36-3.113l-.384-8.252C27.011 7.406 22.537 3 16.242 3 9.941 3 5.473 7.406 5.473 12.845l-.39 8.252c0 1.717 1.368 3.113 3.36 3.113Z" stroke="#1D1D1B" stroke-miterlimit="10" stroke-linejoin="round"/><path d="M6.26 26.602h20.056V23.3c0-2.13-2.563-3.86-5.731-3.86h-8.593c-3.162 0-5.731 1.726-5.731 3.86v3.302Z" fill="#fff" stroke="#1D1D1B" stroke-width="1.077" stroke-miterlimit="10" stroke-linejoin="round"/><path d="M6.863 26.31h-.459a2.589 2.589 0 0 1-2.545-2.1c-.28-1.458-.198-2.943-.479-4.4-.328-1.67-1.026-3.312-1.348-4.981a1.817 1.817 0 0 1 1.163-2.046c1.102-.397 2.285.35 2.47 1.52l1.198 12.006Zm18.678 0h.465a2.62 2.62 0 0 0 2.58-2.1c.287-1.458.198-2.943.485-4.4.329-1.67 1.034-3.312 1.362-4.981a1.817 1.817 0 0 0-.205-1.238 1.836 1.836 0 0 0-.972-.808c-1.115-.397-2.312.35-2.497 1.52L25.54 26.308Z" fill="#fff" stroke="#1D1D1B" stroke-miterlimit="10" stroke-linejoin="round"/></svg>