<svg width="34" height="32" fill="none" xmlns="http://www.w3.org/2000/svg"><path d="M30.999 22.88a.284.284 0 0 0 .287-.297l-.694-7.034h-2.308l2.11 6.895c.07.258.317.436.605.436Zm-27.652 0a.284.284 0 0 1-.287-.297l.694-7.034h2.308l-2.11 6.895a.63.63 0 0 1-.605.436Z" stroke="#1D1D1B" stroke-miterlimit="10" stroke-linejoin="round"/><path d="M3.774 15.548h26.452A2.77 2.77 0 0 0 33 12.774 2.77 2.77 0 0 0 30.226 10H3.774A2.77 2.77 0 0 0 1 12.774a2.77 2.77 0 0 0 2.774 2.774Z" stroke="#1D1D1B" stroke-miterlimit="10" stroke-linejoin="round"/></svg>