<svg width="32" height="32" fill="none" xmlns="http://www.w3.org/2000/svg"><path d="M21.691 28c.177 0 .314-.15.293-.327l-.715-7.575h-2.384l2.18 7.431c.075.28.333.47.626.47ZM10.39 28a.292.292 0 0 1-.292-.327l.715-7.575h2.384l-2.18 7.431a.644.644 0 0 1-.626.47Zm1.173-7.902h9.128c1.07 0 1.941-.872 1.941-1.942 0-1.07-.872-1.941-1.941-1.941h-9.128a1.94 1.94 0 1 0 0 3.883Zm.442-3.883h8.235c1.056 0 1.771-.872 1.771-1.941l-.197-5.143C21.814 5.745 19.45 3 16.119 3c-3.324 0-5.688 2.745-5.688 6.13l-.198 5.144c0 1.07.716 1.941 1.771 1.941Z" stroke="#1D1D1B" stroke-miterlimit="10" stroke-linejoin="round"/><path d="M7.1 13.354c.348.722-.347 3.365 0 4.087.402.844 1.363.477 2.384.613m15.634-4.835c-.348.722.347 3.365 0 4.087-.402.845-1.363.477-2.385.613" stroke="#1D1D1B" stroke-miterlimit="10" stroke-linecap="round" stroke-linejoin="round"/></svg>