<svg width="34" height="32" fill="none" xmlns="http://www.w3.org/2000/svg"><path d="M30.52 28.999c.166 0 .293-.108.284-.235l-.687-5.5h-2.284l2.088 5.392c.079.206.324.343.598.343Zm-27.363 0c-.167 0-.294-.108-.284-.235l.686-5.5h2.284l-2.088 5.392c-.069.206-.324.343-.598.343Z" stroke="#1D1D1B" stroke-width=".889" stroke-miterlimit="10" stroke-linejoin="round"/><path d="M3.745 23.265h26.177a2.74 2.74 0 0 0 2.745-2.746V6.794a2.74 2.74 0 0 0-2.745-2.745H3.745A2.74 2.74 0 0 0 1 6.794v13.725a2.74 2.74 0 0 0 2.745 2.746ZM17.02 4v19.314" stroke="#1D1D1B" stroke-miterlimit="10" stroke-linejoin="round"/><path d="M14.127 21.353a.637.637 0 1 0 0-1.275.637.637 0 0 0 0 1.275Zm5.785 0a.637.637 0 1 0 0-1.275.637.637 0 0 0 0 1.275Z" fill="#1D1D1B"/></svg>