<svg width="32" height="32" fill="none" xmlns="http://www.w3.org/2000/svg"><path d="M25.417 24.932c.116 0 .222.065.274.169l.996 1.993a.306.306 0 0 1-.548.274l-.996-1.993a.306.306 0 0 1 .274-.443ZM6.31 25.1a.306.306 0 0 1 .547.275l-.996 1.993a.306.306 0 1 1-.548-.274l.996-1.993Zm1.112-1.722L2.527 11.957l-.46.197.46-.197C1.591 9.771 2.247 7.4 4.29 6.556 6.764 5.533 10.598 4.5 15.999 4.5c5.402 0 9.236 1.033 11.712 2.056 2.042.844 2.698 3.215 1.76 5.401l-4.894 11.42a1.903 1.903 0 0 1-1.75 1.155H9.172c-.762 0-1.45-.454-1.75-1.154Z" fill="#fff" stroke="#1D1D1B"/><path d="M31.418 16.566a1.903 1.903 0 0 0-1.823-2.45h-.575c-.769 0-1.462.461-1.758 1.17m4.156 1.28-4.617-1.472.462.193m4.155 1.279-1.65 5.498a4.308 4.308 0 0 1-4.125 3.07H6.357a4.307 4.307 0 0 1-4.126-3.07m29.187-5.498L2.231 22.064m25.032-6.777-2.235 5.362m2.235-5.362-2.235 5.362M2.231 22.064l-1.65-5.498m1.65 5.498-1.65-5.498m0 0a1.904 1.904 0 0 1 1.824-2.45m-1.823 2.45 1.823-2.45m0 0h.575m-.575 0h.575m0 0c.769 0 1.462.461 1.758 1.17m-1.758-1.17 1.758 1.17m0 0 2.234 5.363-2.234-5.362Zm3.25 6.04a1.1 1.1 0 0 1-1.016-.677l1.016.677Zm0 0h16.024m-16.024 0h16.024m0 0a1.1 1.1 0 0 0 1.016-.677m-1.016.677 1.016-.677" fill="#fff" stroke="#1D1D1B"/></svg>