<svg width="34" height="32" fill="none" xmlns="http://www.w3.org/2000/svg"><path d="M30.61 22.368c.15 0 .273-.088.255-.185l-.635-4.402h-2.1l1.924 4.313c.07.16.3.274.555.274Zm-19.08 0c-.149 0-.272-.088-.255-.185l.635-4.402h2.1l-1.923 4.313c-.071.16-.291.274-.556.274Z" stroke="#1D1D1B" stroke-miterlimit="10" stroke-linejoin="round"/><path d="M8.568 17.781 1 9.878a3.184 3.184 0 0 1 4.49.097l3.466 3.617a3.304 3.304 0 0 0 2.373 1.014h18.496c.873 0 1.667.353 2.249.926.573.573.926 1.367.926 2.25H8.568Z" stroke="#1D1D1B" stroke-miterlimit="10" stroke-linejoin="round"/><path d="M8.938 12.753a.53.53 0 0 1-.75-.035L5.692 9.984a.53.53 0 1 1 .785-.715l2.496 2.735a.539.539 0 0 1-.035.75Z" stroke="#1D1D1B" stroke-miterlimit="10" stroke-linejoin="round"/></svg>