<svg width="175" height="28" fill="none" xmlns="http://www.w3.org/2000/svg"><path d="M44.78 1.892c0-.94.746-1.682 1.69-1.682.946 0 1.692.742 1.692 1.682s-.746 1.683-1.691 1.683c-.896 0-1.691-.742-1.691-1.683Zm26.86 11.284c0-.94.746-1.683 1.691-1.683.945 0 1.692.742 1.692 1.683 0 .94-.747 1.682-1.692 1.682a1.705 1.705 0 0 1-1.69-1.682Zm-54.716-.743c-1.442 0-2.487-1.138-2.487-2.82 0-1.634.995-2.821 2.487-2.821 1.493 0 2.488 1.138 2.488 2.82 0 1.683-.995 2.821-2.488 2.821Zm0-8.116c-3.084 0-5.322 2.227-5.322 5.295 0 3.069 2.238 5.295 5.322 5.295s5.373-2.226 5.373-5.295c0-3.068-2.289-5.295-5.373-5.295ZM41.497 9.86c-.1-.248-.25-.397-.398-.545l-.1-.099.1-.099c.149-.148.298-.346.447-.544l2.736-4.058H40.95l-2.04 3.167c-.1.148-.348.247-.696.247h-.448V1.942c0-1.188-.746-1.337-1.542-1.337h-1.393V14.71h2.935v-4.256h.299c.348 0 .547.05.646.198l1.642 3.068c.447.841.895.99 1.74.99h2.239l-1.691-2.771-1.144-2.079Zm14.275-5.543c-1.492 0-2.437.644-2.984 1.238l-.2.197-.049-.247c-.149-.594-.696-.94-1.492-.94h-1.293v10.194h2.934v-4.701c0-.446.05-.842.2-1.237.348-1.09 1.243-1.782 2.387-1.782.895 0 1.244.495 1.244 1.732v4.454c0 1.039.497 1.534 1.541 1.534h1.393V8.276c0-2.622-1.293-3.959-3.68-3.959Zm-9.252.247h-1.392v10.194h2.934v-8.66c0-1.039-.497-1.534-1.542-1.534Zm-18.155 7.869c-1.442 0-2.487-1.138-2.487-2.82 0-1.634.995-2.821 2.487-2.821s2.487 1.138 2.487 2.82c.05 1.683-.995 2.821-2.487 2.821Zm0-8.116c-3.084 0-5.372 2.227-5.372 5.295 0 3.069 2.238 5.295 5.372 5.295 3.084 0 5.372-2.226 5.372-5.295 0-3.068-2.238-5.295-5.372-5.295Zm62.575 8.116c-1.443 0-2.487-1.138-2.487-2.82 0-1.634 1.044-2.821 2.487-2.821 1.492 0 2.487 1.138 2.487 2.82.05 1.683-.995 2.821-2.487 2.821Zm0-8.116c-3.084 0-5.372 2.227-5.372 5.295 0 3.069 2.238 5.295 5.372 5.295 3.084 0 5.372-2.226 5.372-5.295 0-3.068-2.239-5.295-5.372-5.295Zm-25.368 7.671c-1.592 0-2.19-1.386-2.19-2.673 0-.593.15-2.424 1.99-2.424.946 0 2.14.247 2.14 2.523.099 2.128-.995 2.574-1.94 2.574Zm3.531-7.473c-.547 0-.995.198-1.194.644l-.1.148-.148-.099c-.448-.396-1.294-.89-2.686-.89-2.736 0-4.577 2.028-4.577 5.096 0 3.02 1.89 5.147 4.626 5.147.945 0 1.642-.198 2.239-.643l.248-.149v.297c0 1.386-.895 2.128-2.487 2.128-.796 0-1.492-.198-1.94-.346-.596-.198-.994-.05-1.243.593l-.249.594-.348.841.199.1c1.045.544 2.338.84 3.581.84 2.487 0 5.373-1.286 5.373-4.849V4.614h-1.294m-63.072 7.67H3.643v-2.82c0-.594.25-.94.747-.99h1.64c1.144 0 1.89.742 1.89 1.88 0 1.237-.696 1.93-1.89 1.93Zm-2.388-7.62V3.92c0-.643.299-.94.896-.99h1.194c1.044 0 1.69.644 1.69 1.683 0 .792-.447 1.732-1.64 1.732h-2.14V4.663Zm5.422 2.82-.447-.247.398-.297c.447-.396 1.144-1.188 1.144-2.673 0-2.226-1.741-3.662-4.427-3.662H2.35C1.554.655.908 1.298.908 2.09v12.57h4.874c2.985 0 4.875-1.634 4.875-4.108.1-1.336-.547-2.474-1.592-3.068Zm100.329-3.117c-1.194 0-2.388.545-3.134 1.534l-.199.248-.149-.297c-.547-.99-1.493-1.485-2.786-1.485-1.343 0-2.288.742-2.686 1.188l-.298.297-.1-.396c-.149-.544-.646-.89-1.442-.89h-1.244V14.71h2.786v-4.504c0-.395.049-.791.149-1.187.249-1.089.995-2.227 2.238-2.128.746.05 1.144.643 1.144 1.781v6.038h2.786v-4.504c0-.494.05-.84.149-1.237.249-1.039.995-2.078 2.189-2.078.845 0 1.194.495 1.194 1.781v4.553c0 1.04.447 1.485 1.492 1.485h1.293V8.227c0-2.573-1.144-3.86-3.382-3.86Zm-25.418 6.829s-1.194 1.287-2.785 1.287c-1.443 0-2.886-.89-2.886-2.82 0-1.683 1.144-2.871 2.736-2.871.547 0 1.144.198 1.194.495v.05c.199.692.846.742.995.742h1.542V6.743c0-1.732-2.239-2.376-3.73-2.376-3.234 0-5.572 2.227-5.572 5.295s2.338 5.295 5.522 5.295c2.785 0 4.277-1.83 4.277-1.83l.1-.1-1.194-1.98-.199.15ZM13.23 22.537v.495h-1.343v3.91h-.547v-3.91H9.997v-.495h3.233Zm1.89.989h.3v.495h-.349c-.298 0-.547.1-.746.297a1.25 1.25 0 0 0-.249.792v1.83h-.547v-3.414h.398l.1.495c.248-.297.596-.495 1.094-.495Zm3.682.05h.447v3.414h-.447l-.05-.494a1.36 1.36 0 0 1-.597.445 2.004 2.004 0 0 1-.746.148c-.497 0-.945-.148-1.244-.494-.348-.347-.497-.743-.497-1.287 0-.544.15-.94.497-1.287.349-.346.747-.495 1.244-.495.298 0 .547.05.746.149.249.099.448.247.597.445l.05-.544Zm-2.288 2.573c.248.247.547.346.895.346s.647-.099.895-.346c.249-.247.349-.544.349-.89 0-.347-.1-.644-.349-.891-.248-.248-.547-.347-.895-.347s-.647.1-.895.347c-.25.247-.349.544-.349.89 0 .396.15.693.349.891Zm6.266-2.573h.548l-1.443 3.415h-.497l-1.492-3.415h.547l1.144 2.722 1.194-2.722Zm4.328 1.732v.198h-2.934c.05.297.149.594.398.742.198.198.497.297.795.297.25 0 .448-.05.647-.149a.973.973 0 0 0 .448-.445h.547c-.15.347-.348.643-.647.841a1.686 1.686 0 0 1-.995.297c-.497 0-.895-.148-1.243-.494-.348-.347-.497-.743-.497-1.287 0-.495.149-.94.497-1.287.348-.346.746-.495 1.243-.495.498 0 .945.149 1.244.495.298.347.497.742.497 1.287Zm-1.74-1.287c-.2 0-.398.05-.548.1-.149.098-.298.197-.398.346-.1.148-.199.346-.199.495h2.388c-.05-.198-.1-.396-.199-.545-.1-.148-.249-.247-.398-.346-.249-.05-.448-.05-.647-.05Zm2.536 2.969v-4.65h.547v4.652h-.547Zm1.642 0v-4.65h.547v4.652h-.547Zm4.824-1.682v.198h-2.934c.05.297.149.594.398.742.199.198.497.297.796.297.248 0 .447-.05.646-.149a.973.973 0 0 0 .448-.445h.547c-.15.347-.348.643-.647.841a1.686 1.686 0 0 1-.994.297c-.498 0-.896-.148-1.244-.494-.348-.347-.497-.743-.497-1.287 0-.495.149-.94.497-1.287.348-.346.746-.495 1.244-.495.497 0 .945.149 1.243.495.348.347.498.742.498 1.287Zm-1.74-1.287c-.2 0-.398.05-.547.1-.15.098-.299.197-.398.346-.1.148-.2.346-.2.495h2.388c-.05-.198-.1-.396-.199-.545-.1-.148-.248-.247-.398-.346-.248-.05-.447-.05-.646-.05Zm4.128-.495h.299v.495h-.349c-.298 0-.547.1-.746.297a1.256 1.256 0 0 0-.248.792v1.83h-.547v-3.414h.397l.1.495c.249-.297.597-.495 1.094-.495Zm5.024 3.464-.995-1.731h-.995v1.732h-.547v-4.454h1.691c.398 0 .746.149 1.045.396.298.247.398.594.398.99 0 .297-.1.594-.249.792a1.394 1.394 0 0 1-.696.494l1.044 1.782h-.696Zm-2.04-3.909v1.634h1.095a.948.948 0 0 0 .646-.248.818.818 0 0 0 .25-.594c0-.247-.1-.445-.25-.594a.948.948 0 0 0-.646-.247l-1.095.05Zm6.616 2.227v.198h-2.934c.05.297.149.594.398.742.198.198.497.297.795.297.25 0 .448-.05.647-.149a.973.973 0 0 0 .448-.445h.547c-.15.347-.348.643-.647.841a1.686 1.686 0 0 1-.995.297c-.497 0-.895-.148-1.243-.494-.348-.347-.498-.743-.498-1.287 0-.495.15-.94.498-1.287.348-.346.746-.495 1.243-.495.498 0 .946.149 1.244.495.348.347.497.742.497 1.287Zm-1.74-1.287c-.2 0-.399.05-.548.1-.149.098-.298.197-.398.346-.1.148-.199.346-.199.495h2.388c-.05-.198-.1-.396-.199-.545-.1-.148-.249-.247-.398-.346-.249-.05-.448-.05-.647-.05Zm4.874-.445h.547l-1.442 3.415h-.498l-1.492-3.415h.547l1.144 2.722 1.194-2.722Zm1.194-.593v-.594h.597v.594h-.597Zm.05 4.008v-3.415h.547v3.415h-.547Zm4.824-1.683v.198h-2.934c.05.297.149.594.398.742.199.198.497.297.796.297.248 0 .447-.05.646-.149a.973.973 0 0 0 .448-.445h.547c-.15.347-.348.643-.647.841a1.686 1.686 0 0 1-.994.297c-.498 0-.896-.148-1.244-.494-.348-.347-.497-.743-.497-1.287 0-.495.149-.94.497-1.287.348-.346.746-.495 1.244-.495.497 0 .945.149 1.243.495.348.347.497.742.497 1.287Zm-1.74-1.287c-.2 0-.398.05-.548.1-.149.098-.298.197-.398.346-.099.148-.199.346-.199.495h2.388c-.05-.198-.1-.396-.199-.545-.1-.148-.249-.247-.398-.346-.248-.05-.447-.05-.646-.05Zm6.715-.445h.547l-1.194 3.415h-.448l-.994-2.326-.946 2.326h-.447l-1.144-3.415h.547L57.3 26.1l1.045-2.474h.199L59.59 26.1l.945-2.524Zm5.77 3.414-.448-1.038h-2.14l-.447 1.039h-.597l1.84-4.454h.498l1.89 4.454h-.596Zm-1.543-3.661-.845 2.078h1.74l-.894-2.078Zm6.865.247h.547l-1.194 3.415h-.447l-.995-2.326-.945 2.326h-.448l-1.144-3.415h.547l.846 2.524 1.044-2.474h.2l1.044 2.474.945-2.524Zm4.079 0h.447v3.414h-.447l-.05-.494a1.36 1.36 0 0 1-.597.445 2.004 2.004 0 0 1-.746.148c-.497 0-.945-.148-1.244-.494-.348-.347-.497-.743-.497-1.287 0-.544.15-.94.497-1.287.349-.346.747-.495 1.244-.495.298 0 .547.05.746.149.249.099.448.247.597.445l.05-.544Zm-2.288 2.573c.248.247.547.346.895.346s.647-.099.895-.346c.249-.247.349-.544.349-.89 0-.347-.1-.644-.349-.891-.248-.248-.547-.347-.895-.347s-.647.1-.895.347c-.25.247-.349.544-.349.89 0 .396.15.693.349.891Zm5.372-2.623h.298v.495h-.348c-.298 0-.547.1-.746.297a1.25 1.25 0 0 0-.249.792v1.83h-.497v-3.414h.398l.1.495c.198-.297.596-.495 1.044-.495Zm3.581-1.187h.547v4.652h-.398l-.1-.495c-.347.396-.795.544-1.292.544-.498 0-.945-.148-1.294-.495-.348-.346-.497-.742-.497-1.287 0-.494.15-.94.497-1.286.349-.347.746-.495 1.294-.495.497 0 .945.148 1.243.495v-1.633Zm-2.139 3.86c.249.247.547.346.896.346.348 0 .646-.099.895-.346.249-.248.348-.545.348-.891s-.1-.643-.348-.89c-.249-.248-.547-.347-.895-.347-.2 0-.349.05-.498.099-.149.05-.298.148-.398.247-.1.1-.199.248-.248.396-.05.149-.1.347-.1.495 0 .346.1.643.348.89Zm4.875.841c-.249 0-.498-.05-.697-.149a1.261 1.261 0 0 1-.497-.395 1.057 1.057 0 0 1-.199-.594h.547c0 .198.1.346.249.445.15.099.348.148.597.148s.448-.049.597-.148a.45.45 0 0 0 .199-.396c0-.05 0-.099-.05-.148 0-.05-.05-.1-.1-.149-.05-.05-.099-.05-.149-.099-.05-.05-.1-.05-.199-.05-.1 0-.149-.049-.199-.049-.05 0-.149 0-.248-.05-.1 0-.2-.049-.25-.049-.049 0-.148-.05-.248-.05-.1-.049-.199-.049-.248-.098-.05-.05-.15-.05-.2-.1-.05-.049-.149-.098-.149-.148-.05-.049-.05-.148-.1-.197-.049-.05-.049-.198-.049-.297a.93.93 0 0 1 .1-.396c.05-.1.149-.248.248-.297.1-.1.249-.149.398-.198.15-.05.348-.05.547-.05.398 0 .697.1.945.297.25.198.349.446.349.792h-.498a.53.53 0 0 0-.1-.297c-.049-.099-.148-.148-.298-.198-.1-.05-.248-.05-.398-.05-.149 0-.298 0-.398.05-.099.05-.198.1-.248.198-.05.1-.1.149-.1.248 0 .05 0 .148.05.198.05.049.05.099.1.148.05.05.099.05.198.099.1.05.15.05.25.05.049 0 .148.049.248.049s.199.05.249.05c.05 0 .149.049.248.049.1.05.2.05.249.099.05.05.15.05.199.099.1.05.15.099.199.198.05.099.05.148.1.247.05.1.05.198.05.297 0 .297-.1.594-.349.792-.249 0-.547.099-.945.099Zm4.526-.545h1.791v.495H88.59v-.148c.647-.693 1.144-1.188 1.442-1.534.299-.347.498-.594.597-.792.1-.198.15-.346.15-.544 0-.1 0-.198-.05-.297-.05-.1-.1-.149-.15-.248a1.063 1.063 0 0 0-.248-.148c-.1-.05-.2-.05-.299-.05a.94.94 0 0 0-.398.1.599.599 0 0 0-.248.247.93.93 0 0 0-.1.395v.1h-.497v-.1c0-.247.05-.445.15-.643a.974.974 0 0 1 .447-.445c.199-.1.447-.149.696-.149.398 0 .697.1.945.347.249.247.348.495.348.89 0 .198-.05.396-.1.594a7.138 7.138 0 0 1-.447.743c-.348.247-.696.643-1.194 1.187Zm4.079.545a1.42 1.42 0 0 1-1.194-.593c-.298-.396-.447-.94-.447-1.584 0-.693.149-1.188.447-1.584a1.42 1.42 0 0 1 1.194-.593c.497 0 .895.198 1.194.593.298.396.447.94.447 1.584 0 .693-.149 1.188-.447 1.584a1.42 1.42 0 0 1-1.194.593Zm0-.495c.348 0 .597-.148.796-.445.199-.297.298-.693.298-1.237 0-.544-.1-.94-.298-1.237-.2-.297-.448-.446-.796-.446a.871.871 0 0 0-.597.198c-.15.149-.298.347-.398.594-.1.248-.149.544-.149.89 0 .545.1.941.298 1.238a.979.979 0 0 0 .846.445Zm3.233-.05h1.79v.495h-2.834v-.148c.646-.693 1.144-1.188 1.442-1.534.299-.347.498-.594.597-.792.1-.198.15-.346.15-.544 0-.1 0-.198-.05-.297-.05-.1-.1-.149-.15-.248a1.063 1.063 0 0 0-.248-.148c-.1-.05-.2-.05-.299-.05a.94.94 0 0 0-.398.1.598.598 0 0 0-.248.247.93.93 0 0 0-.1.395v.1H96.1v-.1c0-.247.05-.445.149-.643a.974.974 0 0 1 .448-.445c.198-.1.447-.149.696-.149.398 0 .696.1.945.347.249.247.348.495.348.89 0 .198-.05.396-.1.594a7.138 7.138 0 0 1-.447.743c-.348.247-.696.643-1.194 1.187Zm2.239-3.711h1.343v4.207h-.498V23.23h-.795l-.05-.446ZM138.02 0c2.366 0 4.291.726 5.774 2.221C145.278 3.674 146 5.596 146 7.903c0 2.179-.762 4.614-2.286 7.39L140.025 22h-5.855a114.92 114.92 0 0 0 2.046-3.631c.882-1.58 1.563-2.777 1.964-3.503-.441.085-.882.085-1.323.085-2.005 0-3.649-.64-4.932-1.965-1.283-1.281-1.925-2.99-1.925-5.083 0-1.538.321-2.905 1.003-4.144A7.186 7.186 0 0 1 133.85.94a9.426 9.426 0 0 1 4.17-.94Zm0 11.021c.882 0 1.564-.299 2.125-.854.562-.555.842-1.324.842-2.221 0-.598-.12-1.111-.36-1.58-.241-.47-.602-.813-1.043-1.069-.441-.256-.962-.384-1.524-.384-.882 0-1.564.299-2.125.854-.562.555-.802 1.282-.802 2.179 0 .94.281 1.666.802 2.221.521.555 1.243.854 2.085.854Zm28.366-3.659c2.552 0 4.649.685 6.244 2.012 1.595 1.326 2.37 3.038 2.37 5.178 0 2.183-.775 3.981-2.37 5.35-1.595 1.413-3.646 2.098-6.153 2.098-2.506 0-4.557-.685-6.107-2.097-1.595-1.37-2.37-3.168-2.37-5.35h5.834c0 .727.228 1.326.729 1.797.501.471 1.139.685 1.914.685.775 0 1.368-.257 1.869-.728.501-.47.729-1.07.729-1.797 0-.386-.091-.728-.228-1.07a2.2 2.2 0 0 0-.547-.813c-.228-.215-.547-.386-.911-.514-.365-.129-.729-.171-1.14-.171h-7.11l-.592-.728L159.823 0h13.582v4.922h-8.842l-.319 2.44h2.142ZM154 19h-3.469L149 27h3.031L154 19Z" fill="#36445E"/></svg>