<svg width="32" height="32" viewBox="0 0 32 32" fill="none" xmlns="http://www.w3.org/2000/svg">
<rect width="32" height="32" rx="3" fill="#36445E"/>
<path d="M20.9257 22.9096C19.9722 22.0904 20.273 21.5401 20.4713 21.2457C20.8745 20.625 21.3352 20.2538 22.6662 19.7354C22.7174 19.7162 22.7558 19.5306 22.807 19.4986C22.8966 19.441 23.6197 19.3323 23.6837 19.3259C23.7604 19.3131 23.9012 19.0507 24.1828 18.9419C24.3236 18.8843 24.4515 18.8459 24.7011 18.8011C24.8611 18.7691 25.1682 18.7435 25.2642 18.7115C25.6546 18.5131 25.9233 17.9052 25.8785 17.8604C25.8337 17.8028 25.6866 17.7708 25.629 17.7388C25.5394 17.694 24.9059 17.4444 24.6627 17.1948C24.4323 16.958 24.5347 16.8493 24.2404 16.6829C24.0548 16.5869 23.5237 16.3437 23.3829 16.2989C23.2293 16.2413 23.1973 16.0493 23.1141 15.8317C23.1141 15.8317 22.9414 15.6014 22.5958 15.8125C22.3271 15.9789 22.5062 16.2285 22.423 16.2605C22.3719 16.2733 22.1735 16.2413 21.9559 16.2477C21.348 16.2605 20.9577 16.4205 20.3434 16.4205C20.113 16.4205 19.8698 16.3885 19.6395 16.3565C19.4539 16.3373 18.7436 16.1837 18.5772 16.1709C18.2061 16.1389 17.291 16.4973 17.1886 16.5101C16.3951 16.6061 14.2003 15.9341 12.7093 15.9789C11.2503 16.0237 9.29858 18.1675 9.1386 19.0571C9.09381 19.2747 9.07461 19.5114 9.1514 19.5882C9.20259 19.633 9.65052 19.5434 9.75931 20.0042C9.7913 20.1322 10.2008 19.9914 10.5272 20.3946C10.5784 20.4714 10.7896 20.7977 10.9815 20.8169C11.1543 20.8361 11.2823 20.9129 11.3271 21.0665C11.3271 21.0665 11.2951 21.4569 10.9367 21.6553C10.828 21.7193 10.3864 21.7001 10.0793 21.9368C10.0281 21.9816 9.8489 22.1096 9.8169 22.1224C9.36257 22.2312 8.94023 22.6856 8.78665 23.0248C8.75466 23.0888 8.69707 23.4919 8.69707 23.9911C8.85064 24.3623 9.45215 24.9382 9.59293 24.9574C9.99607 24.9766 9.96408 24.9702 10.3864 24.9446C10.54 24.9318 10.476 24.5734 10.1497 24.5222C10.0537 24.5094 9.99607 24.3495 10.0537 24.2471C10.1944 24.0167 10.444 23.4983 11.2247 23.0376L11.807 22.852C12.4213 23.9079 13.074 24.887 13.1188 24.8998C13.1956 24.919 14.1043 24.9574 14.853 24.919C14.853 24.5798 14.5586 24.3879 14.245 24.3111C14.1235 24.2791 14.0531 23.9079 14.1171 23.2679C14.1619 22.8456 14.2706 22.5704 14.4114 22.1224C15.2049 22.0456 15.6016 22.1032 15.5889 22.1672C15.4289 22.948 15.4481 23.4279 15.5441 23.9527C15.9344 24.0743 16.0304 24.919 16.088 24.9446C16.2096 24.9894 17.547 25.0022 17.7645 24.9766C17.8157 24.8486 17.6557 24.4518 17.0094 24.3751C16.8559 24.1895 17.6174 22.7304 17.9949 22.4296C18.0717 22.34 18.1485 22.2568 18.2253 22.18C18.3468 22.0584 18.462 21.9432 18.5964 21.8409C18.8588 21.6233 19.1403 21.4377 19.4411 21.3161L19.4539 21.3353C19.1595 21.4889 18.91 21.7065 18.6988 21.9368C18.59 22.0584 18.4812 22.1736 18.3852 22.308C18.3212 22.3976 18.2573 22.4808 18.1933 22.5704C18.5964 23.5623 19.0827 23.1336 19.7418 23.5175C19.8826 23.3639 20.1834 23.4599 20.2858 23.6391C20.0234 23.8759 20.5673 24.6502 21.1496 24.4326C21.3416 24.3431 20.9321 23.9975 21.1944 23.4407C21.2008 23.2807 21.0664 23.0376 20.9257 22.9096ZM23.7221 17.214C23.7732 17.1692 23.882 17.1244 23.9396 17.1692C23.9844 17.2012 23.9524 17.406 23.8436 17.3996C23.5941 17.3612 23.6773 17.2524 23.7221 17.214Z" fill="white"/>
<path d="M2.72674 22.1352C2.72674 22.2568 2.75874 22.4936 2.82273 22.7112C2.89952 22.9608 2.96351 23.2871 3.0147 23.7351C3.0595 24.0615 2.93791 24.5414 3.06589 24.951H4.08335C4.06415 24.8294 3.98736 24.7526 3.81458 24.6886C3.84658 24.4518 3.98736 24.0871 4.09614 23.9271C4.25612 23.6647 4.78084 23.2167 5.0944 23.2167C5.34396 23.2167 5.81109 23.2167 6.23343 23.1272C6.4382 23.0824 6.95652 22.8968 7.31487 23.5943C7.53244 24.0295 7.87799 24.5094 8.03156 24.9446H8.94023C8.95303 24.8166 8.75466 24.6694 8.56909 24.6182C8.4731 24.2919 8.30672 23.076 8.53709 22.8136C8.88264 22.4104 9.22819 22.02 9.8489 21.8793C9.90009 21.8665 10.0345 21.7065 10.2904 21.6425C10.54 21.5849 10.8216 21.5529 10.8983 21.5145C10.9879 21.4697 11.1671 21.2201 11.1607 21.0921C11.1479 21.0281 10.9687 20.9705 10.8599 20.9385C10.5144 20.8169 10.5016 20.6122 10.3416 20.4266C10.2008 20.273 9.87449 20.241 9.65053 20.209C9.46495 20.0042 9.55454 19.8698 9.29218 19.7866C9.26018 19.7738 9.22819 19.7738 9.20259 19.7738C8.94023 19.7738 8.74826 20.0234 8.82505 20.2538C8.4923 20.2858 8.16594 20.4266 7.98037 20.4266H7.96757C7.65402 20.4266 7.52604 20.273 7.26368 20.273C7.24448 20.273 7.21888 20.273 7.19969 20.273C6.93733 20.2922 6.73255 20.4138 6.4446 20.4138C6.3934 20.4138 6.33581 20.4138 6.27182 20.401C5.68951 20.3114 4.75525 20.1258 4.58247 20.1642C4.24972 20.209 3.56502 20.5994 3.30266 20.8489C3.14268 21.0153 2.54757 21.5593 2.52198 21.8473C2.48998 21.9816 2.53477 22.1224 2.72674 22.1352ZM10.0473 20.6569C10.0473 20.6569 10.0793 20.6442 10.1241 20.6442C10.156 20.6442 10.188 20.6442 10.2328 20.6633C10.252 20.6761 10.2648 20.7529 10.2328 20.7721C10.2136 20.7913 10.1816 20.8169 10.1369 20.8169C10.1049 20.8169 10.0729 20.8041 10.0473 20.7721C10.0025 20.7209 10.0473 20.6569 10.0473 20.6569Z" fill="white"/>
<path d="M4.51208 23.7863C4.62087 24.0167 5.02401 24.7206 5.0944 24.951H5.91987C5.90068 24.8294 5.82389 24.7334 5.63832 24.6566C5.40155 24.1447 5.40795 23.6455 5.57433 23.3639C5.056 23.3127 4.60167 23.4407 4.51208 23.7863Z" fill="white"/>
<path d="M6.18224 23.2999C5.93267 23.6583 5.91987 24.727 6.00946 24.951H6.88613C6.86693 24.8294 6.79655 24.7334 6.62377 24.6566C6.68776 24.2215 6.89253 23.8951 7.05891 23.6135C6.87333 23.1911 6.49579 23.1911 6.18224 23.2999Z" fill="white"/>
<path d="M29.5004 15.7485C27.843 14.4622 22.6918 10.7569 21.7192 10.0594C21.2776 9.74582 19.2043 8.47232 18.7884 8.16514C17.8221 7.442 16.5231 6.73806 15.4801 7.09643C14.4946 7.4228 13.4452 9.27225 7.95477 12.1648C7.59643 12.3504 7.0973 11.6017 5.87508 12.536C5.35676 12.9392 3.55862 14.9294 2.13163 15.4094C1.88207 15.6142 2.03565 15.7037 2.19562 15.6142C3.57142 15.115 5.60632 12.7856 6.88613 12.2864C7.00771 12.2416 7.51324 12.2992 7.48124 13.0032C7.43645 13.7455 10.2968 14.2447 9.89369 13.7775C8.92743 12.6576 8.37711 12.472 8.65867 12.2416C8.70986 12.152 10.9879 10.8465 15.1537 7.59559C15.5249 7.31401 16.0112 7.78117 16.5167 8.21634C17.4126 8.97788 15.5953 10.3154 16.3311 10.8273C20.0042 13.3871 23.6197 11.3393 25.6738 14.5262C26.1409 15.0894 28.3998 16.1133 29.7564 15.9725L29.5004 15.7485Z" fill="white"/>
<path d="M28.131 24.5862C28.0222 24.1831 27.9774 23.2231 28.1182 23.044C28.227 22.8392 28.3998 22.6856 28.5085 22.3912C28.6173 22.0776 28.4126 21.8345 29.2764 21.0665C29.366 20.9897 29.3404 20.7849 29.8524 20.4906C29.9611 20.401 30.0379 20.0554 29.9803 19.9466C29.9483 19.8954 29.8204 19.9338 29.7116 19.9338C29.366 19.9466 29.2892 19.921 29.0717 19.825C28.8989 19.7354 28.6045 19.825 28.387 19.8826C28.1694 19.6778 28.0542 19.5434 27.8238 19.6522C27.5935 19.761 27.5551 20.0362 27.7151 20.1834C27.6831 20.1962 27.3887 20.3818 27.2031 20.5098C27.0944 20.5418 26.6208 20.3882 26.2305 20.5994C25.9617 20.7401 25.0595 20.3946 24.5731 20.4586C24.2724 20.5034 23.1333 20.7401 22.743 21.9049C22.7238 21.9816 22.6982 22.2504 22.743 22.3592C22.7878 22.4488 22.903 22.372 22.9286 22.436C23.0502 22.98 23.0182 23.2935 22.9286 23.6967C22.839 24.0359 22.6598 24.4454 22.6982 24.6438C22.6982 24.6438 23.4213 24.951 23.7029 24.919C23.754 24.7974 23.4853 24.5478 23.4085 24.471C23.4533 24.3623 23.7988 23.8951 23.8436 23.8503C23.6709 23.5559 23.6517 23.3511 23.6581 23.2871C23.9396 23.7351 24.3172 24.2535 24.6435 24.9318C24.6435 24.9318 25.5074 24.919 25.565 24.9126C25.533 24.6182 25.2066 24.6502 25.1298 24.567C25.0659 24.4262 25.0978 23.7479 25.1426 23.4663C25.2514 23.14 25.629 23.076 25.6738 23.0632C25.8913 22.6472 25.6098 22.4872 25.6418 22.4104C25.6546 22.3784 25.8273 22.4872 25.8913 22.7496C25.9361 22.9224 25.8785 23.2487 25.8273 23.3511C25.6994 23.7095 25.9361 23.8503 26.0321 24.3303C25.9233 24.567 25.9233 24.9958 26.0961 24.9318C26.2241 24.855 26.5056 24.6822 26.5184 24.4326C26.5376 24.1383 26.64 23.5175 26.9728 23.2487C27.1136 23.14 27.2671 23.0952 27.4399 23.012C27.6127 22.916 27.4207 23.14 27.2863 23.2167C27.1264 23.3127 27.056 23.4471 27.1008 23.5303C27.2287 23.7927 27.3183 24.2599 27.6319 24.8998L28.4894 24.9126C28.419 24.7782 28.3102 24.6502 28.131 24.5862ZM28.8349 20.049C28.8349 20.049 28.8989 19.9914 28.9949 19.9914C29.0269 19.9914 29.0461 20.0554 29.0397 20.081C29.0205 20.1258 28.9629 20.177 28.8797 20.1386C28.8221 20.113 28.8349 20.049 28.8349 20.049Z" fill="white"/>
</svg>
