<svg width="190" height="114" fill="none" xmlns="http://www.w3.org/2000/svg"><path d="M112.876 57.72c-3.459-2.971-2.368-4.968-1.648-6.036 1.463-2.252 3.134-3.599 7.963-5.48.186-.069.325-.742.511-.858.325-.21 2.948-.604 3.18-.627.279-.047.79-.999 1.811-1.393.511-.21.975-.349 1.881-.511.58-.116 1.695-.21 2.043-.325 1.416-.72 2.391-2.926 2.229-3.088-.163-.21-.697-.325-.906-.441-.325-.163-2.623-1.068-3.506-1.974-.835-.859-.464-1.254-1.532-1.857-.673-.348-2.6-1.23-3.111-1.393-.557-.21-.673-.906-.975-1.695 0 0-.627-.836-1.88-.07-.975.604-.325 1.51-.627 1.625-.186.047-.906-.07-1.695-.046-2.205.046-3.622.627-5.85.627-.836 0-1.718-.116-2.554-.232-.673-.07-3.25-.627-3.854-.674-1.346-.116-4.666 1.184-5.038 1.23-2.879.35-10.842-2.089-16.251-1.926-5.293.162-12.374 7.94-12.955 11.167-.162.79-.232 1.649.047 1.928.186.162 1.81-.163 2.205 1.509.116.464 1.602-.047 2.786 1.416.186.279.952 1.463 1.649 1.532.626.07 1.09.349 1.253.906 0 0-.116 1.416-1.416 2.136-.395.232-1.996.162-3.11 1.021-.187.163-.837.627-.953.674-1.648.395-3.18 2.043-3.737 3.273-.117.233-.326 1.695-.326 3.506.558 1.347 2.74 3.437 3.25 3.506 1.463.07 1.347.047 2.88-.046.557-.047.325-1.347-.86-1.533-.348-.046-.557-.627-.348-.998.511-.836 1.416-2.716 4.249-4.388l2.112-.673c2.23 3.83 4.597 7.383 4.76 7.43.278.069 3.575.208 6.291.069 0-1.23-1.068-1.927-2.205-2.206-.441-.116-.697-1.462-.465-3.784.163-1.533.558-2.531 1.068-4.156 2.88-.279 4.319-.07 4.272.162-.58 2.833-.51 4.574-.162 6.478 1.416.441 1.764 3.506 1.973 3.599.441.162 5.293.209 6.083.116.185-.465-.395-1.904-2.74-2.183-.557-.673 2.206-5.967 3.575-7.058.279-.325.558-.627.836-.905.441-.441.859-.86 1.347-1.23.952-.79 1.973-1.464 3.064-1.905l.047.07c-1.068.557-1.974 1.347-2.74 2.182-.395.442-.789.86-1.137 1.347-.233.325-.465.627-.697.952 1.463 3.599 3.227 2.043 5.618 3.436.511-.557 1.602-.209 1.974.441-.952.86 1.021 3.669 3.134 2.88.696-.326-.789-1.58.162-3.6.024-.58-.464-1.462-.975-1.926Zm10.146-20.663c.185-.163.58-.325.789-.163.163.116.047.86-.348.836-.906-.14-.604-.534-.441-.673Z" fill="#fff"/><path d="M46.85 54.911c0 .441.116 1.3.348 2.09.279.905.51 2.09.697 3.715.162 1.184-.279 2.925.185 4.411h3.692c-.07-.441-.349-.72-.975-.952.116-.859.627-2.182 1.021-2.763.58-.952 2.484-2.577 3.622-2.577.905 0 2.6 0 4.132-.325.743-.163 2.624-.836 3.924 1.695.79 1.579 2.043 3.32 2.6 4.899h3.297c.046-.465-.674-.999-1.347-1.184-.348-1.184-.952-5.596-.116-6.548 1.254-1.462 2.507-2.879 4.76-3.39.185-.046.673-.626 1.601-.858.906-.21 1.927-.326 2.206-.465.325-.162.975-1.068.952-1.532-.047-.232-.697-.441-1.091-.558-1.254-.44-1.3-1.184-1.881-1.857-.51-.557-1.695-.673-2.507-.79-.674-.742-.349-1.23-1.3-1.532-.117-.046-.233-.046-.325-.046-.952 0-1.649.905-1.37 1.741-1.207.116-2.391.627-3.065.627h-.046c-1.138 0-1.602-.557-2.554-.557h-.232c-.952.07-1.695.51-2.74.51-.185 0-.394 0-.626-.046-2.113-.325-5.503-.998-6.13-.859-1.207.163-3.69 1.579-4.643 2.485-.58.603-2.74 2.577-2.832 3.621-.116.488.047.999.743 1.045Zm26.56-5.363s.115-.047.278-.047c.116 0 .232 0 .394.07.07.047.116.325 0 .395a.495.495 0 0 1-.348.162.406.406 0 0 1-.325-.162c-.162-.186 0-.418 0-.418Z" fill="#fff"/><path d="M53.327 60.901c.395.836 1.858 3.39 2.113 4.226h2.995c-.07-.441-.349-.79-1.022-1.068-.859-1.857-.835-3.668-.232-4.69-1.88-.186-3.529.279-3.854 1.532Zm6.06-1.764c-.906 1.3-.952 5.177-.627 5.99h3.18c-.07-.441-.325-.79-.951-1.068.232-1.579.975-2.763 1.578-3.784-.673-1.533-2.043-1.533-3.18-1.138Zm84.599-27.397c-6.013-4.667-24.702-18.11-28.231-20.64-1.602-1.138-9.124-5.758-10.633-6.873C101.617 1.604 96.904-.95 93.12.35c-3.576 1.184-7.383 7.894-27.303 18.388-1.3.674-3.11-2.043-7.545 1.347-1.88 1.462-8.404 8.683-13.581 10.424-.906.744-.348 1.069.232.744 4.991-1.811 12.374-10.263 17.017-12.074.442-.162 2.276.047 2.16 2.6-.163 2.694 10.215 4.505 8.752 2.81-3.506-4.063-5.502-4.736-4.48-5.572.185-.325 8.45-5.062 23.564-16.856 1.346-1.022 3.11.673 4.944 2.252 3.251 2.763-3.343 7.615-.673 9.473 13.326 9.287 26.443 1.857 33.896 13.42 1.694 2.043 9.89 5.757 14.811 5.247l-.928-.813Zm-4.968 32.063c-.395-1.462-.558-4.945-.047-5.595.395-.743 1.022-1.3 1.416-2.368.395-1.138-.348-2.02 2.786-4.806.325-.279.232-1.022 2.09-2.09.394-.325.673-1.579.464-1.973-.116-.186-.58-.047-.975-.047-1.254.047-1.532-.046-2.322-.394-.626-.325-1.694 0-2.484.209-.789-.743-1.207-1.23-2.043-.836-.836.395-.975 1.393-.394 1.927-.117.046-1.184.72-1.858 1.184-.394.116-2.112-.441-3.529.325-.975.51-4.248-.743-6.013-.51-1.091.162-5.223 1.02-6.639 5.246-.07.279-.163 1.254 0 1.649.162.325.58.046.673.278.441 1.974.325 3.112 0 4.574-.325 1.23-.975 2.717-.836 3.437 0 0 2.624 1.114 3.645.998.186-.441-.789-1.347-1.068-1.625.163-.395 1.416-2.09 1.579-2.253-.627-1.068-.697-1.81-.673-2.043 1.021 1.626 2.391 3.506 3.575 5.967 0 0 3.134-.046 3.343-.07-.116-1.067-1.3-.951-1.579-1.253-.232-.51-.116-2.972.047-3.994.394-1.184 1.764-1.416 1.927-1.462.789-1.51-.233-2.09-.116-2.368.046-.116.673.278.905 1.23.162.627-.046 1.811-.232 2.183-.465 1.3.394 1.81.743 3.552-.395.859-.395 2.415.232 2.182.464-.278 1.486-.905 1.532-1.81.07-1.069.441-3.32 1.648-4.296.511-.395 1.068-.557 1.695-.859.627-.348-.069.464-.557.743-.58.348-.836.836-.673 1.138.464.952.789 2.647 1.927 4.968l3.111.047c-.256-.488-.65-.952-1.3-1.184Zm2.553-16.46s.233-.21.581-.21c.116 0 .185.232.162.325a.412.412 0 0 1-.58.21c-.209-.094-.163-.326-.163-.326ZM33.245 106.779v3.065h4.04v.72h-4.04v3.32h-.835v-7.824h5.363v.719h-4.528Zm10.795 5.015h-4.364l-.928 2.09h-.86l3.576-7.824h.812l3.576 7.824h-.883l-.928-2.09Zm-.301-.673-1.88-4.202-1.881 4.202h3.761Zm11.538-5.061v7.824h-.789v-6.269l-3.065 5.271h-.394l-3.065-5.224v6.222h-.789v-7.824h.673l3.39 5.804 3.366-5.804h.673Zm2.531 0h.836v7.824h-.836v-7.824Zm3.389 0h.836v7.104h4.365v.72h-5.2v-7.824Zm8.428 5.131v2.693h-.813v-2.693l-3.134-5.108h.882l2.693 4.388 2.694-4.388h.835l-3.157 5.108Zm12.675 2.693-1.787-2.508c-.209.024-.418.024-.627.024h-2.112v2.484h-.836v-7.824h2.925c.998 0 1.788.232 2.345.719.557.488.859 1.138.859 1.974 0 .603-.163 1.137-.464 1.555-.302.418-.743.72-1.324.906l1.904 2.693h-.882v-.023Zm-.65-3.692c.419-.348.604-.812.604-1.439s-.209-1.115-.603-1.463c-.418-.348-.998-.511-1.788-.511h-2.09v3.924h2.09c.79 0 1.37-.186 1.788-.511Zm8.916 2.972v.72H85.04v-7.824h5.363v.719h-4.527v2.786h4.04v.697h-4.04v2.902h4.69Zm2.437.511c-.534-.186-.951-.441-1.23-.743l.325-.627c.279.279.65.511 1.138.697.464.185.951.255 1.462.255.697 0 1.23-.139 1.579-.395.348-.255.534-.58.534-.998 0-.302-.093-.557-.279-.743a2.098 2.098 0 0 0-.696-.441c-.279-.093-.65-.209-1.161-.325a10.503 10.503 0 0 1-1.416-.441 2.462 2.462 0 0 1-.906-.627c-.255-.279-.371-.673-.371-1.161 0-.395.093-.743.302-1.068.209-.325.534-.581.952-.766a4.1 4.1 0 0 1 1.602-.302c.44 0 .882.07 1.323.186.418.116.79.301 1.114.51l-.278.651a4.287 4.287 0 0 0-1.045-.488 3.664 3.664 0 0 0-1.091-.163c-.697 0-1.208.14-1.556.395-.348.256-.51.604-.51 1.022 0 .302.092.557.278.743.186.185.418.325.72.441a13.9 13.9 0 0 0 1.16.325c.581.139 1.045.278 1.394.418.348.139.65.348.905.627.255.278.371.65.371 1.137 0 .395-.116.743-.325 1.068-.209.325-.534.581-.975.767-.44.185-.975.278-1.625.278a4.103 4.103 0 0 1-1.695-.232Zm7.708-.232a3.959 3.959 0 0 1-1.486-1.416 4.003 4.003 0 0 1-.534-2.044c0-.766.186-1.439.534-2.043a3.648 3.648 0 0 1 1.486-1.416c.627-.348 1.323-.511 2.113-.511.766 0 1.462.163 2.089.511a3.733 3.733 0 0 1 1.463 1.416c.348.604.534 1.277.534 2.043 0 .767-.186 1.44-.534 2.044a3.583 3.583 0 0 1-1.463 1.416c-.627.348-1.323.511-2.089.511a4.51 4.51 0 0 1-2.113-.511Zm3.784-.65a3.332 3.332 0 0 0 1.184-1.161 3.282 3.282 0 0 0 .418-1.649c0-.603-.139-1.161-.418-1.648a2.993 2.993 0 0 0-1.184-1.161c-.487-.279-1.068-.418-1.671-.418-.604 0-1.184.139-1.672.418a2.997 2.997 0 0 0-1.184 1.161 3.298 3.298 0 0 0-.44 1.648c0 .604.138 1.161.44 1.649.279.487.673.882 1.184 1.161a3.442 3.442 0 0 0 1.672.418c.603 0 1.161-.14 1.671-.418Zm9.612 1.091-1.788-2.508c-.209.024-.418.024-.627.024h-2.112v2.484h-.836v-7.824h2.925c.998 0 1.788.232 2.345.719.557.488.859 1.138.859 1.974 0 .603-.163 1.137-.464 1.555-.302.418-.743.72-1.324.906l1.904 2.693h-.882v-.023Zm-.65-3.692c.418-.348.603-.812.603-1.439s-.209-1.115-.603-1.463c-.418-.348-.999-.511-1.788-.511h-2.089v3.924h2.089c.766 0 1.37-.186 1.788-.511Zm4.782-3.413H115.5v-.719h6.315v.719h-2.74v7.105h-.836v-7.105ZM131.658 114l-1.091-1.114c-.673.696-1.532 1.068-2.623 1.068-.511 0-.952-.093-1.347-.256-.395-.162-.72-.395-.929-.696-.232-.302-.325-.65-.325-1.045 0-.464.14-.882.441-1.254.302-.371.813-.766 1.509-1.184-.371-.395-.626-.72-.766-.998a1.884 1.884 0 0 1-.209-.859c0-.488.186-.906.534-1.208.349-.302.836-.464 1.44-.464.557 0 .998.139 1.323.418.325.278.488.65.488 1.138 0 .394-.14.742-.395 1.044-.255.302-.72.65-1.347 1.022l2.136 2.206c.232-.418.418-.929.534-1.51l.65.209c-.139.697-.371 1.301-.696 1.788l1.114 1.161-.441.534Zm-1.532-1.602-2.368-2.415c-.627.349-1.045.674-1.277.952a1.463 1.463 0 0 0-.348.952c0 .418.162.766.51 1.022.349.255.813.394 1.37.394.859-.023 1.556-.301 2.113-.905Zm-2.74-5.503c-.209.186-.325.442-.325.767 0 .232.07.441.186.65.116.209.348.487.697.859.557-.325.951-.604 1.184-.836.209-.232.325-.488.325-.766 0-.302-.093-.534-.302-.72-.209-.186-.488-.255-.836-.255-.395 0-.696.092-.929.301Zm9.565 6.78c-.534-.186-.952-.441-1.23-.743l.325-.627c.279.279.65.511 1.138.697.487.185.951.255 1.462.255.697 0 1.231-.139 1.579-.395.348-.255.534-.58.534-.998 0-.302-.093-.557-.279-.743a2.106 2.106 0 0 0-.696-.441c-.279-.093-.65-.209-1.161-.325a10.508 10.508 0 0 1-1.416-.441 2.463 2.463 0 0 1-.906-.627c-.255-.279-.371-.673-.371-1.161 0-.395.093-.743.302-1.068.209-.325.534-.581.952-.766a4.098 4.098 0 0 1 1.601-.302c.442 0 .883.07 1.324.186.418.116.789.301 1.114.51l-.278.651a4.311 4.311 0 0 0-1.045-.488 3.666 3.666 0 0 0-1.091-.163c-.697 0-1.208.14-1.556.395a1.206 1.206 0 0 0-.511 1.022c0 .302.093.557.279.743.186.185.418.325.72.441.278.093.673.209 1.161.325.58.139 1.044.278 1.392.418.349.139.651.348.906.627.255.278.371.65.371 1.137 0 .395-.116.743-.325 1.068-.209.325-.534.581-.975.767-.441.185-.975.278-1.625.278a4.106 4.106 0 0 1-1.695-.232Zm11.678-6.896c.557.488.859 1.138.859 1.974 0 .836-.279 1.486-.859 1.95-.557.464-1.347.72-2.345.72h-2.112v2.461h-.836v-7.824h2.925c.998 0 1.788.232 2.368.719Zm-.604 3.39c.418-.348.604-.813.604-1.439 0-.627-.209-1.115-.604-1.463-.417-.348-.998-.511-1.787-.511h-2.09v3.901h2.09c.789.023 1.37-.14 1.787-.488Zm7.755 1.625h-4.365l-.929 2.09h-.859l3.576-7.824h.812l3.575 7.824h-.882l-.928-2.09Zm-.302-.673-1.881-4.202-1.88 4.202h3.761ZM15.23 79.963c-.58 0-1.44.046-1.765.046-.232 0-1.068-.046-1.996-.046-.372 0-.534.046-.534.163 0 .116.139.185.325.185.232 0 .534.023.743.093.162.07.255.116.255.325 0 .14-.093.418-.162.65-.442 1.184-2.856 7.012-3.645 8.893h-.07l-3.157-8.103c-.256-.627-.418-1.138-.418-1.37 0-.163.07-.279.185-.372.14-.116.418-.116.72-.116.163 0 .302-.07.302-.186 0-.139-.209-.162-.441-.162-.929 0-1.904.046-2.391.046-.65 0-1.718-.046-2.717-.046-.278 0-.464.023-.464.163 0 .116.046.185.209.185.14 0 .441 0 .72.07.673.162.952.348 1.37 1.347L7.01 92.779c.372.86.511 1.091.766 1.091.256 0 .418-.278.883-1.323.417-.906 1.3-2.879 2.484-5.526 1.021-2.206 1.509-3.18 2.252-4.899.487-1.137.743-1.416.975-1.602.325-.232.72-.209.905-.209.186 0 .302-.07.302-.186.046-.139-.116-.162-.348-.162Zm10.006 11.075c-.116.743-.348 1.114-.813 1.346-.487.21-1.277.233-1.764.233-1.904 0-2.484-.279-2.53-1.51-.024-.534 0-2.066 0-2.67v-1.44c0-.115.022-.185.115-.185.465 0 2.6.047 2.926.093.696.07.928.348 1.044.697.047.232.047.464.07.65 0 .093.046.139.163.139.162 0 .185-.255.185-.395 0-.139.047-.859.093-1.207.116-.906.14-1.207.14-1.323 0-.116-.07-.186-.14-.186-.093 0-.14.116-.302.232-.185.162-.44.232-.882.279-.418.046-2.855.046-3.273.046-.117 0-.14-.093-.14-.186v-4.457c0-.117.047-.163.14-.163.371 0 2.623.046 2.925.093.928.093 1.091.348 1.23.65.116.209.116.534.116.65 0 .14.024.232.14.232.139 0 .185-.209.209-.302.046-.209.092-.998.116-1.184.046-.835.139-1.044.139-1.16 0-.093-.023-.163-.14-.163-.092 0-.185.07-.301.093-.14.023-.441.093-.79.116-.37.023-4.503 0-5.107 0-.534 0-1.718-.047-2.693-.047-.279 0-.418.047-.418.163s.116.186.325.186c.279 0 .604.023.743.07.604.162.766.37.813.975.023.58.023 1.09.023 3.83v3.181c0 1.649 0 3.088-.093 3.854-.07.534-.163.883-.557.952-.163.047-.372.07-.65.07-.232 0-.302.116-.302.186 0 .116.116.185.371.185.395 0 .86-.023 1.3-.046.441 0 .86-.023 1.068-.023.558 0 1.254.023 2.16.046.905.047 2.042.07 3.435.07.697 0 .883 0 .999-.465.116-.371.255-1.602.255-1.996 0-.186-.023-.418-.162-.418-.093-.047-.14.023-.186.209Zm8.474-11.075c-1.138 0-2.461.046-3.042.046-.534 0-1.718-.046-2.693-.046-.278 0-.418.046-.418.163 0 .116.117.185.326.185.278 0 .603.023.742.07.604.162.767.371.813.975.023.58.023 1.091.023 3.831v3.18c0 1.65 0 3.089-.093 3.855-.07.534-.162.882-.557.952-.162.046-.371.07-.65.07-.232 0-.302.116-.302.185 0 .116.116.186.372.186.394 0 .859-.023 1.3-.046.44 0 .859-.024 1.068-.024.464 0 1.137.047 1.88.116.743.047 1.556.117 2.229.117 3.436 0 5.41-1.278 6.268-2.137 1.068-1.044 2.043-2.762 2.043-5.038 0-2.136-.835-3.645-1.764-4.597-2.043-2.043-5.2-2.043-7.545-2.043Zm5.038 11.632c-1.138.929-2.392 1.23-4.087 1.23-1.462 0-2.205-.37-2.437-.72-.14-.185-.186-.835-.21-1.276-.022-.372-.046-1.741-.046-3.645v-2.276c0-1.416 0-2.902.024-3.529 0-.209.07-.302.232-.371.14-.093.766-.116 1.137-.116 1.463 0 3.506.185 5.224 1.718.836.72 1.741 2.206 1.741 4.504 0 1.88-.371 3.483-1.578 4.481Zm24.516 1.695c-.233 0-.534-.023-1.068-.163-.58-.162-.743-.65-.906-1.787l-1.694-11.122c-.07-.371-.279-.58-.418-.58-.163 0-.349.14-.488.441l-5.014 10.123-5.015-9.984c-.256-.487-.372-.58-.58-.58-.14 0-.326.162-.372.464l-1.857 11.702c-.093.604-.256 1.323-.766 1.37-.302.046-.418.046-.58.046-.187 0-.303.093-.303.163 0 .162.14.209.349.209.603 0 1.485-.07 1.857-.07.348 0 1.184.07 1.973.07.279 0 .441-.047.441-.21 0-.092-.116-.162-.301-.162-.163 0-.349-.023-.65-.093-.326-.07-.58-.185-.58-.534 0-.302.022-.534.069-.859l.882-6.965h.07c.626 1.254 1.718 3.436 1.88 3.784.209.511 1.695 3.274 2.136 4.11.302.557.51.906.743.906.209 0 .325-.163.743-1.022l4.016-7.987h.07l1.044 7.801c.07.511.024.72-.092.766-.116.047-.21.117-.21.186 0 .116.117.186.558.21.743.046 3.39.115 3.877.115.278 0 .487-.07.487-.209 0-.093-.116-.14-.301-.14Zm10.981-2.252c-.116.743-.348 1.114-.813 1.346-.487.21-1.277.233-1.764.233-1.904 0-2.484-.279-2.53-1.51-.024-.534 0-2.066 0-2.67v-1.44c0-.115.023-.185.115-.185.465 0 2.6.047 2.926.093.696.07.928.348 1.044.697.047.232.047.464.07.65 0 .093.046.139.162.139.163 0 .186-.255.186-.395 0-.139.047-.859.093-1.207.116-.906.14-1.207.14-1.323 0-.116-.07-.186-.14-.186s-.14.116-.302.232c-.185.162-.44.232-.882.279-.418.046-2.855.046-3.273.046-.116 0-.14-.093-.14-.186v-4.457c0-.117.047-.163.14-.163.371 0 2.623.046 2.925.093.928.093 1.091.348 1.23.65.116.209.116.534.116.65 0 .14.024.232.14.232.139 0 .185-.209.209-.302.046-.209.093-.998.116-1.184.046-.835.139-1.044.139-1.16 0-.093-.023-.163-.14-.163-.092 0-.185.07-.301.093-.14.023-.441.093-.79.116-.37.023-4.503 0-5.107 0-.534 0-1.718-.047-2.693-.047-.279 0-.418.047-.418.163s.116.186.325.186c.279 0 .604.023.743.07.604.162.766.37.813.975.023.58.023 1.09.023 3.83v3.181c0 1.649 0 3.088-.093 3.854-.07.534-.163.883-.557.952-.163.047-.372.07-.65.07-.233 0-.302.116-.302.186 0 .116.116.185.371.185.395 0 .86-.023 1.3-.046.442 0 .86-.023 1.068-.023.558 0 1.254.023 2.16.046.905.047 2.043.07 3.435.07.697 0 .883 0 .999-.465.116-.371.255-1.602.255-1.996 0-.186-.023-.418-.162-.418-.093-.047-.14.023-.186.209Zm13.999-10.889c0-.093-.116-.14-.325-.14h-5.757c-.767 0-1.649.024-3.436-.046-.465-.023-.58-.116-.743-.116-.116 0-.186.093-.21.348-.115.557-.37 2.183-.37 2.624 0 .209.069.302.185.302.116 0 .186-.07.232-.325.047-.418.372-1.045.998-1.37.604-.325 1.695-.325 2.647-.325h3.529c-2.507 3.715-5.224 7.8-7.87 11.771-.21.325-.233.418-.233.534 0 .116.117.186.325.186 3.785 0 6.942.093 10.076.093.349 0 .465-.14.58-.465.14-.44.372-1.625.372-2.205 0-.418-.046-.558-.186-.558-.116 0-.162.116-.209.302-.07.256-.185.557-.348.836-.325.557-.975.929-2.879.929h-4.527c2.647-3.808 5.433-7.918 8.033-11.98.07-.186.116-.256.116-.395Zm33.501 13.094c-.209 0-.418-.023-.697-.07-.348-.069-.882-.301-1.602-1.926-1.184-2.74-4.318-10.053-4.759-11.052-.186-.394-.278-.58-.557-.58-.186 0-.348.209-.557.72l-4.899 11.283c-.371.906-.696 1.463-1.555 1.602-.163 0-.372.023-.557.023-.07 0-.117.024-.14.047a.358.358 0 0 0-.185-.047c-.302 0-.697-.023-.952-.07-.581-.092-.674-.417-.743-.928-.093-.79-.093-2.206-.093-3.877v-3.181c0-2.74 0-3.25.046-3.831.047-.627.186-.882.674-.975.232-.046.394-.07.557-.07.209 0 .348-.07.348-.186 0-.139-.116-.162-.395-.162-.719 0-1.95.046-2.391.046-.487 0-1.811-.046-2.809-.046-.279 0-.395.046-.395.163 0 .116.116.185.325.185.256 0 .581.023.72.07.604.162.766.371.813.975.023.58.046 1.23.046 3.97v.372c0 .116-.07.14-.116.14h-7.058c-.07 0-.139-.024-.139-.14v-.372c0-2.74 0-3.39.046-3.97.047-.627.186-.882.697-.975a2.41 2.41 0 0 1 .534-.07c.232 0 .348-.07.348-.186 0-.139-.116-.162-.371-.162-.743 0-2.043.046-2.484.046-.511 0-1.742-.046-2.74-.046-.255 0-.395.046-.395.163 0 .116.116.185.325.185.279 0 .604.023.743.07.604.162.766.371.813.975.023.58.023 1.091.023 3.831v3.18c0 1.65 0 3.089-.093 3.855-.07.534-.162.882-.557.952-.162.046-.371.07-.65.07-.232 0-.302.116-.302.185 0 .116.116.186.372.186.743 0 1.973-.07 2.39-.07.535 0 1.835.07 3.042.07.232 0 .372-.07.372-.186 0-.093-.093-.186-.302-.186-.279 0-.697-.023-.952-.07-.557-.092-.65-.417-.72-.928-.093-.79-.116-2.16-.116-3.83V87.02c0-.093.07-.116.14-.116h7.057c.047 0 .116.046.116.116v1.393c0 1.649 0 3.042-.093 3.808-.069.534-.162.882-.557.952-.162.046-.371.07-.673.07-.209 0-.302.116-.302.185 0 .116.139.186.395.186.719 0 2.043-.07 2.461-.07.51 0 1.741.07 2.948.07a.871.871 0 0 0 .279-.046.618.618 0 0 0 .255.046c.975 0 1.973-.07 2.159-.07.604 0 1.463.07 2.09.07.185 0 .301-.046.301-.186 0-.116-.046-.186-.278-.186h-.279c-.58 0-.743-.185-.743-.51 0-.21.093-.65.279-1.115l.998-2.438c.047-.116.07-.116.163-.116h4.411c.093 0 .139.024.186.116l1.439 3.645c.093.21-.047.372-.163.395-.185.023-.232.093-.232.186 0 .116.209.116.557.14a121 121 0 0 0 3.599.046c.696 0 .812-.047.812-.186-.023-.116-.116-.163-.278-.163Zm-6.338-5.2h-3.622c-.069 0-.116-.047-.069-.116l1.81-4.505c.024-.07.047-.162.116-.162.047 0 .07.116.093.162l1.765 4.528c.023.07 0 .093-.093.093Zm27.534-1.208c-.627 0-1.602.047-2.182.047-.557 0-1.881-.047-2.879-.047-.255 0-.395.024-.395.163 0 .116.116.186.302.186.256 0 .581.023.72.07.603.162.789.37.812.974.024.558.024 1.231.024 2.137v1.648c0 .325-.093.51-.372.627-.441.186-.836.186-1.323.186-3.993 0-6.501-2.833-6.501-6.71 0-2.206.674-3.553 1.718-4.412 1.3-1.044 2.601-1.068 3.622-1.068 2.113 0 3.506.813 4.063 1.393.487.511.603 1.092.627 1.486.023.14.069.233.185.233.14 0 .256-.117.256-.395 0-2.276.139-2.763.139-2.972 0-.14-.046-.186-.255-.209a13.657 13.657 0 0 1-1.486-.186c-.372-.093-2.02-.302-3.32-.302-1.579 0-3.25.14-5.038 1.161-1.718.999-3.273 3.019-3.273 5.92 0 4.992 4.062 7.082 8.659 7.082 1.463 0 3.32-.186 4.574-.813.232-.139.232-.139.232-.626V90.41c0-.882 0-1.625.023-2.16.023-.626.209-.882.72-.975.209-.046.371-.07.511-.07.139 0 .232-.092.232-.185 0-.162-.14-.186-.395-.186Zm9.937-7.127c-5.665 0-7.847 3.993-7.847 7.081 0 3.204 2.205 7.081 7.661 7.081 4.829 0 7.847-3.25 7.847-7.406s-2.949-6.756-7.661-6.756Zm.58 13.164c-3.529 0-5.665-2.925-5.665-6.663 0-4.458 2.438-5.573 4.527-5.573 3.018 0 5.41 2.461 5.41 6.455.023 5.177-2.949 5.781-4.272 5.781Zm36.287.371c-.209 0-.418-.023-.697-.07-.348-.069-.882-.301-1.602-1.926-1.184-2.74-4.318-10.053-4.759-11.052-.186-.394-.279-.58-.557-.58-.186 0-.348.209-.557.72l-4.899 11.283c-.279.65-.511 1.115-.952 1.37-.348-.14-.789-.418-1.346-.998-1.138-1.138-2.438-2.763-4.11-4.806 1.834-1.463 2.601-2.647 2.601-3.994 0-1.207-.79-2.136-1.324-2.484-.998-.65-2.368-.766-3.552-.766-.58 0-2.275.046-2.902.046-.371 0-1.579-.046-2.554-.046-.278 0-.417.046-.417.162s.116.186.325.186c.278 0 .603.023.742.07.604.162.767.371.813.975.023.58.023 1.091.023 3.83v3.182c0 1.648 0 3.088-.093 3.854-.069.534-.162.882-.557.952-.162.046-.371.07-.65.07-.232 0-.302.115-.302.185 0 .116.116.186.372.186.743 0 1.927-.07 2.298-.07.279 0 1.834.07 2.902.07.232 0 .372-.07.372-.186 0-.093-.093-.186-.233-.186a6.35 6.35 0 0 1-.905-.07c-.58-.092-.65-.417-.72-.951-.092-.766-.116-2.16-.116-3.854v-.256c0-.116.07-.14.14-.14l1.671.047c.139 0 .232.023.348.14.233.278 1.022 1.486 1.765 2.46 1.045 1.394 1.741 2.253 2.554 2.647.441.233.928.326 1.787.349h2.043c.14 0 .232-.023.279-.07.58 0 1.393.07 1.973.07.186 0 .302-.047.302-.186 0-.116-.046-.186-.279-.186h-.278c-.581 0-.743-.186-.743-.51 0-.21.093-.65.278-1.115l.999-2.438c.046-.116.069-.116.162-.116h4.411c.093 0 .14.023.186.116l1.439 3.645c.093.21-.046.372-.162.395-.186.023-.232.093-.232.186 0 .116.209.116.557.14 1.579.046 2.925.046 3.598.046.697 0 .813-.047.813-.186 0-.093-.07-.14-.255-.14Zm-20.431-6.477c-.325.232-.58.302-1.323.302-.464 0-1.021-.047-1.416-.163-.116-.07-.162-.116-.162-.325v-5.386c0-.14.046-.21.162-.256.186-.046.627-.07 1.114-.07 1.115 0 2.856.65 2.856 3.205-.023 1.509-.65 2.298-1.231 2.693Zm14.116 1.277h-3.622c-.069 0-.116-.047-.069-.116l1.81-4.505c.024-.07.047-.162.116-.162.047 0 .07.116.093.162l1.765 4.528c0 .07-.024.093-.093.093Z" fill="#fff"/></svg>