<svg width="184" height="25" fill="none" xmlns="http://www.w3.org/2000/svg"><path d="M101.445 15.726c-.302 0-.554.237-.554.522 0 .285.252.522.554.522.303 0 .555-.237.555-.522 0-.285-.252-.522-.555-.522Zm0 .997c-.252 0-.453-.19-.453-.427 0-.238.201-.427.453-.427s.454.19.454.427c0 .19-.202.427-.454.427Zm.152-.57c0-.095-.051-.142-.202-.142h-.202v.474h.101v-.19h.101l.101.19h.101l-.101-.19c.101 0 .101-.047.101-.142Zm-.152.095h-.1v-.142h.1c.051 0 .101.047.101.095 0 0-.05.047-.101.047Zm-68.319-5.93V9.037h-2.118v7.686h2.118V12.12c0-.854.555-1.233 1.462-1.233h1.16v-1.85h-.958c-.807 0-1.462.38-1.664 1.28ZM37.714 6c-.706 0-1.26.522-1.26 1.234 0 .664.554 1.186 1.26 1.186s1.26-.522 1.26-1.186c0-.712-.554-1.234-1.26-1.234Zm-1.058 10.723h2.117V9.037h-2.117v7.686Zm12.1-3.843c0 2.182-1.865 3.985-4.235 3.985-.958 0-1.815-.285-2.47-.76V19h-2.118V9.037h2.117V9.7a4.316 4.316 0 0 1 2.471-.76c2.32-.047 4.235 1.756 4.235 3.939Zm-2.117 0c0-1.187-1.009-2.136-2.27-2.136-1.26 0-2.268.95-2.268 2.136 0 1.186 1.008 2.135 2.269 2.135 1.26 0 2.269-.95 2.269-2.135Zm38.571-.665L84 11.883c-.807-.19-1.11-.427-1.11-.806 0-.38.454-.665 1.06-.665.605 0 1.058.38 1.058.854v.048h1.916v-.048c0-1.375-1.21-2.324-3.025-2.324-1.765 0-3.076.949-3.076 2.23 0 .996.706 1.755 1.917 2.087l1.16.285c.907.237 1.21.474 1.21.949 0 .474-.454.806-1.21.806-.757 0-1.261-.427-1.261-1.091v-.047H80.57v.047c0 1.566 1.362 2.657 3.278 2.657 1.865 0 3.227-1.091 3.227-2.562.1-.76-.252-1.708-1.866-2.088ZM56.168 9.037h2.118v7.686h-2.118v-.665a4.316 4.316 0 0 1-2.47.76c-2.32 0-4.236-1.756-4.236-3.986 0-2.23 1.866-3.985 4.235-3.985.959 0 1.816.284 2.471.759v-.57Zm0 3.843c0-1.187-1.008-2.136-2.269-2.136-1.26 0-2.269.95-2.269 2.136 0 1.186 1.009 2.135 2.27 2.135 1.26 0 2.268-.95 2.268-2.135Zm9.68-6.595h2.118v10.438H65.85v-.665a4.316 4.316 0 0 1-2.47.76c-2.32 0-4.236-1.756-4.236-3.986 0-2.182 1.865-3.985 4.235-3.985.958 0 1.815.284 2.47.759V6.285Zm0 6.595c0-1.187-1.008-2.136-2.268-2.136-1.26 0-2.27.95-2.27 2.136 0 1.186 1.01 2.135 2.27 2.135s2.269-.95 2.269-2.135Zm11.85 3.843h2.117V9.037h-2.117v7.686ZM78.756 6c-.706 0-1.26.522-1.26 1.234 0 .664.554 1.186 1.26 1.186s1.26-.522 1.26-1.186c0-.712-.554-1.234-1.26-1.234Zm17.496 6.88c0 2.182-1.865 3.985-4.235 3.985-2.32 0-4.236-1.755-4.236-3.985 0-2.183 1.866-3.986 4.236-3.986 2.37 0 4.235 1.803 4.235 3.986Zm-1.916 0c0-1.187-1.008-2.136-2.269-2.136-1.26 0-2.269.95-2.269 2.136 0 1.186 1.009 2.135 2.27 2.135 1.21 0 2.268-.95 2.268-2.135ZM32.067 6.285H24V8.04h2.975v8.683h2.067V8.088h2.975l.05-1.803Zm40.69 8.303L70.89 9.037h-2.219l2.824 7.686h2.52l2.824-7.686h-2.218l-1.866 5.55Zm26.57-4.27V9.037H97.21v7.686h2.118V12.12c0-.854.554-1.233 1.462-1.233h1.16v-1.85h-.958c-.807 0-1.463.38-1.664 1.28ZM10 22c5.523 0 10-4.253 10-9.5S15.523 3 10 3 0 7.253 0 12.5 4.477 22 10 22Z" fill="#36445E"/><path d="M17.51 10.642 19 9.388h-3.268C14.127 8.538 12.121 8 10 8s-4.07.493-5.732 1.388H1l1.49 1.254C1.573 11.269 1 12.209 1 13.239c0 1.925 2.006 3.492 4.471 3.492 1.204 0 2.236-.358 3.039-.94L9.943 17l1.433-1.209c.802.582 1.892.94 3.038.94 2.465 0 4.529-1.567 4.529-3.492.057-1.03-.516-1.97-1.433-2.597Zm-12.04 4.97c-1.662 0-3.038-1.075-3.038-2.373 0-1.299 1.376-2.373 3.038-2.373 1.663 0 3.039 1.074 3.039 2.373 0 1.298-1.319 2.373-3.039 2.373ZM10 13.149c0-1.567-1.433-2.91-3.382-3.492C7.65 9.299 8.796 9.119 10 9.119c1.204 0 2.35.18 3.382.538-1.949.582-3.382 1.925-3.382 3.492Zm4.471 2.463c-1.662 0-3.038-1.075-3.038-2.373 0-1.299 1.376-2.373 3.038-2.373 1.663 0 3.039 1.074 3.039 2.373 0 1.298-1.376 2.373-3.039 2.373Zm0-3.627c-.86 0-1.605.537-1.605 1.254 0 .671.688 1.253 1.605 1.253.86 0 1.605-.537 1.605-1.253 0-.672-.688-1.254-1.605-1.254ZM7.076 13.24c0 .671-.687 1.253-1.605 1.253-.86 0-1.605-.537-1.605-1.253 0-.672.688-1.254 1.605-1.254.918 0 1.605.582 1.605 1.254Z" fill="#fff"/><path d="M148.844 4.284v.983h-3.712v-.786l1.894-1.847c.189-.197.341-.354.416-.511a.92.92 0 0 0 .114-.433.666.666 0 0 0-.189-.472c-.152-.118-.341-.157-.606-.157-.228 0-.417.04-.569.118-.189.079-.303.197-.454.393l-.834-.55c.19-.315.455-.511.796-.708a2.74 2.74 0 0 1 1.174-.236c.379 0 .682.08.947.197.266.118.493.314.644.511.152.236.228.511.228.786s-.038.55-.152.786c-.114.236-.341.511-.644.826l-1.136 1.1h2.083Zm1.478.747c-.303-.196-.569-.51-.758-.904-.189-.393-.265-.865-.265-1.415s.076-1.022.265-1.415.417-.708.758-.904a2.015 2.015 0 0 1 1.098-.315c.417 0 .758.118 1.099.315.303.196.568.51.758.904.189.393.265.865.265 1.415s-.076 1.022-.265 1.415c-.19.393-.417.708-.758.904a2.016 2.016 0 0 1-1.099.315c-.416 0-.795-.079-1.098-.315Zm1.78-1.061c.19-.275.265-.668.265-1.258s-.075-.983-.265-1.258c-.189-.275-.417-.393-.72-.393s-.53.118-.682.393c-.189.275-.265.669-.265 1.258 0 .59.076.983.265 1.258.19.275.417.393.682.393a.854.854 0 0 0 .72-.393Zm3.826-3.813v5.11h-1.136V1.101h-.985V.157h2.121Zm4.774 2.909c.113.197.189.432.189.708 0 .314-.076.59-.265.825-.19.236-.417.432-.72.55a3.064 3.064 0 0 1-1.098.197 3.23 3.23 0 0 1-1.099-.197c-.303-.118-.568-.314-.72-.55-.189-.236-.265-.51-.265-.825 0-.276.076-.511.189-.708.114-.196.303-.354.569-.511a1.116 1.116 0 0 1-.417-.432 1.185 1.185 0 0 1-.152-.63c0-.314.076-.55.228-.785.151-.236.378-.394.682-.511.303-.118.606-.197.985-.197.378 0 .719.079.984.197.266.117.531.275.682.51.152.236.228.472.228.787 0 .236-.038.432-.152.629a1.121 1.121 0 0 1-.417.432c.266.157.455.315.569.511Zm-1.213 1.219a.696.696 0 0 0 .266-.55c0-.237-.076-.394-.266-.551-.151-.118-.378-.197-.681-.197a1.27 1.27 0 0 0-.682.197.696.696 0 0 0-.266.55c0 .236.076.393.266.55.151.119.378.197.682.197.303 0 .53-.078.681-.196ZM158.277 1.1c-.151.118-.189.275-.189.471 0 .197.075.354.189.472.152.118.303.157.568.157.228 0 .417-.039.569-.157a.569.569 0 0 0 .227-.472.569.569 0 0 0-.227-.471c-.152-.118-.341-.158-.569-.158-.265 0-.416.04-.568.158Zm-33.186 13.837c-.416-.236-.757-.55-.985-.983-.227-.393-.341-.864-.341-1.415 0-.55.114-.982.341-1.415.228-.393.569-.747.985-.982a2.765 2.765 0 0 1 1.402-.354c.455 0 .833.078 1.174.236.341.157.644.393.91.707l-.758.708c-.341-.393-.758-.63-1.288-.63-.303 0-.606.08-.834.197a1.4 1.4 0 0 0-.568.59 2.073 2.073 0 0 0 0 1.73 1.4 1.4 0 0 0 .568.59c.228.117.531.196.834.196a1.59 1.59 0 0 0 1.288-.63l.758.708c-.228.315-.531.55-.91.708a2.856 2.856 0 0 1-1.174.236c-.53.157-.985.039-1.402-.197Zm8.183-.707v.982h-3.94V9.984h3.826v.983h-2.651v1.14h2.348v.943h-2.348v1.219l2.765-.04Zm4.129.943-.985-1.454h-1.098v1.454h-1.175V9.945h2.198c.454 0 .833.079 1.174.236.341.157.568.393.758.668.189.275.265.629.265 1.022s-.076.708-.265 1.022a1.72 1.72 0 0 1-.758.63l1.137 1.69h-1.251v-.04Zm-.265-4.01c-.189-.157-.454-.235-.795-.235h-.947v1.847h.947c.341 0 .606-.078.795-.236.19-.157.265-.393.265-.668a.993.993 0 0 0-.265-.707Zm3.334-.235h-1.629v-.983h4.394v.983h-1.629v4.245h-1.174v-4.245h.038Zm3.409-.983h1.175v5.228h-1.175V9.945Zm3.562.983v1.375h2.348v.983h-2.348v1.926h-1.175V9.984h3.826v.983l-2.651-.04Zm3.447-.983h1.174v5.228h-1.174V9.945Zm3.371 4.992c-.416-.236-.757-.55-.985-.983a2.888 2.888 0 0 1-.34-1.415c0-.55.113-.982.34-1.415.228-.432.569-.747.985-.982a2.765 2.765 0 0 1 1.402-.354c.455 0 .834.078 1.175.236.34.157.644.393.909.707l-.758.708c-.341-.393-.758-.63-1.288-.63-.303 0-.606.08-.833.197a1.396 1.396 0 0 0-.569.59c-.151.236-.189.55-.189.865 0 .314.076.629.189.864.152.236.341.472.569.59.227.118.53.197.833.197.493 0 .947-.197 1.288-.63l.758.708c-.228.315-.531.55-.909.708a2.861 2.861 0 0 1-1.175.236c-.492.157-.985.039-1.402-.197Zm7.501-.865h-2.348l-.455 1.14h-1.212l2.273-5.228h1.174l2.273 5.228h-1.212l-.493-1.14Zm-.341-.943-.795-2.005-.796 2.005h1.591Zm3.372-2.201h-1.629v-.983h4.395v.983h-1.592v4.245h-1.174v-4.245Zm7.312 3.302v.982h-3.902V9.984h3.826v.983h-2.652v1.14h2.349v.943h-2.349v1.219l2.728-.04Zm3.447.786c-.265-.157-.493-.354-.644-.63a1.874 1.874 0 0 1-.227-.903c0-.433.113-.826.303-1.219.189-.393.454-.629.833-.825a2.392 2.392 0 0 1 1.174-.315c.379 0 .72.079.985.236.266.157.493.354.644.629.152.275.228.59.228.904 0 .432-.114.826-.303 1.219-.19.393-.455.629-.834.825-.379.197-.757.315-1.174.315-.341 0-.682-.079-.985-.236Zm1.743-.747c.189-.118.34-.315.454-.55a1.71 1.71 0 0 0 .19-.787c0-.314-.076-.55-.266-.746-.189-.197-.416-.276-.757-.276-.265 0-.493.079-.682.197-.19.118-.341.314-.455.55a1.72 1.72 0 0 0-.189.786c0 .315.076.55.265.747.189.197.417.276.758.276.265-.04.492-.08.682-.197Zm4.053-3.774c-.114.118-.189.275-.227.511l-.038.236h1.061l-.152.747h-1.023l-.606 3.223h-.909l.606-3.223h-.644l.152-.747h.644l.075-.275c.076-.433.266-.747.531-.983s.606-.354 1.023-.354c.151 0 .34.04.454.079.152.04.265.118.379.197l-.379.668c-.114-.118-.303-.157-.492-.157-.19-.079-.341-.04-.455.078Zm-55.272 13.051v1.258H121v-6.8h4.963v1.257h-3.448v1.494h3.031v1.218h-3.031v1.573h3.561Zm5.266 1.258-1.591-2.359-1.553 2.359h-1.743l2.425-3.46-2.311-3.34h1.742l1.516 2.2 1.477-2.2h1.629l-2.273 3.301 2.463 3.538-1.781-.04Zm3.675-.315c-.531-.315-.985-.708-1.288-1.258a3.651 3.651 0 0 1-.455-1.808c0-.668.152-1.297.455-1.808.303-.55.72-.944 1.288-1.258a3.593 3.593 0 0 1 1.818-.472c.568 0 1.099.118 1.553.315.455.196.834.51 1.175.904l-.985.943c-.455-.55-.985-.786-1.667-.786-.417 0-.758.079-1.099.275-.303.197-.568.432-.757.786-.19.315-.265.708-.265 1.14 0 .433.075.786.265 1.14.189.315.416.59.757.786.303.197.682.275 1.099.275.644 0 1.212-.275 1.667-.825l.985.943a2.747 2.747 0 0 1-1.175.905 3.923 3.923 0 0 1-1.553.314c-.682-.079-1.288-.236-1.818-.511Zm10.607-.943v1.258h-5.076v-6.8h4.963v1.257h-3.448v1.494h3.031v1.218h-3.031v1.573h3.561Zm1.212-5.543h1.516v5.543h3.296v1.297h-4.812v-6.84Zm5.683 0h1.515v5.543h3.296v1.297h-4.811v-6.84Zm10.759 5.543v1.258h-5.077v-6.8h4.963v1.257h-3.447v1.494h3.03v1.218h-3.03v1.573h3.561Zm7.235-5.543v6.8h-1.25l-3.258-4.127v4.128h-1.515v-6.8h1.25l3.258 4.127v-4.128h1.515Zm2.88 6.486a3.64 3.64 0 0 1-1.288-1.258 3.651 3.651 0 0 1-.455-1.808c0-.668.152-1.297.455-1.808.303-.55.719-.944 1.288-1.258a3.593 3.593 0 0 1 1.818-.472c.568 0 1.099.118 1.553.315.455.196.834.51 1.175.904l-.985.943c-.455-.55-.985-.786-1.667-.786-.417 0-.758.079-1.099.275a1.866 1.866 0 0 0-.758.786c-.189.315-.265.708-.265 1.14 0 .433.076.786.265 1.14.19.315.417.59.758.786.303.197.682.275 1.099.275.644 0 1.212-.275 1.667-.825l.985.943a2.747 2.747 0 0 1-1.175.905 3.923 3.923 0 0 1-1.553.314c-.682-.079-1.288-.236-1.818-.511ZM184 23.546v1.258h-5.076v-6.8h4.962v1.257h-3.447v1.494h3.031v1.218h-3.031v1.573H184Z" fill="#36445E"/></svg>