<svg width="35" height="24" fill="none" xmlns="http://www.w3.org/2000/svg"><g clip-path="url(#clip0_121_155)"><path d="M34.246 3.743a4.29 4.29 0 00-3.02-3.02C28.575 0 17.915 0 17.915 0S7.255.022 4.606.744a4.29 4.29 0 00-3.02 3.021c-.803 4.707-1.114 11.878.02 16.396a4.29 4.29 0 003.021 3.021c2.649.723 13.31.723 13.31.723s10.66 0 13.309-.723a4.291 4.291 0 003.02-3.02c.846-4.714 1.106-11.88-.021-16.419z" fill="red"/><path d="M14.523 17.075l8.844-5.122-8.844-5.123v10.245z" fill="#fff"/></g><defs><clipPath id="clip0_121_155"><path fill="#fff" transform="translate(.867)" d="M0 0h34.133v24H0z"/></clipPath></defs></svg>