<svg width="128" height="128" viewBox="0 0 128 128" fill="none" xmlns="http://www.w3.org/2000/svg">
<path d="M0 0H128V128H0V0Z" fill="#020501"/>
<path d="M105.09 38.9956V48.9974L63.5449 74.0107L30.309 54.0071V64.0089L63.5449 84.0124L88.4718 69.0009V79.0027L67.6909 91.5094V111.513L63.5449 114L22 89.0045V79.0027L59.382 101.511V91.5094L22 69.0009V38.9956L63.5449 64.0089L105.09 38.9956Z" fill="#FFCA18"/>
<path d="M105.089 58.9995V89.0049L75.9994 106.504V96.5018L96.7803 83.9951V64.0092L105.089 58.9995Z" fill="#FFCA18"/>
<path d="M96.7804 34.0036L88.4715 38.9956L63.5445 24.0018L38.6176 38.9956L30.3086 34.0036L63.5445 14L96.7804 34.0036Z" fill="#FFCA18"/>
</svg>
