<svg width="597" height="421" fill="none" xmlns="http://www.w3.org/2000/svg"><path d="M33.09 332.86H5.65a2 2 0 0 0-2 2v.61a2 2 0 0 0 2 2h27.44a2 2 0 0 0 2-2v-.61a2 2 0 0 0-2-2Zm39.9-3.21H45.55a2 2 0 0 0-2 2v3.82a2 2 0 0 0 2 2h27.44a2 2 0 0 0 2-2v-3.82a2 2 0 0 0-2-2Zm39.89-4.59H85.44a2 2 0 0 0-2 2v8.4a2 2 0 0 0 2 2h27.44a2 2 0 0 0 2-2v-8.4a2 2 0 0 0-2-2Zm39.9-5.42h-27.44a2 2 0 0 0-2 2v13.82a2 2 0 0 0 2 2h27.44a2 2 0 0 0 2-2v-13.82a2 2 0 0 0-2-2Zm39.9-6.98h-27.44a2 2 0 0 0-2 2v20.8a2 2 0 0 0 2 2h27.44a2 2 0 0 0 2-2v-20.8a2 2 0 0 0-2-2Zm39.9-7.68h-27.44a2 2 0 0 0-2 2v28.48a2 2 0 0 0 2 2h27.44a2 2 0 0 0 2-2v-28.48a2 2 0 0 0-2-2Zm39.89-9.26h-27.44a2 2 0 0 0-2 2v37.74a2 2 0 0 0 2 2h27.44a2 2 0 0 0 2-2v-37.74a2 2 0 0 0-2-2Zm39.9-11.66h-27.44a2 2 0 0 0-2 2v49.4a2 2 0 0 0 2 2h27.44a2 2 0 0 0 2-2v-49.4a2 2 0 0 0-2-2Zm39.9-16.32h-27.44a2 2 0 0 0-2 2v65.72a2 2 0 0 0 2 2h27.44a2 2 0 0 0 2-2v-65.72a2 2 0 0 0-2-2Zm39.9-20.4h-27.44a2 2 0 0 0-2 2v86.12a2 2 0 0 0 2 2h27.44a2 2 0 0 0 2-2v-86.12a2 2 0 0 0-2-2Zm39.89-26.82h-27.44a2 2 0 0 0-2 2v112.94a2 2 0 0 0 2 2h27.44a2 2 0 0 0 2-2V222.52a2 2 0 0 0-2-2Zm39.9-34.39h-27.44a2 2 0 0 0-2 2v147.33a2 2 0 0 0 2 2h27.44a2 2 0 0 0 2-2V188.13a2 2 0 0 0-2-2Zm39.9-38.47h-27.44a2 2 0 0 0-2 2v185.81a2 2 0 0 0 2 2h27.44a2 2 0 0 0 2-2V149.66a2 2 0 0 0-2-2Zm39.9-48.39h-27.44a2 2 0 0 0-2 2v234.19a2 2 0 0 0 2 2h27.44a2 2 0 0 0 2-2V101.27a2 2 0 0 0-2-2Zm39.89-68.78h-27.44a2 2 0 0 0-2 2v302.98a2 2 0 0 0 2 2h27.44a2 2 0 0 0 2-2V32.49a2 2 0 0 0-2-2Z" fill="#FFCA18"/><path d="M6.744 352.378c.693 0 1.285.059 1.776.176.501.107.885.331 1.152.672.267.331.4.821.4 1.472 0 .48-.07.928-.208 1.344a5.203 5.203 0 0 1-.672 1.296c-.299.448-.693.949-1.184 1.504l-3.36 3.808.912-.032c.32-.011.63-.016.928-.016h4.016v1.008H3.352v-.64a.91.91 0 0 1 .032-.256.625.625 0 0 1 .144-.224l3.424-3.904c.715-.8 1.237-1.504 1.568-2.112.341-.619.501-1.211.48-1.776-.021-.416-.128-.72-.32-.912-.181-.192-.443-.32-.784-.384a6.423 6.423 0 0 0-1.2-.096c-.33 0-.65.011-.96.032-.31.011-.64.037-.992.08-.341.043-.741.107-1.2.192l-.096-.816c.512-.117.95-.203 1.312-.256.373-.064.715-.107 1.024-.128.32-.021.64-.032.96-.032Zm9.417-.016c.917 0 1.643.203 2.176.608.533.395.917 1.013 1.152 1.856.235.843.352 1.931.352 3.264 0 1.323-.117 2.411-.352 3.264-.235.843-.619 1.467-1.152 1.872-.533.395-1.259.592-2.176.592-.907 0-1.632-.197-2.176-.592-.533-.405-.917-1.029-1.152-1.872-.224-.853-.336-1.941-.336-3.264 0-1.333.112-2.421.336-3.264.235-.843.619-1.461 1.152-1.856.544-.405 1.27-.608 2.176-.608Zm0 .928c-.501 0-.923.091-1.264.272-.33.181-.597.464-.8.848-.203.384-.352.88-.448 1.488a16.056 16.056 0 0 0-.128 2.192c0 .843.043 1.573.128 2.192.096.608.245 1.104.448 1.488.203.384.47.667.8.848.341.181.763.272 1.264.272.49 0 .907-.091 1.248-.272.341-.181.613-.464.816-.848.213-.384.363-.88.448-1.488a16.29 16.29 0 0 0 .128-2.192c0-.853-.043-1.584-.128-2.192-.085-.608-.235-1.104-.448-1.488-.203-.384-.475-.667-.816-.848-.341-.181-.757-.272-1.248-.272Zm9.147-.72v11.04h-1.056v-9.152a6.266 6.266 0 0 1 .064-.88l-2.8.896-.16-.752 2.896-1.152h1.056Zm7.21-.192c.214 0 .512.011.896.032s.79.085 1.216.192l-.128.768a7.432 7.432 0 0 0-.624-.064 9.84 9.84 0 0 0-.592-.016h-.768c-.597 0-1.098.064-1.504.192a1.81 1.81 0 0 0-.976.736c-.245.352-.421.88-.528 1.584-.096.693-.144 1.611-.144 2.752 0 .811.022 1.499.064 2.064.054.555.166.997.336 1.328.171.331.427.576.768.736.352.149.822.224 1.408.224.704 0 1.222-.107 1.552-.32a1.57 1.57 0 0 0 .672-.96c.107-.416.16-.917.16-1.504 0-.683-.064-1.227-.192-1.632-.117-.405-.341-.699-.672-.88-.33-.192-.794-.288-1.392-.288-.373 0-.72.048-1.04.144-.32.085-.64.245-.96.48-.32.224-.682.544-1.088.96l-.064-.544c.352-.491.688-.875 1.008-1.152.32-.277.672-.469 1.056-.576a4.625 4.625 0 0 1 1.344-.176c.768 0 1.371.117 1.808.352.438.235.747.624.928 1.168.182.533.272 1.253.272 2.16 0 .555-.042 1.061-.128 1.52a2.546 2.546 0 0 1-.48 1.152c-.234.32-.576.565-1.024.736-.448.171-1.04.256-1.776.256-.757 0-1.376-.085-1.856-.256a2.169 2.169 0 0 1-1.104-.88c-.245-.416-.416-.96-.512-1.632-.096-.683-.144-1.525-.144-2.528 0-1.333.086-2.405.256-3.216.171-.811.422-1.424.752-1.84a2.415 2.415 0 0 1 1.312-.848c.534-.149 1.163-.224 1.888-.224Zm53.706 0c.693 0 1.285.059 1.776.176.501.107.885.331 1.152.672.267.331.4.821.4 1.472 0 .48-.07.928-.208 1.344a5.2 5.2 0 0 1-.672 1.296c-.299.448-.693.949-1.184 1.504l-3.36 3.808.912-.032c.32-.011.63-.016.928-.016h4.016v1.008h-7.152v-.64a.91.91 0 0 1 .032-.256.625.625 0 0 1 .144-.224l3.424-3.904c.715-.8 1.237-1.504 1.568-2.112.341-.619.501-1.211.48-1.776-.021-.416-.128-.72-.32-.912-.181-.192-.443-.32-.784-.384a6.422 6.422 0 0 0-1.2-.096c-.33 0-.65.011-.96.032-.31.011-.64.037-.992.08-.341.043-.741.107-1.2.192l-.096-.816c.512-.117.95-.203 1.312-.256.373-.064.715-.107 1.024-.128.32-.021.64-.032.96-.032Zm9.417-.016c.917 0 1.643.203 2.176.608.533.395.917 1.013 1.152 1.856.235.843.352 1.931.352 3.264 0 1.323-.117 2.411-.352 3.264-.235.843-.619 1.467-1.152 1.872-.533.395-1.259.592-2.176.592-.907 0-1.632-.197-2.176-.592-.533-.405-.917-1.029-1.152-1.872-.224-.853-.336-1.941-.336-3.264 0-1.333.112-2.421.336-3.264.235-.843.619-1.461 1.152-1.856.544-.405 1.27-.608 2.176-.608Zm0 .928c-.501 0-.923.091-1.264.272-.33.181-.597.464-.8.848-.203.384-.352.88-.448 1.488a16.072 16.072 0 0 0-.128 2.192c0 .843.043 1.573.128 2.192.096.608.245 1.104.448 1.488.203.384.47.667.8.848.341.181.763.272 1.264.272.49 0 .907-.091 1.248-.272.341-.181.613-.464.816-.848.213-.384.363-.88.448-1.488a16.34 16.34 0 0 0 .128-2.192c0-.853-.043-1.584-.128-2.192-.085-.608-.235-1.104-.448-1.488-.203-.384-.475-.667-.816-.848-.341-.181-.757-.272-1.248-.272Zm9.147-.72v11.04h-1.056v-9.152a5.703 5.703 0 0 1 .064-.88l-2.8.896-.16-.752 2.896-1.152h1.056Zm6.746-.144c.683 0 1.248.059 1.696.176.448.107.795.277 1.04.512.256.235.432.539.528.912.107.363.16.795.16 1.296 0 .491-.053.917-.16 1.28-.106.363-.277.651-.512.864-.224.213-.522.341-.896.384v.064c.459.043.816.187 1.072.432.267.245.454.576.56.992.118.416.176.923.176 1.52 0 .683-.101 1.237-.304 1.664-.202.427-.565.741-1.088.944-.522.192-1.28.288-2.272.288-.97 0-1.722-.096-2.256-.288-.533-.203-.906-.517-1.12-.944-.202-.427-.304-.981-.304-1.664 0-.597.054-1.104.16-1.52.118-.416.31-.747.576-.992.267-.245.624-.389 1.072-.432v-.064c-.373-.043-.677-.171-.912-.384-.234-.213-.405-.501-.512-.864a4.585 4.585 0 0 1-.16-1.28c0-.501.054-.933.16-1.296.107-.363.288-.661.544-.896.256-.245.603-.421 1.04-.528.448-.117 1.019-.176 1.712-.176Zm.016 5.872c-.544 0-.992.037-1.344.112-.352.064-.629.181-.832.352-.192.16-.33.395-.416.704-.074.309-.112.709-.112 1.2 0 .533.075.96.224 1.28.15.32.416.549.8.688.395.139.95.208 1.664.208.726 0 1.275-.069 1.648-.208.384-.139.646-.368.784-.688.15-.32.224-.747.224-1.28 0-.501-.042-.907-.128-1.216-.074-.309-.208-.544-.4-.704-.192-.171-.458-.288-.8-.352a7.334 7.334 0 0 0-1.312-.096Zm-.016-5.008c-.661 0-1.173.069-1.536.208-.352.128-.597.347-.736.656-.138.309-.208.725-.208 1.248 0 .565.07.997.208 1.296.139.299.39.501.752.608.363.107.875.16 1.536.16.694 0 1.211-.053 1.552-.16.352-.117.587-.325.704-.624.128-.299.192-.725.192-1.28 0-.523-.064-.939-.192-1.248-.128-.309-.368-.528-.72-.656-.352-.139-.869-.208-1.552-.208Zm53.23-.912c.693 0 1.285.059 1.776.176.501.107.885.331 1.152.672.267.331.4.821.4 1.472 0 .48-.069.928-.208 1.344a5.226 5.226 0 0 1-.672 1.296c-.299.448-.693.949-1.184 1.504l-3.36 3.808.912-.032c.32-.011.629-.016.928-.016h4.016v1.008h-7.152v-.64c0-.096.011-.181.032-.256a.625.625 0 0 1 .144-.224l3.424-3.904c.715-.8 1.237-1.504 1.568-2.112.341-.619.501-1.211.48-1.776-.021-.416-.128-.72-.32-.912-.181-.192-.443-.32-.784-.384a6.428 6.428 0 0 0-1.2-.096c-.331 0-.651.011-.96.032a11.6 11.6 0 0 0-.992.08c-.341.043-.741.107-1.2.192l-.096-.816c.512-.117.949-.203 1.312-.256.373-.064.715-.107 1.024-.128.32-.021.64-.032.96-.032Zm9.417-.016c.917 0 1.643.203 2.176.608.533.395.917 1.013 1.152 1.856.235.843.352 1.931.352 3.264 0 1.323-.117 2.411-.352 3.264-.235.843-.619 1.467-1.152 1.872-.533.395-1.259.592-2.176.592-.907 0-1.632-.197-2.176-.592-.533-.405-.917-1.029-1.152-1.872-.224-.853-.336-1.941-.336-3.264 0-1.333.112-2.421.336-3.264.235-.843.619-1.461 1.152-1.856.544-.405 1.269-.608 2.176-.608Zm0 .928c-.501 0-.923.091-1.264.272-.331.181-.597.464-.8.848-.203.384-.352.88-.448 1.488a16.12 16.12 0 0 0-.128 2.192c0 .843.043 1.573.128 2.192.096.608.245 1.104.448 1.488.203.384.469.667.8.848.341.181.763.272 1.264.272.491 0 .907-.091 1.248-.272.341-.181.613-.464.816-.848.213-.384.363-.88.448-1.488a16.34 16.34 0 0 0 .128-2.192c0-.853-.043-1.584-.128-2.192-.085-.608-.235-1.104-.448-1.488-.203-.384-.475-.667-.816-.848-.341-.181-.757-.272-1.248-.272Zm9.067-.912c.694 0 1.286.059 1.776.176.502.107.886.331 1.152.672.267.331.4.821.4 1.472 0 .48-.069.928-.208 1.344a5.16 5.16 0 0 1-.672 1.296c-.298.448-.693.949-1.184 1.504l-3.36 3.808.912-.032c.32-.011.63-.016.928-.016h4.016v1.008h-7.152v-.64c0-.096.011-.181.032-.256a.625.625 0 0 1 .144-.224l3.424-3.904c.715-.8 1.238-1.504 1.568-2.112.342-.619.502-1.211.48-1.776-.021-.416-.128-.72-.32-.912-.181-.192-.442-.32-.784-.384a6.413 6.413 0 0 0-1.2-.096c-.33 0-.65.011-.96.032a11.6 11.6 0 0 0-.992.08c-.341.043-.741.107-1.2.192l-.096-.816c.512-.117.95-.203 1.312-.256.374-.064.715-.107 1.024-.128.32-.021.64-.032.96-.032Zm9.417-.016c.918 0 1.643.203 2.176.608.534.395.918 1.013 1.152 1.856.235.843.352 1.931.352 3.264 0 1.323-.117 2.411-.352 3.264-.234.843-.618 1.467-1.152 1.872-.533.395-1.258.592-2.176.592-.906 0-1.632-.197-2.176-.592-.533-.405-.917-1.029-1.152-1.872-.224-.853-.336-1.941-.336-3.264 0-1.333.112-2.421.336-3.264.235-.843.619-1.461 1.152-1.856.544-.405 1.27-.608 2.176-.608Zm0 .928c-.501 0-.922.091-1.264.272-.33.181-.597.464-.8.848-.202.384-.352.88-.448 1.488a16.12 16.12 0 0 0-.128 2.192c0 .843.043 1.573.128 2.192.096.608.246 1.104.448 1.488.203.384.47.667.8.848.342.181.763.272 1.264.272.491 0 .907-.091 1.248-.272.342-.181.614-.464.816-.848.214-.384.363-.88.448-1.488.086-.619.128-1.349.128-2.192 0-.853-.042-1.584-.128-2.192-.085-.608-.234-1.104-.448-1.488-.202-.384-.474-.667-.816-.848-.341-.181-.757-.272-1.248-.272Zm52.179-.912c.693 0 1.285.059 1.776.176.501.107.885.331 1.152.672.267.331.4.821.4 1.472 0 .48-.069.928-.208 1.344a5.226 5.226 0 0 1-.672 1.296c-.299.448-.693.949-1.184 1.504l-3.36 3.808.912-.032c.32-.011.629-.016.928-.016h4.016v1.008h-7.152v-.64c0-.096.011-.181.032-.256a.625.625 0 0 1 .144-.224l3.424-3.904c.715-.8 1.237-1.504 1.568-2.112.341-.619.501-1.211.48-1.776-.021-.416-.128-.72-.32-.912-.181-.192-.443-.32-.784-.384a6.428 6.428 0 0 0-1.2-.096c-.331 0-.651.011-.96.032a11.6 11.6 0 0 0-.992.08c-.341.043-.741.107-1.2.192l-.096-.816c.512-.117.949-.203 1.312-.256.373-.064.715-.107 1.024-.128.32-.021.64-.032.96-.032Zm9.417-.016c.917 0 1.643.203 2.176.608.533.395.917 1.013 1.152 1.856.235.843.352 1.931.352 3.264 0 1.323-.117 2.411-.352 3.264-.235.843-.619 1.467-1.152 1.872-.533.395-1.259.592-2.176.592-.907 0-1.632-.197-2.176-.592-.533-.405-.917-1.029-1.152-1.872-.224-.853-.336-1.941-.336-3.264 0-1.333.112-2.421.336-3.264.235-.843.619-1.461 1.152-1.856.544-.405 1.269-.608 2.176-.608Zm0 .928c-.501 0-.923.091-1.264.272-.331.181-.597.464-.8.848-.203.384-.352.88-.448 1.488a16.12 16.12 0 0 0-.128 2.192c0 .843.043 1.573.128 2.192.096.608.245 1.104.448 1.488.203.384.469.667.8.848.341.181.763.272 1.264.272.491 0 .907-.091 1.248-.272.341-.181.613-.464.816-.848.213-.384.363-.88.448-1.488a16.34 16.34 0 0 0 .128-2.192c0-.853-.043-1.584-.128-2.192-.085-.608-.235-1.104-.448-1.488-.203-.384-.475-.667-.816-.848-.341-.181-.757-.272-1.248-.272Zm9.067-.912c.694 0 1.286.059 1.776.176.502.107.886.331 1.152.672.267.331.4.821.4 1.472 0 .48-.069.928-.208 1.344a5.16 5.16 0 0 1-.672 1.296c-.298.448-.693.949-1.184 1.504l-3.36 3.808.912-.032c.32-.011.63-.016.928-.016h4.016v1.008h-7.152v-.64c0-.096.011-.181.032-.256a.625.625 0 0 1 .144-.224l3.424-3.904c.715-.8 1.238-1.504 1.568-2.112.342-.619.502-1.211.48-1.776-.021-.416-.128-.72-.32-.912-.181-.192-.442-.32-.784-.384a6.413 6.413 0 0 0-1.2-.096c-.33 0-.65.011-.96.032a11.6 11.6 0 0 0-.992.08c-.341.043-.741.107-1.2.192l-.096-.816c.512-.117.95-.203 1.312-.256.374-.064.715-.107 1.024-.128.32-.021.64-.032.96-.032Zm8.954 0c.693 0 1.285.059 1.776.176.501.107.885.331 1.152.672.266.331.4.821.4 1.472 0 .48-.07.928-.208 1.344a5.226 5.226 0 0 1-.672 1.296c-.299.448-.694.949-1.184 1.504l-3.36 3.808.912-.032c.32-.011.629-.016.928-.016h4.016v1.008h-7.152v-.64a.91.91 0 0 1 .032-.256.625.625 0 0 1 .144-.224l3.424-3.904c.714-.8 1.237-1.504 1.568-2.112.341-.619.501-1.211.48-1.776-.022-.416-.128-.72-.32-.912-.182-.192-.443-.32-.784-.384a6.428 6.428 0 0 0-1.2-.096c-.331 0-.651.011-.96.032-.31.011-.64.037-.992.08-.342.043-.742.107-1.2.192l-.096-.816c.512-.117.949-.203 1.312-.256.373-.064.714-.107 1.024-.128.32-.021.64-.032.96-.032Zm51.972 0c.693 0 1.285.059 1.776.176.501.107.885.331 1.152.672.267.331.4.821.4 1.472 0 .48-.069.928-.208 1.344a5.226 5.226 0 0 1-.672 1.296c-.299.448-.693.949-1.184 1.504l-3.36 3.808.912-.032c.32-.011.629-.016.928-.016h4.016v1.008h-7.152v-.64c0-.096.011-.181.032-.256a.625.625 0 0 1 .144-.224l3.424-3.904c.715-.8 1.237-1.504 1.568-2.112.341-.619.501-1.211.48-1.776-.021-.416-.128-.72-.32-.912-.181-.192-.443-.32-.784-.384a6.428 6.428 0 0 0-1.2-.096c-.331 0-.651.011-.96.032a11.6 11.6 0 0 0-.992.08c-.341.043-.741.107-1.2.192l-.096-.816c.512-.117.949-.203 1.312-.256.373-.064.715-.107 1.024-.128.32-.021.64-.032.96-.032Zm9.417-.016c.917 0 1.643.203 2.176.608.533.395.917 1.013 1.152 1.856.235.843.352 1.931.352 3.264 0 1.323-.117 2.411-.352 3.264-.235.843-.619 1.467-1.152 1.872-.533.395-1.259.592-2.176.592-.907 0-1.632-.197-2.176-.592-.533-.405-.917-1.029-1.152-1.872-.224-.853-.336-1.941-.336-3.264 0-1.333.112-2.421.336-3.264.235-.843.619-1.461 1.152-1.856.544-.405 1.269-.608 2.176-.608Zm0 .928c-.501 0-.923.091-1.264.272-.331.181-.597.464-.8.848-.203.384-.352.88-.448 1.488a16.12 16.12 0 0 0-.128 2.192c0 .843.043 1.573.128 2.192.096.608.245 1.104.448 1.488.203.384.469.667.8.848.341.181.763.272 1.264.272.491 0 .907-.091 1.248-.272.341-.181.613-.464.816-.848.213-.384.363-.88.448-1.488a16.34 16.34 0 0 0 .128-2.192c0-.853-.043-1.584-.128-2.192-.085-.608-.235-1.104-.448-1.488-.203-.384-.475-.667-.816-.848-.341-.181-.757-.272-1.248-.272Zm9.067-.912c.694 0 1.286.059 1.776.176.502.107.886.331 1.152.672.267.331.4.821.4 1.472 0 .48-.069.928-.208 1.344a5.16 5.16 0 0 1-.672 1.296c-.298.448-.693.949-1.184 1.504l-3.36 3.808.912-.032c.32-.011.63-.016.928-.016h4.016v1.008h-7.152v-.64c0-.096.011-.181.032-.256a.625.625 0 0 1 .144-.224l3.424-3.904c.715-.8 1.238-1.504 1.568-2.112.342-.619.502-1.211.48-1.776-.021-.416-.128-.72-.32-.912-.181-.192-.442-.32-.784-.384a6.413 6.413 0 0 0-1.2-.096c-.33 0-.65.011-.96.032a11.6 11.6 0 0 0-.992.08c-.341.043-.741.107-1.2.192l-.096-.816c.512-.117.95-.203 1.312-.256.374-.064.715-.107 1.024-.128.32-.021.64-.032.96-.032Zm9.801.192-3.28 6.608c-.096.213-.096.384 0 .512s.24.192.432.192h6.656v.752l-1.504.112h-5.696c-.266 0-.49-.075-.672-.224a1.1 1.1 0 0 1-.352-.592 1.13 1.13 0 0 1 .08-.72l3.296-6.64h1.04Zm2.416 2.096v8.944h-.992v-7.104l.192-1.84h.8Zm49.409-2.288c.693 0 1.285.059 1.776.176.501.107.885.331 1.152.672.267.331.4.821.4 1.472 0 .48-.069.928-.208 1.344a5.226 5.226 0 0 1-.672 1.296c-.299.448-.693.949-1.184 1.504l-3.36 3.808.912-.032c.32-.011.629-.016.928-.016h4.016v1.008h-7.152v-.64c0-.096.011-.181.032-.256a.625.625 0 0 1 .144-.224l3.424-3.904c.715-.8 1.237-1.504 1.568-2.112.341-.619.501-1.211.48-1.776-.021-.416-.128-.72-.32-.912-.181-.192-.443-.32-.784-.384a6.428 6.428 0 0 0-1.2-.096c-.331 0-.651.011-.96.032a11.6 11.6 0 0 0-.992.08c-.341.043-.741.107-1.2.192l-.096-.816c.512-.117.949-.203 1.312-.256.373-.064.715-.107 1.024-.128.32-.021.64-.032.96-.032Zm9.417-.016c.918 0 1.643.203 2.176.608.534.395.918 1.013 1.152 1.856.235.843.352 1.931.352 3.264 0 1.323-.117 2.411-.352 3.264-.234.843-.618 1.467-1.152 1.872-.533.395-1.258.592-2.176.592-.906 0-1.632-.197-2.176-.592-.533-.405-.917-1.029-1.152-1.872-.224-.853-.336-1.941-.336-3.264 0-1.333.112-2.421.336-3.264.235-.843.619-1.461 1.152-1.856.544-.405 1.27-.608 2.176-.608Zm0 .928c-.501 0-.922.091-1.264.272-.33.181-.597.464-.8.848-.202.384-.352.88-.448 1.488a16.12 16.12 0 0 0-.128 2.192c0 .843.043 1.573.128 2.192.096.608.246 1.104.448 1.488.203.384.47.667.8.848.342.181.763.272 1.264.272.491 0 .907-.091 1.248-.272.342-.181.614-.464.816-.848.214-.384.363-.88.448-1.488.086-.619.128-1.349.128-2.192 0-.853-.042-1.584-.128-2.192-.085-.608-.234-1.104-.448-1.488-.202-.384-.474-.667-.816-.848-.341-.181-.757-.272-1.248-.272Zm9.067-.912c.694 0 1.286.059 1.776.176.502.107.886.331 1.152.672.267.331.4.821.4 1.472 0 .48-.069.928-.208 1.344a5.16 5.16 0 0 1-.672 1.296c-.298.448-.693.949-1.184 1.504l-3.36 3.808.912-.032c.32-.011.63-.016.928-.016h4.016v1.008h-7.152v-.64c0-.096.011-.181.032-.256a.625.625 0 0 1 .144-.224l3.424-3.904c.715-.8 1.238-1.504 1.568-2.112.342-.619.502-1.211.48-1.776-.021-.416-.128-.72-.32-.912-.181-.192-.442-.32-.784-.384a6.413 6.413 0 0 0-1.2-.096c-.33 0-.65.011-.96.032a11.6 11.6 0 0 0-.992.08c-.341.043-.741.107-1.2.192l-.096-.816c.512-.117.95-.203 1.312-.256.374-.064.715-.107 1.024-.128.32-.021.64-.032.96-.032Zm9.994 0c.213 0 .512.011.896.032s.789.085 1.216.192l-.128.768a7.432 7.432 0 0 0-.624-.064 9.867 9.867 0 0 0-.592-.016h-.768c-.598 0-1.099.064-1.504.192a1.804 1.804 0 0 0-.976.736c-.246.352-.422.88-.528 1.584-.096.693-.144 1.611-.144 2.752 0 .811.021 1.499.064 2.064.053.555.165.997.336 1.328.17.331.426.576.768.736.352.149.821.224 1.408.224.704 0 1.221-.107 1.552-.32.341-.224.565-.544.672-.96.106-.416.16-.917.16-1.504 0-.683-.064-1.227-.192-1.632-.118-.405-.342-.699-.672-.88-.331-.192-.795-.288-1.392-.288-.374 0-.72.048-1.04.144-.32.085-.64.245-.96.48-.32.224-.683.544-1.088.96l-.064-.544c.352-.491.688-.875 1.008-1.152.32-.277.672-.469 1.056-.576a4.625 4.625 0 0 1 1.344-.176c.768 0 1.37.117 1.808.352.437.235.746.624.928 1.168.181.533.272 1.253.272 2.16 0 .555-.043 1.061-.128 1.52a2.555 2.555 0 0 1-.48 1.152c-.235.32-.576.565-1.024.736-.448.171-1.04.256-1.776.256-.758 0-1.376-.085-1.856-.256a2.169 2.169 0 0 1-1.104-.88c-.246-.416-.416-.96-.512-1.632-.096-.683-.144-1.525-.144-2.528 0-1.333.085-2.405.256-3.216.17-.811.421-1.424.752-1.84a2.412 2.412 0 0 1 1.312-.848c.533-.149 1.162-.224 1.888-.224Zm51.002 0c.693 0 1.285.059 1.776.176.501.107.885.331 1.152.672.267.331.4.821.4 1.472 0 .48-.069.928-.208 1.344a5.226 5.226 0 0 1-.672 1.296c-.299.448-.693.949-1.184 1.504l-3.36 3.808.912-.032c.32-.011.629-.016.928-.016h4.016v1.008h-7.152v-.64c0-.096.011-.181.032-.256a.625.625 0 0 1 .144-.224l3.424-3.904c.715-.8 1.237-1.504 1.568-2.112.341-.619.501-1.211.48-1.776-.021-.416-.128-.72-.32-.912-.181-.192-.443-.32-.784-.384a6.428 6.428 0 0 0-1.2-.096c-.331 0-.651.011-.96.032a11.6 11.6 0 0 0-.992.08c-.341.043-.741.107-1.2.192l-.096-.816c.512-.117.949-.203 1.312-.256.373-.064.715-.107 1.024-.128.32-.021.64-.032.96-.032Zm9.417-.016c.917 0 1.643.203 2.176.608.533.395.917 1.013 1.152 1.856.235.843.352 1.931.352 3.264 0 1.323-.117 2.411-.352 3.264-.235.843-.619 1.467-1.152 1.872-.533.395-1.259.592-2.176.592-.907 0-1.632-.197-2.176-.592-.533-.405-.917-1.029-1.152-1.872-.224-.853-.336-1.941-.336-3.264 0-1.333.112-2.421.336-3.264.235-.843.619-1.461 1.152-1.856.544-.405 1.269-.608 2.176-.608Zm0 .928c-.501 0-.923.091-1.264.272-.331.181-.597.464-.8.848-.203.384-.352.88-.448 1.488a16.12 16.12 0 0 0-.128 2.192c0 .843.043 1.573.128 2.192.096.608.245 1.104.448 1.488.203.384.469.667.8.848.341.181.763.272 1.264.272.491 0 .907-.091 1.248-.272.341-.181.613-.464.816-.848.213-.384.363-.88.448-1.488a16.34 16.34 0 0 0 .128-2.192c0-.853-.043-1.584-.128-2.192-.085-.608-.235-1.104-.448-1.488-.203-.384-.475-.667-.816-.848-.341-.181-.757-.272-1.248-.272Zm9.067-.912c.694 0 1.286.059 1.776.176.502.107.886.331 1.152.672.267.331.4.821.4 1.472 0 .48-.069.928-.208 1.344a5.16 5.16 0 0 1-.672 1.296c-.298.448-.693.949-1.184 1.504l-3.36 3.808.912-.032c.32-.011.63-.016.928-.016h4.016v1.008h-7.152v-.64c0-.096.011-.181.032-.256a.625.625 0 0 1 .144-.224l3.424-3.904c.715-.8 1.238-1.504 1.568-2.112.342-.619.502-1.211.48-1.776-.021-.416-.128-.72-.32-.912-.181-.192-.442-.32-.784-.384a6.413 6.413 0 0 0-1.2-.096c-.33 0-.65.011-.96.032a11.6 11.6 0 0 0-.992.08c-.341.043-.741.107-1.2.192l-.096-.816c.512-.117.95-.203 1.312-.256.374-.064.715-.107 1.024-.128.32-.021.64-.032.96-.032Zm9.53.048c.682 0 1.248.059 1.696.176.448.107.794.277 1.04.512.256.235.432.539.528.912.106.363.16.795.16 1.296 0 .491-.054.917-.16 1.28-.107.363-.278.651-.512.864-.224.213-.523.341-.896.384v.064c.458.043.816.187 1.072.432.266.245.453.576.56.992.117.416.176.923.176 1.52 0 .683-.102 1.237-.304 1.664-.203.427-.566.741-1.088.944-.523.192-1.28.288-2.272.288-.971 0-1.723-.096-2.256-.288-.534-.203-.907-.517-1.12-.944-.203-.427-.304-.981-.304-1.664 0-.597.053-1.104.16-1.52.117-.416.309-.747.576-.992.266-.245.624-.389 1.072-.432v-.064c-.374-.043-.678-.171-.912-.384-.235-.213-.406-.501-.512-.864a4.548 4.548 0 0 1-.16-1.28c0-.501.053-.933.16-1.296.106-.363.288-.661.544-.896.256-.245.602-.421 1.04-.528.448-.117 1.018-.176 1.712-.176Zm.016 5.872c-.544 0-.992.037-1.344.112-.352.064-.63.181-.832.352-.192.16-.331.395-.416.704-.075.309-.112.709-.112 1.2 0 .533.074.96.224 1.28.149.32.416.549.8.688.394.139.949.208 1.664.208.725 0 1.274-.069 1.648-.208.384-.139.645-.368.784-.688.149-.32.224-.747.224-1.28 0-.501-.043-.907-.128-1.216-.075-.309-.208-.544-.4-.704-.192-.171-.459-.288-.8-.352a7.35 7.35 0 0 0-1.312-.096Zm-.016-5.008c-.662 0-1.174.069-1.536.208-.352.128-.598.347-.736.656-.139.309-.208.725-.208 1.248 0 .565.069.997.208 1.296.138.299.389.501.752.608.362.107.874.16 1.536.16.693 0 1.21-.053 1.552-.16.352-.117.586-.325.704-.624.128-.299.192-.725.192-1.28 0-.523-.064-.939-.192-1.248-.128-.309-.368-.528-.72-.656-.352-.139-.87-.208-1.552-.208Zm51.916-.912c.693 0 1.285.059 1.776.176.501.107.885.331 1.152.672.267.331.4.821.4 1.472 0 .48-.069.928-.208 1.344a5.226 5.226 0 0 1-.672 1.296c-.299.448-.693.949-1.184 1.504l-3.36 3.808.912-.032c.32-.011.629-.016.928-.016h4.016v1.008h-7.152v-.64c0-.096.011-.181.032-.256a.625.625 0 0 1 .144-.224l3.424-3.904c.715-.8 1.237-1.504 1.568-2.112.341-.619.501-1.211.48-1.776-.021-.416-.128-.72-.32-.912-.181-.192-.443-.32-.784-.384a6.428 6.428 0 0 0-1.2-.096c-.331 0-.651.011-.96.032a11.6 11.6 0 0 0-.992.08c-.341.043-.741.107-1.2.192l-.096-.816c.512-.117.949-.203 1.312-.256.373-.064.715-.107 1.024-.128.32-.021.64-.032.96-.032Zm9.417-.016c.917 0 1.643.203 2.176.608.533.395.917 1.013 1.152 1.856.235.843.352 1.931.352 3.264 0 1.323-.117 2.411-.352 3.264-.235.843-.619 1.467-1.152 1.872-.533.395-1.259.592-2.176.592-.907 0-1.632-.197-2.176-.592-.533-.405-.917-1.029-1.152-1.872-.224-.853-.336-1.941-.336-3.264 0-1.333.112-2.421.336-3.264.235-.843.619-1.461 1.152-1.856.544-.405 1.269-.608 2.176-.608Zm0 .928c-.501 0-.923.091-1.264.272-.331.181-.597.464-.8.848-.203.384-.352.88-.448 1.488a16.12 16.12 0 0 0-.128 2.192c0 .843.043 1.573.128 2.192.096.608.245 1.104.448 1.488.203.384.469.667.8.848.341.181.763.272 1.264.272.491 0 .907-.091 1.248-.272.341-.181.613-.464.816-.848.213-.384.363-.88.448-1.488a16.34 16.34 0 0 0 .128-2.192c0-.853-.043-1.584-.128-2.192-.085-.608-.235-1.104-.448-1.488-.203-.384-.475-.667-.816-.848-.341-.181-.757-.272-1.248-.272Zm8.827-.928c.811 0 1.462.08 1.952.24.491.149.848.411 1.072.784.235.373.352.885.352 1.536 0 .459-.053.885-.16 1.28a2.197 2.197 0 0 1-.512.976c-.234.267-.565.443-.992.528v.064c.736.117 1.243.427 1.52.928.288.491.438 1.104.448 1.84.011.736-.096 1.349-.32 1.84-.213.48-.57.843-1.072 1.088-.501.235-1.184.352-2.048.352-.576 0-1.152-.032-1.728-.096a40.092 40.092 0 0 1-1.696-.192l.096-.832 1.024.096 1.024.064c.342.011.688.016 1.04.016.64 0 1.147-.075 1.52-.224.384-.16.667-.416.848-.768.182-.363.272-.843.272-1.44 0-.416-.064-.789-.192-1.12-.117-.341-.346-.613-.688-.816-.341-.203-.842-.304-1.504-.304h-2.064v-.816l2.064-.016c.47 0 .848-.069 1.136-.208.288-.139.502-.315.64-.528.139-.213.23-.448.272-.704.043-.267.064-.533.064-.8-.01-.501-.096-.88-.256-1.136-.149-.267-.405-.448-.768-.544-.352-.096-.837-.144-1.456-.144-.522 0-1.024.016-1.504.048s-.906.064-1.28.096l-.112-.8c.534-.096 1.04-.165 1.52-.208.491-.053.987-.08 1.488-.08Zm9.579 0c.918 0 1.643.203 2.176.608.534.395.918 1.013 1.152 1.856.235.843.352 1.931.352 3.264 0 1.323-.117 2.411-.352 3.264-.234.843-.618 1.467-1.152 1.872-.533.395-1.258.592-2.176.592-.906 0-1.632-.197-2.176-.592-.533-.405-.917-1.029-1.152-1.872-.224-.853-.336-1.941-.336-3.264 0-1.333.112-2.421.336-3.264.235-.843.619-1.461 1.152-1.856.544-.405 1.27-.608 2.176-.608Zm0 .928c-.501 0-.922.091-1.264.272-.33.181-.597.464-.8.848-.202.384-.352.88-.448 1.488a16.12 16.12 0 0 0-.128 2.192c0 .843.043 1.573.128 2.192.096.608.246 1.104.448 1.488.203.384.47.667.8.848.342.181.763.272 1.264.272.491 0 .907-.091 1.248-.272.342-.181.614-.464.816-.848.214-.384.363-.88.448-1.488.086-.619.128-1.349.128-2.192 0-.853-.042-1.584-.128-2.192-.085-.608-.234-1.104-.448-1.488-.202-.384-.474-.667-.816-.848-.341-.181-.757-.272-1.248-.272ZM89.483 402.94c.547 0 1.054.013 1.52.04.48.027.934.073 1.36.14.427.067.847.16 1.26.28l-.22 1.84c-.44-.027-.873-.047-1.3-.06-.426-.027-.853-.04-1.28-.04-.413-.013-.833-.02-1.26-.02-.64 0-1.18.067-1.62.2-.44.12-.793.36-1.06.72-.253.36-.44.873-.56 1.54-.12.667-.18 1.527-.18 2.58 0 1.24.08 2.22.24 2.94.174.707.454 1.22.84 1.54.387.307.907.46 1.56.46.44 0 .847-.053 1.22-.16a4.709 4.709 0 0 0 1.02-.42c.32-.187.62-.373.9-.56l.3 1.3c-.213.267-.526.56-.94.88-.4.307-.88.573-1.44.8-.56.213-1.193.32-1.9.32-1.04 0-1.893-.247-2.56-.74-.653-.507-1.133-1.287-1.44-2.34-.293-1.067-.44-2.433-.44-4.1 0-1.813.194-3.24.58-4.28.387-1.04 1.014-1.773 1.88-2.2.88-.44 2.054-.66 3.52-.66Zm4.58 6.1V417h-1.84l-.36-2.06-.24-.5v-5.4h2.44Zm5.153-5.84v10.6c0 .387.1.68.3.88.214.187.514.28.9.28h4.88l.12 1.9c-.906.08-1.853.127-2.84.14-.973.027-1.94.04-2.9.04-1.013 0-1.76-.26-2.24-.78-.466-.52-.7-1.18-.7-1.98V403.2h2.48Zm13.074-.26c1.066 0 1.966.12 2.7.36.733.227 1.32.613 1.76 1.16.44.547.76 1.28.96 2.2.213.92.32 2.067.32 3.44 0 1.36-.107 2.507-.32 3.44-.2.92-.52 1.653-.96 2.2-.44.547-1.027.94-1.76 1.18-.734.227-1.634.34-2.7.34-1.04 0-1.927-.113-2.66-.34-.734-.24-1.327-.633-1.78-1.18-.454-.547-.78-1.28-.98-2.2-.2-.933-.3-2.08-.3-3.44 0-1.373.1-2.52.3-3.44.2-.92.526-1.653.98-2.2.453-.547 1.046-.933 1.78-1.16.733-.24 1.62-.36 2.66-.36Zm0 2.04c-.787 0-1.407.16-1.86.48-.44.307-.754.833-.94 1.58-.187.733-.28 1.753-.28 3.06 0 1.307.093 2.333.28 3.08.186.733.5 1.26.94 1.58.453.307 1.073.46 1.86.46.8 0 1.42-.153 1.86-.46.453-.32.773-.847.96-1.58.186-.747.28-1.773.28-3.08 0-1.307-.094-2.327-.28-3.06-.187-.747-.507-1.273-.96-1.58-.44-.32-1.06-.48-1.86-.48Zm13.234-1.94c1.173 0 2.107.107 2.8.32.693.2 1.193.56 1.5 1.08.32.52.48 1.253.48 2.2 0 .987-.187 1.74-.56 2.26-.373.52-.987.82-1.84.9v.08c1.053.093 1.787.453 2.2 1.08.427.627.64 1.493.64 2.6 0 .947-.16 1.68-.48 2.2-.307.52-.8.887-1.48 1.1-.667.2-1.54.3-2.62.3-.84 0-1.573-.007-2.2-.02-.627 0-1.2-.013-1.72-.04-.52-.027-1.06-.06-1.62-.1l.28-1.82c.32.013.913.027 1.78.04.867.013 1.887.02 3.06.02.627 0 1.12-.053 1.48-.16.36-.12.613-.333.76-.64.16-.32.24-.767.24-1.34 0-.64-.08-1.127-.24-1.46a1.337 1.337 0 0 0-.8-.72c-.36-.147-.873-.22-1.54-.22h-4.76V409h4.74c.573 0 1.02-.053 1.34-.16.333-.12.573-.327.72-.62.147-.293.22-.713.22-1.26s-.08-.967-.24-1.26c-.147-.293-.4-.487-.76-.58-.36-.107-.86-.16-1.5-.16h-1.88c-.547 0-1.033.007-1.46.02-.427 0-.813.013-1.16.04l-.28-1.82c.507-.053.987-.087 1.44-.1.467-.027.973-.04 1.52-.04.56-.013 1.207-.02 1.94-.02Zm-2.46.16V417h-2.44v-13.8h2.44Zm16.277 0c.213 0 .4.06.56.18.16.12.273.28.34.48l4.18 13.14h-2.56l-3.16-10.64-.16-.64c-.054-.213-.1-.42-.14-.62h-.56a12.756 12.756 0 0 1-.32 1.26l-3.14 10.64h-2.56l4.18-13.14c.053-.2.16-.36.32-.48a.994.994 0 0 1 .58-.18h2.44Zm2.32 7.9v1.96h-7.1v-1.96h7.1Zm6.833-7.9v10.6c0 .387.1.68.3.88.213.187.513.28.9.28h4.88l.12 1.9a38.06 38.06 0 0 1-2.84.14c-.974.027-1.94.04-2.9.04-1.014 0-1.76-.26-2.24-.78-.467-.52-.7-1.18-.7-1.98V403.2h2.48Zm17.193-.24c.626 0 1.16.02 1.6.06.44.027.846.073 1.22.14.373.053.76.133 1.16.24l-.22 1.86c-.414-.027-.8-.047-1.16-.06-.36-.027-.747-.047-1.16-.06-.4-.013-.88-.02-1.44-.02-.774 0-1.38.153-1.82.46-.44.307-.754.82-.94 1.54-.174.72-.26 1.713-.26 2.98s.086 2.26.26 2.98c.186.72.5 1.233.94 1.54.44.307 1.046.46 1.82.46.893 0 1.64-.013 2.24-.04.613-.04 1.213-.093 1.8-.16l.22 1.84c-.6.187-1.22.32-1.86.4-.64.08-1.44.12-2.4.12-1.387 0-2.494-.227-3.32-.68-.827-.467-1.427-1.22-1.8-2.26-.36-1.04-.54-2.44-.54-4.2 0-1.76.18-3.16.54-4.2.373-1.04.973-1.787 1.8-2.24.826-.467 1.933-.7 3.32-.7Zm16.981.24v8.4c0 1.373-.166 2.473-.5 3.3-.333.827-.88 1.427-1.64 1.8-.76.373-1.78.56-3.06.56-1.333 0-2.4-.187-3.2-.56-.8-.373-1.38-.973-1.74-1.8-.346-.827-.52-1.927-.52-3.3v-8.4h2.5v8.4c0 .907.087 1.627.26 2.16.187.533.487.913.9 1.14.414.213.974.32 1.68.32.707 0 1.26-.107 1.66-.32.414-.227.707-.607.88-1.14.187-.533.28-1.253.28-2.16v-8.4h2.5Zm16.636 0c.626 0 .946.32.96.96l.54 12.84h-2.38l-.48-11.82h-.38l-2.58 9.26c-.12.547-.46.82-1.02.82h-1.76c-.574 0-.927-.273-1.06-.82l-2.58-9.26h-.38l-.44 11.82h-2.38l.54-12.84c.026-.64.346-.96.96-.96h2.5c.533 0 .866.273 1 .82l2.12 7.56c.093.32.166.64.22.96.066.32.14.64.22.96h.3c.08-.32.153-.64.22-.96.066-.32.14-.647.22-.98l2.12-7.54c.12-.547.46-.82 1.02-.82h2.5Zm14.888 0v8.4c0 1.373-.167 2.473-.5 3.3-.334.827-.88 1.427-1.64 1.8-.76.373-1.78.56-3.06.56-1.334 0-2.4-.187-3.2-.56-.8-.373-1.38-.973-1.74-1.8-.347-.827-.52-1.927-.52-3.3v-8.4h2.5v8.4c0 .907.086 1.627.26 2.16.186.533.486.913.9 1.14.413.213.973.32 1.68.32.706 0 1.26-.107 1.66-.32.413-.227.706-.607.88-1.14.186-.533.28-1.253.28-2.16v-8.4h2.5Zm5.415 0v10.6c0 .387.1.68.3.88.213.187.513.28.9.28h4.88l.12 1.9c-.907.08-1.853.127-2.84.14-.973.027-1.94.04-2.9.04-1.013 0-1.76-.26-2.24-.78-.467-.52-.7-1.18-.7-1.98V403.2h2.48Zm14.167 0c.214 0 .4.06.56.18.16.12.274.28.34.48l4.18 13.14h-2.56l-3.16-10.64-.16-.64c-.053-.213-.1-.42-.14-.62h-.56a12.475 12.475 0 0 1-.32 1.26l-3.14 10.64h-2.56l4.18-13.14c.054-.2.16-.36.32-.48a.998.998 0 0 1 .58-.18h2.44Zm2.32 7.9v1.96h-7.1v-1.96h7.1Zm8.861-7.9V417h-2.5v-13.8h2.5Zm4.28 0v2.04h-11.06v-2.04h11.06Zm4.436 0V417h-2.5v-13.8h2.5Zm13.846 0-3.94 13.1c-.067.2-.18.367-.34.5a.88.88 0 0 1-.58.2h-2.36a.877.877 0 0 1-.58-.2.954.954 0 0 1-.32-.5l-3.94-13.1h2.58l2.82 10.38.2.76c.066.253.12.507.16.76h.52c.066-.253.126-.507.18-.76.066-.267.133-.527.2-.78l2.82-10.36h2.58Zm4.499-.04h2.12c.733 0 1.453.013 2.16.04.707.027 1.373.067 2 .12l-.12 1.86h-5.4c-.373 0-.653.093-.84.28-.173.187-.26.48-.26.88v7.52c0 .4.087.693.26.88.187.187.467.28.84.28h5.4l.12 1.86c-.627.053-1.293.093-2 .12-.707.013-1.427.02-2.16.02-.72.013-1.427.02-2.12.02-.853 0-1.54-.233-2.06-.7-.507-.48-.767-1.12-.78-1.92v-8.64c.013-.8.273-1.433.78-1.9.52-.48 1.207-.72 2.06-.72Zm-2.48 5.7h7.88v1.84h-7.88v-1.84Zm19.781-5.92c.68.013 1.393.053 2.14.12.76.067 1.5.193 2.22.38l-.16 1.7c-.573-.013-1.24-.027-2-.04a59.83 59.83 0 0 0-2.16-.04c-.427 0-.793.013-1.1.04-.293.027-.533.093-.72.2a.98.98 0 0 0-.42.5c-.08.213-.12.513-.12.9 0 .6.12 1.027.36 1.28.253.253.66.453 1.22.6l2.72.8c1.093.333 1.847.82 2.26 1.46.413.627.62 1.467.62 2.52 0 .787-.093 1.433-.28 1.94-.187.507-.473.9-.86 1.18-.387.28-.893.48-1.52.6s-1.38.18-2.26.18c-.453 0-1.08-.027-1.88-.08-.787-.053-1.687-.187-2.7-.4l.16-1.8c.787.027 1.447.053 1.98.08.533.013.993.02 1.38.02h1.08c.613 0 1.093-.04 1.44-.12.347-.08.587-.247.72-.5.147-.253.22-.62.22-1.1 0-.413-.053-.733-.16-.96a1.09 1.09 0 0 0-.48-.56 3.47 3.47 0 0 0-.88-.34l-2.82-.86c-1.04-.32-1.773-.793-2.2-1.42-.413-.627-.62-1.467-.62-2.52 0-.787.093-1.427.28-1.92.187-.507.473-.887.86-1.14.387-.267.88-.447 1.48-.54.613-.107 1.347-.16 2.2-.16Zm12.904.26V417h-2.5v-13.8h2.5Zm4.28 0v2.04h-11.06v-2.04h11.06Zm6.961-.26c1.066 0 1.966.12 2.7.36.733.227 1.32.613 1.76 1.16.44.547.76 1.28.96 2.2.213.92.32 2.067.32 3.44 0 1.36-.107 2.507-.32 3.44-.2.92-.52 1.653-.96 2.2-.44.547-1.027.94-1.76 1.18-.734.227-1.634.34-2.7.34-1.04 0-1.927-.113-2.66-.34-.734-.24-1.327-.633-1.78-1.18-.454-.547-.78-1.28-.98-2.2-.2-.933-.3-2.08-.3-3.44 0-1.373.1-2.52.3-3.44.2-.92.526-1.653.98-2.2.453-.547 1.046-.933 1.78-1.16.733-.24 1.62-.36 2.66-.36Zm0 2.04c-.787 0-1.407.16-1.86.48-.44.307-.754.833-.94 1.58-.187.733-.28 1.753-.28 3.06 0 1.307.093 2.333.28 3.08.186.733.5 1.26.94 1.58.453.307 1.073.46 1.86.46.8 0 1.42-.153 1.86-.46.453-.32.773-.847.96-1.58.186-.747.28-1.773.28-3.08 0-1.307-.094-2.327-.28-3.06-.187-.747-.507-1.273-.96-1.58-.44-.32-1.06-.48-1.86-.48Zm13.414-1.96c1.147 0 2.073.12 2.78.36.72.24 1.24.653 1.56 1.24.333.573.5 1.387.5 2.44 0 .693-.087 1.287-.26 1.78-.16.48-.433.867-.82 1.16-.373.28-.88.46-1.52.54v.1c.227.053.46.16.7.32.253.147.48.36.68.64.213.28.373.64.48 1.08l1.26 4.32h-2.64l-1.14-4.26c-.147-.48-.347-.813-.6-1-.253-.2-.6-.3-1.04-.3h-2.22a150.89 150.89 0 0 1-1.54-.04c-.4-.013-.753-.02-1.06-.02l.06-1.9h4.76c.6-.013 1.073-.08 1.42-.2.347-.133.593-.36.74-.68.147-.333.22-.8.22-1.4 0-.587-.073-1.04-.22-1.36a1.213 1.213 0 0 0-.74-.66c-.347-.133-.82-.2-1.42-.2-1.173 0-2.18.007-3.02.02-.84.013-1.413.027-1.72.04l-.28-1.84a27.915 27.915 0 0 1 3.06-.16c.56-.013 1.233-.02 2.02-.02Zm-2.62.18V417h-2.46v-13.8h2.46Zm16.315 0c.214 0 .4.06.56.18.16.12.274.28.34.48l4.18 13.14h-2.56l-3.16-10.64-.16-.64c-.053-.213-.1-.42-.14-.62h-.56a12.475 12.475 0 0 1-.32 1.26l-3.14 10.64h-2.56l4.18-13.14c.054-.2.16-.36.32-.48a.998.998 0 0 1 .58-.18h2.44Zm2.32 7.9v1.96h-7.1v-1.96h7.1Zm9.795-8.16c.547 0 1.054.013 1.52.04.48.027.934.073 1.36.14.427.067.847.16 1.26.28l-.22 1.84c-.44-.027-.873-.047-1.3-.06-.426-.027-.853-.04-1.28-.04-.413-.013-.833-.02-1.26-.02-.64 0-1.18.067-1.62.2-.44.12-.793.36-1.06.72-.253.36-.44.873-.56 1.54-.12.667-.18 1.527-.18 2.58 0 1.24.08 2.22.24 2.94.174.707.454 1.22.84 1.54.387.307.907.46 1.56.46.44 0 .847-.053 1.22-.16a4.68 4.68 0 0 0 1.02-.42c.32-.187.62-.373.9-.56l.3 1.3c-.213.267-.526.56-.94.88-.4.307-.88.573-1.44.8-.56.213-1.193.32-1.9.32-1.04 0-1.893-.247-2.56-.74-.653-.507-1.133-1.287-1.44-2.34-.293-1.067-.44-2.433-.44-4.1 0-1.813.194-3.24.58-4.28.387-1.04 1.014-1.773 1.88-2.2.88-.44 2.054-.66 3.52-.66Zm4.58 6.1V417h-1.84l-.36-2.06-.24-.5v-5.4h2.44Zm5.433-5.88h2.12c.734 0 1.454.013 2.16.04.707.027 1.374.067 2 .12l-.12 1.86h-5.4c-.373 0-.653.093-.84.28-.173.187-.26.48-.26.88v7.52c0 .4.087.693.26.88.187.187.467.28.84.28h5.4l.12 1.86c-.626.053-1.293.093-2 .12-.706.013-1.426.02-2.16.02-.72.013-1.426.02-2.12.02-.853 0-1.54-.233-2.06-.7-.506-.48-.766-1.12-.78-1.92v-8.64c.014-.8.274-1.433.78-1.9.52-.48 1.207-.72 2.06-.72Zm-2.48 5.7h7.88v1.84h-7.88v-1.84Zm20.742-5.84c1.04 0 1.92.12 2.64.36.733.227 1.32.613 1.76 1.16.453.533.78 1.26.98 2.18.2.907.3 2.033.3 3.38s-.1 2.48-.3 3.4c-.2.907-.527 1.633-.98 2.18-.44.533-1.027.92-1.76 1.16-.72.227-1.6.34-2.64.34-1 0-1.927-.02-2.78-.06a63.856 63.856 0 0 1-2.42-.12l1.04-1.92c.533.027 1.146.053 1.84.08.693.013 1.466.02 2.32.02.773 0 1.38-.147 1.82-.44.453-.307.773-.827.96-1.56.186-.747.28-1.773.28-3.08 0-1.307-.094-2.327-.28-3.06-.187-.747-.507-1.273-.96-1.58-.44-.307-1.047-.46-1.82-.46-.827 0-1.567.007-2.22.02-.64.013-1.267.02-1.88.02l-1.1-1.84c.76-.053 1.56-.093 2.4-.12.853-.04 1.786-.06 2.8-.06Zm-2.7.18V417h-2.5v-13.8h2.5Zm13.716-.04h2.12c.733 0 1.453.013 2.16.04.706.027 1.373.067 2 .12l-.12 1.86h-5.4c-.374 0-.654.093-.84.28-.174.187-.26.48-.26.88v7.52c0 .4.086.693.26.88.186.187.466.28.84.28h5.4l.12 1.86c-.627.053-1.294.093-2 .12-.707.013-1.427.02-2.16.02-.72.013-1.427.02-2.12.02-.854 0-1.54-.233-2.06-.7-.507-.48-.767-1.12-.78-1.92v-8.64c.013-.8.273-1.433.78-1.9.52-.48 1.206-.72 2.06-.72Zm-2.48 5.7h7.88v1.84h-7.88v-1.84Zm16.226-5.84c1.213 0 2.167.133 2.86.4.693.253 1.187.7 1.48 1.34.307.627.46 1.52.46 2.68 0 1.16-.147 2.06-.44 2.7a2.425 2.425 0 0 1-1.42 1.34c-.653.253-1.527.38-2.62.38a23.64 23.64 0 0 1-3.28-.22 22.25 22.25 0 0 1-1.2-.2 5.843 5.843 0 0 1-.7-.2l.06-1.34h4.76c.587-.013 1.047-.087 1.38-.22.347-.133.587-.373.72-.72.147-.36.22-.867.22-1.52s-.073-1.153-.22-1.5a1.198 1.198 0 0 0-.72-.74c-.333-.147-.793-.22-1.38-.22-1.173 0-2.18.007-3.02.02-.84.013-1.413.033-1.72.06l-.28-1.86a27.51 27.51 0 0 1 3.04-.16c.56-.013 1.233-.02 2.02-.02Zm-2.56.18V417h-2.5v-13.8h2.5Zm12.069 0v10.6c0 .387.1.68.3.88.213.187.513.28.9.28h4.88l.12 1.9c-.907.08-1.853.127-2.84.14-.973.027-1.94.04-2.9.04-1.013 0-1.76-.26-2.24-.78-.467-.52-.7-1.18-.7-1.98V403.2h2.48Zm13.073-.26c1.067 0 1.967.12 2.7.36.734.227 1.32.613 1.76 1.16.44.547.76 1.28.96 2.2.214.92.32 2.067.32 3.44 0 1.36-.106 2.507-.32 3.44-.2.92-.52 1.653-.96 2.2-.44.547-1.026.94-1.76 1.18-.733.227-1.633.34-2.7.34-1.04 0-1.926-.113-2.66-.34-.733-.24-1.326-.633-1.78-1.18-.453-.547-.78-1.28-.98-2.2-.2-.933-.3-2.08-.3-3.44 0-1.373.1-2.52.3-3.44.2-.92.527-1.653.98-2.2.454-.547 1.047-.933 1.78-1.16.734-.24 1.62-.36 2.66-.36Zm0 2.04c-.786 0-1.406.16-1.86.48-.44.307-.753.833-.94 1.58-.186.733-.28 1.753-.28 3.06 0 1.307.094 2.333.28 3.08.187.733.5 1.26.94 1.58.454.307 1.074.46 1.86.46.8 0 1.42-.153 1.86-.46.454-.32.774-.847.96-1.58.187-.747.28-1.773.28-3.08 0-1.307-.093-2.327-.28-3.06-.186-.747-.506-1.273-.96-1.58-.44-.32-1.06-.48-1.86-.48Zm18.203-1.78-4.66 9.28h-2.32l-4.68-9.28h2.62l2.56 5.4c.12.253.22.527.3.82.093.293.187.573.28.84h.16c.08-.267.167-.547.26-.84.093-.293.193-.567.3-.82l2.56-5.4h2.62Zm-4.58 7.7v6.1h-2.5v-6.1h2.5Zm19.778-7.7c.627 0 .947.32.96.96l.54 12.84h-2.38l-.48-11.82h-.38l-2.58 9.26c-.12.547-.46.82-1.02.82h-1.76c-.573 0-.927-.273-1.06-.82l-2.58-9.26h-.38l-.44 11.82h-2.38l.54-12.84c.027-.64.347-.96.96-.96h2.5c.533 0 .867.273 1 .82l2.12 7.56c.093.32.167.64.22.96.067.32.14.64.22.96h.3c.08-.32.153-.64.22-.96.067-.32.14-.647.22-.98l2.12-7.54c.12-.547.46-.82 1.02-.82h2.5Zm7.048-.04h2.12c.733 0 1.453.013 2.16.04.707.027 1.373.067 2 .12l-.12 1.86h-5.4c-.373 0-.653.093-.84.28-.173.187-.26.48-.26.88v7.52c0 .4.087.693.26.88.187.187.467.28.84.28h5.4l.12 1.86c-.627.053-1.293.093-2 .12-.707.013-1.427.02-2.16.02-.72.013-1.427.02-2.12.02-.853 0-1.54-.233-2.06-.7-.507-.48-.767-1.12-.78-1.92v-8.64c.013-.8.273-1.433.78-1.9.52-.48 1.207-.72 2.06-.72Zm-2.48 5.7h7.88v1.84h-7.88v-1.84Zm22.386-5.66v12.86c0 .627-.306.94-.92.94h-1.7c-.28 0-.493-.06-.64-.18a1.85 1.85 0 0 1-.4-.58l-4.18-8.32c-.146-.293-.3-.613-.46-.96-.146-.36-.266-.7-.36-1.02h-.26c.027.333.047.673.06 1.02.027.333.04.667.04 1V417h-2.4v-12.86c0-.627.307-.94.92-.94h1.66c.28 0 .494.067.64.2.147.12.28.307.4.56l4.06 8.1c.16.293.32.627.48 1 .174.36.334.727.48 1.1h.3c-.026-.387-.053-.76-.08-1.12-.013-.373-.02-.74-.02-1.1v-8.74h2.38Zm8.717 0V417h-2.5v-13.8h2.5Zm4.28 0v2.04h-11.06v-2.04h11.06Zm6.176-.26c.68.013 1.393.053 2.14.12.76.067 1.5.193 2.22.38l-.16 1.7c-.574-.013-1.24-.027-2-.04a59.83 59.83 0 0 0-2.16-.04c-.427 0-.794.013-1.1.04-.294.027-.534.093-.72.2a.98.98 0 0 0-.42.5c-.08.213-.12.513-.12.9 0 .6.12 1.027.36 1.28.253.253.66.453 1.22.6l2.72.8c1.093.333 1.846.82 2.26 1.46.413.627.62 1.467.62 2.52 0 .787-.094 1.433-.28 1.94-.187.507-.474.9-.86 1.18-.387.28-.894.48-1.52.6-.627.12-1.38.18-2.26.18-.454 0-1.08-.027-1.88-.08-.787-.053-1.687-.187-2.7-.4l.16-1.8c.786.027 1.446.053 1.98.08.533.013.993.02 1.38.02h1.08c.613 0 1.093-.04 1.44-.12.346-.08.586-.247.72-.5.146-.253.22-.62.22-1.1 0-.413-.054-.733-.16-.96a1.1 1.1 0 0 0-.48-.56 3.47 3.47 0 0 0-.88-.34l-2.82-.86c-1.04-.32-1.774-.793-2.2-1.42-.414-.627-.62-1.467-.62-2.52 0-.787.093-1.427.28-1.92.186-.507.473-.887.86-1.14.386-.267.88-.447 1.48-.54.613-.107 1.346-.16 2.2-.16Z" fill="#fff"/><path d="M43.55 292.4c127.84 0 359.5-31.64 509.66-291.46" stroke="#FFCA18" stroke-miterlimit="10"/><path d="m554.99 5.88-.98.2-1.02-4.82-4.74 1.36-.27-.96L553.75 0l1.24 5.88Z" fill="#FFCA18"/></svg>