<svg xmlns="http://www.w3.org/2000/svg" viewBox="0 0 597.3 427.7"><defs><style>.cls-1{fill:#ffca18}.cls-2{font-size:16px;font-family:Exo2-Light,&quot;Exo 2&quot;;font-weight:300;fill:#fff}</style></defs><g id="Layer_2" data-name="Layer 2"><g id="Layer_1-2" data-name="Layer 1"><rect class="cls-1" x="3.65" y="332.86" width="31.44" height="4.61" rx="2"/><rect class="cls-1" x="43.55" y="329.65" width="31.44" height="7.82" rx="2"/><rect class="cls-1" x="83.44" y="325.06" width="31.44" height="12.4" rx="2"/><rect class="cls-1" x="123.34" y="319.64" width="31.44" height="17.82" rx="2"/><rect class="cls-1" x="163.24" y="312.66" width="31.44" height="24.8" rx="2"/><rect class="cls-1" x="203.14" y="304.98" width="31.44" height="32.48" rx="2"/><rect class="cls-1" x="243.03" y="295.72" width="31.44" height="41.74" rx="2"/><rect class="cls-1" x="282.93" y="284.06" width="31.44" height="53.4" rx="2"/><rect class="cls-1" x="322.83" y="267.74" width="31.44" height="69.72" rx="2"/><rect class="cls-1" x="362.73" y="247.34" width="31.44" height="90.12" rx="2"/><rect class="cls-1" x="402.62" y="220.52" width="31.44" height="116.94" rx="2"/><rect class="cls-1" x="442.52" y="186.13" width="31.44" height="151.33" rx="2"/><rect class="cls-1" x="482.42" y="147.66" width="31.44" height="189.81" rx="2"/><rect class="cls-1" x="522.32" y="99.27" width="31.44" height="238.19" rx="2"/><rect class="cls-1" x="562.21" y="30.49" width="31.44" height="306.98" rx="2"/><text class="cls-2" transform="translate(2.44 363.61)">2016</text><text class="cls-2" transform="translate(81.92 363.61)">2018</text><text class="cls-2" transform="translate(160.46 363.61)">2020</text><text class="cls-2" transform="translate(240.54 363.61)">2022</text><text class="cls-2" transform="translate(319.95 363.61)">2024</text><text class="cls-2" transform="translate(400.06 363.61)">2026</text><text class="cls-2" transform="translate(479.54 363.61)">2028</text><text class="cls-2" transform="translate(559.47 363.61)">2030</text><text transform="translate(79.79 421.1)" style="font-size:24px;font-family:Exo2-Bold,&quot;Exo 2&quot;;font-weight:700;fill:#fff">Global cumulative storage deployments</text><path d="M43.55 292.4c127.84 0 359.5-31.64 509.66-291.46" style="fill:none;stroke:#ffca18;stroke-miterlimit:10"/><path class="cls-1" d="m554.99 5.88-.98.2-1.02-4.82-4.74 1.36-.27-.96L553.75 0l1.24 5.88z"/></g></g></svg>