<svg width="331" height="83" fill="none" xmlns="http://www.w3.org/2000/svg"><path d="M68.36 21.277v8.23L34.18 50.084 6.836 33.628v8.228L34.18 58.314l20.508-12.35v8.228l-17.097 10.29v16.457l-3.411 2.046L0 62.421v-8.229L30.755 72.71v-8.228L0 45.964V21.277l34.18 20.58 34.18-20.58Z" fill="#FFCA18"/><path d="M68.36 37.735V62.42L44.426 76.818v-8.23L61.523 58.3V41.856l6.836-4.121ZM61.524 17.17l-6.836 4.107L34.18 8.942 13.672 21.277 6.836 17.17 34.18.713 61.524 17.17Zm70.212 57.804h5.04v7.852h-1.546v-6.43h-3.494v6.43h-1.56v-6.43h-1.615V74.96h1.615v-.639c0-.972.237-1.698.696-2.162.46-.465 1.184-.711 2.159-.711h.821v1.437h-.821c-.46 0-.78.101-.989.319-.209.218-.306.566-.306 1.045v.725Zm4.956-1.553a.927.927 0 0 1-.682.29.926.926 0 0 1-.682-.29.964.964 0 0 1-.293-.71c0-.276.098-.509.293-.712a.949.949 0 0 1 .682-.29.95.95 0 0 1 .682.29c.181.189.279.436.279.711 0 .29-.098.523-.279.712Zm3.37 1.553v1.117a2.967 2.967 0 0 1 1.281-1.059c.515-.232 1.072-.261 1.67-.116v1.538c-.821-.232-1.517-.16-2.088.218-.571.377-.863.958-.863 1.712v4.441h-1.546v-7.851h1.546Zm3.397 5.791 1.545-.334c.139.842.682 1.263 1.657 1.263.487 0 .891-.102 1.183-.305.307-.203.446-.45.446-.755 0-.334-.153-.58-.473-.74-.321-.174-.697-.29-1.156-.363a16.235 16.235 0 0 1-1.364-.29 2.286 2.286 0 0 1-1.156-.668c-.32-.333-.473-.783-.473-1.35 0-.681.278-1.262.849-1.712.571-.45 1.281-.682 2.13-.682s1.559.203 2.102.595c.543.406.877.943.975 1.625l-1.545.334c-.112-.841-.627-1.262-1.532-1.262-.418 0-.752.087-1.016.276-.265.188-.404.42-.404.725 0 .261.111.479.334.639.223.16.515.275.849.319.348.058.71.13 1.114.232.404.102.766.218 1.114.349.348.13.626.362.849.682.223.333.334.74.334 1.233 0 .682-.306 1.263-.919 1.713-.612.45-1.378.682-2.283.682-.891 0-1.629-.203-2.186-.595a2.53 2.53 0 0 1-.974-1.611Zm8.548-4.354h-1.615v-1.437h1.615V72.42l1.546-.508v3.062h2.13v1.437h-2.13v3.628c0 .48.097.828.306 1.045.209.218.529.32.989.32h.821v1.436h-.821c-.975 0-1.699-.232-2.158-.71-.46-.465-.697-1.191-.697-2.163V76.41h.014Zm9.091 4.354 1.546-.334c.139.842.682 1.263 1.657 1.263.487 0 .891-.102 1.183-.305.306-.203.446-.45.446-.755 0-.334-.154-.58-.474-.74-.32-.174-.696-.29-1.155-.363a16.342 16.342 0 0 1-1.365-.29 2.288 2.288 0 0 1-1.155-.668c-.321-.333-.474-.783-.474-1.35 0-.681.279-1.262.85-1.712.57-.45 1.28-.682 2.13-.682.849 0 1.559.203 2.102.595.543.406.877.943.975 1.625l-1.546.334c-.111-.841-.626-1.262-1.531-1.262-.418 0-.752.087-1.017.276-.264.188-.403.42-.403.725 0 .261.111.479.334.639.222.16.515.275.849.319.348.058.71.13 1.114.232.404.102.766.218 1.114.349.348.13.626.362.849.682.223.333.334.74.334 1.233 0 .682-.306 1.263-.919 1.713-.612.45-1.378.682-2.283.682-.891 0-1.629-.203-2.186-.595a2.536 2.536 0 0 1-.975-1.611Zm7.629-1.19v-4.6h1.546v4.6c0 .58.181 1.045.529 1.393.348.348.807.537 1.35.537s.989-.174 1.337-.537c.348-.348.529-.813.529-1.393v-4.6h1.545v4.6c0 1.001-.32 1.828-.96 2.467-.641.638-1.462.958-2.451.958-1.002 0-1.823-.32-2.464-.958-.64-.639-.961-1.466-.961-2.467Zm8.105 1.19 1.545-.334c.139.842.682 1.263 1.657 1.263.487 0 .891-.102 1.183-.305.307-.203.446-.45.446-.755 0-.334-.153-.58-.474-.74-.32-.174-.696-.29-1.155-.363a16.342 16.342 0 0 1-1.365-.29 2.288 2.288 0 0 1-1.155-.668c-.32-.333-.473-.783-.473-1.35 0-.681.278-1.262.849-1.712.571-.45 1.281-.682 2.13-.682s1.559.203 2.102.595c.543.406.877.943.975 1.625l-1.546.334c-.111-.841-.626-1.262-1.531-1.262-.418 0-.752.087-1.016.276-.265.188-.404.42-.404.725 0 .261.111.479.334.639.223.16.515.275.849.319.348.058.71.13 1.114.232.404.102.766.218 1.114.349.348.13.626.362.849.682.223.333.334.74.334 1.233 0 .682-.306 1.263-.919 1.713-.612.45-1.378.682-2.283.682-.891 0-1.629-.203-2.186-.595a2.474 2.474 0 0 1-.974-1.611Zm8.547-4.354h-1.615v-1.437h1.615V72.42l1.545-.508v3.062h2.131v1.437h-2.131v3.628c0 .48.098.828.307 1.045.209.218.529.32.988.32h.822v1.436h-.822c-.974 0-1.698-.232-2.158-.71-.459-.465-.696-1.191-.696-2.163V76.41h.014Zm8.146-1.581c.904 0 1.642.246 2.213.74.571.493.849 1.204.849 2.118v5.152h-1.545v-1.175c-.613.885-1.49 1.32-2.631 1.32-.724 0-1.309-.203-1.755-.595-.459-.406-.682-.929-.682-1.596 0-.77.265-1.35.78-1.727.515-.392 1.183-.624 1.991-.711l1.462-.16c.557-.058.821-.305.821-.77 0-.377-.139-.681-.418-.913-.278-.233-.64-.334-1.099-.334-.46 0-.85.116-1.17.363-.32.246-.529.61-.612 1.073l-1.532-.377c.139-.74.501-1.32 1.1-1.756.626-.435 1.364-.653 2.228-.653Zm-.766 6.85c.64 0 1.183-.219 1.629-.669.445-.45.668-.972.668-1.567v-.305c-.125.117-.418.204-.849.262l-1.434.188c-.376.058-.669.174-.891.349-.223.174-.334.42-.334.725s.111.552.334.74c.222.189.515.276.877.276Zm5.61-8.259a.963.963 0 0 1-.292-.71c0-.276.097-.509.292-.712a.951.951 0 0 1 .683-.29.95.95 0 0 1 .682.29c.181.189.278.436.278.711 0 .276-.097.508-.278.712a.927.927 0 0 1-.682.29.876.876 0 0 1-.683-.29Zm1.448 9.42h-1.545v-7.852h1.545v7.851Zm5.763-8.011c.919 0 1.671.318 2.256.942.584.624.877 1.423.877 2.38v4.688h-1.546V78.4c0-.61-.195-1.104-.57-1.496a1.954 1.954 0 0 0-1.448-.595c-.585 0-1.058.204-1.448.595-.39.392-.585.9-.585 1.495v4.441h-1.545v-7.85h1.545v1.117c.585-.856 1.42-1.277 2.464-1.277Zm7.909 0c.905 0 1.642.246 2.213.74.571.493.85 1.204.85 2.118v5.152h-1.546v-1.175c-.612.885-1.49 1.32-2.631 1.32-.724 0-1.309-.203-1.754-.595-.46-.406-.683-.929-.683-1.596 0-.77.265-1.35.78-1.727.515-.392 1.183-.624 1.991-.711l1.462-.16c.557-.058.821-.305.821-.77 0-.377-.139-.681-.417-.913-.279-.233-.641-.334-1.1-.334-.46 0-.85.116-1.17.363-.32.246-.529.61-.612 1.073l-1.532-.377c.139-.74.501-1.32 1.1-1.756.613-.435 1.351-.653 2.228-.653Zm-.766 6.85c.64 0 1.183-.219 1.629-.669.445-.45.668-.972.668-1.567v-.305c-.125.117-.418.204-.849.262l-1.434.188c-.376.058-.668.174-.891.349-.223.174-.334.42-.334.725s.111.552.334.74c.223.189.501.276.877.276Zm9.733-6.85c1.058 0 1.935.391 2.645 1.175s1.072 1.756 1.072 2.917c0 1.161-.362 2.133-1.072 2.903-.71.783-1.601 1.175-2.645 1.175-1.128 0-2.019-.435-2.687-1.32v1.175h-1.546V71.477h1.546v4.688c.682-.9 1.573-1.336 2.687-1.336Zm-.279 6.66c.682 0 1.253-.246 1.699-.74.445-.493.682-1.102.682-1.842 0-.755-.223-1.365-.682-1.858a2.237 2.237 0 0 0-1.699-.74c-.682 0-1.267.246-1.712.74-.446.493-.682 1.117-.682 1.858 0 .74.222 1.35.682 1.843.459.493 1.03.74 1.712.74Zm7.003 1.35h-1.546V71.462h1.546V82.84Zm5.36-8.01c1.211 0 2.2.449 2.952 1.349.752.9 1.072 1.988.933 3.28h-6.238c.112.638.39 1.146.836 1.552.445.392 1.002.596 1.642.596.488 0 .933-.131 1.323-.378a2.5 2.5 0 0 0 .905-1.016l1.295.595a3.898 3.898 0 0 1-1.434 1.597c-.627.406-1.337.595-2.144.595-1.128 0-2.075-.392-2.854-1.176-.766-.784-1.156-1.741-1.156-2.902s.376-2.134 1.128-2.917c.779-.784 1.698-1.176 2.812-1.176Zm0 1.392c-.571 0-1.058.189-1.476.552-.417.363-.696.841-.835 1.422h4.636a2.552 2.552 0 0 0-.821-1.422 2.223 2.223 0 0 0-1.504-.552Zm13.351-1.392c1.058 0 1.936.391 2.646 1.175s1.072 1.756 1.072 2.917c0 1.161-.362 2.133-1.072 2.903-.71.783-1.601 1.175-2.646 1.175-1.127 0-2.018-.435-2.687-1.32v1.175h-1.545V71.477h1.545v4.688c.682-.9 1.574-1.336 2.687-1.336Zm-.278 6.66c.682 0 1.253-.246 1.698-.74.446-.493.683-1.102.683-1.842 0-.755-.223-1.365-.683-1.858a2.235 2.235 0 0 0-1.698-.74c-.682 0-1.267.246-1.713.74-.459.493-.682 1.117-.682 1.858 0 .74.223 1.35.682 1.843.46.508 1.031.74 1.713.74Zm8.548-6.66c.905 0 1.642.246 2.213.74.571.493.85 1.204.85 2.118v5.152h-1.546v-1.175c-.612.885-1.49 1.32-2.631 1.32-.724 0-1.309-.203-1.755-.595-.459-.406-.682-.929-.682-1.596 0-.77.265-1.35.78-1.727.515-.392 1.183-.624 1.991-.711l1.462-.16c.557-.058.821-.305.821-.77 0-.377-.139-.681-.417-.913-.279-.233-.641-.334-1.1-.334-.46 0-.85.116-1.17.363-.32.246-.529.61-.612 1.073l-1.532-.377c.139-.74.501-1.32 1.1-1.756.613-.435 1.35-.653 2.228-.653Zm-.766 6.85c.64 0 1.183-.219 1.629-.669.445-.45.668-.972.668-1.567v-.305c-.125.117-.418.204-.849.262l-1.434.188c-.376.058-.669.174-.891.349-.223.174-.334.42-.334.725s.111.552.334.74c.222.189.501.276.877.276Zm6.07-5.268h-1.615v-1.437h1.615V72.42l1.546-.508v3.062h3.954V72.42l1.545-.508v3.062h2.117v1.437h-2.117v3.628c0 .479.098.827.307 1.045.208.217.529.319.988.319h.808v1.437h-.808c-.975 0-1.698-.232-2.158-.712-.459-.464-.696-1.19-.696-2.162v-3.555h-3.954v3.628c0 .479.097.827.306 1.045.209.217.529.319.989.319h.821v1.437h-.821c-.975 0-1.699-.232-2.158-.712-.46-.464-.696-1.19-.696-2.162v-3.555h.027Zm13.938-1.582c1.211 0 2.199.449 2.951 1.349.752.9 1.072 1.988.933 3.28h-6.237c.111.638.39 1.146.835 1.552.446.392 1.002.596 1.643.596.487 0 .933-.131 1.323-.378.389-.246.696-.595.905-1.016l1.294.595a3.891 3.891 0 0 1-1.434 1.597c-.626.406-1.336.595-2.144.595-1.127 0-2.074-.392-2.84-1.176-.766-.784-1.156-1.741-1.156-2.902s.376-2.134 1.128-2.917c.752-.784 1.685-1.176 2.799-1.176Zm0 1.392c-.571 0-1.058.189-1.476.552-.418.363-.696.841-.836 1.422h4.637a2.553 2.553 0 0 0-.822-1.422 2.272 2.272 0 0 0-1.503-.552Zm6.905-1.248v1.118a2.968 2.968 0 0 1 1.281-1.06c.515-.232 1.072-.26 1.67-.116v1.539c-.821-.233-1.517-.16-2.088.217-.571.378-.863.958-.863 1.713v4.44h-1.546v-7.85h1.546Zm4.218-1.553a.963.963 0 0 1-.292-.71c0-.276.097-.509.292-.712a.951.951 0 0 1 .683-.29.95.95 0 0 1 .682.29c.181.189.278.436.278.711 0 .276-.097.508-.278.712a.927.927 0 0 1-.682.29.896.896 0 0 1-.683-.29Zm1.448 9.42h-1.545v-7.852h1.545v7.851Zm5.375-8.011c1.211 0 2.2.449 2.952 1.349.751.9 1.072 1.988.932 3.28h-6.237c.111.638.39 1.146.835 1.552.446.392 1.003.596 1.643.596.487 0 .933-.131 1.323-.378a2.5 2.5 0 0 0 .905-1.016l1.295.595a3.898 3.898 0 0 1-1.434 1.597c-.627.406-1.337.595-2.144.595-1.128 0-2.075-.392-2.841-1.176-.765-.784-1.155-1.741-1.155-2.902s.376-2.134 1.127-2.917c.752-.784 1.685-1.176 2.799-1.176Zm0 1.392c-.571 0-1.058.189-1.476.552-.418.363-.696.841-.835 1.422h4.636a2.552 2.552 0 0 0-.821-1.422 2.223 2.223 0 0 0-1.504-.552Zm4.929 4.543 1.545-.334c.139.842.682 1.263 1.657 1.263.487 0 .891-.102 1.183-.305.307-.203.446-.45.446-.755 0-.334-.153-.58-.473-.74-.321-.174-.697-.29-1.156-.363a16.32 16.32 0 0 1-1.364-.29 2.286 2.286 0 0 1-1.156-.668c-.32-.333-.473-.783-.473-1.35 0-.681.278-1.262.849-1.712.571-.45 1.281-.682 2.13-.682s1.559.203 2.102.595c.543.406.878.943.975 1.625l-1.545.334c-.112-.841-.627-1.262-1.532-1.262-.418 0-.752.087-1.016.276-.265.188-.404.42-.404.725 0 .261.111.479.334.639.223.16.515.275.849.319.349.058.711.13 1.114.232.404.102.766.218 1.114.349.348.13.627.362.849.682.223.333.334.74.334 1.233 0 .682-.306 1.263-.918 1.713-.613.45-1.379.682-2.284.682-.891 0-1.629-.203-2.186-.595a2.474 2.474 0 0 1-.974-1.611Z" fill="#FFCA18"/><path d="m102.61 50.07 8.033-1.755c.557 2.888 2.339 4.324 5.318 4.324 1.309 0 2.367-.319 3.203-.957.821-.639 1.239-1.408 1.239-2.322 0-.74-.307-1.365-.933-1.858-.627-.508-1.434-.9-2.45-1.205-1.017-.304-2.131-.61-3.342-.928a27.568 27.568 0 0 1-3.634-1.234 16.42 16.42 0 0 1-3.341-1.858c-1.016-.74-1.824-1.756-2.45-3.076-.627-1.306-.933-2.86-.933-4.63 0-3.091 1.197-5.66 3.592-7.735 2.394-2.061 5.332-3.091 8.813-3.091 3.508 0 6.404.9 8.66 2.713 2.255 1.815 3.592 4.21 3.995 7.199l-8.033 1.756c-.251-1.335-.794-2.395-1.629-3.178-.835-.77-1.935-1.162-3.272-1.162-1.183 0-2.13.276-2.84.828-.71.551-1.072 1.262-1.072 2.133 0 .813.418 1.48 1.253 2.017.835.537 1.894.944 3.174 1.205 1.281.276 2.646.667 4.108 1.205a30.875 30.875 0 0 1 4.107 1.857c1.281.711 2.339 1.814 3.174 3.324.835 1.509 1.267 3.323 1.267 5.442 0 3.091-1.239 5.674-3.703 7.75-2.479 2.075-5.528 3.12-9.175 3.12-3.606 0-6.586-.9-8.939-2.714-2.366-1.77-3.759-4.18-4.19-7.17Zm31.298 6.154c-2.506-2.51-3.759-5.63-3.759-9.36 0-3.73 1.253-6.85 3.759-9.361 2.506-2.51 5.611-3.773 9.314-3.773 3.704 0 6.809 1.262 9.315 3.773 2.506 2.51 3.759 5.63 3.759 9.36 0 3.73-1.253 6.85-3.759 9.361-2.506 2.51-5.611 3.774-9.315 3.774-3.717 0-6.808-1.263-9.314-3.774Zm5.5-13.67c-1.017 1.146-1.518 2.582-1.518 4.31 0 1.712.501 3.149 1.518 4.31 1.016 1.146 2.283 1.727 3.801 1.727 1.517 0 2.798-.58 3.8-1.727 1.017-1.147 1.518-2.584 1.518-4.31 0-1.713-.501-3.15-1.518-4.31-1.016-1.147-2.283-1.728-3.8-1.728-1.518 0-2.785.58-3.801 1.727Zm25.965-8.346v3.019c1.086-1.466 2.395-2.467 3.926-3.033 1.518-.566 3.133-.566 4.804.029v7.3c-2.493-1.002-4.567-1.118-6.224-.32-1.671.799-2.492 2.221-2.492 4.253v14.063h-7.463v-25.31h7.449Zm25.214-.478c3.23 0 5.945 1.262 8.144 3.773 2.2 2.51 3.286 5.63 3.286 9.36 0 3.73-1.1 6.85-3.286 9.36-2.199 2.512-4.914 3.774-8.144 3.774-2.771 0-5.082-.972-6.948-2.917v2.438h-7.462V24.194h7.462v12.452c1.866-1.944 4.177-2.917 6.948-2.917Zm-5.444 17.429c1.016 1.147 2.283 1.727 3.801 1.727 1.517 0 2.798-.58 3.801-1.727 1.016-1.147 1.517-2.583 1.517-4.31 0-1.713-.501-3.15-1.517-4.31-1.017-1.147-2.284-1.728-3.801-1.728-1.532 0-2.799.58-3.801 1.727-1.016 1.147-1.518 2.584-1.518 4.31 0 1.728.516 3.164 1.518 4.31Zm18.1-24.163c0-1.277.431-2.366 1.308-3.28.877-.915 1.922-1.364 3.147-1.364 1.225 0 2.269.464 3.146 1.364.877.914 1.309 2.002 1.309 3.28 0 1.233-.445 2.322-1.309 3.25-.877.93-1.921 1.394-3.146 1.394-1.225 0-2.27-.465-3.147-1.393-.863-.93-1.308-2.018-1.308-3.251Zm8.186 7.212h-7.462v25.296h7.462V34.208Zm12.251 25.296h-7.936v-35.31h20.982v7.3H223.68v7.33h9.495v7.299h-9.495v13.38Zm15.023-3.28c-2.506-2.51-3.759-5.63-3.759-9.36 0-3.73 1.253-6.85 3.759-9.361 2.506-2.51 5.611-3.773 9.314-3.773 3.704 0 6.809 1.262 9.315 3.773 2.506 2.51 3.759 5.63 3.759 9.36 0 3.73-1.253 6.85-3.759 9.361-2.506 2.51-5.611 3.774-9.315 3.774-3.703 0-6.808-1.263-9.314-3.774Zm5.514-13.67c-1.017 1.146-1.518 2.582-1.518 4.31 0 1.712.501 3.149 1.518 4.31 1.016 1.146 2.283 1.727 3.8 1.727 1.518 0 2.799-.58 3.801-1.727 1.017-1.147 1.518-2.584 1.518-4.31 0-1.713-.501-3.15-1.518-4.31-1.016-1.147-2.283-1.728-3.801-1.728-1.531 0-2.798.58-3.8 1.727Zm25.966-8.346v3.019c1.085-1.466 2.394-2.467 3.926-3.033 1.517-.566 3.132-.566 4.803.029v7.3c-2.492-1.002-4.567-1.118-6.223-.32-1.671.799-2.493 2.221-2.493 4.253v14.063h-7.462v-25.31h7.449Zm12.878 22.016c-2.507-2.51-3.76-5.63-3.76-9.36 0-3.73 1.253-6.85 3.76-9.361 2.506-2.51 5.61-3.773 9.314-3.773 2.575 0 4.914.71 7.003 2.118 2.088 1.408 3.634 3.41 4.664 6.009l-6.808 2.438c-.961-2.308-2.59-3.454-4.859-3.454-1.532 0-2.799.58-3.801 1.727-1.016 1.146-1.518 2.583-1.518 4.31 0 1.712.502 3.15 1.518 4.31 1.016 1.147 2.283 1.727 3.801 1.727 2.269 0 3.884-1.146 4.859-3.454l6.808 2.438c-1.03 2.598-2.59 4.6-4.664 6.009-2.089 1.407-4.414 2.118-7.003 2.118-3.718-.029-6.808-1.291-9.314-3.802Zm34.736-22.494c4.205 0 7.546 1.596 10.038 4.76 2.493 3.178 3.328 6.908 2.52 11.189h-17.598a5.578 5.578 0 0 0 2.13 2.7c.975.667 2.103 1 3.384 1 2.269 0 3.967-.943 5.081-2.815l6.071 2.917a13.325 13.325 0 0 1-4.665 4.746c-1.963 1.19-4.204 1.77-6.724 1.77-3.704 0-6.808-1.262-9.314-3.773-2.506-2.51-3.759-5.63-3.759-9.36 0-3.73 1.225-6.85 3.689-9.361 2.464-2.525 5.513-3.773 9.147-3.773Zm0 6.617a4.92 4.92 0 0 0-2.938.944c-.877.638-1.545 1.48-2.004 2.554h9.94c-.905-2.337-2.575-3.498-4.998-3.498Z" fill="#fff"/></svg>