<svg width="966" height="160" fill="none" xmlns="http://www.w3.org/2000/svg"><path d="m0 117.414 33.998-7.432c2.357 12.222 9.899 18.303 22.508 18.303 5.538 0 10.016-1.351 13.552-4.054 3.476-2.702 5.244-5.957 5.244-9.827 0-3.132-1.297-5.773-3.948-7.861-2.652-2.15-6.069-3.808-10.37-5.098-4.302-1.29-9.015-2.58-14.141-3.931a116.395 116.395 0 0 1-15.379-5.22c-5.126-2.15-9.84-4.73-14.141-7.862C13.022 81.299 9.604 77 6.953 71.41c-2.652-5.528-3.948-12.1-3.948-19.593 0-13.082 5.067-23.953 15.202-32.736C28.34 10.361 40.774 6 55.504 6c14.848 0 27.104 3.808 36.65 11.485 9.544 7.678 15.201 17.812 16.91 30.464l-33.998 7.432c-1.06-5.65-3.359-10.134-6.894-13.451-3.535-3.255-8.19-4.913-13.846-4.913-5.009 0-9.015 1.166-12.02 3.5-3.005 2.334-4.537 5.344-4.537 9.029 0 3.44 1.767 6.265 5.303 8.537 3.535 2.273 8.013 3.992 13.434 5.098 5.42 1.167 11.195 2.825 17.382 5.098a130.41 130.41 0 0 1 17.381 7.861c5.421 3.01 9.899 7.678 13.434 14.065 3.536 6.388 5.362 14.065 5.362 23.032 0 13.082-5.244 24.015-15.673 32.798C83.904 154.818 71 159.24 55.562 159.24c-15.26 0-27.869-3.808-37.827-11.485C7.72 140.262 1.827 130.066 0 117.414Zm132.455 25.938c-10.606-10.625-15.909-23.831-15.909-39.615 0-15.785 5.303-28.99 15.909-39.615 10.606-10.626 23.745-15.97 39.418-15.97 15.673 0 28.813 5.344 39.419 15.97 10.606 10.625 15.909 23.83 15.909 39.615 0 15.784-5.303 28.99-15.909 39.615-10.606 10.625-23.746 15.969-39.419 15.969-15.732 0-28.812-5.344-39.418-15.969Zm23.274-57.856c-4.302 4.852-6.423 10.932-6.423 18.241 0 7.247 2.121 13.328 6.423 18.241 4.301 4.852 9.663 7.309 16.085 7.309 6.423 0 11.844-2.457 16.086-7.309 4.301-4.852 6.422-10.932 6.422-18.241 0-7.248-2.121-13.328-6.422-18.241-4.301-4.853-9.663-7.31-16.086-7.31-6.422 0-11.784 2.457-16.085 7.31Zm109.889-35.317v12.775c4.596-6.203 10.134-10.441 16.616-12.837 6.422-2.395 13.257-2.395 20.328.123v30.894c-10.547-4.238-19.327-4.73-26.338-1.351-7.071 3.378-10.547 9.397-10.547 17.995v59.515h-31.582V50.179h31.523Zm106.707-2.026c13.669 0 25.159 5.343 34.469 15.969 9.309 10.625 13.905 23.83 13.905 39.615 0 15.785-4.655 28.99-13.905 39.615-9.31 10.626-20.8 15.969-34.469 15.969-11.726 0-21.507-4.115-29.402-12.345v10.318h-31.582V7.801h31.582v52.697c7.895-8.23 17.676-12.345 29.402-12.345Zm-23.039 73.764c4.302 4.852 9.663 7.309 16.086 7.309 6.422 0 11.843-2.457 16.085-7.309 4.302-4.852 6.423-10.933 6.423-18.241 0-7.248-2.121-13.328-6.423-18.242-4.301-4.852-9.663-7.309-16.085-7.309-6.481 0-11.843 2.457-16.086 7.31-4.301 4.851-6.422 10.932-6.422 18.241 0 7.308 2.18 13.389 6.422 18.241Zm76.599-102.263c0-5.405 1.826-10.011 5.538-13.88C435.135 1.903 439.554 0 444.74 0c5.185 0 9.604 1.965 13.316 5.773 3.712 3.87 5.538 8.476 5.538 13.881 0 5.22-1.885 9.827-5.538 13.758-3.712 3.93-8.131 5.896-13.316 5.896-5.186 0-9.605-1.965-13.317-5.896-3.653-3.931-5.538-8.537-5.538-13.758Zm34.646 30.525h-31.582v107.053h31.582V50.179Zm51.849 107.054h-33.585V7.801h88.794v30.893H512.38v31.017h40.184v30.894H512.38v56.628Zm63.576-13.881c-10.605-10.625-15.908-23.831-15.908-39.615 0-15.785 5.303-28.99 15.908-39.615 10.606-10.626 23.746-15.97 39.419-15.97 15.673 0 28.813 5.344 39.418 15.97 10.606 10.625 15.909 23.83 15.909 39.615 0 15.784-5.303 28.99-15.909 39.615-10.605 10.625-23.745 15.969-39.418 15.969-15.673 0-28.813-5.344-39.419-15.969Zm23.333-57.856c-4.301 4.852-6.422 10.932-6.422 18.241 0 7.247 2.121 13.328 6.422 18.241 4.302 4.852 9.663 7.309 16.086 7.309 6.422 0 11.843-2.457 16.085-7.309 4.302-4.852 6.423-10.932 6.423-18.241 0-7.248-2.121-13.328-6.423-18.241-4.301-4.853-9.663-7.31-16.085-7.31-6.481 0-11.843 2.457-16.086 7.31Zm109.89-35.317v12.775c4.595-6.203 10.134-10.441 16.615-12.837 6.423-2.395 13.258-2.395 20.328.123v30.894c-10.547-4.238-19.326-4.73-26.338-1.351-7.07 3.378-10.547 9.397-10.547 17.995v59.515h-31.581V50.179h31.523Zm54.501 93.173c-10.605-10.625-15.908-23.831-15.908-39.615 0-15.785 5.303-28.99 15.908-39.615 10.606-10.626 23.746-15.97 39.419-15.97 10.9 0 20.799 3.01 29.637 8.968 8.839 5.958 15.379 14.433 19.739 25.427l-28.813 10.319c-4.065-9.766-10.959-14.618-20.563-14.618-6.482 0-11.843 2.457-16.086 7.309-4.301 4.852-6.422 10.932-6.422 18.241 0 7.248 2.121 13.328 6.422 18.242 4.302 4.852 9.663 7.309 16.086 7.309 9.604 0 16.439-4.853 20.563-14.618l28.813 10.318c-4.36 10.994-10.959 19.47-19.739 25.428-8.838 5.957-18.678 8.967-29.637 8.967-15.732-.123-28.813-5.467-39.419-16.092Zm147.011-95.199c17.794 0 31.936 6.756 42.483 20.145 10.546 13.45 14.082 29.236 10.664 47.354h-74.476c1.826 4.791 4.831 8.599 9.015 11.424 4.124 2.825 8.897 4.238 14.318 4.238 9.604 0 16.792-3.992 21.506-11.915l25.69 12.345c-4.891 8.353-11.431 15.047-19.739 20.084-8.308 5.036-17.794 7.493-28.459 7.493-15.673 0-28.813-5.344-39.419-15.969-10.605-10.625-15.908-23.831-15.908-39.615 0-15.785 5.185-28.99 15.614-39.615 10.429-10.687 23.333-15.97 38.711-15.97Zm0 28.007c-4.596 0-8.779 1.351-12.432 3.992-3.712 2.703-6.541 6.265-8.485 10.81h42.07c-3.83-9.889-10.901-14.802-21.153-14.802Z" fill="#fff"/></svg>