<svg width="704" height="724" fill="none" xmlns="http://www.w3.org/2000/svg"><path fill-rule="evenodd" clip-rule="evenodd" d="M351.792.833 431.51 48.14l-1.02 1.72-78.682-46.692-76.286 46.685-1.044-1.706L351.792.833Zm2.416 722.341-79.726-48.319 1.036-1.71 78.674 47.681 76.278-47.674 1.06 1.696-77.322 48.326Zm309.717-544.142-1.146 92.833-2-.025 1.132-91.626-78.712-42.76.955-1.757 79.771 43.335ZM40.76 544.208l1.147-92.833 2 .024-1.132 91.627 78.711 42.759-.954 1.757-79.772-43.334Zm624.374-2.095-80.969 45.423-.978-1.744 79.917-44.833-2.325-89.546 1.999-.052 2.356 90.752ZM39.551 181.127l80.969-45.423.979 1.744-79.917 44.833 2.325 89.546-2 .052-2.356-90.752Z" fill="#fff"/></svg>