<?xml version="1.0" encoding="utf-8"?><!DOCTYPE svg PUBLIC "-//W3C//DTD SVG 1.1//EN" "http://www.w3.org/Graphics/SVG/1.1/DTD/svg11.dtd"><svg xmlns="http://www.w3.org/2000/svg" xmlns:xlink="http://www.w3.org/1999/xlink"><symbol id="address" viewBox="0 0 512 512" xml:space="preserve" xmlns="http://www.w3.org/2000/svg"><g id="aa&#x421;&#x43B;&#x43E;&#x439;_1"><path class="aast0" d="M193.8 499c-1.9-1.6-47.9-38.9-94.4-92.3C35.4 333.2 3 267.4 3 211.2v-5.7C3 94.4 93.4 4 204.5 4S406 94.4 406 205.5v5.7c0 2.6-.1 5.4-.2 8.2l-34.6-31.6c-9-85.5-80.5-149.9-166.7-149.9-92.4 0-167.6 75.2-167.6 167.6v5.7c0 42 22.8 92.1 67.8 148.9 35.4 44.8 75.4 82.1 96.8 100.9v44.2l-7.7-6.2zM327.2 371.1h59.9V431h-59.9z"/><path class="aast0" d="M293.5 508.8c-28.2 0-51.1-22.9-51.1-51.1v-70.9l-14 12.8-22.8-25 151.1-137.9 151.1 137.9-22.8 25-14-12.8v70.9c0 28.2-22.9 51.1-51.1 51.1H293.5zm-17.2-152.9v101.8c0 9.5 7.7 17.2 17.2 17.2h126.3c9.5 0 17.2-7.7 17.2-17.2V355.9l-80.4-73.3-80.3 73.3z"/><path class="aast1" d="M204.5 284c-43.3 0-78.5-35.2-78.5-78.5s35.2-78.5 78.5-78.5 78.5 35.2 78.5 78.5-35.2 78.5-78.5 78.5zm0-127c-26.7 0-48.5 21.8-48.5 48.5s21.8 48.5 48.5 48.5 48.5-21.8 48.5-48.5-21.8-48.5-48.5-48.5z"/></g></symbol><symbol id="arrow" viewBox="0 0 451.8 451.8" xml:space="preserve" xmlns="http://www.w3.org/2000/svg"><path class="abst0" d="M345.4 248.3L151.2 442.6c-12.4 12.4-32.4 12.4-44.8 0-12.4-12.4-12.4-32.4 0-44.7L278.3 226 106.4 54C94 41.6 94 21.6 106.4 9.3c12.4-12.4 32.4-12.4 44.8 0l194.3 194.3c6.2 6.2 9.3 14.3 9.3 22.4-.1 8-3.2 16.1-9.4 22.3z"/></symbol><symbol viewBox="0 0 447.2 447.2" id="back" xmlns="http://www.w3.org/2000/svg"><path d="M26.9 255c1.8.3 3.7.4 5.5.4h315.5l-6.9 3.2c-6.7 3.2-12.8 7.5-18.1 12.8l-88.5 88.5c-11.7 11.1-13.6 29-4.6 42.4 10.4 14.3 30.5 17.4 44.7 6.9 1.2-.8 2.2-1.8 3.3-2.8l160-160c12.5-12.5 12.5-32.8 0-45.3l-160-160c-12.5-12.5-32.8-12.5-45.3.1-1 1-1.9 2-2.7 3.1-9 13.4-7 31.3 4.6 42.4l88.3 88.6c4.7 4.7 10.1 8.6 16 11.7l9.6 4.3H34.2c-16.3-.6-30.7 10.8-33.8 26.9-2.8 17.5 9 34 26.5 36.8z"/></symbol><symbol id="bin" viewBox="0 0 512 512" xml:space="preserve" xmlns="http://www.w3.org/2000/svg"><path class="adst0" d="M170.1 462h162.5v50H170.1zM56.9 140.1z"/><path class="adst0" d="M56.9 140.1l15.8 357.5c.4 8 7 14.3 15 14.3H140v-65c0-8.3 6.7-15 15-15h192.5c8.3 0 15 6.7 15 15v65h61.8c8 0 14.6-6.3 15-14.3l15.8-357.5H56.9z"/><g><path class="adst0" d="M432.4 0H79.6c-25.3 0-46 20.6-46 45.9v49.5c0 7.3 5.2 13.4 12.1 14.7h420.5c6.9-1.3 12.1-7.4 12.1-14.7V45.9C478.4 20.6 457.7 0 432.4 0z"/></g></symbol><symbol viewBox="0 0 512 512" id="box" xmlns="http://www.w3.org/2000/svg"><path d="M236.94 237.109l-230-96.842C3.645 138.879 0 141.299 0 144.875v258.899a15.998 15.998 0 0010.058 14.855l223.085 89.234c3.284 1.314 6.857-1.105 6.857-4.642V241.717a5 5 0 00-3.06-4.608zM257.94 209.596l222.315-93.606c3.996-1.682 4.103-7.306.174-9.139L262.766 5.275a16.002 16.002 0 00-13.532 0L31.571 106.851c-3.929 1.833-3.822 7.457.174 9.139l222.315 93.606c1.24.523 2.64.523 3.88 0zM272 241.717v261.504c0 3.537 3.573 5.956 6.857 4.642l223.085-89.234A16 16 0 00512 403.774V144.875c0-3.576-3.645-5.996-6.94-4.608l-230 96.842a5 5 0 00-3.06 4.608z"/></symbol><symbol id="catalog" viewBox="0 0 271.7 271.7" xml:space="preserve" xmlns="http://www.w3.org/2000/svg"><path class="afst0" d="M114.9 0H10.4C4.7 0 0 4.7 0 10.4v104.5c0 5.8 4.7 10.4 10.4 10.4h104.5c5.8 0 10.4-4.7 10.4-10.4V10.4c.1-5.7-4.6-10.4-10.4-10.4zM261.2 0H156.7c-5.8 0-10.4 4.7-10.4 10.4v104.5c0 5.8 4.7 10.4 10.4 10.4h104.5c5.8 0 10.4-4.7 10.4-10.4V10.4C271.7 4.7 267 0 261.2 0zM114.9 146.3H10.4C4.7 146.3 0 151 0 156.7v104.5c0 5.8 4.7 10.4 10.4 10.4h104.5c5.8 0 10.4-4.7 10.4-10.4V156.7c.1-5.7-4.6-10.4-10.4-10.4zM261.2 146.3H156.7c-5.8 0-10.4 4.7-10.4 10.4v104.5c0 5.8 4.7 10.4 10.4 10.4h104.5c5.8 0 10.4-4.7 10.4-10.4V156.7c.1-5.7-4.6-10.4-10.4-10.4z"/></symbol><symbol viewBox="0 0 299.995 299.995" id="clock" xmlns="http://www.w3.org/2000/svg"><path d="M149.995 0C67.156 0 0 67.158 0 149.995s67.156 150 149.995 150 150-67.163 150-150S232.834 0 149.995 0zm64.847 178.524H151.25c-.215 0-.415-.052-.628-.06-.213.01-.412.06-.628.06-5.729 0-10.374-4.645-10.374-10.374V62.249c0-5.729 4.645-10.374 10.374-10.374s10.374 4.645 10.374 10.374v95.527h54.47c5.729 0 10.374 4.645 10.374 10.374 0 5.729-4.641 10.374-10.37 10.374z"/></symbol><symbol viewBox="0 0 329.269 329" id="close" xmlns="http://www.w3.org/2000/svg"><path d="M194.8 164.77L323.013 36.555c8.343-8.34 8.343-21.825 0-30.164-8.34-8.34-21.825-8.34-30.164 0L164.633 134.605 36.422 6.391c-8.344-8.34-21.824-8.34-30.164 0-8.344 8.34-8.344 21.824 0 30.164l128.21 128.215L6.259 292.984c-8.344 8.34-8.344 21.825 0 30.164a21.266 21.266 0 0015.082 6.25c5.46 0 10.922-2.09 15.082-6.25l128.21-128.214 128.216 128.214a21.273 21.273 0 0015.082 6.25c5.46 0 10.922-2.09 15.082-6.25 8.343-8.34 8.343-21.824 0-30.164zm0 0"/></symbol><symbol viewBox="0 0 512 512" id="comments" xmlns="http://www.w3.org/2000/svg"><path d="M74.5 481.4H38.3L64 455.7c13.8-13.8 22.5-31.8 24.8-51.3C29.5 365.5 0 309.2 0 250.2 0 141.3 100.1 30.6 256.9 30.6 423 30.6 512 132.4 512 240.6c0 108.9-90 210.7-255.1 210.7-28.9 0-59.1-3.9-86.1-10.9-25.5 26.2-60.1 41-96.3 41z"/></symbol><symbol id="compare" viewBox="0 0 297 297" xml:space="preserve" xmlns="http://www.w3.org/2000/svg"><path class="ajst0" d="M290.2 169.9l-41.1-96c7.6-4.5 12.7-12.8 12.7-22.3 0-14.3-11.6-25.9-25.9-25.9-5.4 0-9.8 4.4-9.8 9.8s4.4 9.8 9.8 9.8c3.5 0 6.4 2.9 6.4 6.4 0 3.5-2.9 6.4-6.4 6.4h-77.5V19.4c0-5.4-4.4-9.8-9.8-9.8s-9.8 4.4-9.8 9.8V58H61.2c-3.5 0-6.4-2.9-6.4-6.4 0-3.5 2.9-6.4 6.4-6.4 5.4 0 9.8-4.4 9.8-9.8s-4.4-9.8-9.8-9.8c-14.3 0-25.9 11.6-25.9 25.9 0 9.5 5.1 17.7 12.7 22.3l-41.1 96c-3.9 1.3-6.8 5-6.8 9.3 0 33.8 27.5 61.3 61.2 61.3 33.8 0 61.2-27.5 61.2-61.3 0-4.4-2.9-8.1-6.8-9.3L76.1 77.6h62.7v190.3h-38.6c-5.4 0-9.8 4.4-9.8 9.8s4.4 9.8 9.8 9.8h96.9c5.4 0 9.8-4.4 9.8-9.8s-4.4-9.8-9.8-9.8h-38.6V77.6h62.7L181.6 170c-3.9 1.3-6.8 5-6.8 9.3 0 33.8 27.5 61.3 61.2 61.3 33.8 0 61.2-27.5 61.2-61.3-.2-4.4-3.1-8.1-7-9.4zm-229-77.3l32.9 76.8H28.3c0 .1 32.9-76.8 32.9-76.8zm0 128.4c-19.6 0-36.1-13.6-40.5-32h81c-4.4 18.3-20.9 32-40.5 32zm207.5-51.5h-65.9l32.9-76.8 33 76.8zM235.8 221c-19.6 0-36.1-13.6-40.5-32h81c-4.4 18.3-20.9 32-40.5 32z"/></symbol><symbol id="discount" viewBox="0 0 512 512" xml:space="preserve" xmlns="http://www.w3.org/2000/svg"><circle class="akst0" cx="318.3" cy="318.3" r="17.4"/><circle class="akst0" cx="193.7" cy="193.7" r="17.4"/><path class="akst0" d="M512 256l-29-51.8 3.7-59.3-48.7-34-22.4-55-58.6-9.7-44-39.8-57 16.9-57-16.9-44 39.9-58.6 9.6-22.4 55-48.7 34 3.7 59.3L0 256l29 51.8-3.7 59.3 48.7 34 22.4 55 58.6 9.6 44 39.9 57-16.9 57 16.9 44-39.9 58.6-9.6 22.4-55 48.7-34-3.7-59.3 29-51.8zm-365.8-62.3c0-26.2 21.3-47.4 47.4-47.4s47.4 21.3 47.4 47.4-21.3 47.4-47.4 47.4-47.4-21.3-47.4-47.4zm38.3 155l-21.2-21.2 164.1-164.1 21.2 21.2-164.1 164.1zm133.8 17.1c-26.2 0-47.4-21.3-47.4-47.4s21.3-47.4 47.4-47.4 47.4 21.3 47.4 47.4-21.2 47.4-47.4 47.4z"/></symbol><symbol viewBox="0 0 512 512" id="docs" xmlns="http://www.w3.org/2000/svg"><path d="M106 512h300c24.814 0 45-20.186 45-45V150H346c-24.814 0-45-20.186-45-45V0H106C81.186 0 61 20.186 61 45v422c0 24.814 20.186 45 45 45zm60-301h180c8.291 0 15 6.709 15 15s-6.709 15-15 15H166c-8.291 0-15-6.709-15-15s6.709-15 15-15zm0 60h180c8.291 0 15 6.709 15 15s-6.709 15-15 15H166c-8.291 0-15-6.709-15-15s6.709-15 15-15zm0 60h180c8.291 0 15 6.709 15 15s-6.709 15-15 15H166c-8.291 0-15-6.709-15-15s6.709-15 15-15zm0 60h120c8.291 0 15 6.709 15 15s-6.709 15-15 15H166c-8.291 0-15-6.709-15-15s6.709-15 15-15z"/><path d="M346 120h96.211L331 8.789V105c0 8.276 6.724 15 15 15z"/></symbol><symbol viewBox="0 0 24 24" id="facebook" xmlns="http://www.w3.org/2000/svg"><path d="M15.997 3.985h2.191V.169C17.81.117 16.51 0 14.996 0c-3.159 0-5.323 1.987-5.323 5.639V9H6.187v4.266h3.486V24h4.274V13.267h3.345l.531-4.266h-3.877V6.062c.001-1.233.333-2.077 2.051-2.077z"/></symbol><symbol id="faucet" viewBox="0 0 512 512" xml:space="preserve" xmlns="http://www.w3.org/2000/svg"><path class="anst0" d="M15 152c-8.3 0-15 6.7-15 15v180c0 8.3 6.7 15 15 15 24.8 0 45-20.2 45-45V197c0-24.8-20.2-45-45-45zM464.3 422h-54.6c-9 15.3-17.7 33-17.7 45 0 24.9 20.1 45 45 45s45-20.1 45-45c0-12-8.7-29.7-17.7-45zM377 182h-62c-39.3-38.3-106.8-38.3-146 0H90v150h79c39.3 38.3 106.8 38.3 146 0h32c8.3 0 15 6.7 15 15v30c0 8.3 6.7 15 15 15h120c8.3 0 15-6.7 15-15v-60c0-74.4-60.6-135-135-135zM362 0c-5.7 0-15.2 2.7-23.3 7.3-8.9 5.1-19.1 7.7-29.4 7.7H174.6c-10.3 0-20.4-2.6-29.4-7.7-8-4.6-17.5-7.3-23.2-7.3-24.8 0-45 20.2-45 45s20.2 45 45 45c5.7 0 15.2-2.7 23.2-7.3 9-5.1 19-7.7 29.3-7.7H212v51.9c9.7-2.1 19.7-3.6 30-3.6s20.3 1.5 30 3.6V75h37.5c10.3 0 20.4 2.7 29.3 7.7 8.1 4.6 17.6 7.3 23.2 7.3 24.8 0 45-20.2 45-45S386.8 0 362 0z"/></symbol><symbol id="freezer" viewBox="0 0 512 512" xml:space="preserve" xmlns="http://www.w3.org/2000/svg"><path class="aost0" d="M402.3 493.7h36.6V512h-36.6zM73.1 493.7h36.6V512H73.1zM64 475.4H448v-18.3H64zM438.9 0H73.1c-5 0-9.1 4.1-9.1 9.1v9.1h384V9.1c0-5-4.1-9.1-9.1-9.1zM321.1 52.2c1.7 1.7 4 2.7 6.5 2.7H448V36.6H305.5l15.6 15.6z"/><path class="aost0" d="M308.2 65.1l-28.5-28.5H64v402.3h384V73.1H327.6c-7.3.1-14.3-2.8-19.4-8zm-207.6 8c0 5-4.1 9.1-9.1 9.1s-9.1-4.1-9.1-9.1V64c0-5 4.1-9.1 9.1-9.1s9.1 4.1 9.1 9.1v9.1zm36.5 0c0 5-4.1 9.1-9.1 9.1s-9.1-4.1-9.1-9.1V64c0-5 4.1-9.1 9.1-9.1s9.1 4.1 9.1 9.1v9.1z"/></symbol><symbol id="heart" viewBox="0 0 512 512" xml:space="preserve" xmlns="http://www.w3.org/2000/svg"><path class="apst0" d="M256 483.5c-7.3 0-14.3-2.6-19.8-7.4C215.5 458 195.6 441 178 426l-.1-.1C126.3 382 81.8 344 50.8 306.6 16.1 264.8 0 225.2 0 181.9 0 139.8 14.4 101 40.6 72.6 67.1 43.8 103.5 28 143 28c29.6 0 56.6 9.3 80.4 27.8 12 9.3 22.9 20.7 32.5 34 9.6-13.3 20.5-24.7 32.5-34 24-18.5 51-27.8 80.6-27.8 39.5 0 75.9 15.8 102.4 44.6C497.6 101 512 139.8 512 181.9c0 43.3-16.1 82.9-50.8 124.7-31 37.4-75.5 75.4-127.1 119.3-17.6 15-37.6 32-58.3 50.2-5.5 4.8-12.5 7.4-19.8 7.4zM143 58c-31 0-59.6 12.4-80.3 34.9-21.1 22.9-32.7 54.4-32.7 89 0 36.4 13.5 69 43.9 105.6 29.3 35.4 73 72.6 123.5 115.6l.1.1c17.7 15.1 37.7 32.1 58.5 50.3 21-18.3 41-35.3 58.7-50.4 50.5-43.1 94.1-80.2 123.5-115.6 30.3-36.6 43.9-69.2 43.9-105.6 0-34.5-11.6-66.1-32.7-89C428.6 70.4 400 58 369 58c-22.8 0-43.7 7.2-62.1 21.5-16.4 12.7-27.9 28.8-34.6 40-3.5 5.8-9.5 9.2-16.3 9.2s-12.8-3.5-16.3-9.2c-6.7-11.2-18.2-27.3-34.6-40C186.7 65.2 165.8 58 143 58z"/></symbol><symbol viewBox="0 0 512 512" id="home" xmlns="http://www.w3.org/2000/svg"><path d="M498.195 222.695l-.035-.035L289.305 13.813C280.402 4.905 268.566 0 255.977 0c-12.59 0-24.426 4.902-33.332 13.809L13.898 222.55c-.07.07-.14.144-.21.215-18.282 18.386-18.25 48.218.09 66.558 8.378 8.383 19.445 13.238 31.277 13.746.48.047.965.07 1.453.07h8.324v153.7C54.832 487.254 79.578 512 110 512h81.71c8.282 0 15-6.715 15-15V376.5c0-13.879 11.29-25.168 25.169-25.168h48.195c13.88 0 25.168 11.29 25.168 25.168V497c0 8.285 6.715 15 15 15h81.711c30.422 0 55.168-24.746 55.168-55.16v-153.7h7.719c12.586 0 24.422-4.902 33.332-13.808 18.36-18.371 18.367-48.254.023-66.637zm0 0"/></symbol><symbol id="information" viewBox="0 0 512 512" xml:space="preserve" xmlns="http://www.w3.org/2000/svg"><circle class="arst0" cx="256" cy="378.5" r="25"/><path class="arst0" d="M256 0C114.5 0 0 114.5 0 256s114.5 256 256 256 256-114.5 256-256S397.5 0 256 0zm0 472c-119.4 0-216-96.6-216-216S136.6 40 256 40s216 96.6 216 216-96.6 216-216 216z"/><path class="arst0" d="M256 128.5c-44.1 0-80 35.9-80 80 0 11 9 20 20 20s20-9 20-20c0-22.1 17.9-40 40-40s40 17.9 40 40-17.9 40-40 40c-11 0-20 9-20 20v50c0 11 9 20 20 20s20-9 20-20V286c34.5-8.9 60-40.3 60-77.5 0-44.1-35.9-80-80-80z"/></symbol><symbol id="kitchen" viewBox="0 0 512 512" xml:space="preserve" xmlns="http://www.w3.org/2000/svg"><path class="asst0" d="M358.8 78.8H153.2c-8.3 0-15 6.7-15 15v88.7h235.7V93.8c-.1-8.3-6.8-15-15.1-15zM0 344.2v74c0 8.3 6.7 15 15 15h482c8.3 0 15-6.7 15-15v-74H0zM354.5 397h-29.3c-8.3 0-15-6.7-15-15s6.7-15 15-15h29.3c8.3 0 15 6.7 15 15s-6.7 15-15 15zm81.5 0h-29.3c-8.3 0-15-6.7-15-15s6.7-15 15-15H436c8.3 0 15 6.7 15 15s-6.7 15-15 15zM396.3 212.5H115.7L9 314.2h494z"/></symbol><symbol id="list-menu" viewBox="0 0 512 512" xml:space="preserve" xmlns="http://www.w3.org/2000/svg"><path class="atst0" d="M0 68.5h512v43.9H0zM0 232.7h512v43.9H0zM0 399.6h512v43.9H0z"/></symbol><symbol viewBox="0 0 97.713 97.713" id="location" xmlns="http://www.w3.org/2000/svg"><path d="M48.855 0C29.021 0 12.883 16.138 12.883 35.974c0 5.174 1.059 10.114 3.146 14.684 8.994 19.681 26.238 40.46 31.31 46.359a2.003 2.003 0 003.034 0c5.07-5.898 22.314-26.676 31.311-46.359 2.088-4.57 3.146-9.51 3.146-14.684C84.828 16.138 68.69 0 48.855 0zm0 54.659c-10.303 0-18.686-8.383-18.686-18.686 0-10.304 8.383-18.687 18.686-18.687s18.686 8.383 18.686 18.687c.001 10.303-8.382 18.686-18.686 18.686z"/></symbol><symbol viewBox="0 0 512 512" id="lock" xmlns="http://www.w3.org/2000/svg"><path d="M437.333 192h-32v-42.667C405.333 66.99 338.344 0 256 0S106.667 66.99 106.667 149.333V192h-32A10.66 10.66 0 0064 202.667v266.667C64 492.865 83.135 512 106.667 512h298.667C428.865 512 448 492.865 448 469.333V202.667A10.66 10.66 0 00437.333 192zM287.938 414.823a10.67 10.67 0 01-10.604 11.844h-42.667a10.67 10.67 0 01-10.604-11.844l6.729-60.51c-10.927-7.948-17.458-20.521-17.458-34.313 0-23.531 19.135-42.667 42.667-42.667s42.667 19.135 42.667 42.667c0 13.792-6.531 26.365-17.458 34.313l6.728 60.51zM341.333 192H170.667v-42.667C170.667 102.281 208.948 64 256 64s85.333 38.281 85.333 85.333V192z"/></symbol><symbol id="logo" viewBox="0 0 104.3 74.3" xml:space="preserve" xmlns="http://www.w3.org/2000/svg"><linearGradient id="awSVGID_1_" gradientUnits="userSpaceOnUse" x1="16.097" y1="69.625" x2="50.34" y2="30.771"><stop offset="0" stop-color="#ed1b34"/><stop offset="1" stop-color="#a01d21"/></linearGradient><path class="awst0" d="M64 27.5c-.7-.2-1.4-.3-2.1-.4-3.5-2.5-8.3-2.6-11.9.1l-10.2 7.7-4.4-5.8c-.8-1.1-1.8-1.9-2.9-2.5l.1-.2-1.9-.6c-5.3-1.5-10.8 1.6-12.4 6.9L9.7 62.9l1.9.6C17 65 22.5 61.9 24 56.6l4.7-16.4 7.9 10.6 13.1-9.7L43.4 63l1.9.6c5.3 1.5 10.8-1.6 12.4-6.9L66 28.1l-2-.6z"/><path class="awst1" d="M78 26l4.2-14.8-1.2-.4c-5.3-1.5-10.8 1.6-12.4 6.9L66.3 26H59c-6.2 0-11.3 5.1-11.3 11.3H63l-4.2 14.8 1.3.4c5.3 1.5 10.8-1.6 12.4-6.9l2.4-8.3h7.3c6.2 0 11.3-5.1 11.3-11.3H78z"/></symbol><symbol viewBox="0 0 31.49 31.49" id="long-arrow" xmlns="http://www.w3.org/2000/svg"><path d="M21.205 5.007a1.112 1.112 0 00-1.587 0 1.12 1.12 0 000 1.571l8.047 8.047H1.111A1.106 1.106 0 000 15.737c0 .619.492 1.127 1.111 1.127h26.554l-8.047 8.032c-.429.444-.429 1.159 0 1.587a1.112 1.112 0 001.587 0l9.952-9.952a1.093 1.093 0 000-1.571l-9.952-9.953z"/></symbol><symbol viewBox="0 0 550.795 550.795" id="mail" xmlns="http://www.w3.org/2000/svg"><path d="M501.613 491.782c12.381 0 23.109-4.088 32.229-12.16L377.793 323.567a2878.213 2878.213 0 00-10.801 7.767c-11.678 8.604-21.156 15.318-28.434 20.129-7.277 4.822-16.959 9.737-29.045 14.755-12.094 5.024-23.361 7.528-33.813 7.528h-.612c-10.453 0-21.72-2.503-33.813-7.528-12.093-5.018-21.775-9.933-29.045-14.755-7.277-4.811-16.75-11.524-28.434-20.129a1351.934 1351.934 0 00-10.771-7.809L16.946 479.622c9.119 8.072 19.854 12.16 32.234 12.16h452.433zM31.047 225.299C19.37 217.514 9.015 208.598 0 198.555V435.98l137.541-137.541c-27.516-19.21-62.969-43.562-106.494-73.14zM520.059 225.299c-41.865 28.336-77.447 52.73-106.75 73.195l137.486 137.492V198.555c-8.815 9.841-19.059 18.751-30.736 26.744z"/><path d="M501.613 59.013H49.181c-15.784 0-27.919 5.33-36.42 15.979C4.253 85.646.006 98.97.006 114.949c0 12.907 5.636 26.892 16.903 41.959 11.267 15.061 23.256 26.891 35.961 35.496 6.965 4.921 27.969 19.523 63.012 43.801a20367.497 20367.497 0 0149.505 34.395 8855.122 8855.122 0 0131.022 21.701c.985.691 2.534 1.799 4.59 3.269 2.215 1.591 5.018 3.61 8.476 6.107 6.659 4.816 12.191 8.709 16.597 11.683 4.4 2.975 9.731 6.298 15.985 9.988 6.249 3.685 12.143 6.456 17.675 8.299 5.533 1.842 10.655 2.766 15.367 2.766h.612c4.711 0 9.834-.924 15.368-2.766 5.531-1.843 11.42-4.608 17.674-8.299 6.248-3.69 11.572-7.02 15.986-9.988 4.406-2.974 9.938-6.866 16.598-11.683 3.451-2.497 6.254-4.517 8.469-6.102a643.575 643.575 0 014.596-3.274c6.684-4.651 17.1-11.892 31.104-21.616 25.482-17.705 63.01-43.764 112.742-78.281 14.957-10.447 27.453-23.054 37.496-37.803 10.025-14.749 15.051-30.22 15.051-46.408 0-13.525-4.873-25.098-14.598-34.737-9.736-9.627-21.265-14.443-34.584-14.443z"/></symbol><symbol viewBox="0 0 93.708 93.708" id="metro" xmlns="http://www.w3.org/2000/svg"><path d="M77.32 8.732L47.379 51.248 16.795 9.721 0 79.253h22.728l4.164-22.238 20.117 27.961 20.012-27.348 4.026 21.748h22.661z"/></symbol><symbol id="no-plug" viewBox="0 0 512 512" xml:space="preserve" xmlns="http://www.w3.org/2000/svg"><path class="bast0" d="M361.1 30c0-16.6-13.4-30-30-30s-30 13.4-30 30v45.9h60V30zM211 30c0-16.6-13.4-30-30-30s-30 13.4-30 30v45.9h60V30zM436.1 196v-60h-75v-30h-60v30H211v-30h-60v30H76v60h360.1zM105.9 226v45c0 67.1 44.2 124 105.1 143.2V512h90v-97.8C361.9 395 406.1 338.1 406.1 271v-45H105.9z"/></symbol><symbol id="oven" viewBox="0 0 512 512" xml:space="preserve" xmlns="http://www.w3.org/2000/svg"><path class="bbst0" d="M456.8 0H55.2C24.7 0 0 24.7 0 55.2v73.4h512V55.2C512 24.7 487.3 0 456.8 0zM122 74.9c-2.8 2.8-6.7 4.4-10.6 4.4-3.9 0-7.8-1.6-10.6-4.4-2.8-2.8-4.4-6.7-4.4-10.6 0-3.9 1.6-7.8 4.4-10.6 2.8-2.8 6.6-4.4 10.6-4.4s7.8 1.6 10.6 4.4c2.8 2.8 4.4 6.7 4.4 10.6 0 3.9-1.6 7.8-4.4 10.6zm96.4 0c-2.8 2.8-6.7 4.4-10.6 4.4-3.9 0-7.8-1.6-10.6-4.4-2.8-2.8-4.4-6.6-4.4-10.6 0-3.9 1.6-7.8 4.4-10.6s6.7-4.4 10.6-4.4c3.9 0 7.8 1.6 10.6 4.4s4.4 6.7 4.4 10.6c0 3.9-1.6 7.8-4.4 10.6zm96.4 0c-2.8 2.8-6.7 4.4-10.6 4.4-3.9 0-7.8-1.6-10.6-4.4-2.8-2.8-4.4-6.7-4.4-10.6 0-3.9 1.6-7.8 4.4-10.6 2.8-2.8 6.6-4.4 10.6-4.4s7.8 1.6 10.6 4.4c2.8 2.8 4.4 6.7 4.4 10.6 0 3.9-1.6 7.8-4.4 10.6zm96.4 0c-2.8 2.8-6.7 4.4-10.6 4.4-3.9 0-7.8-1.6-10.6-4.4-2.8-2.8-4.4-6.6-4.4-10.6 0-3.9 1.6-7.8 4.4-10.6s6.6-4.4 10.6-4.4c3.9 0 7.8 1.6 10.6 4.4 2.8 2.8 4.4 6.7 4.4 10.6 0 3.9-1.6 7.8-4.4 10.6zM417.7 237.8H94.3v194.9h323.5V237.8zm-49.2 64.3h-225c-8.3 0-15-6.7-15-15s6.7-15 15-15h224.9c8.3 0 15 6.7 15 15s-6.6 15-14.9 15z"/><path class="bbst0" d="M0 456.8C0 487.3 24.7 512 55.2 512h401.7c30.4 0 55.2-24.7 55.2-55.2V158.5H0v298.3zm64.3-234c0-8.3 6.7-15 15-15h353.5c8.3 0 15 6.7 15 15v224.9c0 8.3-6.7 15-15 15H79.3c-8.3 0-15-6.7-15-15V222.8z"/></symbol><symbol id="phone" viewBox="0 0 512 512" xml:space="preserve" xmlns="http://www.w3.org/2000/svg"><path class="bcst0" d="M510.9 396.7c-1.4-4.4-10.7-10.8-27.6-19.3-4.6-2.7-11.1-6.3-19.6-10.9-8.5-4.6-16.2-8.9-23.1-12.7-6.9-3.9-13.4-7.6-19.5-11.3-1-.7-4-2.8-9.1-6.4-5.1-3.5-9.4-6.1-12.9-7.8-3.5-1.7-7-2.5-10.4-2.5-4.8 0-10.9 3.5-18.2 10.4-7.3 6.9-13.9 14.4-20 22.6-6.1 8.1-12.5 15.6-19.3 22.5-6.8 6.9-12.4 10.4-16.7 10.4-2.2 0-4.9-.6-8.2-1.8-3.3-1.2-5.8-2.2-7.5-3.1-1.7-.9-4.6-2.5-8.7-5.1-4.1-2.5-6.4-3.9-6.9-4.2-33.2-18.4-61.7-39.5-85.5-63.3-23.8-23.8-44.8-52.2-63.3-85.5-.2-.5-1.6-2.8-4.2-6.9-2.5-4.1-4.2-7-5.1-8.7-.8-1.7-1.9-4.2-3.1-7.5-1.2-3.3-1.8-6-1.8-8.2 0-4.4 3.5-9.9 10.4-16.7 6.9-6.8 14.4-13.2 22.5-19.3 8.1-6.1 15.6-12.7 22.5-20 6.9-7.3 10.4-13.3 10.4-18.2 0-3.4-.8-6.8-2.5-10.4-1.7-3.5-4.3-7.8-7.8-12.9-3.5-5.1-5.6-8.1-6.4-9.1-3.6-6.1-7.4-12.5-11.3-19.4-3.9-6.9-8.1-14.6-12.7-23.1-4.6-8.5-8.2-15-10.9-19.6-8.5-17-14.9-26.2-19.3-27.6C113.6.4 111 0 107.6 0c-6.5 0-15 1.2-25.6 3.6-10.5 2.4-18.8 5-24.9 7.6-12.1 5.1-25 19.9-38.5 44.4C6.2 78.4 0 101 0 123.3c0 6.5.4 12.9 1.3 19.1.8 6.2 2.4 13.2 4.5 20.9 2.2 7.8 3.9 13.5 5.3 17.3 1.3 3.8 3.8 10.5 7.5 20.2 3.6 9.7 5.8 15.6 6.5 17.8 8.5 23.8 18.5 45 30.2 63.6 19.1 31 45.3 63.1 78.4 96.2 33.1 33.1 65.2 59.2 96.2 78.4 18.7 11.6 39.9 21.7 63.6 30.2 2.2.7 8.1 2.9 17.8 6.5 9.7 3.6 16.4 6.1 20.2 7.5 3.8 1.3 9.5 3.1 17.3 5.3 7.8 2.2 14.7 3.7 20.9 4.6 6.2.8 12.5 1.3 19.1 1.3 22.3 0 44.8-6.2 67.6-18.5 24.5-13.6 39.3-26.4 44.4-38.6 2.7-6.1 5.2-14.4 7.6-24.9 2.4-10.5 3.6-19.1 3.6-25.6 0-3.6-.4-6.2-1.1-7.9z"/></symbol><symbol viewBox="0 0 494.148 494.148" id="play" xmlns="http://www.w3.org/2000/svg"><path d="M405.284 201.188L130.804 13.28C118.128 4.596 105.356 0 94.74 0 74.216 0 61.52 16.472 61.52 44.044v406.124c0 27.54 12.68 43.98 33.156 43.98 10.632 0 23.2-4.6 35.904-13.308l274.608-187.904c17.66-12.104 27.44-28.392 27.44-45.884.004-17.48-9.664-33.764-27.344-45.864z"/></symbol><symbol id="sale" viewBox="0 0 512 512" xml:space="preserve" xmlns="http://www.w3.org/2000/svg"><path class="best0" d="M409.5 96.4L294.6 12.6c-23-16.7-53.8-16.8-76.8-.1L102.6 96.4c-18.7 13.6-29.8 35.4-29.8 58.5v279.4c0 42.8 34.8 77.7 77.7 77.7h211.1c42.8 0 77.7-34.8 77.7-77.7V154.9c-.1-23.1-11.2-44.9-29.8-58.5zM256.7 75.5c9.4 0 17 7.6 17 17s-7.6 17-17 17-17-7.6-17-17 7.6-17 17-17zm-114 166.3c0-26.7 21.6-48.3 48.3-48.3 26.7 0 48.3 21.6 48.3 48.3 0 26.7-21.6 48.3-48.3 48.3-26.7 0-48.3-21.6-48.3-48.3zm51.7 142.8c-14.2 0-21.6-17.4-11.4-27.5l124.7-124.7c6.3-6.3 16.5-6.3 22.8 0 6.3 6.3 6.3 16.5 0 22.8L205.8 379.8c-3.2 3.2-7.3 4.8-11.4 4.8zM355.1 406c0-.6-11.5 14.1-34.2 14.1-26.5 0-48.3-21.4-48.3-48.3 0-26.7 21.6-48.3 48.3-48.3 43.3 0 64.4 52.4 34.2 82.5z"/><path class="best0" d="M321 355.8c-8.9 0-16 7.2-16 16 0 14.2 17.3 21.4 27.4 11.3 0-.2 4.7-3.9 4.7-11.3-.1-8.8-7.2-16-16.1-16zM202.3 253.2c10-10 3-27.4-11.3-27.4-8.9 0-16 7.2-16 16 0 14.4 17.3 21.4 27.3 11.4z"/></symbol><symbol id="search" viewBox="0 0 512 512" xml:space="preserve" xmlns="http://www.w3.org/2000/svg"><path class="bfst0" d="M495 466.2L377.2 348.4c29.2-35.6 46.8-81.2 46.8-130.9C424 103.5 331.5 11 217.5 11 103.4 11 11 103.5 11 217.5S103.4 424 217.5 424c49.7 0 95.2-17.5 130.8-46.7L466.1 495c8 8 20.9 8 28.9 0 8-7.9 8-20.9 0-28.8zm-277.5-83.3C126.2 382.9 52 308.7 52 217.5S126.2 52 217.5 52C308.7 52 383 126.3 383 217.5s-74.3 165.4-165.5 165.4z"/></symbol><symbol id="shield" viewBox="0 0 512 512" xml:space="preserve" xmlns="http://www.w3.org/2000/svg"><g id="bgsurface1"><path class="bgst0" d="M473.5 138.9v-.4c-.2-4.9-.4-10.1-.5-15.9-.4-28.2-22.9-51.6-51.1-53.2C363.1 66.2 317.5 47 278.6 9l-.3-.3c-12.7-11.6-31.8-11.6-44.5 0l-.4.3C194.5 47 149 66.2 90.1 69.5 61.9 71 39.4 94.4 39 122.6c-.1 5.8-.2 11-.5 15.9v.9c-1.1 60-2.6 134.7 22.4 202.5 13.7 37.3 34.6 69.7 61.9 96.3 31.1 30.3 71.8 54.4 121 71.6 1.6.6 3.3 1 5 1.4 2.4.5 4.8.7 7.2.7s4.8-.2 7.2-.7c1.7-.3 3.4-.8 5-1.4 49.2-17.2 89.9-41.3 120.9-71.6 27.3-26.7 48.1-59.1 61.9-96.4 25-67.9 23.6-142.7 22.5-202.9zm-50.7 192.6c-26.4 71.5-80.2 120.6-164.5 150-.3.1-.6.2-1 .3-.9.2-1.8.2-2.6 0l-.9-.3c-84.4-29.4-138.3-78.5-164.6-150-23-62.5-21.7-131.1-20.6-191.6v-.3c.2-5.2.4-10.6.5-16.6.2-12.5 10.2-22.9 22.7-23.6 33.3-1.9 62.6-8.3 89.5-19.7s50.7-27.4 72.9-49c1.1-1 2.6-1 3.7 0 22.2 21.6 46.1 37.6 72.9 49 26.9 11.4 56.2 17.8 89.5 19.7 12.6.7 22.5 11.1 22.7 23.6.1 6 .2 11.5.5 16.6 1.1 60.7 2.4 129.3-20.7 191.9z"/><path class="bgst1" d="M256 128.4c-70.4 0-127.6 57.2-127.6 127.6S185.6 383.6 256 383.6 383.6 326.4 383.6 256c0-70.3-57.2-127.6-127.6-127.6zm0 225.2c-53.8 0-97.6-43.8-97.6-97.6s43.8-97.6 97.6-97.6 97.6 43.8 97.6 97.6-43.8 97.6-97.6 97.6z"/><path class="bgst1" d="M292.7 216.4l-59.3 59.3-16.1-16.1c-5.9-5.9-15.4-5.9-21.2 0-5.9 5.9-5.9 15.4 0 21.2l26.7 26.7c2.9 2.9 6.8 4.4 10.6 4.4s7.7-1.5 10.6-4.4l69.9-69.9c5.9-5.9 5.9-15.4 0-21.2-5.9-5.9-15.4-5.9-21.2 0z"/></g></symbol><symbol id="shopping-cart" viewBox="0 0 512 512" xml:space="preserve" xmlns="http://www.w3.org/2000/svg"><path class="bhst0" d="M153.7 337.1h282.1c32 0 58.1-26.1 58.1-58.1V160.3v-.4-.8c0-.2 0-.4-.1-.6 0-.2-.1-.5-.1-.7s-.1-.4-.1-.6c-.1-.2-.1-.4-.2-.7-.1-.2-.1-.4-.2-.6-.1-.2-.1-.4-.2-.6-.1-.2-.2-.4-.3-.7-.1-.2-.2-.4-.3-.5l-.3-.6c-.1-.2-.2-.3-.3-.5s-.3-.4-.4-.6c-.1-.2-.2-.3-.4-.5-.1-.2-.3-.3-.4-.5s-.3-.3-.4-.5-.3-.3-.4-.4l-.5-.5c-.2-.1-.3-.3-.5-.4-.2-.1-.4-.3-.6-.4-.2-.1-.3-.2-.5-.3-.2-.1-.4-.2-.6-.4l-.6-.3-.6-.3-.6-.3c-.2-.1-.4-.1-.6-.2-.2-.1-.5-.2-.7-.2-.2 0-.4-.1-.5-.1-.3-.1-.5-.1-.8-.1-.1 0-.2-.1-.4-.1l-358.2-50V47c0-.5 0-1.1-.1-1.5 0-.1 0-.2-.1-.4 0-.3-.1-.6-.1-.9-.1-.3-.1-.5-.2-.8 0-.2-.1-.3-.1-.5l-.3-.9c0-.1-.1-.3-.1-.4-.1-.3-.2-.5-.4-.8-.1-.1-.1-.3-.2-.4-.1-.2-.2-.4-.4-.6-.1-.2-.2-.3-.3-.5-.1-.2-.2-.3-.3-.5s-.3-.4-.4-.6l-.3-.3-.6-.6-.3-.3c-.2-.2-.4-.4-.7-.6-.1-.1-.3-.2-.4-.3-.2-.2-.4-.3-.6-.5-.3-.2-.6-.4-.8-.5-.1-.1-.2-.1-.3-.2-.4-.2-.9-.4-1.4-.6L37.8 1.1c-7.3-3.1-15.6.3-18.6 7.6s.3 15.6 7.6 18.6l68.8 29v311.4c0 29.5 22.1 53.9 50.6 57.6-5.2 8.6-8.2 18.7-8.2 29.5 0 31.7 25.8 57.3 57.3 57.3s57.3-25.8 57.3-57.3c0-10.5-2.8-20.5-7.9-28.9h127.7c-5.1 8.5-7.9 18.4-7.9 28.9 0 31.7 25.8 57.3 57.3 57.3s57.3-25.8 57.3-57.3-25.8-57.3-57.3-57.3H153.7c-16.4 0-29.7-13.4-29.7-29.7v-38.5c8.7 4.9 18.9 7.8 29.7 7.8zm70.7 117.4c0 16-13 28.9-28.9 28.9s-28.9-13-28.9-28.9 13-28.9 28.9-28.9 28.9 13 28.9 28.9zm226.7 0c0 16-13 28.9-28.9 28.9s-28.9-13-28.9-28.9 13-28.9 28.9-28.9 28.9 13 28.9 28.9zm-15.3-145.8H153.7c-16.4 0-29.7-13.4-29.7-29.7V125.4l341.5 47v106.4c0 16.6-13.4 29.9-29.7 29.9z"/></symbol><symbol id="shredder" viewBox="0 0 459.7 459.7" xml:space="preserve" xmlns="http://www.w3.org/2000/svg"><path class="bist0" d="M348 163.2H111.7c-47.6 0-86.7 38.7-86.7 86.7v85.4c0 8.5 6.9 15.4 15.4 15.4h378.7c8.5 0 15.4-6.9 15.4-15.4v-85.4c.1-48.1-39.2-86.7-86.5-86.7zM101.1 302.4c-12.5 0-22.7-10.2-22.7-22.7S88.6 257 101.1 257s22.7 10.2 22.7 22.7-10.2 22.7-22.7 22.7zM348 132.4c6.3 0 12.6.5 18.6 1.5V15.4c0-8.5-6.9-15.4-15.4-15.4H108.5C100 0 93.1 6.9 93.1 15.4v118.4c12.6-2-5.3-1.4 254.9-1.4zM100.7 444.2c0 8.5 6.9 15.4 15.4 15.4H147c8.5 0 15.4-6.9 15.4-15.4v-62.6h-61.7v62.6zM199 424.7c0 8.5 6.9 15.4 15.4 15.4h30.9c8.5 0 15.4-6.9 15.4-15.4v-43.1H199v43.1zM297.2 406.2c0 8.5 6.9 15.4 15.4 15.4h30.9c8.5 0 15.4-6.9 15.4-15.4v-24.6h-61.7v24.6z"/></symbol><symbol id="sink" viewBox="0 0 512 512" xml:space="preserve" xmlns="http://www.w3.org/2000/svg"><path class="bjst0" d="M191.7 239.7c-9.4 0-17.1 7.7-17.1 17.1s7.7 17.1 17.1 17.1c9.4 0 17.1-7.7 17.1-17.1s-7.6-17.1-17.1-17.1z"/><path class="bjst0" d="M456.8 33H55.2C24.7 33 0 57.7 0 88.2v337.4c0 30.4 24.7 55.2 55.2 55.2h401.7c30.4 0 55.2-24.8 55.2-55.2V88.2C512 57.7 487.3 33 456.8 33zM319.2 361.3c0 30.4-24.7 55.2-55.2 55.2H119.4c-30.4 0-55.2-24.8-55.2-55.2V152.4c0-30.4 24.8-55.2 55.2-55.2H264c30.4 0 55.2 24.8 55.2 55.2v208.9zm113.5 39.1h-64.3c-8.3 0-15-6.7-15-15s6.7-15 15-15h64.3c8.3 0 15 6.7 15 15s-6.7 15-15 15zm0-64.3h-64.3c-8.3 0-15-6.7-15-15s6.7-15 15-15h64.3c8.3 0 15 6.7 15 15s-6.7 15-15 15zm0-64.2h-64.3c-8.3 0-15-6.7-15-15s6.7-15 15-15h64.3c8.3 0 15 6.7 15 15s-6.7 15-15 15zm0-64.3h-64.3c-8.3 0-15-6.7-15-15s6.7-15 15-15h64.3c8.3 0 15 6.7 15 15s-6.7 15-15 15zm0-64.3h-64.3c-8.3 0-15-6.7-15-15s6.7-15 15-15h64.3c8.3 0 15 6.7 15 15s-6.7 15-15 15z"/><path class="bjst0" d="M264 127.3H119.4c-13.9 0-25.2 11.3-25.2 25.2v208.9c0 13.9 11.3 25.2 25.2 25.2H264c13.9 0 25.2-11.3 25.2-25.2v-209c0-13.8-11.3-25.1-25.2-25.1zM191.7 304c-26 0-47.1-21.1-47.1-47.1s21.1-47.1 47.1-47.1 47.1 21.1 47.1 47.1-21.1 47.1-47.1 47.1z"/></symbol><symbol id="soap" viewBox="0 0 512 512" xml:space="preserve" xmlns="http://www.w3.org/2000/svg"><path class="bkst0" d="M309.6 98.3h-38.2V78.5h9.3c8.3 0 15-6.7 15-15V15c0-8.3-6.7-15-15-15h-48.6c-8.3 0-15 6.7-15 15v9.3h-44.8c-21.6 0-39.2 17.6-39.2 39.2v9.2c0 8.3 6.7 15 15 15s15-6.7 15-15v-9.2c0-5.1 4.1-9.2 9.2-9.2h44.8v9.3c0 8.3 6.7 15 15 15h9.3v19.8h-38.2c-8.3 0-15 6.7-15 15v21.5h136.5v-21.5c-.1-8.4-6.8-15.1-15.1-15.1zM328.7 164.8H184c-28.2 3.1-50.2 27.1-50.2 56V497c0 8.3 6.7 15 15 15h215c8.3 0 15-6.7 15-15V220.8c.1-29-21.9-52.9-50.1-56z"/></symbol><symbol viewBox="0 0 477.905 477.905" id="star" xmlns="http://www.w3.org/2000/svg"><path d="M476.343 183.008a34.134 34.134 0 00-28.314-24.149l-127.01-17.545-50.261-120.098C263.42 3.637 243.22-4.664 225.641 2.674A34.492 34.492 0 00207.1 21.215l-50.261 120.098-127.01 17.545C10.905 161.493-2.3 178.969.335 197.892a34.592 34.592 0 0011.249 21.058l95.693 85.333-19.661 133.906a34.133 34.133 0 0015.838 34.355 34.013 34.013 0 0037.7-.7l97.775-66.492 97.775 66.56c15.777 10.708 37.248 6.599 47.957-9.178a34.527 34.527 0 005.582-24.477l-19.661-133.956 95.693-85.333a34.29 34.29 0 0010.068-35.96z"/></symbol><symbol id="stocks" viewBox="0 0 512 512" xml:space="preserve" xmlns="http://www.w3.org/2000/svg"><path class="bmst0" d="M400 512H256c-8.8 0-16-7.2-16-16V378.7c0-8.8 7.2-16 16-16h144c8.8 0 16 7.2 16 16V496c0 8.8-7.2 16-16 16zm-128-32h112v-85.3H272V480z"/><path class="bmst0" d="M325.3 394.7H186.7c-8.8 0-16-7.2-16-16v-128c0-8.8 7.2-16 16-16h138.7c8.8 0 16 7.2 16 16v128c-.1 8.8-7.2 16-16.1 16zm-122.6-32h106.7v-96H202.7v96z"/><path class="bmst0" d="M256 512H112c-8.8 0-16-7.2-16-16V378.7c0-8.8 7.2-16 16-16h144c8.8 0 16 7.2 16 16V496c0 8.8-7.2 16-16 16zm-128-32h112v-85.3H128V480zM256 298.7c-8.8 0-16-7.2-16-16v-32c0-8.8 7.2-16 16-16s16 7.2 16 16v32c0 8.8-7.2 16-16 16z"/><path class="bmst0" d="M186.7 426.7c-8.8 0-16-7.2-16-16v-32c0-8.8 7.2-16 16-16s16 7.2 16 16v32c0 8.8-7.2 16-16 16zM325.3 426.7c-8.8 0-16-7.2-16-16v-32c0-8.8 7.2-16 16-16s16 7.2 16 16v32c0 8.8-7.1 16-16 16z"/><path class="bmst1" d="M474.7 512H37.3C16.7 512 0 495.3 0 474.7V181.3c0-5.3 2.6-10.2 6.9-13.2l240-165.3c5.5-3.8 12.7-3.8 18.2 0l240 165.3c4.3 3 6.9 7.9 6.9 13.2v293.3c0 20.7-16.7 37.4-37.3 37.4zM32 189.7v284.9c0 2.9 2.4 5.3 5.3 5.3h437.3c2.9 0 5.3-2.4 5.3-5.3V189.7L256 35.4 32 189.7z"/></symbol><symbol id="store" viewBox="0 0 512 512" xml:space="preserve" xmlns="http://www.w3.org/2000/svg"><g id="bn_02-shop"><g id="bnGlyph"><path class="bnst0" d="M511.9 170.7H0V192c0 23.6 19.1 42.7 42.7 42.7h64c23.6 0 42.7-19.1 42.7-42.7 0 23.6 19.1 42.7 42.7 42.7h128c23.6 0 42.7-19.1 42.7-42.7 0 23.6 19.1 42.7 42.7 42.7h64c23.6 0 42.7-19.1 42.7-42.7l-.3-21.3zM506.8 149.3L468.5 15.5C465.9 6.3 457.5 0 448 0h-97.7l29.9 149.3h126.6zM161.7 0H64c-9.5 0-17.9 6.3-20.5 15.5L5.2 149.3h126.6L161.7 0zM306.8 0H205.2l-29.9 149.3h161.3L306.8 0zM405.3 256c-15.8 0-31-5.8-42.7-16.3C351 250.2 335.8 256 320 256H192c-15.8 0-31-5.8-42.7-16.3-11.7 10.5-26.9 16.3-42.7 16.3h-64c-7.3 0-14.5-1.3-21.3-3.7v238.4c0 11.8 9.6 21.3 21.3 21.3h42.7V320c0-11.8 9.6-21.3 21.3-21.3h106.7c11.8 0 21.3 9.6 21.3 21.3v192h234.7c11.8 0 21.3-9.6 21.3-21.3V252.3c-6.8 2.5-14.1 3.7-21.3 3.7h-64zm21.4 128c0 11.8-9.6 21.3-21.3 21.3H298.7c-11.8 0-21.3-9.6-21.3-21.3v-64c0-11.8 9.6-21.3 21.3-21.3h106.7c11.8 0 21.3 9.6 21.3 21.3v64z"/></g></g></symbol><symbol id="stove" viewBox="0 0 512 512" xml:space="preserve" xmlns="http://www.w3.org/2000/svg"><path class="bost0" d="M191.7 166.6c-8.3 0-15-6.7-15-15s6.7-15 15-15h6.7c-4.9-15.1-16.8-26.9-31.9-31.7v6.5c0 8.3-6.7 15-15 15s-15-6.7-15-15v-6.3c-14.8 4.9-26.5 16.6-31.3 31.5h6.1c8.3 0 15 6.7 15 15s-6.7 15-15 15h-6.1c4.8 14.8 16.5 26.6 31.3 31.5v-6.3c0-8.3 6.7-15 15-15s15 6.7 15 15v6.5c15.1-4.8 27-16.6 31.9-31.7h-6.7zM191.7 375.4c-8.3 0-15-6.7-15-15s6.7-15 15-15h6.7c-4.9-15.1-16.8-26.9-31.9-31.7v6.5c0 8.3-6.7 15-15 15s-15-6.7-15-15v-6.3c-14.8 4.9-26.5 16.6-31.3 31.5h6.1c8.3 0 15 6.7 15 15s-6.7 15-15 15h-6.1c4.8 14.8 16.5 26.6 31.3 31.5v-6.3c0-8.3 6.7-15 15-15s15 6.7 15 15v6.5c15.1-4.8 27.1-16.6 31.9-31.7h-6.7zM400.6 375.4c-8.3 0-15-6.7-15-15s6.7-15 15-15h6.7c-4.9-15.1-16.8-26.9-31.9-31.7v6.5c0 8.3-6.7 15-15 15s-15-6.7-15-15v-6.3c-14.8 4.9-26.5 16.6-31.3 31.5h6.1c8.3 0 15 6.7 15 15s-6.7 15-15 15h-6.1c4.8 14.8 16.5 26.6 31.3 31.5v-6.3c0-8.3 6.7-15 15-15s15 6.7 15 15v6.5c15.1-4.8 27.1-16.6 31.9-31.7h-6.7z"/><path class="bost0" d="M456.8 0H55.2C24.7 0 0 24.7 0 55.2v401.7C0 487.3 24.7 512 55.2 512h401.7c30.4 0 55.2-24.7 55.2-55.2V55.2C512 24.7 487.3 0 456.8 0zM229.6 374.3c-5.8 32.5-31.5 58.2-64.1 63.9-2.2 5.6-7.6 9.6-14 9.6s-11.9-4-14-9.7c-32.1-5.9-57.5-31.4-63.3-63.5-5.8-2.1-9.9-7.6-9.9-14.1s4.2-12 9.9-14.1c5.8-32.2 31.2-57.6 63.3-63.5 2.2-5.7 7.6-9.7 14-9.7s11.8 4 14 9.6c32.5 5.7 58.3 31.4 64.1 63.9 5.4 2.2 9.3 7.6 9.3 13.9 0 6.1-3.9 11.4-9.3 13.7zm0-208.9c-5.8 32.5-31.5 58.2-64.1 63.9-2.2 5.6-7.6 9.6-14 9.6s-11.9-4-14-9.7c-32.1-5.9-57.5-31.4-63.3-63.5-5.8-2.1-9.9-7.6-9.9-14.1s4.2-12 9.9-14.1c5.8-32.2 31.2-57.6 63.3-63.5 2.2-5.6 7.6-9.7 14-9.7s11.8 4 14 9.6c32.5 5.7 58.3 31.4 64.1 63.9 5.4 2.2 9.3 7.6 9.3 13.9 0 6.1-3.9 11.5-9.3 13.7zm208.9 208.9c-5.8 32.5-31.5 58.2-64.1 63.9-2.2 5.6-7.6 9.6-14 9.6s-11.9-4-14-9.7c-32.1-5.9-57.5-31.4-63.4-63.5-5.8-2.1-9.9-7.6-9.9-14.1s4.2-12 9.9-14.1c5.8-32.2 31.2-57.6 63.4-63.5 2.1-5.7 7.6-9.7 14-9.7s11.8 4 14 9.6c32.5 5.7 58.3 31.4 64.1 63.9 5.4 2.2 9.3 7.6 9.3 13.9-.1 6.1-3.9 11.4-9.3 13.7zm0-208.9c-5.8 32.5-31.5 58.2-64.1 63.9-2.2 5.6-7.6 9.6-14 9.6s-11.9-4-14-9.7c-32.1-5.9-57.5-31.4-63.4-63.5-5.8-2.1-9.9-7.6-9.9-14.1s4.2-12 9.9-14.1c5.8-32.2 31.2-57.6 63.4-63.5 2.1-5.6 7.6-9.7 14-9.7s11.8 4 14 9.6c32.5 5.7 58.3 31.4 64.1 63.9 5.4 2.2 9.3 7.6 9.3 13.9-.1 6.1-3.9 11.5-9.3 13.7z"/><path class="bost0" d="M400.6 166.6c-8.3 0-15-6.7-15-15s6.7-15 15-15h6.7c-4.9-15.1-16.8-26.9-31.9-31.7v6.5c0 8.3-6.7 15-15 15s-15-6.7-15-15v-6.3c-14.8 4.9-26.5 16.6-31.3 31.5h6.1c8.3 0 15 6.7 15 15s-6.7 15-15 15h-6.1c4.8 14.8 16.5 26.6 31.3 31.5v-6.3c0-8.3 6.7-15 15-15s15 6.7 15 15v6.5c15.1-4.8 27.1-16.6 31.9-31.7h-6.7z"/></symbol><symbol id="truck" viewBox="0 0 512 512" xml:space="preserve" xmlns="http://www.w3.org/2000/svg"><path class="bpst0" d="M119.5 349.9c-14.1 0-25.6 11.5-25.6 25.6s11.5 25.6 25.6 25.6 25.6-11.5 25.6-25.6c0-14.2-11.5-25.6-25.6-25.6zm0 34.1c-4.7 0-8.5-3.8-8.5-8.5s3.8-8.5 8.5-8.5 8.5 3.8 8.5 8.5-3.8 8.5-8.5 8.5zM392.5 349.9c-14.1 0-25.6 11.5-25.6 25.6s11.5 25.6 25.6 25.6 25.6-11.5 25.6-25.6c0-14.2-11.4-25.6-25.6-25.6zm0 34.1c-4.7 0-8.5-3.8-8.5-8.5s3.8-8.5 8.5-8.5 8.5 3.8 8.5 8.5c.1 4.7-3.8 8.5-8.5 8.5z"/><path class="bpst1" d="M505.5 228.4l-58.8-66.2c-4.9-5.5-11.9-8.6-19.2-8.6h-77.7v-51.2c0-14.1-11.5-25.6-25.6-25.6H25.6C11.5 76.8 0 88.3 0 102.4v221.9c0 2.3.9 4.4 2.5 6s3.8 2.5 6 2.5H17v25.6c0 14.1 11.5 25.6 25.6 25.6h17.7c4.2 29.4 29.4 51.2 59.1 51.2s54.8-21.8 59.1-51.2h155c4.2 29.4 29.4 51.2 59.1 51.2s54.8-21.8 59.1-51.2h34.8c14.1 0 25.6-11.5 25.6-25.6v-113c-.1-6.3-2.4-12.3-6.6-17zM17.1 315.7V102.4c0-4.7 3.8-8.5 8.5-8.5h298.7c4.7 0 8.5 3.8 8.5 8.5v213.3H17.1zm43.3 51.2H42.7c-4.7 0-8.5-3.8-8.5-8.5v-25.6h43.6c-9.4 9.2-15.5 21.2-17.4 34.1zm59.1 51.2c-23.6 0-42.7-19.1-42.7-42.7s19.1-42.7 42.7-42.7 42.7 19.1 42.7 42.7c-.1 23.6-19.2 42.7-42.7 42.7zm85.3-51.2h-26.3c-1.9-13-8-25-17.3-34.1h43.6v34.1zm76.8 0h-59.7v-34.1h59.7v34.1zm51.9 0h-34.8v-34.1h52.1c-9.4 9.2-15.5 21.2-17.3 34.1zm59 51.2c-23.6 0-42.7-19.1-42.7-42.7s19.1-42.7 42.7-42.7 42.7 19.1 42.7 42.7-19.1 42.7-42.7 42.7zm102.4-59.7c0 4.7-3.8 8.5-8.5 8.5h-34.8c-4.3-29.4-29.4-51.1-59.1-51.2h-42.7v-145H384V256c0 14.1 11.5 25.6 25.6 25.6h85.3v76.8zm0-93.9h-85.3c-4.7 0-8.5-3.8-8.5-8.5v-85.3h26.5c2.5 0 4.8 1 6.4 2.9l58.8 66.2c1.4 1.6 2.2 3.6 2.2 5.7l-.1 19z"/></symbol><symbol viewBox="0 0 612 612" id="truck-2" xmlns="http://www.w3.org/2000/svg"><path d="M21.474 377.522V117.138c0-14.469 11.729-26.199 26.199-26.199h260.25c14.469 0 26.198 11.73 26.198 26.199v260.385a8.732 8.732 0 01-8.733 8.733H30.207a8.733 8.733 0 01-8.733-8.734zm210.16 89.202c0 30.01-24.329 54.338-54.338 54.338s-54.338-24.328-54.338-54.338c0-30.011 24.329-54.338 54.338-54.338s54.338 24.327 54.338 54.338zm-27.17 0c0-15.005-12.164-27.169-27.169-27.169s-27.17 12.164-27.17 27.169 12.165 27.17 27.17 27.17 27.169-12.165 27.169-27.17zm-73.969-54.339H8.733A8.733 8.733 0 000 421.118v26.495a8.733 8.733 0 008.733 8.733h97.598c2.548-17.484 11.373-32.928 24.164-43.961zm385.443 54.339c0 30.01-24.329 54.338-54.338 54.338-30.01 0-54.338-24.328-54.338-54.338 0-30.011 24.328-54.338 54.338-54.338 30.009-.001 54.338 24.327 54.338 54.338zm-27.168 0c0-15.005-12.165-27.169-27.17-27.169-15.006 0-27.169 12.164-27.169 27.169s12.164 27.17 27.169 27.17 27.17-12.165 27.17-27.17zM612 421.118v26.495a8.733 8.733 0 01-8.733 8.733h-70.704c-5.057-34.683-34.906-61.427-70.961-61.427-36.062 0-65.912 26.745-70.969 61.427H248.261c-2.549-17.483-11.373-32.928-24.164-43.961h134.994V162.594c0-9.646 7.82-17.466 17.466-17.466h82.445a69.86 69.86 0 0157.9 30.77l53.15 78.721a69.865 69.865 0 0111.962 39.094v118.672h21.253a8.733 8.733 0 018.733 8.733zm-88.592-164.483l-42.501-60.393a8.734 8.734 0 00-7.142-3.707H407.47a8.734 8.734 0 00-8.733 8.733v60.393a8.732 8.732 0 008.733 8.733h108.798c7.074 0 11.212-7.973 7.14-13.759z"/></symbol><symbol viewBox="0 0 512 512" id="unlock" xmlns="http://www.w3.org/2000/svg"><path d="M437.3 192H170.7v-42.7C170.7 102.2 209 64 256 64c36.8 0 68.2 23.4 80.2 56h66.3C388.8 51.7 328.3 0 256 0c-82.3 0-149.3 67-149.3 149.3V192h-32c-5.9 0-10.7 4.8-10.7 10.7v266.7c0 23.5 19.1 42.7 42.7 42.7h298.7c23.5 0 42.7-19.1 42.7-42.7V202.7c-.1-5.9-4.9-10.7-10.8-10.7zM287.9 414.8c.3 3-.6 6-2.7 8.3-2 2.3-4.9 3.6-7.9 3.6h-42.7c-3 0-5.9-1.3-7.9-3.6s-3-5.3-2.7-8.3l6.7-60.5c-10.9-7.9-17.5-20.5-17.5-34.3 0-23.5 19.1-42.7 42.7-42.7s42.7 19.1 42.7 42.7c0 13.8-6.5 26.4-17.5 34.3l6.8 60.5z"/></symbol><symbol id="user" viewBox="0 0 512 512" xml:space="preserve" xmlns="http://www.w3.org/2000/svg"><path class="bsst0" d="M256 288.4c-153.8 0-238.6 72.8-238.6 204.9 0 10.3 8.4 18.7 18.7 18.7h439.7c10.3 0 18.7-8.4 18.7-18.7.1-132.1-84.7-204.9-238.5-204.9zM55.5 474.6c7.3-98.8 74.7-148.9 200.5-148.9s193.2 50.1 200.5 148.9h-401zM256 0c-70.7 0-124 54.4-124 126.4 0 74.2 55.6 134.5 124 134.5s124-60.4 124-134.5C380 54.4 326.7 0 256 0zm0 223.6c-47.7 0-86.6-43.6-86.6-97.2 0-51.6 36.4-89.1 86.6-89.1 49.4 0 86.6 38.3 86.6 89.1 0 53.6-38.9 97.2-86.6 97.2z"/></symbol><symbol viewBox="0 0 341.333 341.333" id="view-more" xmlns="http://www.w3.org/2000/svg"><path d="M128 128h85.333v85.333H128zM0 0h85.333v85.333H0zM128 256h85.333v85.333H128zM0 128h85.333v85.333H0zM0 256h85.333v85.333H0zM256 0h85.333v85.333H256zM128 0h85.333v85.333H128zM256 128h85.333v85.333H256zM256 256h85.333v85.333H256z"/></symbol><symbol viewBox="0 0 19 19" id="view-row" xmlns="http://www.w3.org/2000/svg"><path d="M0 0h5v5H0zM7 0h12v5H7zM7 7h12v5H7zM7 14h12v5H7zM0 7h5v5H0zM0 14h5v5H0z"/></symbol><symbol id="vkontakte" viewBox="0 0 512 512" xml:space="preserve" xmlns="http://www.w3.org/2000/svg"><path class="bvst0" d="M509.3 373.8c-.6-1.3-1.2-2.4-1.7-3.3-8.9-16-25.9-35.6-50.9-58.9l-.5-.5-.3-.3-.3-.3h-.3c-11.4-10.8-18.6-18.1-21.6-21.9-5.5-7.1-6.8-14.3-3.7-21.6 2.1-5.5 10.1-17.1 24-34.9 7.3-9.4 13.1-17 17.3-22.7 30.7-40.9 44.1-67 40-78.4l-1.6-2.7c-1.1-1.6-3.8-3.1-8.3-4.4-4.4-1.3-10.1-1.6-17.1-.7l-76.8.5c-1.2-.4-3-.4-5.3.1s-3.5.8-3.5.8l-1.3.7-1.1.8c-.9.5-1.9 1.5-2.9 2.8-1.1 1.3-1.9 2.9-2.7 4.7-8.4 21.5-17.9 41.5-28.5 60-6.6 11-12.6 20.6-18.1 28.7-5.5 8.1-10.1 14-13.9 17.9-3.7 3.8-7.1 6.9-10.1 9.2-3 2.3-5.3 3.3-6.9 2.9-1.6-.4-3.1-.7-4.5-1.1-2.5-1.6-4.5-3.8-6-6.5-1.5-2.8-2.5-6.2-3.1-10.4-.5-4.2-.8-7.8-.9-10.8-.1-3 0-7.3.1-12.8.2-5.5.3-9.2.3-11.2 0-6.8.1-14.1.4-22 .3-7.9.5-14.2.7-18.8.2-4.6.3-9.5.3-14.7s-.3-9.2-.9-12.1c-.6-2.9-1.6-5.8-2.8-8.5-1.2-2.8-3.1-4.9-5.5-6.4s-5.4-2.7-8.9-3.6c-9.4-2.1-21.4-3.3-36-3.5-33.1-.4-54.3 1.8-63.7 6.4-3.7 2-7.1 4.6-10.1 8-3.2 3.9-3.6 6-1.3 6.4 10.7 1.6 18.2 5.4 22.7 11.5l1.6 3.2c1.2 2.3 2.5 6.4 3.7 12.3 1.2 5.9 2 12.4 2.4 19.5.9 13 .9 24.1 0 33.3-.9 9.2-1.7 16.4-2.5 21.6-.8 5.2-2 9.3-3.6 12.5-1.6 3.2-2.7 5.2-3.2 5.9-.5.7-1 1.2-1.3 1.3-2.3.9-4.7 1.3-7.2 1.3s-5.5-1.2-9.1-3.7c-3.6-2.5-7.2-5.9-11.1-10.3-3.8-4.4-8.1-10.4-12.9-18.3-4.8-7.8-9.8-17.1-14.9-27.7l-4.3-7.7c-2.7-5-6.3-12.2-10.9-21.7-4.6-9.5-8.7-18.7-12.3-27.6-1.4-3.7-3.6-6.6-6.4-8.5l-1.3-.8c-.9-.7-2.3-1.5-4.3-2.3-2-.8-4-1.4-6.1-1.7l-73 .5c-7.5 0-12.5 1.7-15.2 5.1L.8 130c-.5.9-.8 2.3-.8 4.3s.5 4.4 1.6 7.2c10.7 25.1 22.3 49.2 34.8 72.5 12.5 23.3 23.4 42 32.7 56.2 9.2 14.2 18.7 27.6 28.3 40.3 9.6 12.6 16 20.7 19.1 24.3 3.1 3.6 5.6 6.2 7.3 8l6.7 6.4c4.3 4.3 10.5 9.4 18.8 15.3 8.3 6 17.4 11.8 27.5 17.6 10 5.8 21.7 10.5 35.1 14.1 13.3 3.6 26.3 5.1 38.9 4.4h30.7c6.2-.5 10.9-2.5 14.1-5.9l1.1-1.3c.7-1.1 1.4-2.7 2-4.9.6-2.2.9-4.7.9-7.3-.2-7.6.4-14.5 1.7-20.7 1.3-6.1 2.8-10.7 4.5-13.9 1.7-3.1 3.6-5.7 5.7-7.9 2.1-2.1 3.6-3.4 4.5-3.9.9-.4 1.6-.8 2.1-.9 4.3-1.4 9.3 0 15.1 4.1 5.8 4.2 11.2 9.3 16.3 15.5 5.1 6.1 11.2 13 18.3 20.7 7.1 7.6 13.3 13.3 18.7 17.1l5.3 3.2c3.6 2.1 8.2 4.1 13.9 5.9 5.7 1.8 10.7 2.2 14.9 1.3l68.2-1.1c6.7 0 12-1.1 15.7-3.3 3.7-2.2 6-4.7 6.7-7.3.7-2.7.8-5.7.1-9.1-.8-3.5-1.4-5.8-2-7.1z"/></symbol><symbol viewBox="0 0 890.5 890.5" id="wallet" xmlns="http://www.w3.org/2000/svg"><path d="M208.1 180.56l355-96.9-18.8-38c-12.3-24.7-42.3-34.9-67-22.6l-317.8 157.5h48.6zM673.3 86.46c-4.399 0-8.8.6-13.2 1.8l-83.399 22.8L322 180.56h415.1l-15.6-57.2c-6-22.3-26.2-36.9-48.2-36.9zM789.2 215.56H50.1c-15.8 0-29.9 7.3-39.1 18.8-4.2 5.3-7.4 11.4-9.2 18.1-1.1 4.2-1.8 8.6-1.8 13.1v557.1c0 27.601 22.4 50 50 50h739.1c27.601 0 50-22.399 50-50v-139.5H542.4c-46.9 0-85-38.1-85-85V486.96c0-23 9.199-43.899 24.1-59.199 13.2-13.601 30.9-22.801 50.7-25.101 3.3-.399 6.7-.6 10.1-.6h296.8v-136.5c.1-27.6-22.3-50-49.9-50z"/><path d="M874.2 449.86c-5-4.6-10.9-8.1-17.5-10.4-5.101-1.699-10.5-2.699-16.2-2.699H542.4c-27.601 0-50 22.399-50 50V598.06c0 27.6 22.399 50 50 50h298.1c5.7 0 11.1-1 16.2-2.7 6.6-2.2 12.5-5.8 17.5-10.4 10-9.1 16.3-22.3 16.3-36.899v-111.3c0-14.601-6.3-27.802-16.3-36.901zm-227.4 102.5c0 13.8-11.2 25-25 25h-16.6c-13.8 0-25-11.2-25-25v-16.6c0-8 3.7-15.101 9.6-19.601 4.3-3.3 9.601-5.399 15.4-5.399h16.6c13.8 0 25 11.199 25 25v16.6z"/></symbol><symbol id="water-filter" viewBox="0 0 512 512" xml:space="preserve" xmlns="http://www.w3.org/2000/svg"><g id="bxPage-1"><g id="bx_x30_31---Water-Filter" transform="translate(-1)"><path id="bxShape" class="bxst0" d="M327.5 410.1c-15-10.4-34.9-10.4-49.8 0-20.9 14-48.1 14-69 0-7.2-5.3-16-8-24.9-7.8-8.9-.2-17.6 2.5-24.8 7.8-10.1 7.1-22.2 10.8-34.5 10.5-10.2.3-20.4-2.3-29.3-7.4l4.9 81.6c.6 9.7 8.6 17.2 18.3 17.2h250c9.7 0 17.7-7.5 18.3-17.2l4.9-81.7c-8.9 5.1-19.1 7.7-29.4 7.4-12.4.3-24.5-3.4-34.7-10.4z"/><path id="bxShape_1_" class="bxst0" d="M330.9 292.6h-19.1V320c0 20.2-16.4 36.6-36.6 36.6h-64c-20.2 0-36.6-16.4-36.6-36.6v-27.4h-19c-26.9 0-52.4-11.9-69.7-32.5l7.9 131.1c2 1.1 3.9 2.2 5.7 3.4 7.2 5.2 16 8 24.9 7.7 8.9.2 17.7-2.5 24.9-7.8 10.1-7.1 22.1-10.7 34.4-10.5 12.3-.2 24.4 3.4 34.5 10.5 15 10.4 34.9 10.4 49.8 0 20.9-14 48.1-14 69 0 15 10.4 34.9 10.4 49.9.1 1.8-1.1 3.8-2.3 5.8-3.4l7.9-131.1a91.006 91.006 0 01-69.7 32.5z"/><path id="bxShape_2_" class="bxst0" d="M243.3 0C166 0 90.3 26 76.6 54.9H410C396.3 26 320.6 0 243.3 0z"/><path id="bxShape_3_" class="bxst0" d="M10.1 73.1c-3.4 0-6.6 1.9-8.1 5-1.6 3-1.3 6.7.7 9.4l59.7 85.9-6-100.2-46.3-.1z"/><path id="bxShape_4_" class="bxst0" d="M205.8 233.3l-10.2 41H291l-10.2-41c-2-8.1-9.4-13.9-17.8-13.9h-39.5c-8.3 0-15.7 5.7-17.7 13.9z"/><path id="bxShape_5_" class="bxst0" d="M467.3 210.3V160c0-23.2-19.3-37-39.9-40l-5.2 86.6-6.7 111.3c23.7-16.6 51.8-48.8 51.8-107.6z"/><path id="bxShape_6_" class="bxst0" d="M82.7 205.5c2.4 38.6 34.3 68.7 73 68.8h21l11.4-45.4c3-11.9 11.7-21.5 23.2-25.6v-38.7c0-15.1 12.3-27.4 27.4-27.4h9.1c15.1 0 27.4 12.3 27.4 27.4v38.7c11.5 4.1 20.3 13.7 23.2 25.6l11.4 45.4h21c38.6-.1 70.6-30.1 73-68.7l8-132.5H74.7l8 132.4zm73.7-114.1h109.7c5 0 9.1 4.1 9.1 9.1s-4.1 9.1-9.1 9.1H156.4c-5 0-9.1-4.1-9.1-9.1s4.1-9.1 9.1-9.1zm-54.8 0h18.3c5 0 9.1 4.1 9.1 9.1s-4.1 9.1-9.1 9.1h-18.3c-5 0-9.1-4.1-9.1-9.1s4-9.1 9.1-9.1z"/><path id="bxShape_7_" class="bxst0" d="M247.9 155.4h-9.1c-5 0-9.1 4.1-9.1 9.1v36.6H257v-36.6c0-5-4.1-9.1-9.1-9.1z"/><path id="bxShape_8_" class="bxst0" d="M430.2 73.5l-1.7 28.2c32.7 4 57.1 28.1 57.1 58.2v50.3c0 76.9-42.7 113.9-71.4 130.1l-1.9 31.7C442.7 358.5 513 315.6 513 210.3V160c-.5-46.1-36.8-83.9-82.8-86.5z"/><path id="bxShape_9_" class="bxst0" d="M193 320c0 10.1 8.2 18.3 18.3 18.3h64c10.1 0 18.3-8.2 18.3-18.3v-27.4H193V320z"/></g></g></symbol><symbol id="youtube" viewBox="0 0 512 512" xml:space="preserve" xmlns="http://www.w3.org/2000/svg"><g id="byXMLID_822_"><path id="byXMLID_823_" class="byst0" d="M492 106.8c-18.5-22-52.6-30.9-117.8-30.9H137.7c-66.7 0-101.4 9.5-119.8 32.9C0 131.6 0 165.2 0 211.7v88.6c0 90.1 21.3 135.8 137.7 135.8h236.6c56.5 0 87.8-7.9 108.1-27.3C503.1 389 512 356.5 512 300.3v-88.6c0-49.1-1.4-82.9-20-104.9zM328.7 268.2l-107.4 56.1c-2.4 1.3-5 1.9-7.7 1.9-3 0-5.9-.8-8.6-2.4-4.9-3-8-8.4-8-14.1V197.8c0-5.8 3-11.1 7.9-14.1s11.1-3.2 16.2-.5L328.5 239c5.5 2.8 8.9 8.5 8.9 14.6.2 6.1-3.2 11.8-8.7 14.6z"/></g></symbol></svg>