<svg xmlns="http://www.w3.org/2000/svg" width="160" height="160" xml:space="preserve"><path d="M-2 79.432V160h163.349V61.187c-53.247.665-95.666 5.783-122.539 10.126C20.588 74.257 6.824 77.245-2 79.432M-2 .08v76.345c.175-.042.345-.086.524-.128 7.528-1.836 20.135-4.624 37.452-7.484 27.412-4.531 70.763-9.875 125.373-10.551V.08H-2z"/><path fill="none" stroke="#1A171B" stroke-width=".945" d="M-2 79.432V160h163.349V61.187c-53.247.665-95.666 5.783-122.539 10.126C20.588 74.257 6.824 77.245-2 79.432zM-2 .08v76.345c.175-.042.345-.086.524-.128 7.528-1.836 20.135-4.624 37.452-7.484 27.412-4.531 70.763-9.875 125.373-10.551V.08H-2z"/><path fill="#FFF" d="M144.427 82.539h-.686v-5.357h2.306c1.395 0 1.868.522 1.868 1.481 0 1.035-.722 1.421-1.658 1.497l1.599 2.379h-.775l-1.507-2.379h-1.146v2.379z"/><path fill="#F5F5F4" d="M36.292 100.465h6.79v16.202l5.186-7.591 8.409.019-7.427 10.525 7.582 10.52-8.435-.012-5.315-7.372v7.384h-6.79z"/><path fill="#F5F5F4" d="M71.309 120.075a4.335 4.335 0 1 1-8.669 0 4.334 4.334 0 1 1 8.669 0m6.708 0c0-6.1-4.941-11.045-11.042-11.045-6.102 0-11.046 4.945-11.046 11.045 0 6.102 4.944 11.047 11.046 11.047 6.1 0 11.042-4.945 11.042-11.047m-.846-10.991h7.2l4.622 12.253 4.824-12.253h7.199l-7.999 21.056h-7.843zm47.436 11.202c0-8.881-7.244-11.039-10.145-11.039-2.51 0-4.562.895-4.562.895v-9.936h-6.786l-.01 19.51c0 8.721 7.553 11.406 10.751 11.406 4.44 0 10.752-3.409 10.752-10.836m24.435-11.289h-6.708v11.105c0 2.38-1.932 4.312-4.311 4.312s-4.31-1.932-4.31-4.312v-11.203h-6.759v10.816c0 8.721 7.636 11.406 10.836 11.406 1.377 0 2.982-.33 4.543-1.004v1.767a4.312 4.312 0 0 1-8.619.181H127c0 7.179 6.354 10.594 10.791 10.816l-.002.02c.075 0 .156-.01.232-.01.075 0 .154.01.23.01v-.02c4.434-.223 10.788-3.638 10.788-10.816v-11.289h-.028c.008-.165.028-.321.028-.49v-11.289z"/><path d="M118.331 119.976c0 2.377-1.93 4.31-4.311 4.31a4.31 4.31 0 1 1 4.311-4.31"/><path fill="#F5F5F4" d="M19.12 109.076h-2.704a6.47 6.47 0 0 0-6.469 6.468v4.493h7.554v-2.598c0-.895.727-1.617 1.619-1.617h13.66v-6.746H19.12zm4.488 21.064h2.705a6.468 6.468 0 0 0 6.468-6.467v-4.494h-7.554v2.554a1.62 1.62 0 0 1-1.619 1.618H9.947v6.789h13.661z"/><path fill="#FFF" d="M150.507 79.894c0-2.846-2.052-4.897-4.896-4.897-2.86 0-4.929 2.051-4.929 4.897 0 2.874 2.068 4.926 4.929 4.926 2.844-.001 4.896-2.052 4.896-4.926m-11.015-.001c0-3.344 2.742-6.088 6.119-6.088 3.359 0 6.086 2.744 6.086 6.088 0 3.378-2.727 6.121-6.086 6.121a6.123 6.123 0 0 1-6.119-6.121"/><path fill="#1A171B" d="M86.221 137.084h.643c.379 0 .568 0 .715-.05.378-.123.457-.507.457-.705 0-.768-.671-.768-1.172-.768h-.643v1.523z"/><path d="M145.373 79.537c.749 0 1.795.124 1.795-.885 0-.748-.622-.848-1.271-.848h-1.471v1.733h.947z"/></svg>