<svg xmlns="http://www.w3.org/2000/svg" viewBox="0 0 778.62 39.7"><g data-name="Layer 2"><path d="M35.75 39.39 30.07 28.6c-2.87.26-5.79.36-8.6.36-3.54 0-8.39-.21-11.94-.51-.57-.06-2.65-.27-2.86-.27v11.21H0V17c0-2 .1-7 .26-9.07.26-3.18 2.55-6.26 6-6.62a149.37 149.37 0 0 1 30.49 0c3.44.36 5.73 3.44 6 6.62.11 1.61.21 4.27.21 6.78 0 2-.1 4.89-.21 6.51a7.2 7.2 0 0 1-5 6.36c-.11.15-.52.15-.73.21l6.41 11.62Zm.36-29c-.15-2-1-3.28-3.07-3.49a115.69 115.69 0 0 0-23.14 0c-2 .21-2.92 1.46-3.07 3.49-.11 1.41-.16 3.75-.16 5.78v6l2.86.37c2.82.31 8.19.52 11.94.52A112.31 112.31 0 0 0 33 22.55c2-.2 2.92-1.4 3.07-3.44.11-1.25.16-2.81.16-4.42s-.05-3-.16-4.28m64.99 21.89c-.26 3.18-2.55 6.31-6 6.67a149.24 149.24 0 0 1-15.22.73 150.4 150.4 0 0 1-15.32-.78c-3.44-.37-5.37-3.23-5.79-6.67a49.94 49.94 0 0 1-.31-5.58 49 49 0 0 1 .31-5.52c.42-3.44 2.35-6.1 5.79-6.47 4.74-.51 10.58-.78 15.32-.78 3 0 8 .16 11.62.42.73 0 2.76.26 3.23.31 0-1.66-.1-3.49-.16-4.17-.15-2-1-3.28-3.07-3.49a114.68 114.68 0 0 0-11.56-.62c-4.69 0-11.52.26-16.21.78-.68 0-3 .36-3.95.52l-.43-5.84c1-.15 3.5-.47 4.23-.52C68.23.77 75.16.51 79.9.51a149.18 149.18 0 0 1 15.22.78 7.07 7.07 0 0 1 6 6.62c.16 2 .26 10.16.26 12.19 0 3-.1 9.18-.31 12.2M94.7 20.47c-.47 0-2.5-.26-3.28-.31-3.65-.26-8.6-.42-11.57-.42-3.34 0-7.92.16-11.36.47-2.19.21-3 1.14-3.23 3a29 29 0 0 0-.16 3.7 25.85 25.85 0 0 0 .16 3.49c.2 1.88 1 2.87 3.23 3.08 3.44.31 8 .36 11.36.36a113.44 113.44 0 0 0 11.62-.57c2-.21 2.87-1.46 3-3.49.16-2.29.21-4 .21-6.26Zm58.85 18.92V20.05c0-2.45-.06-8.23-.16-9.64-.16-2-1-3.28-3.08-3.49a115.59 115.59 0 0 0-23.13 0c-2 .21-2.92 1.46-3.08 3.49-.1 1.41-.16 7.19-.16 9.64v19.34h-6.66V20.05c0-2 .1-10.11.26-12.14a7.06 7.06 0 0 1 6-6.62 149.27 149.27 0 0 1 30.48 0 7.06 7.06 0 0 1 6 6.62c.16 2 .21 10.11.21 12.14v19.34Zm124.57-20.33c-.42 3.44-2.35 6.1-5.79 6.47a151 151 0 0 1-15.32.78c-3 0-8-.16-11.62-.42-.73-.06-2.76-.26-3.23-.31.05 1.66.11 3.49.16 4.17.15 2 1 3.28 3.07 3.49a114.68 114.68 0 0 0 11.57.62c4.69 0 11.52-.26 16.21-.78.68 0 3-.36 4-.52l.42 5.84c-1 .15-3.5.47-4.22.52-4.7.52-11.63.78-16.37.78a149.32 149.32 0 0 1-15.22-.78 7.07 7.07 0 0 1-6-6.62c-.15-2-.26-10.16-.26-12.19 0-3 .11-9.18.31-12.2.26-3.18 2.55-6.31 6-6.67a154.81 154.81 0 0 1 30.54.05c3.44.36 5.37 3.23 5.79 6.67a47.66 47.66 0 0 1 .31 5.58 46.62 46.62 0 0 1-.31 5.52m-6.56-9.27c-.2-1.88-1-2.87-3.23-3.08-3.44-.31-8-.36-11.36-.36-3.75 0-8.44.21-11.62.57-2 .21-2.87 1.46-3 3.49-.16 2.29-.21 4-.21 6.26v3.07c.47.05 2.5.26 3.28.31 3.65.26 8.6.42 11.57.42 3.34 0 7.92-.16 11.36-.47 2.19-.21 3-1.15 3.23-3a29 29 0 0 0 .16-3.7 25.85 25.85 0 0 0-.16-3.49M330 39.39l-5.7-10.79c-2.87.26-5.78.36-8.6.36-3.54 0-8.39-.21-11.93-.51-.58-.06-2.66-.27-2.87-.27v11.21h-6.67V17c0-2 .11-7 .26-9.07a7 7 0 0 1 6-6.62 149.27 149.27 0 0 1 30.48 0c3.44.36 5.73 3.44 6 6.62.11 1.61.21 4.27.21 6.78 0 2-.1 4.89-.21 6.51a7.2 7.2 0 0 1-5 6.36c-.1.15-.52.15-.73.21l6.41 11.62Zm.37-29c-.16-2-1.05-3.28-3.08-3.49a115.69 115.69 0 0 0-23.14 0c-2 .21-2.91 1.46-3.07 3.49-.1 1.41-.16 3.75-.16 5.78v6l2.87.37c2.81.31 8.18.52 11.93.52a112.16 112.16 0 0 0 11.57-.58c2-.2 2.92-1.4 3.08-3.44.1-1.25.15-2.81.15-4.42s-.05-3-.15-4.28m58.93 28.58a151.43 151.43 0 0 1-15.38.78 138.28 138.28 0 0 1-14.69-.7c-3.44-.36-5.73-3.49-6-6.67-.06-.78-.11-2.24-.16-4.12h6.67c0 .63 0 1.62.05 2 .16 2 1 3 3.08 3.18a102.52 102.52 0 0 0 11 .52c3.34 0 8.13-.15 11.26-.41s3.49-1.67 3.49-4.85-.36-4.64-3.49-4.9-7.92-.47-11.26-.47c-3.49 0-10.58-.31-15.32-.83-5-.53-6-5.58-6-10.63s1-9.95 6-10.48a150.4 150.4 0 0 1 15.37-.83 138.34 138.34 0 0 1 14.7.73 7 7 0 0 1 6 6.57c0 .78 0 2.29.1 4.16h-6.67a16.34 16.34 0 0 0-.11-1.92c-.16-2-1-2.93-3-3.13a101 101 0 0 0-11-.58c-3.33 0-8.13.21-11.25.48s-3.44 1.66-3.44 4.84.36 4.53 3.44 4.8 7.92.52 11.25.52c3 0 10.69.26 15.38.78 5 .52 6.05 5.63 6.05 10.68s-1.05 10-6.05 10.48m122.54-.04-5.68-10.79c-2.86.26-5.78.36-8.6.36-3.54 0-8.39-.21-11.93-.52-.58-.05-2.66-.26-2.87-.26v11.21h-6.67V16.47c0-2 .1-7 .27-9.07a7 7 0 0 1 6-6.62 149.27 149.27 0 0 1 30.48 0 7.06 7.06 0 0 1 6 6.62c.1 1.61.2 4.27.2 6.78 0 2-.1 4.89-.2 6.51a7.22 7.22 0 0 1-5.06 6.36c-.1.15-.52.15-.73.21l6.41 11.62Zm.37-29c-.16-2-1.05-3.28-3.08-3.49a115.59 115.59 0 0 0-23.13 0c-2 .21-2.93 1.46-3.08 3.49-.1 1.41-.16 3.75-.16 5.78v6.05l2.87.37c2.81.31 8.18.52 11.93.52a112.16 112.16 0 0 0 11.57-.6c2-.2 2.92-1.4 3.08-3.44.1-1.25.15-2.81.15-4.42s0-3-.15-4.28m64.94 21.93c-.26 3.18-2.55 6.31-6 6.67a149.1 149.1 0 0 1-15.22.73 150.4 150.4 0 0 1-15.32-.78c-3.44-.37-5.37-3.23-5.79-6.67a47.66 47.66 0 0 1-.31-5.58 46.75 46.75 0 0 1 .31-5.52c.42-3.44 2.35-6.1 5.79-6.47 4.74-.51 10.58-.78 15.32-.78 3 0 8 .16 11.62.42.73 0 2.76.26 3.23.31 0-1.66-.1-3.49-.15-4.17-.16-2-1-3.28-3.08-3.49A114.51 114.51 0 0 0 556 5.84c-4.69 0-11.51.26-16.2.78-.68 0-3 .36-4 .52l-.41-5.84c1-.15 3.49-.47 4.22-.52C544.34.26 551.27 0 556 0a149 149 0 0 1 15.22.78 7.08 7.08 0 0 1 6 6.62c.15 2 .25 10.16.25 12.19 0 3-.1 9.18-.31 12.2M570.81 20c-.47-.05-2.5-.26-3.28-.31-3.65-.26-8.6-.42-11.57-.42-3.34 0-7.92.16-11.36.47-2.19.21-3 1.14-3.23 3a29 29 0 0 0-.16 3.7 25.85 25.85 0 0 0 .16 3.49c.21 1.88 1 2.87 3.23 3.08 3.44.31 8 .36 11.36.36a113.44 113.44 0 0 0 11.62-.57c2-.21 2.87-1.46 3-3.49.16-2.29.21-4 .21-6.26ZM653.49.31h6.67v38.56h-6.67zm66.39 31.48a7.06 7.06 0 0 1-6 6.62 149.32 149.32 0 0 1-15.22.78 149.32 149.32 0 0 1-15.22-.78 7.06 7.06 0 0 1-6-6.62c-.16-2-.26-10.16-.26-12.19V.31h6.67V19.6c0 2.44 0 8.28.16 9.69.15 2 1 3.28 3.07 3.49a112.43 112.43 0 0 0 11.57.57 112.43 112.43 0 0 0 11.57-.57c2-.21 2.92-1.46 3.08-3.49.1-1.41.15-7.25.15-9.69V.31h6.67V19.6c0 2-.1 10.16-.26 12.19m52.72 6.62a151.58 151.58 0 0 1-15.38.78 138.28 138.28 0 0 1-14.69-.73c-3.44-.36-5.74-3.49-6-6.67 0-.78-.1-2.24-.15-4.12H743c0 .63 0 1.62.05 2 .16 2 1 3 3.07 3.18a105.49 105.49 0 0 0 11.05.52c3.34 0 8.13-.16 11.26-.41s3.57-1.69 3.57-4.87-.37-4.64-3.49-4.9-7.92-.47-11.26-.47c-3.49 0-10.58-.31-15.32-.83-5-.53-6-5.58-6-10.63s1-9.95 6-10.48A150.4 150.4 0 0 1 757.2 0a138.34 138.34 0 0 1 14.7.73 7 7 0 0 1 6 6.57c0 .78 0 2.29.1 4.16h-6.67a18.85 18.85 0 0 0-.11-1.92c-.16-2-1-2.93-3-3.13a101.17 101.17 0 0 0-11-.58c-3.33 0-8.13.21-11.25.48s-3.44 1.66-3.44 4.84.36 4.53 3.44 4.8 7.92.52 11.25.52c3 0 10.68.26 15.38.78 5 .52 6 5.63 6 10.68s-1 10-6 10.48M449.14 15.86h-8.87V7a1.24 1.24 0 0 0-1.2-1.27h-5.41A1.23 1.23 0 0 0 432.48 7v8.88h-8.88a1.23 1.23 0 0 0-1.27 1.19v5.4a1.23 1.23 0 0 0 1.27 1.19h8.88v8.88a1.23 1.23 0 0 0 1.18 1.27h5.41a1.24 1.24 0 0 0 1.2-1.27v-8.9h8.87a1.23 1.23 0 0 0 1.27-1.19v-5.4a1.23 1.23 0 0 0-1.27-1.19M220 20.11c0-2-.1-10.16-.26-12.19a7 7 0 0 0-6-6.61 147.19 147.19 0 0 0-15.26-.8c-4.79 0-10.68.21-15.22.68-3.17.31-6.61.73-6.61.73v36.37s3.44.42 6.61.73c4.54.47 10.43.68 15.22.68a147.19 147.19 0 0 0 15.27-.79 7 7 0 0 0 6-6.61c.16-2 .26-10.15.26-12.19Zm-9.95 13.18a115.32 115.32 0 0 1-11.57.57c-3.75 0-8.44-.26-11.36-.52-1.3-.11-2.86-.32-3.8-.42V7.29c.94-.11 2.5-.32 3.8-.42 2.92-.26 7.61-.52 11.36-.52a115.32 115.32 0 0 1 11.57.57c2 .21 2.92 1.46 3.07 3.49.11 1.41.21 7.24.21 9.7s-.1 8.28-.21 9.69c-.15 2-1 3.28-3.07 3.49m426.8-13.69c0-2-.1-10.16-.26-12.19a7.06 7.06 0 0 0-6-6.62A150.15 150.15 0 0 0 615.33 0c-4.79 0-10.68.21-15.22.68-3.18.31-6.62.73-6.62.73v36.37s3.44.42 6.62.73c4.54.46 10.43.68 15.22.68a147.34 147.34 0 0 0 15.27-.79 7 7 0 0 0 6-6.61c.16-2 .26-10.15.26-12.19Zm-10 13.18a115.32 115.32 0 0 1-11.57.57c-3.76 0-8.45-.26-11.36-.52-1.31-.11-2.87-.32-3.81-.42V6.78c.94-.11 2.5-.32 3.81-.42 2.91-.26 7.6-.52 11.36-.52a115.32 115.32 0 0 1 11.57.57c2 .21 2.91 1.46 3.07 3.49.11 1.41.21 7.24.21 9.7s-.1 8.28-.21 9.68c-.16 2-1 3.29-3.07 3.5" style="fill:#1d1d1b" data-name="Lag 1"/></g></svg>