<svg width="32" height="32" fill="none" xmlns="http://www.w3.org/2000/svg"><g clip-path="url(#a)"><path d="M29.332 28h-.666v-.667c0-.868-.559-1.601-1.334-1.877v-9.579A1.996 1.996 0 0 0 28.666 14v-.667h.666a.667.667 0 0 0 .667-.666v-2h.667a.667.667 0 0 0 .358-1.23L16.358.104a.668.668 0 0 0-.716 0L.975 9.437a.666.666 0 0 0 .359 1.23H2v2c0 .368.299.666.667.666h.667V14c0 .868.558 1.601 1.333 1.877v9.579a1.996 1.996 0 0 0-1.333 1.877V28h-.667c-1.103 0-2 .897-2 2v1.333c0 .368.299.667.667.667h29.333a.667.667 0 0 0 .667-.667V30a2.004 2.004 0 0 0-2.002-2ZM11.63 6.779l4-2.667a.667.667 0 0 1 .74 0l4 2.667A.667.667 0 0 1 19.999 8h-8a.668.668 0 0 1-.37-1.221Zm2.369 18.677a1.996 1.996 0 0 0-1.333 1.877V28H9.999v-.667c0-.868-.559-1.601-1.333-1.877v-9.579A1.996 1.996 0 0 0 9.999 14v-.667h2.667V14c0 .868.558 1.601 1.333 1.877v9.579Zm9.333 0A1.996 1.996 0 0 0 22 27.333V28h-2.667v-.667c0-.868-.558-1.601-1.333-1.877v-9.579A1.996 1.996 0 0 0 19.332 14v-.667H22V14c0 .868.559 1.601 1.333 1.877v9.579Z" fill="#00B800"/></g><defs><clipPath id="a"><path fill="#fff" d="M0 0h32v32H0z"/></clipPath></defs></svg>