<svg width="16" height="16" viewBox="0 0 16 16" fill="none" xmlns="http://www.w3.org/2000/svg">
<g clip-path="url(#clip0_1040_685)">
<path d="M11.2512 0.0679992C11.3491 0.124738 11.4248 0.212989 11.466 0.318337C11.5073 0.423684 11.5116 0.5399 11.4782 0.647999L9.6772 6.5H13.0002C13.0979 6.49996 13.1934 6.52852 13.275 6.58215C13.3566 6.63578 13.4207 6.71214 13.4594 6.80179C13.4981 6.89145 13.5098 6.99047 13.4928 7.08665C13.4759 7.18283 13.4312 7.27194 13.3642 7.343L5.3642 15.843C5.28679 15.9253 5.18379 15.979 5.07197 15.9953C4.96016 16.0115 4.84613 15.9894 4.74847 15.9326C4.65081 15.8758 4.57528 15.7875 4.53419 15.6823C4.4931 15.577 4.48887 15.461 4.5222 15.353L6.3232 9.5H3.0002C2.90254 9.50004 2.80702 9.47148 2.72541 9.41785C2.6438 9.36422 2.57968 9.28786 2.54096 9.19821C2.50225 9.10855 2.49064 9.00952 2.50757 8.91335C2.52449 8.81717 2.56921 8.72805 2.6362 8.657L10.6362 0.156999C10.7135 0.0747984 10.8164 0.0211678 10.928 0.00482779C11.0397 -0.0115123 11.1536 0.0103991 11.2512 0.0669992V0.0679992Z" fill="#FFB800"/>
</g>
<defs>
<clipPath id="clip0_1040_685">
<rect width="16" height="16" fill="white"/>
</clipPath>
</defs>
</svg>
