<svg width="18" height="18" fill="none" xmlns="http://www.w3.org/2000/svg"><g clip-path="url(#a)" fill="#fff"><path d="M7.455 10.547C5.737 8.828 5.349 7.11 5.26 6.422a.617.617 0 0 1 .177-.516l1.39-1.39a.62.62 0 0 0 .088-.768L4.702.31a.62.62 0 0 0-.804-.226L.345 1.758a.617.617 0 0 0-.342.617c.186 1.769.958 6.117 5.231 10.39 4.274 4.275 8.621 5.046 10.391 5.232a.617.617 0 0 0 .617-.342l1.674-3.553a.62.62 0 0 0-.225-.803l-3.438-2.213a.62.62 0 0 0-.768.086l-1.39 1.39a.617.617 0 0 1-.516.178c-.688-.087-2.406-.475-4.124-2.193Z"/><path d="M14.275 9.62a.62.62 0 0 1-.62-.62A4.66 4.66 0 0 0 9 4.345a.62.62 0 0 1 0-1.241A5.903 5.903 0 0 1 14.896 9a.62.62 0 0 1-.62.62Z"/><path d="M17.379 9.62a.62.62 0 0 1-.62-.62 7.767 7.767 0 0 0-7.76-7.759A.62.62 0 1 1 9 0a9.01 9.01 0 0 1 9 9 .62.62 0 0 1-.62.62Z"/></g><defs><clipPath id="a"><path fill="#fff" d="M0 0h18v18H0z"/></clipPath></defs></svg>