<svg width="32" height="32" fill="none" xmlns="http://www.w3.org/2000/svg"><g clip-path="url(#a)" fill="#00B800"><path d="M.436 16.041a.667.667 0 0 0-.396.854l.419 1.152 3.188-3.188-3.21 1.182Zm3.017 10.24 1.92 5.28A.66.66 0 0 0 6 32a.653.653 0 0 0 .23-.042l2.119-.781-4.896-4.896Zm28.506-4.508-2.198-6.04-5.273 5.272 2.614-.962a.666.666 0 1 1 .461 1.25l-3.32 1.224a.663.663 0 0 1-.856-.394l-.001-.012-5.588 5.587 13.765-5.071a.665.665 0 0 0 .396-.854Zm-.154-10.911L21.14.195a.667.667 0 0 0-.943 0l-20 20a.667.667 0 0 0 0 .942l10.667 10.667a.67.67 0 0 0 .943.001l20-20a.669.669 0 0 0 0-.943Zm-23.999 7.61L5.139 21.14a.67.67 0 0 1-.944 0 .667.667 0 0 1 0-.943l2.667-2.667a.667.667 0 0 1 .944.943Zm11.513.847c-.472.472-1.113.698-1.827.698-1.178 0-2.556-.617-3.708-1.77-.842-.843-1.434-1.85-1.665-2.837-.256-1.1-.045-2.058.594-2.698.638-.64 1.596-.85 2.697-.593.986.23 1.994.821 2.837 1.665 1.852 1.85 2.324 4.283 1.072 5.535Zm8.486-7.513-2.666 2.666a.67.67 0 0 1-.944 0 .667.667 0 0 1 0-.942l2.666-2.667a.667.667 0 0 1 .944.943Z"/></g><defs><clipPath id="a"><path fill="#fff" d="M0 0h32v32H0z"/></clipPath></defs></svg>