<svg width="32" height="32" fill="none" xmlns="http://www.w3.org/2000/svg"><g clip-path="url(#a)" fill="#00B800"><path d="M4.938 17.914H7.79v2.105H4.937v-2.105Z"/><path d="M30.104 12.337H1.897A1.872 1.872 0 0 0 .024 14.21v15.918C.024 31.162.863 32 1.897 32h28.207a1.872 1.872 0 0 0 1.872-1.872V14.21a1.872 1.872 0 0 0-1.872-1.873Zm-22.529 15.6H2.941v-1.872h4.634v1.873Zm2.087-7.606c0 .86-.7 1.56-1.56 1.56H4.626c-.86 0-1.56-.7-1.56-1.56V17.6c0-.86.7-1.56 1.56-1.56h3.476c.86 0 1.56.7 1.56 1.56v2.73Zm5.074 7.607h-4.633v-1.873h4.633v1.873Zm7.162 0h-4.634v-1.873h4.634v1.873Zm7.161 0h-4.634v-1.873h4.634v1.873Zm-3.902-23.39-4-4a1.872 1.872 0 0 0-2.648 0l-9.916 9.917h10.985l5.579-5.917Zm-.115 5.917L27.97 7.36l-1.488-1.488-4.33 4.593h2.89Zm5.062 0c.402 0 .79.065 1.153.183l-1.963-1.963-1.679 1.78h2.489Z"/></g><defs><clipPath id="a"><path fill="#fff" d="M0 0h32v32H0z"/></clipPath></defs></svg>