<svg width="18" height="18" fill="none" xmlns="http://www.w3.org/2000/svg"><path fill-rule="evenodd" clip-rule="evenodd" d="M1.301 2.65h10.337c.292 0 .528.236.528.527v1.056h3.007c.33 0 .62.218.71.536l.905 3.166c.107.019.205.07.282.147l.747.746a.528.528 0 0 1 .154.373v3.476a.528.528 0 0 1-.527.528H15.86a2.111 2.111 0 0 1-4.222 0H6.36a2.111 2.111 0 0 1-4.222 0H.555a.528.528 0 0 1-.528-.528V3.924a.53.53 0 0 1 .155-.374l.746-.746a.528.528 0 0 1 .373-.155Zm14.387 5.277-.754-2.639h-2.768V7.4c0 .292.236.528.528.528h2.994ZM13.75 12.15a1.056 1.056 0 1 1 0 2.111 1.056 1.056 0 0 1 0-2.11ZM3.194 13.205a1.055 1.055 0 1 0 2.11 0 1.055 1.055 0 0 0-2.11 0Z" fill="#fff"/></svg>