<svg width="40" height="40" fill="none" xmlns="http://www.w3.org/2000/svg"><g clip-path="url(#a)"><path d="M39.155 30.142c.46 0 .833-.525.833-1.171 0-.647-.373-1.171-.833-1.171h-1.566V15.446h1.566c.46 0 .833-.524.833-1.17 0-.647-.373-1.172-.833-1.172h-1.566V4.221a1.57 1.57 0 0 0-.167-.714L35.782.463c-.159-.293-.409-.457-.667-.457-.258 0-.508.164-.666.457l-1.64 3.044c-.109.21-.167.457-.167.714v8.883h-2.707V4.221a1.57 1.57 0 0 0-.166-.714L28.129.463c-.317-.586-1.017-.586-1.333 0l-1.64 3.044c-.11.21-.168.457-.168.714v8.883h-2.706V4.221c0-.257-.058-.503-.167-.714L20.475.463c-.158-.293-.408-.457-.666-.457-.259 0-.508.164-.667.457L17.51 3.507c-.108.21-.167.457-.167.714v8.883h-2.706V4.221c0-.257-.058-.503-.167-.714L12.83.463c-.317-.586-1.016-.586-1.333 0l-1.64 3.044c-.109.21-.167.457-.167.714v8.883H6.984V4.221a1.57 1.57 0 0 0-.167-.714L5.177.463C5.017.17 4.767.006 4.51.006c-.258 0-.508.164-.666.457l-1.64 3.044c-.109.21-.167.457-.167.714v8.883H.847c-.46 0-.833.525-.833 1.171 0 .647.372 1.171.832 1.171h1.19V27.8H.847c-.46 0-.832.524-.832 1.17 0 .647.372 1.172.832 1.172h1.19v7.506H.847c-.46 0-.832.524-.832 1.17 0 .647.372 1.172.832 1.172h2.008c.005 0 .01.004.016.004h3.28c.006 0 .011-.004.017-.005h4.34c.006 0 .01.005.016.005h3.281c.006 0 .01-.004.016-.005h4.34c.006 0 .01.005.016.005h3.273c.006 0 .01-.004.016-.005h4.34c.006 0 .01.005.016.005h3.281c.006 0 .01-.004.017-.005h4.34c.005 0 .01.005.016.005h3.28c.006 0 .011-.004.017-.005h2.38c.46 0 .833-.524.833-1.17 0-.647-.372-1.171-.833-1.171H37.59v-7.506h1.566Zm-6.513-14.696V27.8h-2.707V15.446h2.707ZM14.637 30.142h2.706v7.506h-2.706v-7.506Zm7.645 0h2.706v7.506h-2.706v-7.506Zm2.706-14.696V27.8h-2.706V15.446h2.706Zm-7.645 0V27.8h-2.706V15.446h2.706Zm-7.653 0V27.8H6.984V15.446H9.69ZM6.984 30.142H9.69v7.506H6.984v-7.506Zm22.951 7.506v-7.506h2.707v7.506h-2.707Z" fill="#00B800"/></g><defs><clipPath id="a"><path fill="#fff" d="M0 0h40v40H0z"/></clipPath></defs></svg>