<svg width="40" height="40" fill="none" xmlns="http://www.w3.org/2000/svg"><g clip-path="url(#a)" fill="#00B800"><path d="M20 12.38c-4.202 0-7.621 3.418-7.621 7.62 0 4.203 3.419 7.622 7.621 7.622 4.203 0 7.622-3.419 7.622-7.621 0-4.203-3.42-7.622-7.622-7.622Zm4.525 6.185-5.46 5.46a1.17 1.17 0 0 1-1.66 0L15.32 21.94a1.173 1.173 0 1 1 1.66-1.66l1.256 1.257 4.63-4.63a1.173 1.173 0 1 1 1.66 1.66Z"/><path d="m36.991 10.853-.001-.031c-.018-.384-.029-.79-.036-1.243a4.24 4.24 0 0 0-3.992-4.153c-4.599-.257-8.157-1.757-11.196-4.72L21.74.682a2.56 2.56 0 0 0-3.48 0l-.025.024c-3.04 2.963-6.598 4.463-11.197 4.72a4.24 4.24 0 0 0-3.991 4.153c-.007.45-.02.856-.036 1.243l-.002.072c-.09 4.69-.2 10.526 1.752 15.824 1.073 2.913 2.7 5.445 4.832 7.527 2.43 2.37 5.611 4.253 9.457 5.594a2.944 2.944 0 0 0 .95.16 2.876 2.876 0 0 0 .952-.161c3.841-1.343 7.02-3.227 9.447-5.597 2.132-2.082 3.758-4.615 4.832-7.529 1.96-5.313 1.85-11.16 1.76-15.859ZM20 29.969c-5.497 0-9.969-4.472-9.969-9.968 0-5.497 4.472-9.969 9.969-9.969 5.496 0 9.968 4.472 9.968 9.969 0 5.496-4.472 9.968-9.968 9.968Z"/></g><defs><clipPath id="a"><path fill="#fff" d="M0 0h40v40H0z"/></clipPath></defs></svg>