<svg width="40" height="40" fill="none" xmlns="http://www.w3.org/2000/svg"><path d="M40 9.127v12.108s-2.592.511-3.125.578c-.533.067-2.205.607-3.417-.558-1.87-1.791-8.51-8.396-8.51-8.396s-1.145-1.123-2.984-.152c-1.688.89-4.19 2.193-5.234 2.7-1.976 1.052-3.613-.616-3.613-1.887 0-.986.615-1.655 1.494-2.147C16.994 9.93 22.016 7.11 24.108 6c1.271-.677 2.187-.735 3.933.736a509.5 509.5 0 0 1 4.063 3.456s.624.52 1.62.311A689.526 689.526 0 0 0 40 9.127ZM13.567 29.643c.321-.826.214-1.75-.403-2.384-.554-.567-1.363-.716-2.134-.54.216-.765.097-1.579-.46-2.154-.556-.565-1.364-.718-2.135-.54.214-.763.095-1.577-.462-2.15-.873-.896-2.382-.857-3.374.088-.987.947-1.619 2.662-.738 3.671.879 1.005 1.889.393 2.659.218-.214.764-.856 1.474-.066 2.474.79 1 1.89.394 2.66.22-.215.76-.829 1.543-.069 2.47.767.93 2.023.434 2.853.177-.32.823-1.006 1.71-.125 2.704.879 1.002 2.91.538 3.902-.408.99-.947 1.085-2.447.215-3.345-.601-.616-1.497-.76-2.323-.5Zm18.106-6.299c-7.173-7.173-3.8-3.798-7.66-7.666 0 0-1.16-1.155-2.69-.485-1.073.47-2.454 1.112-3.494 1.601-1.143.6-1.965.785-2.351.782-2.21-.014-4.001-1.79-4.001-3.996 0-1.432.76-2.678 1.893-3.386 1.594-1.103 5.263-3.054 5.263-3.054s-1.118-1.417-3.566-1.417c-2.448 0-7.562 3.35-7.562 3.35s-1.45.93-3.519.093L0 7.778v13.855s1.138.33 2.16.748a4.556 4.556 0 0 1 1.122-1.77c1.696-1.616 4.509-1.633 6.052-.043.465.483.79 1.06.956 1.697a3.865 3.865 0 0 1 1.638.998c.466.48.79 1.06.956 1.694a3.882 3.882 0 0 1 1.639 1 3.915 3.915 0 0 1 1.011 1.855 3.93 3.93 0 0 1 1.71 1.025c.927.953 1.256 2.245 1.057 3.493.001 0 .004 0 .006.002.015.02.575.644.924.996a1.76 1.76 0 0 0 2.486 0 1.765 1.765 0 0 0 0-2.487c-.024-.024-2.467-2.58-2.27-2.777.195-.197 3.307 3.041 3.365 3.1a1.763 1.763 0 0 0 2.485 0 1.762 1.762 0 0 0 0-2.485 13.532 13.532 0 0 1-.226-.22s-3.086-2.748-2.85-2.983c.237-.236 4.07 3.34 4.076 3.34.69.621 1.75.617 2.413-.046.645-.645.66-1.665.087-2.353-.012-.036-2.92-3.076-2.694-3.305.23-.232 3.11 2.732 3.115 2.738.682.683 1.8.683 2.485 0a1.767 1.767 0 0 0 0-2.488l-.03-.018Z" fill="#00B800"/></svg>