<svg width="36" height="48" fill="none" xmlns="http://www.w3.org/2000/svg"><g clip-path="url(#a)"><path d="M0 0h36v48H0V0Z" fill="#fff"/><path d="M.375 3A2.625 2.625 0 0 1 3 .375h30A2.625 2.625 0 0 1 35.625 3v35.308a2.625 2.625 0 0 1-1.102 2.137l-9.397 6.693a2.625 2.625 0 0 1-1.522.487H3A2.625 2.625 0 0 1 .375 45V3Z" fill="#fff" stroke="#DFE3E8"/><path d="M7.338 27.082a.777.777 0 0 0 .767-.766.776.776 0 0 0-.767-.76.764.764 0 0 0 0 1.527Zm2.9-.082h1.384v-2.122h1.163c1.506 0 2.382-.898 2.382-2.206 0-1.3-.86-2.217-2.346-2.217h-2.583V27Zm1.384-3.231v-2.182h.933c.8 0 1.186.434 1.186 1.085 0 .65-.386 1.097-1.18 1.097h-.939ZM19.376 27c1.995 0 3.202-1.234 3.202-3.279 0-2.04-1.207-3.266-3.183-3.266h-2.34V27h2.32Zm-.937-1.186V21.64h.883c1.227 0 1.875.627 1.875 2.081 0 1.46-.648 2.093-1.88 2.093h-.878ZM24.593 27h1.384v-2.704h2.663v-1.14h-2.663v-1.56h2.95v-1.141h-4.334V27Z" fill="#00B800"/></g><defs><clipPath id="a"><path fill="#fff" d="M0 0h36v48H0z"/></clipPath></defs></svg>