<svg width="32" height="32" fill="none" xmlns="http://www.w3.org/2000/svg"><g clip-path="url(#a)"><path d="M27.384.822a1.34 1.34 0 0 0-1.458.222l-2.1 1.859a.15.15 0 0 1-.2-.001L20.77.347a1.36 1.36 0 0 0-1.815 0L16.101 2.9a.151.151 0 0 1-.201 0L13.044.347a1.36 1.36 0 0 0-1.815 0L8.373 2.902a.151.151 0 0 1-.201 0L6.071 1.045a1.35 1.35 0 0 0-2.249 1.02v27.872a1.353 1.353 0 0 0 2.252 1.02l2.1-1.858a.15.15 0 0 1 .2 0l2.856 2.555a1.36 1.36 0 0 0 1.816 0L15.9 29.1a.151.151 0 0 1 .202 0l2.854 2.553a1.36 1.36 0 0 0 1.815 0l2.857-2.555a.151.151 0 0 1 .201 0l2.101 1.858a1.35 1.35 0 0 0 2.248-1.02V2.064a1.34 1.34 0 0 0-.794-1.242ZM8.83 10.857h7.533a.605.605 0 1 1 0 1.21H8.83a.605.605 0 1 1 0-1.21Zm14.34 10.287H8.83a.605.605 0 0 1 0-1.21h14.34a.605.605 0 0 1 0 1.21Zm0-4.539H8.83a.605.605 0 0 1 0-1.21h14.34a.605.605 0 0 1 0 1.21Z" fill="#00B800"/></g><defs><clipPath id="a"><path fill="#fff" d="M0 0h32v32H0z"/></clipPath></defs></svg>