<svg width="18" height="18" fill="none" xmlns="http://www.w3.org/2000/svg"><g clip-path="url(#a)"><path d="m.094 5.932 1.126.88L.16 8.845c-.53.937.38 1.85.96 2.167.572.313 1.459.35 2.288.339l1.49-2.438 1.128.61L4.07 5.897l-3.976.034Zm.165 4.973 2.42 4.47c.485.62 1.402.767 2.352.745h2.552v-4.233l-4.838-.034c-.751.045-1.735-.113-2.486-.948ZM15.48 2.67l-1.316.558-1.262-1.912c-.563-.918-1.802-.564-2.361-.21-.551.348-1.013 1.106-1.405 1.836l1.409 2.486-1.08.69 4.117.046L15.48 2.67ZM11.05.403 5.969.352c-.779.124-1.352.854-1.792 1.696L2.938 4.28 6.64 6.332l2.376-4.215c.324-.68.94-1.462 2.034-1.714Zm.222 17.245.15-1.422 2.284-.177c1.075-.047 1.367-1.303 1.329-1.963-.038-.65-.476-1.422-.925-2.119l-2.858.027-.08-1.278-2.036 3.578 2.136 3.354Zm4.13-2.775 2.508-4.42c.269-.742-.093-1.597-.615-2.39L15.94 5.897 12.351 8.14l2.535 4.121c.437.613.824 1.53.513 2.61Z" fill="#fff"/></g><defs><clipPath id="a"><path fill="#fff" d="M0 0h18v18H0z"/></clipPath></defs></svg>