<svg width="16" height="16" fill="none" xmlns="http://www.w3.org/2000/svg"><g clip-path="url(#a)"><path d="M3.581 15.364a.85.85 0 0 1-.829-1.04l1.03-4.534L.29 6.728A.85.85 0 0 1 .773 5.24l4.619-.419L7.218.548A.85.85 0 0 1 8.782.547l1.826 4.274 4.618.42a.85.85 0 0 1 .483 1.487L12.22 9.79l1.029 4.534a.85.85 0 0 1-1.265.919L8 12.862l-3.983 2.381a.852.852 0 0 1-.436.121ZM8 11.836c.151 0 .301.041.436.121l3.759 2.248-.972-4.28a.85.85 0 0 1 .27-.828l3.296-2.89-4.361-.397a.85.85 0 0 1-.707-.515L8 1.262 6.277 5.296a.847.847 0 0 1-.705.513l-4.362.396 3.296 2.89c.237.207.34.525.27.83l-.97 4.28 3.758-2.248a.853.853 0 0 1 .436-.12ZM5.357 4.904l-.001.001v-.001Zm5.285-.002v.001-.001Z" fill="#00B800"/></g><defs><clipPath id="a"><path fill="#fff" d="M0 0h16v16H0z"/></clipPath></defs></svg>