<svg width="18" height="18" fill="none" xmlns="http://www.w3.org/2000/svg"><g clip-path="url(#a)"><path fill-rule="evenodd" clip-rule="evenodd" d="M0 2.571C0 1.506.863.643 1.929.643H16.07c1.067 0 1.93.863 1.93 1.927v10.286a1.929 1.929 0 0 1-1.929 1.929h-6.89l-4.023 2.476a.643.643 0 0 1-.98-.548v-1.928h-2.25A1.929 1.929 0 0 1 0 12.857V2.571ZM5.143 6.43a1.286 1.286 0 1 0 0 2.57 1.286 1.286 0 0 0 0-2.57Zm2.571 1.285a1.286 1.286 0 1 1 2.572 0 1.286 1.286 0 0 1-2.572 0Zm5.143-1.285a1.286 1.286 0 1 0 0 2.57 1.286 1.286 0 0 0 0-2.57Z" fill="#fff"/></g><defs><clipPath id="a"><path fill="#fff" d="M0 0h18v18H0z"/></clipPath></defs></svg>