<svg width="40" height="40" fill="none" xmlns="http://www.w3.org/2000/svg"><g clip-path="url(#a)" fill="#00B800"><path d="M10.625 18.906C4.809 18.906.078 23.638.078 29.453.078 35.27 4.81 40 10.625 40c5.816 0 10.547-4.731 10.547-10.547 0-5.815-4.732-10.547-10.547-10.547Zm4.657 9.266-5.469 5.47a1.168 1.168 0 0 1-1.657 0l-2.344-2.345a1.172 1.172 0 1 1 1.657-1.657l1.515 1.515 4.64-4.64a1.172 1.172 0 0 1 1.658 1.657Z"/><path d="M30.938 10.156a1.172 1.172 0 0 1-1.172-1.172V0H12.969a3.52 3.52 0 0 0-3.516 3.516v13.1a12.87 12.87 0 0 1 11.108 4.634h12.72a1.172 1.172 0 0 1 0 2.344H22.105a12.791 12.791 0 0 1 1.357 4.687h9.82a1.172 1.172 0 0 1 0 2.344h-9.82A12.896 12.896 0 0 1 18.028 40h18.378a3.52 3.52 0 0 0 3.516-3.516V10.156h-8.984Zm2.343 6.406H16.094a1.172 1.172 0 0 1 0-2.343H33.28a1.172 1.172 0 1 1 0 2.344Z"/><path d="M32.11.686v7.126h7.125L32.11.686Z"/></g><defs><clipPath id="a"><path fill="#fff" d="M0 0h40v40H0z"/></clipPath></defs></svg>