<svg width="18" height="18" fill="none" xmlns="http://www.w3.org/2000/svg"><g clip-path="url(#a)" fill="#fff"><path d="M16.925 11.703c-.926-.926-2.21-1.319-3.86-.877L7.18 4.936l.077-.293a3.707 3.707 0 0 0-.955-3.567A3.635 3.635 0 0 0 2.745.133a.527.527 0 0 0-.233.881l1.417 1.417c.414.415.41 1.08 0 1.49a1.066 1.066 0 0 1-1.492.001L1.02 2.505a.527.527 0 0 0-.881.234 3.647 3.647 0 0 0 .944 3.558c.925.926 2.208 1.32 3.86.877l5.884 5.89c-.44 1.649-.06 2.921.878 3.86a3.635 3.635 0 0 0 3.557.943.527.527 0 0 0 .233-.882l-1.416-1.416a1.054 1.054 0 0 1-.001-1.49 1.068 1.068 0 0 1 1.492 0l1.417 1.416a.527.527 0 0 0 .881-.234 3.648 3.648 0 0 0-.943-3.558Z"/><path d="M5.644 9.372.617 14.4a2.111 2.111 0 0 0 0 2.983 2.11 2.11 0 0 0 2.983 0l5.027-5.028-2.983-2.983Zm-2.54 6.374a.527.527 0 1 1-.745-.745l3.199-3.2a.527.527 0 1 1 .745.746l-3.198 3.2ZM17.845 1.064l-.909-.91a.527.527 0 0 0-.644-.079l-2.797 1.678a.527.527 0 0 0-.101.825l.223.222-3.55 3.536 1.491 1.492 3.55-3.536.314.314a.527.527 0 0 0 .825-.102l1.678-2.796a.527.527 0 0 0-.08-.644Z"/></g><defs><clipPath id="a"><path fill="#fff" d="M0 0h18v18H0z"/></clipPath></defs></svg>