<svg width="40" height="40" fill="none" xmlns="http://www.w3.org/2000/svg"><g clip-path="url(#a)" fill="#00B800"><path d="M37.611 26.007c-2.057-2.059-4.912-2.931-8.58-1.949L15.958 10.97l.173-.653a8.239 8.239 0 0 0-2.123-7.925A8.078 8.078 0 0 0 6.099.295a1.172 1.172 0 0 0-.517 1.959L8.73 5.402c.92.923.912 2.4.003 3.312-.902.904-2.418.903-3.317.002l-3.149-3.15a1.171 1.171 0 0 0-1.958.521 8.105 8.105 0 0 0 2.097 7.906c2.057 2.058 4.909 2.933 8.577 1.948L24.06 29.03c-.976 3.665-.134 6.493 1.951 8.578a8.079 8.079 0 0 0 7.906 2.096 1.172 1.172 0 0 0 .518-1.959l-3.148-3.147a2.341 2.341 0 0 1-.002-3.312c.913-.908 2.426-.894 3.316-.001l3.15 3.148a1.172 1.172 0 0 0 1.957-.52 8.107 8.107 0 0 0-2.096-7.906Z"/><path d="M12.542 20.827 1.372 32a4.692 4.692 0 0 0 0 6.629 4.692 4.692 0 0 0 6.628 0l11.172-11.172-6.63-6.63ZM6.9 34.992a1.171 1.171 0 1 1-1.658-1.657l7.108-7.11a1.171 1.171 0 1 1 1.657 1.658L6.9 34.993ZM39.656 2.364l-2.02-2.02c-.38-.38-.97-.454-1.432-.177l-6.215 3.728a1.172 1.172 0 0 0-.226 1.834l.495.494-7.889 7.857 3.315 3.315 7.89-7.856.696.697c.54.538 1.442.428 1.834-.226l3.728-6.215a1.172 1.172 0 0 0-.176-1.431Z"/></g><defs><clipPath id="a"><path fill="#fff" d="M0 0h40v40H0z"/></clipPath></defs></svg>