<svg width="18" height="18" fill="none" xmlns="http://www.w3.org/2000/svg"><g clip-path="url(#a)"><path d="M17.95 4.375a.413.413 0 0 0-.705-.257L14.92 6.445l-2.58-.817-.816-2.58L13.849.723a.414.414 0 0 0-.257-.704 4.779 4.779 0 0 0-3.798 1.384 4.794 4.794 0 0 0-1.091 5.08 3.29 3.29 0 0 0-.208.189L.729 13.999l-.009.008a2.346 2.346 0 0 0 0 3.314 2.332 2.332 0 0 0 3.313-.023l7.265-7.827c.066-.066.127-.136.185-.207a4.794 4.794 0 0 0 5.083-1.09 4.78 4.78 0 0 0 1.384-3.799ZM2.851 16.334a.861.861 0 1 1-1.218-1.218.861.861 0 0 1 1.218 1.218Z" fill="#fff"/></g><defs><clipPath id="a"><path fill="#fff" d="M0 0h18v18H0z"/></clipPath></defs></svg>