<svg xmlns="http://www.w3.org/2000/svg" viewBox="100 110 630 410"><path fill="#fff" d="M134.161 501.104l13.727-42.256h10.313l-19.44 54.017h-9.089l-19.366-54.017h10.276l13.579 42.256z"/><g fill="#fff"><path d="M207.156 492.089h-10.462v20.775h-9.386v-54.017h18.995c6.233 0 11.043 1.398 14.432 4.196 3.388 2.797 5.083 6.845 5.083 12.142 0 3.614-.872 6.64-2.615 9.078s-4.174 4.313-7.29 5.625l12.131 22.494v.481H217.99l-10.834-20.774zm-10.462-7.568h9.646c3.166 0 5.639-.798 7.42-2.393 1.781-1.596 2.671-3.778 2.671-6.549 0-2.894-.823-5.132-2.467-6.715-1.645-1.582-4.1-2.398-7.364-2.448h-9.905v18.105zM314.178 493.536h-19.477v-7.271h19.477v7.271z"/></g><path fill="#fff" d="M430.678 505.853c-1.954 2.548-4.663 4.477-8.125 5.787-3.463 1.311-7.396 1.967-11.797 1.967-4.526 0-8.533-1.026-12.02-3.079s-6.177-4.99-8.069-8.812-2.875-8.278-2.949-13.374v-4.229c0-8.162 1.954-14.536 5.862-19.125 3.907-4.587 9.361-6.882 16.36-6.882 6.01 0 10.783 1.49 14.32 4.471 3.537 2.98 5.664 7.266 6.382 12.854h-9.201c-1.039-6.504-4.811-9.757-11.315-9.757-4.205 0-7.401 1.512-9.59 4.532-2.189 3.021-3.321 7.455-3.395 13.301v4.144c0 5.821 1.23 10.341 3.691 13.56s5.88 4.828 10.258 4.828c4.798 0 8.211-1.082 10.239-3.247v-10.517h-11.13v-7.123h20.479v20.701z"/><g fill="#fff"><path d="M483.861 492.089h-10.463v20.775h-9.386v-54.017h18.995c6.232 0 11.043 1.398 14.432 4.196 3.388 2.797 5.082 6.845 5.082 12.142 0 3.614-.871 6.64-2.615 9.078s-4.174 4.313-7.29 5.625l12.132 22.494v.481h-10.055l-10.832-20.774zm-10.463-7.568h9.646c3.165 0 5.639-.798 7.42-2.393 1.78-1.596 2.671-3.778 2.671-6.549 0-2.894-.823-5.132-2.468-6.715-1.645-1.582-4.1-2.398-7.363-2.448h-9.906v18.105zM576.492 487.266c0 5.293-.915 9.937-2.745 13.931-1.831 3.995-4.446 7.062-7.847 9.201s-7.314 3.209-11.742 3.209c-4.377 0-8.279-1.069-11.704-3.209-3.426-2.14-6.072-5.188-7.939-9.146-1.868-3.957-2.813-8.52-2.838-13.689v-3.042c0-5.269.933-9.918 2.801-13.949 1.867-4.031 4.501-7.117 7.902-9.257 3.4-2.139 7.302-3.209 11.704-3.209s8.305 1.058 11.705 3.172c3.4 2.115 6.029 5.157 7.884 9.127s2.795 8.588 2.819 13.856v3.005zm-9.386-2.819c0-5.985-1.132-10.573-3.395-13.764s-5.472-4.786-9.628-4.786c-4.057 0-7.229 1.59-9.516 4.768s-3.456 7.674-3.506 13.485v3.116c0 5.937 1.156 10.524 3.469 13.764 2.313 3.24 5.521 4.86 9.627 4.86 4.156 0 7.352-1.583 9.591-4.749 2.238-3.165 3.357-7.791 3.357-13.875v-2.819z"/></g><path fill="#fff" d="M649.287 458.848v36.098c0 5.738-1.837 10.283-5.51 13.634-3.673 3.352-8.564 5.027-14.673 5.027-6.184 0-11.093-1.651-14.729-4.953s-5.454-7.884-5.454-13.745v-36.061h9.35v36.078c0 3.605.915 6.358 2.746 8.26 1.83 1.901 4.525 2.853 8.087 2.853 7.222 0 10.833-3.803 10.833-11.408v-35.782h9.35zM691.71 492.832v20.033h-9.386v-54.017h20.664c6.034 0 10.827 1.573 14.376 4.717 3.549 3.145 5.324 7.305 5.324 12.479 0 5.299-1.738 9.422-5.213 12.368s-8.342 4.42-14.599 4.42H691.71zm0-7.569h11.278c3.339 0 5.886-.785 7.643-2.356 1.756-1.57 2.634-3.84 2.634-6.808 0-2.918-.891-5.249-2.671-6.993-1.78-1.743-4.229-2.64-7.346-2.689H691.71v18.846zM722.646 422.07H538.804l-85.619-84.5 101.25-89.189s2.398-1.84-.07-4.31l-5.18-5.19s-2.82-2.81-5.631 0-216.81 185.97-216.81 185.97l-216.44-192.66 98.13-86.37 120.37 103.25 123-103.25s94.25-70.38 178.5 13.87c80 80 29.75 154.25 10.5 173.5 16.5 16.5 81.842 88.879 81.842 88.879z"/><path fill="none" stroke="#22252A" stroke-miterlimit="10" d="M110.305 232.19l98.13-86.37 120.37 103.25 122.999-103.25s94.25-70.38 178.5 13.87c80 80 29.75 154.251 10.5 173.501 16.5 16.5 81.842 88.879 81.842 88.879H538.804l-85.619-84.5 101.25-89.189s2.398-1.84-.07-4.31l-5.18-5.19s-2.82-2.81-5.631 0-216.81 185.97-216.81 185.97L110.305 232.19z"/></svg>