<svg width="24" height="24" viewBox="0 0 24 24" fill="none" xmlns="http://www.w3.org/2000/svg">
<path d="M6.5 9L6 5C6 5 6.91421 6.01184 7.5 6.5C8.08579 6.98816 9 7.5 9 7.5C9 7.5 10.9085 6.97887 12.1562 7C13.2837 7.01909 15 7.5 15 7.5C15 7.5 15.9142 6.98816 16.5 6.5C17.0858 6.01184 18 5 18 5L17.5 9L20 10C20 10 19.4882 11.0118 19 11.5C18.5118 11.9882 17.5 12.5 17.5 12.5L16 15.5C16 15.5 16.404 17.1112 16 18C15.6572 18.7542 14.5 19.5 14.5 19.5C14.5 19.5 13.1386 21 12 21C10.8614 21 9.5 19.5 9.5 19.5C9.5 19.5 8.34281 18.7542 8 18C7.596 17.1112 8 15.5 8 15.5L6.5 12.5C6.5 12.5 5.48816 11.9882 5 11.5C4.51184 11.0118 4 10 4 10L6.5 9Z" stroke="#FF6C02" stroke-width="2"/>
</svg>
