<svg width="24" height="24" viewBox="0 0 24 24" fill="none" xmlns="http://www.w3.org/2000/svg">
<rect x="2" y="19" width="20" height="2" fill="#FF6C02"/>
<rect x="2" y="10" width="2" height="2" fill="#FF6C02"/>
<rect x="2" y="6" width="2" height="2" fill="#FF6C02"/>
<rect x="2" y="14" width="2" height="2" fill="#FF6C02"/>
<rect x="6" y="14" width="2" height="2" fill="#FF6C02"/>
<rect x="6" y="10" width="2" height="2" fill="#FF6C02"/>
<rect x="10" y="14" width="2" height="2" fill="#FF6C02"/>
<path fill-rule="evenodd" clip-rule="evenodd" d="M17.5 2L21.2442 7.3436C22.434 9.04173 22.1987 11.3029 20.6819 12.746C18.9246 14.418 16.0754 14.418 14.3181 12.746C12.8013 11.3029 12.566 9.04173 13.7558 7.3436L17.5 2ZM17.5 5.75735L15.5785 8.49971C14.9678 9.37119 15.0886 10.5316 15.867 11.2722C16.7689 12.1303 18.2311 12.1303 19.133 11.2722C19.9114 10.5316 20.0322 9.37119 19.4215 8.49971L17.5 5.75735Z" fill="#FF6C02"/>
</svg>
