<svg width="24" height="24" viewBox="0 0 24 24" fill="none" xmlns="http://www.w3.org/2000/svg">
<path fill-rule="evenodd" clip-rule="evenodd" d="M12 2L15.7442 7.3436C16.934 9.04173 16.6987 11.3029 15.1819 12.746C13.4246 14.418 10.5754 14.418 8.81807 12.746C7.30131 11.3029 7.06599 9.04173 8.25584 7.3436L12 2ZM12 5.75735L10.0785 8.49971C9.46785 9.37119 9.58861 10.5316 10.367 11.2722C11.2689 12.1303 12.7311 12.1303 13.633 11.2722C14.4114 10.5316 14.5322 9.37119 13.9215 8.49971L12 5.75735Z" fill="#FF6C02"/>
<path d="M14 22C14 17.5817 17.5817 14 22 14" stroke="#FF6C02" stroke-width="2"/>
<path d="M10 22C10 17.5817 6.41828 14 2 14" stroke="#FF6C02" stroke-width="2"/>
<path d="M18 22C18 19.7909 19.7909 18 22 18" stroke="#FF6C02" stroke-width="2"/>
<path d="M6 22C6 19.7909 4.20914 18 2 18" stroke="#FF6C02" stroke-width="2"/>
</svg>
