<svg width="24" height="24" viewBox="0 0 24 24" fill="none" xmlns="http://www.w3.org/2000/svg">
<path d="M15.933 7.26586L16.0581 7.94185L16.7341 8.06704C18.5926 8.41122 20 10.0423 20 12C20 13.9577 18.5926 15.5888 16.7341 15.933L16.0581 16.0581L15.933 16.7341C15.5888 18.5926 13.9577 20 12 20C10.0423 20 8.41122 18.5926 8.06704 16.7341L7.94185 16.0581L7.26586 15.933C5.40739 15.5888 4 13.9577 4 12C4 10.0423 5.40739 8.41122 7.26586 8.06704L7.94185 7.94185L8.06704 7.26586C8.41122 5.40739 10.0423 4 12 4C13.9577 4 15.5888 5.40739 15.933 7.26586Z" stroke="#FF6C02" stroke-width="2"/>
</svg>
