<svg aria-hidden="true" style="position: absolute; width: 0; height: 0; overflow: hidden;" version="1.1" xmlns="http://www.w3.org/2000/svg" xmlns:xlink="http://www.w3.org/1999/xlink">
<defs>
<symbol id="icon-korrozia" viewBox="0 0 17 17">
<path fill="none" stroke-linejoin="miter" stroke-linecap="butt" stroke-miterlimit="4" stroke-width="1.4167" d="M1.417 13.458h4.25l2.833 1.417 2.833-1.417h4.25"></path>
<path d="M8.5 1.417l2.652 3.785c0.843 1.203 0.676 2.804-0.398 3.826-1.245 1.184-3.263 1.184-4.508 0-1.075-1.022-1.241-2.624-0.398-3.826l2.652-3.785zM8.5 4.078l-1.361 1.943c-0.172 0.241-0.275 0.541-0.275 0.865 0 0.433 0.184 0.824 0.478 1.098l0.001 0.001c0.302 0.282 0.709 0.456 1.157 0.456s0.855-0.173 1.158-0.457l-0.001 0.001c0.551-0.524 0.638-1.346 0.205-1.963l-1.361-1.943z"></path>
</symbol>
<symbol id="icon-techobsluzhivanie" viewBox="0 0 17 17">
<path fill="none" stroke-linejoin="miter" stroke-linecap="butt" stroke-miterlimit="4" stroke-width="1.4167" d="M14.875 13.458c0-3.521-2.854-6.375-6.375-6.375s-6.375 2.854-6.375 6.375v0M14.167 4.074c-1.541-1.215-3.511-1.949-5.652-1.949-0.005 0-0.010 0-0.015 0h0.001c-0.004 0-0.009-0-0.015-0-2.141 0-4.111 0.734-5.672 1.964l0.020-0.015M11.333 13.458c0-1.565-1.269-2.833-2.833-2.833s-2.833 1.269-2.833 2.833v0"></path>
</symbol>
<symbol id="icon-prochee" viewBox="0 0 17 17">
<path d="M5.667 8.5c0 0.782-0.634 1.417-1.417 1.417s-1.417-0.634-1.417-1.417v0c0-0.782 0.634-1.417 1.417-1.417s1.417 0.634 1.417 1.417v0zM9.917 8.5c0 0.782-0.634 1.417-1.417 1.417s-1.417-0.634-1.417-1.417v0c0-0.782 0.634-1.417 1.417-1.417s1.417 0.634 1.417 1.417v0zM14.167 8.5c0 0.782-0.634 1.417-1.417 1.417s-1.417-0.634-1.417-1.417v0c0-0.782 0.634-1.417 1.417-1.417s1.417 0.634 1.417 1.417v0z"></path>
</symbol>
<symbol id="icon-smazka" viewBox="0 0 17 17">
<path d="M8.5 1.417l2.652 3.785c0.843 1.203 0.676 2.804-0.398 3.826-1.245 1.184-3.263 1.184-4.508 0-1.075-1.022-1.241-2.624-0.398-3.826l2.652-3.785zM8.5 4.078l-1.361 1.943c-0.172 0.241-0.275 0.541-0.275 0.865 0 0.433 0.184 0.824 0.478 1.098l0.001 0.001c0.302 0.282 0.709 0.456 1.157 0.456s0.855-0.173 1.158-0.457l-0.001 0.001c0.551-0.524 0.638-1.346 0.205-1.963l-1.361-1.943z"></path>
<path fill="none" stroke-linejoin="miter" stroke-linecap="butt" stroke-miterlimit="4" stroke-width="1.4167" d="M9.917 15.583c0-3.13 2.537-5.667 5.667-5.667v0M7.083 15.583c0-3.13-2.537-5.667-5.667-5.667v0M12.75 15.583c0-1.565 1.269-2.833 2.833-2.833v0M4.25 15.583c0-1.565-1.269-2.833-2.833-2.833v0"></path>
</symbol>
<symbol id="icon-montazh" viewBox="0 0 17 17">
<path fill="none" stroke-linejoin="miter" stroke-linecap="butt" stroke-miterlimit="4" stroke-width="1.4167" d="M3.074 5.367l5.426-3.132 5.426 3.132v6.266l-5.426 3.132-5.426-3.132v-6.266z"></path>
<path fill="none" stroke-linejoin="miter" stroke-linecap="butt" stroke-miterlimit="4" stroke-width="1.4167" d="M11.333 8.5c0 1.565-1.269 2.833-2.833 2.833s-2.833-1.269-2.833-2.833c0-1.565 1.269-2.833 2.833-2.833s2.833 1.269 2.833 2.833z"></path>
</symbol>
<symbol id="icon-pokrutie" viewBox="0 0 32 32">
<path d="M16 21.333c-2.946 0-5.333-2.388-5.333-5.333s2.388-5.333 5.333-5.333c2.945 0 5.333 2.388 5.333 5.333s-2.388 5.333-5.333 5.333zM16 24c4.418 0 8-3.582 8-8s-3.582-8-8-8c-4.418 0-8 3.582-8 8s3.582 8 8 8z"></path>
<path d="M26.667 16c0-2.11-0.626-4.172-1.798-5.926s-2.838-3.121-4.787-3.929-4.094-1.019-6.163-0.607c-2.069 0.412-3.97 1.427-5.462 2.919s-2.508 3.392-2.919 5.462c-0.412 2.069-0.2 4.214 0.607 6.163s2.175 3.615 3.929 4.787c1.754 1.172 3.816 1.798 5.926 1.798v2.667c-0.9 0-1.793-0.091-2.667-0.269-1.685-0.344-3.297-1.013-4.741-1.978-2.193-1.465-3.902-3.547-4.911-5.984s-1.273-5.117-0.759-7.704 1.784-4.962 3.649-6.827c1.865-1.865 4.24-3.135 6.827-3.649s5.267-0.25 7.704 0.759c2.436 1.009 4.519 2.718 5.984 4.911 0.965 1.444 1.634 3.056 1.978 4.741 0.178 0.873 0.269 1.767 0.269 2.667h-2.667z"></path>
</symbol>
<symbol id="icon-ochistka" viewBox="0 0 17 17">
<path d="M1.417 13.458h14.167v1.417h-14.167zM1.417 7.083h1.417v1.417h-1.417zM1.417 4.25h1.417v1.417h-1.417zM1.417 9.917h1.417v1.417h-1.417zM4.25 9.917h1.417v1.417h-1.417zM4.25 7.083h1.417v1.417h-1.417zM7.083 9.917h1.417v1.417h-1.417z"></path>
<path d="M12.396 1.417l2.652 3.785c0.843 1.203 0.676 2.804-0.398 3.826-1.245 1.184-3.263 1.184-4.508 0-1.075-1.022-1.241-2.624-0.398-3.826l2.652-3.785zM12.396 4.078l-1.361 1.943c-0.172 0.241-0.275 0.541-0.275 0.865 0 0.433 0.184 0.824 0.478 1.098l0.001 0.001c0.302 0.282 0.709 0.456 1.157 0.456s0.855-0.173 1.158-0.457l-0.001 0.001c0.551-0.524 0.637-1.346 0.205-1.963l-1.361-1.943z"></path>
</symbol>
<symbol id="icon-beverage" viewBox="0 0 17 17">
<path fill="none" stroke-linejoin="miter" stroke-linecap="butt" stroke-miterlimit="4" stroke-width="1.4167" d="M9.917 4.958v2.125l1.417 1.417v6.375h-5.667v-6.375l1.417-1.417v-2.125M9.917 4.958v-2.833h-2.833v2.833M9.917 4.958h-2.833"></path>
</symbol>
<symbol id="icon-bumaga" viewBox="0 0 17 17">
<path fill="none" stroke-linejoin="miter" stroke-linecap="butt" stroke-miterlimit="4" stroke-width="1.4167" d="M2.833 9.917l5.667 2.833 6.021-2.833M4.25 7.083l4.25 2.125 4.25-2.125-4.25-2.125-4.25 2.125z"></path>
</symbol>
<symbol id="icon-chemical" viewBox="0 0 17 17">
<path fill="none" stroke-linejoin="miter" stroke-linecap="butt" stroke-miterlimit="4" stroke-width="1.4167" d="M4.722 9.917l2.361-3.542v-3.542h2.833v3.542l2.361 3.542M4.722 9.917l-1.889 2.833v1.417h11.333v-1.417l-1.889-2.833M4.722 9.917h7.555"></path>
</symbol>
<symbol id="icon-food" viewBox="0 0 17 17">
<path fill="none" stroke-linejoin="miter" stroke-linecap="butt" stroke-miterlimit="4" stroke-width="1.4167" d="M9.917 14.875h-6.375v-8.5l1.417-1.771v-2.479h3.187v2.479l1.771 1.771v4.25M9.917 14.875v-4.25M9.917 14.875h3.542v-4.25h-3.542"></path>
</symbol>
<symbol id="icon-meat" viewBox="0 0 17 17">
<path fill="none" stroke-linejoin="miter" stroke-linecap="butt" stroke-miterlimit="4" stroke-width="1.4167" d="M4.604 6.375l-0.354-2.833s0.647 0.717 1.063 1.062 1.063 0.708 1.063 0.708 1.352-0.369 2.235-0.354c0.799 0.014 2.015 0.354 2.015 0.354s0.647-0.363 1.063-0.708 1.063-1.062 1.063-1.062l-0.354 2.833 1.771 0.708s-0.363 0.717-0.708 1.062-1.063 0.708-1.063 0.708l-1.063 2.125s0.286 1.141 0 1.771c-0.243 0.534-1.063 1.063-1.063 1.063s-0.964 1.063-1.771 1.063-1.771-1.063-1.771-1.063-0.82-0.528-1.063-1.063c-0.286-0.63 0-1.771 0-1.771l-1.063-2.125s-0.717-0.363-1.062-0.708-0.708-1.062-0.708-1.062l1.771-0.708z"></path>
</symbol>
<symbol id="icon-metallurg" viewBox="0 0 17 17">
<path fill="none" stroke-linejoin="miter" stroke-linecap="butt" stroke-miterlimit="4" stroke-width="1.4167" d="M8.5 2.833v11.333M8.5 2.833h4.25M8.5 2.833h-4.25M8.5 14.167h4.25M8.5 14.167h-4.25"></path>
</symbol>
<symbol id="icon-polimer" viewBox="0 0 17 17">
<path fill="none" stroke-linejoin="miter" stroke-linecap="butt" stroke-miterlimit="4" stroke-width="1.4167" d="M7.083 5.313c0 0.978-0.793 1.771-1.771 1.771s-1.771-0.793-1.771-1.771v0c0-0.978 0.793-1.771 1.771-1.771s1.771 0.793 1.771 1.771v0zM13.458 5.313c0 0.978-0.793 1.771-1.771 1.771s-1.771-0.793-1.771-1.771v0c0-0.978 0.793-1.771 1.771-1.771s1.771 0.793 1.771 1.771v0zM13.458 11.688c0 0.978-0.793 1.771-1.771 1.771s-1.771-0.793-1.771-1.771v0c0-0.978 0.793-1.771 1.771-1.771s1.771 0.793 1.771 1.771v0zM7.083 11.688c0 0.978-0.793 1.771-1.771 1.771s-1.771-0.793-1.771-1.771v0c0-0.978 0.793-1.771 1.771-1.771s1.771 0.793 1.771 1.771v0z"></path>
</symbol>
<symbol id="icon-stroimaterial" viewBox="0 0 17 17">
<path fill="none" stroke-linejoin="miter" stroke-linecap="butt" stroke-miterlimit="4" stroke-width="1.4167" d="M2.125 8.5h6.375M2.125 8.5v4.958h6.375M2.125 8.5l5.86-4.958h6.89M8.5 8.5v4.958M8.5 8.5l6.375-4.958M8.5 13.458l6.375-5.313v-4.604"></path>
</symbol>
<symbol id="icon-tree" viewBox="0 0 17 17">
<path fill="none" stroke-linejoin="miter" stroke-linecap="butt" stroke-miterlimit="4" stroke-width="1.4167" d="M14.875 8.5c0 3.521-2.854 6.375-6.375 6.375s-6.375-2.854-6.375-6.375v0c0-3.521 2.854-6.375 6.375-6.375s6.375 2.854 6.375 6.375v0z"></path>
<path fill="#fff" stroke-linejoin="miter" stroke-linecap="butt" stroke-miterlimit="4" stroke-width="1.4167" d="M7.792 2.125h6.021l-11.688 11.688v-6.021c0-3.13 2.537-5.667 5.667-5.667v0z"></path>
<path d="M9.917 8.5c0 0.782-0.634 1.417-1.417 1.417s-1.417-0.634-1.417-1.417c0-0.782 0.634-1.417 1.417-1.417s1.417 0.634 1.417 1.417z"></path>
</symbol>
<symbol id="icon-vata" viewBox="0 0 17 17">
<path fill="none" stroke-linejoin="miter" stroke-linecap="butt" stroke-miterlimit="4" stroke-width="1.4167" d="M11.286 5.147l0.089 0.479 0.479 0.089c1.324 0.256 2.311 1.406 2.311 2.786s-0.986 2.53-2.293 2.783l-0.018 0.003-0.479 0.089-0.089 0.479c-0.256 1.324-1.406 2.311-2.786 2.311s-2.53-0.986-2.783-2.293l-0.003-0.018-0.089-0.479-0.479-0.089c-1.324-0.256-2.311-1.406-2.311-2.786s0.986-2.53 2.293-2.783l0.018-0.003 0.479-0.089 0.089-0.479c0.256-1.324 1.406-2.311 2.786-2.311s2.53 0.986 2.783 2.293l0.003 0.018z"></path>
</symbol>
<symbol id="icon-arrow" viewBox="0 0 17 17">
<path d="M5.578 3.992l1.502-1.502 6.011 6.011-1.502 1.502-6.011-6.011z"></path>
<path d="M7.080 14.511l-1.502-1.503 6.011-6.009 1.501 1.502-6.011 6.011z"></path>
</symbol>
<symbol id="icon-catalog" viewBox="0 0 17 17">
<path d="M3.188 3.188h2.125v2.125h-2.125v-2.125z"></path>
<path d="M3.188 7.438h2.125v2.125h-2.125v-2.125z"></path>
<path d="M3.188 11.688h2.125v2.125h-2.125v-2.125z"></path>
<path d="M7.438 3.188h2.125v2.125h-2.125v-2.125z"></path>
<path d="M7.438 7.438h2.125v2.125h-2.125v-2.125z"></path>
<path d="M7.438 11.688h2.125v2.125h-2.125v-2.125z"></path>
<path d="M11.688 3.188h2.125v2.125h-2.125v-2.125z"></path>
<path d="M11.688 7.438h2.125v2.125h-2.125v-2.125z"></path>
<path d="M11.688 11.688h2.125v2.125h-2.125v-2.125z"></path>
</symbol>
<symbol id="icon-place" viewBox="0 0 32 32">
<path d="M14 28v-10h4v10h-4z"></path>
<path d="M16 16c-2.209 0-4-1.791-4-4s1.791-4 4-4c2.209 0 4 1.791 4 4s-1.791 4-4 4zM16 20c4.418 0 8-3.582 8-8s-3.582-8-8-8c-4.418 0-8 3.582-8 8s3.582 8 8 8z"></path>
</symbol>
<symbol id="icon-mail" viewBox="0 0 32 32">
<path d="M16 17.167l-8-3.333v8.167h16v-8.167l-8 3.333zM28 26h-24v-16l12-6 12 6v16zM20.758 10.851l-4.758-2.379-4.758 2.379 4.758 1.982 4.758-1.982z"></path>
</symbol>
<symbol id="icon-vkontakte" viewBox="0 0 32 32">
<path d="M30.674 21.579c0.421 0.504 0.819 1.024 1.123 1.609 0.432 0.831 0.041 1.746-0.709 1.796l-4.662-0.002c-1.202 0.099-2.162-0.382-2.968-1.199-0.645-0.653-1.243-1.349-1.864-2.024-0.254-0.276-0.521-0.536-0.839-0.741-0.636-0.411-1.189-0.285-1.552 0.375-0.37 0.671-0.454 1.414-0.491 2.162-0.050 1.091-0.382 1.378-1.484 1.428-2.357 0.111-4.593-0.244-6.671-1.425-1.832-1.042-3.252-2.512-4.488-4.177-2.407-3.242-4.251-6.804-5.907-10.466-0.373-0.825-0.1-1.268 0.816-1.284 1.521-0.029 3.041-0.027 4.564-0.002 0.618 0.009 1.027 0.361 1.266 0.942 0.823 2.011 1.83 3.924 3.093 5.698 0.337 0.472 0.68 0.944 1.168 1.277 0.541 0.368 0.952 0.246 1.207-0.353 0.161-0.38 0.232-0.788 0.268-1.195 0.12-1.399 0.136-2.795-0.075-4.188-0.13-0.87-0.623-1.433-1.496-1.597-0.446-0.084-0.379-0.249-0.164-0.502 0.375-0.436 0.727-0.707 1.43-0.707h5.269c0.829 0.163 1.014 0.533 1.127 1.363l0.005 5.817c-0.009 0.321 0.161 1.274 0.743 1.487 0.466 0.151 0.773-0.219 1.052-0.513 1.261-1.331 2.162-2.903 2.966-4.532 0.357-0.716 0.664-1.46 0.961-2.203 0.22-0.551 0.566-0.823 1.191-0.811l5.071 0.004c0.15 0 0.303 0.002 0.448 0.027 0.854 0.145 1.089 0.51 0.825 1.339-0.416 1.301-1.225 2.386-2.016 3.475-0.846 1.163-1.75 2.286-2.589 3.456-0.771 1.068-0.709 1.607 0.248 2.535 1.061 1.030 2.182 1.999 3.134 3.133z"></path>
</symbol>
<symbol id="icon-facebook" viewBox="0 0 17 17">
<path d="M15.581 0.523h-14.179c-0.485 0-0.879 0.394-0.879 0.88v14.179c0 0.485 0.394 0.879 0.88 0.879h7.634v-6.163h-2.070v-2.412h2.070v-1.775c0-2.059 1.257-3.179 3.093-3.179 0.88 0 1.636 0.066 1.856 0.095v2.152h-1.266c-0.999 0-1.193 0.475-1.193 1.172v1.536h2.389l-0.311 2.412h-2.078v6.163h4.054c0.486 0 0.88-0.394 0.88-0.879 0-0 0-0 0-0v-14.179c-0-0.485-0.394-0.879-0.88-0.879z"></path>
</symbol>
<symbol id="icon-youtube" viewBox="0 0 32 32">
<path d="M31.327 8.442c-0.364-1.348-1.454-2.413-2.836-2.785-2.491-0.656-12.491-0.656-12.491-0.656s-10 0-12.509 0.656c-1.382 0.355-2.455 1.419-2.836 2.785-0.655 2.448-0.655 7.558-0.655 7.558s0 5.11 0.673 7.558c0.364 1.348 1.455 2.413 2.836 2.786 2.491 0.656 12.491 0.656 12.491 0.656s10 0 12.509-0.656c1.382-0.355 2.455-1.419 2.836-2.786 0.655-2.448 0.655-7.558 0.655-7.558s0-5.11-0.673-7.558zM12.727 20.648v-9.297l8.364 4.648-8.364 4.648z"></path>
</symbol>
<symbol id="icon-filter" viewBox="0 0 17 17">
<path d="M2.125 3.188h12.75v2.125h-12.75v-2.125zM4.25 7.438h8.5v2.125h-8.5v-2.125zM7.438 11.688h2.125v2.125h-2.125v-2.125z"></path>
</symbol>
<symbol id="icon-cross" viewBox="0 0 17 17">
<path d="M8.5 6.997l3.499-3.499 1.503 1.503-3.499 3.499 3.499 3.499-1.503 1.503-3.499-3.499-3.499 3.499-1.503-1.503 3.499-3.499-3.499-3.499 1.503-1.503 3.499 3.499z"></path>
</symbol>
<symbol id="icon-download" viewBox="0 0 17 17">
<path d="M7.438 6.998v-4.873h2.125v4.873l1.374-1.374 1.502 1.502-3.939 3.939-3.939-3.939 1.502-1.502 1.374 1.374zM2.125 10.625h2.125v2.125h8.5v-2.125h2.125v4.25h-12.75v-4.25z"></path>
</symbol>
<symbol id="icon-document" viewBox="0 0 17 17">
<path d="M11.333 5.667h-5.667v-1.417h5.667v1.417zM11.333 8.5h-5.667v-1.417h5.667v1.417zM11.333 11.333h-5.667v-1.417h5.667v1.417zM2.833 15.583v-14.167h11.333v11.333l-2.833 2.833h-8.5zM10.747 14.167l2.003-2.003v-9.33h-8.5v11.333h6.497z"></path>
</symbol>
<symbol id="icon-print" viewBox="0 0 17 17">
<path d="M11.688 4.25h-6.375v8.5h4.433l1.942-1.942v-6.558zM13.813 11.688l-3.188 3.188h-7.438v-12.75h10.625v9.563z"></path>
</symbol>
<symbol id="icon-success" viewBox="0 0 104 104">
<path d="M63.5307 38.5747L45.4769 56.6706L38.5332 49.7268C38.1559 49.2863 37.6916 48.9285 37.1695 48.6759C36.6474 48.4233 36.0787 48.2814 35.4992 48.259C34.9196 48.2366 34.3417 48.3342 33.8016 48.5458C33.2616 48.7574 32.7711 49.0783 32.361 49.4884C31.9509 49.8985 31.63 50.389 31.4184 50.9291C31.2068 51.4691 31.1092 52.047 31.1316 52.6266C31.1539 53.2062 31.2959 53.7749 31.5485 54.297C31.8011 54.8191 32.1589 55.2833 32.5994 55.6606L42.489 65.5922C42.8822 65.9823 43.3486 66.2909 43.8613 66.5003C44.374 66.7097 44.9231 66.8159 45.4769 66.8127C46.5809 66.808 47.6389 66.3697 48.4227 65.5922L69.4644 44.5506C69.8589 44.1594 70.1719 43.6939 70.3856 43.1811C70.5992 42.6683 70.7092 42.1182 70.7092 41.5627C70.7092 41.0071 70.5992 40.4571 70.3856 39.9442C70.1719 39.4314 69.8589 38.966 69.4644 38.5747C68.6759 37.7909 67.6093 37.351 66.4975 37.351C65.3858 37.351 64.3191 37.7909 63.5307 38.5747ZM52.084 10.0002C43.7607 10.0002 35.6243 12.4683 28.7038 17.0925C21.7832 21.7167 16.3893 28.2892 13.2041 35.9789C10.0189 43.6686 9.18549 52.1302 10.8093 60.2935C12.4331 68.4569 16.4411 75.9555 22.3266 81.8409C28.212 87.7264 35.7106 91.7344 43.8739 93.3582C52.0373 94.982 60.4989 94.1486 68.1886 90.9634C75.8783 87.7782 82.4508 82.3843 87.075 75.4637C91.6992 68.5432 94.1673 60.4068 94.1673 52.0835C94.1673 46.557 93.0788 41.0847 90.9639 35.9789C88.849 30.8731 85.7492 26.2339 81.8414 22.3261C77.9336 18.4183 73.2944 15.3185 68.1886 13.2036C63.0828 11.0887 57.6105 10.0002 52.084 10.0002V10.0002ZM52.084 85.7502C45.4254 85.7502 38.9163 83.7756 33.3798 80.0763C27.8433 76.377 23.5282 71.119 20.9801 64.9672C18.4319 58.8154 17.7652 52.0462 19.0642 45.5155C20.3633 38.9848 23.5697 32.9859 28.2781 28.2776C32.9864 23.5692 38.9853 20.3628 45.516 19.0637C52.0467 17.7647 58.8159 18.4314 64.9677 20.9796C71.1195 23.5277 76.3775 27.8428 80.0768 33.3793C83.7761 38.9158 85.7507 45.4249 85.7507 52.0835C85.7507 61.0125 82.2037 69.5757 75.8899 75.8894C69.5762 82.2032 61.013 85.7502 52.084 85.7502V85.7502Z" fill="#FF6C02"/>
</symbol>
<symbol id="icon-carbuild" viewBox="0 0 32 32">
<path d="M16 8c-4.418 0-8 3.582-8 8s3.582 8 8 8c4.418 0 8-3.582 8-8s-3.582-8-8-8zM5.333 16c0-5.891 4.776-10.667 10.667-10.667s10.667 4.776 10.667 10.667c0 5.891-4.776 10.667-10.667 10.667s-10.667-4.776-10.667-10.667z"></path>
<path d="M16 13.333c-1.473 0-2.667 1.194-2.667 2.667s1.194 2.667 2.667 2.667c1.473 0 2.667-1.194 2.667-2.667s-1.194-2.667-2.667-2.667zM10.667 16c0-2.946 2.388-5.333 5.333-5.333s5.333 2.388 5.333 5.333c0 2.945-2.388 5.333-5.333 5.333s-5.333-2.388-5.333-5.333z"></path>
<path d="M26.577 14.609c0.059 0.456 0.090 0.921 0.090 1.391s-0.031 0.935-0.090 1.391l-2.644-0.345c0.045-0.342 0.068-0.691 0.068-1.047s-0.023-0.705-0.068-1.047l2.644-0.345zM25.857 20.083c-0.36 0.868-0.831 1.677-1.395 2.411l-2.114-1.625c0.423-0.551 0.776-1.158 1.046-1.808l2.463 1.021zM24.462 9.506c0.564 0.734 1.035 1.543 1.395 2.411l-2.463 1.021c-0.269-0.65-0.622-1.257-1.046-1.808l2.114-1.625zM22.494 24.462c-0.734 0.564-1.543 1.035-2.411 1.395l-1.021-2.463c0.65-0.269 1.257-0.622 1.808-1.046l1.625 2.114zM20.083 6.143c0.868 0.36 1.677 0.831 2.411 1.394l-1.625 2.114c-0.551-0.423-1.158-0.776-1.808-1.046l1.021-2.463zM17.391 26.577c-0.456 0.059-0.921 0.090-1.391 0.090s-0.935-0.031-1.391-0.090l0.345-2.644c0.342 0.045 0.691 0.068 1.047 0.068s0.705-0.023 1.047-0.068l0.345 2.644zM16 5.333c0.471 0 0.935 0.031 1.391 0.090l-0.345 2.644c-0.342-0.045-0.691-0.068-1.047-0.068s-0.705 0.023-1.047 0.068l-0.345-2.644c0.456-0.059 0.921-0.090 1.391-0.090zM9.506 7.538c0.734-0.564 1.543-1.035 2.411-1.394l1.021 2.463c-0.65 0.269-1.257 0.622-1.808 1.046l-1.625-2.114zM11.917 25.857c-0.868-0.36-1.677-0.831-2.411-1.395l1.625-2.114c0.551 0.423 1.158 0.776 1.808 1.046l-1.021 2.463zM6.143 11.917c0.36-0.868 0.831-1.677 1.394-2.411l2.114 1.625c-0.423 0.551-0.776 1.158-1.046 1.808l-2.463-1.021zM7.538 22.494c-0.564-0.734-1.035-1.543-1.394-2.411l2.463-1.021c0.269 0.65 0.622 1.257 1.046 1.808l-2.114 1.625zM5.423 17.391c-0.059-0.456-0.090-0.921-0.090-1.391s0.031-0.935 0.090-1.391l2.644 0.345c-0.045 0.342-0.068 0.691-0.068 1.047s0.023 0.705 0.068 1.047l-2.644 0.345z"></path>
<path d="M27.899 14.434c0.067 0.513 0.101 1.036 0.101 1.566s-0.034 1.053-0.101 1.566l-2.644-0.345c0.052-0.399 0.079-0.806 0.079-1.221s-0.027-0.822-0.079-1.221l2.644-0.345zM27.089 20.594c-0.405 0.976-0.935 1.887-1.569 2.712l-2.114-1.625c0.494-0.643 0.906-1.351 1.22-2.109l2.463 1.022zM25.52 8.694c0.634 0.825 1.164 1.736 1.569 2.712l-2.463 1.021c-0.314-0.758-0.726-1.466-1.22-2.109l2.114-1.625zM23.306 25.52c-0.825 0.634-1.736 1.164-2.712 1.569l-1.022-2.463c0.758-0.314 1.466-0.726 2.109-1.22l1.625 2.114zM20.594 4.911c0.976 0.405 1.887 0.935 2.712 1.569l-1.625 2.114c-0.643-0.494-1.351-0.906-2.109-1.22l1.022-2.463zM17.566 27.899c-0.513 0.067-1.036 0.101-1.566 0.101s-1.053-0.034-1.566-0.101l0.345-2.644c0.399 0.052 0.806 0.079 1.221 0.079s0.822-0.027 1.221-0.079l0.345 2.644zM16 4c0.53 0 1.053 0.034 1.566 0.101l-0.345 2.644c-0.399-0.052-0.806-0.079-1.221-0.079s-0.822 0.027-1.221 0.079l-0.345-2.644c0.513-0.067 1.036-0.101 1.566-0.101zM11.406 27.089c-0.976-0.405-1.887-0.935-2.712-1.569l1.625-2.114c0.643 0.494 1.351 0.906 2.109 1.22l-1.021 2.463zM8.694 6.48c0.825-0.634 1.736-1.164 2.712-1.569l1.021 2.463c-0.758 0.314-1.466 0.726-2.109 1.22l-1.625-2.114zM4.911 11.406c0.405-0.976 0.935-1.887 1.569-2.712l2.114 1.625c-0.494 0.643-0.906 1.351-1.22 2.109l-2.463-1.021zM6.48 23.306c-0.634-0.825-1.164-1.736-1.569-2.712l2.463-1.022c0.314 0.758 0.726 1.466 1.22 2.109l-2.114 1.625zM4 16c0-0.53 0.034-1.053 0.101-1.566l2.644 0.345c-0.052 0.399-0.079 0.806-0.079 1.221s0.027 0.822 0.079 1.221l-2.644 0.345c-0.067-0.513-0.101-1.036-0.101-1.566z"></path>
</symbol>
<symbol id="icon-chemical-2" viewBox="0 0 32 32">
<path d="M16.667 2.467l11.333 6.422v12.887l-11.333 6.422-11.333-6.422v-12.887l11.333-6.422zM8 10.444v9.779l8.667 4.911 8.667-4.911v-9.779l-8.667-4.911-8.667 4.911z"></path>
<path d="M20 13.44l-3.995-2.283 1.323-2.315 5.338 3.051v6.774h-2.667v-5.226z"></path>
</symbol>
<symbol id="icon-metal-obrobka" viewBox="0 0 32 32">
<path d="M13.333 16.62v-9.953h-2.667v11.38l5.333 3.556 5.333-3.556v-11.38h-2.667v9.953l-2.667 1.778-2.667-1.778z"></path>
<path d="M4.627 21.131l1.413-2.261 9.96 6.225 9.96-6.225 1.413 2.261-11.373 7.108-11.373-7.108z"></path>
</symbol>
<symbol id="icon-neftprom" viewBox="0 0 32 32">
<path d="M13.333 8.471l5.994 7.84c1.245 1.378 2.006 3.195 2.006 5.189 0 4.358-3.614 7.833-8 7.833s-8-3.475-8-7.833c0-1.993 0.762-3.811 2.006-5.189l5.994-7.84zM13.333 12.862l-3.946 5.162-0.041 0.044c-0.842 0.917-1.346 2.118-1.346 3.432 0 2.822 2.356 5.167 5.333 5.167s5.333-2.345 5.333-5.167c0-1.314-0.505-2.515-1.346-3.432l-0.041-0.044-3.946-5.162z"></path>
<path d="M23.333 6.667c-1.105 0-2 0.895-2 2s0.895 2 2 2c1.105 0 2-0.895 2-2s-0.895-2-2-2zM18.667 8.667c0-2.577 2.089-4.667 4.667-4.667s4.667 2.089 4.667 4.667c0 2.577-2.089 4.667-4.667 4.667s-4.667-2.089-4.667-4.667z"></path>
</symbol>
<symbol id="icon-polimer-2" viewBox="0 0 32 32">
<path d="M9.333 8h13.333v9.333h-13.333v-9.333zM12 10.667v4h8v-4h-8z"></path>
<path d="M14.667 14.667h13.333v9.333h-13.333v-9.333zM17.333 17.333v4h8v-4h-8z"></path>
<path d="M4 14.667h13.333v9.333h-13.333v-9.333zM6.667 17.333v4h8v-4h-8z"></path>
</symbol>
<symbol id="icon-teploenergy" viewBox="0 0 32 32">
<path d="M5.99 6.667h14.687l-0.52 1.747c-0.007 0.025-0.018 0.063-0.032 0.113-0.028 0.101-0.070 0.251-0.119 0.442-0.1 0.382-0.233 0.925-0.367 1.562-0.271 1.289-0.527 2.899-0.527 4.326 0 1.372 0.51 3.833 1.072 6.087 0.273 1.097 0.547 2.1 0.753 2.829 0.103 0.364 0.188 0.659 0.248 0.862 0.030 0.102 0.053 0.18 0.069 0.233l0.018 0.060 0.005 0.018 0.52 1.72h-16.925l0.525-1.738 0.018-0.060c0.016-0.053 0.039-0.132 0.069-0.233 0.060-0.203 0.145-0.498 0.248-0.862 0.206-0.729 0.48-1.732 0.753-2.829 0.562-2.254 1.072-4.715 1.072-6.087 0-1.427-0.257-3.038-0.527-4.326-0.134-0.637-0.267-1.18-0.367-1.562-0.050-0.191-0.091-0.341-0.12-0.442-0.014-0.050-0.025-0.089-0.032-0.113l-0.008-0.027-0.002-0.006-0.51-1.714zM9.496 9.333c0.047 0.204 0.095 0.421 0.143 0.65 0.285 1.359 0.584 3.177 0.584 4.874 0 1.752-0.601 4.529-1.151 6.732-0.224 0.897-0.447 1.731-0.635 2.411h9.794c-0.188-0.679-0.412-1.513-0.635-2.411-0.549-2.203-1.151-4.98-1.151-6.732 0-1.697 0.299-3.515 0.584-4.874 0.048-0.229 0.096-0.446 0.143-0.65h-7.675z"></path>
<path d="M22.885 14.667h-4.774v-2.667h8.298l-0.59 1.759-0.012 0.039c-0.011 0.037-0.029 0.098-0.052 0.18-0.045 0.165-0.107 0.414-0.169 0.734-0.126 0.641-0.253 1.553-0.253 2.622 0 0.387 0.12 1.029 0.364 1.866 0.235 0.807 0.553 1.694 0.878 2.527 0.324 0.831 0.65 1.593 0.895 2.148 0.122 0.277 0.224 0.501 0.294 0.656 0.035 0.077 0.063 0.137 0.081 0.176l0.021 0.045 0.005 0.011 0.001 0.002 0.897 1.902h-11.436v-2.667h7.287c-0.168-0.399-0.348-0.84-0.529-1.303-0.341-0.873-0.69-1.841-0.955-2.753-0.257-0.883-0.47-1.827-0.47-2.611 0-1.035 0.099-1.947 0.218-2.667z"></path>
</symbol>
<symbol id="icon-vata-2" viewBox="0 0 32 32">
<path d="M2.667 15.333c0-4.786 3.88-8.667 8.667-8.667h9.333c4.786 0 8.667 3.88 8.667 8.667s-3.88 8.667-8.667 8.667h-9.333c-4.786 0-8.667-3.88-8.667-8.667zM11.333 9.333c-3.314 0-6 2.686-6 6s2.686 6 6 6h9.333c3.314 0 6-2.686 6-6s-2.686-6-6-6h-9.333z"></path>
<path d="M8.030 17.054l2-9.333 2.607 0.559-2 9.333-2.607-0.559z"></path>
<path d="M13.363 17.054l2-9.333 2.607 0.559-2 9.333-2.607-0.559z"></path>
<path d="M18.696 17.054l2-9.333 2.607 0.559-2 9.333-2.607-0.559z"></path>
</symbol>
</defs>
</svg>
