<svg aria-hidden="true" style="position: absolute; width: 0; height: 0; overflow: hidden;" version="1.1" xmlns="http://www.w3.org/2000/svg" xmlns:xlink="http://www.w3.org/1999/xlink">
<defs>
<symbol id="icon-korrozia" viewBox="0 0 17 17">
<path fill="none" stroke-linejoin="miter" stroke-linecap="butt" stroke-miterlimit="4" stroke-width="1.4167" d="M1.417 13.458h4.25l2.833 1.417 2.833-1.417h4.25"></path>
<path d="M8.5 1.417l2.652 3.785c0.843 1.203 0.676 2.804-0.398 3.826-1.245 1.184-3.263 1.184-4.508 0-1.075-1.022-1.241-2.624-0.398-3.826l2.652-3.785zM8.5 4.078l-1.361 1.943c-0.172 0.241-0.275 0.541-0.275 0.865 0 0.433 0.184 0.824 0.478 1.098l0.001 0.001c0.302 0.282 0.709 0.456 1.157 0.456s0.855-0.173 1.158-0.457l-0.001 0.001c0.551-0.524 0.638-1.346 0.205-1.963l-1.361-1.943z"></path>
</symbol>
<symbol id="icon-techobsluzhivanie" viewBox="0 0 17 17">
<path fill="none" stroke-linejoin="miter" stroke-linecap="butt" stroke-miterlimit="4" stroke-width="1.4167" d="M14.875 13.458c0-3.521-2.854-6.375-6.375-6.375s-6.375 2.854-6.375 6.375v0M14.167 4.074c-1.541-1.215-3.511-1.949-5.652-1.949-0.005 0-0.010 0-0.015 0h0.001c-0.004 0-0.009-0-0.015-0-2.141 0-4.111 0.734-5.672 1.964l0.020-0.015M11.333 13.458c0-1.565-1.269-2.833-2.833-2.833s-2.833 1.269-2.833 2.833v0"></path>
</symbol>
<symbol id="icon-prochee" viewBox="0 0 17 17">
<path d="M5.667 8.5c0 0.782-0.634 1.417-1.417 1.417s-1.417-0.634-1.417-1.417v0c0-0.782 0.634-1.417 1.417-1.417s1.417 0.634 1.417 1.417v0zM9.917 8.5c0 0.782-0.634 1.417-1.417 1.417s-1.417-0.634-1.417-1.417v0c0-0.782 0.634-1.417 1.417-1.417s1.417 0.634 1.417 1.417v0zM14.167 8.5c0 0.782-0.634 1.417-1.417 1.417s-1.417-0.634-1.417-1.417v0c0-0.782 0.634-1.417 1.417-1.417s1.417 0.634 1.417 1.417v0z"></path>
</symbol>
<symbol id="icon-smazka" viewBox="0 0 17 17">
<path d="M8.5 1.417l2.652 3.785c0.843 1.203 0.676 2.804-0.398 3.826-1.245 1.184-3.263 1.184-4.508 0-1.075-1.022-1.241-2.624-0.398-3.826l2.652-3.785zM8.5 4.078l-1.361 1.943c-0.172 0.241-0.275 0.541-0.275 0.865 0 0.433 0.184 0.824 0.478 1.098l0.001 0.001c0.302 0.282 0.709 0.456 1.157 0.456s0.855-0.173 1.158-0.457l-0.001 0.001c0.551-0.524 0.638-1.346 0.205-1.963l-1.361-1.943z"></path>
<path fill="none" stroke-linejoin="miter" stroke-linecap="butt" stroke-miterlimit="4" stroke-width="1.4167" d="M9.917 15.583c0-3.13 2.537-5.667 5.667-5.667v0M7.083 15.583c0-3.13-2.537-5.667-5.667-5.667v0M12.75 15.583c0-1.565 1.269-2.833 2.833-2.833v0M4.25 15.583c0-1.565-1.269-2.833-2.833-2.833v0"></path>
</symbol>
<symbol id="icon-montazh" viewBox="0 0 17 17">
<path fill="none" stroke-linejoin="miter" stroke-linecap="butt" stroke-miterlimit="4" stroke-width="1.4167" d="M3.074 5.367l5.426-3.132 5.426 3.132v6.266l-5.426 3.132-5.426-3.132v-6.266z"></path>
<path fill="none" stroke-linejoin="miter" stroke-linecap="butt" stroke-miterlimit="4" stroke-width="1.4167" d="M11.333 8.5c0 1.565-1.269 2.833-2.833 2.833s-2.833-1.269-2.833-2.833c0-1.565 1.269-2.833 2.833-2.833s2.833 1.269 2.833 2.833z"></path>
</symbol>
<symbol id="icon-pokrutie" viewBox="0 0 32 32">
<path d="M16 21.333c-2.946 0-5.333-2.388-5.333-5.333s2.388-5.333 5.333-5.333c2.945 0 5.333 2.388 5.333 5.333s-2.388 5.333-5.333 5.333zM16 24c4.418 0 8-3.582 8-8s-3.582-8-8-8c-4.418 0-8 3.582-8 8s3.582 8 8 8z"></path>
<path d="M26.667 16c0-2.11-0.626-4.172-1.798-5.926s-2.838-3.121-4.787-3.929-4.094-1.019-6.163-0.607c-2.069 0.412-3.97 1.427-5.462 2.919s-2.508 3.392-2.919 5.462c-0.412 2.069-0.2 4.214 0.607 6.163s2.175 3.615 3.929 4.787c1.754 1.172 3.816 1.798 5.926 1.798v2.667c-0.9 0-1.793-0.091-2.667-0.269-1.685-0.344-3.297-1.013-4.741-1.978-2.193-1.465-3.902-3.547-4.911-5.984s-1.273-5.117-0.759-7.704 1.784-4.962 3.649-6.827c1.865-1.865 4.24-3.135 6.827-3.649s5.267-0.25 7.704 0.759c2.436 1.009 4.519 2.718 5.984 4.911 0.965 1.444 1.634 3.056 1.978 4.741 0.178 0.873 0.269 1.767 0.269 2.667h-2.667z"></path>
</symbol>
<symbol id="icon-ochistka" viewBox="0 0 17 17">
<path d="M1.417 13.458h14.167v1.417h-14.167zM1.417 7.083h1.417v1.417h-1.417zM1.417 4.25h1.417v1.417h-1.417zM1.417 9.917h1.417v1.417h-1.417zM4.25 9.917h1.417v1.417h-1.417zM4.25 7.083h1.417v1.417h-1.417zM7.083 9.917h1.417v1.417h-1.417z"></path>
<path d="M12.396 1.417l2.652 3.785c0.843 1.203 0.676 2.804-0.398 3.826-1.245 1.184-3.263 1.184-4.508 0-1.075-1.022-1.241-2.624-0.398-3.826l2.652-3.785zM12.396 4.078l-1.361 1.943c-0.172 0.241-0.275 0.541-0.275 0.865 0 0.433 0.184 0.824 0.478 1.098l0.001 0.001c0.302 0.282 0.709 0.456 1.157 0.456s0.855-0.173 1.158-0.457l-0.001 0.001c0.551-0.524 0.637-1.346 0.205-1.963l-1.361-1.943z"></path>
</symbol>
<symbol id="icon-beverage" viewBox="0 0 17 17">
<path fill="none" stroke-linejoin="miter" stroke-linecap="butt" stroke-miterlimit="4" stroke-width="1.4167" d="M9.917 4.958v2.125l1.417 1.417v6.375h-5.667v-6.375l1.417-1.417v-2.125M9.917 4.958v-2.833h-2.833v2.833M9.917 4.958h-2.833"></path>
</symbol>
<symbol id="icon-bumaga" viewBox="0 0 17 17">
<path fill="none" stroke-linejoin="miter" stroke-linecap="butt" stroke-miterlimit="4" stroke-width="1.4167" d="M2.833 9.917l5.667 2.833 6.021-2.833M4.25 7.083l4.25 2.125 4.25-2.125-4.25-2.125-4.25 2.125z"></path>
</symbol>
<symbol id="icon-chemical" viewBox="0 0 17 17">
<path fill="none" stroke-linejoin="miter" stroke-linecap="butt" stroke-miterlimit="4" stroke-width="1.4167" d="M4.722 9.917l2.361-3.542v-3.542h2.833v3.542l2.361 3.542M4.722 9.917l-1.889 2.833v1.417h11.333v-1.417l-1.889-2.833M4.722 9.917h7.555"></path>
</symbol>
<symbol id="icon-food" viewBox="0 0 17 17">
<path fill="none" stroke-linejoin="miter" stroke-linecap="butt" stroke-miterlimit="4" stroke-width="1.4167" d="M9.917 14.875h-6.375v-8.5l1.417-1.771v-2.479h3.187v2.479l1.771 1.771v4.25M9.917 14.875v-4.25M9.917 14.875h3.542v-4.25h-3.542"></path>
</symbol>
<symbol id="icon-meat" viewBox="0 0 17 17">
<path fill="none" stroke-linejoin="miter" stroke-linecap="butt" stroke-miterlimit="4" stroke-width="1.4167" d="M4.604 6.375l-0.354-2.833s0.647 0.717 1.063 1.062 1.063 0.708 1.063 0.708 1.352-0.369 2.235-0.354c0.799 0.014 2.015 0.354 2.015 0.354s0.647-0.363 1.063-0.708 1.063-1.062 1.063-1.062l-0.354 2.833 1.771 0.708s-0.363 0.717-0.708 1.062-1.063 0.708-1.063 0.708l-1.063 2.125s0.286 1.141 0 1.771c-0.243 0.534-1.063 1.063-1.063 1.063s-0.964 1.063-1.771 1.063-1.771-1.063-1.771-1.063-0.82-0.528-1.063-1.063c-0.286-0.63 0-1.771 0-1.771l-1.063-2.125s-0.717-0.363-1.062-0.708-0.708-1.062-0.708-1.062l1.771-0.708z"></path>
</symbol>
<symbol id="icon-metallurg" viewBox="0 0 17 17">
<path fill="none" stroke-linejoin="miter" stroke-linecap="butt" stroke-miterlimit="4" stroke-width="1.4167" d="M8.5 2.833v11.333M8.5 2.833h4.25M8.5 2.833h-4.25M8.5 14.167h4.25M8.5 14.167h-4.25"></path>
</symbol>
<symbol id="icon-polimer" viewBox="0 0 17 17">
<path fill="none" stroke-linejoin="miter" stroke-linecap="butt" stroke-miterlimit="4" stroke-width="1.4167" d="M7.083 5.313c0 0.978-0.793 1.771-1.771 1.771s-1.771-0.793-1.771-1.771v0c0-0.978 0.793-1.771 1.771-1.771s1.771 0.793 1.771 1.771v0zM13.458 5.313c0 0.978-0.793 1.771-1.771 1.771s-1.771-0.793-1.771-1.771v0c0-0.978 0.793-1.771 1.771-1.771s1.771 0.793 1.771 1.771v0zM13.458 11.688c0 0.978-0.793 1.771-1.771 1.771s-1.771-0.793-1.771-1.771v0c0-0.978 0.793-1.771 1.771-1.771s1.771 0.793 1.771 1.771v0zM7.083 11.688c0 0.978-0.793 1.771-1.771 1.771s-1.771-0.793-1.771-1.771v0c0-0.978 0.793-1.771 1.771-1.771s1.771 0.793 1.771 1.771v0z"></path>
</symbol>
<symbol id="icon-stroimaterial" viewBox="0 0 17 17">
<path fill="none" stroke-linejoin="miter" stroke-linecap="butt" stroke-miterlimit="4" stroke-width="1.4167" d="M2.125 8.5h6.375M2.125 8.5v4.958h6.375M2.125 8.5l5.86-4.958h6.89M8.5 8.5v4.958M8.5 8.5l6.375-4.958M8.5 13.458l6.375-5.313v-4.604"></path>
</symbol>
<symbol id="icon-tree" viewBox="0 0 17 17">
<path fill="none" stroke-linejoin="miter" stroke-linecap="butt" stroke-miterlimit="4" stroke-width="1.4167" d="M14.875 8.5c0 3.521-2.854 6.375-6.375 6.375s-6.375-2.854-6.375-6.375v0c0-3.521 2.854-6.375 6.375-6.375s6.375 2.854 6.375 6.375v0z"></path>
<path fill="#fff" stroke-linejoin="miter" stroke-linecap="butt" stroke-miterlimit="4" stroke-width="1.4167" d="M7.792 2.125h6.021l-11.688 11.688v-6.021c0-3.13 2.537-5.667 5.667-5.667v0z"></path>
<path d="M9.917 8.5c0 0.782-0.634 1.417-1.417 1.417s-1.417-0.634-1.417-1.417c0-0.782 0.634-1.417 1.417-1.417s1.417 0.634 1.417 1.417z"></path>
</symbol>
<symbol id="icon-vata" viewBox="0 0 17 17">
<path fill="none" stroke-linejoin="miter" stroke-linecap="butt" stroke-miterlimit="4" stroke-width="1.4167" d="M11.286 5.147l0.089 0.479 0.479 0.089c1.324 0.256 2.311 1.406 2.311 2.786s-0.986 2.53-2.293 2.783l-0.018 0.003-0.479 0.089-0.089 0.479c-0.256 1.324-1.406 2.311-2.786 2.311s-2.53-0.986-2.783-2.293l-0.003-0.018-0.089-0.479-0.479-0.089c-1.324-0.256-2.311-1.406-2.311-2.786s0.986-2.53 2.293-2.783l0.018-0.003 0.479-0.089 0.089-0.479c0.256-1.324 1.406-2.311 2.786-2.311s2.53 0.986 2.783 2.293l0.003 0.018z"></path>
</symbol>
<symbol id="icon-arrow" viewBox="0 0 17 17">
<path d="M5.578 3.992l1.502-1.502 6.011 6.011-1.502 1.502-6.011-6.011z"></path>
<path d="M7.080 14.511l-1.502-1.503 6.011-6.009 1.501 1.502-6.011 6.011z"></path>
</symbol>
<symbol id="icon-catalog" viewBox="0 0 17 17">
<path d="M3.188 3.188h2.125v2.125h-2.125v-2.125z"></path>
<path d="M3.188 7.438h2.125v2.125h-2.125v-2.125z"></path>
<path d="M3.188 11.688h2.125v2.125h-2.125v-2.125z"></path>
<path d="M7.438 3.188h2.125v2.125h-2.125v-2.125z"></path>
<path d="M7.438 7.438h2.125v2.125h-2.125v-2.125z"></path>
<path d="M7.438 11.688h2.125v2.125h-2.125v-2.125z"></path>
<path d="M11.688 3.188h2.125v2.125h-2.125v-2.125z"></path>
<path d="M11.688 7.438h2.125v2.125h-2.125v-2.125z"></path>
<path d="M11.688 11.688h2.125v2.125h-2.125v-2.125z"></path>
</symbol>
<symbol id="icon-place" viewBox="0 0 32 32">
<path d="M14 28v-10h4v10h-4z"></path>
<path d="M16 16c-2.209 0-4-1.791-4-4s1.791-4 4-4c2.209 0 4 1.791 4 4s-1.791 4-4 4zM16 20c4.418 0 8-3.582 8-8s-3.582-8-8-8c-4.418 0-8 3.582-8 8s3.582 8 8 8z"></path>
</symbol>
<symbol id="icon-mail" viewBox="0 0 32 32">
<path d="M16 17.167l-8-3.333v8.167h16v-8.167l-8 3.333zM28 26h-24v-16l12-6 12 6v16zM20.758 10.851l-4.758-2.379-4.758 2.379 4.758 1.982 4.758-1.982z"></path>
</symbol>
<symbol id="icon-vkontakte" viewBox="0 0 32 32">
<path d="M30.674 21.579c0.421 0.504 0.819 1.024 1.123 1.609 0.432 0.831 0.041 1.746-0.709 1.796l-4.662-0.002c-1.202 0.099-2.162-0.382-2.968-1.199-0.645-0.653-1.243-1.349-1.864-2.024-0.254-0.276-0.521-0.536-0.839-0.741-0.636-0.411-1.189-0.285-1.552 0.375-0.37 0.671-0.454 1.414-0.491 2.162-0.050 1.091-0.382 1.378-1.484 1.428-2.357 0.111-4.593-0.244-6.671-1.425-1.832-1.042-3.252-2.512-4.488-4.177-2.407-3.242-4.251-6.804-5.907-10.466-0.373-0.825-0.1-1.268 0.816-1.284 1.521-0.029 3.041-0.027 4.564-0.002 0.618 0.009 1.027 0.361 1.266 0.942 0.823 2.011 1.83 3.924 3.093 5.698 0.337 0.472 0.68 0.944 1.168 1.277 0.541 0.368 0.952 0.246 1.207-0.353 0.161-0.38 0.232-0.788 0.268-1.195 0.12-1.399 0.136-2.795-0.075-4.188-0.13-0.87-0.623-1.433-1.496-1.597-0.446-0.084-0.379-0.249-0.164-0.502 0.375-0.436 0.727-0.707 1.43-0.707h5.269c0.829 0.163 1.014 0.533 1.127 1.363l0.005 5.817c-0.009 0.321 0.161 1.274 0.743 1.487 0.466 0.151 0.773-0.219 1.052-0.513 1.261-1.331 2.162-2.903 2.966-4.532 0.357-0.716 0.664-1.46 0.961-2.203 0.22-0.551 0.566-0.823 1.191-0.811l5.071 0.004c0.15 0 0.303 0.002 0.448 0.027 0.854 0.145 1.089 0.51 0.825 1.339-0.416 1.301-1.225 2.386-2.016 3.475-0.846 1.163-1.75 2.286-2.589 3.456-0.771 1.068-0.709 1.607 0.248 2.535 1.061 1.030 2.182 1.999 3.134 3.133z"></path>
</symbol>
<symbol id="icon-youtube" viewBox="0 0 32 32">
<path d="M31.327 8.442c-0.364-1.348-1.454-2.413-2.836-2.785-2.491-0.656-12.491-0.656-12.491-0.656s-10 0-12.509 0.656c-1.382 0.355-2.455 1.419-2.836 2.785-0.655 2.448-0.655 7.558-0.655 7.558s0 5.11 0.673 7.558c0.364 1.348 1.455 2.413 2.836 2.786 2.491 0.656 12.491 0.656 12.491 0.656s10 0 12.509-0.656c1.382-0.355 2.455-1.419 2.836-2.786 0.655-2.448 0.655-7.558 0.655-7.558s0-5.11-0.673-7.558zM12.727 20.648v-9.297l8.364 4.648-8.364 4.648z"></path>
</symbol>
</defs>
</svg>
