<svg width="62" height="14" fill="none" xmlns="http://www.w3.org/2000/svg"><path fill-rule="evenodd" clip-rule="evenodd" d="M1.03.001a.5.5 0 00-.529.468L.226 4.961a.5.5 0 10.998.061l.206-3.36c.341.335.79.758 1.341 1.244a44.458 44.458 0 006.156 4.52C14.297 10.712 22.136 14 32 14c9.83 0 17.152-2.269 22.025-4.547 2.435-1.139 4.258-2.28 5.475-3.138a22.87 22.87 0 001.373-1.043 13.175 13.175 0 00.437-.378l.024-.022.007-.006.002-.002c.001 0 .001-.001-.343-.364a80.747 80.747 0 01-.343-.363l-.005.004-.017.016a12.416 12.416 0 01-.399.344c-.29.239-.726.583-1.313.997-1.174.828-2.945 1.938-5.322 3.05C48.85 10.767 41.671 13 32.001 13c-9.636 0-17.297-3.211-22.552-6.426a43.459 43.459 0 01-6.016-4.418 33.792 33.792 0 01-1.169-1.078l3.197.196a.5.5 0 00.061-.998L1.031 0z" fill="#fff"/></svg>