<svg width="32" height="32" fill="none" xmlns="http://www.w3.org/2000/svg"><rect width="32" height="32" rx="16" fill="#5C3ABD"/><path d="M15.992 6.003c-1.605.02-5.056.283-6.986 2.054C7.57 9.48 7.069 11.583 7.01 14.184c-.049 2.592-.107 7.458 4.584 8.784v2.018s-.03.808.504.973c.658.208 1.032-.413 1.657-1.08l1.166-1.319c3.21.267 5.668-.348 5.951-.44.652-.207 4.32-.676 4.92-5.544.615-5.027-.3-8.194-1.95-9.627h-.01c-.499-.458-2.5-1.917-6.974-1.934 0 0-.332-.022-.866-.013zm.055 1.413c.456-.003.733.016.733.016 3.786.01 5.593 1.15 6.02 1.534 1.39 1.191 2.106 4.046 1.582 8.243-.498 4.07-3.474 4.327-4.024 4.503-.235.075-2.4.608-5.128.433 0 0-2.032 2.451-2.667 3.083-.1.11-.218.143-.293.127-.107-.027-.14-.16-.134-.342l.02-3.35c-3.979-1.1-3.744-5.251-3.702-7.42.049-2.168.456-3.942 1.667-5.143 1.631-1.475 4.561-1.674 5.925-1.684h.002zm.3 2.168a.248.248 0 00-.25.248c0 .14.114.25.25.25a4.697 4.697 0 013.36 1.325c.909.882 1.351 2.068 1.368 3.617 0 .137.11.25.25.25v-.01a.25.25 0 00.251-.247 5.386 5.386 0 00-1.51-3.968c-.99-.967-2.244-1.466-3.718-1.466v.001zm-3.294.573a.782.782 0 00-.512.1h-.013c-.357.21-.679.475-.954.785-.228.264-.351.531-.384.788-.02.153-.006.306.04.452l.016.01a11.27 11.27 0 001.002 2.166 12.74 12.74 0 001.934 2.643l.023.033.036.026.022.026.026.023a12.922 12.922 0 002.65 1.943c1.1.599 1.768.882 2.169 1v.006c.117.035.224.052.332.052.341-.025.665-.164.918-.394.309-.275.57-.598.775-.957v-.006c.192-.362.127-.704-.15-.935a11.55 11.55 0 00-1.79-1.286c-.427-.23-.86-.09-1.036.143l-.374.472c-.192.235-.54.202-.54.202l-.01.007c-2.602-.665-3.296-3.298-3.296-3.298s-.032-.358.208-.541l.47-.378c.224-.182.38-.615.14-1.042a11.25 11.25 0 00-1.283-1.79.713.713 0 00-.42-.251v.001zm3.727.743c-.332 0-.332.501.003.501a3.142 3.142 0 012.207.957 2.913 2.913 0 01.75 2.142.252.252 0 00.25.248l.01.013a.253.253 0 00.25-.25c.023-.994-.286-1.827-.891-2.495-.61-.667-1.459-1.042-2.543-1.116h-.036zm.41 1.347c-.341-.01-.354.502-.015.512.823.042 1.223.459 1.276 1.315a.249.249 0 00.247.244h.01a.252.252 0 00.241-.267c-.059-1.116-.667-1.745-1.748-1.803h-.01z" fill="#fff"/></svg>