<svg width="262" height="36" viewBox="0 0 262 36" fill="none" xmlns="http://www.w3.org/2000/svg">
<path d="M2.91242 34.4502C1.62022 34.4502 0.82332 33.0391 1.49059 31.9325L18.4106 3.87303C18.7111 3.37471 19.2505 3.07007 19.8324 3.07007H28.1684C29.4551 3.07007 30.2528 4.47047 29.5965 5.57724L20.8302 20.3607C20.174 21.4674 20.9716 22.8678 22.2584 22.8678H25.5184C26.8199 22.8678 27.6153 24.2972 26.9294 25.4032L21.319 34.4502H13.5076H2.91242Z" fill="#FF6C02"/>
<path d="M41.2646 34.4503C40.2885 34.4503 39.6919 33.3783 40.2063 32.5488L45.8446 23.4569C46.0717 23.0907 46.4719 22.8679 46.9028 22.8679H52.9958C53.9719 22.8679 54.5685 23.9399 54.0541 24.7694L48.4158 33.8613C48.1887 34.2275 47.7884 34.4503 47.3575 34.4503H41.2646Z" fill="#FF6C02"/>
<path d="M44.7744 3.07007C44.1731 3.07007 43.6142 3.37996 43.2957 3.89001L25.8773 31.7835C25.1521 32.9447 25.987 34.4502 27.356 34.4502H35.1042C35.7016 34.4502 36.2574 34.1443 36.5771 33.6396L49.8428 12.6932V12.6932C50.2949 13.5929 51.5962 13.5415 51.976 12.609L55.8615 3.07007H44.7744Z" fill="#FF6C02"/>
<path d="M55.8615 3.07007L51.976 12.609C51.5962 13.5415 50.2949 13.5929 49.8428 12.6932V12.6932L55.8615 3.07007Z" fill="#FF6C02"/>
<path d="M69.8445 34.4502C71.1637 34.4502 72.005 33.0416 71.3794 31.8802L55.8615 3.07007L49.8428 12.6932L60.2945 33.4897C60.5905 34.0786 61.1932 34.4502 61.8522 34.4502H69.8445Z" fill="#FF6C02"/>
<path d="M83.9908 29.7101C83.5039 29.7101 83.1318 29.892 82.8743 30.2558C82.6169 30.6195 82.4882 31.1176 82.4882 31.75C82.4882 32.3881 82.6057 32.8834 82.8407 33.2359C83.0814 33.5829 83.4648 33.7564 83.9908 33.7564C84.2371 33.7564 84.4805 33.7284 84.7212 33.6725C84.9674 33.6165 85.2333 33.5382 85.5187 33.4374V34.5036C85.2557 34.6099 84.9954 34.6883 84.738 34.7386C84.4805 34.789 84.1923 34.8142 83.8733 34.8142C83.2577 34.8142 82.7484 34.6883 82.3454 34.4364C81.9481 34.179 81.6543 33.8208 81.464 33.3619C81.2737 32.8973 81.1786 32.3573 81.1786 31.7416C81.1786 31.1372 81.2877 30.6027 81.506 30.1382C81.7242 29.6737 82.0404 29.3099 82.4546 29.0469C82.8743 28.7839 83.3864 28.6523 83.9908 28.6523C84.2875 28.6523 84.5841 28.6915 84.8807 28.7699C85.1829 28.8426 85.4711 28.9434 85.7454 29.0721L85.334 30.1046C85.1102 29.9983 84.8835 29.906 84.654 29.8276C84.4302 29.7493 84.2091 29.7101 83.9908 29.7101ZM93.546 34.7302L92.1021 30.0291H92.0685C92.0741 30.141 92.0825 30.3089 92.0937 30.5328C92.1049 30.7566 92.1161 30.9973 92.1273 31.2547C92.1385 31.5066 92.1441 31.7361 92.1441 31.9431V34.7302H91.0108V28.7363H92.7401L94.1589 33.3199H94.1841L95.6867 28.7363H97.4161V34.7302H96.2324V31.8928C96.2324 31.7025 96.2352 31.4842 96.2408 31.238C96.252 30.9917 96.2604 30.7594 96.266 30.5412C96.2772 30.3173 96.2856 30.1494 96.2912 30.0375H96.2576L94.7129 34.7302H93.546ZM106.817 34.7302L106.381 33.3031H104.198L103.761 34.7302H102.393L104.509 28.7111H106.062L108.186 34.7302H106.817ZM106.078 32.2369L105.642 30.8434C105.614 30.7483 105.578 30.6279 105.533 30.4824C105.488 30.3369 105.443 30.1886 105.398 30.0375C105.354 29.8864 105.317 29.7549 105.289 29.6429C105.261 29.7549 105.222 29.8948 105.172 30.0627C105.127 30.225 105.082 30.3817 105.037 30.5328C104.998 30.6783 104.968 30.7818 104.945 30.8434L104.517 32.2369H106.078ZM117.302 30.1382C117.302 30.5412 117.159 30.8658 116.874 31.112C116.588 31.3583 116.224 31.5122 115.782 31.5737V31.5989C116.331 31.6549 116.751 31.8088 117.042 32.0607C117.338 32.3069 117.486 32.6287 117.486 33.0261C117.486 33.5521 117.271 33.9831 116.84 34.3189C116.415 34.6491 115.788 34.8142 114.96 34.8142C114.506 34.8142 114.103 34.7862 113.751 34.7302C113.404 34.6743 113.102 34.5931 112.844 34.4868V33.4206C113.018 33.5046 113.213 33.5773 113.432 33.6389C113.65 33.6949 113.871 33.7396 114.095 33.7732C114.319 33.8012 114.526 33.8152 114.716 33.8152C115.248 33.8152 115.631 33.7396 115.866 33.5885C116.107 33.4318 116.227 33.2135 116.227 32.9337C116.227 32.6483 116.054 32.4412 115.707 32.3125C115.36 32.1782 114.892 32.111 114.305 32.111H113.742V31.1204H114.246C114.722 31.1204 115.091 31.0896 115.354 31.0281C115.617 30.9665 115.802 30.877 115.908 30.7594C116.015 30.6419 116.068 30.502 116.068 30.3397C116.068 30.1326 115.975 29.9703 115.791 29.8528C115.612 29.7297 115.34 29.6681 114.976 29.6681C114.669 29.6681 114.378 29.7129 114.103 29.8024C113.835 29.892 113.583 30.0095 113.348 30.155L112.794 29.3071C113.102 29.1057 113.443 28.9462 113.818 28.8286C114.193 28.7111 114.638 28.6523 115.153 28.6523C115.83 28.6523 116.356 28.7922 116.731 29.0721C117.112 29.3519 117.302 29.7073 117.302 30.1382ZM128.265 31.7249C128.265 32.3461 128.161 32.8889 127.954 33.3535C127.753 33.8124 127.442 34.1706 127.023 34.428C126.603 34.6855 126.066 34.8142 125.411 34.8142C124.762 34.8142 124.224 34.6855 123.799 34.428C123.379 34.1706 123.066 33.8096 122.859 33.3451C122.657 32.8806 122.556 32.3377 122.556 31.7165C122.556 31.0952 122.657 30.5552 122.859 30.0963C123.066 29.6373 123.379 29.2819 123.799 29.0301C124.224 28.7727 124.764 28.6439 125.419 28.6439C126.068 28.6439 126.603 28.7727 127.023 29.0301C127.442 29.2819 127.753 29.6401 127.954 30.1046C128.161 30.5636 128.265 31.1036 128.265 31.7249ZM123.891 31.7249C123.891 32.3517 124.012 32.847 124.252 33.2108C124.493 33.5689 124.879 33.748 125.411 33.748C125.954 33.748 126.343 33.5689 126.578 33.2108C126.813 32.847 126.93 32.3517 126.93 31.7249C126.93 31.0924 126.813 30.5971 126.578 30.239C126.343 29.8808 125.956 29.7017 125.419 29.7017C124.882 29.7017 124.493 29.8808 124.252 30.239C124.012 30.5971 123.891 31.0924 123.891 31.7249ZM138.161 34.7302H136.894V32.4132C136.541 32.5364 136.217 32.6287 135.92 32.6903C135.629 32.7518 135.335 32.7826 135.039 32.7826C134.479 32.7826 134.04 32.6483 133.721 32.3797C133.407 32.1054 133.25 31.7165 133.25 31.2128V28.7363H134.518V30.8518C134.518 31.1428 134.585 31.3611 134.72 31.5066C134.854 31.6521 135.081 31.7249 135.4 31.7249C135.635 31.7249 135.87 31.6997 136.105 31.6493C136.34 31.5989 136.603 31.5234 136.894 31.4226V28.7363H138.161V34.7302ZM148.798 34.7302H147.53V32.1446H145.155V34.7302H143.887V28.7363H145.155V31.0868H147.53V28.7363H148.798V34.7302ZM158.193 34.7302L157.757 33.3031H155.574L155.137 34.7302H153.769L155.885 28.7111H157.438L159.562 34.7302H158.193ZM157.454 32.2369L157.018 30.8434C156.99 30.7483 156.954 30.6279 156.909 30.4824C156.864 30.3369 156.819 30.1886 156.774 30.0375C156.73 29.8864 156.693 29.7549 156.665 29.6429C156.637 29.7549 156.598 29.8948 156.548 30.0627C156.503 30.225 156.458 30.3817 156.413 30.5328C156.374 30.6783 156.344 30.7818 156.321 30.8434L155.893 32.2369H157.454ZM166.554 32.43L165.152 34.7302H163.742L165.446 32.0942C165.283 32.0271 165.121 31.9291 164.959 31.8004C164.797 31.6661 164.662 31.4898 164.556 31.2715C164.45 31.0477 164.396 30.7734 164.396 30.4488C164.396 29.8948 164.595 29.4722 164.992 29.1812C165.39 28.8846 165.947 28.7363 166.663 28.7363H168.611V34.7302H167.343V32.43H166.554ZM167.343 29.7772H166.713C166.389 29.7772 166.134 29.836 165.949 29.9535C165.77 30.0711 165.681 30.2669 165.681 30.5412C165.681 30.8042 165.768 31.0141 165.941 31.1708C166.12 31.3219 166.389 31.3975 166.747 31.3975H167.343V29.7772ZM185.97 34.7302H184.526L182.352 31.6913V34.7302H181.084V28.7363H182.352V31.6409L184.501 28.7363H185.852L183.67 31.6157L185.97 34.7302ZM196.219 31.7249C196.219 32.3461 196.115 32.8889 195.908 33.3535C195.706 33.8124 195.396 34.1706 194.976 34.428C194.556 34.6855 194.019 34.8142 193.364 34.8142C192.715 34.8142 192.178 34.6855 191.753 34.428C191.333 34.1706 191.019 33.8096 190.812 33.3451C190.611 32.8806 190.51 32.3377 190.51 31.7165C190.51 31.0952 190.611 30.5552 190.812 30.0963C191.019 29.6373 191.333 29.2819 191.753 29.0301C192.178 28.7727 192.718 28.6439 193.373 28.6439C194.022 28.6439 194.556 28.7727 194.976 29.0301C195.396 29.2819 195.706 29.6401 195.908 30.1046C196.115 30.5636 196.219 31.1036 196.219 31.7249ZM191.845 31.7249C191.845 32.3517 191.965 32.847 192.206 33.2108C192.446 33.5689 192.833 33.748 193.364 33.748C193.907 33.748 194.296 33.5689 194.531 33.2108C194.766 32.847 194.884 32.3517 194.884 31.7249C194.884 31.0924 194.766 30.5971 194.531 30.239C194.296 29.8808 193.91 29.7017 193.373 29.7017C192.835 29.7017 192.446 29.8808 192.206 30.239C191.965 30.5971 191.845 31.0924 191.845 31.7249ZM204.214 34.7302L202.77 30.0291H202.736C202.742 30.141 202.75 30.3089 202.762 30.5328C202.773 30.7566 202.784 30.9973 202.795 31.2547C202.806 31.5066 202.812 31.7361 202.812 31.9431V34.7302H201.679V28.7363H203.408L204.827 33.3199H204.852L206.355 28.7363H208.084V34.7302H206.9V31.8928C206.9 31.7025 206.903 31.4842 206.909 31.238C206.92 30.9917 206.928 30.7594 206.934 30.5412C206.945 30.3173 206.953 30.1494 206.959 30.0375H206.925L205.381 34.7302H204.214ZM213.816 34.7302V28.7363H218.56V34.7302H217.292V29.794H215.084V34.7302H213.816ZM227.959 34.7302L227.522 33.3031H225.339L224.903 34.7302H223.534L225.65 28.7111H227.203L229.327 34.7302H227.959ZM227.22 32.2369L226.783 30.8434C226.755 30.7483 226.719 30.6279 226.674 30.4824C226.629 30.3369 226.585 30.1886 226.54 30.0375C226.495 29.8864 226.459 29.7549 226.431 29.6429C226.403 29.7549 226.364 29.8948 226.313 30.0627C226.268 30.225 226.224 30.3817 226.179 30.5328C226.14 30.6783 226.109 30.7818 226.087 30.8434L225.658 32.2369H227.22ZM239.216 34.7302H237.948V32.1446H235.572V34.7302H234.305V28.7363H235.572V31.0868H237.948V28.7363H239.216V34.7302ZM244.942 28.7363H246.084V31.6325C246.084 31.7724 246.081 31.9291 246.075 32.1026C246.07 32.2761 246.064 32.4468 246.059 32.6147C246.053 32.777 246.047 32.9197 246.042 33.0429C246.036 33.1604 246.031 33.2415 246.025 33.2863H246.05L248.821 28.7363H250.34V34.7302H249.207V31.8508C249.207 31.6997 249.209 31.5346 249.215 31.3555C249.221 31.1708 249.226 30.9945 249.232 30.8266C249.243 30.6587 249.251 30.5132 249.257 30.3901C249.268 30.2613 249.277 30.1774 249.282 30.1382H249.249L246.47 34.7302H244.942V28.7363ZM258.086 32.43L256.684 34.7302H255.274L256.978 32.0942C256.816 32.0271 256.654 31.9291 256.491 31.8004C256.329 31.6661 256.195 31.4898 256.088 31.2715C255.982 31.0477 255.929 30.7734 255.929 30.4488C255.929 29.8948 256.127 29.4722 256.525 29.1812C256.922 28.8846 257.479 28.7363 258.195 28.7363H260.143V34.7302H258.875V32.43H258.086ZM258.875 29.7772H258.246C257.921 29.7772 257.667 29.836 257.482 29.9535C257.303 30.0711 257.213 30.2669 257.213 30.5412C257.213 30.8042 257.3 31.0141 257.473 31.1708C257.653 31.3219 257.921 31.3975 258.279 31.3975H258.875V29.7772Z" fill="#25373F"/>
<path d="M85.7019 3.11749V14.742L94.7852 3.11749H99.7168V22.0891H94.7852V10.4898L85.7019 22.0891H80.7703V3.11749H85.7019ZM111.206 10.4394H118.327V3.11749H123.259V22.0891H118.327V14.2639H111.206V22.0891H106.275V3.11749H111.206V10.4394ZM137.009 7.29427V22.0891H132.078V7.29427H128.027V3.11749H141.06V7.29427H137.009ZM157.13 7.29427H151.268V10.4646H156.803V14.6414H151.268V17.9123H157.13V22.0891H146.336V3.11749H157.13V7.29427ZM168.448 11.8233H170.084C171.895 11.8233 172.801 11.0349 172.801 9.45814C172.801 7.88137 171.895 7.09298 170.084 7.09298H168.448V11.8233ZM168.448 22.0891H163.517V3.11749H171.367C173.497 3.11749 175.124 3.67104 176.248 4.77814C177.389 5.88524 177.959 7.44524 177.959 9.45814C177.959 11.471 177.389 13.031 176.248 14.1381C175.124 15.2452 173.497 15.7988 171.367 15.7988H168.448V22.0891ZM192.206 15.0439L189.992 8.72846L187.778 15.0439H192.206ZM193.515 18.793H186.47L185.337 22.0891H180.079L187.3 3.11749H192.684L199.906 22.0891H194.647L193.515 18.793ZM209.599 18.2646H210.681C211.922 18.2646 212.811 18.1052 213.348 17.7865C213.885 17.4678 214.153 16.9562 214.153 16.2517C214.153 15.5472 213.885 15.0356 213.348 14.7169C212.811 14.3981 211.922 14.2388 210.681 14.2388H209.599V18.2646ZM209.599 10.5652H210.505C212.048 10.5652 212.819 9.95298 212.819 8.72846C212.819 7.50395 212.048 6.89169 210.505 6.89169H209.599V10.5652ZM204.667 3.11749H212.014C213.759 3.11749 215.084 3.53685 215.99 4.37556C216.896 5.21427 217.348 6.42201 217.348 7.99879C217.348 8.95491 217.172 9.75169 216.82 10.3891C216.485 11.0098 215.965 11.5381 215.26 11.9743C215.965 12.1085 216.56 12.3181 217.046 12.6033C217.55 12.8717 217.952 13.2072 218.254 13.6098C218.573 14.0123 218.799 14.4652 218.934 14.9685C219.068 15.4717 219.135 16.0085 219.135 16.5788C219.135 17.4678 218.976 18.2562 218.657 18.9439C218.355 19.6317 217.919 20.2104 217.348 20.6801C216.795 21.1498 216.116 21.502 215.31 21.7369C214.505 21.9717 213.599 22.0891 212.593 22.0891H204.667V3.11749ZM231.864 7.29427V22.0891H226.932V7.29427H222.881V3.11749H235.914V7.29427H231.864ZM244.818 12.6033C244.818 13.3581 244.96 14.0543 245.245 14.6917C245.531 15.3291 245.916 15.8827 246.403 16.3523C246.889 16.822 247.451 17.191 248.089 17.4594C248.743 17.711 249.431 17.8369 250.152 17.8369C250.873 17.8369 251.553 17.711 252.19 17.4594C252.844 17.191 253.414 16.822 253.901 16.3523C254.404 15.8827 254.798 15.3291 255.083 14.6917C255.369 14.0543 255.511 13.3581 255.511 12.6033C255.511 11.8485 255.369 11.1523 255.083 10.5149C254.798 9.87749 254.404 9.32395 253.901 8.85427C253.414 8.38459 252.844 8.02395 252.19 7.77233C251.553 7.50395 250.873 7.36975 250.152 7.36975C249.431 7.36975 248.743 7.50395 248.089 7.77233C247.451 8.02395 246.889 8.38459 246.403 8.85427C245.916 9.32395 245.531 9.87749 245.245 10.5149C244.96 11.1523 244.818 11.8485 244.818 12.6033ZM239.66 12.6033C239.66 11.1943 239.92 9.88588 240.44 8.67814C240.96 7.45362 241.681 6.38846 242.603 5.48265C243.526 4.57685 244.625 3.87233 245.9 3.36911C247.191 2.84911 248.609 2.58911 250.152 2.58911C251.678 2.58911 253.087 2.84911 254.379 3.36911C255.671 3.87233 256.778 4.57685 257.7 5.48265C258.64 6.38846 259.369 7.45362 259.889 8.67814C260.409 9.88588 260.669 11.1943 260.669 12.6033C260.669 14.0123 260.409 15.3291 259.889 16.5536C259.369 17.7614 258.64 18.8181 257.7 19.7239C256.778 20.6298 255.671 21.3427 254.379 21.8627C253.087 22.3659 251.678 22.6175 250.152 22.6175C248.609 22.6175 247.191 22.3659 245.9 21.8627C244.625 21.3427 243.526 20.6298 242.603 19.7239C241.681 18.8181 240.96 17.7614 240.44 16.5536C239.92 15.3291 239.66 14.0123 239.66 12.6033Z" fill="#25373F"/>
<rect x="57.3974" y="0.662354" width="2.31591" height="16.8184" transform="rotate(32.0149 57.3974 0.662354)" fill="white"/>
</svg>
