<svg aria-hidden="true" style="position: absolute; width: 0; height: 0; overflow: hidden;" version="1.1" xmlns="http://www.w3.org/2000/svg" xmlns:xlink="http://www.w3.org/1999/xlink">
<defs>
<symbol id="icon-facebook" viewBox="0 0 17 17">
<path d="M9.563 5.844v-2.125c0-0.587 0.476-1.063 1.063-1.063h1.063v-2.656h-2.125c-1.761 0-3.188 1.427-3.188 3.188v2.656h-2.125v2.656h2.125v8.5h3.188v-8.5h2.125l1.063-2.656h-3.188z"></path>
</symbol>
<symbol id="icon-instagram" viewBox="0 0 17 17">
<path d="M11.688 0h-6.375c-2.934 0-5.313 2.379-5.313 5.313v6.375c0 2.934 2.379 5.313 5.313 5.313h6.375c2.934 0 5.313-2.379 5.313-5.313v-6.375c0-2.934-2.379-5.313-5.313-5.313zM15.406 11.688c0 2.051-1.668 3.719-3.719 3.719h-6.375c-2.051 0-3.719-1.668-3.719-3.719v-6.375c0-2.051 1.668-3.719 3.719-3.719h6.375c2.051 0 3.719 1.668 3.719 3.719v6.375z"></path>
<path d="M8.5 4.25c-2.347 0-4.25 1.903-4.25 4.25s1.903 4.25 4.25 4.25c2.347 0 4.25-1.903 4.25-4.25s-1.903-4.25-4.25-4.25zM8.5 11.156c-1.464 0-2.656-1.192-2.656-2.656 0-1.465 1.192-2.656 2.656-2.656s2.656 1.191 2.656 2.656c0 1.464-1.192 2.656-2.656 2.656z"></path>
<path d="M13.069 4.497c0.313 0 0.566-0.254 0.566-0.566s-0.254-0.566-0.566-0.566c-0.313 0-0.566 0.254-0.566 0.566s0.254 0.566 0.566 0.566z"></path>
</symbol>
<symbol id="icon-youtube" viewBox="0 0 17 17">
<path d="M16.277 3.783c-0.461-0.82-0.962-0.971-1.981-1.029-1.018-0.069-3.577-0.098-5.795-0.098-2.222 0-4.782 0.029-5.799 0.097-1.017 0.058-1.518 0.208-1.984 1.030-0.475 0.819-0.719 2.23-0.719 4.714 0 0.002 0 0.003 0 0.003 0 0.002 0 0.003 0 0.003v0.002c0 2.473 0.244 3.895 0.719 4.706 0.465 0.82 0.966 0.969 1.983 1.038 1.018 0.059 3.579 0.095 5.8 0.095 2.217 0 4.777-0.035 5.796-0.093 1.019-0.069 1.519-0.218 1.98-1.038 0.479-0.811 0.721-2.232 0.721-4.706 0 0 0-0.003 0-0.005 0 0 0-0.002 0-0.003 0-2.485-0.242-3.896-0.723-4.715zM6.375 11.688v-6.375l5.313 3.188-5.313 3.188z"></path>
</symbol>
<symbol id="icon-arrow" viewBox="0 0 17 17">
<path d="M9.709 15.786l7.291-7.286-7.288-7.286-0.858 0.856 5.822 5.822h-14.676v1.214h14.676l-5.825 5.825 0.859 0.854z"></path>
</symbol>
<symbol id="icon-pool" viewBox="0 0 17 17">
<path d="M2.98 11.708l0.689-0.404c0.307-0.18 0.687-0.178 0.991 0.005l0.645 0.388c0.312 0.187 0.662 0.281 1.013 0.281 0.343 0 0.687-0.090 0.994-0.27l0.689-0.404c0.307-0.18 0.687-0.178 0.991 0.005l0.645 0.388c0.617 0.371 1.386 0.375 2.007 0.011l0.689-0.404c0.307-0.18 0.686-0.178 0.991 0.005l0.645 0.388c0.617 0.371 1.386 0.375 2.007 0.011l0.69-0.405-0.504-0.859-0.69 0.405c-0.306 0.18-0.686 0.178-0.99-0.005l-0.645-0.388c-0.521-0.313-1.15-0.365-1.708-0.155v-7.622c0-0.928 0.755-1.683 1.683-1.683h0.844v-0.996h-0.845c-1.477 0-2.679 1.202-2.679 2.679v0.814h-4.178v-0.814c0-0.928 0.755-1.683 1.683-1.683h0.844v-0.996h-0.844c-1.477 0-2.679 1.202-2.679 2.679v8.235c-0.049-0.019-0.097-0.043-0.143-0.070l-0.645-0.388c-0.617-0.371-1.387-0.375-2.008-0.011l-0.69 0.404c-0.306 0.18-0.686 0.178-0.99-0.005l-0.641-0.385-0.513 0.854 0.641 0.385c0.617 0.371 1.386 0.375 2.007 0.011zM10.152 10.844l-0.645-0.388c-0.617-0.371-1.387-0.375-2.008-0.011l-0.54 0.317v-2.708h4.178v2.799c-0.305 0.176-0.682 0.173-0.984-0.009zM11.136 4.489v2.568h-4.178v-2.568h4.178z"></path>
<path d="M2.98 14.219l0.689-0.404c0.307-0.18 0.687-0.178 0.991 0.005l0.645 0.388c0.617 0.371 1.386 0.375 2.007 0.011l0.689-0.404c0.307-0.18 0.687-0.178 0.991 0.005l0.645 0.388c0.617 0.371 1.386 0.375 2.007 0.011l0.689-0.404c0.307-0.18 0.686-0.178 0.991 0.005l0.645 0.388c0.312 0.187 0.662 0.281 1.013 0.281 0.343 0 0.687-0.090 0.994-0.27l0.69-0.405-0.504-0.859-0.69 0.405c-0.306 0.18-0.686 0.178-0.99-0.005l-0.645-0.388c-0.617-0.371-1.387-0.375-2.008-0.011l-0.689 0.404c-0.306 0.18-0.686 0.178-0.99-0.005l-0.645-0.388c-0.617-0.371-1.387-0.375-2.009-0.011l-0.689 0.404c-0.306 0.18-0.686 0.178-0.99-0.005l-0.645-0.388c-0.618-0.371-1.387-0.375-2.009-0.011l-0.689 0.404c-0.306 0.18-0.686 0.178-0.99-0.005l-0.641-0.385-0.513 0.854 0.641 0.385c0.617 0.371 1.386 0.375 2.007 0.011z"></path>
<path d="M15.475 15.871c-0.306 0.18-0.686 0.178-0.99-0.005l-0.645-0.388c-0.617-0.371-1.387-0.376-2.008-0.011l-0.689 0.404c-0.306 0.18-0.686 0.178-0.99-0.005l-0.645-0.388c-0.617-0.371-1.387-0.375-2.008-0.011l-0.689 0.404c-0.306 0.18-0.686 0.178-0.99-0.005l-0.645-0.388c-0.617-0.371-1.387-0.375-2.008-0.011l-0.689 0.404c-0.306 0.18-0.686 0.178-0.99-0.005l-0.641-0.385-0.513 0.854 0.641 0.385c0.617 0.371 1.386 0.375 2.007 0.011l0.689-0.404c0.307-0.18 0.687-0.178 0.991 0.005l0.645 0.388c0.617 0.371 1.386 0.375 2.007 0.011l0.689-0.404c0.307-0.18 0.687-0.178 0.991 0.005l0.645 0.388c0.617 0.371 1.386 0.375 2.007 0.011l0.689-0.404c0.307-0.18 0.686-0.178 0.991 0.005l0.645 0.388c0.312 0.187 0.662 0.281 1.013 0.281 0.343 0 0.687-0.090 0.994-0.27l0.69-0.405-0.504-0.859-0.69 0.405z"></path>
</symbol>
<symbol id="icon-trees" viewBox="0 0 17 17">
<path d="M14.574 6.269c-0.135-0.854-0.55-1.638-1.19-2.233-0.721-0.672-1.661-1.041-2.647-1.041s-1.926 0.37-2.647 1.041c-0.183 0.17-0.347 0.355-0.491 0.553l-0.203-1.662c-0.204-1.668-1.625-2.927-3.306-2.927s-3.102 1.258-3.306 2.927l-0.613 5.020c-0.137 1.121 0.214 2.25 0.963 3.096 0.638 0.721 1.514 1.179 2.458 1.299v4.658h0.996v-4.658c0.278-0.035 0.55-0.1 0.812-0.192 0.311 0.411 0.702 0.759 1.149 1.020 0.59 0.344 1.265 0.525 1.951 0.525 0.609 0 1.204-0.143 1.739-0.411v3.717h0.996v-3.717c0.536 0.268 1.13 0.411 1.739 0.411 2.142 0 3.885-1.743 3.885-3.885 0-1.532-0.906-2.917-2.285-3.541zM4.588 11.335v-1.396h-0l1.78-0.936-0.464-0.882-1.317 0.692v-2.53l1.78-0.936-0.464-0.882-1.317 0.692v-1.455h-0.996v3.283l-1.317-0.692-0.464 0.882 1.78 0.936v3.224c-0.658-0.113-1.264-0.446-1.712-0.953-0.56-0.632-0.822-1.476-0.72-2.315l0.613-5.020c0.143-1.169 1.139-2.051 2.317-2.051s2.174 0.882 2.317 2.051l0.613 5.020c0.102 0.839-0.16 1.682-0.72 2.315-0.448 0.507-1.055 0.84-1.712 0.953zM12.974 12.698c-0.63 0-1.24-0.206-1.739-0.583v-2.394l1.78-0.936-0.464-0.882-1.317 0.692v-1.455h-0.996v3.263l-1.317-0.692-0.464 0.882 1.78 0.936v0.587c-0.499 0.377-1.109 0.583-1.739 0.583-0.845 0-1.647-0.377-2.191-1.008 0.269-0.183 0.517-0.4 0.737-0.648 0.749-0.846 1.1-1.974 0.963-3.096l-0.154-1.262 0.002-0.028c0.055-0.724 0.379-1.396 0.912-1.893 0.536-0.499 1.235-0.774 1.968-0.774s1.432 0.275 1.968 0.774c0.533 0.497 0.857 1.169 0.912 1.893l0.024 0.323 0.305 0.109c1.146 0.41 1.917 1.503 1.917 2.721-0 1.593-1.296 2.889-2.889 2.889z"></path>
</symbol>
<symbol id="icon-eco-house" viewBox="0 0 17 17">
<path d="M17 8.481l-8.5-8.48-8.5 8.48 0.705 0.706 1.392-1.388v9.2h12.807v-9.2l1.392 1.388 0.705-0.706zM8.001 9.924v2.59c-0.615-0.611-1.286-1.508-1.286-2.426 0-1.27 1.223-2.413 1.788-2.873 0.674 0.547 1.783 1.693 1.783 2.873 0 0.961-0.701 1.849-1.286 2.424v-2.588l-0.998-0zM13.906 16.001h-4.907v-2.163c0.611-0.474 2.284-1.937 2.284-3.75 0-2.17-2.399-3.84-2.501-3.91l-0.282-0.193-0.282 0.193c-0.102 0.070-2.501 1.74-2.501 3.91 0 1.813 1.673 3.276 2.284 3.75v2.163h-4.907v-9.198l5.406-5.393 5.406 5.393v9.198z"></path>
</symbol>
<symbol id="icon-eco-green" viewBox="0 0 17 17">
<path d="M14.994 4.015h-0.996v0.934h-0.938v-0.934h-0.996v0.934h-1.058v0.996h0.575v1.025c0 0.902 0.616 1.662 1.45 1.883v3.822c0 0.613-0.499 1.112-1.112 1.112s-1.112-0.499-1.112-1.112v-1.446c0-1.163-0.946-2.109-2.109-2.109s-2.109 0.946-2.109 2.109v3.662c0 0.613-0.499 1.112-1.112 1.112s-1.112-0.499-1.112-1.112v-4.955c0.622-0.52 2.42-2.244 2.42-4.78 0-3.002-2.518-4.865-2.625-4.943l-0.293-0.213-0.293 0.213c-0.107 0.078-2.625 1.941-2.625 4.943 0 2.537 1.798 4.26 2.42 4.78v4.955c0 1.163 0.946 2.109 2.109 2.109s2.109-0.946 2.109-2.109v-3.662c0-0.613 0.499-1.112 1.112-1.112s1.112 0.499 1.112 1.112v1.446c0 1.163 0.946 2.109 2.109 2.109s2.109-0.946 2.109-2.109v-3.822c0.834-0.221 1.45-0.981 1.45-1.883v-1.025h0.575v-0.996h-1.058v-0.934h-0zM3.368 5.156v3.388c-0.636-0.713-1.423-1.897-1.423-3.388 0-1.929 1.32-3.345 1.921-3.891 0.602 0.546 1.922 1.962 1.922 3.891 0 1.49-0.787 2.674-1.423 3.388v-3.388h-0.996zM14.48 6.97c0 0.525-0.427 0.952-0.952 0.952s-0.952-0.427-0.952-0.952v-1.025h1.903v1.025h-0z"></path>
</symbol>
<symbol id="icon-guard" viewBox="0 0 17 17">
<path d="M8.577 2.923c0.274 0 0.498-0.224 0.498-0.498s-0.224-0.498-0.498-0.498c-0.274 0-0.498 0.224-0.498 0.498s0.224 0.498 0.498 0.498z"></path>
<path d="M16.709 13.259l-5.385-2.459c0.839-0.754 1.367-1.846 1.367-3.060v-1.655c0.19-0.085 0.371-0.177 0.539-0.275 0.121-0.071 0.207-0.189 0.236-0.327s-0.001-0.281-0.083-0.395l-0.636-0.883 0.955-1.811c0.067-0.128 0.076-0.279 0.023-0.413s-0.161-0.24-0.297-0.288l-4.685-1.663c-0.108-0.038-0.225-0.038-0.333 0l-4.685 1.663c-0.136 0.048-0.245 0.153-0.297 0.288s-0.044 0.285 0.023 0.413l0.95 1.802-0.635 0.908c-0.080 0.114-0.108 0.257-0.078 0.393s0.117 0.254 0.237 0.323c0.161 0.093 0.342 0.181 0.537 0.264v1.655c0 1.189 0.507 2.261 1.316 3.013l-5.489 2.506c-0.177 0.081-0.291 0.258-0.291 0.453v2.788c0 0.275 0.223 0.498 0.498 0.498s0.498-0.223 0.498-0.498v-2.468l3.15-1.438 2.336 2.775c0.089 0.106 0.217 0.169 0.355 0.177 0.009 0 0.017 0.001 0.026 0.001 0.129 0 0.253-0.050 0.346-0.139l1.291-1.245 1.291 1.245c0.093 0.090 0.217 0.139 0.346 0.139 0.009 0 0.017-0 0.026-0.001 0.138-0.007 0.266-0.071 0.355-0.177l2.336-2.775 3.15 1.438v2.468c0 0.275 0.223 0.498 0.498 0.498s0.498-0.223 0.498-0.498v-2.788c0-0.195-0.114-0.372-0.291-0.453zM8.5 12.837l-1.024-1.133c0.351 0.098 0.72 0.15 1.102 0.15 0.31 0 0.611-0.035 0.901-0.1l-0.979 1.082zM4.919 5.196l0.243-0.347h6.822l0.252 0.35c-0.943 0.414-2.184 0.646-3.502 0.646-1.373 0-2.844-0.257-3.815-0.649zM8.577 1.028l3.976 1.411-0.745 1.413h-6.462l-0.745-1.413 3.976-1.411zM5.46 7.741v-1.317c0.972 0.264 2.131 0.417 3.274 0.417 1.053 0 2.072-0.139 2.961-0.395v1.295c0 1.719-1.399 3.118-3.118 3.118s-3.118-1.399-3.118-3.118zM6.901 14.32l-1.811-2.151 1.035-0.473 1.629 1.801-0.853 0.823zM10.099 14.32l-0.853-0.823 1.629-1.801 1.035 0.473-1.811 2.151z"></path>
</symbol>
<symbol id="icon-location" viewBox="0 0 17 17">
<path d="M8.5 2.907c-0.824 0-1.494 0.671-1.494 1.495s0.67 1.495 1.494 1.495c0.824 0 1.494-0.671 1.494-1.495s-0.67-1.495-1.494-1.495zM8.5 4.901c-0.275 0-0.498-0.224-0.498-0.499s0.223-0.499 0.498-0.499c0.275 0 0.498 0.224 0.498 0.499s-0.223 0.499-0.498 0.499z"></path>
<path d="M16.982 15.458l-2.188-8.010c-0.059-0.218-0.259-0.367-0.48-0.367h-2.899c0.379-0.975 0.571-1.874 0.571-2.679 0-1.924-1.564-3.489-3.486-3.489s-3.486 1.565-3.486 3.489c0 0.805 0.192 1.704 0.571 2.679h-2.899c-0.225 0-0.421 0.15-0.48 0.367l-2.188 8.010c-0.086 0.317 0.152 0.629 0.48 0.629 0.185 0 15.823 0 16.003 0 0.328 0 0.567-0.313 0.48-0.629zM8.5 1.909c1.373 0 2.49 1.118 2.49 2.493 0 0.851-0.263 1.849-0.781 2.968-0.553 1.194-1.274 2.248-1.709 2.837-0.635-0.861-1.258-1.863-1.709-2.837-0.518-1.119-0.781-2.117-0.781-2.968 0-1.375 1.117-2.493 2.49-2.493zM3.066 8.077h2.959c0.566 1.151 1.367 2.372 2.060 3.224 0.241 0.297 0.591 0.296 0.831 0 0.704-0.866 1.513-2.112 2.060-3.224h2.362l-3.041 4.189h-8.374l1.144-4.189zM1.151 15.091l0.499-1.828h7.923l-1.327 1.828h-7.096zM9.477 15.091l4.63-6.379 1.742 6.379h-6.372z"></path>
</symbol>
<symbol id="icon-photo-camera" viewBox="0 0 17 17">
<path d="M16.336 4.064c-0.443-0.443-0.977-0.664-1.603-0.664h-1.983l-0.452-1.204c-0.112-0.289-0.317-0.539-0.615-0.748s-0.604-0.314-0.916-0.314h-4.533c-0.313 0-0.618 0.105-0.916 0.314s-0.503 0.459-0.615 0.748l-0.452 1.204h-1.983c-0.626 0-1.16 0.221-1.603 0.664s-0.664 0.977-0.664 1.603v7.933c0 0.626 0.221 1.16 0.664 1.603s0.977 0.664 1.603 0.664h12.467c0.626 0 1.16-0.221 1.603-0.664s0.664-0.977 0.664-1.603v-7.933c0-0.626-0.221-1.16-0.664-1.603zM11.302 12.436c-0.776 0.776-1.71 1.164-2.802 1.164s-2.026-0.388-2.802-1.164c-0.776-0.776-1.164-1.71-1.164-2.802s0.388-2.026 1.164-2.802c0.776-0.776 1.71-1.164 2.802-1.164s2.026 0.388 2.802 1.164 1.164 1.71 1.164 2.802c0 1.092-0.388 2.026-1.164 2.802z"></path>
<path d="M8.5 7.083c-0.702 0-1.303 0.249-1.802 0.748s-0.748 1.099-0.748 1.802c0 0.702 0.249 1.303 0.748 1.802s1.099 0.748 1.802 0.748c0.702 0 1.303-0.249 1.802-0.748s0.748-1.099 0.748-1.802c0-0.703-0.249-1.303-0.748-1.802s-1.1-0.748-1.802-0.748z"></path>
</symbol>
<symbol id="icon-mail" viewBox="0 0 17 17">
<path d="M0.355 3.159c2.333 1.976 6.427 5.452 7.63 6.536 0.162 0.146 0.335 0.221 0.515 0.221s0.352-0.074 0.514-0.219c1.204-1.085 5.298-4.562 7.632-6.538 0.145-0.123 0.167-0.339 0.050-0.489-0.272-0.347-0.677-0.546-1.112-0.546h-14.167c-0.434 0-0.84 0.199-1.112 0.546-0.118 0.15-0.095 0.366 0.050 0.489z"></path>
<path d="M16.795 4.23c-0.126-0.058-0.273-0.038-0.378 0.051-1.528 1.295-3.541 3.007-5.060 4.313-0.080 0.068-0.125 0.169-0.123 0.275s0.050 0.204 0.133 0.27c1.411 1.13 3.537 2.684 5.072 3.789 0.061 0.044 0.134 0.067 0.207 0.067 0.055 0 0.111-0.013 0.161-0.039 0.118-0.061 0.193-0.182 0.193-0.315v-8.089c0-0.138-0.080-0.264-0.205-0.321z"></path>
<path d="M0.561 12.927c1.536-1.105 3.662-2.659 5.072-3.789 0.082-0.066 0.131-0.165 0.133-0.27s-0.043-0.206-0.123-0.275c-1.518-1.306-3.532-3.017-5.060-4.313-0.105-0.089-0.253-0.109-0.378-0.051s-0.205 0.183-0.205 0.321v8.089c0 0.133 0.074 0.255 0.193 0.315 0.051 0.026 0.106 0.039 0.162 0.039 0.073 0 0.146-0.023 0.207-0.067z"></path>
<path d="M16.566 13.892c-1.483-1.061-4.214-3.038-5.844-4.362-0.133-0.108-0.325-0.105-0.456 0.008-0.32 0.279-0.588 0.514-0.778 0.685-0.583 0.526-1.392 0.526-1.977-0.001-0.189-0.17-0.457-0.406-0.777-0.684-0.13-0.113-0.322-0.117-0.456-0.008-1.625 1.319-4.359 3.299-5.844 4.362-0.083 0.059-0.136 0.151-0.146 0.252s0.024 0.202 0.093 0.277c0.268 0.289 0.646 0.455 1.036 0.455h14.167c0.39 0 0.767-0.166 1.036-0.454 0.069-0.074 0.103-0.175 0.093-0.276s-0.064-0.193-0.146-0.253z"></path>
</symbol>
<symbol id="icon-phone" viewBox="0 0 17 17">
<path d="M15.636 11.159c-1.041 0-2.063-0.163-3.031-0.483-0.475-0.162-1.058-0.013-1.348 0.284l-1.911 1.443c-2.217-1.183-3.582-2.548-4.749-4.748l1.401-1.862c0.364-0.363 0.494-0.894 0.338-1.392-0.321-0.974-0.485-1.995-0.485-3.036 0-0.752-0.612-1.364-1.364-1.364h-3.122c-0.752 0-1.364 0.612-1.364 1.364 0 8.622 7.014 15.636 15.636 15.636 0.752 0 1.364-0.612 1.364-1.364v-3.113c0-0.752-0.612-1.364-1.364-1.364z"></path>
</symbol>
<symbol id="icon-placeholder" viewBox="0 0 17 17">
<path d="M12.71 1.744c-1.125-1.124-2.62-1.744-4.21-1.744s-3.085 0.619-4.21 1.744c-2.081 2.081-2.34 5.996-0.56 8.368l4.77 6.889 4.763-6.879c1.787-2.382 1.528-6.296-0.553-8.377zM8.555 8.072c-1.198 0-2.173-0.975-2.173-2.173s0.975-2.173 2.173-2.173c1.198 0 2.173 0.975 2.173 2.173s-0.975 2.173-2.173 2.173z"></path>
</symbol>
<symbol id="icon-clock" viewBox="0 0 17 17">
<path d="M8.5 0c-4.687 0-8.5 3.813-8.5 8.5s3.813 8.5 8.5 8.5c4.687 0 8.5-3.813 8.5-8.5s-3.813-8.5-8.5-8.5zM12.542 12.897c-0.138 0.138-0.319 0.208-0.501 0.208s-0.363-0.070-0.501-0.208l-3.542-3.542c-0.133-0.132-0.208-0.312-0.208-0.501v-4.604c0-0.392 0.317-0.708 0.708-0.708s0.708 0.317 0.708 0.708v4.311l3.334 3.334c0.277 0.277 0.277 0.725 0 1.002z"></path>
</symbol>
<symbol id="icon-quote" viewBox="0 0 17 17">
<path d="M0 8.5v7.286h7.286v-7.286h-4.857c0-2.678 2.179-4.857 4.857-4.857v-2.429c-4.018 0-7.286 3.268-7.286 7.286z"></path>
<path d="M17 3.643v-2.429c-4.018 0-7.286 3.268-7.286 7.286v7.286h7.286v-7.286h-4.857c0-2.678 2.179-4.857 4.857-4.857z"></path>
</symbol>
<symbol id="icon-genplan" viewBox="0 0 17 17">
<path d="M15.55 11.919c-0.241-0.133-0.544-0.044-0.676 0.197s-0.044 0.544 0.197 0.676c0.593 0.326 0.934 0.687 0.934 0.991 0 0.372-0.527 0.948-2.006 1.451-1.461 0.496-3.414 0.77-5.498 0.77s-4.037-0.273-5.498-0.77c-1.479-0.502-2.006-1.079-2.006-1.451 0-0.304 0.34-0.665 0.934-0.991 0.241-0.132 0.329-0.435 0.197-0.676s-0.435-0.329-0.676-0.197c-0.661 0.363-1.45 0.982-1.45 1.864 0 0.677 0.465 1.641 2.682 2.394 1.562 0.531 3.628 0.823 5.818 0.823s4.257-0.292 5.818-0.823c2.216-0.753 2.682-1.717 2.682-2.394 0-0.882-0.789-1.501-1.45-1.864z"></path>
<path d="M4.74 14.514c1.011 0.286 2.346 0.443 3.76 0.443s2.749-0.157 3.76-0.443c1.237-0.349 1.864-0.855 1.864-1.503s-0.627-1.154-1.864-1.503c-0.275-0.078-0.573-0.146-0.891-0.204-0.172 0.298-0.353 0.605-0.542 0.92 0.351 0.053 0.681 0.117 0.981 0.194 0.91 0.232 1.243 0.493 1.311 0.593-0.068 0.1-0.401 0.361-1.311 0.593-0.862 0.219-1.97 0.345-3.138 0.356-0.057 0.004-0.114 0.007-0.171 0.007s-0.114-0.002-0.171-0.007c-1.168-0.011-2.276-0.136-3.138-0.356-0.91-0.232-1.243-0.493-1.311-0.593 0.068-0.1 0.401-0.361 1.311-0.593 0.3-0.076 0.63-0.141 0.981-0.194-0.189-0.315-0.37-0.622-0.542-0.92-0.317 0.058-0.616 0.126-0.891 0.204-1.237 0.349-1.864 0.855-1.864 1.503s0.627 1.154 1.864 1.503z"></path>
<path d="M8.5 12.97c0.443 0 0.846-0.226 1.077-0.604 1.621-2.651 3.552-6.146 3.552-7.736 0-2.553-2.077-4.63-4.63-4.63s-4.63 2.077-4.63 4.63c0 1.59 1.932 5.085 3.552 7.736 0.231 0.378 0.634 0.604 1.077 0.604zM6.639 4.312c0-1.026 0.835-1.861 1.861-1.861s1.861 0.835 1.861 1.861c0 1.026-0.835 1.861-1.861 1.861s-1.861-0.835-1.861-1.861z"></path>
</symbol>
<symbol id="icon-3d" viewBox="0 0 26 17">
<path d="M5.136 0.77c1.005 0 1.865 0.168 2.579 0.503 0.729 0.321 1.275 0.765 1.639 1.333 0.379 0.568 0.568 1.202 0.568 1.902 0 0.889-0.255 1.632-0.765 2.229-0.51 0.583-1.217 0.998-2.12 1.246 0.991 0.102 1.8 0.459 2.426 1.071s0.94 1.464 0.94 2.557c0 0.845-0.219 1.61-0.656 2.295-0.423 0.685-1.049 1.231-1.88 1.639-0.831 0.393-1.814 0.59-2.951 0.59-2.084 0-3.716-0.729-4.896-2.186l1.683-1.617c0.495 0.495 0.984 0.852 1.464 1.071s1.005 0.328 1.574 0.328c0.758 0 1.355-0.204 1.792-0.612 0.452-0.408 0.678-0.976 0.678-1.705 0-0.787-0.211-1.355-0.634-1.705s-1.056-0.525-1.902-0.525h-1.202l0.372-2.186h0.809c0.685 0 1.231-0.182 1.639-0.546s0.612-0.874 0.612-1.53c0-0.568-0.189-1.013-0.568-1.333-0.364-0.321-0.867-0.481-1.508-0.481-0.554 0-1.064 0.102-1.53 0.306s-0.925 0.525-1.377 0.962l-1.552-1.683c1.355-1.282 2.943-1.923 4.765-1.923zM16.8 0.661c2.361 0 4.248 0.539 5.661 1.617 1.428 1.064 2.142 3.024 2.142 5.88 0 2.798-0.699 4.772-2.098 5.923-1.384 1.137-3.162 1.705-5.333 1.705h-4.328v-15.125h3.956zM16.057 3.021v10.404h1.311c1.239 0 2.193-0.379 2.863-1.137 0.685-0.772 1.027-2.149 1.027-4.131 0-1.37-0.175-2.433-0.525-3.191-0.335-0.758-0.787-1.268-1.355-1.53-0.568-0.277-1.26-0.415-2.076-0.415h-1.246z"></path>
</symbol>
<symbol id="icon-cube" viewBox="0 0 17 17">
<path d="M8.5 8.065l6.986-4.032-6.986-4.034-6.986 4.034 6.986 4.032z"></path>
<path d="M8 8.931l-6.986-4.032v8.067l6.986 4.034v-8.069z"></path>
<path d="M9 8.931v8.069l6.986-4.034v-8.067l-6.986 4.032z"></path>
</symbol>
<symbol id="icon-earnings" viewBox="0 0 17 17">
<path d="M2.523 8.965c0.127 0 0.255-0.049 0.352-0.146l3.632-3.632 1.64 1.64c0.195 0.195 0.51 0.195 0.704 0l5.126-5.126v0.79c0 0.275 0.223 0.498 0.498 0.498s0.498-0.223 0.498-0.498v-1.992c0-0.016-0.001-0.033-0.002-0.049-0.001-0.008-0.002-0.016-0.004-0.024s-0.002-0.016-0.004-0.024c-0.002-0.010-0.005-0.019-0.007-0.029-0.002-0.006-0.003-0.012-0.005-0.018-0.003-0.010-0.007-0.020-0.010-0.029-0.002-0.005-0.004-0.011-0.006-0.016-0.004-0.010-0.009-0.020-0.014-0.029-0.002-0.005-0.005-0.010-0.007-0.015-0.006-0.011-0.012-0.021-0.018-0.031-0.002-0.004-0.004-0.007-0.006-0.011-0.009-0.013-0.018-0.026-0.029-0.039-0-0-0-0-0-0-0.022-0.026-0.046-0.050-0.072-0.072-0-0-0-0-0-0-0.012-0.010-0.025-0.020-0.039-0.029-0.003-0.002-0.007-0.004-0.011-0.006-0.010-0.006-0.020-0.013-0.031-0.018-0.005-0.003-0.010-0.005-0.015-0.007-0.010-0.005-0.019-0.009-0.029-0.014-0.005-0.002-0.011-0.004-0.016-0.006-0.010-0.004-0.019-0.007-0.029-0.010-0.006-0.002-0.012-0.003-0.018-0.005-0.009-0.002-0.019-0.005-0.029-0.007-0.008-0.002-0.016-0.002-0.024-0.004s-0.016-0.003-0.024-0.004-0.033-0.002-0.049-0.002h-1.992c-0.275 0-0.498 0.223-0.498 0.498s0.223 0.498 0.498 0.498h0.79l-4.774 4.774-1.64-1.64c-0.195-0.195-0.51-0.195-0.704 0l-3.984 3.984c-0.195 0.195-0.195 0.51 0 0.704 0.097 0.097 0.225 0.146 0.352 0.146z"></path>
<path d="M0 16.502c0 0.275 0.223 0.498 0.498 0.498h3.984c0.275 0 0.498-0.223 0.498-0.498v-0.697h-4.98v0.697z"></path>
<path d="M4.482 13.613h-3.984c-0.275 0-0.498 0.223-0.498 0.498v0.697h4.98v-0.697c0-0.275-0.223-0.498-0.498-0.498z"></path>
<path d="M6.010 16.502c0 0.275 0.223 0.498 0.498 0.498h3.984c0.275 0 0.498-0.223 0.498-0.498v-0.697h-4.98v0.697z"></path>
<path d="M12.020 13.613h4.98v1.195h-4.98v-1.195z"></path>
<path d="M16.502 7.039h-3.984c-0.275 0-0.498 0.223-0.498 0.498v0.697h4.98v-0.697c0-0.275-0.223-0.498-0.498-0.498z"></path>
<path d="M12.020 9.23h4.98v1.195h-4.98v-1.195z"></path>
<path d="M12.020 11.422h4.98v1.195h-4.98v-1.195z"></path>
<path d="M12.020 16.502c0 0.275 0.223 0.498 0.498 0.498h3.984c0.275 0 0.498-0.223 0.498-0.498v-0.697h-4.98v0.697z"></path>
<path d="M6.010 13.613h4.98v1.195h-4.98v-1.195z"></path>
<path d="M10.492 11.422h-3.984c-0.275 0-0.498 0.223-0.498 0.498v0.697h4.98v-0.697c0-0.275-0.223-0.498-0.498-0.498z"></path>
</symbol>
<symbol id="icon-plug" viewBox="0 0 17 17">
<path d="M6.475 2.025h-0.996v-1.527c0-0.275-0.223-0.498-0.498-0.498s-0.498 0.223-0.498 0.498v1.527h-1.992v-1.527c0-0.275-0.223-0.498-0.498-0.498s-0.498 0.223-0.498 0.498v1.527h-0.996c-0.275 0-0.498 0.223-0.498 0.498v1.494h6.973v-1.494c0-0.275-0.223-0.498-0.498-0.498z"></path>
<path d="M13.016 9.762v1.727c0 1.144-0.445 2.179-1.154 2.972 0.093-0.313 0.158-0.638 0.158-0.98 0-1.922-1.597-3.486-3.52-3.486s-3.52 1.564-3.52 3.486c0 0.343 0.065 0.667 0.158 0.98-0.709-0.793-1.154-1.828-1.154-2.972v-2.541c1.685-0.244 2.988-1.684 2.988-3.436v-0.498h-6.973v0.498c0 1.752 1.303 3.192 2.988 3.436v2.541c0 3.018 2.494 5.512 5.512 5.512s5.512-2.494 5.512-5.512v-1.727h-0.996zM8.5 16.004c-1.373 0-2.523-1.15-2.523-2.523s1.15-2.49 2.523-2.49 2.523 1.117 2.523 2.49c0 1.373-1.15 2.523-2.523 2.523z"></path>
<path d="M14.012 0.287v5.018l2.204-2.204c-0.749-1.294-1.81-2.426-2.204-2.814z"></path>
<path d="M10.812 3.102l2.204 2.204v-5.018c-0.394 0.388-1.455 1.52-2.204 2.814z"></path>
<path d="M10.347 4.046c-0.195 0.49-0.32 0.987-0.32 1.466 0 2.088 2.238 3.755 2.988 4.256v-3.054l-2.668-2.668z"></path>
<path d="M16.68 4.046l-2.668 2.668v3.054c0.751-0.501 2.988-2.168 2.988-4.256 0-0.479-0.125-0.976-0.32-1.466z"></path>
</symbol>
<symbol id="icon-podcast" viewBox="0 0 17 17">
<path d="M12.518 10.99c1.373 0 2.49-1.117 2.49-2.49v-3.984c0-1.373-1.117-2.49-2.49-2.49s-2.49 1.117-2.49 2.49v3.984c0 1.373 1.117 2.49 2.49 2.49z"></path>
<path d="M16.502 6.009c-0.275 0-0.498 0.223-0.498 0.498v1.992c0 1.922-1.564 3.486-3.486 3.486s-3.486-1.564-3.486-3.486v-1.992c0-0.275-0.223-0.498-0.498-0.498s-0.498 0.223-0.498 0.498v1.992c0 2.303 1.746 4.206 3.984 4.455v2.020h-1.494c-0.275 0-0.498 0.223-0.498 0.498s0.223 0.498 0.498 0.498h3.984c0.275 0 0.498-0.223 0.498-0.498s-0.223-0.498-0.498-0.498h-1.494v-2.020c2.238-0.249 3.984-2.151 3.984-4.455v-1.992c0-0.275-0.223-0.498-0.498-0.498z"></path>
<path d="M9.031 4.515c0-0.275-0.223-0.498-0.498-0.498h-0.721l-0.858-1.717c-0.192-0.383-0.749-0.361-0.908 0.038l-1.487 3.718-1.562-4.687c-0.151-0.452-0.794-0.453-0.945 0l-0.883 2.648h-0.67c-0.275 0-0.498 0.223-0.498 0.498s0.223 0.498 0.498 0.498h1.029c0.214 0 0.405-0.137 0.472-0.341l0.524-1.571 1.52 4.559c0.066 0.198 0.249 0.334 0.458 0.34 0.206 0.006 0.398-0.116 0.477-0.313l1.58-3.951 0.5 1c0.084 0.169 0.257 0.275 0.445 0.275h1.029c0.275 0 0.498-0.223 0.498-0.498z"></path>
</symbol>
<symbol id="icon-contacts" viewBox="0 0 17 17">
<path d="M14.167 0h-10.625c-0.781 0-1.417 0.635-1.417 1.417v1.417h-0.354c-0.196 0-0.354 0.158-0.354 0.354s0.158 0.354 0.354 0.354h1.417c0.195 0 0.354 0.159 0.354 0.354s-0.159 0.354-0.354 0.354h-0.708c-0.196-0-0.354 0.158-0.354 0.354v1.771h-0.354c-0.196 0-0.354 0.158-0.354 0.354s0.158 0.354 0.354 0.354h1.417c0.195 0 0.354 0.159 0.354 0.354s-0.159 0.354-0.354 0.354h-0.708c-0.196 0-0.354 0.158-0.354 0.354v1.771h-0.354c-0.196 0-0.354 0.158-0.354 0.354s0.158 0.354 0.354 0.354h1.417c0.195 0 0.354 0.159 0.354 0.354s-0.159 0.354-0.354 0.354h-0.708c-0.196-0-0.354 0.158-0.354 0.354v1.771h-0.354c-0.196 0-0.354 0.158-0.354 0.354s0.158 0.354 0.354 0.354h1.417c0.195 0 0.354 0.159 0.354 0.354s-0.159 0.354-0.354 0.354h-0.708c-0.196-0-0.354 0.158-0.354 0.354v0.354c0 0.781 0.636 1.417 1.417 1.417h10.625c0.781 0 1.417-0.635 1.417-1.417v-14.167c-0-0.781-0.636-1.417-1.417-1.417zM13.458 11.254c0 0.434-0.353 0.787-0.787 0.787-4.253 0-7.713-3.46-7.713-7.713 0-0.434 0.353-0.787 0.787-0.787h1.515c0.434 0 0.787 0.353 0.787 0.787 0 0.492 0.077 0.974 0.228 1.435 0.091 0.287 0.016 0.593-0.194 0.802l-0.62 0.826c0.533 0.98 1.159 1.605 2.146 2.145l0.863-0.652c0.174-0.178 0.489-0.253 0.771-0.156 0.455 0.15 0.938 0.227 1.43 0.227 0.434 0 0.787 0.353 0.787 0.787v1.51h0z"></path>
</symbol>
<symbol id="icon-city" viewBox="0 0 17 17">
<path d="M16.502 16.004h-0.498v-13.514c0-0.237-0.168-0.442-0.4-0.488l-9.994-1.992c-0.146-0.028-0.298 0.009-0.413 0.103s-0.182 0.236-0.182 0.385v6.508h1.494c0.824 0 1.494 0.67 1.494 1.494v8.5h2.988v-2.076c-1.135-0.231-1.992-1.237-1.992-2.44 0-1.197 0.97-3.486 2.49-3.486s2.49 2.289 2.49 3.486c0 1.202-0.857 2.208-1.992 2.44v2.076h4.516c0.275 0 0.498-0.223 0.498-0.498s-0.223-0.498-0.498-0.498zM9.496 6.010h-1.992c-0.275 0-0.498-0.223-0.498-0.498s0.223-0.498 0.498-0.498h1.992c0.275 0 0.498 0.223 0.498 0.498s-0.223 0.498-0.498 0.498zM9.496 4.017h-1.992c-0.275 0-0.498-0.223-0.498-0.498s0.223-0.498 0.498-0.498h1.992c0.275 0 0.498 0.223 0.498 0.498s-0.223 0.498-0.498 0.498zM13.48 8.002h-1.992c-0.275 0-0.498-0.223-0.498-0.498s0.223-0.498 0.498-0.498h1.992c0.275 0 0.498 0.223 0.498 0.498s-0.223 0.498-0.498 0.498zM13.48 6.010h-1.992c-0.275 0-0.498-0.223-0.498-0.498s0.223-0.498 0.498-0.498h1.992c0.275 0 0.498 0.223 0.498 0.498s-0.223 0.498-0.498 0.498z"></path>
<path d="M12.982 12.484c0-0.983-0.802-2.49-1.494-2.49s-1.494 1.507-1.494 2.49c0 0.824 0.67 1.494 1.494 1.494s1.494-0.67 1.494-1.494z"></path>
<path d="M6.508 8.002h-3.52v-3.486c0-0.275-0.223-0.498-0.498-0.498s-0.498 0.223-0.498 0.498v3.486h-0.498c-0.275 0-0.498 0.223-0.498 0.498v7.504h-0.498c-0.275 0-0.498 0.223-0.498 0.498s0.223 0.498 0.498 0.498h6.508v-8.5c0-0.275-0.223-0.498-0.498-0.498zM5.014 14.974h-2.025c-0.275 0-0.498-0.223-0.498-0.498s0.223-0.498 0.498-0.498h2.025c0.275 0 0.498 0.223 0.498 0.498s-0.223 0.498-0.498 0.498zM5.014 12.982h-2.025c-0.275 0-0.498-0.223-0.498-0.498s0.223-0.498 0.498-0.498h2.025c0.275 0 0.498 0.223 0.498 0.498s-0.223 0.498-0.498 0.498zM5.014 10.99h-2.025c-0.275 0-0.498-0.223-0.498-0.498s0.223-0.498 0.498-0.498h2.025c0.275 0 0.498 0.223 0.498 0.498s-0.223 0.498-0.498 0.498z"></path>
</symbol>
<symbol id="icon-documents" viewBox="0 0 17 17">
<path d="M12.488 0h-9.961c-0.824 0-1.494 0.67-1.494 1.494v12.020c0 0.648 0.418 1.196 0.996 1.402v-10.021c0-0.665 0.259-1.29 0.73-1.761l1.409-1.409c0.47-0.47 1.096-0.73 1.761-0.73h7.963c-0.206-0.578-0.754-0.996-1.402-0.996z"></path>
<path d="M14.48 1.999c-4.4 0-3.12 0-7.471 0v3.48c0 0.275-0.223 0.505-0.498 0.505h-3.486v9.523c0 0.824 0.67 1.494 1.494 1.494h9.961c0.824 0 1.488-0.67 1.488-1.494v-12.020c0-0.824-0.664-1.488-1.488-1.488zM13.484 14.012h-7.969c-0.275 0-0.498-0.223-0.498-0.498s0.223-0.498 0.498-0.498h7.969c0.275 0 0.498 0.223 0.498 0.498s-0.223 0.498-0.498 0.498zM13.484 12.019h-7.969c-0.275 0-0.498-0.223-0.498-0.498s0.223-0.498 0.498-0.498h7.969c0.275 0 0.498 0.223 0.498 0.498s-0.223 0.498-0.498 0.498zM13.484 10.027h-7.969c-0.275 0-0.498-0.223-0.498-0.498s0.223-0.498 0.498-0.498h7.969c0.275 0 0.498 0.223 0.498 0.498s-0.223 0.498-0.498 0.498zM13.484 8.035h-7.969c-0.275 0-0.498-0.223-0.498-0.498s0.223-0.498 0.498-0.498h7.969c0.275 0 0.498 0.223 0.498 0.498s-0.223 0.498-0.498 0.498z"></path>
<path d="M5.927 1.992c-0.399 0-0.774 0.156-1.056 0.438l-1.409 1.409c-0.332 0.332-0.438 0.703-0.438 1.142h2.988v-2.988h-0.086z"></path>
</symbol>
<symbol id="icon-download" viewBox="0 0 17 17">
<path d="M13.606 9.247l-5.106 5.106-5.106-5.106 0.939-0.939 3.503 3.503v-11.811h1.328v11.811l3.503-3.503 0.939 0.939zM17 15.672h-17v1.328h17v-1.328z"></path>
</symbol>
<symbol id="icon-pdf" viewBox="0 0 17 17">
<path d="M16.17 5.977h-1.162v-1.7l-4.276-4.276h-8.74v5.977h-1.162v8.5h1.162v2.523h13.016v-2.523h1.162v-8.5zM11.023 1.7l2.284 2.284h-2.284v-2.284zM2.988 0.996h7.039v3.984h3.984v0.996h-11.023v-4.98zM14.012 16.004h-11.023v-1.527h11.023v1.527zM15.174 13.48h-13.348v-6.508h13.348v6.508z"></path>
<path d="M4.25 11.057h0.481c0.833 0 1.511-0.678 1.511-1.511s-0.678-1.511-1.511-1.511h-1.478v4.516h0.996v-1.494zM4.25 9.031h0.481c0.284 0 0.515 0.231 0.515 0.515s-0.231 0.515-0.515 0.515h-0.481v-1.029z"></path>
<path d="M10.227 10.559v-0.531c0-1.099-0.894-1.992-1.992-1.992h-0.996v4.516h0.996c1.099 0 1.992-0.894 1.992-1.992zM8.234 9.031c0.549 0 0.996 0.447 0.996 0.996v0.531c0 0.549-0.447 0.996-0.996 0.996v-2.523z"></path>
<path d="M12.285 11.173h0.996v-0.996h-0.996v-1.146h1.494v-0.996h-2.49v4.516h0.996v-1.378z"></path>
</symbol>
<symbol id="icon-doc" viewBox="0 0 17 17">
<path d="M16.17 5.977h-1.162v-1.7l-4.276-4.276h-8.74v5.977h-1.162v9.064h1.162v1.959h13.016v-1.959h1.162zM11.023 1.7l2.284 2.284h-2.284zM2.988 0.996h7.039v3.984h3.984v0.996h-11.023zM14.012 16.004h-11.023v-0.963h11.023zM15.174 14.045h-13.348v-7.072h13.348z"></path>
<path d="M6.010 11.521v-2.025c0-0.824-0.67-1.494-1.494-1.494h-1.494v5.014h1.494c0.824 0 1.494-0.67 1.494-1.494zM4.018 8.998h0.498c0.275 0 0.498 0.223 0.498 0.498v2.025c0 0.275-0.223 0.498-0.498 0.498h-0.498z"></path>
<path d="M8.5 13.016c0.824 0 1.494-0.67 1.494-1.494v-2.025c0-0.824-0.67-1.494-1.494-1.494s-1.494 0.67-1.494 1.494v2.025c0 0.824 0.67 1.494 1.494 1.494zM8.002 9.496c0-0.275 0.223-0.498 0.498-0.498s0.498 0.223 0.498 0.498v2.025c0 0.275-0.223 0.498-0.498 0.498s-0.498-0.223-0.498-0.498z"></path>
<path d="M12.982 13.016h0.498v-0.996h-0.498c-0.549 0-0.996-0.447-0.996-0.996v-1.029c0-0.549 0.447-0.996 0.996-0.996h0.498v-0.996h-0.498c-1.099 0-1.992 0.894-1.992 1.992v1.029c0 1.099 0.894 1.992 1.992 1.992z"></path>
</symbol>
<symbol id="icon-mountains" viewBox="0 0 17 17">
<path d="M10.041 9.023l-1.66 1.596c-0.112 0.108-0.268 0.157-0.421 0.133s-0.287-0.118-0.361-0.254l-1.164-2.139-3.765 2.579-2.617 5.345c-0.076 0.154-0.066 0.337 0.025 0.483s0.251 0.234 0.423 0.234h12.65c0.172 0 0.332-0.089 0.423-0.234s0.1-0.328 0.025-0.483l-3.555-7.26z"></path>
<path d="M6.724 7.152c0.137 0.033 0.254 0.122 0.321 0.246l1.116 2.050 1.42-1.364-2.31-4.717c-0.084-0.171-0.257-0.279-0.447-0.279s-0.364 0.108-0.447 0.279l-2.818 5.755 2.768-1.896c0.116-0.080 0.261-0.106 0.398-0.073z"></path>
<path d="M13.514 4.98c0.824 0 1.494-0.67 1.494-1.494s-0.67-1.494-1.494-1.494c-0.824 0-1.494 0.67-1.494 1.494s0.67 1.494 1.494 1.494z"></path>
<path d="M10.526 3.984h0.399c0.275 0 0.498-0.223 0.498-0.498s-0.223-0.498-0.498-0.498h-0.399c-0.275 0-0.498 0.223-0.498 0.498s0.223 0.498 0.498 0.498z"></path>
<path d="M13.514 1.395c0.275 0 0.498-0.223 0.498-0.498v-0.399c0-0.275-0.223-0.498-0.498-0.498s-0.498 0.223-0.498 0.498v0.399c0 0.275 0.223 0.498 0.498 0.498z"></path>
<path d="M15.605 3.486c0 0.275 0.223 0.498 0.498 0.498h0.399c0.275 0 0.498-0.223 0.498-0.498s-0.223-0.498-0.498-0.498h-0.399c-0.275 0-0.498 0.223-0.498 0.498z"></path>
<path d="M13.016 6.076v0.399c0 0.275 0.223 0.498 0.498 0.498s0.498-0.223 0.498-0.498v-0.399c0-0.275-0.223-0.498-0.498-0.498s-0.498 0.223-0.498 0.498z"></path>
<path d="M11.331 4.965l-0.282 0.282c-0.194 0.194-0.194 0.51 0 0.704 0.097 0.097 0.225 0.146 0.352 0.146s0.255-0.049 0.352-0.146l0.282-0.282c0.194-0.195 0.194-0.51-0-0.704s-0.51-0.194-0.704 0z"></path>
<path d="M11.331 2.007c0.097 0.097 0.225 0.146 0.352 0.146s0.255-0.049 0.352-0.146c0.195-0.194 0.195-0.51 0-0.704l-0.282-0.282c-0.194-0.194-0.51-0.194-0.704-0s-0.195 0.51-0 0.704l0.282 0.282z"></path>
<path d="M15.345 2.153c0.127 0 0.255-0.049 0.352-0.146l0.282-0.282c0.195-0.194 0.195-0.51 0-0.704s-0.51-0.194-0.704 0l-0.282 0.282c-0.194 0.194-0.194 0.51 0 0.704 0.097 0.097 0.225 0.146 0.352 0.146z"></path>
<path d="M15.697 4.965c-0.194-0.194-0.51-0.194-0.704 0s-0.194 0.51 0 0.704l0.282 0.282c0.097 0.097 0.225 0.146 0.352 0.146s0.255-0.049 0.352-0.146c0.195-0.194 0.195-0.51 0-0.704l-0.282-0.282z"></path>
<path d="M13.191 9.099c-0.086-0.164-0.256-0.267-0.441-0.267s-0.355 0.103-0.441 0.267l-0.579 1.108c0 0 3.112 6.32 3.293 6.793h1.48c0.174 0 0.336-0.091 0.426-0.24s0.096-0.334 0.015-0.489l-3.752-7.172z"></path>
</symbol>
<symbol id="icon-bus" viewBox="0 0 17 17">
<path d="M1.771 7.792v-2.125c0.196 0 0.354-0.159 0.354-0.354s-0.159-0.354-0.354-0.354c-0.977 0-1.771 0.795-1.771 1.771v0.708c0 0.586 0.477 1.063 1.063 1.063h0.708c0.196 0 0.354-0.159 0.354-0.354s-0.159-0.354-0.354-0.354z"></path>
<path d="M15.229 4.958c-0.195 0-0.354 0.159-0.354 0.354s0.159 0.354 0.354 0.354v2.125c-0.195 0-0.354 0.159-0.354 0.354s0.159 0.354 0.354 0.354h0.708c0.586 0 1.063-0.477 1.063-1.063v-0.708c0-0.976-0.794-1.771-1.771-1.771z"></path>
<path d="M6.021 14.875c-0.196 0-0.354 0.159-0.354 0.354h-2.125c0-0.195-0.159-0.354-0.354-0.354s-0.354 0.159-0.354 0.354v0.708c0 0.586 0.477 1.063 1.063 1.063h1.417c0.586 0 1.063-0.477 1.063-1.063v-0.708c0-0.195-0.159-0.354-0.354-0.354z"></path>
<path d="M13.813 14.875c-0.195 0-0.354 0.159-0.354 0.354h-2.125c0-0.195-0.159-0.354-0.354-0.354s-0.354 0.159-0.354 0.354v0.708c0 0.586 0.477 1.063 1.063 1.063h1.417c0.586 0 1.063-0.477 1.063-1.063v-0.708c0-0.195-0.159-0.354-0.354-0.354z"></path>
<path d="M13.813 0h-10.625c-0.977 0-1.771 0.795-1.771 1.771v12.042c0 0.976 0.794 1.771 1.771 1.771h10.625c0.977 0 1.771-0.795 1.771-1.771v-12.042c0-0.976-0.794-1.771-1.771-1.771zM4.604 1.417h7.792c0.586 0 1.063 0.477 1.063 1.062s-0.477 1.063-1.063 1.063h-7.792c-0.586 0-1.063-0.477-1.063-1.063s0.477-1.062 1.063-1.062zM4.604 13.458c-0.586 0-1.063-0.477-1.063-1.063s0.477-1.063 1.063-1.063c0.586 0 1.063 0.477 1.063 1.063s-0.477 1.063-1.063 1.063zM12.396 13.458c-0.586 0-1.063-0.477-1.063-1.063s0.477-1.063 1.063-1.063c0.586 0 1.063 0.477 1.063 1.063s-0.477 1.063-1.063 1.063zM14.167 8.854c0 0.586-0.477 1.063-1.063 1.063h-9.208c-0.586 0-1.063-0.477-1.063-1.063v-3.542c0-0.586 0.477-1.063 1.063-1.063h9.208c0.586 0 1.063 0.477 1.063 1.063v3.542h0z"></path>
</symbol>
<symbol id="icon-fuel" viewBox="0 0 17 17">
<path d="M15.48 2.229l-1.417-1.417c-0.138-0.138-0.362-0.138-0.501 0s-0.138 0.362 0 0.501l1.166 1.166-1.166 1.166c-0.066 0.066-0.104 0.156-0.104 0.25v1.062c0 0.781 0.635 1.417 1.417 1.417v6.021c0 0.195-0.159 0.354-0.354 0.354s-0.354-0.159-0.354-0.354v-0.708c0-0.586-0.477-1.063-1.063-1.063h-0.354v-9.208c0-0.781-0.635-1.417-1.417-1.417h-7.083c-0.781 0-1.417 0.635-1.417 1.417v12.75c-0.781 0-1.417 0.635-1.417 1.417v1.063c0 0.196 0.158 0.354 0.354 0.354h12.042c0.196 0 0.354-0.158 0.354-0.354v-1.063c0-0.781-0.635-1.417-1.417-1.417v-2.833h0.354c0.195 0 0.354 0.159 0.354 0.354v0.708c0 0.586 0.477 1.063 1.063 1.063s1.063-0.477 1.063-1.063v-9.917c-0-0.094-0.037-0.184-0.104-0.25zM11.333 6.027c0 0.196-0.158 0.354-0.354 0.354h-6.375c-0.196 0-0.354-0.158-0.354-0.354v-4.257c0-0.196 0.158-0.354 0.354-0.354h6.375c0.196 0 0.354 0.158 0.354 0.354v4.257z"></path>
</symbol>
<symbol id="icon-hospital" viewBox="0 0 17 17">
<path d="M12.484 1.096c-2.014 0-3.307 1.395-3.984 2.651-0.677-1.256-1.97-2.651-3.984-2.651-2.555 0-4.516 2.073-4.516 4.823 0 0.718 0.144 1.38 0.408 2.016h3.8l0.858-1.717c0.169-0.338 0.722-0.338 0.891 0l1.547 3.093 0.551-1.101c0.169-0.338 0.722-0.338 0.891 0l0.551 1.101 1.547-3.093c0.169-0.338 0.722-0.338 0.891 0l0.858 1.717h3.8c0.265-0.637 0.408-1.299 0.408-2.016 0-2.75-1.96-4.823-4.516-4.823z"></path>
<path d="M12.484 8.932c-0.189 0-0.361-0.106-0.445-0.275l-0.551-1.101-1.547 3.093c-0.085 0.169-0.257 0.275-0.446 0.275s-0.361-0.106-0.446-0.275l-0.551-1.101-0.551 1.101c-0.169 0.338-0.722 0.338-0.891 0l-1.547-3.093-0.551 1.101c-0.085 0.169-0.257 0.275-0.446 0.275h-3.585c1.025 1.613 2.871 3.145 5.18 5.094 0.648 0.547 1.338 1.129 2.062 1.757 0.094 0.081 0.21 0.122 0.326 0.122s0.232-0.040 0.326-0.122c0.724-0.628 1.414-1.21 2.062-1.757 2.309-1.949 4.155-3.481 5.181-5.094h-3.585z"></path>
</symbol>
<symbol id="icon-town" viewBox="0 0 17 17">
<path d="M11.132 6.366v8.642h4.268v-14.439c0-0.275-0.223-0.498-0.498-0.498h-6.402c-0.275 0-0.498 0.223-0.498 0.498v4.303h1.636c0.824 0 1.494 0.67 1.494 1.494zM12.27 2.703c0-0.275 0.223-0.498 0.498-0.498s0.498 0.223 0.498 0.498v0.533c0 0.275-0.223 0.498-0.498 0.498s-0.498-0.223-0.498-0.498v-0.533zM12.27 5.37c0-0.275 0.223-0.498 0.498-0.498s0.498 0.223 0.498 0.498v0.533c0 0.275-0.223 0.498-0.498 0.498s-0.498-0.223-0.498-0.498v-0.533zM12.27 8.037c0-0.275 0.223-0.498 0.498-0.498s0.498 0.223 0.498 0.498v0.533c0 0.275-0.223 0.498-0.498 0.498s-0.498-0.223-0.498-0.498v-0.533zM12.27 10.705c0-0.275 0.223-0.498 0.498-0.498s0.498 0.223 0.498 0.498v0.533c0 0.275-0.223 0.498-0.498 0.498s-0.498-0.223-0.498-0.498v-0.533zM10.136 2.703c0-0.275 0.223-0.498 0.498-0.498s0.498 0.223 0.498 0.498v0.533c0 0.275-0.223 0.498-0.498 0.498s-0.498-0.223-0.498-0.498v-0.533z"></path>
<path d="M1.565 4.73h3.734c0.863 0 1.565-0.702 1.565-1.565 0-0.873-0.708-1.565-1.565-1.565h-0.050c-0.114-0.901-0.886-1.6-1.817-1.6s-1.703 0.699-1.817 1.6h-0.050c-0.874 0-1.565 0.71-1.565 1.565 0 0.863 0.702 1.565 1.565 1.565z"></path>
<path d="M16.502 16.004h-16.004c-0.275 0-0.498 0.223-0.498 0.498s0.223 0.498 0.498 0.498h16.004c0.275 0 0.498-0.223 0.498-0.498s-0.223-0.498-0.498-0.498z"></path>
<path d="M10.136 15.008v-8.642c0-0.275-0.223-0.498-0.498-0.498h-7.539c-0.275 0-0.498 0.223-0.498 0.498v8.642h2.703v-1.671c0-0.275 0.223-0.498 0.498-0.498h2.134c0.275 0 0.498 0.223 0.498 0.498v1.671h2.703zM4.232 11.203c0 0.275-0.223 0.498-0.498 0.498s-0.498-0.223-0.498-0.498v-0.533c0-0.275 0.223-0.498 0.498-0.498s0.498 0.223 0.498 0.498v0.533zM4.232 8.535c0 0.275-0.223 0.498-0.498 0.498s-0.498-0.223-0.498-0.498v-0.533c0-0.275 0.223-0.498 0.498-0.498s0.498 0.223 0.498 0.498v0.533zM6.366 11.203c0 0.275-0.223 0.498-0.498 0.498s-0.498-0.223-0.498-0.498v-0.533c0-0.275 0.223-0.498 0.498-0.498s0.498 0.223 0.498 0.498v0.533zM6.366 8.535c0 0.275-0.223 0.498-0.498 0.498s-0.498-0.223-0.498-0.498v-0.533c0-0.275 0.223-0.498 0.498-0.498s0.498 0.223 0.498 0.498v0.533zM7.504 8.002c0-0.275 0.223-0.498 0.498-0.498s0.498 0.223 0.498 0.498v0.533c0 0.275-0.223 0.498-0.498 0.498s-0.498-0.223-0.498-0.498v-0.533zM7.504 10.669c0-0.275 0.223-0.498 0.498-0.498s0.498 0.223 0.498 0.498v0.533c0 0.275-0.223 0.498-0.498 0.498s-0.498-0.223-0.498-0.498v-0.533z"></path>
<path d="M5.299 13.835h1.138v1.173h-1.138v-1.173z"></path>
</symbol>
<symbol id="icon-cart" viewBox="0 0 17 17">
<path d="M16.893 2.472c-0.093-0.116-0.234-0.184-0.383-0.184h-13.051l-0.365-1.581c-0.051-0.222-0.249-0.38-0.478-0.38h-2.125c-0.271 0-0.49 0.22-0.49 0.49s0.22 0.49 0.49 0.49h1.735l2.477 10.735c0.051 0.222 0.249 0.38 0.478 0.38h9.825c0.271 0 0.49-0.22 0.49-0.49s-0.22-0.49-0.49-0.49h-9.435l-0.377-1.635h9.845c0.229 0 0.428-0.159 0.478-0.383l1.471-6.538c0.033-0.145-0.002-0.298-0.095-0.414z"></path>
<path d="M7.192 13.077c-0.991 0-1.798 0.807-1.798 1.798s0.807 1.798 1.798 1.798c0.991 0 1.798-0.807 1.798-1.798s-0.807-1.798-1.798-1.798z"></path>
<path d="M13.077 13.077c-0.991 0-1.798 0.807-1.798 1.798s0.807 1.798 1.798 1.798c0.991 0 1.798-0.807 1.798-1.798s-0.807-1.798-1.798-1.798z"></path>
</symbol>
<symbol id="icon-coffee" viewBox="0 0 17 17">
<path d="M13.995 8.666h-0.531v-0.166c0-0.275-0.223-0.498-0.498-0.498h-11.289c-0.275 0-0.498 0.223-0.498 0.498v3.32c0 1.753 1.301 3.208 2.988 3.451v1.231c0 0.275 0.223 0.498 0.498 0.498h5.313c0.275 0 0.498-0.223 0.498-0.498v-1.231c1.525-0.219 2.734-1.428 2.953-2.953h0.567c1.007 0 1.826-0.819 1.826-1.826s-0.819-1.826-1.826-1.826zM13.995 11.322h-0.531v-1.66h0.531c0.458 0 0.83 0.372 0.83 0.83s-0.372 0.83-0.83 0.83z"></path>
<path d="M6.641 0.113c-0.212-0.175-0.526-0.144-0.701 0.068s-0.144 0.526 0.069 0.701c0.307 0.252 0.482 0.626 0.482 1.026s-0.176 0.774-0.482 1.026c-0.538 0.442-0.846 1.096-0.846 1.796 0 0.443 0.124 0.873 0.359 1.244 0.146 0.232 0.454 0.302 0.687 0.155s0.302-0.455 0.155-0.687c-0.134-0.212-0.205-0.458-0.205-0.712 0-0.4 0.176-0.774 0.482-1.026 0.538-0.442 0.846-1.096 0.846-1.796s-0.308-1.354-0.846-1.796z"></path>
<path d="M9.366 3.004c-0.175-0.213-0.488-0.243-0.701-0.068-0.538 0.442-0.846 1.096-0.846 1.796 0 0.443 0.124 0.873 0.359 1.245 0.146 0.232 0.454 0.302 0.687 0.155s0.302-0.455 0.155-0.687c-0.134-0.212-0.205-0.458-0.205-0.712 0-0.4 0.176-0.774 0.482-1.026 0.213-0.175 0.243-0.489 0.068-0.701z"></path>
</symbol>
<symbol id="icon-basket" viewBox="0 0 17 17">
<path d="M16.502 6.010h-1.753l-3.835-4.794c-0.172-0.215-0.485-0.25-0.7-0.078s-0.25 0.485-0.078 0.7l3.337 4.171h-9.947l3.337-4.171c0.172-0.215 0.137-0.528-0.078-0.7s-0.528-0.137-0.7 0.078l-3.835 4.794h-1.753c-0.275 0-0.498 0.223-0.498 0.498v0.996c0 0.275 0.223 0.498 0.498 0.498h16.004c0.275 0 0.498-0.223 0.498-0.498v-0.996c0-0.275-0.223-0.498-0.498-0.498z"></path>
<path d="M3.007 15.609c0.061 0.214 0.257 0.361 0.479 0.361h10.027c0.222 0 0.418-0.147 0.479-0.361l1.889-6.611h-14.763l1.889 6.611zM10.781 13.399l0.498-2.988c0.045-0.271 0.302-0.455 0.573-0.409s0.455 0.302 0.409 0.573l-0.498 2.988c-0.041 0.244-0.252 0.416-0.491 0.416-0.027 0-0.055-0.002-0.082-0.007-0.271-0.045-0.455-0.302-0.409-0.573zM8.002 10.492c0-0.275 0.223-0.498 0.498-0.498s0.498 0.223 0.498 0.498v2.988c0 0.275-0.223 0.498-0.498 0.498s-0.498-0.223-0.498-0.498v-2.988zM5.181 10.001c0.271-0.045 0.528 0.138 0.573 0.409l0.498 2.988c0.045 0.271-0.138 0.528-0.409 0.573-0.028 0.005-0.055 0.007-0.082 0.007-0.239 0-0.45-0.173-0.491-0.416l-0.498-2.988c-0.045-0.271 0.138-0.528 0.409-0.573z"></path>
</symbol>
<symbol id="icon-university-head" viewBox="0 0 17 17">
<path d="M0.651 4.782l0.906 0.533c0.22-0.186 0.489-0.304 0.775-0.34l6.403-0.787c0.163-0.020 0.312 0.096 0.332 0.259s-0.096 0.312-0.26 0.332l-6.403 0.787c-0.096 0.013-0.19 0.041-0.277 0.084l6.641 3.914 8.117-4.783-8.117-4.782-8.117 4.782z"></path>
<path d="M8.617 10.168l-5.808-3.422v3.102c0 0.82 0.709 1.618 1.946 2.188 1.267 0.543 2.635 0.813 4.014 0.792 1.379 0.021 2.747-0.248 4.014-0.792 1.237-0.57 1.946-1.368 1.946-2.188v-3.102l-5.808 3.422c-0.093 0.055-0.209 0.055-0.303 0z"></path>
<path d="M1.914 16.404l-0.596-3.278-1.192 3.874 1.788-0.596z"></path>
<path d="M2.212 12.232c-0.001-0.378-0.239-0.714-0.596-0.839v-4.939c0.001-0.125 0.028-0.249 0.080-0.363 0.086-0.192 0.237-0.348 0.426-0.44l-0.568-0.336c-0.154 0.131-0.281 0.292-0.371 0.473-0.106 0.206-0.162 0.434-0.164 0.666v4.939c-0.427 0.152-0.673 0.601-0.57 1.043s0.521 0.736 0.972 0.684c0.451-0.052 0.791-0.434 0.79-0.888z"></path>
</symbol>
<symbol id="icon-family" viewBox="0 0 17 17">
<path d="M3.801 3.553c0.671 0 1.214-0.544 1.214-1.214s-0.544-1.214-1.214-1.214c-0.671 0-1.214 0.544-1.214 1.214s0.544 1.214 1.214 1.214z"></path>
<path d="M6.178 5.131c-0.272-0.791-0.728-1.192-1.355-1.192-0.399 0-1.597 0-2.046 0-0.627 0-1.083 0.401-1.355 1.192-0.421 1.226-1.378 3.843-1.387 3.869-0.111 0.304 0.045 0.64 0.349 0.751s0.64-0.045 0.751-0.349c0.007-0.020 0.567-1.551 1.021-2.826l-0.681 3.959c-0.039 0.202 0.116 0.388 0.32 0.388 0.126 0 0.278 0 0.447 0v4.249c0 0.388 0.315 0.703 0.703 0.703s0.703-0.315 0.703-0.703v-4.249c0.101 0 0.202 0 0.304 0v4.249c0 0.388 0.315 0.703 0.703 0.703s0.703-0.315 0.703-0.703v-4.249c0.169 0 0.485-0.002 0.504-0.006v-1.908l-0.407-2.366c0.095 0.279 0.2 0.59 0.316 0.934 0.036 0.105 0.1 0.196 0.182 0.264 0.144-0.401 0.45-0.726 0.838-0.899-0.255-0.755-0.481-1.427-0.613-1.811z"></path>
<path d="M14.268 4.439c0.615 0 1.114-0.499 1.114-1.114s-0.499-1.114-1.114-1.114c-0.615 0-1.114 0.499-1.114 1.114s0.499 1.114 1.114 1.114z"></path>
<path d="M15.718 4.925h-2.901c-0.703 0-1.278 0.568-1.282 1.266v3.42l-0.785-0.188v-1.119c-0.003-0.546-0.451-0.989-1-0.989h-2.322c-0.548 0-0.997 0.443-1 0.987v3.081c0 0.238 0.199 0.43 0.439 0.419 0.225-0.011 0.399-0.205 0.399-0.43 0-0.015-0-3.071 0.001-3.086 0.009-0.134 0.203-0.123 0.203 0.011v7.055c0 0.275 0.22 0.498 0.493 0.503 0.282 0.005 0.513-0.234 0.513-0.516v-4.007h0.217v4.020c0 0.275 0.22 0.498 0.493 0.503 0.282 0.005 0.513-0.234 0.513-0.516l0-7.034c0-0.135 0.212-0.15 0.212 0.002v1.448c0 0.194 0.133 0.362 0.322 0.408l1.445 0.346c0.098 0.106 0.238 0.172 0.394 0.172 0.296 0 0.537-0.241 0.537-0.537 0-0.007-0-3.947 0-3.955 0.007-0.151 0.234-0.145 0.233 0.007l-0.011 9.037c0 0.364 0.302 0.658 0.668 0.645 0.349-0.012 0.621-0.31 0.621-0.66v-5.14h0.278v5.14c0 0.35 0.272 0.648 0.621 0.66 0.367 0.013 0.668-0.28 0.668-0.645l0-9.047c0-0.147 0.232-0.17 0.234 0.012v3.946c0 0.303 0.251 0.548 0.557 0.537 0.291-0.010 0.518-0.259 0.518-0.55v-3.936c-0.004-0.701-0.579-1.268-1.282-1.268z"></path>
<path d="M8.59 6.988c0.591 0 1.070-0.479 1.070-1.070s-0.479-1.070-1.070-1.070c-0.591 0-1.070 0.479-1.070 1.070s0.479 1.070 1.070 1.070z"></path>
</symbol>
<symbol id="icon-school" viewBox="0 0 17 17">
<path d="M13.152 8.204h3.748l-0.657-3.152c-0.048-0.231-0.252-0.396-0.488-0.396h-5.769l3.165 3.548z"></path>
<path d="M7.004 4.656h-5.759c-0.236 0-0.44 0.166-0.488 0.397l-0.657 3.152h3.712l3.192-3.548z"></path>
<path d="M8.5 7.469c-0.275 0-0.498 0.223-0.498 0.498s0.223 0.498 0.498 0.498 0.498-0.223 0.498-0.498c0-0.275-0.223-0.498-0.498-0.498z"></path>
<path d="M7.983 14.244h0.996v2.755h-0.996v-2.755z"></path>
<path d="M12.929 9.2c-0.142 0-0.277-0.061-0.372-0.167l-3.559-3.99v-2.553h2.264c0.258 0 0.417-0.281 0.285-0.502l-0.444-0.743 0.444-0.743c0.132-0.221-0.027-0.502-0.285-0.502h-2.757c-0.002-0-0.004-0-0.006-0-0.275 0-0.498 0.223-0.498 0.498v4.537l-3.598 4c-0.095 0.105-0.229 0.165-0.37 0.165h-4.034v7.302c0 0.275 0.223 0.498 0.498 0.498h6.489v-3.254c0-0.275 0.223-0.498 0.498-0.498h1.992c0.275 0 0.498 0.223 0.498 0.498v3.254h6.527c0.275 0 0.498-0.223 0.498-0.498v-7.302h-4.071zM3.036 14.41c0 0.275-0.223 0.498-0.498 0.498s-0.498-0.223-0.498-0.498v-0.664c0-0.275 0.223-0.498 0.498-0.498s0.498 0.223 0.498 0.498v0.664zM3.036 11.754c0 0.275-0.223 0.498-0.498 0.498s-0.498-0.223-0.498-0.498v-0.664c0-0.275 0.223-0.498 0.498-0.498s0.498 0.223 0.498 0.498v0.664zM5.028 14.41c0 0.275-0.223 0.498-0.498 0.498s-0.498-0.223-0.498-0.498v-0.664c0-0.275 0.223-0.498 0.498-0.498s0.498 0.223 0.498 0.498v0.664zM5.028 11.754c0 0.275-0.223 0.498-0.498 0.498s-0.498-0.223-0.498-0.498v-0.664c0-0.275 0.223-0.498 0.498-0.498s0.498 0.223 0.498 0.498v0.664zM7.977 11.754c0 0.275-0.223 0.498-0.498 0.498s-0.498-0.223-0.498-0.498v-0.664c0-0.275 0.223-0.498 0.498-0.498s0.498 0.223 0.498 0.498v0.664zM7.006 7.967c0-0.824 0.67-1.494 1.494-1.494s1.494 0.67 1.494 1.494c0 0.824-0.67 1.494-1.494 1.494s-1.494-0.67-1.494-1.494zM10.019 11.754c0 0.275-0.223 0.498-0.498 0.498s-0.498-0.223-0.498-0.498v-0.664c0-0.275 0.223-0.498 0.498-0.498s0.498 0.223 0.498 0.498v0.664zM12.844 14.41c0 0.275-0.223 0.498-0.498 0.498s-0.498-0.223-0.498-0.498v-0.664c0-0.275 0.223-0.498 0.498-0.498s0.498 0.223 0.498 0.498v0.664zM12.844 11.754c0 0.275-0.223 0.498-0.498 0.498s-0.498-0.223-0.498-0.498v-0.664c0-0.275 0.223-0.498 0.498-0.498s0.498 0.223 0.498 0.498v0.664zM14.836 14.41c0 0.275-0.223 0.498-0.498 0.498s-0.498-0.223-0.498-0.498v-0.664c0-0.275 0.223-0.498 0.498-0.498s0.498 0.223 0.498 0.498v0.664zM14.836 11.754c0 0.275-0.223 0.498-0.498 0.498s-0.498-0.223-0.498-0.498v-0.664c0-0.275 0.223-0.498 0.498-0.498s0.498 0.223 0.498 0.498v0.664z"></path>
</symbol>
<symbol id="icon-town-hall" viewBox="0 0 17 17">
<path d="M12.538 5.338v-0.996h-0.814l0.027 0.996h0.787z"></path>
<path d="M8.998 1.479v-1.479h-0.996v1.451c-1.512 0.184-2.717 1.381-2.91 2.891h6.632c-0.186-1.447-1.301-2.608-2.725-2.863z"></path>
<path d="M5.092 4.342h-0.629v0.996h0.602l0.027-0.996z"></path>
<path d="M12.672 8.82l-4.173-2.34-3.983 2.208-0.368 0.256h8.705l-0.181-0.124z"></path>
<path d="M16.203 11.641h-3.287v4.496h-1.011v-6.196h-1.109v6.196h-0.996v-6.196h-2.665v6.196h-0.996v-6.196h-1.045v6.196h-1.011v-4.496h-3.287v4.363h-0.797v0.996h17v-0.996h-0.797v-4.363zM3.341 14.889h-0.996v-0.92h0.996v0.92zM3.341 13.229h-0.996v-0.92h0.996v0.92zM8.998 16.137h-0.996v-1.813h0.996v1.813zM8.998 13.181h-0.996v-0.92h0.996v0.92zM8.998 11.521h-0.996v-0.92h0.996v0.92zM14.561 14.889h-0.996v-0.92h0.996v0.92zM14.561 13.229h-0.996v-0.92h0.996v0.92z"></path>
<path d="M0.797 10.645h3.287v-0.996h-4.084v0.996h0.797z"></path>
<path d="M12.916 9.649v0.996h4.084v-0.996h-4.084z"></path>
<path d="M5.064 7.245l3.437-1.907h-3.437v1.907z"></path>
<path d="M11.751 7.162v-1.824h-3.249l3.249 1.824z"></path>
</symbol>
<symbol id="icon-lamp" viewBox="0 0 17 17">
<path d="M12.901 6.402c-0.617-0.614-1.34-1.084-2.128-1.392v-2.217h-1.776v-2.793h-0.996v2.793h-1.776v2.217c-0.788 0.308-1.511 0.778-2.128 1.392-1.061 1.057-1.696 2.43-1.816 3.907h12.435c-0.12-1.478-0.755-2.85-1.816-3.907z"></path>
<path d="M8.998 14.963h-0.996v2.037h0.996v-2.037z"></path>
<path d="M11.599 13.626l-0.757 0.648 1.325 1.548 0.757-0.648-1.325-1.548z"></path>
<path d="M5.401 13.627l-1.325 1.547 0.757 0.648 1.325-1.547-0.757-0.648z"></path>
<path d="M5.553 11.305c0.248 1.401 1.478 2.471 2.947 2.471s2.699-1.070 2.947-2.471l-5.896-0.012c0 0.004 0.001 0.008 0.002 0.012z"></path>
</symbol>
<symbol id="icon-fire" viewBox="0 0 17 17">
<path d="M14.839 9.953c-0.195-2.535-1.375-4.124-2.417-5.526-0.964-1.298-1.797-2.419-1.797-4.072 0-0.133-0.074-0.254-0.192-0.315s-0.26-0.051-0.368 0.027c-1.564 1.119-2.869 3.005-3.325 4.805-0.316 1.253-0.358 2.662-0.364 3.592-1.444-0.308-1.772-2.469-1.775-2.493-0.016-0.112-0.085-0.21-0.184-0.263-0.101-0.053-0.219-0.056-0.321-0.006-0.076 0.037-1.859 0.943-1.963 4.561-0.007 0.12-0.008 0.241-0.008 0.362 0 3.515 2.86 6.375 6.375 6.375 0.005 0 0.010 0.001 0.014 0 0.001 0 0.003 0 0.004 0 3.506-0.010 6.356-2.866 6.356-6.375 0-0.177-0.036-0.672-0.036-0.672zM8.5 16.291c-1.172 0-2.125-1.015-2.125-2.263 0-0.043-0-0.085 0.003-0.138 0.014-0.526 0.114-0.886 0.224-1.125 0.205 0.441 0.573 0.847 1.169 0.847 0.196 0 0.354-0.158 0.354-0.354 0-0.504 0.010-1.086 0.136-1.611 0.112-0.466 0.379-0.961 0.717-1.358 0.15 0.515 0.444 0.932 0.73 1.339 0.41 0.582 0.834 1.185 0.908 2.211 0.004 0.061 0.009 0.122 0.009 0.188-0 1.248-0.953 2.263-2.125 2.263z"></path>
</symbol>
<symbol id="icon-shovel" viewBox="0 0 17 17">
<path d="M15.152 3.809c-0.547 0.547-1.432 0.547-1.978 0-0.545-0.545-0.545-1.433 0-1.978l0.507-0.507 1.978 1.978-0.507 0.507zM16.817 2.909l-2.748-2.748c-0.214-0.214-0.561-0.214-0.776 0l-0.895 0.895c-0.84 0.84-0.954 2.134-0.344 3.098l-5.361 5.361-2.070-2.070c-0.214-0.214-0.561-0.214-0.776 0l-2.047 2.047c-1.383 1.383-2.020 3.361-1.703 5.291l0.237 1.447c0.038 0.232 0.22 0.414 0.452 0.452 1.544 0.253 1.806 0.317 2.427 0.317 1.602 0 3.162-0.634 4.311-1.783l2.048-2.047c0.214-0.214 0.214-0.561 0-0.776l-0.941-0.941c-0.214-0.214-0.561-0.214-0.776 0l-1.583 1.583c-0.107 0.107-0.247 0.161-0.388 0.161-0.484 0-0.734-0.59-0.388-0.936 2.936-2.936 4.395-4.396 7.332-7.332 0.949 0.602 2.244 0.509 3.099-0.345l0.895-0.895c0.204-0.204 0.227-0.549-0.006-0.781z"></path>
</symbol>
<symbol id="icon-water" viewBox="0 0 17 17">
<path d="M4.104 6.409c-0.889 0.947-4.104 4.509-4.104 6.487 0 2.266 1.837 4.104 4.104 4.104s4.104-1.837 4.104-4.104c0-1.98-3.214-5.54-4.104-6.487zM3.788 15.737c-1.568-0.002-2.839-1.273-2.841-2.841h0.631c0.002 1.22 0.99 2.208 2.21 2.21v0.631z"></path>
<path d="M8.839 0.75c-1.452 1.786-2.21 3.161-2.21 3.623 0 1.22 0.989 2.21 2.21 2.21s2.21-0.989 2.21-2.21c0-0.452-0.772-1.855-2.21-3.623z"></path>
<path d="M3.157-0c-0.376 0.498-0.693 1.037-0.944 1.607 0.043 0.491 0.451 0.869 0.944 0.873 0.491 0.002 0.901-0.373 0.943-0.862-0.252-0.573-0.568-1.116-0.943-1.617z"></path>
</symbol>
<symbol id="icon-income" viewBox="0 0 17 17">
<path d="M5.512 3.022h0.498v1.029c0 0.275 0.223 0.498 0.498 0.498h1.992c0.275 0 0.498-0.223 0.498-0.498v-1.029h0.498c0.201 0 0.383-0.121 0.46-0.307s0.035-0.4-0.108-0.543l-1.992-2.025c-0.195-0.195-0.51-0.195-0.704 0l-1.992 2.025c-0.143 0.143-0.185 0.357-0.108 0.543s0.259 0.307 0.46 0.307z"></path>
<path d="M11.986 9.031c-2.201 0-3.984 1.784-3.984 3.984s1.784 3.984 3.984 3.984 3.984-1.784 3.984-3.984c0-2.201-1.784-3.984-3.984-3.984zM12.821 14.808c-0.108 0.054-0.221 0.096-0.337 0.129v0.138c0 0.275-0.223 0.498-0.498 0.498s-0.498-0.223-0.498-0.498v-0.122c-0.207-0.052-0.401-0.14-0.564-0.263-0.22-0.165-0.265-0.477-0.1-0.697s0.477-0.265 0.697-0.1c0.199 0.149 0.582 0.16 0.854 0.025 0.109-0.055 0.168-0.12 0.168-0.154 0-0.060 0-0.069-0.066-0.104-0.13-0.069-0.36-0.112-0.582-0.153-0.297-0.055-0.603-0.112-0.869-0.254-0.388-0.207-0.593-0.547-0.593-0.983s0.262-0.817 0.718-1.046c0.108-0.054 0.222-0.097 0.338-0.129v-0.137c0-0.275 0.223-0.498 0.498-0.498s0.498 0.223 0.498 0.498v0.122c0.207 0.052 0.401 0.14 0.564 0.263 0.22 0.165 0.265 0.477 0.1 0.697s-0.477 0.265-0.697 0.1c-0.2-0.15-0.583-0.161-0.855-0.025-0.11 0.055-0.167 0.119-0.167 0.155 0 0.060 0 0.069 0.066 0.104 0.13 0.069 0.36 0.112 0.582 0.153 0.297 0.055 0.603 0.112 0.869 0.254 0.388 0.207 0.593 0.547 0.593 0.983s-0.262 0.817-0.719 1.045z"></path>
<path d="M3.52 7.039h8.965c0.275 0 0.498-0.223 0.498-0.498v-0.498c0-0.275-0.223-0.498-0.498-0.498h-8.965c-0.275 0-0.498 0.223-0.498 0.498v0.498c0 0.275 0.223 0.498 0.498 0.498z"></path>
<path d="M2.025 16.004v0.498c0 0.275 0.223 0.498 0.498 0.498h6.505c-0.54-0.402-0.989-0.91-1.33-1.494h-5.175c-0.275 0-0.498 0.223-0.498 0.498z"></path>
<path d="M2.025 11.023v0.498c0 0.275 0.223 0.498 0.498 0.498h4.583c0.11-0.538 0.324-1.034 0.592-1.494h-5.175c-0.275 0-0.498 0.223-0.498 0.498z"></path>
<path d="M1.527 14.51h5.733c-0.151-0.475-0.254-0.97-0.254-1.494h-5.479c-0.275 0-0.498 0.223-0.498 0.498v0.498c0 0.275 0.223 0.498 0.498 0.498z"></path>
<path d="M1.527 9.529h6.911c0.904-0.92 2.159-1.494 3.548-1.494h-10.459c-0.275 0-0.498 0.223-0.498 0.498v0.498c0 0.275 0.223 0.498 0.498 0.498z"></path>
</symbol>
<symbol id="icon-power-plug" viewBox="0 0 17 17">
<path d="M13.48 3.055h-1.494v-2.557c0-0.275-0.223-0.498-0.498-0.498s-0.498 0.223-0.498 0.498v2.557h-4.98v-2.557c0-0.275-0.223-0.498-0.498-0.498s-0.498 0.223-0.498 0.498v2.557h-1.494c-0.275 0-0.498 0.223-0.498 0.498v1.992c0 0.275 0.223 0.498 0.498 0.498h0.498v2.49c0 2.312 1.759 4.22 4.009 4.458h0c0.237 2.25 2.146 4.009 4.457 4.009 0.275 0 0.498-0.223 0.498-0.498s-0.223-0.498-0.498-0.498c-1.764 0-3.226-1.317-3.455-3.019h0c2.223-0.263 3.953-2.159 3.953-4.451v-2.49h0.498c0.275 0 0.498-0.223 0.498-0.498v-1.992c0-0.275-0.223-0.498-0.498-0.498zM9.848 8.886l-0.996 0.996c-0.462 0.462-1.171-0.238-0.705-0.705l0.508-0.507-1.374-0.687c-0.303-0.152-0.37-0.557-0.129-0.798l0.996-0.996c0.466-0.466 1.171 0.238 0.705 0.705l-0.508 0.507 1.374 0.687c0.303 0.152 0.37 0.557 0.129 0.798z"></path>
</symbol>
<symbol id="icon-money-bag" viewBox="0 0 15 17">
<path d="M7.87 12.136v1.277c0.453-0.1 0.787-0.362 0.787-0.663 0-0.281-0.262-0.478-0.787-0.614z"></path>
<path d="M6.296 10.625c0 0.281 0.263 0.477 0.787 0.614v-1.277c-0.453 0.1-0.787 0.362-0.787 0.663z"></path>
<path d="M12.494 0.474c-0.111-0.113-0.319-0.249-0.682-0.249-0.791 0-2.049 0.688-2.656 1.051-0.449-0.574-1.114-1.276-1.679-1.276s-1.23 0.703-1.679 1.277c-0.608-0.363-1.865-1.051-2.656-1.051-0.362 0-0.571 0.135-0.682 0.249-0.179 0.181-0.259 0.418-0.233 0.684 0.090 0.931 1.61 2.293 2.607 3.092h5.289c0.996-0.799 2.516-2.16 2.607-3.092 0.025-0.266-0.056-0.502-0.235-0.684z"></path>
<path d="M9.962 4.958h-4.97c-1.502 1.463-4.992 5.039-4.992 6.729 0 2.93 3.354 5.313 7.477 5.313s7.477-2.383 7.477-5.313c0-1.691-3.489-5.267-4.991-6.729zM7.87 14.138v0.383c0 0.195-0.176 0.354-0.393 0.354s-0.394-0.159-0.394-0.354v-0.382c-0.861-0.121-1.512-0.636-1.572-1.291-0.018-0.195 0.142-0.366 0.359-0.383 0.22-0.019 0.407 0.128 0.425 0.323 0.027 0.288 0.355 0.531 0.789 0.626v-1.444c-1.059-0.234-1.574-0.682-1.574-1.345 0-0.684 0.677-1.256 1.574-1.388v-0.383c0-0.195 0.176-0.354 0.394-0.354s0.393 0.159 0.393 0.354v0.382c0.861 0.121 1.511 0.635 1.572 1.291 0.018 0.195-0.142 0.366-0.359 0.383-0.21 0.025-0.407-0.128-0.425-0.323-0.027-0.288-0.355-0.531-0.789-0.626v1.444c1.059 0.234 1.574 0.681 1.574 1.346 0 0.684-0.677 1.255-1.574 1.387z"></path>
</symbol>
</defs>
</svg>
