<svg width="56" height="56" fill="none" xmlns="http://www.w3.org/2000/svg"><path d="M55.62 26.48c-.017-.032-.017-.063-.032-.094a.625.625 0 00-.206-.248l-7.9-6.208a.638.638 0 00-.253-.124c-.031-.015-.063-.015-.095-.015a.469.469 0 00-.142-.032h-11.06a.775.775 0 00-.79.776v10.088h-7.9V12.776a.775.775 0 00-.79-.776H7.492a.775.775 0 00-.791.776v17.847h-5.53a.775.775 0 00-.79.776v7.76c0 .434.347.775.79.775H5.2c.395 2.623 2.67 4.656 5.451 4.656 2.781 0 5.056-2.033 5.451-4.656h23.859c.395 2.623 2.67 4.656 5.451 4.656 2.781 0 5.056-2.033 5.451-4.656h4.03c.442 0 .79-.341.79-.776V26.743c0-.015-.016-.031-.016-.031a.613.613 0 00-.048-.233zM17.76 13.551h7.9v4.656h-7.9v-4.656zm0 6.207h7.9v10.864h-7.9V19.759zm-9.48-6.207h7.9v4.656h-7.9v-4.656zm0 6.207h7.9v10.864h-7.9V19.759zm2.37 23.279c-2.18 0-3.95-1.738-3.95-3.88s1.77-3.88 3.95-3.88 3.95 1.739 3.95 3.88c0 2.142-1.77 3.88-3.95 3.88zm24.49-4.656H16.119c-.016-.062-.031-.108-.047-.17a4.093 4.093 0 00-.11-.42 5.79 5.79 0 00-.175-.558 2.9 2.9 0 00-.173-.388 4.144 4.144 0 00-.285-.512c-.079-.125-.158-.233-.237-.357a3.386 3.386 0 00-.38-.45 2.672 2.672 0 00-.3-.295 2.074 2.074 0 00-.442-.388c-.11-.078-.221-.17-.332-.248-.173-.11-.363-.202-.553-.295-.126-.062-.237-.125-.363-.171-.221-.093-.442-.14-.664-.202l-.331-.093a6.145 6.145 0 00-1.075-.108c-.363 0-.727.046-1.074.108-.11.016-.221.062-.332.093-.221.062-.458.124-.664.202-.126.046-.237.109-.363.17-.19.094-.38.187-.553.296-.11.077-.221.155-.332.248-.158.124-.316.248-.458.372-.11.093-.206.202-.3.295-.127.14-.253.295-.38.45a7.13 7.13 0 00-.237.357c-.11.17-.19.342-.284.512a4.169 4.169 0 00-.174.388c-.079.186-.126.373-.174.559-.031.14-.079.28-.11.419-.016.062-.032.109-.048.17H1.961V32.16h33.18v6.223zm10.271 4.656c-2.18 0-3.95-1.738-3.95-3.88s1.77-3.88 3.95-3.88 3.95 1.739 3.95 3.88c0 2.142-1.77 3.88-3.95 3.88zm8.69-4.656H50.88c-.016-.062-.032-.108-.047-.17-.032-.14-.063-.28-.11-.42a5.79 5.79 0 00-.175-.558 2.9 2.9 0 00-.173-.388 4.144 4.144 0 00-.285-.512c-.079-.125-.158-.233-.237-.357a3.386 3.386 0 00-.38-.45 2.672 2.672 0 00-.3-.295 3.35 3.35 0 00-.458-.373c-.11-.077-.22-.17-.331-.248-.174-.109-.364-.202-.553-.295-.127-.062-.237-.124-.364-.17-.221-.094-.442-.14-.663-.202l-.332-.093a6.003 6.003 0 00-1.075-.109c-.379 0-.727.047-1.074.109-.11.015-.221.062-.332.093-.221.062-.458.124-.663.201-.127.047-.237.11-.364.171-.19.093-.38.186-.553.295-.11.078-.221.155-.332.248a11.51 11.51 0 00-.458.373c-.11.093-.205.202-.3.295a11.2 11.2 0 00-.38.45 7.138 7.138 0 00-.236.357c-.111.17-.19.341-.285.512a4.169 4.169 0 00-.347.947c-.032.14-.08.279-.111.419-.016.061-.032.108-.047.17h-3.192v-17.07h9.986l7.394 5.803v11.267z" fill="#F66527"/></svg>