<svg width="40" height="40" fill="none" xmlns="http://www.w3.org/2000/svg"><path d="M.89 2a.895.895 0 00-.89.9c0 .497.398.9.89.9h5.5l4.682 22.416c-.048.512.423 1.01.93.984H34.23c.47.007.902-.424.902-.9 0-.476-.432-.907-.902-.9H12.725l-.75-3.6h24.033a.921.921 0 00.862-.703l3.112-13.5c.115-.522-.333-1.093-.862-1.097H8.78l-.792-3.797A.92.92 0 007.113 2H.889zm8.265 6.3h28.854L35.3 20H11.6L9.155 8.3zm7.293 21.6c-2.199 0-4 1.824-4 4.05s1.801 4.05 4 4.05c2.2 0 4.001-1.824 4.001-4.05s-1.802-4.05-4-4.05zm13.337 0c-2.2 0-4.001 1.824-4.001 4.05s1.802 4.05 4 4.05c2.2 0 4.002-1.824 4.002-4.05s-1.802-4.05-4.001-4.05zm-13.337 1.8c1.238 0 2.223.997 2.223 2.25 0 1.253-.985 2.25-2.223 2.25s-2.222-.997-2.222-2.25c0-1.253.984-2.25 2.222-2.25zm13.337 0c1.238 0 2.223.997 2.223 2.25 0 1.253-.985 2.25-2.223 2.25s-2.223-.997-2.223-2.25c0-1.253.985-2.25 2.223-2.25z" fill="#F66527"/></svg>