<svg width="48" height="64" fill="none" xmlns="http://www.w3.org/2000/svg"><path fill="#fff" d="M0 0h48v64H0z"/><path d="M.5 4A3.5 3.5 0 014 .5h40A3.5 3.5 0 0147.5 4v47.077a3.5 3.5 0 01-1.47 2.85l-12.528 8.924a3.5 3.5 0 01-2.03.649H4A3.5 3.5 0 01.5 60V4z" fill="#fff" stroke="#DFE3E8"/><path d="M9.786 36.11c.545 0 1.018-.455 1.022-1.022a1.035 1.035 0 00-1.022-1.014 1.018 1.018 0 100 2.037zm3.867-.11h1.845v-2.83h1.551c2.007 0 3.175-1.197 3.175-2.94 0-1.734-1.146-2.957-3.128-2.957h-3.443V36zm1.845-4.308v-2.91h1.244c1.066 0 1.581.579 1.581 1.448 0 .865-.515 1.462-1.572 1.462h-1.253zM25.836 36c2.66 0 4.27-1.645 4.27-4.372 0-2.719-1.61-4.355-4.244-4.355h-3.12V36h3.094zm-1.249-1.581v-5.565h1.177c1.636 0 2.501.835 2.501 2.774 0 1.947-.865 2.791-2.506 2.791h-1.172zM32.793 36h1.845v-3.605h3.55v-1.521h-3.55v-2.08h3.933v-1.521h-5.778V36z" fill="#27AE60"/></svg>