<svg width="32" height="32" fill="none" xmlns="http://www.w3.org/2000/svg"><path fill="#fff" d="M0 0h32v32H0z"/><path d="M18.218 17.504l.18.154.233-.043c1.38-.25 2.499-.319 3.328-.22.84.099 1.277.354 1.467.64a.583.583 0 01.074.293c-.002.133-.05.361-.345.654-.436.433-.854.63-1.44.604h-.022c-.814 0-1.828-.483-3.15-1.527l-.178-.142-.224.043c-.738.14-1.574.347-2.506.622-.804.209-1.539.452-2.17.696l-.175.068-.087.165c-.503.95-1.092 1.88-1.704 2.605-.625.741-1.216 1.201-1.71 1.332a1.29 1.29 0 01-.288.052c-.202 0-.406-.078-.621-.238a.985.985 0 01-.329-.416.88.88 0 01-.032-.485c.083-.392.445-.892 1.22-1.454.762-.553 1.849-1.113 3.23-1.65l.18-.069.087-.172a26.4 26.4 0 00.802-1.735h0l.004-.01c.414-1.062.76-2.027 1.04-2.927l.061-.201-.1-.185c-.485-.9-.92-1.884-1.169-2.78-.255-.922-.28-1.644-.08-2.089h0l.005-.013c.15-.362.46-.576.976-.576.47 0 .78.17.984.486h0l.005.007c.245.365.351 1.004.28 1.909-.069.883-.298 1.926-.619 3.017l-.059.201.103.184c.357.64.79 1.252 1.199 1.694l.007.008.008.008.393.395c.389.394.767.776 1.142 1.095zm-9.221 5.603l.036.027.04.02.006.003a.91.91 0 00.23.082.862.862 0 00.381-.013c.423-.105.85-.456 1.233-.854.403-.419.833-.972 1.254-1.6l1.016-1.515-1.647.785c-.88.42-1.541.831-2 1.204-.23.186-.417.37-.557.547a1.42 1.42 0 00-.275.526.617.617 0 00-.008.414.789.789 0 00.29.374zm4.989-13.97l-.006.012-.005.011c-.1.23-.129.49-.124.738.005.255.046.535.11.824.13.579.366 1.241.666 1.909l.59 1.311.351-1.395c.194-.77.305-1.463.323-2.033.018-.54-.042-1.075-.295-1.438l-.026-.037-.031-.032-.005-.004a1.085 1.085 0 00-.255-.194 1.06 1.06 0 00-.504-.118.924.924 0 00-.554.155.743.743 0 00-.235.29v.001zm-.081 8.844l-.424.983 1.026-.306 1.025-.306h.001c.455-.133.908-.244 1.356-.354l.335-.083.862-.214-.63-.626a24.4 24.4 0 01-.906-.934l-.01-.01-.008-.009c-.183-.181-.37-.438-.614-.772l-.089-.122-.56-.765-.315.894c-.14.396-.282.759-.426 1.126-.104.265-.21.532-.315.816-.105.21-.208.45-.305.674l-.003.008zm9.088.834h0l.007-.009a.709.709 0 00.177-.487.664.664 0 00-.254-.485c-.203-.166-.497-.234-.75-.27-.554-.077-1.385-.053-2.398.085l-1.313.18 1.105.732c.751.498 1.467.799 2.126.799.477 0 .94-.136 1.3-.544z" fill="#B0B4BB" stroke="red"/><path d="M5.5 2.5h21v21.293L20.793 29.5H5.5v-27z" stroke="#DFE3E8"/></svg>