<svg width="23" height="25" fill="none" xmlns="http://www.w3.org/2000/svg"><g clip-path="url(#clip0)"><path d="M20.404 2.366C19.8 1.81 17.366.042 11.94.018c0 0-6.397-.386-9.516 2.475C.69 4.229.08 6.77.015 9.92c-.065 3.15-.149 9.052 5.542 10.653h.005l-.004 2.442s-.036.989.615 1.19c.788.245 1.25-.506 2.002-1.316.412-.445.982-1.098 1.412-1.598 3.891.328 6.884-.42 7.224-.532.786-.254 5.232-.824 5.955-6.726.747-6.084-.361-9.932-2.362-11.667z" fill="#fff"/><path d="M19.138 3.595c-.51-.463-2.709-1.845-7.297-1.865 0 0-5.434-.357-8.072 2.032-1.468 1.45-1.963 3.605-2.017 6.236-.054 2.63-.335 7.655 4.477 8.992l-.022 4.058c0 .23.037.387.168.419.094.023.235-.026.355-.146.77-.772 3.233-3.744 3.233-3.744 3.305.216 5.934-.437 6.217-.529.667-.214 4.273-.524 4.883-5.454.63-5.081-.232-8.55-1.925-10z" fill="#7360F2"/><path d="M14.173 9.781c-.06-1.203-.67-1.835-1.833-1.895m3.408 2.424c.024-1.122-.308-2.058-.996-2.81-.692-.755-1.649-1.17-2.877-1.26" stroke="#fff" stroke-width=".614" stroke-linecap="round" stroke-linejoin="round"/><path d="M17.357 10.94c-.014-1.946-.596-3.478-1.743-4.596-1.148-1.12-2.575-1.684-4.282-1.696" stroke="#fff" stroke-width=".614" stroke-linecap="round" stroke-linejoin="round"/><path d="M12.4 13.89s.431.037.664-.25l.452-.569c.219-.282.746-.462 1.262-.175.386.22.762.46 1.125.719.342.252 1.043.837 1.046.837.334.282.41.696.183 1.133l-.001.009c-.25.434-.569.826-.943 1.16l-.008.006c-.325.272-.643.426-.957.463a1.272 1.272 0 01-.547-.054l-.01-.015c-.482-.136-1.288-.477-2.63-1.217a15.66 15.66 0 01-2.21-1.46 11.57 11.57 0 01-.993-.88l-.034-.034-.033-.034-.034-.033-.033-.034a11.603 11.603 0 01-.882-.994 15.675 15.675 0 01-1.46-2.21c-.74-1.341-1.08-2.146-1.216-2.63l-.015-.01a1.274 1.274 0 01-.054-.546c.039-.313.193-.632.463-.958.002-.004.004-.004.007-.008a4.714 4.714 0 011.16-.942l.009-.002c.437-.228.85-.15 1.132.182.003.002.587.703.838 1.046.258.363.497.738.718 1.126.287.515.107 1.043-.175 1.26l-.57.454c-.287.232-.25.663-.25.663s.844 3.193 3.996 3.997z" fill="#fff"/></g><defs><clipPath id="clip0"><path fill="#fff" d="M0 0h23v24.253H0z"/></clipPath></defs></svg>