<svg width="24" height="24" fill="none" xmlns="http://www.w3.org/2000/svg"><path d="M19.549 3.732c-.511-.472-2.576-1.97-7.175-1.991 0 0-5.424-.327-8.068 2.098-1.472 1.472-1.99 3.626-2.044 6.296-.055 2.67-.125 7.676 4.699 9.033h.005l-.004 2.07s-.03.838.522 1.01c.667.207 1.06-.43 1.697-1.117.35-.377.833-.931 1.197-1.354 3.299.277 5.837-.357 6.125-.451.666-.216 4.435-.7 5.048-5.703.633-5.158-.306-8.42-2.002-9.891z" fill="#fff"/><path d="M18.475 4.773c-.431-.392-2.296-1.564-6.187-1.58 0 0-4.606-.303-6.843 1.722-1.244 1.23-1.664 3.057-1.71 5.287-.046 2.23-.284 6.49 3.795 7.624l-.018 3.44c0 .195.031.328.142.356.08.019.2-.023.302-.124.652-.655 2.74-3.174 2.74-3.174 2.802.183 5.031-.37 5.271-.449.565-.182 3.623-.444 4.14-4.624.535-4.308-.196-7.249-1.632-8.478z" fill="#7360F2"/><path fill-rule="evenodd" clip-rule="evenodd" d="M12.451 8.398a.26.26 0 01.274-.246c.537.028.983.19 1.301.519.317.328.472.785.5 1.335a.26.26 0 01-.52.026c-.023-.47-.152-.791-.354-1-.2-.206-.505-.337-.954-.36a.26.26 0 01-.247-.274z" fill="#fff"/><path fill-rule="evenodd" clip-rule="evenodd" d="M12.057 6.997a.26.26 0 01.279-.24c1.092.08 1.971.453 2.612 1.152.633.692.934 1.553.912 2.563a.26.26 0 11-.52-.011c.02-.89-.242-1.618-.776-2.2-.532-.582-1.276-.913-2.266-.986a.26.26 0 01-.24-.278z" fill="#fff"/><path fill-rule="evenodd" clip-rule="evenodd" d="M11.6 5.665a.26.26 0 01.261-.259c1.51.01 2.786.513 3.81 1.512 1.033 1.007 1.544 2.378 1.557 4.08a.26.26 0 11-.52.005c-.012-1.596-.487-2.823-1.4-3.713-.921-.898-2.065-1.354-3.45-1.364a.26.26 0 01-.258-.261z" fill="#fff"/><path d="M12.764 13.502s.366.031.563-.211l.383-.483c.185-.24.632-.392 1.07-.149.328.188.646.39.954.61.29.213.884.71.886.71.284.238.349.59.156.96l-.002.008c-.212.368-.482.7-.798.983-.004.002-.004.004-.007.006-.276.23-.546.36-.812.392a1.08 1.08 0 01-.463-.046l-.009-.012c-.409-.116-1.092-.405-2.23-1.032A13.285 13.285 0 0110.583 14a9.832 9.832 0 01-.843-.747l-.028-.028-.028-.029-.029-.028-.028-.029a9.82 9.82 0 01-.747-.842 13.293 13.293 0 01-1.238-1.873c-.628-1.138-.916-1.82-1.032-2.23l-.013-.01a1.08 1.08 0 01-.045-.463c.033-.265.164-.535.393-.812l.005-.007c.284-.316.616-.586.984-.798l.008-.002c.37-.193.72-.127.96.154.002.002.497.597.71.887.218.308.421.626.608.955.244.437.091.885-.148 1.07l-.483.383c-.244.197-.211.562-.211.562s.715 2.707 3.387 3.39z" fill="#fff"/></svg>