<svg width="23" height="25" fill="none" xmlns="http://www.w3.org/2000/svg"><g clip-path="url(#clip0)"><path d="M20.404 2.366C19.8 1.81 17.366.042 11.94.018c0 0-6.397-.386-9.516 2.475C.69 4.229.08 6.77.015 9.919c-.065 3.15-.149 9.053 5.542 10.654h.005l-.004 2.442s-.036.989.615 1.19c.788.245 1.25-.507 2.002-1.317.412-.444.982-1.098 1.412-1.597 3.891.328 6.884-.421 7.224-.532.786-.254 5.232-.824 5.955-6.726.747-6.084-.361-9.933-2.362-11.667z" fill="#2A2B2E"/><path d="M19.138 3.595c-.51-.463-2.709-1.845-7.297-1.865 0 0-5.434-.357-8.072 2.032-1.468 1.45-1.963 3.605-2.017 6.236-.054 2.63-.335 7.655 4.477 8.992l-.022 4.059c0 .229.037.386.168.418.094.023.235-.026.355-.146.77-.772 3.233-3.744 3.233-3.744 3.305.216 5.934-.436 6.217-.529.667-.214 4.273-.524 4.883-5.454.63-5.081-.232-8.55-1.925-10z" fill="#7360F2"/><path d="M14.173 9.781c-.06-1.203-.67-1.835-1.833-1.895m3.408 2.424c.024-1.122-.308-2.058-.996-2.81-.692-.755-1.649-1.17-2.877-1.26" stroke="#2A2B2E" stroke-width=".614" stroke-linecap="round" stroke-linejoin="round"/><path d="M17.357 10.94c-.014-1.946-.596-3.477-1.743-4.596-1.148-1.119-2.575-1.684-4.282-1.696" stroke="#2A2B2E" stroke-width=".614" stroke-linecap="round" stroke-linejoin="round"/><path d="M12.4 13.89s.431.037.664-.249l.452-.57c.219-.282.746-.462 1.262-.175.386.221.762.46 1.125.719.342.252 1.043.837 1.046.837.334.282.41.696.183 1.133l-.001.009c-.25.434-.569.826-.943 1.16-.004.002-.004.004-.008.007-.325.27-.643.425-.957.462a1.272 1.272 0 01-.547-.054l-.01-.015c-.482-.136-1.288-.476-2.63-1.217a15.66 15.66 0 01-2.21-1.46c-.347-.274-.68-.568-.993-.88l-.034-.034-.033-.034-.034-.033-.033-.034a11.573 11.573 0 01-.882-.994 15.674 15.674 0 01-1.46-2.209c-.74-1.342-1.08-2.147-1.216-2.63l-.015-.01a1.274 1.274 0 01-.054-.547c.039-.313.193-.632.463-.958.002-.004.004-.004.007-.008a4.714 4.714 0 011.16-.942l.009-.002c.437-.228.85-.15 1.132.182.003.002.587.703.838 1.046.258.363.497.739.718 1.126.287.515.107 1.043-.175 1.261l-.57.453c-.287.232-.25.663-.25.663s.844 3.193 3.996 3.998z" fill="#2A2B2E"/></g><defs><clipPath id="clip0"><path fill="#fff" d="M0 0h23v24.253H0z"/></clipPath></defs></svg>