<svg width="20" height="20" fill="none" xmlns="http://www.w3.org/2000/svg"><path d="M10.07 14.77h.034c.464 0 .864-.044 1.146-.232.361-.24.396-.607.396-.83v-1.282c.142.06.436.238.983.764.237.238.426.443.586.62l.088.098c.122.136.236.263.34.368.13.13.276.26.45.351.186.099.381.144.595.144h1.458c.27 0 .605-.065.832-.329.244-.284.235-.641.146-.933l-.012-.039-.018-.036a6.984 6.984 0 00-1.31-1.825 9.545 9.545 0 00-.573-.596l-.019-.019c-.21-.205-.323-.321-.36-.376l-.01-.015-.01-.014-.01-.013a2.86 2.86 0 01.026-.041 18.703 18.703 0 002.003-3.446l.014-.03.009-.03c.061-.204.111-.53-.09-.815-.208-.293-.55-.36-.826-.36h-1.444a1.128 1.128 0 00-1.116.735 11.501 11.501 0 01-1.697 2.825l-.035.035V6.885c0-.206-.023-.483-.193-.708-.198-.262-.49-.323-.724-.323H8.446a.86.86 0 00-.882.797l-.002.018v.019a.9.9 0 00.17.515c.037.054.078.105.109.143l.007.009c.03.038.055.069.08.103.087.117.192.29.218.663v1.9a5.88 5.88 0 01-.47-.653c-.43-.68-.892-1.618-1.234-2.623l-.003-.008-.003-.008c-.075-.2-.18-.438-.373-.614-.22-.2-.484-.26-.75-.26h-1.46c-.277 0-.563.064-.769.281a.9.9 0 00-.23.635v.053l.01.052a12.126 12.126 0 002.383 5.018 6.193 6.193 0 004.823 2.876zm-1.614-4.455a.023.023 0 01.004.002l-.004-.002zM6.938.5h6.135c2.81 0 4.34.347 5.211 1.22.871.873 1.216 2.406 1.216 5.217v6.136c0 2.81-.348 4.34-1.22 5.211-.873.871-2.406 1.216-5.218 1.216H6.928c-2.81 0-4.34-.348-5.211-1.22C.845 17.407.5 15.874.5 13.062V6.928c0-2.805.347-4.335 1.22-5.207C2.595.847 4.128.5 6.939.5z" fill="#2787F5" stroke="#2787F5"/></svg>