<svg width="24" height="24" fill="none" xmlns="http://www.w3.org/2000/svg"><path d="M9.368 15.966l1.75 1.75-1.513 4.082a1.138 1.138 0 01-1.447.67 1.129 1.129 0 01-.67-1.448l1.88-5.054z" fill="#2A2B2E"/><path d="M6.106 11.495l1.037-1.988c.28-.518.691-.95 1.188-1.252 2.397-1.426 2.7-1.404 3.002-1.383l1.62.108c.497.022.843.151 2.506 2.592a.422.422 0 00.28.173l1.988.302a.98.98 0 01.82 1.123.98.98 0 01-1.123.821l-1.987-.302c-.648-.108-1.231-.454-1.598-.994-.087-.13-.151-.237-.238-.345l-1.274 4.039 1.771 1.771c.26.26.475.605.605.95l1.36 3.975a1.108 1.108 0 01-.69 1.425c-.13.044-.238.065-.368.065-.475 0-.907-.302-1.08-.756l-1.36-3.974c-.022-.043-.044-.065-.065-.108l-3.154-3.175a1.82 1.82 0 01-.497-1.685L9.54 9.81c-.064.043-.13.086-.216.13a1.2 1.2 0 00-.453.475l-1.037 1.987a.991.991 0 01-.864.518 1.16 1.16 0 01-.454-.108.992.992 0 01-.41-1.317zm8.539-7.055a2.182 2.182 0 10-4.338-.471 2.182 2.182 0 004.338.472z" fill="#2A2B2E"/></svg>