<svg width="24" height="24" fill="none" xmlns="http://www.w3.org/2000/svg"><path d="M21.08 4.397h0l.003.007c.148.297.257.612.323.937.052.404.083.81.094 1.216v10.897a9.86 9.86 0 01-.103 1.202 3.78 3.78 0 01-.316.943 3.41 3.41 0 01-.616.87 3.16 3.16 0 01-.862.61h0l-.007.004a3.796 3.796 0 01-.937.323c-.404.052-.81.083-1.216.094H6.546a9.711 9.711 0 01-1.202-.103 3.783 3.783 0 01-.943-.316 3.41 3.41 0 01-.87-.616 3.16 3.16 0 01-.61-.862h0l-.004-.007a3.79 3.79 0 01-.323-.937 12.11 12.11 0 01-.094-1.216v0-.002 0-.002 0-.002 0-.012 0-.002 0-.002 0-.008 0-.002 0-.009 0-.002 0-.008 0-.002 0-.008 0-.002 0-.007 0-.008 0-.002 0-.006 0-.002 0-.006 0-.002 0-.006 0-.002 0-.006 0-.008 0-.007 0-.007 0-.008 0-.007 0-.007 0-.007 0-.007 0-.007 0-.007 0-.007 0-.007 0-.007 0-.007 0-.008 0-.007 0-.007 0-.008 0-.007 0-.002 0-.006 0-.008 0-.008 0-.002 0-.006 0-.002 0-.007 0-.002 0-.007 0-.002 0-.008 0-.002 0-.008 0-.002 0-.009 0-.002 0-.002 0-.009 0-.002 0-.002 0-.012 0-.002 0-.002 0-.002 0-.002 0-.017 0-.002 0-.002 0-.002 0-.002 0-.002 0-.002 0-.002 0-.002 0-.002 0-.002 0-.002 0-.002 0-.002 0-.002 0-.013 0-.002 0-.002 0-.002 0-.002 0-.006 0-.002 0-.002 0V17v0-.004 0-.002 0-.002 0-.004 0-.002 0-.002 0-.002 0-.002 0-.002 0-.002 0-.002 0-.003 0-.002 0-.003 0-.002 0-.002 0-.002 0-.002 0-.002 0-.002 0-.002 0-.001 0-.002 0-.001 0-.002 0-.001 0-.002 0-.001 0-.002 0-.001 0-.002 0-.001 0-.002 0-.002 0-.002 0-.001 0-.002 0-.002 0-.002 0-.002 0V6.545a9.71 9.71 0 01.103-1.202 3.78 3.78 0 01.316-.943 3.41 3.41 0 01.616-.87 3.16 3.16 0 01.862-.61h0l.007-.004a3.79 3.79 0 01.937-.323c.404-.052.81-.083 1.216-.094h10.897c.402.01.804.044 1.202.103.327.063.644.17.943.316.32.158.614.367.87.616.25.251.457.543.61.862zM12.228 19.5v0h.005A7.68 7.68 0 104.5 11.799h0v.005a7.61 7.61 0 00.963 3.646l-.946 3.52-.224.833.834-.22 3.61-.95a7.62 7.62 0 003.49.867zm.008-13.13l.54-.006-.006-.076a5.5 5.5 0 01-.548 10.972 5.5 5.5 0 01-2.748-.76s0 0 0 0l-.22-.13-.181-.108-.204.055-1.435.39.368-1.345.057-.208-.112-.184-.14-.23h0a5.5 5.5 0 014.629-8.37zm3.923 8.277l.071-.119v-.088a2.06 2.06 0 00.063-.942l-.016-.098-.053-.085a.804.804 0 00-.302-.273 3.792 3.792 0 00-.171-.086l-.067-.033c-.17-.085-1.088-.53-1.278-.601l-.009-.003a.931.931 0 00-.44-.07.754.754 0 00-.543.354 5.927 5.927 0 01-.39.5 4.502 4.502 0 01-1.258-.784 5.057 5.057 0 01-.813-.973 4.66 4.66 0 00.165-.2l.048-.058a1.65 1.65 0 00.25-.412.84.84 0 00-.011-.744l-.004-.007-.004-.008-.008-.018-.057-.135-.156-.377-.007-.018c-.113-.273-.24-.584-.313-.745-.096-.212-.228-.392-.422-.5-.185-.105-.363-.104-.426-.104H9.72v0h-.006a1.15 1.15 0 00-.832.37 2.5 2.5 0 00-.772 1.86v.017l.002.016a3.98 3.98 0 00.823 2.1 8.5 8.5 0 003.24 2.854l.01.005.01.004a9.4 9.4 0 001.055.401c.44.139.906.168 1.36.085h0l.006-.001a2.32 2.32 0 001.543-1.084z" fill="#31DA57" stroke="#31DA57"/></svg>