<svg width="64" height="64" fill="none" xmlns="http://www.w3.org/2000/svg"><path d="M43.985 37.126 63.774 13.63a.957.957 0 0 0 .201-.83.985.985 0 0 0-.555-.67L41.91 2.095c-.006 0-.011-.005-.017-.005-.034-.016-.073-.027-.112-.043l-.045-.016A.792.792 0 0 0 41.573 2h-.163c-.016 0-.038.005-.055.005-.028.006-.062.006-.09.011L10.96 7.644c-.398.075-.718.37-.808.75L.028 50.76c0 .01 0 .016-.006.027l-.016.064C0 50.9 0 50.954 0 51.002v.006c0 .075.017.144.034.214.005.016.005.032.01.043.023.07.051.134.085.193l.017.027a.891.891 0 0 0 .123.16c.006.006.011.011.017.022l.011.01c.045.043.09.08.146.118.011.006.023.011.028.017a.666.666 0 0 0 .107.059l21.516 10.027a1.1 1.1 0 0 0 .65.086l30.305-5.628h.006c.005 0 .011-.005.017-.005a.813.813 0 0 0 .162-.048c.017-.005.034-.016.05-.022a1.199 1.199 0 0 0 .17-.09.508.508 0 0 0 .117-.097c.006-.006.017-.01.022-.016l.006-.006a.958.958 0 0 0 .067-.075c.012-.016.028-.026.04-.043l.05-.08c.011-.016.023-.038.034-.053a.365.365 0 0 0 .028-.07.357.357 0 0 0 .028-.07.535.535 0 0 1 .017-.059c.005-.032.016-.059.022-.091v-.005c0-.022 0-.043.006-.06 0-.026.005-.058.005-.085 0-.027-.005-.054-.005-.08 0-.027-.006-.049-.006-.076-.006-.026-.017-.058-.022-.085l-.017-.065a.69.69 0 0 0-.045-.096c-.006-.01-.011-.027-.017-.038l-.005-.005-9.794-17.81Zm-11.89 7.482-4.09-7.45-4.38-7.974 18.38 8.57 8.47 15.419-18.38-8.565Zm10.376-8.827-19.609-9.143 14.87-17.655 4.015-4.77 19.615 9.144L42.47 35.78ZM12.009 9.461 38.88 4.464l-18.442 21.9a.037.037 0 0 0-.011.02 1.095 1.095 0 0 0-.112.167c-.006.016-.012.027-.017.043-.006.01-.011.027-.017.037l-.034.102c-.005.016-.005.032-.011.048l-.017.086v.038c0 .016 0 .032-.005.048v.027c0 .059.005.118.016.177 0 .005.006.01.006.021v.016c0 .01.006.022.011.027a.81.81 0 0 0 .056.15.187.187 0 0 0 .023.048c.005.006.005.016.011.022l9.445 17.199L2.39 49.72l9.62-40.26Zm10.68 50.519L4.256 51.388l26.94-5.006 18.43 8.592-26.939 5.006Z" fill="#00B09D"/></svg>