<svg width="314" height="58" fill="none" xmlns="http://www.w3.org/2000/svg"><g clip-path="url(#a)"><path d="m41.04 33.959 18.463-22.716a.945.945 0 0 0-.33-1.45l-20.07-9.7c-.005 0-.01-.005-.015-.005-.032-.015-.068-.026-.105-.041L38.941.03A.716.716 0 0 0 38.79 0h-.151c-.016 0-.037.005-.053.005-.026.005-.057.005-.083.01L10.226 5.457a.962.962 0 0 0-.754.725L.026 47.14c0 .01 0 .015-.005.026l-.016.062C0 47.275 0 47.326 0 47.373v.005c0 .073.016.14.031.208.006.015.006.03.01.04a1 1 0 0 0 .08.188l.015.025a.857.857 0 0 0 .115.156c.005.005.01.01.016.02l.01.01a.983.983 0 0 0 .262.187l20.075 9.695a.996.996 0 0 0 .607.083l28.276-5.44h.005c.005 0 .01-.006.016-.006a.735.735 0 0 0 .152-.047c.015-.005.031-.015.047-.02.036-.016.073-.037.11-.057l.047-.031a.475.475 0 0 0 .11-.094c.005-.005.015-.01.02-.015l.006-.005a.881.881 0 0 0 .063-.073c.01-.015.026-.026.036-.041l.047-.078.032-.052c.01-.02.02-.047.026-.067a.353.353 0 0 0 .026-.068.825.825 0 0 1 .016-.057c.005-.03.015-.057.02-.088v-.005c0-.02 0-.041.006-.057 0-.026.005-.057.005-.083 0-.026-.005-.052-.005-.078 0-.025-.005-.046-.005-.072-.006-.026-.016-.057-.021-.083l-.016-.062a.736.736 0 0 0-.042-.093c-.005-.01-.01-.026-.016-.037l-.005-.005-9.137-17.218Zm-11.095 7.233L26.13 33.99l-4.087-7.71 17.15 8.285 7.902 14.907-17.15-8.28Zm9.682-8.534-18.296-8.84L35.205 6.752l3.747-4.611 18.3 8.84-17.625 21.678ZM11.205 7.212l25.073-4.829L19.07 23.554a.039.039 0 0 0-.01.021 1.056 1.056 0 0 0-.105.16c-.005.016-.01.027-.016.042l-.015.037-.032.098c-.005.015-.005.031-.01.047l-.016.082v.037c0 .015 0 .03-.005.046v.026a.95.95 0 0 0 .016.171c0 .005.005.01.005.021v.016c0 .01.005.02.01.025a.78.78 0 0 0 .053.146c.005.015.01.03.02.046.006.005.006.016.011.02l8.813 16.628-25.56 4.912 8.976-38.923Zm9.964 48.84L3.972 47.746l25.136-4.84 17.196 8.306-25.135 4.84Z" fill="#00B09D"/><path d="M112.234 25.87c3.098-3 6.866-4.497 11.294-4.497 4.427 0 8.195 1.498 11.293 4.498 3.098 3 4.653 6.735 4.653 11.207 0 4.508-1.534 8.254-4.595 11.238-3.062 2.98-6.845 4.472-11.346 4.472-4.464 0-8.237-1.498-11.32-4.498-3.082-3-4.621-6.735-4.621-11.207-.01-4.477 1.544-8.212 4.642-11.212Zm15.888 6.244c-1.219-1.274-2.747-1.906-4.594-1.906-1.848 0-3.376.637-4.595 1.906-1.22 1.275-1.827 2.928-1.827 4.964 0 2.072.607 3.736 1.827 4.99 1.219 1.254 2.747 1.88 4.595 1.88 1.847 0 3.375-.627 4.594-1.88 1.22-1.254 1.827-2.917 1.827-4.99 0-2.036-.612-3.69-1.827-4.964Zm32.238-10.741c3.433 0 6.128 1.073 8.08 3.218 1.957 2.145 2.936 5.057 2.936 8.725v18.762h-9.41v-16.69c0-1.745-.35-3.046-1.051-3.9-.702-.856-1.958-1.28-3.763-1.28-3.726 0-5.589 1.984-5.589 5.943v15.927h-9.41v-30h9.41v3.383c2.245-2.725 5.175-4.088 8.797-4.088ZM198.181 42.7l1.607 7.471c-.958.653-2.345 1.254-4.15 1.798-1.811.544-3.601.819-5.37.819-3.286 0-6.044-1.01-8.274-3.026-2.234-2.02-3.349-5.12-3.349-9.3v-9.654h-5.202v-8.73h5.202v-6.166l9.41-2.02v8.18h10.241v8.726h-10.241v9.109c0 2.834 1.292 4.254 3.872 4.254 1.031.01 3.114-.482 6.254-1.461Zm22.268-21.327c.701 0 1.272.057 1.716.166v9.544a22.66 22.66 0 0 0-1.884-.109c-1.219 0-2.297.11-3.239.327-.942.217-1.853.611-2.742 1.17-.885.566-1.56 1.4-2.02 2.509-.461 1.108-.691 2.481-.691 4.119v12.984h-9.41v-30h9.41v4.637c1.852-3.564 4.804-5.347 8.86-5.347Zm25.099.705h9.41l-.058 30h-9.41V48.86c-2.177 2.617-5.039 3.928-8.582 3.928-3.915 0-7.18-1.472-9.797-4.42-2.622-2.943-3.93-6.71-3.93-11.29 0-4.58 1.319-8.347 3.956-11.29 2.638-2.943 5.877-4.42 9.713-4.42 3.653 0 6.552 1.363 8.693 4.093v-3.383h.005Zm-11.016 19.995c1.219 1.254 2.747 1.88 4.595 1.88 1.847 0 3.375-.626 4.595-1.88 1.219-1.254 1.826-2.917 1.826-4.99 0-2.036-.607-3.689-1.826-4.963-1.22-1.275-2.748-1.907-4.595-1.907-1.848 0-3.376.637-4.595 1.907-1.22 1.274-1.827 2.927-1.827 4.963 0 2.068.607 3.736 1.827 4.99Zm37.659 10.715c-4.134 0-7.594-.907-10.378-2.726-2.789-1.818-4.459-4.31-5.008-7.471h9.519c.518 2.145 2.507 3.217 5.977 3.217 2.768 0 4.15-.689 4.15-2.072 0-.58-.351-1.01-1.052-1.28-.701-.275-2.402-.7-5.092-1.28-4.464-.943-7.62-2.109-9.467-3.492-1.848-1.383-2.769-3.363-2.769-5.943 0-3.238 1.246-5.762 3.737-7.58 2.491-1.819 5.935-2.726 10.325-2.726 8.117 0 12.696 3.13 13.727 9.384h-9.519c-.445-1.601-1.973-2.4-4.595-2.4-2.768 0-4.15.71-4.15 2.13 0 .472.215.793.639.954.423.166 1.486.43 3.181.792.33.073.571.13.723.166 5.055 1.093 8.656 2.3 10.796 3.627 2.14 1.327 3.208 3.446 3.208 6.352 0 3.348-1.303 5.912-3.904 7.69-2.601 1.766-5.95 2.658-10.048 2.658ZM312.393 42.7 314 50.17c-.958.653-2.345 1.254-4.15 1.798-1.811.544-3.601.819-5.369.819-3.287 0-6.045-1.01-8.274-3.026-2.235-2.02-3.35-5.12-3.35-9.3v-9.654h-5.202v-8.73h5.202v-6.166l9.41-2.02v8.18h10.242v8.726h-10.242v9.109c0 2.834 1.292 4.254 3.873 4.254 1.03.01 3.119-.482 6.253-1.461Z" fill="#F2F2F2"/><path d="M110.544 52.078H98.701L88.014 39.75v12.327h-9.362V10.083h9.362v23.943l9.97-11.943h11.843l-12.948 14.29 13.665 15.705Z" fill="#F2F2F2"/></g><defs><clipPath id="a"><path fill="#fff" d="M0 0h314v58H0z"/></clipPath></defs></svg>