<svg width="873" height="336" fill="none" xmlns="http://www.w3.org/2000/svg"><mask id="a" style="mask-type:alpha" maskUnits="userSpaceOnUse" x="-1" y="-1" width="875" height="337"><path d="M29.081 268.538.166 251.741 0 196.008l48.504-28.01 28.915 16.812" stroke="#F2F2F2" stroke-width=".75" stroke-miterlimit="10" stroke-linejoin="round"/><path d="m28.915 212.805.166 55.733 48.504-27.995-24.342-13.869 24.176-41.864-48.504 27.995ZM0 196.008l28.915 16.797m19.589-44.806-28.915-16.797-.151-55.733 48.504-27.995 28.915 16.797" stroke="#F2F2F2" stroke-width=".75" stroke-miterlimit="10" stroke-linejoin="round"/><path d="m48.353 112.281.15 55.717 48.505-27.994-24.328-13.869 24.177-41.864-48.504 28.01ZM19.438 95.469l28.915 16.812m58.298 200.792-28.915-16.797-.166-55.733 48.504-28.01 28.915 16.812" stroke="#F2F2F2" stroke-width=".75" stroke-miterlimit="10" stroke-linejoin="round"/><path d="m106.485 257.34.166 55.733 48.489-28.01-24.327-13.854 24.176-41.864-48.504 27.995ZM77.57 240.543l28.915 16.797m19.589-44.807-28.915-16.796-.151-55.733 48.504-28.01 28.915 16.812" stroke="#F2F2F2" stroke-width=".75" stroke-miterlimit="10" stroke-linejoin="round"/><path d="m125.923 156.801.151 55.733 48.504-27.995-24.327-13.869 24.176-41.864-48.504 27.995Zm-28.915-16.797 28.915 16.797m77.721 100.267-28.915-16.797-.151-55.732 48.504-28.01 28.915 16.812" stroke="#F2F2F2" stroke-width=".75" stroke-miterlimit="10" stroke-linejoin="round"/><path d="m203.493 201.335.151 55.733 48.504-27.994-24.328-13.869 24.177-41.864-48.504 27.994Zm-28.915-16.796 28.915 16.796m-57.981-89.341-28.915-16.797-.166-55.733 48.504-27.994 28.915 16.796" stroke="#F2F2F2" stroke-width=".75" stroke-miterlimit="10" stroke-linejoin="round"/><path d="m145.346 56.276.166 55.718 48.489-27.995-24.327-13.869 24.176-41.864-48.504 28.01Zm-28.915-16.812 28.915 16.812" stroke="#F2F2F2" stroke-width=".75" stroke-miterlimit="10" stroke-linejoin="round"/><path d="m223.082 156.529-28.916-16.797L194 83.999l48.504-27.994L271.42 72.8" stroke="#F2F2F2" stroke-width=".75" stroke-miterlimit="10" stroke-linejoin="round"/><path d="m222.916 100.796.166 55.733 48.504-27.995-24.343-13.869 24.177-41.864-48.504 27.995ZM194 84l28.916 16.796m58.299 200.807L252.3 284.791l-.151-55.732 48.504-27.995 28.9 16.797" stroke="#F2F2F2" stroke-width=".75" stroke-miterlimit="10" stroke-linejoin="round"/><path d="m281.064 245.871.151 55.732 48.504-28.009-24.327-13.854 24.161-41.879-48.489 28.01Zm-28.915-16.812 28.915 16.811m19.588-44.806-28.916-16.797-.166-55.733 48.504-28.009 28.916 16.811" stroke="#F2F2F2" stroke-width=".75" stroke-miterlimit="10" stroke-linejoin="round"/><path d="m300.486 145.331.166 55.733 48.489-28.01-24.328-13.854 24.177-41.864-48.504 27.995Zm-28.916-16.797 28.916 16.797m77.736 100.268-28.915-16.812-.166-55.718 48.504-28.01 28.915 16.797" stroke="#F2F2F2" stroke-width=".75" stroke-miterlimit="10" stroke-linejoin="round"/><path d="m378.056 189.866.166 55.733 48.504-28.01-24.342-13.854 24.176-41.879-48.504 28.01Zm-28.915-16.797 28.915 16.797m-57.981-89.342-28.916-16.796-.15-55.733L339.513 0l28.9 16.797" stroke="#F2F2F2" stroke-width=".75" stroke-miterlimit="10" stroke-linejoin="round"/><path d="m319.924 44.791.151 55.733 48.504-27.995-24.328-13.868 24.162-41.864-48.489 27.994Zm-28.915-16.796 28.915 16.796" stroke="#F2F2F2" stroke-width=".75" stroke-miterlimit="10" stroke-linejoin="round"/><path d="m397.645 145.059-28.915-16.797-.151-55.733 48.504-28.01 28.915 16.813" stroke="#F2F2F2" stroke-width=".75" stroke-miterlimit="10" stroke-linejoin="round"/><path d="m397.495 89.326.15 55.733 48.504-27.995-24.327-13.869 24.176-41.863-48.503 27.994ZM368.579 72.53l28.915 16.796m58.587 201.212-28.915-16.797-.166-55.733 48.504-28.01 28.915 16.812" stroke="#F2F2F2" stroke-width=".75" stroke-miterlimit="10" stroke-linejoin="round"/><path d="m455.915 234.805.166 55.733 48.504-27.995-24.342-13.869 24.176-41.864-48.504 27.995ZM427 218.008l28.915 16.797m19.589-44.806-28.915-16.797-.151-55.733 48.504-27.995 28.915 16.797" stroke="#F2F2F2" stroke-width=".75" stroke-miterlimit="10" stroke-linejoin="round"/><path d="m475.353 134.281.151 55.717 48.504-27.994-24.328-13.869 24.177-41.864-48.504 28.01Zm-28.915-16.812 28.915 16.812m58.298 200.792-28.915-16.797-.166-55.733 48.504-28.01 28.915 16.812" stroke="#F2F2F2" stroke-width=".75" stroke-miterlimit="10" stroke-linejoin="round"/><path d="m533.486 279.34.166 55.733 48.488-28.01-24.327-13.854 24.177-41.864-48.504 27.995Zm-28.916-16.797 28.915 16.797m19.589-44.807-28.916-16.796-.15-55.733 48.504-28.01 28.915 16.812" stroke="#F2F2F2" stroke-width=".75" stroke-miterlimit="10" stroke-linejoin="round"/><path d="m552.923 178.801.151 55.732 48.504-27.994-24.328-13.869 24.177-41.864-48.504 27.995Zm-28.915-16.797 28.915 16.797m77.721 100.267-28.915-16.797-.151-55.732 48.504-28.01 28.915 16.812" stroke="#F2F2F2" stroke-width=".75" stroke-miterlimit="10" stroke-linejoin="round"/><path d="m630.493 223.335.151 55.733 48.504-27.994-24.328-13.869 24.177-41.864-48.504 27.994Zm-28.915-16.796 28.915 16.796m-57.981-89.341-28.915-16.797-.166-55.733 48.504-27.994 28.915 16.796" stroke="#F2F2F2" stroke-width=".75" stroke-miterlimit="10" stroke-linejoin="round"/><path d="m572.346 78.276.166 55.718 48.489-27.995-24.327-13.869 24.176-41.864-48.504 28.01Zm-28.915-16.812 28.915 16.812" stroke="#F2F2F2" stroke-width=".75" stroke-miterlimit="10" stroke-linejoin="round"/><path d="m650.082 178.529-28.916-16.797-.166-55.733 48.504-27.995 28.915 16.797" stroke="#F2F2F2" stroke-width=".75" stroke-miterlimit="10" stroke-linejoin="round"/><path d="m649.916 122.796.166 55.733 48.504-27.995-24.343-13.869 24.177-41.864-48.504 27.995ZM621 105.999l28.915 16.797m58.3 200.807L679.3 306.791l-.151-55.732 48.504-27.995 28.9 16.797" stroke="#F2F2F2" stroke-width=".75" stroke-miterlimit="10" stroke-linejoin="round"/><path d="m708.064 267.871.151 55.732 48.504-28.009-24.328-13.854 24.162-41.879-48.489 28.01Zm-28.915-16.812 28.915 16.811m19.588-44.806-28.916-16.797-.166-55.733 48.504-28.009 28.916 16.811" stroke="#F2F2F2" stroke-width=".75" stroke-miterlimit="10" stroke-linejoin="round"/><path d="m727.486 167.331.166 55.733 48.488-28.01-24.327-13.854 24.177-41.864-48.504 27.995Zm-28.916-16.797 28.916 16.797m77.736 100.268-28.915-16.812-.166-55.718 48.504-28.01 28.915 16.797" stroke="#F2F2F2" stroke-width=".75" stroke-miterlimit="10" stroke-linejoin="round"/><path d="m805.056 211.866.166 55.733 48.504-28.01-24.342-13.854 24.176-41.879-48.504 28.01Zm-28.915-16.797 28.915 16.797m-57.981-89.342-28.916-16.797-.15-55.732L766.513 22l28.9 16.797" stroke="#F2F2F2" stroke-width=".75" stroke-miterlimit="10" stroke-linejoin="round"/><path d="m746.924 66.791.151 55.733 48.504-27.995-24.328-13.868 24.162-41.864-48.489 27.994Zm-28.915-16.796 28.915 16.796m77.721 100.268-28.915-16.797-.151-55.733 48.504-28.01 28.915 16.813" stroke="#F2F2F2" stroke-width=".75" stroke-miterlimit="10" stroke-linejoin="round"/><path d="m824.495 111.326.151 55.733 48.504-27.995-24.328-13.869 24.177-41.863-48.504 27.994ZM795.579 94.53l28.915 16.796" stroke="#F2F2F2" stroke-width=".75" stroke-miterlimit="10" stroke-linejoin="round"/></mask><g mask="url(#a)"><path fill="#fff" d="M0 83h873v276H0z"/></g></svg>