<svg width="353" height="411" fill="none" xmlns="http://www.w3.org/2000/svg"><path d="M23.852 375.004 1.13 361.806 1 318.011 39.114 296l22.722 13.211" stroke="#C4C4C4" stroke-width="1.75" stroke-miterlimit="10" stroke-linejoin="round"/><path d="m23.723 331.209.13 43.795 38.115-21.998-19.129-10.898 18.998-32.897-38.114 21.998ZM1 318.01l22.722 13.199M39.114 296l-22.722-13.199-.119-43.794 38.115-21.999 22.722 13.199" stroke="#C4C4C4" stroke-width="1.75" stroke-miterlimit="10" stroke-linejoin="round"/><path d="M38.996 252.217 39.115 296l38.114-21.998-19.116-10.898 18.998-32.897-38.115 22.01Zm-22.723-13.21 22.722 13.21M84.807 410l-22.721-13.199-.13-43.795 38.114-22.01 22.721 13.211" stroke="#C4C4C4" stroke-width="1.75" stroke-miterlimit="10" stroke-linejoin="round"/><path d="m84.678 366.205.13 43.795 38.103-22.01-19.117-10.887 18.998-32.896-38.114 21.998Zm-22.723-13.199 22.722 13.199m15.392-35.209-22.722-13.199-.118-43.795 38.114-22.01 22.722 13.211" stroke="#C4C4C4" stroke-width="1.75" stroke-miterlimit="10" stroke-linejoin="round"/><path d="m99.951 287.201.119 43.795 38.114-21.998-19.116-10.898 18.998-32.897-38.115 21.998Zm-22.723-13.199 22.722 13.199m61.074 78.791-22.722-13.199-.118-43.795 38.114-22.01 22.722 13.211" stroke="#C4C4C4" stroke-width="1.75" stroke-miterlimit="10" stroke-linejoin="round"/><path d="m160.906 322.197.119 43.795 38.114-21.999-19.116-10.898 18.998-32.897-38.115 21.999Zm-22.722-13.199 22.721 13.199m-45.561-70.205-22.721-13.199-.13-43.795L130.606 173l22.721 13.199" stroke="#C4C4C4" stroke-width="1.75" stroke-miterlimit="10" stroke-linejoin="round"/><path d="m115.215 208.209.13 43.783 38.103-21.998-19.117-10.898 18.998-32.897-38.114 22.01Zm-22.723-13.211 22.722 13.211" stroke="#C4C4C4" stroke-width="1.75" stroke-miterlimit="10" stroke-linejoin="round"/><path d="m176.297 286.988-22.721-13.199-.131-43.795 38.115-21.998 22.721 13.199" stroke="#C4C4C4" stroke-width="1.75" stroke-miterlimit="10" stroke-linejoin="round"/><path d="m176.168 243.193.13 43.795 38.115-21.999-19.128-10.898 18.997-32.896-38.114 21.998Zm-22.723-13.199 22.722 13.199m45.812 157.794-22.722-13.21-.118-43.795 38.114-21.999 22.71 13.199" stroke="#C4C4C4" stroke-width="1.75" stroke-miterlimit="10" stroke-linejoin="round"/><path d="m221.861 357.192.119 43.795 38.114-22.01-19.116-10.886 18.986-32.909-38.103 22.01Zm-22.722-13.21 22.721 13.21m15.392-35.209-22.721-13.198-.131-43.795 38.115-22.011 22.722 13.211" stroke="#C4C4C4" stroke-width="1.75" stroke-miterlimit="10" stroke-linejoin="round"/><path d="m237.123 278.188.13 43.795 38.103-22.01-19.116-10.886 18.998-32.897-38.115 21.998ZM214.4 264.99l22.722 13.198m61.086 78.791-22.722-13.211-.131-43.783 38.115-22.01 22.722 13.199" stroke="#C4C4C4" stroke-width="1.75" stroke-miterlimit="10" stroke-linejoin="round"/><path d="m298.078 313.184.131 43.795 38.114-22.01-19.128-10.886 18.998-32.909-38.115 22.01Zm-22.723-13.199 22.722 13.199m-45.561-70.205-22.722-13.199-.118-43.794 38.114-21.999 22.71 13.199" stroke="#C4C4C4" stroke-width="1.75" stroke-miterlimit="10" stroke-linejoin="round"/><path d="m252.398 199.185.119 43.794 38.115-21.998-19.117-10.898 18.986-32.897-38.103 21.999Zm-22.722-13.199 22.721 13.199m-64.617-45.801-22.722-13.199-.119-43.795 38.115-21.998 22.71 13.199" stroke="#C4C4C4" stroke-width="1.75" stroke-miterlimit="10" stroke-linejoin="round"/><path d="m187.662 109.589.119 43.795 38.114-21.998-19.116-10.899 18.986-32.896-38.103 21.998ZM164.939 96.39l22.722 13.199m64.933-29.597-22.721-13.199-.119-43.795L267.868 1l22.71 13.199" stroke="#C4C4C4" stroke-width="1.75" stroke-miterlimit="10" stroke-linejoin="round"/><path d="m252.477 36.197.118 43.795 38.115-21.998-19.117-10.898 18.986-32.897-38.102 21.998Zm-22.723-13.199 22.722 13.2m60.993 241.777-22.721-13.199-.119-43.795 38.114-22.01 22.722 13.211" stroke="#C4C4C4" stroke-width="1.75" stroke-miterlimit="10" stroke-linejoin="round"/><path d="m313.352 234.18.118 43.795 38.115-21.998-19.117-10.899 18.998-32.896-38.114 21.998Zm-22.723-13.199 22.722 13.199" stroke="#C4C4C4" stroke-width="1.75" stroke-miterlimit="10" stroke-linejoin="round"/></svg>