<svg width="875" height="337" fill="none" xmlns="http://www.w3.org/2000/svg"><path d="M30.081 269.538 1.166 252.741 1 197.008l48.504-28.01 28.915 16.812" stroke="#fff" stroke-width=".75" stroke-miterlimit="10" stroke-linejoin="round"/><path d="m29.915 213.805.166 55.733 48.504-27.995-24.342-13.869 24.176-41.864-48.504 27.995ZM1 197.008l28.915 16.797m19.589-44.807-28.915-16.796-.151-55.733 48.504-27.995 28.915 16.797" stroke="#fff" stroke-width=".75" stroke-miterlimit="10" stroke-linejoin="round"/><path d="m49.353 113.281.15 55.717 48.505-27.994-24.328-13.869 24.177-41.864-48.504 28.01ZM20.438 96.469l28.915 16.812m58.298 200.792-28.915-16.797-.166-55.733 48.504-28.01 28.915 16.812" stroke="#fff" stroke-width=".75" stroke-miterlimit="10" stroke-linejoin="round"/><path d="m107.485 258.34.166 55.733 48.489-28.01-24.327-13.854 24.176-41.864-48.504 27.995ZM78.57 241.543l28.915 16.797m19.589-44.807-28.915-16.797-.151-55.732 48.504-28.01 28.915 16.812" stroke="#fff" stroke-width=".75" stroke-miterlimit="10" stroke-linejoin="round"/><path d="m126.923 157.801.151 55.732 48.504-27.994-24.328-13.869 24.177-41.864-48.504 27.995Zm-28.915-16.797 28.915 16.796m77.721 100.268-28.915-16.797-.151-55.732 48.504-28.01 28.915 16.812" stroke="#fff" stroke-width=".75" stroke-miterlimit="10" stroke-linejoin="round"/><path d="m204.493 202.335.151 55.733 48.504-27.995-24.328-13.869 24.177-41.863-48.504 27.994Zm-28.915-16.796 28.915 16.796m-57.981-89.341-28.915-16.797-.166-55.733 48.504-27.994 28.915 16.797" stroke="#fff" stroke-width=".75" stroke-miterlimit="10" stroke-linejoin="round"/><path d="m146.346 57.276.166 55.718 48.489-27.995-24.327-13.869 24.176-41.863-48.504 28.01Zm-28.915-16.812 28.915 16.812" stroke="#fff" stroke-width=".75" stroke-miterlimit="10" stroke-linejoin="round"/><path d="m224.082 157.529-28.916-16.797L195 84.999l48.504-27.994L272.419 73.8" stroke="#fff" stroke-width=".75" stroke-miterlimit="10" stroke-linejoin="round"/><path d="m223.916 101.796.166 55.733 48.504-27.995-24.343-13.869 24.177-41.864-48.504 27.995ZM195 85l28.915 16.796m58.3 200.807L253.3 285.791l-.151-55.732 48.504-27.995 28.9 16.797" stroke="#fff" stroke-width=".75" stroke-miterlimit="10" stroke-linejoin="round"/><path d="m282.064 246.871.151 55.732 48.504-28.009-24.328-13.854 24.162-41.879-48.489 28.01Zm-28.915-16.812 28.915 16.811m19.588-44.806-28.916-16.797-.166-55.733 48.504-28.01 28.916 16.812" stroke="#fff" stroke-width=".75" stroke-miterlimit="10" stroke-linejoin="round"/><path d="m301.486 146.331.166 55.733 48.488-28.01-24.327-13.854 24.177-41.864-48.504 27.995Zm-28.916-16.797 28.916 16.797m77.736 100.268-28.915-16.812-.166-55.718 48.504-28.01 28.915 16.797" stroke="#fff" stroke-width=".75" stroke-miterlimit="10" stroke-linejoin="round"/><path d="m379.056 190.866.166 55.733 48.504-28.01-24.342-13.854 24.176-41.879-48.504 28.01Zm-28.915-16.797 28.915 16.797m-57.981-89.342-28.916-16.796-.15-55.733L340.513 1l28.9 16.797" stroke="#fff" stroke-width=".75" stroke-miterlimit="10" stroke-linejoin="round"/><path d="m320.924 45.791.151 55.733 48.504-27.995-24.328-13.869 24.162-41.863-48.489 27.994Zm-28.915-16.796 28.915 16.796" stroke="#fff" stroke-width=".75" stroke-miterlimit="10" stroke-linejoin="round"/><path d="m398.645 146.059-28.915-16.797-.151-55.733 48.504-28.01 28.915 16.813" stroke="#fff" stroke-width=".75" stroke-miterlimit="10" stroke-linejoin="round"/><path d="m398.494 90.326.151 55.733 48.504-27.995-24.327-13.869 24.176-41.863-48.504 27.994ZM369.579 73.53l28.915 16.796m58.587 201.212-28.915-16.797-.166-55.733 48.504-28.01 28.915 16.812" stroke="#fff" stroke-width=".75" stroke-miterlimit="10" stroke-linejoin="round"/><path d="m456.915 235.805.166 55.733 48.504-27.995-24.342-13.869 24.176-41.864-48.504 27.995ZM428 219.008l28.915 16.797m19.589-44.807-28.915-16.796-.151-55.733 48.504-27.995 28.915 16.797" stroke="#fff" stroke-width=".75" stroke-miterlimit="10" stroke-linejoin="round"/><path d="m476.353 135.281.151 55.717 48.504-27.994-24.328-13.87 24.177-41.863-48.504 28.01Zm-28.915-16.812 28.915 16.812m58.298 200.792-28.915-16.797-.166-55.733 48.504-28.01 28.915 16.812" stroke="#fff" stroke-width=".75" stroke-miterlimit="10" stroke-linejoin="round"/><path d="m534.485 280.34.166 55.733 48.489-28.01-24.327-13.854 24.176-41.864-48.504 27.995Zm-28.915-16.797 28.915 16.797m19.589-44.807-28.915-16.797-.151-55.732 48.504-28.01 28.915 16.812" stroke="#fff" stroke-width=".75" stroke-miterlimit="10" stroke-linejoin="round"/><path d="m553.923 179.8.151 55.733 48.504-27.995-24.327-13.869 24.176-41.863-48.504 27.994Zm-28.915-16.796 28.915 16.796m77.721 100.268-28.915-16.797-.151-55.732 48.504-28.01 28.915 16.812" stroke="#fff" stroke-width=".75" stroke-miterlimit="10" stroke-linejoin="round"/><path d="m631.493 224.335.151 55.733 48.504-27.995-24.327-13.869 24.176-41.863-48.504 27.994Zm-28.915-16.796 28.915 16.796m-57.981-89.341-28.915-16.797-.166-55.733 48.504-27.994 28.915 16.797" stroke="#fff" stroke-width=".75" stroke-miterlimit="10" stroke-linejoin="round"/><path d="m573.346 79.276.166 55.718 48.489-27.995-24.327-13.869 24.176-41.863-48.504 28.01Zm-28.915-16.812 28.915 16.812" stroke="#fff" stroke-width=".75" stroke-miterlimit="10" stroke-linejoin="round"/><path d="m651.082 179.529-28.916-16.797-.166-55.733 48.504-27.994L699.42 95.8" stroke="#fff" stroke-width=".75" stroke-miterlimit="10" stroke-linejoin="round"/><path d="m650.916 123.796.166 55.733 48.504-27.995-24.343-13.869 24.177-41.863-48.504 27.994ZM622 106.999l28.916 16.797m58.299 200.807L680.3 307.791l-.151-55.732 48.504-27.995 28.9 16.797" stroke="#fff" stroke-width=".75" stroke-miterlimit="10" stroke-linejoin="round"/><path d="m709.064 268.871.151 55.732 48.504-28.009-24.327-13.854 24.161-41.879-48.489 28.01Zm-28.915-16.812 28.915 16.811m19.588-44.806-28.916-16.797-.166-55.733 48.504-28.01 28.916 16.812" stroke="#fff" stroke-width=".75" stroke-miterlimit="10" stroke-linejoin="round"/><path d="m728.486 168.331.166 55.733 48.489-28.01-24.328-13.854 24.177-41.864-48.504 27.995Zm-28.916-16.797 28.916 16.797m77.736 100.268-28.915-16.812-.166-55.718 48.504-28.01 28.915 16.797" stroke="#fff" stroke-width=".75" stroke-miterlimit="10" stroke-linejoin="round"/><path d="m806.056 212.866.166 55.733 48.504-28.01-24.342-13.854 24.176-41.879-48.504 28.01Zm-28.915-16.797 28.915 16.797m-57.982-89.342-28.915-16.797-.151-55.732L767.512 23l28.9 16.797" stroke="#fff" stroke-width=".75" stroke-miterlimit="10" stroke-linejoin="round"/><path d="m747.924 67.791.151 55.733 48.504-27.994-24.328-13.87 24.162-41.863-48.489 27.995Zm-28.916-16.796 28.916 16.796m77.721 100.268-28.915-16.797-.151-55.733 48.504-28.01 28.915 16.813" stroke="#fff" stroke-width=".75" stroke-miterlimit="10" stroke-linejoin="round"/><path d="m825.495 112.326.151 55.733 48.504-27.995-24.328-13.869 24.177-41.863-48.504 27.994ZM796.579 95.53l28.915 16.796" stroke="#fff" stroke-width=".75" stroke-miterlimit="10" stroke-linejoin="round"/></svg>