<svg width="72" height="71" fill="none" xmlns="http://www.w3.org/2000/svg"><path d="M49.103 41.178 71.19 13.636c.221-.274.304-.634.227-.976a1.152 1.152 0 0 0-.62-.788L46.782.117l-.018-.006a1.523 1.523 0 0 0-.126-.05l-.049-.018a1.71 1.71 0 0 0-.18-.037c-.013 0-.029 0-.04-.003C46.32 0 46.271 0 46.222 0c-.021 0-.043.006-.064.006a1.359 1.359 0 0 0-.105.012l-33.823 6.6a1.15 1.15 0 0 0-.902.878l-11.3 49.67c-.003.012 0 .02-.003.033a.517.517 0 0 0-.016.074 1.729 1.729 0 0 0-.009.176v.006c.003.086.018.17.037.25.003.018.009.033.015.051.025.08.055.157.095.228l.019.031c.04.068.086.13.14.188.007.006.01.015.016.021.003.004.01.007.012.01.05.049.105.095.163.135l.034.019a.88.88 0 0 0 .116.067l24.017 11.757a1.161 1.161 0 0 0 .727.096l33.827-6.598h.002c.007 0 .013-.003.019-.006.064-.012.123-.034.18-.055a.33.33 0 0 1 .06-.025c.045-.021.088-.046.131-.07l.055-.038a.945.945 0 0 0 .135-.113c.006-.007.016-.013.025-.019.003-.003.003-.006.006-.006.028-.028.05-.059.074-.09.012-.018.03-.033.043-.052.021-.027.036-.061.055-.092.012-.022.024-.04.037-.065l.033-.083a.4.4 0 0 0 .031-.083l.015-.07a.628.628 0 0 0 .022-.106v-.006c.003-.024.003-.046.003-.07.003-.034.006-.068.006-.102 0-.03-.006-.062-.01-.092-.002-.028-.002-.059-.008-.087a.915.915 0 0 0-.025-.098c-.006-.025-.012-.05-.021-.074-.013-.04-.031-.077-.05-.117a8.873 8.873 0 0 0-.018-.046l-.003-.01s0-.002-.003-.002L49.103 41.177Zm-13.28 8.774-4.567-8.73-4.89-9.347 20.52 10.045 9.454 18.078-20.516-10.046Zm11.587-10.35-21.893-10.72L42.111 8.187l4.485-5.588 21.89 10.717L47.41 39.602ZM13.406 8.746l29.998-5.852-20.587 25.669c-.006.006-.01.015-.015.024a1.288 1.288 0 0 0-.123.194v.003c-.01.016-.012.034-.018.05l-.019.043c-.015.04-.027.08-.04.12-.006.018-.009.04-.012.058a1.194 1.194 0 0 0-.015.102c-.003.015-.003.027-.003.043 0 .018-.003.037-.003.052 0 .013-.003.022-.003.034a1.204 1.204 0 0 0 .027.25c.003.012.01.021.012.033.016.059.034.117.062.176.009.018.015.037.021.052l.01.025L33.24 49.983 2.669 55.95 13.405 8.746Zm11.92 59.225L4.752 57.898l30.069-5.865 20.574 10.073-30.069 5.865Z" fill="#00B09D"/></svg>