<svg width="262" height="36" fill="none" xmlns="http://www.w3.org/2000/svg"><path d="M2.912 34.45c-1.292 0-2.089-1.41-1.421-2.518L18.41 3.873c.3-.498.84-.803 1.421-.803h8.336c1.287 0 2.085 1.4 1.428 2.507L20.83 20.361c-.656 1.106.142 2.507 1.428 2.507h3.26c1.302 0 2.097 1.43 1.411 2.535l-5.61 9.047H2.912zm38.353 0a1.245 1.245 0 01-1.059-1.901l5.639-9.092a1.245 1.245 0 011.058-.59h6.093a1.245 1.245 0 011.058 1.902l-5.638 9.092a1.245 1.245 0 01-1.058.59h-6.093zm3.509-31.38c-.6 0-1.16.31-1.478.82L25.877 31.783c-.725 1.162.11 2.667 1.479 2.667h7.748c.598 0 1.153-.306 1.473-.81l13.266-20.947c.452.9 1.753.848 2.133-.084l3.886-9.539H44.773z" fill="#FF6C02"/><path d="M55.861 3.07l-3.885 9.539c-.38.932-1.681.984-2.133.084L55.86 3.07z" fill="#FF6C02"/><path d="M69.844 34.45a1.743 1.743 0 001.535-2.57L55.861 3.07l-6.018 9.623L60.294 33.49c.297.589.9.96 1.558.96h7.992z" fill="#FF6C02"/><path d="M83.99 29.71c-.486 0-.858.182-1.116.546-.257.363-.386.862-.386 1.494 0 .638.118 1.133.353 1.486.24.347.624.52 1.15.52.246 0 .49-.028.73-.084.246-.055.512-.134.798-.235v1.067a4.268 4.268 0 01-.781.235 4.52 4.52 0 01-.865.075c-.615 0-1.125-.126-1.528-.378a2.29 2.29 0 01-.881-1.074c-.19-.465-.285-1.005-.285-1.62 0-.605.109-1.14.327-1.604a2.54 2.54 0 01.949-1.091c.42-.263.931-.395 1.536-.395.296 0 .593.04.89.118.302.073.59.173.864.302l-.411 1.033a6.426 6.426 0 00-.68-.277 2 2 0 00-.663-.118zm9.556 5.02l-1.444-4.7h-.034a24743.699 24743.699 0 01.06 1.225c.01.252.016.481.016.688v2.787h-1.133v-5.994h1.73l1.418 4.584h.025l1.503-4.584h1.73v5.994h-1.185v-2.837c0-.19.003-.409.009-.655.011-.246.02-.479.025-.697l.025-.503h-.033l-1.545 4.692h-1.167zm13.271 0l-.436-1.427h-2.183l-.437 1.427h-1.368l2.116-6.019h1.553l2.124 6.02h-1.369zm-.739-2.493l-.436-1.394a27.471 27.471 0 00-.109-.36 44.31 44.31 0 01-.135-.445 11.082 11.082 0 01-.109-.395 10.17 10.17 0 01-.117.42c-.045.162-.09.319-.135.47a3.964 3.964 0 01-.092.31l-.428 1.394h1.561zm11.224-2.099c0 .403-.143.728-.428.974-.286.246-.65.4-1.092.462v.025c.549.056.969.21 1.26.462.296.246.444.568.444.965 0 .526-.215.957-.646 1.293-.425.33-1.052.495-1.88.495-.454 0-.857-.028-1.209-.084a4.097 4.097 0 01-.907-.243V33.42c.174.084.369.156.588.218.218.056.439.1.663.134.224.028.431.042.621.042.532 0 .915-.075 1.15-.226a.74.74 0 00.361-.655c0-.286-.173-.493-.52-.621-.347-.135-.815-.202-1.402-.202h-.563v-.99h.504c.476 0 .845-.031 1.108-.093.263-.061.448-.151.554-.269a.602.602 0 00.16-.42.55.55 0 00-.277-.486c-.179-.123-.451-.185-.815-.185-.307 0-.598.045-.873.134a3.59 3.59 0 00-.755.353l-.554-.848c.308-.201.649-.36 1.024-.478s.82-.177 1.335-.177c.677 0 1.203.14 1.578.42.381.28.571.635.571 1.066zm10.963 1.587c0 .621-.104 1.164-.311 1.628a2.326 2.326 0 01-.931 1.075c-.42.258-.957.386-1.612.386-.649 0-1.187-.129-1.612-.386a2.366 2.366 0 01-.94-1.083c-.202-.464-.303-1.007-.303-1.628 0-.622.101-1.162.303-1.62.207-.46.52-.815.94-1.067.425-.257.965-.386 1.62-.386.649 0 1.184.129 1.604.386.419.252.73.61.931 1.075.207.459.311.999.311 1.62zm-4.374 0c0 .627.121 1.122.361 1.486.241.358.627.537 1.159.537.543 0 .932-.18 1.167-.537.235-.364.352-.86.352-1.486 0-.633-.117-1.128-.352-1.486-.235-.358-.622-.537-1.159-.537s-.926.179-1.167.537c-.24.358-.361.853-.361 1.486zm14.27 3.005h-1.267v-2.317a7.769 7.769 0 01-.974.277 4.252 4.252 0 01-.881.093c-.56 0-.999-.135-1.318-.403-.314-.275-.471-.664-.471-1.167v-2.477h1.268v2.116c0 .29.067.51.202.655.134.145.361.218.68.218.235 0 .47-.025.705-.076.235-.05.498-.126.789-.226v-2.687h1.267v5.994zm10.637 0h-1.268v-2.585h-2.375v2.585h-1.268v-5.994h1.268v2.35h2.375v-2.35h1.268v5.994zm9.395 0l-.436-1.427h-2.183l-.437 1.427h-1.368l2.116-6.019h1.553l2.124 6.02h-1.369zm-.739-2.493l-.436-1.394a27.471 27.471 0 00-.109-.36 44.31 44.31 0 01-.135-.445 11.082 11.082 0 01-.109-.395 10.17 10.17 0 01-.117.42c-.045.162-.09.319-.135.47a3.964 3.964 0 01-.092.31l-.428 1.394h1.561zm9.1.193l-1.402 2.3h-1.41l1.704-2.636a2.031 2.031 0 01-.487-.294 1.56 1.56 0 01-.403-.529 1.913 1.913 0 01-.16-.822c0-.554.199-.977.596-1.268.398-.296.955-.445 1.671-.445h1.948v5.994h-1.268v-2.3h-.789zm.789-2.653h-.63c-.324 0-.579.059-.764.176-.179.118-.268.314-.268.588 0 .263.087.473.26.63.179.15.448.227.806.227h.596v-1.62zm18.627 4.953h-1.444l-2.174-3.039v3.04h-1.268v-5.995h1.268v2.905l2.149-2.905h1.351l-2.182 2.88 2.3 3.114zm10.249-3.005c0 .621-.104 1.164-.311 1.628a2.328 2.328 0 01-.932 1.075c-.42.258-.957.386-1.612.386-.649 0-1.186-.129-1.611-.386a2.368 2.368 0 01-.941-1.083c-.201-.464-.302-1.007-.302-1.628 0-.622.101-1.162.302-1.62.207-.46.521-.815.941-1.067.425-.257.965-.386 1.62-.386.649 0 1.183.129 1.603.386.42.252.73.61.932 1.075.207.459.311.999.311 1.62zm-4.374 0c0 .627.12 1.122.361 1.486.24.358.627.537 1.158.537.543 0 .932-.18 1.167-.537.235-.364.353-.86.353-1.486 0-.633-.118-1.128-.353-1.486-.235-.358-.621-.537-1.158-.537-.538 0-.927.179-1.167.537-.241.358-.361.853-.361 1.486zm12.369 3.005l-1.444-4.7h-.034l.026.503.033.722c.011.252.017.481.017.688v2.787h-1.133v-5.994h1.729l1.419 4.584h.025l1.503-4.584h1.729v5.994H206.9v-2.837c0-.19.003-.409.009-.655.011-.246.019-.479.025-.697l.025-.503h-.034l-1.544 4.692h-1.167zm9.602 0v-5.994h4.744v5.994h-1.268v-4.936h-2.208v4.936h-1.268zm14.143 0l-.437-1.427h-2.183l-.436 1.427h-1.369l2.116-6.019h1.553l2.124 6.02h-1.368zm-.739-2.493l-.437-1.394a27.471 27.471 0 00-.109-.36l-.134-.445a9.294 9.294 0 01-.109-.395 8.94 8.94 0 01-.118.42c-.045.162-.089.319-.134.47-.039.145-.07.249-.092.31l-.429 1.394h1.562zm11.996 2.493h-1.268v-2.585h-2.376v2.585h-1.267v-5.994h1.267v2.35h2.376v-2.35h1.268v5.994zm5.726-5.994h1.142v2.896c0 .14-.003.297-.009.47l-.016.513-.017.428a3.724 3.724 0 01-.017.243h.025l2.771-4.55h1.519v5.994h-1.133v-2.88c0-.15.002-.315.008-.495l.017-.528c.011-.168.019-.314.025-.437.011-.129.02-.213.025-.252h-.033l-2.779 4.592h-1.528v-5.994zm13.144 3.694l-1.402 2.3h-1.41l1.704-2.636a2.07 2.07 0 01-.487-.294 1.573 1.573 0 01-.403-.529c-.106-.223-.159-.498-.159-.822 0-.554.198-.977.596-1.268.397-.296.954-.445 1.67-.445h1.948v5.994h-1.268v-2.3h-.789zm.789-2.653h-.629c-.325 0-.579.059-.764.176-.179.118-.269.314-.269.588 0 .263.087.473.26.63.18.15.448.227.806.227h.596v-1.62zM85.702 3.117v11.625l9.083-11.625h4.932V22.09h-4.932v-11.6l-9.083 11.6H80.77V3.117h4.932zm25.504 7.322h7.121V3.117h4.932V22.09h-4.932v-7.825h-7.121v7.825h-4.931V3.117h4.931v7.322zm25.803-3.145V22.09h-4.931V7.294h-4.051V3.117h13.033v4.177h-4.051zm20.121 0h-5.862v3.17h5.535v4.177h-5.535v3.271h5.862v4.177h-10.794V3.117h10.794v4.177zm11.318 4.53h1.636c1.811 0 2.717-.79 2.717-2.366 0-1.577-.906-2.365-2.717-2.365h-1.636v4.73zm0 10.265h-4.931V3.117h7.85c2.13 0 3.757.554 4.881 1.661 1.141 1.107 1.711 2.667 1.711 4.68s-.57 3.573-1.711 4.68c-1.124 1.107-2.751 1.66-4.881 1.66h-2.919v6.291zm23.758-7.045l-2.214-6.316-2.214 6.316h4.428zm1.309 3.749h-7.045l-1.133 3.296h-5.258L187.3 3.117h5.384l7.222 18.972h-5.259l-1.132-3.296zm16.084-.528h1.082c1.241 0 2.13-.16 2.667-.479.537-.318.805-.83.805-1.534 0-.705-.268-1.216-.805-1.535-.537-.319-1.426-.478-2.667-.478h-1.082v4.026zm0-7.7h.906c1.543 0 2.314-.612 2.314-1.837 0-1.224-.771-1.836-2.314-1.836h-.906v3.673zm-4.932-7.448h7.347c1.745 0 3.07.42 3.976 1.259.906.838 1.358 2.046 1.358 3.623 0 .956-.176 1.753-.528 2.39-.335.62-.855 1.15-1.56 1.585.705.134 1.3.344 1.786.63.504.268.906.603 1.208 1.006.319.402.545.855.68 1.359.134.503.201 1.04.201 1.61 0 .889-.159 1.677-.478 2.365a4.618 4.618 0 01-1.309 1.736c-.553.47-1.232.822-2.038 1.057-.805.235-1.711.352-2.717.352h-7.926V3.117zm27.197 4.177V22.09h-4.932V7.294h-4.051V3.117h13.033v4.177h-4.05zm12.954 5.31c0 .754.142 1.45.427 2.088a5.286 5.286 0 001.158 1.66c.486.47 1.048.839 1.686 1.107a5.697 5.697 0 002.063.378 5.5 5.5 0 002.038-.378 5.378 5.378 0 001.711-1.107 5.042 5.042 0 001.61-3.749 5.042 5.042 0 00-1.61-3.749 5.044 5.044 0 00-1.711-1.082 5.197 5.197 0 00-2.038-.402 5.39 5.39 0 00-2.063.402c-.638.252-1.2.613-1.686 1.082a5.287 5.287 0 00-1.158 1.66 5.058 5.058 0 00-.427 2.09zm-5.158 0c0-1.41.26-2.718.78-3.926a9.798 9.798 0 012.163-3.195c.923-.906 2.022-1.61 3.297-2.114 1.291-.52 2.709-.78 4.252-.78 1.526 0 2.935.26 4.227.78 1.292.503 2.399 1.208 3.321 2.114a9.595 9.595 0 012.189 3.195c.52 1.208.78 2.516.78 3.925 0 1.41-.26 2.726-.78 3.95a9.663 9.663 0 01-2.189 3.17c-.922.907-2.029 1.62-3.321 2.14-1.292.503-2.701.755-4.227.755-1.543 0-2.961-.252-4.252-.755-1.275-.52-2.374-1.233-3.297-2.14a9.869 9.869 0 01-2.163-3.17c-.52-1.224-.78-2.54-.78-3.95z" fill="#25373F"/><path fill="#fff" d="M57.397.662l1.964 1.228-8.916 14.26-1.964-1.228z"/></svg>