<svg xmlns="http://www.w3.org/2000/svg" viewBox="0 0 512 512"><path fill="#338af3" d="M0 85.331h512v341.337H0z"/><g fill="#f0f0f0"><path d="M256.248 197.043c-32.628 0-59.077 26.449-59.077 59.077s26.449 59.077 59.077 59.077c32.627 0 59.077-26.449 59.077-59.077s-26.451-59.077-59.077-59.077zm-14.77 59.077c0-8.156 6.613-14.769 14.769-14.769 8.156 0 14.769 6.613 14.769 14.769 0 8.158-6.613 14.769-14.769 14.769-8.156 0-14.769-6.612-14.769-14.769zm30.082-25.265a29.411 29.411 0 00-7.437-3.204v-15.127a44.067 44.067 0 0118.076 7.692l-10.639 10.639zm-22.205-3.457a29.31 29.31 0 00-7.796 3.098l-10.689-10.689a44.069 44.069 0 0118.483-7.46v15.051h.002zm-7.796 54.346a29.425 29.425 0 007.795 3.098v15.049a44.043 44.043 0 01-18.483-7.46l10.688-10.687zm22.565 2.845a29.353 29.353 0 007.436-3.204l10.638 10.638a44.05 44.05 0 01-18.075 7.692v-15.126zm17.746-13.781a29.39 29.39 0 002.985-7.304h15.075a44.048 44.048 0 01-7.372 17.991l-10.688-10.687zm2.986-22.073a29.346 29.346 0 00-2.985-7.303l10.689-10.689a44.048 44.048 0 017.372 17.991h-15.076zm-64.511-18.567l10.638 10.638a29.346 29.346 0 00-3.344 7.928h-15.075a44.08 44.08 0 017.781-18.566zm-7.78 33.336h15.075a29.346 29.346 0 003.344 7.928l-10.638 10.638a44.033 44.033 0 01-7.781-18.566z"/><path d="M352.248 256.12c0-26.259-10.547-50.052-27.631-67.385L308.952 204.4c13.075 13.323 21.143 31.578 21.143 51.72 0 40.784-33.063 73.846-73.846 73.846-40.785 0-73.846-33.062-73.846-73.846 0-20.393 8.265-38.854 21.629-52.217l-15.665-15.665c-17.372 17.372-28.118 41.373-28.118 67.882 0 43.931 29.509 80.969 69.787 92.377-4.415 8.389-3.743 18.951 2.564 26.822l24.141-19.346 24.141 19.346c6.371-7.95 6.998-18.646 2.434-27.075 39.837-11.686 68.932-48.505 68.932-92.124z"/></g></svg>