<svg xmlns="http://www.w3.org/2000/svg" viewBox="0 0 512 512"><path fill="#fff" d="M0 85.331h512v341.337H0z"/><path d="M318.33 255.994c0 15.583-27.906 54.539-62.33 54.539s-62.33-38.957-62.33-54.539c0-34.424 27.906-62.33 62.33-62.33s62.33 27.906 62.33 62.33z" fill="#d80027"/><path d="M318.33 255.994c0 34.424-27.906 62.33-62.33 62.33s-62.33-27.906-62.33-62.33" fill="#0052b4"/><path d="M322.114 311.096l16.528-16.528 11.018 11.018-16.528 16.528zm-27.548 27.534l16.528-16.527 11.018 11.018-16.528 16.528zm60.604 5.502l16.527-16.528 11.018 11.018-16.527 16.528zm-27.549 27.557l16.528-16.528 11.018 11.018-16.528 16.528zm11.02-44.075l16.528-16.527 11.018 11.018-16.527 16.527zm-27.547 27.546l16.528-16.528 11.018 11.018-16.528 16.527zm44.083-154.264l-44.073-44.073 11.018-11.018 44.073 44.073zm-44.078-11.015l-16.528-16.527 11.017-11.018 16.528 16.528zm27.536 27.55l-16.528-16.527 11.017-11.018 16.528 16.528zm5.5-60.606l-16.528-16.528 11.018-11.018 16.528 16.528zm27.559 27.549l-16.528-16.527 11.019-11.019 16.527 16.528zM140.31 327.61l44.073 44.074-11.018 11.018-44.074-44.073zm44.058 11.025l16.527 16.527-11.017 11.018-16.528-16.528zm-27.536-27.548l16.528 16.528-11.019 11.018-16.527-16.528zm16.531-16.523l44.073 44.073-11.018 11.019-44.073-44.074zm11.021-154.277l-44.073 44.074-11.018-11.018 44.073-44.074zm16.511 16.536l-44.073 44.074-11.018-11.018 44.073-44.074zm16.529 16.528l-44.074 44.074-11.017-11.017 44.074-44.074z"/></svg>