<svg xmlns="http://www.w3.org/2000/svg" viewBox="0 0 512 512"><path fill="#0052b4" d="M0 85.337h512v341.326H0z"/><path fill="#ffda44" d="M0 85.337h512v85.337H0z"/><path fill="#f0f0f0" d="M0 170.663h512V256H0z"/><path fill="#d80027" d="M0 256h512v85.337H0z"/><path fill="#6da544" d="M256 256.006L0 426.668V85.331z"/><g fill="#f0f0f0"><path d="M68.638 256c0-24.865 17.476-45.638 40.812-50.734a52.059 52.059 0 00-11.13-1.208c-28.688 0-51.942 23.255-51.942 51.942s23.255 51.942 51.942 51.942c3.822 0 7.543-.425 11.13-1.208-23.337-5.096-40.812-25.869-40.812-50.734z"/><path d="M108.877 211.478l2.762 8.503h8.94l-7.232 5.256 2.762 8.502-7.232-5.255-7.234 5.255 2.764-8.502-7.234-5.256h8.94zm0 22.261l2.762 8.503h8.94l-7.232 5.255 2.762 8.503-7.232-5.255-7.234 5.255 2.764-8.503-7.234-5.255h8.94zm0 22.261l2.762 8.503h8.94l-7.232 5.255 2.762 8.503-7.232-5.255-7.234 5.255 2.764-8.503-7.234-5.255h8.94zm0 22.261l2.762 8.502h8.94l-7.232 5.256 2.762 8.503-7.232-5.255-7.234 5.255 2.764-8.503-7.234-5.256h8.94z"/></g></svg>