<svg xmlns="http://www.w3.org/2000/svg" viewBox="0 0 509.85 509.85"><g fill="#f0f0f0"><path d="M0 84.975h509.85v339.904H0z"/><path d="M0 84.975h509.85v169.946H0z"/></g><path fill="#d80027" d="M0 154.015h509.85v31.866H0z"/><path d="M379.051 199.5l130.799 32.699V199.5zm-90.875 0l221.674 55.418v-15.672L350.861 199.5zm162.628 55.418l-162.628-40.661v40.661z" fill="#0052b4"/><path fill="#f0f0f0" d="M288.176 199.5l221.674 55.418v-15.672L350.861 199.5z"/><path fill="#d80027" d="M288.176 199.5l221.674 55.418v-15.672L350.861 199.5z"/><path d="M99.957 199.499L0 224.487v-24.988zm121.717 7.047v48.371H28.205z" fill="#0052b4"/><path fill="#d80027" d="M158.988 199.5L0 239.246v15.672L221.674 199.5z"/><path d="M130.799 140.389L0 107.69v32.699zm90.875 0L0 84.971v15.671l158.989 39.747zM59.046 84.971l162.628 40.66v-40.66z" fill="#0052b4"/><path fill="#f0f0f0" d="M221.674 140.389L0 84.971v15.671l158.989 39.747z"/><path fill="#d80027" d="M221.674 140.389L0 84.971v15.671l158.989 39.747z"/><path d="M409.893 140.39l99.957-24.989v24.989zm-121.717-7.048V84.973h193.469z" fill="#0052b4"/><path d="M350.862 140.389l158.988-39.746V84.971l-221.674 55.418zM238.998 84.975h31.855v169.946h-31.855z" fill="#d80027"/><path d="M509.85 270.693v22.234c-4.411.743-12.802 5.497-19.053 9.055-10.906 6.196-21.214 12.048-31.068 12.048-9.864 0-20.161-5.852-31.079-12.048-6.805-3.868-16.127-9.155-20.128-9.155-4.001 0-13.323 5.287-20.128 9.155-10.906 6.196-21.214 12.048-31.068 12.048s-20.161-5.852-31.079-12.048c-6.805-3.868-16.127-9.155-20.128-9.155-3.99 0-13.312 5.287-20.117 9.155-10.917 6.196-21.225 12.048-31.079 12.048s-20.161-5.852-31.079-12.048c-6.805-3.868-16.127-9.155-20.117-9.155-4.001 0-13.323 5.287-20.128 9.155-10.917 6.196-21.225 12.048-31.079 12.048-9.853 0-20.161-5.852-31.068-12.048-6.805-3.868-16.127-9.155-20.128-9.155s-13.323 5.287-20.128 9.155c-10.917 6.196-21.214 12.048-31.079 12.048-9.853 0-20.161-5.852-31.068-12.048-6.247-3.557-14.638-8.312-19.049-9.055v-22.234c9.521.388 19.485 6.041 30.004 12.015 6.805 3.857 16.127 9.155 20.117 9.155 4.001 0 13.323-5.298 20.128-9.155 10.917-6.196 21.225-12.048 31.079-12.048s20.161 5.852 31.068 12.048c6.805 3.857 16.127 9.155 20.128 9.155 4.001 0 13.323-5.298 20.128-9.155 10.917-6.196 21.214-12.048 31.079-12.048 9.853 0 20.161 5.852 31.068 12.048 6.805 3.857 16.127 9.155 20.128 9.155s13.323-5.298 20.128-9.155c10.906-6.196 21.214-12.048 31.068-12.048 9.864 0 20.161 5.852 31.079 12.048 6.805 3.857 16.127 9.155 20.128 9.155s13.323-5.298 20.128-9.155c10.906-6.196 21.214-12.048 31.068-12.048 9.853 0 20.161 5.852 31.079 12.048 6.805 3.857 16.127 9.155 20.128 9.155 3.99 0 13.312-5.298 20.117-9.155 10.515-5.974 20.479-11.627 30-12.015zm0 55.419v22.234c-4.411.743-12.802 5.497-19.053 9.055-10.906 6.196-21.214 12.048-31.068 12.048-9.864 0-20.161-5.852-31.079-12.048-6.805-3.868-16.127-9.155-20.128-9.155-4.001 0-13.323 5.287-20.128 9.155-10.906 6.196-21.214 12.048-31.068 12.048s-20.161-5.852-31.079-12.048c-6.805-3.868-16.127-9.155-20.128-9.155-3.99 0-13.312 5.287-20.117 9.155-10.917 6.196-21.225 12.048-31.079 12.048s-20.161-5.852-31.079-12.048c-6.805-3.868-16.127-9.155-20.117-9.155-4.001 0-13.323 5.287-20.128 9.155-10.917 6.196-21.225 12.048-31.079 12.048-9.853 0-20.161-5.852-31.068-12.048-6.805-3.868-16.127-9.155-20.128-9.155s-13.323 5.287-20.128 9.155c-10.917 6.196-21.214 12.048-31.079 12.048-9.853 0-20.161-5.852-31.068-12.048-6.251-3.558-14.642-8.313-19.053-9.055v-22.234c9.521.388 19.485 6.041 30.004 12.015 6.805 3.857 16.127 9.155 20.117 9.155 4.001 0 13.323-5.298 20.128-9.155 10.917-6.196 21.225-12.048 31.079-12.048s20.161 5.852 31.068 12.048c6.805 3.857 16.127 9.155 20.128 9.155 4.001 0 13.323-5.298 20.128-9.155 10.917-6.196 21.214-12.048 31.079-12.048 9.853 0 20.161 5.852 31.068 12.048 6.805 3.857 16.127 9.155 20.128 9.155s13.323-5.298 20.128-9.155c10.906-6.196 21.214-12.048 31.068-12.048 9.864 0 20.161 5.852 31.079 12.048 6.805 3.857 16.127 9.155 20.128 9.155s13.323-5.298 20.128-9.155c10.906-6.196 21.214-12.048 31.068-12.048 9.853 0 20.161 5.852 31.079 12.048 6.805 3.857 16.127 9.155 20.128 9.155 3.99 0 13.312-5.298 20.117-9.155 10.519-5.975 20.483-11.628 30.004-12.015zm0 55.418v22.234c-4.411.743-12.802 5.497-19.053 9.055-10.906 6.196-21.214 12.048-31.068 12.048-9.864 0-20.161-5.852-31.079-12.048-6.805-3.868-16.127-9.155-20.128-9.155-4.001 0-13.323 5.287-20.128 9.155-10.906 6.196-21.214 12.048-31.068 12.048s-20.161-5.852-31.079-12.048c-6.805-3.868-16.127-9.155-20.128-9.155-3.99 0-13.312 5.287-20.117 9.155-10.917 6.196-21.225 12.048-31.079 12.048s-20.161-5.852-31.079-12.048c-6.805-3.868-16.127-9.155-20.117-9.155-4.001 0-13.323 5.287-20.128 9.155-10.917 6.196-21.225 12.048-31.079 12.048-9.853 0-20.161-5.852-31.068-12.048-6.805-3.868-16.127-9.155-20.128-9.155s-13.323 5.287-20.128 9.155c-10.917 6.196-21.214 12.048-31.079 12.048-9.853 0-20.161-5.852-31.068-12.048-6.251-3.558-14.642-8.313-19.053-9.055V381.53c9.521.388 19.485 6.041 30.004 12.015 6.805 3.857 16.127 9.155 20.117 9.155 4.001 0 13.323-5.298 20.128-9.155 10.917-6.196 21.225-12.048 31.079-12.048s20.161 5.852 31.068 12.048c6.805 3.857 16.127 9.155 20.128 9.155 4.001 0 13.323-5.298 20.128-9.155 10.917-6.196 21.214-12.048 31.079-12.048 9.853 0 20.161 5.852 31.068 12.048 6.805 3.857 16.127 9.155 20.128 9.155s13.323-5.298 20.128-9.155c10.906-6.196 21.214-12.048 31.068-12.048 9.864 0 20.161 5.852 31.079 12.048 6.805 3.857 16.127 9.155 20.128 9.155s13.323-5.298 20.128-9.155c10.906-6.196 21.214-12.048 31.068-12.048 9.853 0 20.161 5.852 31.079 12.048 6.805 3.857 16.127 9.155 20.128 9.155 3.99 0 13.312-5.298 20.117-9.155 10.519-5.974 20.483-11.627 30.004-12.015z" fill="#0052b4"/><path fill="#ffda44" d="M306.463 388.055l18.96-34.485-38.667 7.395-4.899-39.06-26.932 28.728-26.931-28.728-4.901 39.06-38.665-7.395 18.961 34.484-35.608 16.75 35.607 16.747-1.824 3.32h106.721l-1.824-3.319 35.608-16.748z"/></svg>