<svg xmlns="http://www.w3.org/2000/svg" viewBox="0 0 512 512"><path fill="#496e2d" d="M0 85.334h512v341.337H0z"/><path fill="#0052b4" d="M0 426.663V85.329h512"/><path fill="#ffda44" d="M0 396.494v30.169h45.255L512 115.499v-30.17h-45.255z"/><path d="M85.688 108.787l5.12 15.756h16.566l-13.403 9.737 5.12 15.757-13.403-9.738-13.405 9.738 5.12-15.757L64 124.543h16.567zm84.624 0l5.121 15.756H192l-13.403 9.737 5.12 15.757-13.405-9.738-13.403 9.738 5.12-15.757-13.403-9.737h16.566zm-84.624 82.502l5.12 15.756h16.566l-13.403 9.738 5.12 15.757-13.403-9.739-13.405 9.739 5.12-15.757L64 207.045h16.567zm84.624 0l5.121 15.756H192l-13.403 9.738 5.12 15.757-13.405-9.739-13.403 9.739 5.12-15.757-13.403-9.738h16.566zM128 150.037l5.12 15.756h16.568l-13.405 9.738 5.12 15.758L128 181.55l-13.403 9.739 5.12-15.758-13.405-9.738h16.568z" fill="#f0f0f0"/></svg>