<svg xmlns="http://www.w3.org/2000/svg" viewBox="0 0 512 512"><path fill="#f0f0f0" d="M0 85.333h512V426.67H0z"/><path d="M115.71 117.564c-13.831 0-25.452 9.46-28.747 22.261l28.747 7.421 28.747-7.421c-3.295-12.803-14.917-22.261-28.747-22.261z"/><path d="M86.029 184.346l37.101 7.421v-15.776c10.429-2.686 18.639-10.897 21.324-21.326l-28.744-7.421H78.609l7.421 22.261v14.841z"/><path d="M144.456 139.824H78.609v29.68h7.421v-14.84h58.426a29.848 29.848 0 000-14.84z" fill="#acabb1"/><path d="M403.71 117.564c-13.831 0-25.452 9.46-28.747 22.261l28.747 7.421 28.747-7.421c-3.295-12.803-14.917-22.261-28.747-22.261z"/><path d="M374.029 184.346l37.101 7.421v-15.776c10.429-2.686 18.639-10.897 21.324-21.326l-28.744-7.421h-37.101l7.421 22.261-.001 14.841z"/><path d="M432.456 139.824h-65.848v29.68h7.421v-14.84h58.426c.611-2.372.937-4.858.937-7.421a29.8 29.8 0 00-.936-7.419z" fill="#acabb1"/><path d="M403.71 320.226c-13.831 0-25.452 9.46-28.747 22.261l28.747 7.421 28.747-7.421c-3.295-12.802-14.917-22.261-28.747-22.261z"/><path d="M374.029 387.009l37.101 7.421v-15.776c10.429-2.686 18.639-10.897 21.324-21.326l-28.744-7.421h-37.101l7.421 22.261-.001 14.841z"/><path d="M432.456 342.487h-65.848v29.68h7.421v-14.84h58.426c.611-2.372.937-4.858.937-7.421a29.8 29.8 0 00-.936-7.419z" fill="#acabb1"/><path d="M115.71 320.226c-13.831 0-25.452 9.46-28.747 22.261l28.747 7.421 28.747-7.421c-3.295-12.802-14.917-22.261-28.747-22.261z"/><path d="M86.029 387.009l37.101 7.421v-15.776c10.429-2.686 18.639-10.897 21.324-21.326l-28.744-7.421H78.609l7.421 22.261v14.841z"/><path d="M144.456 342.487H78.609v29.68h7.421v-14.84h58.426a29.848 29.848 0 000-14.84z" fill="#acabb1"/><path fill="#d80027" d="M288 85.33h-64v138.666H0v64h224v138.666h64V287.996h224v-64H288z"/></svg>