<svg xmlns="http://www.w3.org/2000/svg" viewBox="0 0 512 512"><path fill="#338af3" d="M0 85.331h512v341.337H0z"/><path d="M255.999 159.53l7.367 22.674h23.843l-19.288 14.016 7.367 22.673-19.289-14.013-19.288 14.013 7.368-22.673-19.288-14.016h23.842zm-96.463 96.466l22.674-7.368v-23.842l14.015 19.288 22.674-7.368-14.013 19.29 14.013 19.286-22.674-7.367-14.015 19.288v-23.841zm96.465 96.463l-7.367-22.674h-23.843l19.288-14.016-7.367-22.674 19.289 14.014 19.287-14.014-7.367 22.674 19.288 14.016h-23.842zm96.463-96.466l-22.674 7.368v23.842l-14.015-19.288-22.674 7.367 14.013-19.289-14.013-19.287 22.674 7.368 14.015-19.288v23.841z" fill="#f0f0f0"/></svg>