<svg xmlns="http://www.w3.org/2000/svg" viewBox="0 0 512 512"><path fill="#f0f0f0" d="M0 85.331h512v341.337H0z"/><g fill="#d80027"><path d="M234.16 221.076l14.003 19.296 22.677-7.354-14.024 19.28 14.002 19.297-22.671-7.382-14.025 19.28.014-23.841-22.669-7.381 22.678-7.354z"/><path d="M195.943 300.516c-26.637 0-48.232-21.594-48.232-48.232s21.594-48.232 48.232-48.232c8.306 0 16.12 2.1 22.943 5.797-10.704-10.467-25.342-16.927-41.494-16.927-32.785 0-59.362 26.577-59.362 59.362s26.577 59.362 59.362 59.362c16.152 0 30.79-6.461 41.494-16.927a48.009 48.009 0 01-22.943 5.797zM0 140.984h512v22.261H0zm0 200.347h512v22.261H0z"/></g></svg>