<svg width="21" height="14" viewBox="0 0 21 14" fill="none" xmlns="http://www.w3.org/2000/svg">
<path d="M4.23 0.633999C5.058 0.633999 5.766 0.771999 6.354 1.048C6.954 1.312 7.404 1.678 7.704 2.146C8.016 2.614 8.172 3.136 8.172 3.712C8.172 4.444 7.962 5.056 7.542 5.548C7.122 6.028 6.54 6.37 5.796 6.574C6.612 6.658 7.278 6.952 7.794 7.456C8.31 7.96 8.568 8.662 8.568 9.562C8.568 10.258 8.388 10.888 8.028 11.452C7.68 12.016 7.164 12.466 6.48 12.802C5.796 13.126 4.986 13.288 4.05 13.288C2.334 13.288 0.99 12.688 0.018 11.488L1.404 10.156C1.812 10.564 2.214 10.858 2.61 11.038C3.006 11.218 3.438 11.308 3.906 11.308C4.53 11.308 5.022 11.14 5.382 10.804C5.754 10.468 5.94 10 5.94 9.4C5.94 8.752 5.766 8.284 5.418 7.996C5.07 7.708 4.548 7.564 3.852 7.564H2.862L3.168 5.764H3.834C4.398 5.764 4.848 5.614 5.184 5.314C5.52 5.014 5.688 4.594 5.688 4.054C5.688 3.586 5.532 3.22 5.22 2.956C4.92 2.692 4.506 2.56 3.978 2.56C3.522 2.56 3.102 2.644 2.718 2.812C2.334 2.98 1.956 3.244 1.584 3.604L0.306 2.218C1.422 1.162 2.73 0.633999 4.23 0.633999ZM13.8357 0.543999C15.7797 0.543999 17.3337 0.987999 18.4977 1.876C19.6737 2.752 20.2617 4.366 20.2617 6.718C20.2617 9.022 19.6857 10.648 18.5337 11.596C17.3937 12.532 15.9297 13 14.1417 13H10.5777V0.543999H13.8357ZM13.2237 2.488V11.056H14.3037C15.3237 11.056 16.1097 10.744 16.6617 10.12C17.2257 9.484 17.5077 8.35 17.5077 6.718C17.5077 5.59 17.3637 4.714 17.0757 4.09C16.7997 3.466 16.4277 3.046 15.9597 2.83C15.4917 2.602 14.9217 2.488 14.2497 2.488H13.2237Z" fill="#222222"/>
</svg>
