<svg width="40" height="40" viewBox="0 0 40 40" fill="none" xmlns="http://www.w3.org/2000/svg">
<g clip-path="url(#clip0)">
<path d="M38.8281 14.1406H34.7038L25.6807 2.86171C25.2765 2.35647 24.5391 2.27436 24.0336 2.67874C23.5282 3.08303 23.4462 3.82046 23.8506 4.32585L31.7024 14.1406H8.29758L16.1495 4.32585C16.5537 3.82046 16.4718 3.08296 15.9665 2.67874C15.461 2.27436 14.7236 2.35639 14.3194 2.86171L5.29617 14.1406H1.17188C0.524687 14.1406 0 14.6653 0 15.3125V17.6562C0 18.3034 0.524687 18.8281 1.17188 18.8281H38.8281C39.4753 18.8281 40 18.3034 40 17.6562V15.3125C40 14.6653 39.4753 14.1406 38.8281 14.1406Z" fill="#FFB228"/>
<path d="M7.07639 36.7282C7.22013 37.2313 7.67998 37.5781 8.20318 37.5781H31.7969C32.3201 37.5781 32.78 37.2313 32.9237 36.7282L37.3683 21.1719H2.63177L7.07639 36.7282ZM25.3676 31.5262L26.5394 24.4949C26.6458 23.8565 27.2496 23.4249 27.888 23.5316C28.5265 23.638 28.9577 24.2418 28.8513 24.8802L27.6794 31.9115C27.5839 32.4847 27.0874 32.8909 26.5249 32.8909C26.4609 32.8909 26.3961 32.8857 26.3308 32.8748C25.6924 32.7684 25.2612 32.1645 25.3676 31.5262ZM18.8282 24.6875C18.8282 24.0403 19.3529 23.5156 20.0001 23.5156C20.6472 23.5156 21.1719 24.0403 21.1719 24.6875V31.7188C21.1719 32.3659 20.6472 32.8906 20.0001 32.8906C19.3529 32.8906 18.8282 32.3659 18.8282 31.7188V24.6875ZM12.1902 23.5316C12.8287 23.4253 13.4324 23.8565 13.5388 24.4949L14.7107 31.5262C14.8171 32.1645 14.3858 32.7684 13.7474 32.8748C13.6822 32.8856 13.6173 32.8909 13.5533 32.8909C12.9908 32.8909 12.4944 32.4848 12.3988 31.9115L11.2269 24.8802C11.1205 24.2418 11.5518 23.638 12.1902 23.5316Z" fill="#FFB228"/>
</g>
<defs>
<clipPath id="clip0">
<rect width="40" height="40" fill="white"/>
</clipPath>
</defs>
</svg>
