<svg width="60" height="60" viewBox="0 0 60 60" fill="none" xmlns="http://www.w3.org/2000/svg">
<path d="M58.2422 56.4836H56.4844V8.78832C56.4844 7.95067 55.8921 7.22961 55.0716 7.06485L19.7981 0.0335961C19.2831 -0.0660132 18.7459 0.0645336 18.339 0.397463C17.9321 0.732268 17.6953 1.23008 17.6953 1.75707V24.7258H22.9688C25.8766 24.7258 28.2422 27.0914 28.2422 29.9993V59.9993H38.7891V52.6729C34.7823 51.8563 31.7578 48.3058 31.7578 44.0618C31.7578 39.8372 35.1807 31.7571 40.5469 31.7571C45.913 31.7571 49.3359 39.8372 49.3359 44.0618C49.3359 48.3058 46.3114 51.8563 42.3047 52.6729V59.9993H58.2422C59.2138 59.9993 60 59.2131 60 58.2414C60 57.2698 59.2138 56.4836 58.2422 56.4836ZM33.5156 21.2102H26.4844C25.5128 21.2102 24.7266 20.424 24.7266 19.4524C24.7266 18.4808 25.5128 17.6946 26.4844 17.6946H33.5156C34.4872 17.6946 35.2734 18.4808 35.2734 19.4524C35.2734 20.424 34.4872 21.2102 33.5156 21.2102ZM33.5156 14.1789H26.4844C25.5128 14.1789 24.7266 13.3927 24.7266 12.4211C24.7266 11.4495 25.5128 10.6633 26.4844 10.6633H33.5156C34.4872 10.6633 35.2734 11.4495 35.2734 12.4211C35.2734 13.3927 34.4872 14.1789 33.5156 14.1789ZM47.5781 28.2414H40.5469C39.5753 28.2414 38.7891 27.4552 38.7891 26.4836C38.7891 25.512 39.5753 24.7258 40.5469 24.7258H47.5781C48.5497 24.7258 49.3359 25.512 49.3359 26.4836C49.3359 27.4552 48.5497 28.2414 47.5781 28.2414ZM47.5781 21.2102H40.5469C39.5753 21.2102 38.7891 20.424 38.7891 19.4524C38.7891 18.4808 39.5753 17.6946 40.5469 17.6946H47.5781C48.5497 17.6946 49.3359 18.4808 49.3359 19.4524C49.3359 20.424 48.5497 21.2102 47.5781 21.2102Z" fill="#FFB228"/>
<path d="M45.8203 44.0615C45.8203 40.5905 42.9913 35.2725 40.5469 35.2725C38.1025 35.2725 35.2734 40.5905 35.2734 44.0615C35.2734 46.9694 37.639 49.335 40.5469 49.335C43.4548 49.335 45.8203 46.9694 45.8203 44.0615Z" fill="#FFB228"/>
<path d="M22.9688 28.2412H10.5469V15.9365C10.5469 14.9649 9.76066 14.1787 8.78906 14.1787C7.81746 14.1787 7.03125 14.9649 7.03125 15.9365V28.2412H5.27344C4.30266 28.2412 3.51562 29.028 3.51562 29.999V56.4834H1.75781C0.787031 56.4834 0 57.2702 0 58.2412C0 59.212 0.787031 59.999 1.75781 59.999H24.7266V29.999C24.7266 29.028 23.9395 28.2412 22.9688 28.2412ZM17.6953 52.8506H10.5469C9.57527 52.8506 8.78906 52.0644 8.78906 51.0928C8.78906 50.1212 9.57527 49.335 10.5469 49.335H17.6953C18.6669 49.335 19.4531 50.1212 19.4531 51.0928C19.4531 52.0644 18.6669 52.8506 17.6953 52.8506ZM17.6953 45.8193H10.5469C9.57527 45.8193 8.78906 45.0331 8.78906 44.0615C8.78906 43.0899 9.57527 42.3037 10.5469 42.3037H17.6953C18.6669 42.3037 19.4531 43.0899 19.4531 44.0615C19.4531 45.0331 18.6669 45.8193 17.6953 45.8193ZM17.6953 38.7881H10.5469C9.57527 38.7881 8.78906 38.0019 8.78906 37.0303C8.78906 36.0587 9.57527 35.2725 10.5469 35.2725H17.6953C18.6669 35.2725 19.4531 36.0587 19.4531 37.0303C19.4531 38.0019 18.6669 38.7881 17.6953 38.7881Z" fill="#FFB228"/>
</svg>
