<svg width="60" height="60" viewBox="0 0 60 60" fill="none" xmlns="http://www.w3.org/2000/svg">
<path d="M44.074 0H8.91772C6.00983 0 3.64429 2.36555 3.64429 5.27344V47.6954C3.64429 49.9841 5.11827 51.917 7.15991 52.6451V17.276C7.15991 14.9295 8.07491 12.7219 9.73487 11.0619L14.7062 6.09059C16.3662 4.43062 18.5737 3.51562 20.9203 3.51562H49.0236C48.2955 1.47398 46.3626 0 44.074 0Z" fill="#FFB228"/>
<path d="M51.1057 7.0542C35.5749 7.0542 40.0948 7.0542 24.7385 7.0542V19.3354C24.7385 20.3069 23.9522 21.1167 22.9807 21.1167H10.676V54.7262C10.676 57.6348 13.0409 59.9996 15.9495 59.9996H51.1057C54.0131 59.9996 56.3557 57.6348 56.3557 54.7262V12.3042C56.3557 9.39678 54.0131 7.0542 51.1057 7.0542ZM47.5901 49.4527H19.4651C18.4936 49.4527 17.7073 48.6664 17.7073 47.6949C17.7073 46.7234 18.4936 45.9371 19.4651 45.9371H47.5901C48.5616 45.9371 49.3479 46.7234 49.3479 47.6949C49.3479 48.6664 48.5616 49.4527 47.5901 49.4527ZM47.5901 42.4215H19.4651C18.4936 42.4215 17.7073 41.6352 17.7073 40.6637C17.7073 39.6922 18.4936 38.9059 19.4651 38.9059H47.5901C48.5616 38.9059 49.3479 39.6922 49.3479 40.6637C49.3479 41.6352 48.5616 42.4215 47.5901 42.4215ZM47.5901 35.3902H19.4651C18.4936 35.3902 17.7073 34.6039 17.7073 33.6324C17.7073 32.6609 18.4936 31.8746 19.4651 31.8746H47.5901C48.5616 31.8746 49.3479 32.6609 49.3479 33.6324C49.3479 34.6039 48.5616 35.3902 47.5901 35.3902ZM47.5901 28.359H19.4651C18.4936 28.359 17.7073 27.5727 17.7073 26.6012C17.7073 25.6297 18.4936 24.8434 19.4651 24.8434H47.5901C48.5616 24.8434 49.3479 25.6297 49.3479 26.6012C49.3479 27.5727 48.5616 28.359 47.5901 28.359Z" fill="#FFB228"/>
<path d="M20.9203 7.03125C19.5127 7.03125 18.1875 7.58062 17.1919 8.57625L12.2205 13.5476C11.0485 14.7195 10.6755 16.0298 10.6755 17.5781H21.2224V7.03125H20.9203Z" fill="#FFB228"/>
</svg>
