<svg width="60" height="60" viewBox="0 0 60 60" fill="none" xmlns="http://www.w3.org/2000/svg">
<path d="M8.90625 31.6406C9.35623 31.6406 9.80576 31.469 10.1491 31.1256L22.9688 18.306L28.7572 24.0944C29.4438 24.781 30.5562 24.781 31.2428 24.0944L49.3359 6.00128V8.78906C49.3359 9.76044 50.1224 10.5469 51.0938 10.5469C52.0651 10.5469 52.8516 9.76044 52.8516 8.78906V1.75781C52.8516 1.70013 52.8484 1.642 52.8429 1.58478C52.8401 1.55594 52.8346 1.52802 52.8305 1.50009C52.8264 1.47171 52.8232 1.44333 52.8177 1.41541C52.8113 1.38107 52.8017 1.34811 52.7934 1.3147C52.7875 1.29318 52.7829 1.27121 52.7765 1.24969C52.766 1.21445 52.7531 1.18057 52.7403 1.14624C52.733 1.12701 52.7271 1.10733 52.7193 1.08856C52.7046 1.05331 52.6877 1.01898 52.6712 0.985107C52.663 0.967712 52.6552 0.950317 52.6465 0.93338C52.6263 0.895844 52.6044 0.860138 52.5819 0.824432C52.5742 0.811615 52.5673 0.798798 52.5591 0.786438C52.5275 0.739288 52.494 0.693512 52.4583 0.649567C52.4579 0.649109 52.4579 0.648651 52.4574 0.648193C52.3814 0.555267 52.2963 0.470123 52.2034 0.394134C52.2029 0.393677 52.2025 0.393677 52.202 0.393219C52.1581 0.357513 52.1123 0.324097 52.0651 0.292511C52.0528 0.284271 52.0399 0.277405 52.0271 0.269623C51.9914 0.247192 51.9557 0.22522 51.9182 0.205078C51.9012 0.195923 51.8839 0.188599 51.8665 0.180359C51.8326 0.163422 51.7982 0.146942 51.763 0.132294C51.7442 0.124512 51.7245 0.118561 51.7053 0.111237C51.671 0.0984192 51.6371 0.0856018 51.6019 0.0750732C51.5804 0.0686646 51.5584 0.0640869 51.5369 0.058136C51.5034 0.0498962 51.4705 0.0402832 51.4362 0.0338745C51.4082 0.0283814 51.3799 0.025177 51.3515 0.0210572C51.3235 0.0169372 51.2956 0.0114441 51.2668 0.00869752C51.2096 0.00320435 51.1514 0 51.0938 0H44.0625C43.0911 0 42.3047 0.786438 42.3047 1.75781C42.3047 2.72919 43.0911 3.51562 44.0625 3.51562H46.8503L30 20.3659L24.2116 14.5775C23.5249 13.8908 22.4126 13.8908 21.7259 14.5775L7.66342 28.64C6.97678 29.3266 6.97678 30.439 7.66342 31.1256C8.00674 31.469 8.45627 31.6406 8.90625 31.6406Z" fill="#FFB228"/>
<path d="M0 58.2422C0 59.2136 0.786438 60 1.75781 60H15.8203C16.7917 60 17.5781 59.2136 17.5781 58.2422V55.7812H0V58.2422Z" fill="#FFB228"/>
<path d="M15.8203 48.0469H1.75781C0.786438 48.0469 0 48.8333 0 49.8047V52.2656H17.5781V49.8047C17.5781 48.8333 16.7917 48.0469 15.8203 48.0469Z" fill="#FFB228"/>
<path d="M21.2109 58.2422C21.2109 59.2136 21.9974 60 22.9688 60H37.0312C38.0026 60 38.7891 59.2136 38.7891 58.2422V55.7812H21.2109V58.2422Z" fill="#FFB228"/>
<path d="M42.4219 48.0469H60V52.2656H42.4219V48.0469Z" fill="#FFB228"/>
<path d="M58.2422 24.8438H44.1797C43.2083 24.8438 42.4219 25.6302 42.4219 26.6016V29.0625H60V26.6016C60 25.6302 59.2136 24.8438 58.2422 24.8438Z" fill="#FFB228"/>
<path d="M42.4219 32.5781H60V36.7969H42.4219V32.5781Z" fill="#FFB228"/>
<path d="M42.4219 40.3125H60V44.5312H42.4219V40.3125Z" fill="#FFB228"/>
<path d="M42.4219 58.2422C42.4219 59.2136 43.2083 60 44.1797 60H58.2422C59.2136 60 60 59.2136 60 58.2422V55.7812H42.4219V58.2422Z" fill="#FFB228"/>
<path d="M21.2109 48.0469H38.7891V52.2656H21.2109V48.0469Z" fill="#FFB228"/>
<path d="M37.0312 40.3125H22.9688C21.9974 40.3125 21.2109 41.0989 21.2109 42.0703V44.5312H38.7891V42.0703C38.7891 41.0989 38.0026 40.3125 37.0312 40.3125Z" fill="#FFB228"/>
</svg>
