<svg width="50" height="50" viewBox="0 0 50 50" fill="none" xmlns="http://www.w3.org/2000/svg">
<path d="M44.1002 11.8078H41.17V14.5561H38.4104V11.8078H35.4802V14.5561H32.369V17.4863H34.061V20.5006C34.061 23.1534 35.8736 25.3902 38.3252 26.0392V37.2812C38.3252 39.0852 36.8577 40.5527 35.0537 40.5527C33.2498 40.5527 31.7822 39.0852 31.7822 37.2812V33.0292C31.7822 29.6095 29.0002 26.8275 25.5805 26.8275C22.161 26.8275 19.3788 29.6094 19.3788 33.0292V43.7985C19.3788 45.6025 17.9113 47.07 16.1073 47.07C14.3034 47.07 12.8359 45.6025 12.8359 43.7985V29.2236C14.6656 27.6931 19.9524 22.6248 19.9524 15.1635C19.9524 6.33292 12.5468 0.853908 12.2316 0.625001L11.3706 0L10.5099 0.625001C10.1945 0.853908 2.78906 6.33283 2.78906 15.1635C2.78906 22.6249 8.07589 27.6931 9.90558 29.2236V43.7983C9.90558 47.218 12.6876 50 16.1073 50C19.5269 50 22.3089 47.2181 22.3089 43.7983V33.0291C22.3089 31.2251 23.7765 29.7576 25.5804 29.7576C27.3844 29.7576 28.8519 31.2251 28.8519 33.0291V37.2811C28.8519 40.7008 31.6338 43.4828 35.0536 43.4828C38.4733 43.4828 41.2552 40.7009 41.2552 37.2811V26.0391C43.7067 25.3901 45.5193 23.1533 45.5193 20.5005V17.4862H47.2114V14.556H44.1003V11.8078H44.1002ZM9.90548 15.1635V25.1268C8.03517 23.029 5.71905 19.5464 5.71905 15.1635C5.71905 9.48996 9.6004 5.32423 11.3704 3.71993C13.1419 5.32569 17.022 9.49084 17.022 15.1635C17.022 19.5464 14.7059 23.0289 12.8356 25.1268V15.1635H9.90548ZM42.5891 20.5006C42.5891 22.044 41.3336 23.2996 39.7902 23.2996C38.2468 23.2996 36.9912 22.044 36.9912 20.5006V17.4864H42.5892V20.5006H42.5891Z" fill="#FFB228"/>
</svg>
