<svg id="Capa_1" enable-background="new 0 0 512 512" height="512" viewBox="0 0 512 512" width="512" xmlns="http://www.w3.org/2000/svg"><g><g><path d="m235.719 255.806c-10.684-10.802-32.812-15.136-49.102-16.605 1.315 16.278 5.436 38.422 16.123 49.226 9.896 10.006 18.181 13.345 24.702 13.566l-6.082-6.082c-5.858-5.857-5.858-15.355 0-21.213 5.857-5.857 15.355-5.857 21.213 0l6.414 6.414c-.006-.381-.021-.764-.048-1.15-.533-7.599-5.104-15.951-13.22-24.156z"/><g><path d="m277.727 157.495c8.284 0 15-6.716 15-15v-15.812h32.826c8.284 0 15-6.716 15-15s-6.716-15-15-15h-32.826v-35.87h32.826c8.284 0 15-6.716 15-15s-6.716-15-15-15h-32.826v-15.813c0-8.284-6.716-15-15-15s-15 6.716-15 15v127.495c0 8.284 6.716 15 15 15z"/><path d="m477.534 306.96c-53.301-17.321-121.084-72.042-153.659-98.34-3.549-2.865-6.67-5.385-9.365-7.531-18.237-14.52-41.086-22.517-64.337-22.517h-112.527c-43.324 0-82.03 20.126-107.28 51.512l-.366-113.7c0-12.482 10.617-22.638 23.668-22.638h88.426v10.249c0 18.271 13.724 33.627 31.881 35.671l58.752 6.613v-135.063l-58.752 6.613c-18.157 2.044-31.881 17.4-31.881 35.671v10.246h-88.426c-29.593.001-53.668 23.614-53.668 52.677v300.5c0 13.53 10.18 24.721 23.282 26.333-2.045-33.887 12.47-67.374 40.223-89.033 18.339-14.307 41.277-22.185 64.593-22.185 18.675 0 37.042 4.98 53.118 14.402 34.406 20.161 54.072 57.953 51.659 97.022h27.607c-2.117-33.957 12.404-67.537 40.214-89.24 18.339-14.307 41.277-22.185 64.593-22.185 18.675 0 37.042 4.98 53.118 14.402 34.406 20.161 54.072 57.953 51.659 97.022h15.393c14.635 0 26.541-11.906 26.541-26.541v-62.434c0-21.727-13.851-40.827-34.466-47.526zm-201.789 21.121c-2.929 2.929-6.768 4.394-10.606 4.394-3.839 0-7.678-1.465-10.607-4.394l-2.942-2.942c-6.956 3.714-14.859 5.868-23.31 5.868-14.704 0-31.046-6.487-46.868-22.483-11.68-11.808-19.464-30.181-23.135-54.609-2.577-17.143-2.152-31.239-2.133-31.831.261-7.954 6.688-14.321 14.645-14.506 6.044-.142 59.819-.598 86.258 26.131 13.233 13.378 20.777 28.301 21.817 43.157.673 9.609-1.414 18.902-5.948 27.174l2.829 2.829c5.858 5.857 5.858 15.355 0 21.212z"/></g></g><g><g><path d="m166.046 372.323c-11.479-6.728-24.601-10.284-37.948-10.284-16.662 0-33.046 5.623-46.136 15.835-25.461 19.87-35.331 53.68-24.56 84.131 10.577 29.903 38.987 49.995 70.697 49.995 35.764 0 66.715-25.491 73.598-60.617 6.11-31.212-8.217-62.985-35.651-79.06zm6.209 73.295c-4.131 21.083-22.701 36.382-44.156 36.382-19.022 0-36.067-12.056-42.413-29.998-6.463-18.272-.542-38.557 14.733-50.478 7.841-6.117 17.67-9.485 27.679-9.485 8.018 0 15.895 2.132 22.778 6.166 16.452 9.641 25.044 28.694 21.379 47.413z"/><path d="m135.708 424.088c-5.251-3.077-12.02-2.667-16.833 1.088-5.028 3.924-7.031 10.815-4.906 16.823 2.095 5.923 7.839 10.001 14.129 10.001 7.101 0 13.354-5.193 14.715-12.146 1.203-6.14-1.71-12.605-7.105-15.766z"/></g><g><path d="m403.237 372.323c-11.479-6.728-24.601-10.284-37.948-10.284-16.662 0-33.046 5.623-46.136 15.835-25.461 19.87-35.331 53.68-24.56 84.131 10.577 29.903 38.987 49.995 70.697 49.995 35.764 0 66.715-25.491 73.598-60.617 6.11-31.212-8.217-62.985-35.651-79.06zm6.209 73.295c-4.13 21.083-22.701 36.382-44.156 36.382-19.022 0-36.067-12.056-42.413-29.998-6.463-18.272-.542-38.557 14.733-50.478 7.841-6.117 17.67-9.485 27.679-9.485 8.019 0 15.895 2.132 22.778 6.166 16.453 9.641 25.045 28.694 21.379 47.413z"/><path d="m372.899 424.088c-5.251-3.077-12.021-2.667-16.833 1.088-5.028 3.924-7.031 10.815-4.906 16.823 2.095 5.923 7.84 10.001 14.13 10.001 7.101 0 13.353-5.193 14.715-12.146 1.202-6.14-1.711-12.605-7.106-15.766z"/></g></g></g></svg>