<svg width="30" height="30" viewBox="0 0 30 30" fill="none" xmlns="http://www.w3.org/2000/svg">
<g clip-path="url(#clip0)">
<path d="M9.7266 5.33205H10.6055V7.14845C10.6055 7.63425 10.9986 8.02736 11.4844 8.02736H15C15.4858 8.02736 15.8789 7.63425 15.8789 7.14845V5.33205H16.7579C17.1132 5.33205 17.4342 5.11835 17.5698 4.78959C17.7063 4.46087 17.6307 4.08318 17.3792 3.83169L13.8636 0.257476C13.5203 -0.0858252 12.9641 -0.0858252 12.6208 0.257476L9.10516 3.83169C8.85367 4.08318 8.77815 4.46082 8.91461 4.78959C9.05026 5.11835 9.37129 5.33205 9.7266 5.33205Z" fill="#FFB228"/>
<path d="M21.1523 15.9375C17.269 15.9375 14.1211 19.0854 14.1211 22.9688C14.1211 26.8519 17.269 30 21.1523 30C25.0356 30 28.1836 26.8519 28.1836 22.9688C28.1836 19.0854 25.0356 15.9375 21.1523 15.9375ZM22.6251 26.1318C22.4347 26.227 22.2352 26.3019 22.031 26.3586V26.6015C22.031 27.0869 21.6374 27.4804 21.1521 27.4804C20.6667 27.4804 20.2731 27.0869 20.2731 26.6015V26.3861C19.9073 26.294 19.5661 26.1391 19.2771 25.9224C18.8887 25.6312 18.81 25.0803 19.1013 24.6919C19.3925 24.3037 19.9434 24.2249 20.3317 24.5162C20.6833 24.7798 21.3595 24.7994 21.8389 24.5596C22.0317 24.4632 22.1357 24.3472 22.1357 24.2871C22.1357 24.1819 22.1357 24.1656 22.0187 24.1032C21.7894 23.9808 21.3839 23.9056 20.9917 23.8329C20.4682 23.7357 19.9269 23.6353 19.4578 23.3849C18.7727 23.0193 18.4106 22.4195 18.4106 21.6503C18.4106 20.8803 18.8724 20.2078 19.6775 19.8052C19.8684 19.7098 20.0684 19.6342 20.2731 19.5775V19.3359C20.2731 18.8505 20.6667 18.457 21.1521 18.457C21.6374 18.457 22.031 18.8505 22.031 19.3359V19.5511C22.3969 19.6433 22.738 19.7982 23.0271 20.015C23.4154 20.3062 23.4941 20.8571 23.2028 21.2454C22.9116 21.6337 22.3608 21.7125 21.9724 21.4212C21.6203 21.1571 20.9435 21.1376 20.4636 21.3774C20.2698 21.4743 20.1684 21.588 20.1684 21.6503C20.1684 21.7555 20.1684 21.7717 20.2854 21.8341C20.5147 21.9565 20.9203 22.0318 21.3124 22.1045C21.8359 22.2016 22.3772 22.3021 22.8464 22.5524C23.5314 22.9181 23.8935 23.5179 23.8935 24.2871C23.8935 25.0564 23.4312 25.7288 22.6251 26.1318Z" fill="#FFB228"/>
<path d="M6.21094 12.4219H22.0312C22.5166 12.4219 22.9102 12.0284 22.9102 11.543V10.6641C22.9102 10.1787 22.5166 9.78516 22.0312 9.78516H6.21094C5.72555 9.78516 5.33203 10.1787 5.33203 10.6641V11.543C5.33203 12.0284 5.72555 12.4219 6.21094 12.4219Z" fill="#FFB228"/>
<path d="M3.57422 28.2422V29.1211C3.57422 29.6065 3.96773 30 4.45312 30H15.9333C14.9798 29.2901 14.1874 28.3944 13.5859 27.3633H4.45312C3.96773 27.3633 3.57422 27.7568 3.57422 28.2422Z" fill="#FFB228"/>
<path d="M3.57422 19.4531V20.332C3.57422 20.8174 3.96773 21.2109 4.45312 21.2109H12.5409C12.7345 20.2613 13.1122 19.3863 13.5859 18.5742H4.45312C3.96773 18.5742 3.57422 18.9677 3.57422 19.4531Z" fill="#FFB228"/>
<path d="M2.69531 25.6055H12.8121C12.5461 24.7678 12.3633 23.8934 12.3633 22.9688H2.69531C2.20992 22.9688 1.81641 23.3623 1.81641 23.8477V24.7266C1.81641 25.212 2.20992 25.6055 2.69531 25.6055Z" fill="#FFB228"/>
<path d="M2.69531 16.8164H14.8915C16.4871 15.1928 18.7017 14.1797 21.1523 14.1797H2.69531C2.20992 14.1797 1.81641 14.5732 1.81641 15.0586V15.9375C1.81641 16.4229 2.20992 16.8164 2.69531 16.8164Z" fill="#FFB228"/>
</g>
<defs>
<clipPath id="clip0">
<rect width="30" height="30" fill="white"/>
</clipPath>
</defs>
</svg>
