<svg width="30" height="30" viewBox="0 0 30 30" fill="none" xmlns="http://www.w3.org/2000/svg">
<g clip-path="url(#clip0)">
<path d="M13.8889 21.4163V23.67C14.6875 23.4938 15.2778 23.0313 15.2778 22.5C15.2778 22.0038 14.8153 21.6563 13.8889 21.4163Z" fill="#28FF64"/>
<path d="M11.1111 18.7501C11.1111 19.2463 11.575 19.5926 12.5 19.8338V17.5801C11.7014 17.7563 11.1111 18.2188 11.1111 18.7501Z" fill="#28FF64"/>
<path d="M22.0486 0.83625C21.8528 0.63627 21.4848 0.3975 20.8445 0.3975C19.4486 0.3975 17.2292 1.6125 16.157 2.25252C15.3653 1.24002 14.1917 0 13.1945 0C12.1973 0 11.0236 1.24002 10.232 2.25375C9.15977 1.6125 6.94031 0.39873 5.54447 0.39873C4.90561 0.39873 4.53614 0.6375 4.34031 0.83748C4.02501 1.15746 3.88334 1.575 3.92917 2.04375C4.08751 3.68748 6.77084 6.09 8.52917 7.5H17.8625C19.6195 6.09 22.3028 3.68877 22.4625 2.04375C22.507 1.575 22.3639 1.15752 22.0486 0.83625Z" fill="#28FF64"/>
<path d="M17.5806 8.75H8.80976C6.15833 11.3313 0 17.6425 0 20.625C0 25.795 5.91947 30 13.1945 30C20.4695 30 26.3889 25.795 26.3889 20.625C26.3889 17.6413 20.232 11.33 17.5806 8.75ZM13.8889 24.9488V25.625C13.8889 25.97 13.5778 26.25 13.1945 26.25C12.8111 26.25 12.5 25.97 12.5 25.625V24.9512C10.9805 24.7375 9.83197 23.8288 9.725 22.6725C9.69303 22.3287 9.97637 22.0262 10.3583 21.9975C10.7458 21.9637 11.0764 22.2237 11.1083 22.5675C11.1555 23.0749 11.7347 23.505 12.5 23.6725V21.1237C10.632 20.71 9.7222 19.92 9.7222 18.75C9.7222 17.5425 10.9167 16.5337 12.5 16.3012V15.625C12.5 15.28 12.8111 15 13.1945 15C13.5778 15 13.8889 15.28 13.8889 15.625V16.2988C15.4084 16.5125 16.5556 17.42 16.6639 18.5775C16.6959 18.9213 16.4126 19.2238 16.0306 19.2525C15.6598 19.2963 15.3126 19.0263 15.2806 18.6825C15.2334 18.175 14.6542 17.7463 13.8889 17.5775V20.1263C15.757 20.54 16.6667 21.3288 16.6667 22.5013C16.6667 23.7075 15.4723 24.7163 13.8889 24.9488Z" fill="#28FF64"/>
</g>
<defs>
<clipPath id="clip0">
<rect width="30" height="30" fill="white"/>
</clipPath>
</defs>
</svg>
