<svg width="16" height="16" viewBox="0 0 16 16" fill="none" xmlns="http://www.w3.org/2000/svg">
<g clip-path="url(#clip0)">
<path d="M15.8657 11.72C15.2962 10.6916 12.8024 10.0367 10.6003 9.91252C10.4012 9.69945 10.1992 9.47533 9.9921 9.23972C8.09959 7.07588 7.33323 3.93134 7.04702 2.2655C7.01299 1.91252 6.97557 1.61907 6.9441 1.40048C6.91858 1.22654 6.86499 0.86377 6.48777 0.86377C6.36699 0.86377 6.25046 0.915654 6.16753 1.00794C6.03314 1.16147 6.05313 1.32648 6.07694 1.517C6.10374 1.7356 6.14414 2.02819 6.20155 2.36204C6.36274 4.05339 6.43886 7.27364 5.13707 9.83171C5.0014 10.0984 4.86616 10.3544 4.73177 10.5985C2.29575 11.307 0.330095 12.5705 0.0421784 13.6184C-0.062016 13.9978 0.0285693 14.3614 0.297774 14.6429C0.611207 14.9704 0.981203 15.1363 1.39756 15.1363C2.55007 15.1363 3.86377 13.8528 5.30208 11.3228C5.94256 11.1543 6.57835 11.037 7.19289 10.9749C7.43232 10.9506 7.81976 10.9 8.05791 10.8635C8.71413 10.7622 9.45667 10.7214 10.2196 10.7465C11.9854 12.582 13.4292 13.5125 14.5112 13.5125C15.0921 13.5121 15.5731 13.2289 15.8648 12.7151C16.0443 12.397 16.0452 12.0432 15.8657 11.72ZM1.39713 14.2857C1.21681 14.2857 1.06286 14.2126 0.911882 14.0548C0.850216 13.9906 0.836607 13.9353 0.862124 13.8443C1.01055 13.3046 2.25748 12.3796 4.07982 11.7081C3.05021 13.3326 2.06482 14.2857 1.39713 14.2857ZM7.92735 10.0239C7.7011 10.0588 7.33366 10.1064 7.10656 10.1303C6.69361 10.1711 6.26917 10.2362 5.84091 10.3238C5.85878 10.2889 5.87664 10.2536 5.8945 10.2183C6.53285 8.96414 6.92836 7.46033 7.07466 5.73666C7.66027 7.3757 8.42408 8.73916 9.35163 9.79982C9.37884 9.83129 9.40734 9.86318 9.43456 9.8955C8.89912 9.90826 8.39389 9.95207 7.92735 10.0239ZM15.1231 12.2975C14.9819 12.5476 14.7812 12.6637 14.4933 12.6637H14.4929C13.8167 12.6637 12.7769 12.0236 11.5321 10.8498C13.4586 11.0918 14.8692 11.6749 15.1223 12.1321C15.1589 12.1984 15.1589 12.2337 15.1231 12.2975Z" fill="#FFB228"/>
</g>
<defs>
<clipPath id="clip0">
<rect x="6.10352e-05" width="16" height="16" fill="white"/>
</clipPath>
</defs>
</svg>
