<svg width="20" height="20" viewBox="0 0 20 20" fill="none" xmlns="http://www.w3.org/2000/svg">
<path d="M19.0234 7.03125H17.6562V5.03067L12.6256 0H2.34375V7.03125H0.976562V17.0312H2.34375V20H17.6562V17.0312H19.0234V7.03125ZM12.9688 2.00058L15.6557 4.6875H12.9688V2.00058ZM3.51562 1.17188H11.7969V5.85938H16.4844V7.03125H3.51562V1.17188ZM16.4844 18.8281H3.51562V17.0312H16.4844V18.8281ZM17.8516 15.8594H2.14844V8.20312H17.8516V15.8594Z" fill="#FFB228"/>
<path d="M5 13.0078H5.56641C6.54648 13.0078 7.34375 12.2105 7.34375 11.2305C7.34375 10.2504 6.54648 9.45312 5.56641 9.45312H3.82812V14.7656H5V13.0078ZM5 10.625H5.56641C5.90027 10.625 6.17188 10.8966 6.17188 11.2305C6.17188 11.5643 5.90027 11.8359 5.56641 11.8359H5V10.625Z" fill="#FFB228"/>
<path d="M12.0312 12.4219V11.7969C12.0312 10.5045 10.9799 9.45312 9.6875 9.45312H8.51562V14.7656H9.6875C10.9799 14.7656 12.0312 13.7143 12.0312 12.4219ZM9.6875 10.625C10.3337 10.625 10.8594 11.1507 10.8594 11.7969V12.4219C10.8594 13.0681 10.3337 13.5938 9.6875 13.5938V10.625Z" fill="#FFB228"/>
<path d="M14.4531 13.1445H15.625V11.9727H14.4531V10.625H16.2109V9.45312H13.2812V14.7656H14.4531V13.1445Z" fill="#FFB228"/>
</svg>
