<svg width="18" height="18" viewBox="0 0 18 18" fill="none" xmlns="http://www.w3.org/2000/svg">
<path d="M17.2971 4.30295C16.8283 3.83424 16.2628 3.59982 15.6003 3.59982H13.5003L13.0222 2.32489C12.9034 2.01869 12.6863 1.75458 12.3706 1.53261C12.0549 1.31073 11.7315 1.19971 11.4002 1.19971H6.60007C6.26881 1.19971 5.94534 1.31073 5.62968 1.53261C5.31402 1.75458 5.0969 2.01869 4.97813 2.32489L4.50002 3.59982H2.40001C1.7374 3.59982 1.17188 3.83424 0.703069 4.30295C0.234356 4.7717 0 5.33728 0 5.99983V14.3999C0 15.0625 0.234356 15.6281 0.703069 16.0968C1.17188 16.5656 1.73743 16.8 2.40001 16.8H15.6001C16.2626 16.8 16.8281 16.5656 17.2969 16.0968C17.7656 15.6281 18 15.0625 18 14.3999V5.99983C18.0001 5.33728 17.7657 4.7717 17.2971 4.30295ZM11.9673 13.1672C11.1454 13.9891 10.1564 14.4001 9.00005 14.4001C7.8437 14.4001 6.85479 13.9891 6.03285 13.1672C5.21091 12.3454 4.80002 11.3562 4.80002 10.2001C4.80002 9.04367 5.21104 8.05479 6.03285 7.23285C6.85469 6.41091 7.84373 6.00003 9.00005 6.00003C10.1564 6.00003 11.1454 6.41101 11.9673 7.23285C12.7892 8.05469 13.2001 9.04367 13.2001 10.2001C13.2001 11.3562 12.7892 12.3453 11.9673 13.1672Z" fill="#FFB228"/>
<path d="M8.99992 7.5C8.25613 7.5 7.62018 7.76407 7.09203 8.29229C6.56388 8.82043 6.2998 9.45629 6.2998 10.2002C6.2998 10.9439 6.56388 11.5798 7.09203 12.108C7.62018 12.636 8.2561 12.9001 8.99992 12.9001C9.74361 12.9001 10.3796 12.636 10.9078 12.108C11.4359 11.5798 11.7 10.9439 11.7 10.2002C11.7 9.45632 11.4359 8.82047 10.9078 8.29229C10.3797 7.76411 9.74361 7.5 8.99992 7.5Z" fill="#FFB228"/>
</svg>
