<svg width="60" height="60" viewBox="0 0 60 60" fill="none" xmlns="http://www.w3.org/2000/svg">
<path d="M22.8516 7.14844H19.3359V1.75781C19.3359 0.786211 18.5497 0 17.5781 0C16.6065 0 15.8203 0.786211 15.8203 1.75781V7.14844H8.78906V1.75781C8.78906 0.786211 8.00285 0 7.03125 0C6.05965 0 5.27344 0.786211 5.27344 1.75781V7.14844H1.75781C0.786211 7.14844 0 7.93465 0 8.90625V14.1797H24.6094V8.90625C24.6094 7.93465 23.8232 7.14844 22.8516 7.14844Z" fill="#FFB228"/>
<path d="M45.9375 34.4531V40.5469C45.9375 44.5856 44.3681 48.2381 41.8655 51.0377C42.1923 49.9329 42.4219 48.7873 42.4219 47.5781C42.4219 40.794 36.7841 35.2734 30 35.2734C23.2159 35.2734 17.5781 40.794 17.5781 47.5781C17.5781 48.7873 17.8077 49.9329 18.1345 51.0377C15.6319 48.2381 14.0625 44.5856 14.0625 40.5469V31.5802C20.0098 30.718 24.6094 25.6354 24.6094 19.4531V17.6953H0V19.4531C0 25.6354 4.59961 30.718 10.5469 31.5802V40.5469C10.5469 51.1991 19.3475 60 30 60C40.6525 60 49.4531 51.1991 49.4531 40.5469V34.4531H45.9375ZM30 56.4844C25.1551 56.4844 21.0938 52.4252 21.0938 47.5781C21.0938 42.7321 25.1539 38.7891 30 38.7891C34.8461 38.7891 38.9062 42.7321 38.9062 47.5781C38.9062 52.423 34.8471 56.4844 30 56.4844Z" fill="#FFB228"/>
<path d="M49.4531 1.01465V18.725L57.2316 10.9465C54.5875 6.37844 50.8432 2.38281 49.4531 1.01465Z" fill="#FFB228"/>
<path d="M38.1591 10.9465L45.9375 18.725V1.01465C44.5474 2.38281 40.8032 6.37844 38.1591 10.9465Z" fill="#FFB228"/>
<path d="M36.5204 14.2798C35.8314 16.0082 35.3906 17.7617 35.3906 19.4534C35.3906 26.8244 43.2881 32.7072 45.9375 34.4746V23.6969L36.5204 14.2798Z" fill="#FFB228"/>
<path d="M58.8702 14.2793L49.4531 23.6965V34.4742C52.1025 32.7068 60 26.8239 60 19.453C60 17.7613 59.5593 16.0078 58.8702 14.2793Z" fill="#FFB228"/>
</svg>
