<svg width="50" height="50" viewBox="0 0 50 50" fill="none" xmlns="http://www.w3.org/2000/svg">
<path d="M42.8638 18.4381C42.4677 15.927 41.2452 13.6214 39.3637 11.869C37.243 9.89395 34.4781 8.80625 31.5785 8.80625C28.6789 8.80625 25.9142 9.89404 23.7934 11.869C23.2565 12.369 22.7736 12.9143 22.3481 13.4962L21.7511 8.60801C21.1518 3.70068 16.9718 0 12.0279 0C7.08419 0 2.90411 3.70068 2.30489 8.60801L0.50157 23.3738C0.0987385 26.6722 1.13096 29.9907 3.3336 32.4786C5.20968 34.5978 7.78692 35.9463 10.5631 36.2998V50H13.4928V36.2998C14.3103 36.1957 15.1104 36.0054 15.8805 35.7344C16.7951 36.9438 17.9449 37.9681 19.2594 38.7331C20.9952 39.7434 22.9797 40.2773 24.9982 40.2773C26.7892 40.2773 28.5382 39.8571 30.1138 39.0679V50H33.0435V39.0679C34.6191 39.8571 36.368 40.2773 38.1589 40.2773C44.4589 40.2773 49.5844 35.152 49.5844 28.8519C49.5844 24.3466 46.9192 20.2718 42.8638 18.4381ZM13.4929 33.3384V29.2333H13.4928L18.7289 26.4802L17.3654 23.8871L13.4928 25.9233V18.4817L18.7289 15.7286L17.3654 13.1355L13.4928 15.1718V10.8913H10.5631V20.5476L6.69054 18.5113L5.32706 21.1044L10.5631 23.8575V33.3384C8.62911 33.0069 6.8462 32.0266 5.52716 30.5366C3.88028 28.6764 3.10841 26.1951 3.40958 23.7289L5.2129 8.96309C5.63302 5.52353 8.5628 2.92969 12.028 2.92969C15.4932 2.92969 18.423 5.52353 18.8431 8.96309L20.6464 23.7289C20.9476 26.1951 20.1758 28.6764 18.5288 30.5366C17.2098 32.0267 15.4269 33.0069 13.4929 33.3384ZM38.1589 37.3477C36.3048 37.3477 34.5122 36.7415 33.0435 35.6323V28.5915L38.2795 25.8384L36.916 23.2453L33.0435 25.2815V21.0011H30.1138V30.5969L26.2411 28.5606L24.8776 31.1537L30.1138 33.9068V35.6323C28.645 36.7416 26.8524 37.3478 24.9982 37.3478C22.513 37.3478 20.1549 36.2395 18.5545 34.3843C19.3465 33.8463 20.0763 33.2085 20.7225 32.4787C22.925 29.9907 23.9573 26.6723 23.5545 23.3739L23.1013 19.6629L23.1075 19.5805C23.2685 17.4515 24.2212 15.4743 25.7902 14.0131C27.367 12.5447 29.4227 11.736 31.5787 11.736C33.7348 11.736 35.7905 12.5447 37.3672 14.0131C38.9361 15.4743 39.8889 17.4515 40.0499 19.5805L40.1217 20.5294L41.0178 20.8495C44.3895 22.0541 46.6549 25.2701 46.6549 28.852C46.6547 33.5365 42.8435 37.3477 38.1589 37.3477Z" fill="#FFB228"/>
</svg>
