<svg width="260" height="149" fill="none" xmlns="http://www.w3.org/2000/svg"><g clip-path="url(#a)" fill="#fff"><path d="M144.465 122.296v.764a4.288 4.288 0 0 0-.608-.044 1.56 1.56 0 0 0-.528.073.957.957 0 0 0-.315.167c-.074.065-.125.167-.162.312a2.173 2.173 0 0 0-.058.364c-.008.094-.008.261-.008.487v.734h1.489v.727h-1.489l-.014 6.636h-.909l.014-6.636h-1.275v-.727h1.275v-.843c0-.698.147-1.214.425-1.556.286-.341.778-.508 1.467-.508.183-.008.418.014.696.05Zm6.671 2.864-.014 7.37h-.836v-1.359c-.55 1.047-1.422 1.577-2.617 1.57-.792 0-1.415-.233-1.87-.683-.455-.458-.682-1.12-.682-1.999l.008-4.899h.909l-.008 4.514c0 .763.14 1.337.425 1.715.286.378.77.567 1.452.567.726 0 1.29-.262 1.708-.778.418-.523.624-1.17.624-1.94l.007-4.071.894-.007Zm5.57-.101v.915c-.036 0-.088 0-.139-.007-.051-.007-.088-.007-.11-.007a2.48 2.48 0 0 0-1.496.48c-.44.319-.733.741-.879 1.264-.118.451-.176 1.054-.176 1.817l-.008 3.009h-.894l.015-7.37h.85v1.767c.315-.676.689-1.156 1.1-1.44.41-.276.989-.421 1.737-.428Zm1.862.116v1.388c.308-.545.667-.945 1.078-1.199.41-.255.931-.385 1.554-.385.77 0 1.393.21 1.862.632.47.421.704 1.061.704 1.919l-.007 5.015h-.909l.007-4.732c0-1.366-.63-2.05-1.891-2.05-.712 0-1.283.233-1.709.706-.425.472-.637 1.17-.637 2.086l-.008 3.983h-.909l.015-7.371.85.008Zm7.84-2.864v1.475h-.909v-1.475h.909Zm0 2.878-.015 7.37h-.909l.015-7.37h.909Zm4.706.007v.727h-1.532l-.008 4.673c0 .247.008.422.015.524.007.101.044.218.095.356a.44.44 0 0 0 .279.276c.132.051.315.073.55.073.132 0 .33-.015.594-.044v.778a6.862 6.862 0 0 1-.792.058c-.895 0-1.415-.284-1.547-.85-.059-.24-.088-.778-.088-1.621l.007-4.23h-1.312v-.727h1.312l.008-2.253h.894l-.007 2.253 1.532.007Zm7.315.015-.014 7.37h-.836v-1.359c-.55 1.046-1.423 1.577-2.618 1.57-.791 0-1.414-.233-1.869-.683-.455-.458-.682-1.12-.682-1.999l.007-4.899h.91l-.008 4.514c0 .763.14 1.337.425 1.715.286.378.77.567 1.452.567.726 0 1.29-.262 1.708-.778.418-.523.623-1.17.623-1.941l.008-4.07.894-.007Zm5.566-.109v.915c-.036 0-.088 0-.139-.007-.051-.007-.088-.007-.11-.007a2.48 2.48 0 0 0-1.496.48 2.28 2.28 0 0 0-.879 1.264c-.118.451-.176 1.054-.176 1.817l-.008 3.009h-.894l.015-7.37h.85v1.767c.315-.676.689-1.156 1.1-1.44.418-.276.997-.421 1.737-.428Zm6.674 5.073c-.161.828-.52 1.483-1.07 1.955s-1.254.705-2.112.705c-1.034 0-1.855-.349-2.478-1.054-.623-.698-.931-1.628-.931-2.798 0-1.163.323-2.115.953-2.857.631-.741 1.452-1.112 2.456-1.104 1.049 0 1.855.37 2.42 1.104.564.734.843 1.65.843 2.741v.261l-5.741-.007c0 .85.205 1.563.623 2.13.418.566 1.049.857 1.885.857 1.224 0 1.979-.639 2.272-1.933h.88Zm-.836-1.781c-.044-.821-.278-1.461-.704-1.926-.425-.465-.982-.698-1.678-.698-.756 0-1.32.24-1.716.727-.389.487-.638 1.119-.733 1.89l4.831.007Zm-45.625 15.736a6.141 6.141 0 0 1-.206 1.235 5.082 5.082 0 0 1-.417 1.113l1.847 2.165h-1.158l-1.166-1.417c-.726 1.076-1.73 1.614-3.013 1.614-.902 0-1.642-.262-2.222-.771-.579-.508-.857-1.177-.857-1.999 0-1.235.85-2.267 2.551-3.103-.249-.32-.447-.574-.594-.771a4.176 4.176 0 0 1-.44-.784c-.146-.328-.22-.633-.22-.916 0-.604.213-1.098.645-1.476.433-.378.99-.574 1.672-.567.652 0 1.195.197 1.613.575.418.385.63.864.623 1.446 0 .574-.183 1.068-.55 1.475-.366.407-.858.807-1.473 1.2l2.162 2.653a5.252 5.252 0 0 0 .352-1.679l.851.007Zm-4.143-.596c-.74.465-1.231.814-1.458 1.046-.448.437-.668.931-.668 1.476 0 .567.213 1.047.646 1.439.432.4.96.596 1.59.596.99 0 1.797-.487 2.42-1.468l-2.53-3.089Zm.286-.974c1.1-.618 1.65-1.294 1.65-2.035a1.26 1.26 0 0 0-.403-.96c-.272-.261-.601-.385-.997-.385-.411 0-.755.124-1.027.371a1.205 1.205 0 0 0-.403.93c0 .255.059.502.183.734.118.233.301.487.536.763.227.269.388.466.461.582Zm16.356 5.372v.691c-.22.072-.462.116-.726.116-.396 0-.653-.123-.777-.363-.125-.24-.191-.567-.184-.989-.63.981-1.561 1.476-2.808 1.468-.762 0-1.356-.181-1.781-.545-.425-.363-.645-.872-.638-1.519 0-1.33.924-2.086 2.764-2.275.095-.007.235-.022.403-.036.176-.015.301-.029.382-.036.08-.008.19-.022.315-.037.132-.014.227-.029.286-.036.058-.007.139-.022.234-.044.096-.022.162-.036.22-.058a3.17 3.17 0 0 1 .169-.065c.059-.022.11-.051.161-.08.176-.117.264-.349.264-.705 0-.582-.161-.996-.491-1.236-.33-.24-.807-.363-1.444-.363-.624 0-1.107.138-1.437.421-.33.284-.528.72-.587 1.309h-.865c.037-.793.323-1.403.843-1.832.521-.429 1.239-.647 2.156-.64.85 0 1.517.182 2.001.545.484.364.726.887.726 1.578l-.007 4.012c0 .189.007.327.014.407a.39.39 0 0 0 .125.232c.073.073.19.109.352.109.11.015.227 0 .33-.029Zm-1.731-3.285c-.088.095-.227.174-.425.24a4.038 4.038 0 0 1-.542.138c-.162.029-.44.065-.836.116-.095.008-.169.022-.22.029-.308.037-.565.08-.762.131a4.77 4.77 0 0 0-.682.233 1.26 1.26 0 0 0-.579.458c-.132.196-.198.436-.198.726 0 .429.154.771.461 1.025.308.255.719.378 1.239.386.704 0 1.305-.204 1.797-.618.491-.415.74-.96.74-1.643l.007-1.221Zm8.951 1.389c-.124.857-.462 1.548-1.011 2.071-.543.516-1.254.778-2.134.778-1.041 0-1.877-.349-2.5-1.054-.623-.705-.938-1.628-.938-2.784 0-1.206.315-2.166.953-2.885.63-.72 1.473-1.083 2.522-1.076.858 0 1.554.225 2.089.676.535.451.851 1.068.961 1.868h-.924c-.242-1.192-.939-1.795-2.104-1.795-.777 0-1.4.283-1.862.85-.462.567-.69 1.337-.69 2.297 0 .967.22 1.73.66 2.304.44.567 1.041.858 1.789.858.623 0 1.137-.182 1.532-.553.396-.363.646-.887.741-1.555h.916Zm7.5.013c-.124.858-.462 1.549-1.011 2.072-.543.516-1.254.778-2.134.778-1.041 0-1.877-.349-2.5-1.054-.623-.705-.938-1.628-.938-2.784 0-1.207.315-2.166.953-2.886.63-.719 1.473-1.083 2.522-1.075.858 0 1.554.225 2.089.676.535.45.851 1.068.961 1.868h-.924c-.242-1.192-.938-1.796-2.104-1.796-.777 0-1.4.284-1.862.851-.462.567-.69 1.337-.69 2.297 0 .966.22 1.729.66 2.304.44.566 1.041.857 1.789.857.623 0 1.137-.181 1.532-.552.396-.364.646-.887.741-1.556h.916Zm7.457.225c-.161.829-.521 1.483-1.071 1.956-.549.472-1.253.705-2.111.705-1.034 0-1.855-.349-2.478-1.054-.623-.698-.931-1.628-.931-2.799 0-1.163.323-2.115.953-2.856.631-.741 1.452-1.112 2.456-1.105 1.048 0 1.855.371 2.419 1.105.565.734.844 1.65.844 2.74v.262l-5.741-.007c0 .85.205 1.562.623 2.129.418.567 1.049.858 1.884.858 1.225 0 1.98-.64 2.273-1.934h.88Zm-.836-1.773c-.044-.821-.278-1.461-.704-1.926-.425-.465-.982-.698-1.679-.698-.755 0-1.319.24-1.715.727-.389.487-.638 1.119-.733 1.89l4.831.007Zm7.493-1.01h-.88c-.087-1.068-.755-1.606-2.008-1.606-.528 0-.953.109-1.269.327a1.024 1.024 0 0 0-.469.887c0 .182.029.341.103.472.066.131.146.24.227.32.088.08.235.16.455.24.22.08.403.138.564.182.161.043.418.101.77.181.315.08.572.138.77.189.19.051.432.131.718.255.286.123.506.247.675.385.161.138.308.327.425.56.117.232.183.501.176.792 0 .676-.271 1.228-.821 1.642-.543.415-1.254.626-2.134.618-.953 0-1.693-.232-2.221-.69-.528-.458-.807-1.112-.821-1.948h.88c0 .61.19 1.083.579 1.403.388.327.923.487 1.62.487.608 0 1.1-.131 1.466-.393.374-.261.557-.61.557-1.039a.993.993 0 0 0-.183-.603 1.14 1.14 0 0 0-.484-.407 4.607 4.607 0 0 0-.601-.248 6.753 6.753 0 0 0-.63-.167c-.066-.007-.118-.022-.147-.029a5.677 5.677 0 0 0-.462-.109c-.242-.051-.41-.094-.506-.116-.095-.022-.249-.073-.462-.138a2.22 2.22 0 0 1-.462-.189 4.858 4.858 0 0 1-.366-.247 1.172 1.172 0 0 1-.33-.335 2.541 2.541 0 0 1-.191-.421 1.79 1.79 0 0 1-.08-.545c0-.64.242-1.149.733-1.52.484-.37 1.158-.559 2.001-.552.851 0 1.525.204 2.038.603.514.415.77.996.77 1.759Zm6.957.014h-.88c-.087-1.068-.755-1.606-2.008-1.606-.528 0-.953.109-1.269.327a1.024 1.024 0 0 0-.469.886c0 .182.029.342.103.473.066.131.146.24.227.32.088.08.235.16.455.24.22.08.403.138.564.181.161.044.418.102.77.182.315.08.572.138.77.189.19.051.432.131.718.254.286.124.506.248.675.386a1.8 1.8 0 0 1 .425.559c.117.233.183.502.176.793 0 .675-.271 1.228-.821 1.642-.543.414-1.254.625-2.134.618-.953 0-1.693-.233-2.221-.691-.528-.457-.807-1.112-.821-1.947h.88c0 .61.19 1.083.579 1.402.388.327.923.487 1.62.487.608 0 1.1-.131 1.466-.392.374-.262.557-.611.557-1.04a.997.997 0 0 0-.183-.603 1.154 1.154 0 0 0-.484-.407 4.463 4.463 0 0 0-.601-.247 6.753 6.753 0 0 0-.63-.167c-.066-.007-.118-.022-.147-.029a5.677 5.677 0 0 0-.462-.109c-.242-.051-.41-.095-.506-.117-.095-.021-.249-.072-.462-.138a2.114 2.114 0 0 1-.462-.189 4.858 4.858 0 0 1-.366-.247 1.17 1.17 0 0 1-.33-.334 2.592 2.592 0 0 1-.191-.422 1.786 1.786 0 0 1-.08-.545c0-.639.242-1.148.733-1.519.484-.371 1.158-.559 2.001-.552.851 0 1.525.203 2.038.603.514.414.77.996.77 1.759Zm4.788-2.355c1.071 0 1.921.357 2.551 1.062.631.712.946 1.664.939 2.871 0 1.192-.315 2.136-.946 2.827-.63.69-1.481 1.039-2.558 1.032-1.078-.007-1.936-.356-2.581-1.061-.638-.705-.961-1.65-.961-2.849 0-1.185.323-2.13.968-2.835.645-.698 1.503-1.047 2.588-1.047Zm1.877 1.614c-.469-.567-1.1-.858-1.891-.858-.792 0-1.423.284-1.899.851-.477.567-.711 1.33-.711 2.282 0 .974.227 1.744.696 2.311s1.107.851 1.928.851c.792 0 1.415-.277 1.877-.843.462-.56.696-1.331.696-2.29.008-.967-.227-1.737-.696-2.304Zm6.797-1.498v.915c-.036 0-.088 0-.139-.007-.051-.007-.088-.007-.11-.007a2.48 2.48 0 0 0-1.496.48c-.44.319-.733.741-.879 1.264-.118.451-.176 1.054-.176 1.817l-.008 3.009h-.894l.014-7.37h.851v1.767c.315-.676.689-1.156 1.1-1.44.418-.276.997-.421 1.737-.428Zm1.679-2.77v1.476h-.909v-1.476h.909Zm0 2.886-.015 7.37h-.909l.015-7.37h.909Zm7.925 4.959c-.162.828-.521 1.483-1.071 1.955-.55.472-1.253.705-2.111.705-1.034 0-1.855-.349-2.478-1.054-.623-.698-.931-1.628-.931-2.798 0-1.163.322-2.115.953-2.857.63-.741 1.451-1.112 2.456-1.104 1.048 0 1.855.37 2.419 1.104.565.734.843 1.65.843 2.741v.261l-5.74-.007c0 .85.205 1.563.623 2.13.418.566 1.048.857 1.884.857 1.224 0 1.98-.639 2.273-1.933h.88Zm-.836-1.781c-.044-.821-.279-1.461-.704-1.926-.425-.465-.982-.698-1.679-.698-.755 0-1.32.24-1.715.727-.389.487-.638 1.119-.734 1.89l4.832.007Zm7.493-1.004h-.88c-.088-1.069-.755-1.607-2.009-1.607-.527 0-.953.109-1.268.328a1.024 1.024 0 0 0-.469.886c0 .182.029.342.102.473.066.131.147.24.228.32.088.079.234.159.454.239.22.08.404.138.565.182.161.044.418.102.77.182.315.08.571.138.769.189.191.051.433.131.719.254.286.124.506.247.674.385.162.138.308.327.426.56.117.233.183.502.176.792 0 .676-.272 1.229-.822 1.643-.542.414-1.253.625-2.133.618-.953 0-1.694-.233-2.221-.691-.528-.458-.807-1.112-.822-1.948h.88c0 .611.191 1.083.579 1.403.389.327.924.487 1.621.487.608 0 1.099-.131 1.466-.392.374-.262.557-.611.557-1.04 0-.232-.059-.429-.183-.603a1.146 1.146 0 0 0-.484-.407 4.463 4.463 0 0 0-.601-.247 6.136 6.136 0 0 0-.631-.167c-.066-.008-.117-.022-.146-.029a5.26 5.26 0 0 0-.462-.109c-.242-.051-.411-.095-.506-.117-.095-.022-.249-.072-.462-.138a2.12 2.12 0 0 1-.462-.189 4.662 4.662 0 0 1-.366-.247 1.183 1.183 0 0 1-.33-.334 2.51 2.51 0 0 1-.191-.422 1.784 1.784 0 0 1-.081-.545c0-.64.242-1.148.734-1.519.483-.371 1.158-.56 2.001-.552.85 0 1.525.203 2.038.603.513.407.77.996.77 1.759Zm-50.085-85.329-.037 22.822-3.9-.007v-1.664c-.646.748-1.313 1.279-2.002 1.613-.689.327-1.495.494-2.419.494a6.728 6.728 0 0 1-2.947-.661 7.328 7.328 0 0 1-2.368-1.795c-.668-.756-1.188-1.65-1.562-2.69-.374-1.032-.557-2.144-.557-3.343 0-1.257.19-2.42.572-3.496.381-1.076.909-2.013 1.583-2.813a7.338 7.338 0 0 1 2.376-1.868 6.64 6.64 0 0 1 2.969-.669c.858 0 1.635.16 2.324.466.689.312 1.371.814 2.06 1.519l.015-7.93 3.893.022Zm-10.528 10.931c-.733.909-1.1 2.094-1.1 3.562 0 1.599.345 2.849 1.041 3.758.697.908 1.657 1.359 2.881 1.366 1.181 0 2.119-.436 2.808-1.308.689-.873 1.034-2.057 1.041-3.547 0-1.6-.337-2.864-1.011-3.787-.675-.923-1.606-1.395-2.786-1.395-1.188 0-2.149.45-2.874 1.351Zm23.227 11.92c-.066-.255-.11-.451-.147-.59a17.698 17.698 0 0 1-.11-.588c-.836.589-1.642 1.01-2.405 1.265-.762.254-1.605.378-2.529.378-.902 0-1.723-.124-2.449-.37-.733-.248-1.356-.597-1.869-1.062a4.952 4.952 0 0 1-1.21-1.65c-.286-.64-.432-1.352-.432-2.144 0-.85.198-1.635.586-2.348.389-.712.902-1.257 1.547-1.642.213-.131.433-.24.66-.335.227-.094.491-.189.792-.269a19.6 19.6 0 0 1 1.077-.269c.418-.094.931-.196 1.533-.298.791-.145 1.451-.276 1.964-.378.514-.101.939-.203 1.276-.283a7.89 7.89 0 0 0 .836-.254c.227-.088.454-.182.696-.284v-.545c0-.705-.256-1.25-.769-1.65-.514-.392-1.232-.596-2.163-.596-1.1 0-1.906.196-2.434.589-.528.392-.821 1.017-.887 1.868l-3.996-.262c.22-1.744.909-3.045 2.068-3.896 1.165-.85 2.859-1.272 5.095-1.272 1.18 0 2.243.124 3.189.371.946.247 1.73.596 2.353 1.047.514.407.887.894 1.107 1.475.228.574.338 1.345.338 2.304l-.015 8.41v.988c.022.487.081.887.191 1.2.11.312.3.675.579 1.104l-4.472-.014Zm-2.185-7.552-2.551.509c-.712.152-1.261.414-1.665.785-.396.378-.601.828-.601 1.366 0 .64.242 1.148.726 1.512.484.363 1.173.545 2.082.552 1.158 0 2.119-.283 2.874-.865.755-.574 1.129-1.315 1.129-2.217l.007-2.253c-.41.197-1.07.4-2.001.61Zm18.59 7.574.015-9.368c0-1.28-.22-2.21-.675-2.784-.447-.574-1.158-.865-2.126-.865-1.18 0-2.104.436-2.756 1.309-.66.872-.99 2.078-.99 3.612l-.015 8.09-3.9-.008.029-16.208 3.901.007v1.6c1.29-1.36 2.925-2.043 4.904-2.036.99 0 1.899.19 2.728.567.828.37 1.451.88 1.884 1.52.344.472.586 1.031.725 1.693.14.661.206 1.533.206 2.624l-.015 10.263-3.915-.015Zm10.127-18.81-3.9-.007.007-3.998 3.9.007-.007 3.998Zm-.029 18.825-3.9-.007.029-16.209 3.9.008-.029 16.208Zm13.136-11.258c-.858-1.686-2.273-2.53-4.252-2.53-.902 0-1.613.16-2.126.473-.513.32-.777.763-.777 1.345 0 .254.044.472.124.64.088.174.235.326.447.464.213.139.514.27.902.386.389.116.873.24 1.452.37l2.676.546c1.657.363 2.866.922 3.643 1.664.77.748 1.159 1.759 1.159 3.038 0 .807-.183 1.555-.55 2.239-.367.683-.887 1.264-1.554 1.759-.667.487-1.452.872-2.354 1.148-.901.276-1.891.414-2.969.407-1.613 0-3.086-.269-4.413-.792-1.335-.524-2.449-1.265-3.351-2.224l2.94-2.297c.689.727 1.386 1.243 2.09 1.555.711.313 1.524.465 2.448.465 1.012 0 1.818-.189 2.42-.574.601-.385.901-.88.901-1.497 0-.407-.146-.705-.447-.894-.3-.189-.872-.378-1.708-.545l-2.287-.45c-3.783-.75-5.668-2.421-5.668-4.994 0-.77.184-1.475.536-2.122a5.51 5.51 0 0 1 1.451-1.694c.616-.48 1.342-.85 2.192-1.112a9.092 9.092 0 0 1 2.757-.392c1.459 0 2.749.247 3.849.726 1.107.48 2.163 1.258 3.174 2.326l-2.705 2.566Zm15.493 11.308.014-9.369c0-1.279-.22-2.21-.674-2.784-.447-.574-1.158-.864-2.126-.864-1.181 0-2.104.436-2.757 1.308-.66.872-.99 2.079-.99 3.612l-.014 8.09-3.9-.007.036-22.823 3.9.007-.014 8.214c.755-.706 1.525-1.214 2.309-1.549.785-.327 1.664-.494 2.632-.494.968 0 1.862.19 2.691.567.828.37 1.451.88 1.884 1.52.345.472.586 1.031.726 1.693.139.661.205 1.533.205 2.623l-.015 10.263-3.907-.007ZM162.024 93.15c-.792-1.962-2.016-2.944-3.673-2.944-1.202 0-2.17.473-2.903 1.432-.733.96-1.1 2.224-1.1 3.802 0 1.577.367 2.849 1.107 3.823.741.974 1.723 1.453 2.948 1.461.857 0 1.598-.255 2.228-.764.623-.508 1.173-1.308 1.65-2.39l3.35 1.795c-.843 1.744-1.847 3.016-3.02 3.815-1.173.8-2.632 1.192-4.37 1.192-1.158 0-2.236-.225-3.226-.676a7.752 7.752 0 0 1-2.544-1.839c-.711-.777-1.268-1.708-1.671-2.783-.403-1.076-.609-2.253-.609-3.533 0-1.257.206-2.42.616-3.496a8.325 8.325 0 0 1 1.716-2.776 7.777 7.777 0 0 1 2.617-1.817c1.012-.436 2.104-.654 3.292-.647 3.328.007 5.726 1.606 7.185 4.804l-3.593 1.541Zm16.276-5.698a7.414 7.414 0 0 1 2.61 1.81c.719.777 1.283 1.707 1.687 2.783.403 1.076.608 2.268.608 3.569 0 1.3-.205 2.486-.616 3.561-.41 1.076-.975 1.999-1.701 2.777a7.258 7.258 0 0 1-2.617 1.802c-1.019.422-2.148.633-3.372.633-1.225 0-2.346-.218-3.365-.647a7.422 7.422 0 0 1-2.61-1.81c-.719-.778-1.283-1.708-1.687-2.784-.403-1.075-.608-2.267-.608-3.569 0-1.3.205-2.485.616-3.56.41-1.077.975-2 1.701-2.777.718-.778 1.591-1.374 2.617-1.803 1.019-.421 2.148-.632 3.372-.632 1.225.007 2.346.225 3.365.647Zm-6.407 4.368c-.733.916-1.1 2.173-1.1 3.772 0 1.6.359 2.856 1.093 3.772.725.916 1.737 1.374 3.027 1.381 1.291 0 2.302-.45 3.036-1.366.733-.916 1.099-2.173 1.099-3.772 0-1.6-.359-2.857-1.092-3.773-.733-.916-1.738-1.373-3.028-1.38-1.29 0-2.302.457-3.035 1.366Zm23.226 11.935.015-9.369c0-1.279-.22-2.21-.675-2.783-.447-.575-1.158-.865-2.126-.865-1.18 0-2.104.436-2.756 1.308-.66.872-.99 2.079-.99 3.612l-.015 8.09-3.9-.007.029-16.209 3.9.008v1.599c1.291-1.36 2.926-2.043 4.905-2.035.99 0 1.899.189 2.727.567.829.37 1.452.879 1.885 1.519.344.472.586 1.032.725 1.693.14.662.206 1.534.206 2.624l-.015 10.263-3.915-.015Zm17.206-10.525c-.792-1.962-2.016-2.944-3.673-2.944-1.202 0-2.17.473-2.903 1.432-.733.96-1.1 2.224-1.1 3.802 0 1.577.367 2.849 1.107 3.823.741.974 1.723 1.453 2.947 1.461.858 0 1.599-.255 2.229-.763.623-.51 1.173-1.309 1.65-2.392l3.35 1.796c-.843 1.744-1.847 3.016-3.02 3.815-1.173.8-2.632 1.192-4.37 1.192-1.158 0-2.236-.225-3.226-.676a7.743 7.743 0 0 1-2.544-1.838c-.711-.778-1.268-1.708-1.671-2.784-.404-1.076-.609-2.253-.609-3.533 0-1.257.205-2.42.616-3.496.411-1.075.982-1.998 1.716-2.776a7.777 7.777 0 0 1 2.617-1.817c1.012-.436 2.104-.654 3.292-.647 3.328.007 5.725 1.606 7.184 4.804l-3.592 1.541Zm8.313 3.213c.102 1.367.557 2.442 1.349 3.227.792.792 1.847 1.185 3.16 1.185.777 0 1.466-.182 2.082-.538.616-.363 1.209-.945 1.796-1.751l3.35 2.02c-1.935 2.617-4.457 3.925-7.551 3.918-1.268 0-2.419-.211-3.446-.633-1.033-.414-1.906-.995-2.624-1.744-.719-.749-1.276-1.65-1.672-2.718-.396-1.069-.594-2.246-.594-3.547 0-1.389.184-2.631.557-3.736.367-1.105.902-2.05 1.599-2.828a7.015 7.015 0 0 1 2.514-1.788c.975-.414 2.082-.617 3.307-.617 5.029.007 7.639 3.198 7.822 9.572l-11.649-.022Zm6.232-5.451c-.646-.64-1.496-.96-2.544-.967-1.958 0-3.153 1.221-3.586 3.67l7.259.015c-.11-1.177-.484-2.078-1.129-2.718Zm10.969-3.372v1.664c.689-.763 1.363-1.308 2.031-1.628.667-.32 1.459-.48 2.39-.472 1.055 0 2.038.225 2.947.661a7.339 7.339 0 0 1 2.368 1.796c.667.755 1.188 1.65 1.561 2.674.374 1.025.558 2.13.558 3.33 0 1.257-.191 2.427-.572 3.517-.381 1.09-.902 2.028-1.569 2.827a7.174 7.174 0 0 1-2.375 1.868 6.685 6.685 0 0 1-2.955.669c-1.782 0-3.255-.669-4.414-1.992l-.014 6.775-3.9-.008.036-21.674 3.908-.007Zm.99 4.52c-.712.888-1.071 2.058-1.071 3.533 0 1.621.33 2.886 1.012 3.809.674.916 1.613 1.373 2.815 1.381 1.202 0 2.163-.444 2.874-1.338.711-.894 1.07-2.086 1.07-3.576 0-1.577-.344-2.827-1.041-3.743-.696-.916-1.635-1.374-2.815-1.38-1.188-.008-2.133.435-2.844 1.315Zm20.903-1.737-3.16-.007-.015 8.148c0 .77.14 1.308.418 1.628.279.32.748.48 1.415.48.301 0 .711-.029 1.224-.095l.389-.029-.007 3.453c-.601.087-1.078.145-1.423.174-.344.029-.718.044-1.129.044-1.847 0-3.145-.4-3.9-1.192a2.603 2.603 0 0 1-.469-.611 2.822 2.822 0 0 1-.271-.785 6.447 6.447 0 0 1-.125-1.119 33.544 33.544 0 0 1-.029-1.614l.014-8.504-2.258-.007.008-2.747 2.258.007.014-6.65 3.901.007-.015 6.65 3.16.008v2.761Zm-147.928 18.68c-29.802-7.973-47.44-38.384-39.406-67.93 8.035-29.545 38.717-47.032 68.519-39.066l-29.113 106.996Z"/><path d="M29.113 0c29.802 7.973 47.441 38.384 39.406 67.93C60.484 97.475 29.802 114.963 0 106.989L29.113 0Z"/></g><defs><clipPath id="a"><path fill="#fff" d="M0 0h260v149H0z"/></clipPath></defs></svg>