<svg width="120" height="35" fill="none" xmlns="http://www.w3.org/2000/svg"><path d="M63.935.668v14.678h-2.487v-1.068c-.411.48-.837.825-1.275 1.038-.439.212-.953.319-1.541.319a4.295 4.295 0 0 1-1.88-.42 4.713 4.713 0 0 1-1.512-1.151 5.366 5.366 0 0 1-.998-1.728 6.303 6.303 0 0 1-.36-2.148c0-.81.121-1.56.36-2.25a5.65 5.65 0 0 1 1.007-1.81 4.713 4.713 0 0 1 1.512-1.202 4.153 4.153 0 0 1 1.891-.432c.548 0 1.041.1 1.48.298.439.197.877.525 1.316.977V.67h2.487V.668Zm-6.702 7.04c-.465.582-.697 1.346-.697 2.291 0 1.028.222 1.833.668 2.417.446.582 1.06.873 1.839.873.752 0 1.35-.282 1.789-.844.439-.561.657-1.322.657-2.282 0-1.027-.216-1.839-.648-2.437-.432-.598-1.025-.893-1.778-.893-.754.002-1.364.293-1.83.875Zm14.821 7.642c-.04-.164-.073-.29-.093-.378a6.413 6.413 0 0 1-.073-.377c-.534.38-1.045.652-1.532.813a5.044 5.044 0 0 1-1.614.244c-.575 0-1.096-.08-1.562-.237a3.378 3.378 0 0 1-1.19-.677 3.112 3.112 0 0 1-.771-1.06 3.336 3.336 0 0 1-.278-1.377c0-.548.123-1.053.37-1.512a2.71 2.71 0 0 1 .987-1.059 3.494 3.494 0 0 1 .926-.391c.19-.055.42-.114.688-.175.266-.061.594-.127.978-.196.507-.095.925-.177 1.255-.245.33-.068.6-.13.811-.184a5.172 5.172 0 0 0 .975-.348v-.35c0-.452-.163-.805-.493-1.06-.33-.252-.789-.379-1.377-.379-.698 0-1.217.127-1.553.38-.336.254-.525.654-.566 1.202l-2.548-.164c.136-1.122.575-1.959 1.316-2.507.741-.548 1.823-.823 3.248-.823.753 0 1.433.08 2.035.237.602.156 1.102.382 1.5.668.33.261.566.575.71.946.143.37.215.863.215 1.48v6.048c.014.316.055.573.123.771.068.198.191.434.37.71h-2.857Zm-1.398-4.854-1.623.332c-.452.098-.805.266-1.06.507-.254.24-.379.534-.379.88 0 .413.155.738.462.973.307.234.75.352 1.325.352.741 0 1.35-.186 1.83-.56.48-.372.718-.847.718-1.427v-1.448c-.259.123-.684.255-1.273.391Zm11.86 4.848V9.322c0-.823-.143-1.418-.432-1.789-.289-.37-.741-.555-1.357-.555-.755 0-1.339.282-1.757.844-.418.561-.628 1.336-.628 2.323v5.201h-2.486V4.923h2.486v1.028c.823-.877 1.864-1.316 3.124-1.316.63 0 1.21.12 1.737.359.527.239.927.566 1.202.977.218.303.373.666.462 1.09.088.424.134.986.134 1.684v6.599h-2.485Zm6.436-12.107h-2.487V.668h2.487v2.569Zm0 12.107h-2.487V4.92h2.487v10.423Zm8.367-7.256c-.548-1.082-1.453-1.623-2.715-1.623-.575 0-1.027.102-1.357.309-.33.207-.493.493-.493.864a.92.92 0 0 0 .082.411c.055.11.15.21.289.298.136.088.33.17.575.245.245.075.554.155.925.237l1.707.35c1.055.234 1.83.589 2.323 1.068.494.48.741 1.13.741 1.953a3 3 0 0 1-.35 1.439 3.36 3.36 0 0 1-.986 1.13 4.978 4.978 0 0 1-1.5.74 6.403 6.403 0 0 1-1.892.267c-1.027 0-1.966-.168-2.816-.505-.85-.336-1.562-.812-2.137-1.428l1.87-1.48c.44.467.885.799 1.337.999.453.197.973.297 1.562.297.643 0 1.157-.122 1.541-.37.384-.248.575-.569.575-.966 0-.26-.095-.453-.288-.575-.194-.123-.555-.24-1.09-.35l-1.459-.29c-2.411-.479-3.619-1.547-3.619-3.207 0-.493.114-.948.34-1.366a3.45 3.45 0 0 1 .924-1.089 4.418 4.418 0 0 1 1.398-.72 5.821 5.821 0 0 1 1.758-.257c.932 0 1.75.154 2.457.461.705.31 1.38.805 2.025 1.491L97.32 8.088Zm9.884 7.256V9.322c0-.823-.143-1.418-.431-1.789-.289-.37-.742-.555-1.358-.555-.754 0-1.338.282-1.757.844-.418.561-.627 1.336-.627 2.323v5.201h-2.487V.668h2.487v5.283c.48-.452.968-.784 1.468-.998.5-.211 1.06-.318 1.676-.318.616 0 1.189.12 1.716.359.527.239.927.566 1.203.977.218.303.372.666.461 1.09.089.424.134.986.134 1.684v6.599h-2.485ZM57.53 23.137c-.506-1.262-1.288-1.892-2.343-1.892-.768 0-1.384.31-1.85.926-.466.616-.698 1.432-.698 2.446 0 1.013.236 1.832.71 2.457.472.623 1.1.934 1.879.934.548 0 1.02-.163 1.419-.493.397-.33.747-.843 1.047-1.541l2.137 1.15c-.534 1.123-1.175 1.944-1.92 2.457-.748.514-1.676.77-2.785.77a4.908 4.908 0 0 1-3.678-1.614c-.45-.5-.81-1.095-1.069-1.788a6.379 6.379 0 0 1-.39-2.271c0-.81.129-1.56.39-2.25a5.347 5.347 0 0 1 1.09-1.79c.465-.5 1.02-.89 1.663-1.173a5.169 5.169 0 0 1 2.096-.42c2.123 0 3.65 1.027 4.585 3.082l-2.282 1.01Zm10.37-3.681c.65.275 1.205.662 1.664 1.162.46.5.818 1.096 1.08 1.789a6.5 6.5 0 0 1 .39 2.291c0 .837-.129 1.6-.39 2.292a5.479 5.479 0 0 1-1.08 1.789c-.46.5-1.014.886-1.664 1.161a5.499 5.499 0 0 1-2.148.412 5.458 5.458 0 0 1-2.148-.412 4.706 4.706 0 0 1-1.664-1.161 5.457 5.457 0 0 1-1.08-1.79c-.262-.69-.391-1.454-.391-2.29 0-.837.13-1.6.39-2.292a5.44 5.44 0 0 1 1.08-1.789c.46-.5 1.014-.887 1.664-1.162a5.498 5.498 0 0 1 2.149-.411c.78 0 1.496.139 2.148.411Zm-4.08 2.817c-.467.589-.698 1.398-.698 2.425 0 1.028.231 1.837.697 2.426.466.589 1.11.884 1.933.884s1.466-.295 1.932-.884c.466-.589.698-1.398.698-2.426 0-1.027-.234-1.836-.698-2.425-.466-.589-1.11-.884-1.932-.884-.823 0-1.469.295-1.932.884Zm14.821 7.647v-6.024c0-.823-.143-1.418-.432-1.789-.289-.37-.741-.554-1.357-.554-.755 0-1.339.281-1.757.843-.418.561-.628 1.337-.628 2.323v5.201h-2.486V19.498h2.486v1.027c.823-.877 1.864-1.316 3.124-1.316.63 0 1.21.12 1.737.36.527.238.927.565 1.202.977.218.302.373.666.462 1.088.088.426.134.987.134 1.685v6.6H78.64v.001Zm10.956-6.783c-.507-1.262-1.289-1.892-2.343-1.892-.769 0-1.385.31-1.85.926-.467.616-.699 1.432-.699 2.446 0 1.013.237 1.832.71 2.457.472.623 1.1.934 1.88.934.547 0 1.02-.163 1.418-.493.398-.33.748-.843 1.048-1.541l2.137 1.15c-.534 1.123-1.176 1.944-1.921 2.457-.748.514-1.675.77-2.785.77a4.908 4.908 0 0 1-3.678-1.614c-.45-.5-.81-1.095-1.068-1.788a6.379 6.379 0 0 1-.391-2.271c0-.81.13-1.56.39-2.25a5.347 5.347 0 0 1 1.09-1.79c.466-.5 1.02-.89 1.663-1.173a5.168 5.168 0 0 1 2.096-.42c2.124 0 3.651 1.027 4.585 3.082l-2.282 1.01Zm5.302 2.054c.068.878.357 1.569.864 2.076.507.507 1.177.761 2.014.761.493 0 .934-.116 1.325-.35.391-.234.77-.609 1.141-1.13l2.137 1.296c-1.232 1.687-2.837 2.528-4.81 2.528-.81 0-1.541-.134-2.2-.4a4.76 4.76 0 0 1-1.676-1.12 4.97 4.97 0 0 1-1.068-1.749c-.255-.684-.38-1.446-.38-2.282 0-.891.116-1.692.35-2.405a5.046 5.046 0 0 1 1.019-1.819c.445-.5.98-.884 1.602-1.15.623-.268 1.326-.4 2.108-.4 3.207 0 4.871 2.048 4.994 6.147h-7.42v-.003Zm3.967-3.514c-.412-.412-.953-.616-1.623-.616-1.248 0-2.008.789-2.283 2.364h4.626c-.068-.755-.309-1.337-.72-1.748Zm6.992-2.179v1.068c.439-.493.871-.843 1.296-1.048.425-.207.932-.309 1.52-.309.671 0 1.299.14 1.88.42a4.747 4.747 0 0 1 1.512 1.15 5.41 5.41 0 0 1 .998 1.717 6.21 6.21 0 0 1 .359 2.137c0 .81-.12 1.562-.359 2.262a5.744 5.744 0 0 1-.998 1.818 4.564 4.564 0 0 1-1.512 1.203 4.17 4.17 0 0 1-1.88.432c-1.136 0-2.075-.425-2.816-1.276v4.358h-2.487V19.493h2.487v.005Zm.636 2.91c-.452.568-.677 1.325-.677 2.27 0 1.041.216 1.857.648 2.446.432.59 1.03.885 1.798.885s1.378-.29 1.83-.864c.452-.575.677-1.344.677-2.303 0-1.014-.222-1.816-.668-2.405-.445-.589-1.046-.884-1.798-.884-.755 0-1.357.286-1.81.854Zm13.321-1.143h-2.014v5.242c0 .494.088.844.266 1.048.177.207.479.31.905.31.19 0 .452-.02.782-.062l.247-.02v2.22c-.384.055-.686.094-.904.114-.221.02-.46.032-.721.032-1.18 0-2.007-.252-2.487-.761a1.695 1.695 0 0 1-.298-.391 1.796 1.796 0 0 1-.175-.505 4.797 4.797 0 0 1-.082-.72 23.01 23.01 0 0 1-.02-1.04v-5.466h-1.439v-1.77h1.439V15.22h2.487v4.278h2.014v1.768ZM34.695 34.1c-9.252-2.48-14.742-11.99-12.264-21.241C24.91 3.607 34.42-1.883 43.67.595L34.696 34.1Z" fill="#1D1D1B"/><path d="M8.977.002c9.252 2.48 14.742 11.989 12.264 21.24C18.76 30.496 9.252 35.986 0 33.508L8.977.002Z" fill="#1D1D1B"/></svg>