<svg width="1251" height="960" fill="none" xmlns="http://www.w3.org/2000/svg"><path d="M179.845 145.025C325.125-266.949 1335.29 24.327 1271.45 8.23V960s-1542.384 339.5-1187.384 0c354.999-339.5-49.5-403 95.779-814.975z" fill="#C4C4C4"/><path d="M1274.65 974.653c.02-.002.02-.004-3.2-14.653l3.22 14.649 11.78-2.592V12.224c1.22-4.105 1.56-8.476.44-11.58-1.48-1.907-4.03-4.13-4.86-4.66-.45-.26-1.19-.642-1.48-.782-.54-.246-.99-.418-1.19-.489-.45-.168-.89-.315-1.21-.42-.7-.225-1.6-.496-2.63-.797-4.15-1.213-11.97-3.36-22.94-6.189-22-5.672-57.01-14.17-101.23-23.521-88.4-18.692-213.931-40.851-346.185-50.572-132.034-9.705-271.884-7.105-388.407 24.42-116.574 31.538-212.434 92.871-251.059 202.403-37.17 105.405-39.351 189.215-26.969 260.94 9.388 54.38 27.308 102.02 43.624 145.399 4.939 13.13 9.731 25.87 14.095 38.288 19.015 54.107 30.58 103.378 17.323 159.24-13.325 56.151-52.337 121.349-140.073 205.255-22.78 21.785-38.89 41.705-48.176 60.001-9.345 18.41-12.42 36.56-6.504 53.31 5.851 16.56 19.342 28.44 35.961 36.95 16.643 8.52 37.94 14.49 62.362 18.6 97.137 16.33 258.732 5.37 429.142-15.82 171.069-21.28 353.13-53.17 492.326-79.72 69.62-13.28 128.56-25.235 170.11-33.869 20.77-4.317 37.2-7.805 48.44-10.215 5.62-1.205 9.94-2.14 12.86-2.775l3.32-.723.84-.185.22-.047.05-.013z" stroke="#fff" stroke-opacity=".01" stroke-width="30"/></svg>