<svg width="203" height="50" fill="none" xmlns="http://www.w3.org/2000/svg"><g clip-path="url(#clip0_3_4283)" fill="#fff"><path d="M29.972 27.735v10.943l-9.986 5.472V33.207l9.986-5.472zm-9.986 5.472V44.15L9.971 49.62V38.678l10.015-5.471zM9.971 49.621L-.015 44.15V33.207l9.986 5.471v10.943zM-.015 22.264l9.986-5.471 10.015 5.471-10.015 5.472-9.986-5.472z"/><path d="M9.971 38.678l-9.986-5.471V22.264l9.986 5.472v10.942zm10.015-16.414V11.321l9.986-5.47v10.942l-9.986 5.471zm9.986-5.471V5.85L39.987.38v10.943l-10.015 5.471z"/><path d="M39.987.379l9.986 5.471v10.943l-9.986-5.471V.379zm9.987 27.357l-9.987 5.47-10.015-5.47 10.015-5.472 9.986 5.472z"/><path d="M39.987 11.322l9.986 5.471v10.943l-9.986-5.471V11.322zM85.532 30.07v6.195c-1.699.84-3.457 1.26-5.275 1.26-3.9 0-7.034-1.132-9.402-3.395-2.488-2.357-3.732-5.309-3.732-8.855 0-3.5 1.244-6.428 3.732-8.785 2.368-2.24 5.347-3.36 8.935-3.36 1.77 0 3.684.431 5.742 1.295v6.23c-1.603-1.657-3.47-2.485-5.598-2.485-1.962 0-3.589.606-4.88 1.82-1.508 1.423-2.261 3.22-2.261 5.39 0 2.123.694 3.838 2.081 5.145 1.34 1.306 3.062 1.96 5.168 1.96 1.985 0 3.815-.805 5.49-2.415zm3.82-8.68h5.168V30c0 1.143.298 1.983.897 2.52.55.49 1.267.735 2.153.735.909 0 1.638-.245 2.189-.735.574-.537.861-1.377.861-2.52v-8.61h5.167v9.1c0 1.073-.12 2.006-.359 2.8-.215.77-.694 1.505-1.435 2.205-1.412 1.353-3.553 2.03-6.423 2.03-2.895 0-5.048-.677-6.46-2.03-1.172-1.12-1.758-2.683-1.758-4.69V21.39zm28.97 4.06h-3.194V37h-5.167V25.45h-1.794v-4.06h1.794v-5.04h5.167v5.04h3.194v4.06zm20.125 4.62v6.195c-1.699.84-3.458 1.26-5.275 1.26-3.9 0-7.034-1.132-9.402-3.395-2.488-2.357-3.732-5.309-3.732-8.855 0-3.5 1.244-6.428 3.732-8.785 2.368-2.24 5.347-3.36 8.935-3.36 1.77 0 3.684.431 5.742 1.295v6.23c-1.603-1.657-3.469-2.485-5.598-2.485-1.962 0-3.589.606-4.881 1.82-1.507 1.423-2.26 3.22-2.26 5.39 0 2.123.693 3.838 2.081 5.145 1.34 1.306 3.062 1.96 5.167 1.96 1.986 0 3.816-.805 5.491-2.415zm19.429-6.685c1.603 1.563 2.404 3.5 2.404 5.81 0 2.31-.801 4.246-2.404 5.81-1.722 1.68-4.055 2.52-6.997 2.52-2.943 0-5.275-.84-6.998-2.52-1.602-1.564-2.404-3.5-2.404-5.81 0-2.31.802-4.247 2.404-5.81 1.723-1.68 4.055-2.52 6.998-2.52 2.942 0 5.275.84 6.997 2.52zm-4.091 2.87c-.765-.747-1.734-1.12-2.906-1.12-1.172 0-2.141.373-2.907 1.12-.789.77-1.184 1.75-1.184 2.94s.395 2.17 1.184 2.94c.766.747 1.747 1.12 2.943 1.12 1.148 0 2.105-.373 2.87-1.12.79-.77 1.184-1.75 1.184-2.94s-.394-2.17-1.184-2.94zm27.157-14.77V37h-5.167v-1.89c-1.124 1.61-2.811 2.415-5.06 2.415-2.248 0-4.078-.712-5.49-2.135-1.674-1.633-2.512-3.722-2.512-6.265 0-2.544.838-4.597 2.512-6.16 1.507-1.4 3.361-2.1 5.562-2.1 2.177 0 3.84.758 4.988 2.275V11.485h5.167zm-8.899 13.72c-1.1 0-2.021.35-2.763 1.05-.837.77-1.256 1.762-1.256 2.975 0 1.143.419 2.1 1.256 2.87.766.723 1.663 1.085 2.691 1.085 1.149 0 2.13-.385 2.943-1.155.789-.724 1.184-1.657 1.184-2.8 0-1.12-.383-2.077-1.148-2.87-.766-.77-1.735-1.155-2.907-1.155zm17.675 1.855h6.998c-.192-.747-.539-1.354-1.041-1.82-.646-.583-1.459-.875-2.44-.875-1.053 0-1.926.338-2.62 1.015a3.238 3.238 0 00-.897 1.68zm11.77 2.485v.525h-11.949c0 1.073.323 1.96.969 2.66.622.653 1.507.98 2.655.98.861 0 1.555-.152 2.081-.455.407-.21.778-.642 1.113-1.295l4.88.49c-.55 1.703-1.579 3.01-3.086 3.92-1.316.77-3.002 1.155-5.06 1.155-2.727 0-4.856-.747-6.387-2.24-1.603-1.563-2.404-3.57-2.404-6.02 0-2.474.813-4.527 2.44-6.16 1.531-1.494 3.576-2.24 6.136-2.24 2.703 0 4.82.782 6.352 2.345 1.507 1.563 2.26 3.675 2.26 6.335z"/></g><defs><clipPath id="clip0_3_4283"><path fill="#fff" d="M0 0h203v50H0z"/></clipPath></defs></svg>