<svg width="325" height="324" fill="none" xmlns="http://www.w3.org/2000/svg"><path d="M194.963 179.999v72l-64.926 36v-72l64.926-36z" fill="#fff"/><path d="M130.037 215.999v72L64.924 324v-72.001l65.113-36z" fill="#fff"/><path d="M64.925 324L0 287.999v-72l64.925 36V324zM0 143.999l64.925-36 65.113 36-65.113 36-64.925-36z" fill="#fff"/><path d="M64.925 251.999L0 215.999v-72l64.925 36v72zm65.112-108v-72L194.963 36v72l-64.926 35.999z" fill="#fff"/><path d="M194.962 107.999v-72L260.075 0v72l-65.113 35.999zM260.076 0L325 36v71.999l-64.924-36V0zM325 179.999l-64.925 36L194.962 180l65.113-36.001 64.925 36z" fill="#fff"/><path d="M260.076 71.999L325 107.998v72l-64.924-36v-72z" fill="#fff"/></svg>