<svg fill="#ffb228" xmlns="http://www.w3.org/2000/svg" viewBox="0 0 480.005 480.005"><path d="M89.241 386.347c-12.738-.904-23.796 8.69-24.7 21.428-.904 12.738 8.69 23.796 21.428 24.7.56.04 1.12.056 1.672.056 12.769-.005 23.116-10.359 23.112-23.128-.005-12.142-9.4-22.212-21.512-23.056zm5.498 23.516l-.002.027-.032.024a7.065 7.065 0 01-2.4 4.88 6.938 6.938 0 01-5.168 1.72 7.12 7.12 0 01-6.627-7.581 7.12 7.12 0 017.123-6.643h.504a7.105 7.105 0 016.602 7.573zm250.502-23.516c-12.738-.904-23.796 8.69-24.7 21.428-.904 12.738 8.69 23.796 21.428 24.7.56.04 1.12.056 1.672.056 12.769-.005 23.116-10.359 23.112-23.128-.005-12.142-9.4-22.212-21.512-23.056zm5.498 23.516l-.002.027-.032.024a7.065 7.065 0 01-2.4 4.88 6.905 6.905 0 01-5.168 1.72 7.12 7.12 0 01-6.627-7.581 7.12 7.12 0 017.123-6.643h.504a7.105 7.105 0 016.602 7.573zm-126.738-73.852h-32a8 8 0 000 16h32a8 8 0 000-16zm-171.2-286.4a7.998 7.998 0 00-4.8-1.6h-8l14.4-19.2a8 8 0 00-1.6-11.2 8 8 0 00-11.2 1.6l-24 32a8 8 0 006.4 12.8h8l-14.4 19.2a8.001 8.001 0 0012.796 9.606l.004-.006 24-32a8 8 0 00-1.6-11.2z"/><path d="M454.055 192.009A123.853 123.853 0 00356 144.01H159.36c-3.973-27.527-27.547-47.967-55.36-48H56a8 8 0 00-8 8v16H0v16h48v32H0v16h48v16a8 8 0 008 8h48c27.813-.033 51.387-20.473 55.36-48H356c59.549-.1 107.905 48.094 108.004 107.644A107.825 107.825 0 01432 344.498V328.01a8 8 0 00-2.344-5.656l-12.16-12.16a237.889 237.889 0 00-160.408-69.968 8.053 8.053 0 00-1.088-.216 6.248 6.248 0 00-.856.176c-2.4-.072-4.712-.176-7.08-.176a239.424 239.424 0 00-159.2 60.52l-4.856 4.32-44.096 13.232C16.154 325.089-.114 346.953 0 371.722v36.288a8 8 0 008 8h24.64c4.391 30.574 32.736 51.8 63.311 47.409 24.574-3.529 43.88-22.836 47.409-47.409h145.28c4.391 30.574 32.736 51.8 63.311 47.409 24.574-3.529 43.88-22.836 47.409-47.409H424a8 8 0 008-8v-42.248c54.072-41.89 63.946-119.682 22.055-173.753zm-350.054.002h-40v-80h40c22.091 0 40 17.909 40 40s-17.909 40-40 40zm-16 256c-22.091 0-40-17.909-40-40s17.909-40 40-40 40 17.909 40 40c-.027 22.08-17.92 39.973-40 40zm160-48H143.433c-.088-.616-.24-1.208-.352-1.816-.136-.8-.264-1.528-.432-2.28-.224-1.008-.496-2-.8-2.984-.2-.712-.384-1.432-.616-2.128-.328-1.024-.72-2.024-1.104-3.024-.248-.632-.464-1.272-.736-1.888-.48-1.12-1.024-2.2-1.6-3.28-.24-.464-.448-.952-.696-1.408-.8-1.504-1.72-2.976-2.68-4.4-.24-.352-.512-.68-.8-1.024a52.346 52.346 0 00-2.32-3.112c-.416-.504-.864-.976-1.296-1.464-.704-.8-1.408-1.6-2.152-2.4-.496-.512-1.024-.992-1.544-1.48-.736-.688-1.472-1.376-2.24-2.032-.56-.48-1.144-.928-1.728-1.384-.8-.608-1.56-1.2-2.4-1.768a51.194 51.194 0 00-1.88-1.256 48.404 48.404 0 00-2.504-1.52 60.339 60.339 0 00-2-1.096 62.697 62.697 0 00-2.664-1.28 52.373 52.373 0 00-2.072-.904c-.944-.384-1.904-.72-2.864-1.056-.704-.232-1.392-.488-2.104-.696-1.024-.304-2.064-.552-3.104-.8-.688-.16-1.36-.344-2.056-.48-1.168-.232-2.36-.392-3.56-.544-.592-.08-1.176-.192-1.776-.248-1.672-.144-3.504-.248-5.352-.248s-3.68.104-5.48.28c-.6.056-1.184.168-1.776.248-1.2.152-2.4.312-3.56.544-.696.136-1.368.32-2.056.48-1.04.248-2.08.496-3.104.8-.712.208-1.4.464-2.104.696-.96.336-1.92.672-2.864 1.056-.696.28-1.384.592-2.072.904-.896.408-1.792.8-2.664 1.28-.672.352-1.344.72-2 1.096-.848.488-1.688.992-2.504 1.52-.64.408-1.264.8-1.88 1.256-.8.568-1.6 1.16-2.4 1.768-.584.456-1.168.904-1.728 1.384-.8.656-1.504 1.344-2.24 2.032-.52.488-1.048.968-1.544 1.48-.744.76-1.448 1.6-2.152 2.4-.432.488-.88.96-1.296 1.464-.8 1-1.6 2.048-2.32 3.112-.248.344-.52.672-.76 1.024a58.647 58.647 0 00-2.68 4.4c-.248.456-.456.944-.696 1.408a73.175 73.175 0 00-1.6 3.28c-.272.616-.488 1.256-.736 1.888-.384 1-.8 2-1.104 3.024-.232.696-.416 1.416-.616 2.128a146.82 146.82 0 00-.8 2.984c-.168.752-.296 1.52-.432 2.28-.112.608-.264 1.2-.352 1.816h-16.48v-28.32c-.082-17.69 11.536-33.307 28.504-38.312l44.68-13.4h158.816v80zm0-96H109.713a223.293 223.293 0 01138.288-48v48zm16-47.376a221.649 221.649 0 0197.952 30.472l-28.168 16.904h-69.784v-47.376zm80 191.376c-22.091 0-40-17.909-40-40s17.909-40 40-40 40 17.909 40 40c-.027 22.08-17.92 39.973-40 40zm72-48h-16.568c-.088-.616-.24-1.208-.352-1.816-.136-.8-.264-1.528-.432-2.28-.224-1.008-.496-2-.8-2.984-.2-.712-.384-1.432-.616-2.128-.328-1.024-.72-2.024-1.104-3.024-.248-.632-.464-1.272-.736-1.888-.48-1.12-1.024-2.2-1.6-3.28-.24-.464-.448-.952-.696-1.408-.8-1.504-1.72-2.976-2.68-4.4-.24-.352-.512-.68-.76-1.024a52.346 52.346 0 00-2.32-3.112c-.416-.504-.864-.976-1.296-1.464-.704-.8-1.408-1.6-2.152-2.4-.496-.512-1.024-.992-1.544-1.48-.736-.688-1.472-1.376-2.24-2.032-.56-.48-1.144-.928-1.728-1.384-.8-.608-1.6-1.2-2.4-1.768a51.194 51.194 0 00-1.88-1.256 48.404 48.404 0 00-2.504-1.52 60.339 60.339 0 00-2-1.096 62.697 62.697 0 00-2.664-1.28 52.373 52.373 0 00-2.072-.904c-.944-.384-1.904-.72-2.864-1.056-.704-.232-1.392-.488-2.104-.696-1.024-.304-2.064-.552-3.104-.8-.688-.16-1.36-.344-2.056-.48-1.168-.232-2.36-.392-3.56-.544-.592-.08-1.176-.192-1.776-.248a64.71 64.71 0 00-5.392-.248c-1.848 0-3.68.104-5.48.28-.6.056-1.184.168-1.776.248-1.2.152-2.4.312-3.56.544-.696.136-1.368.32-2.056.48-1.04.248-2.08.496-3.104.8-.712.208-1.4.464-2.104.696-.96.336-1.92.672-2.864 1.056-.696.28-1.384.592-2.072.904-.896.408-1.792.8-2.664 1.28-.672.352-1.344.72-2 1.096-.848.488-1.688.992-2.504 1.52-.64.408-1.264.8-1.88 1.256-.8.568-1.6 1.16-2.4 1.768-.584.456-1.168.904-1.728 1.384-.8.656-1.504 1.344-2.24 2.032-.52.488-1.048.968-1.544 1.48-.744.76-1.448 1.6-2.152 2.4-.432.488-.88.96-1.296 1.464-.8 1-1.6 2.048-2.32 3.112-.248.344-.52.672-.76 1.024a58.647 58.647 0 00-2.68 4.4c-.248.456-.456.944-.696 1.408a73.175 73.175 0 00-1.6 3.28c-.272.616-.488 1.256-.736 1.888-.384 1-.8 2-1.104 3.024-.232.696-.416 1.416-.616 2.128a146.82 146.82 0 00-.8 2.984c-.168.752-.296 1.52-.432 2.28-.112.608-.264 1.2-.352 1.816h-24.48v-80.032h72a7.995 7.995 0 004.12-1.144l36.728-22.056a225.63 225.63 0 0129.336 24.672l9.816 9.84v68.688z"/></svg>