<svg fill="#ffb228" xmlns="http://www.w3.org/2000/svg" viewBox="0 0 512 512"><path d="M486.4 0H25.6C11.468.015.015 11.468 0 25.6v460.8c.015 14.132 11.468 25.585 25.6 25.6h460.8c14.132-.015 25.585-11.468 25.6-25.6V25.6C511.985 11.468 500.532.015 486.4 0zm8.533 486.4a8.539 8.539 0 01-8.533 8.533H25.6a8.539 8.539 0 01-8.533-8.533V25.6a8.539 8.539 0 018.533-8.533h460.8a8.539 8.539 0 018.533 8.533v460.8z"/><path d="M469.333 34.133H42.667a8.525 8.525 0 00-8.533 8.533v426.667a8.525 8.525 0 008.533 8.533h426.667a8.525 8.525 0 008.533-8.533V42.667a8.53 8.53 0 00-8.534-8.534zM354.482 51.2l31.235 36.45a127.39 127.39 0 0124.25 42.825l5.25 15.758a16.983 16.983 0 01-.925 13.033l-13.042 26.092a16.823 16.823 0 01-16.808 9.358l-76.467-6.95a8.233 8.233 0 00-1.736.188 34.07 34.07 0 00-8.572-8.296l-25.532-17.023a34.112 34.112 0 0012.782-15.685l8.1-20.292a33.975 33.975 0 00-3.258-31.592l-2-3.033a34.267 34.267 0 00-4.233-5.092L319.267 51.2h35.215zm-65.815 251l-13.564-13.564a33.975 33.975 0 003.322-3.953l24.542-36.808a34.23 34.23 0 005.058-12.233l4.183-20.892c.607-3.098.783-6.265.522-9.41l70.161 6.377c1.067.092 2.125.142 3.175.142a34.135 34.135 0 007.262-.858l6.996 48.992a34.457 34.457 0 005.4 14.108l7.958 11.942a34.329 34.329 0 003.406 4.164l-25.114 50.227a16.976 16.976 0 01-15.266 9.433h-14.583a50.839 50.839 0 01-20.167-4.142l-43.292-18.549v-.842a34.342 34.342 0 00-9.999-24.134zm-116.292-41.075l-17.047-22.727a33.875 33.875 0 006.805-20.299v-17.571c.794.056 1.583.146 2.383.146a34.151 34.151 0 009.442-1.325l39.925-11.45a31.058 31.058 0 003.208-1.05c.117-.05.942-.358 1.05-.408l35.871-15.377 34.187 22.794a17.002 17.002 0 017.275 17.542l-4.183 20.892a17.156 17.156 0 01-2.533 6.125l-24.533 36.8a16.96 16.96 0 01-12.658 7.525L179.2 289.32v-7.72a34.406 34.406 0 00-6.825-20.475zm6.577 45.359l74.165-6.742a34.438 34.438 0 007.436-1.522l16.047 16.047a17.191 17.191 0 015 12.067v17.492a17.222 17.222 0 01-1.8 7.633L263.975 383.1a16.975 16.975 0 01-15.267 9.433h-46.4a18.796 18.796 0 01-8.383-2.125l-34.626-13.352a33.895 33.895 0 00-9.233-17.19l-11.351-11.351 25.926-18.149a34.157 34.157 0 0014.311-23.882zm8.781-231.751V51.2h107.4l-26.83 26.83a34.18 34.18 0 00-8.979-1.23h-71.799c.044-.693.208-1.37.208-2.067zm-5.907 19.134h77.5a17.03 17.03 0 0114.2 7.592l2.017 3.058a16.945 16.945 0 011.633 15.792l-8.117 20.325a16.983 16.983 0 01-9.075 9.308l-48.108 20.634-.808.3c-.527.216-1.067.399-1.617.55l-40.183 11.517a17.389 17.389 0 01-19.392-7.617l-10.055-12.271a33.821 33.821 0 005.247-17.988V138.6a17.193 17.193 0 015-12.067l27.667-27.667a33.72 33.72 0 004.091-4.999zM51.2 51.2h119.467v23.533a17.193 17.193 0 01-5 12.067L138 114.467a34.343 34.343 0 00-10 24.133v6.467c-.012 9.421-7.646 17.054-17.067 17.067H92.425a17.07 17.07 0 01-8.783-2.433L51.2 140.235V51.2zm0 108.939l23.658 14.195a34.132 34.132 0 0017.567 4.867h18.508a33.711 33.711 0 0016.456-4.414l8.786 10.681a34.095 34.095 0 009.198 9.282 8.09 8.09 0 00-.306 1.518V218.1a16.952 16.952 0 01-6.409 13.317l-26.05 20.85A17.106 17.106 0 01101.95 256H51.2v-95.861zm0 112.928h50.75a34.244 34.244 0 0021.325-7.475l19.451-15.562 15.991 21.32a17.254 17.254 0 013.417 10.25v20.808a17.096 17.096 0 01-7.275 13.975L87.05 363.85a16.989 16.989 0 01-9.783 3.083H51.2v-93.866zm86.8 184.2l3.533 3.533H51.2V384h26.067a33.972 33.972 0 0019.567-6.167l27.686-19.381L138 371.933c6.65 6.67 6.65 17.463 0 24.133a34.343 34.343 0 00-10 24.133v12.933a34.344 34.344 0 0010 24.135zm113.738 3.533h-86.071l-15.6-15.6a17.191 17.191 0 01-5-12.067V420.2a17.193 17.193 0 015-12.067 33.722 33.722 0 008.068-13.252L187.05 406a34.283 34.283 0 0015.258 3.6h46.4a34.343 34.343 0 009.825-1.45L271.458 434c.048.096.126.176.176.272L251.738 460.8zm21.325 0l10.079-13.439 16.795 13.439h-26.874zm54.204 0l-35.95-28.758a17.198 17.198 0 01-4.6-5.683l-13.555-27.117a34.283 34.283 0 006.08-8.508l15.825-31.65a34.164 34.164 0 003.387-13.437l36.78 15.762a67.776 67.776 0 0026.892 5.525h14.583a34.254 34.254 0 0010.573-1.719l34.386 34.386c.922.846 1.892 1.64 2.904 2.376L387.805 460.8h-60.538zm133.533 0h-52.872l32.346-51.754c1.823.337 3.672.522 5.526.554h15v51.2zm0-68.267h-15a17.193 17.193 0 01-12.067-5l-31.764-31.764a34.378 34.378 0 005.272-7.703l24.323-48.646c1.252.462 2.529.85 3.827 1.163l25.408 5.079v86.871zm0-104.274l-22.059-4.409a17.19 17.19 0 01-10.858-7.275l-7.958-11.95a17.122 17.122 0 01-2.7-7.05l-7.708-53.983a8.005 8.005 0 00-.322-.907 34.279 34.279 0 007.322-9.693l13.041-26.1a34.193 34.193 0 001.825-4.758H460.8v126.125zm0-143.192h-28.427a34.305 34.305 0 00-.964-4.225l-5.258-15.767a144.146 144.146 0 00-27.483-48.533L376.946 51.2H460.8v93.867z"/></svg>