<svg fill="#ffb228" xmlns="http://www.w3.org/2000/svg" viewBox="0 0 463.802 463.802"><path d="M383.6 295.951l-5.9-5.5c-.1-.1-.1-.3-.1-.4l-24.5-57.3c-5.1-12-16.8-19.8-29.8-19.9H145.1c-13 .1-24.7 7.9-29.8 19.9l-24.2 56.5-9 7.7c-9.6 8.2-15.1 20.2-15.1 32.8v97.4c0 17.5 14.2 31.8 31.8 31.8h18.4c17.5.1 31.8-14.1 31.8-31.6v-11.5h166v11.2c0 17.5 14.2 31.7 31.7 31.8h18.4c17.5.1 31.8-14.1 31.9-31.7v-100c0-11.8-4.9-23-13.4-31.2zm-249.9-55.4c1.9-4.6 6.4-7.6 11.4-7.7h178.1c5 .1 9.5 3.1 11.4 7.7l18.5 43.3h-8.4c-5.5-27.4-32.2-45.1-59.6-39.6-20 4-35.6 19.6-39.6 39.6H115.2l18.5-43.3zm190.5 43.3h-57.8c5.5-16 22.9-24.4 38.9-18.9 8.8 3.1 15.8 10 18.9 18.9zM129 427.051c0 6.5-5.2 11.7-11.6 11.8H98.9c-6.5.1-11.8-5.1-11.9-11.6v-13.3c3.8 1.4 7.8 2 11.9 1.9H129v11.2zm248 .1c0 6.5-5.3 11.8-11.8 11.8 0-.1 0-.1-.1-.1h-18.3c-6.5.1-11.8-5.1-11.8-11.6v-11.4h30.1c4 .1 8.1-.5 11.9-1.9v13.2zm.1-42.8h-.1c0 6.4-5.2 11.6-11.6 11.5H98.9c-6.4.2-11.7-4.9-11.9-11.2v-54.9c0-6.7 2.9-13.2 8.1-17.5l9.7-8.3H363l6.9 6.6c4.6 4.4 7.2 10.4 7.2 16.7v57.1z"/><path d="M161 325.851h-52c-5.5 0-10 4.5-10 10v36c0 5.5 4.5 10 10 10h52c5.5 0 10-4.5 10-10v-36c0-5.5-4.5-10-10-10zm-10 36h-32v-16h32v16zm204-36h-52c-5.5 0-10 4.5-10 10v36c0 5.5 4.5 10 10 10h52c5.5 0 10-4.5 10-10v-36c0-5.5-4.5-10-10-10zm-10 36h-32v-16h32v16zm-79.5-2h-66.9c-5.5 0-10 4.5-10 10s4.5 10 10 10h66.9c5.5 0 10-4.5 10-10s-4.5-10-10-10zm0-27h-66.9c-5.5 0-10 4.5-10 10s4.5 10 10 10h66.9c5.5 0 10-4.5 10-10s-4.5-10-10-10z"/><path d="M453.8 4.851H10.2c-5.5-.1-10.1 4.3-10.2 9.8v434.4c.1 5.5 4.7 9.9 10.2 9.8h31.3c5.5 0 10.4-4.3 10.4-9.8v-309.2h360v309.2c0 5.5 4.9 9.8 10.4 9.8h31.3c5.5.1 10.1-4.3 10.2-9.8v-434.4c.1-5.5-4.5-9.9-10-9.8zm-421.8 434H20v-414h12v414zm380-319H52v-95h360v95zm32 319h-12v-414h12v414z"/></svg>