<svg height="368pt" fill="#ffb228" viewBox="0 0 368 368" width="368pt" xmlns="http://www.w3.org/2000/svg"><path d="M363.055.617A8.035 8.035 0 00360 0H8a8.035 8.035 0 00-8 8v352c0 1.04.215 2.078.617 3.055a7.969 7.969 0 004.328 4.328A8.035 8.035 0 008 368h128c1.04 0 2.078-.215 3.055-.617a7.969 7.969 0 004.328-4.328A8.035 8.035 0 00144 360V144h216a8.035 8.035 0 008-8V8a8.035 8.035 0 00-4.945-7.383zM292.687 64H75.313l-48-48h313.375zM64 75.313v217.375l-48 48V27.313zm8 232L116.688 352H27.311zm8-14.625V91.313l48 48v201.375zM139.313 128l-48-48h201.375l48 48zm168-56L352 27.312v89.376zm0 0"/></svg>