<svg xmlns="http://www.w3.org/2000/svg" fill="#ffb228" width="512" height="512"><path d="M344 320h-48.548a45.756 45.756 0 0112.126-8.845 62.055 62.055 0 0027.577-27.577l16-32-14.31-7.156-16 32a45.956 45.956 0 01-20.423 20.423A62.113 62.113 0 00275.294 320h-19.048l1.908-7.63a37.311 37.311 0 0122.283-25.528 53.33 53.33 0 0030.063-30.725l4.99-13.308-14.98-5.618-4.991 13.309a37.298 37.298 0 01-21.024 21.486 53.353 53.353 0 00-31.864 36.502L239.754 320h-20.21l12.601-33.604a39.47 39.47 0 0122.248-22.738 49.054 49.054 0 0024.602-21.675l-13.99-7.765a33.005 33.005 0 01-16.553 14.585 55.505 55.505 0 00-31.288 31.975L202.456 320H192v-22.55l16.146-43.054a39.47 39.47 0 0122.247-22.738 48.83 48.83 0 005.475-2.593l-7.736-14.005a32.9 32.9 0 01-3.68 1.743 55.505 55.505 0 00-31.288 31.975L192 251.883v-33.46l5.823-8.736a33.125 33.125 0 0119.564-13.788 49.155 49.155 0 0012.352-4.942l-7.898-13.914a33.214 33.214 0 01-8.333 3.334A49.096 49.096 0 00192 192.02v-19.225a105.961 105.961 0 0035.378-32.26l-13.182-9.07A89.915 89.915 0 01182.046 160H161.77a91.759 91.759 0 0030.92-27.361l-13.037-9.278a75.684 75.684 0 01-27.715 23.727L126.112 160H94.13l5.801-9.669A29.665 29.665 0 01125.241 136a45.733 45.733 0 0036.414-18.207A34.65 34.65 0 01189.242 104H232V88h-42.758a50.727 50.727 0 00-40.388 20.193A29.657 29.657 0 01125.242 120a45.746 45.746 0 00-39.03 22.099L75.47 160H24a8 8 0 00-8 8v320a8 8 0 008 8h320a8 8 0 008-8V328a8 8 0 00-8-8zM32 176h144v144H32zm0 160h144v144H32zm304 144H192V336h144z"/><path d="M489.452 126.467a18.004 18.004 0 00-30.338-9.24l-1.618-11.324A20.956 20.956 0 00436.853 88 20.74 20.74 0 00424 92.455V48a8 8 0 00-8-8H256a8 8 0 00-8 8v160a8 8 0 008 8h62.123a22.03 22.03 0 003.143 2.735L368 252.117V296a8 8 0 008 8h16v184a8 8 0 008 8h72a8 8 0 008-8V304h8a8 8 0 008-8V160a8.03 8.03 0 00-.155-1.57zM312.025 200H264V56h144v26.854A22.292 22.292 0 00397.126 80a20.24 20.24 0 00-14.407 5.968 20.47 20.47 0 00-5.763 17.289l1.576 11.033a18.48 18.48 0 00-32.566 15.434l11.416 51.376-10.558-2.641a32.798 32.798 0 00-22.593 2.481A21.987 21.987 0 00312.025 200zm15.975.73a6.093 6.093 0 013.386-5.479 16.777 16.777 0 0111.558-1.27l17.897 4.475 4.596 32.167-34.87-24.907A6.139 6.139 0 01328 200.73zM464 480h-56V304h56zm16-192h-96v-40a7.977 7.977 0 00-.089-1.13l.008-.002-8-56-.015.002c-.029-.202-.05-.404-.094-.605l-14.225-64.013a2.48 2.48 0 014.549-1.813l19.006 31.677a8 8 0 0014.78-5.248l-7.126-49.875a4.396 4.396 0 011.239-3.712A4.346 4.346 0 01397.126 96a6.442 6.442 0 016.169 4.654l13.013 45.544A8 8 0 00432 144v-35.147a4.853 4.853 0 019.657-.687l6.424 44.965a8 8 0 0015.68.81l6.107-24.428a1.996 1.996 0 013.895.092L480 160.792zM48 200v72h16v-64h24v-16H56a8 8 0 00-8 8zm56-8h16v16h-16zM48 360v72h16v-64h24v-16H56a8 8 0 00-8 8zm56-8h16v16h-16zm120 16h24v-16h-32a8 8 0 00-8 8v72h16zm40-16h16v16h-16z"/><path d="M280 80v72h16V88h24V72h-32a8 8 0 00-8 8zm56-8h16v16h-16z"/></svg>