<svg fill="#ffb228" xmlns="http://www.w3.org/2000/svg" viewBox="0 0 464.01 464.01"><path d="M392.002 304.005h64c4.424 0 8-3.576 8-8s-3.576-8-8-8H259.01c-11.128-2.312-19.008-12.192-19.008-24v-64c0-11.808 7.88-21.688 19.016-24H456.01c4.424 0 8-3.576 8-8s-3.576-8-8-8h-64c-13.232 0-24-10.768-24-24v-64c-.008-13.232 10.76-24 23.992-24h64c4.424 0 8-3.576 8-8s-3.576-8-8-8h-64c-13.128 0-24.704 6.448-32 16.248-7.296-9.8-18.872-16.248-32-16.248h-192c-13.128 0-24.704 6.448-32 16.248-7.296-9.8-18.872-16.248-32-16.248h-64c-4.416 0-8 3.576-8 8s3.584 8 8 8h64c13.232 0 24 10.768 24 24v64c0 13.232-10.768 24-24 24h-64c-4.416 0-8 3.576-8 8s3.584 8 8 8h197c11.12 2.312 19 12.192 19 24v64c0 11.808-7.88 21.688-19.008 24H8.002c-4.416 0-8 3.576-8 8s3.584 8 8 8h64c13.232 0 24 10.768 24 24v64c0 13.232-10.768 24-24 24h-64c-4.416 0-8 3.576-8 8s3.584 8 8 8h64c13.128 0 24.704-6.448 32-16.248 7.296 9.8 18.872 16.248 32 16.248h192c13.128 0 24.704-6.448 32-16.248 7.296 9.8 18.872 16.248 32 16.248h64c4.424 0 8-3.576 8-8s-3.576-8-8-8h-64c-13.232 0-24-10.768-24-24v-64c0-13.232 10.768-24 24-24zM360.01 159.757c.192.264.416.504.624.76h-1.256c.208-.256.432-.496.632-.76zm-256.632.76c.208-.256.432-.496.632-.76.192.264.416.504.624.76h-1.256zm.616 143.736c-.192-.264-.416-.504-.624-.76h1.256c-.208.256-.432.496-.632.76zm32.008-144.248c-13.232 0-24-10.768-24-24v-64c0-13.232 10.768-24 24-24h192c13.232 0 24 10.768 24 24v64c0 13.232-10.768 24-24 24h-192zm96 17.048c-.264-.368-.592-.688-.872-1.048h1.736c-.272.36-.6.68-.864 1.048zm.864 110.952h-1.736c.28-.36.6-.68.872-1.048.264.368.592.688.864 1.048zm119.136 104c0 13.232-10.768 24-24 24h-192c-13.232 0-24-10.768-24-24v-64c0-13.232 10.768-24 24-24h192c13.232 0 24 10.768 24 24v64zm7.992-87.752c-.192-.264-.416-.504-.624-.76h1.256c-.208.256-.432.496-.632.76z"/><path d="M173.658 66.349a7.991 7.991 0 00-11.312 0l-32 32a7.991 7.991 0 000 11.312 7.978 7.978 0 005.656 2.344 7.978 7.978 0 005.656-2.344l32-32a7.991 7.991 0 000-11.312zm32 0a7.991 7.991 0 00-11.312 0l-64 64a7.991 7.991 0 000 11.312 7.978 7.978 0 005.656 2.344 7.978 7.978 0 005.656-2.344l64-64a7.991 7.991 0 000-11.312zm192 128a7.991 7.991 0 00-11.312 0l-32 32a7.991 7.991 0 000 11.312 7.978 7.978 0 005.656 2.344 7.978 7.978 0 005.656-2.344l32-32a7.991 7.991 0 000-11.312zm32 0a7.991 7.991 0 00-11.312 0l-64 64a7.991 7.991 0 000 11.312 7.978 7.978 0 005.656 2.344 7.978 7.978 0 005.656-2.344l64-64a7.991 7.991 0 000-11.312zm-384 128a7.991 7.991 0 00-11.312 0l-32 32a7.991 7.991 0 000 11.312c1.56 1.56 3.608 2.344 5.656 2.344s4.096-.784 5.656-2.344l32-32a7.991 7.991 0 000-11.312zm32 0a7.991 7.991 0 00-11.312 0l-64 64a7.991 7.991 0 000 11.312c1.56 1.56 3.608 2.344 5.656 2.344s4.096-.784 5.656-2.344l64-64a7.991 7.991 0 000-11.312z"/></svg>