<svg width="32" height="32" viewBox="0 0 32 32" fill="none" xmlns="http://www.w3.org/2000/svg">
<path d="M0 12.9754H5.62023L0.870005 22.4063H4.05422L9.93545 10.2262H0V12.9754Z" fill="url(#paint0_linear_1005_52819)"/>
<path d="M20.4893 18.5086C20.4893 17.6618 20.3153 16.9426 19.9673 16.351C19.6193 15.7594 19.1611 15.307 18.5927 14.9938C18.0359 14.6806 17.4327 14.524 16.7831 14.524C16.4003 14.524 16.0291 14.5588 15.6695 14.6284C15.3215 14.6864 14.9851 14.7908 14.6603 14.9416L15.3563 12.7666H20.2283V10.2262H13.1986L11.4934 17.2558C11.911 17.047 12.317 16.8904 12.7114 16.786C13.1175 16.67 13.5061 16.5946 13.8773 16.5598C14.2601 16.5134 14.6081 16.4902 14.9213 16.4902C15.3273 16.4902 15.7043 16.5482 16.0523 16.6642C16.4119 16.7802 16.7019 16.9658 16.9223 17.221C17.1543 17.4646 17.2703 17.7894 17.2703 18.1954C17.2703 18.5782 17.1775 18.9031 16.9919 19.1699C16.8063 19.4367 16.5395 19.6339 16.1915 19.7615C15.8435 19.8891 15.4201 19.9529 14.9213 19.9529C14.6313 19.9529 14.3065 19.9007 13.9469 19.7963C13.5873 19.6803 13.2277 19.5295 12.8681 19.3439C12.52 19.1467 12.1778 18.9089 11.8414 18.6304L10.693 21.0491C11.0758 21.3391 11.4992 21.6059 11.9632 21.8495C12.4272 22.0815 12.9609 22.2671 13.5641 22.4063C14.1673 22.5571 14.8401 22.6325 15.5825 22.6325C16.1741 22.6325 16.7541 22.5571 17.3225 22.4063C17.9025 22.2439 18.4303 21.9945 18.9059 21.6581C19.3931 21.3217 19.7759 20.8925 20.0543 20.3705C20.3443 19.8485 20.4893 19.2279 20.4893 18.5086Z" fill="url(#paint1_linear_1005_52819)"/>
<path d="M24.7094 16.3162C24.7094 15.7478 24.7616 15.2316 24.866 14.7676C24.9704 14.292 25.1212 13.8918 25.3184 13.567C25.5156 13.2306 25.7476 12.9754 26.0144 12.8014C26.2928 12.6158 26.6002 12.523 26.9366 12.523C27.273 12.523 27.5746 12.6158 27.8414 12.8014C28.1198 12.9754 28.3576 13.2306 28.5548 13.567C28.752 13.8918 28.9028 14.292 29.0072 14.7676C29.1116 15.2316 29.1638 15.7478 29.1638 16.3162C29.1638 16.8846 29.1116 17.4066 29.0072 17.8822C28.9028 18.3462 28.752 18.7465 28.5548 19.0829C28.3576 19.4077 28.1198 19.6629 27.8414 19.8485C27.5746 20.0225 27.273 20.1095 26.9366 20.1095C26.6002 20.1095 26.2928 20.0225 26.0144 19.8485C25.7476 19.6629 25.5156 19.4077 25.3184 19.0829C25.1212 18.7465 24.9704 18.3462 24.866 17.8822C24.7616 17.4066 24.7094 16.8846 24.7094 16.3162ZM21.8731 16.3162C21.8731 17.6386 22.0819 18.7697 22.4995 19.7093C22.9288 20.6489 23.5262 21.3739 24.2918 21.8843C25.0574 22.3831 25.939 22.6325 26.9366 22.6325C27.9806 22.6325 28.8796 22.3831 29.6336 21.8843C30.3876 21.3739 30.9676 20.6489 31.3736 19.7093C31.7912 18.7697 32 17.6386 32 16.3162C32 14.9938 31.7912 13.8628 31.3736 12.9232C30.9676 11.9836 30.3876 11.2644 29.6336 10.7656C28.8796 10.2552 27.9806 10 26.9366 10C25.939 10 25.0574 10.2552 24.2918 10.7656C23.5262 11.2644 22.9288 11.9836 22.4995 12.9232C22.0819 13.8628 21.8731 14.9938 21.8731 16.3162Z" fill="url(#paint2_linear_1005_52819)"/>
<defs>
<linearGradient id="paint0_linear_1005_52819" x1="16" y1="10" x2="16" y2="22.6325" gradientUnits="userSpaceOnUse">
<stop stop-color="#33DD33"/>
<stop offset="1" stop-color="#00B800"/>
</linearGradient>
<linearGradient id="paint1_linear_1005_52819" x1="16" y1="10" x2="16" y2="22.6325" gradientUnits="userSpaceOnUse">
<stop stop-color="#33DD33"/>
<stop offset="1" stop-color="#00B800"/>
</linearGradient>
<linearGradient id="paint2_linear_1005_52819" x1="16" y1="10" x2="16" y2="22.6325" gradientUnits="userSpaceOnUse">
<stop stop-color="#33DD33"/>
<stop offset="1" stop-color="#00B800"/>
</linearGradient>
</defs>
</svg>
