<svg width="427" height="60" viewBox="0 0 427 60" fill="none" xmlns="http://www.w3.org/2000/svg">
<path d="M181.25 46.7V56H182.525V45.5H174.2V56H175.475V46.7H181.25Z" fill="#383838"/>
<path d="M185.973 59.3V49.1H184.773V59.3H185.973ZM191.748 52.55C191.748 51.8 191.593 51.16 191.283 50.63C190.973 50.09 190.558 49.675 190.038 49.385C189.528 49.095 188.958 48.95 188.328 48.95C187.758 48.95 187.253 49.095 186.813 49.385C186.383 49.675 186.043 50.09 185.793 50.63C185.553 51.16 185.433 51.8 185.433 52.55C185.433 53.29 185.553 53.93 185.793 54.47C186.043 55.01 186.383 55.425 186.813 55.715C187.253 56.005 187.758 56.15 188.328 56.15C188.958 56.15 189.528 56.005 190.038 55.715C190.558 55.425 190.973 55.01 191.283 54.47C191.593 53.93 191.748 53.29 191.748 52.55ZM190.533 52.55C190.533 53.08 190.423 53.53 190.203 53.9C189.993 54.27 189.708 54.55 189.348 54.74C188.998 54.93 188.608 55.025 188.178 55.025C187.828 55.025 187.483 54.93 187.143 54.74C186.803 54.55 186.523 54.27 186.303 53.9C186.083 53.53 185.973 53.08 185.973 52.55C185.973 52.02 186.083 51.57 186.303 51.2C186.523 50.83 186.803 50.55 187.143 50.36C187.483 50.17 187.828 50.075 188.178 50.075C188.608 50.075 188.998 50.17 189.348 50.36C189.708 50.55 189.993 50.83 190.203 51.2C190.423 51.57 190.533 52.02 190.533 52.55Z" fill="#383838"/>
<path d="M192.802 52.55C192.802 53.24 192.957 53.86 193.267 54.41C193.587 54.95 194.017 55.375 194.557 55.685C195.097 55.995 195.702 56.15 196.372 56.15C197.052 56.15 197.657 55.995 198.187 55.685C198.727 55.375 199.152 54.95 199.462 54.41C199.782 53.86 199.942 53.24 199.942 52.55C199.942 51.85 199.782 51.23 199.462 50.69C199.152 50.15 198.727 49.725 198.187 49.415C197.657 49.105 197.052 48.95 196.372 48.95C195.702 48.95 195.097 49.105 194.557 49.415C194.017 49.725 193.587 50.15 193.267 50.69C192.957 51.23 192.802 51.85 192.802 52.55ZM194.017 52.55C194.017 52.07 194.117 51.645 194.317 51.275C194.527 50.895 194.807 50.6 195.157 50.39C195.517 50.18 195.922 50.075 196.372 50.075C196.822 50.075 197.222 50.18 197.572 50.39C197.932 50.6 198.212 50.895 198.412 51.275C198.622 51.645 198.727 52.07 198.727 52.55C198.727 53.03 198.622 53.455 198.412 53.825C198.212 54.195 197.932 54.49 197.572 54.71C197.222 54.92 196.822 55.025 196.372 55.025C195.922 55.025 195.517 54.92 195.157 54.71C194.807 54.49 194.527 54.195 194.317 53.825C194.117 53.455 194.017 53.03 194.017 52.55Z" fill="#383838"/>
<path d="M204.594 51.17L206.619 55.55H207.969L204.594 48.575L201.219 55.55H202.569L204.594 51.17ZM207.669 56V57.35H208.869V54.875H200.319V57.35H201.594V56H207.669Z" fill="#383838"/>
<path d="M211.213 53.975C211.213 53.695 211.278 53.455 211.408 53.255C211.538 53.055 211.733 52.9 211.993 52.79C212.263 52.68 212.598 52.625 212.998 52.625C213.438 52.625 213.833 52.685 214.183 52.805C214.533 52.915 214.878 53.09 215.218 53.33V52.625C215.148 52.535 215.018 52.42 214.828 52.28C214.638 52.13 214.383 52 214.063 51.89C213.753 51.77 213.378 51.71 212.938 51.71C212.338 51.71 211.818 51.805 211.378 51.995C210.938 52.175 210.598 52.435 210.358 52.775C210.118 53.115 209.998 53.53 209.998 54.02C209.998 54.49 210.103 54.885 210.313 55.205C210.533 55.515 210.823 55.75 211.183 55.91C211.543 56.07 211.938 56.15 212.368 56.15C212.848 56.15 213.283 56.07 213.673 55.91C214.063 55.74 214.373 55.5 214.603 55.19C214.843 54.87 214.963 54.49 214.963 54.05L214.723 53.3C214.723 53.73 214.633 54.075 214.453 54.335C214.283 54.595 214.043 54.785 213.733 54.905C213.423 55.025 213.068 55.085 212.668 55.085C212.398 55.085 212.153 55.045 211.933 54.965C211.713 54.875 211.538 54.75 211.408 54.59C211.278 54.42 211.213 54.215 211.213 53.975ZM211.213 50.72C211.323 50.64 211.473 50.545 211.663 50.435C211.863 50.315 212.098 50.215 212.368 50.135C212.638 50.045 212.938 50 213.268 50C213.648 50 213.983 50.09 214.273 50.27C214.573 50.44 214.723 50.7 214.723 51.05V56H215.923V51.05C215.923 50.6 215.808 50.22 215.578 49.91C215.358 49.6 215.048 49.365 214.648 49.205C214.258 49.035 213.798 48.95 213.268 48.95C212.648 48.95 212.118 49.045 211.678 49.235C211.238 49.425 210.888 49.615 210.628 49.805L211.213 50.72Z" fill="#383838"/>
<path d="M225.153 49.1L222.153 51.95L225.453 56H226.953L223.503 52.1L226.653 49.1H225.153ZM222.453 49.1H221.328V56H222.453V49.1ZM218.628 49.1H217.128L220.278 52.1L216.828 56H218.328L221.628 51.95L218.628 49.1Z" fill="#383838"/>
<path d="M228.615 53.975C228.615 53.695 228.68 53.455 228.81 53.255C228.94 53.055 229.135 52.9 229.395 52.79C229.665 52.68 230 52.625 230.4 52.625C230.84 52.625 231.235 52.685 231.585 52.805C231.935 52.915 232.28 53.09 232.62 53.33V52.625C232.55 52.535 232.42 52.42 232.23 52.28C232.04 52.13 231.785 52 231.465 51.89C231.155 51.77 230.78 51.71 230.34 51.71C229.74 51.71 229.22 51.805 228.78 51.995C228.34 52.175 228 52.435 227.76 52.775C227.52 53.115 227.4 53.53 227.4 54.02C227.4 54.49 227.505 54.885 227.715 55.205C227.935 55.515 228.225 55.75 228.585 55.91C228.945 56.07 229.34 56.15 229.77 56.15C230.25 56.15 230.685 56.07 231.075 55.91C231.465 55.74 231.775 55.5 232.005 55.19C232.245 54.87 232.365 54.49 232.365 54.05L232.125 53.3C232.125 53.73 232.035 54.075 231.855 54.335C231.685 54.595 231.445 54.785 231.135 54.905C230.825 55.025 230.47 55.085 230.07 55.085C229.8 55.085 229.555 55.045 229.335 54.965C229.115 54.875 228.94 54.75 228.81 54.59C228.68 54.42 228.615 54.215 228.615 53.975ZM228.615 50.72C228.725 50.64 228.875 50.545 229.065 50.435C229.265 50.315 229.5 50.215 229.77 50.135C230.04 50.045 230.34 50 230.67 50C231.05 50 231.385 50.09 231.675 50.27C231.975 50.44 232.125 50.7 232.125 51.05V56H233.325V51.05C233.325 50.6 233.21 50.22 232.98 49.91C232.76 49.6 232.45 49.365 232.05 49.205C231.66 49.035 231.2 48.95 230.67 48.95C230.05 48.95 229.52 49.045 229.08 49.235C228.64 49.425 228.29 49.615 228.03 49.805L228.615 50.72Z" fill="#383838"/>
<path d="M245.628 50.3L245.702 48.575L240.003 54.8L239.927 56.525L245.628 50.3ZM241.128 49.1H239.927V56.525L241.128 54.875V49.1ZM245.702 48.575L244.503 50.225V56H245.702V48.575Z" fill="#383838"/>
<path d="M257.998 49.1H256.648L254.518 54.44L255.013 54.5L252.823 49.1H251.398L254.038 55.025L252.148 59.3H253.498L257.998 49.1Z" fill="#383838"/>
<path d="M259.45 52.55C259.45 52.07 259.55 51.645 259.75 51.275C259.96 50.895 260.24 50.6 260.59 50.39C260.95 50.18 261.355 50.075 261.805 50.075C262.175 50.075 262.52 50.135 262.84 50.255C263.17 50.365 263.455 50.515 263.695 50.705C263.935 50.895 264.105 51.105 264.205 51.335V49.835C263.965 49.555 263.62 49.34 263.17 49.19C262.73 49.03 262.275 48.95 261.805 48.95C261.135 48.95 260.53 49.105 259.99 49.415C259.45 49.725 259.02 50.15 258.7 50.69C258.39 51.23 258.235 51.85 258.235 52.55C258.235 53.24 258.39 53.86 258.7 54.41C259.02 54.95 259.45 55.375 259.99 55.685C260.53 55.995 261.135 56.15 261.805 56.15C262.275 56.15 262.73 56.075 263.17 55.925C263.62 55.765 263.965 55.545 264.205 55.265V53.765C264.105 53.985 263.935 54.195 263.695 54.395C263.455 54.585 263.17 54.74 262.84 54.86C262.52 54.97 262.175 55.025 261.805 55.025C261.355 55.025 260.95 54.92 260.59 54.71C260.24 54.49 259.96 54.195 259.75 53.825C259.55 53.455 259.45 53.03 259.45 52.55Z" fill="#383838"/>
<path d="M265.023 49.1V50.225H269.073V49.1H265.023ZM266.448 49.4V56H267.648V49.4H266.448Z" fill="#383838"/>
<path d="M270.817 53.975C270.817 53.695 270.882 53.455 271.012 53.255C271.142 53.055 271.337 52.9 271.597 52.79C271.867 52.68 272.202 52.625 272.602 52.625C273.042 52.625 273.437 52.685 273.787 52.805C274.137 52.915 274.482 53.09 274.822 53.33V52.625C274.752 52.535 274.622 52.42 274.432 52.28C274.242 52.13 273.987 52 273.667 51.89C273.357 51.77 272.982 51.71 272.542 51.71C271.942 51.71 271.422 51.805 270.982 51.995C270.542 52.175 270.202 52.435 269.962 52.775C269.722 53.115 269.602 53.53 269.602 54.02C269.602 54.49 269.707 54.885 269.917 55.205C270.137 55.515 270.427 55.75 270.787 55.91C271.147 56.07 271.542 56.15 271.972 56.15C272.452 56.15 272.887 56.07 273.277 55.91C273.667 55.74 273.977 55.5 274.207 55.19C274.447 54.87 274.567 54.49 274.567 54.05L274.327 53.3C274.327 53.73 274.237 54.075 274.057 54.335C273.887 54.595 273.647 54.785 273.337 54.905C273.027 55.025 272.672 55.085 272.272 55.085C272.002 55.085 271.757 55.045 271.537 54.965C271.317 54.875 271.142 54.75 271.012 54.59C270.882 54.42 270.817 54.215 270.817 53.975ZM270.817 50.72C270.927 50.64 271.077 50.545 271.267 50.435C271.467 50.315 271.702 50.215 271.972 50.135C272.242 50.045 272.542 50 272.872 50C273.252 50 273.587 50.09 273.877 50.27C274.177 50.44 274.327 50.7 274.327 51.05V56H275.527V51.05C275.527 50.6 275.412 50.22 275.182 49.91C274.962 49.6 274.652 49.365 274.252 49.205C273.862 49.035 273.402 48.95 272.872 48.95C272.252 48.95 271.722 49.045 271.282 49.235C270.842 49.425 270.492 49.615 270.232 49.805L270.817 50.72Z" fill="#383838"/>
<path d="M278.263 52.925H283.363V51.8H278.263V52.925ZM282.583 49.1V56H283.783V49.1H282.583ZM277.558 49.1V56H278.758V49.1H277.558Z" fill="#383838"/>
<path d="M285.439 52.55C285.439 53.24 285.594 53.86 285.904 54.41C286.224 54.95 286.654 55.375 287.194 55.685C287.734 55.995 288.339 56.15 289.009 56.15C289.689 56.15 290.294 55.995 290.824 55.685C291.364 55.375 291.789 54.95 292.099 54.41C292.419 53.86 292.579 53.24 292.579 52.55C292.579 51.85 292.419 51.23 292.099 50.69C291.789 50.15 291.364 49.725 290.824 49.415C290.294 49.105 289.689 48.95 289.009 48.95C288.339 48.95 287.734 49.105 287.194 49.415C286.654 49.725 286.224 50.15 285.904 50.69C285.594 51.23 285.439 51.85 285.439 52.55ZM286.654 52.55C286.654 52.07 286.754 51.645 286.954 51.275C287.164 50.895 287.444 50.6 287.794 50.39C288.154 50.18 288.559 50.075 289.009 50.075C289.459 50.075 289.859 50.18 290.209 50.39C290.569 50.6 290.849 50.895 291.049 51.275C291.259 51.645 291.364 52.07 291.364 52.55C291.364 53.03 291.259 53.455 291.049 53.825C290.849 54.195 290.569 54.49 290.209 54.71C289.859 54.92 289.459 55.025 289.009 55.025C288.559 55.025 288.154 54.92 287.794 54.71C287.444 54.49 287.164 54.195 286.954 53.825C286.754 53.455 286.654 53.03 286.654 52.55Z" fill="#383838"/>
<path d="M294.933 52.4V53.03H296.927C297.158 53.03 297.353 53.055 297.512 53.105C297.682 53.145 297.818 53.21 297.918 53.3C298.028 53.39 298.107 53.49 298.158 53.6C298.217 53.71 298.247 53.835 298.247 53.975C298.247 54.245 298.138 54.475 297.918 54.665C297.708 54.855 297.377 54.95 296.927 54.95H294.933V56H297.228C298.018 56 298.583 55.82 298.923 55.46C299.272 55.09 299.448 54.645 299.448 54.125C299.448 53.675 299.338 53.325 299.118 53.075C298.897 52.825 298.597 52.65 298.217 52.55C297.838 52.45 297.408 52.4 296.927 52.4H294.933ZM294.933 52.7H296.777C297.207 52.7 297.598 52.64 297.948 52.52C298.308 52.39 298.597 52.2 298.817 51.95C299.037 51.69 299.147 51.365 299.147 50.975C299.147 50.525 299.037 50.165 298.817 49.895C298.597 49.615 298.308 49.415 297.948 49.295C297.598 49.165 297.207 49.1 296.777 49.1H294.933V50.15H296.777C297.137 50.15 297.423 50.235 297.632 50.405C297.842 50.565 297.948 50.78 297.948 51.05C297.948 51.18 297.917 51.305 297.857 51.425C297.807 51.535 297.732 51.635 297.632 51.725C297.533 51.815 297.408 51.885 297.257 51.935C297.118 51.975 296.957 51.995 296.777 51.995H294.933V52.7ZM294.228 49.1V56H295.427V49.1H294.228Z" fill="#383838"/>
<path d="M300.949 49.1V56H302.149V49.1H300.949ZM304.699 49.1L301.699 51.95L304.999 56H306.499L303.199 51.95L306.199 49.1H304.699Z" fill="#383838"/>
<path d="M308.171 53.975C308.171 53.695 308.236 53.455 308.366 53.255C308.496 53.055 308.691 52.9 308.951 52.79C309.221 52.68 309.556 52.625 309.956 52.625C310.396 52.625 310.791 52.685 311.141 52.805C311.491 52.915 311.836 53.09 312.176 53.33V52.625C312.106 52.535 311.976 52.42 311.786 52.28C311.596 52.13 311.341 52 311.021 51.89C310.711 51.77 310.336 51.71 309.896 51.71C309.296 51.71 308.776 51.805 308.336 51.995C307.896 52.175 307.556 52.435 307.316 52.775C307.076 53.115 306.956 53.53 306.956 54.02C306.956 54.49 307.061 54.885 307.271 55.205C307.491 55.515 307.781 55.75 308.141 55.91C308.501 56.07 308.896 56.15 309.326 56.15C309.806 56.15 310.241 56.07 310.631 55.91C311.021 55.74 311.331 55.5 311.561 55.19C311.801 54.87 311.921 54.49 311.921 54.05L311.681 53.3C311.681 53.73 311.591 54.075 311.411 54.335C311.241 54.595 311.001 54.785 310.691 54.905C310.381 55.025 310.026 55.085 309.626 55.085C309.356 55.085 309.111 55.045 308.891 54.965C308.671 54.875 308.496 54.75 308.366 54.59C308.236 54.42 308.171 54.215 308.171 53.975ZM308.171 50.72C308.281 50.64 308.431 50.545 308.621 50.435C308.821 50.315 309.056 50.215 309.326 50.135C309.596 50.045 309.896 50 310.226 50C310.606 50 310.941 50.09 311.231 50.27C311.531 50.44 311.681 50.7 311.681 51.05V56H312.881V51.05C312.881 50.6 312.766 50.22 312.536 49.91C312.316 49.6 312.006 49.365 311.606 49.205C311.216 49.035 310.756 48.95 310.226 48.95C309.606 48.95 309.076 49.045 308.636 49.235C308.196 49.425 307.846 49.615 307.586 49.805L308.171 50.72Z" fill="#383838"/>
<path d="M320.113 52.4V53.03H322.108C322.338 53.03 322.533 53.055 322.693 53.105C322.863 53.145 322.998 53.21 323.098 53.3C323.208 53.39 323.288 53.49 323.338 53.6C323.398 53.71 323.428 53.835 323.428 53.975C323.428 54.245 323.318 54.475 323.098 54.665C322.888 54.855 322.558 54.95 322.108 54.95H320.113V56H322.408C323.198 56 323.763 55.82 324.103 55.46C324.453 55.09 324.628 54.645 324.628 54.125C324.628 53.675 324.518 53.325 324.298 53.075C324.078 52.825 323.778 52.65 323.398 52.55C323.018 52.45 322.588 52.4 322.108 52.4H320.113ZM320.113 52.7H321.958C322.388 52.7 322.778 52.64 323.128 52.52C323.488 52.39 323.778 52.2 323.998 51.95C324.218 51.69 324.328 51.365 324.328 50.975C324.328 50.525 324.218 50.165 323.998 49.895C323.778 49.615 323.488 49.415 323.128 49.295C322.778 49.165 322.388 49.1 321.958 49.1H320.113V50.15H321.958C322.318 50.15 322.603 50.235 322.813 50.405C323.023 50.565 323.128 50.78 323.128 51.05C323.128 51.18 323.098 51.305 323.038 51.425C322.988 51.535 322.913 51.635 322.813 51.725C322.713 51.815 322.588 51.885 322.438 51.935C322.298 51.975 322.138 51.995 321.958 51.995H320.113V52.7ZM319.408 49.1V56H320.608V49.1H319.408Z" fill="#383838"/>
<path d="M325.605 52.55C325.605 53.24 325.76 53.86 326.07 54.41C326.39 54.95 326.82 55.375 327.36 55.685C327.9 55.995 328.505 56.15 329.175 56.15C329.855 56.15 330.46 55.995 330.99 55.685C331.53 55.375 331.955 54.95 332.265 54.41C332.585 53.86 332.745 53.24 332.745 52.55C332.745 51.85 332.585 51.23 332.265 50.69C331.955 50.15 331.53 49.725 330.99 49.415C330.46 49.105 329.855 48.95 329.175 48.95C328.505 48.95 327.9 49.105 327.36 49.415C326.82 49.725 326.39 50.15 326.07 50.69C325.76 51.23 325.605 51.85 325.605 52.55ZM326.82 52.55C326.82 52.07 326.92 51.645 327.12 51.275C327.33 50.895 327.61 50.6 327.96 50.39C328.32 50.18 328.725 50.075 329.175 50.075C329.625 50.075 330.025 50.18 330.375 50.39C330.735 50.6 331.015 50.895 331.215 51.275C331.425 51.645 331.53 52.07 331.53 52.55C331.53 53.03 331.425 53.455 331.215 53.825C331.015 54.195 330.735 54.49 330.375 54.71C330.025 54.92 329.625 55.025 329.175 55.025C328.725 55.025 328.32 54.92 327.96 54.71C327.61 54.49 327.33 54.195 327.12 53.825C326.92 53.455 326.82 53.03 326.82 52.55Z" fill="#383838"/>
<path d="M335.519 59.3V49.1H334.319V59.3H335.519ZM341.294 52.55C341.294 51.8 341.139 51.16 340.829 50.63C340.519 50.09 340.104 49.675 339.584 49.385C339.074 49.095 338.504 48.95 337.874 48.95C337.304 48.95 336.799 49.095 336.359 49.385C335.929 49.675 335.589 50.09 335.339 50.63C335.099 51.16 334.979 51.8 334.979 52.55C334.979 53.29 335.099 53.93 335.339 54.47C335.589 55.01 335.929 55.425 336.359 55.715C336.799 56.005 337.304 56.15 337.874 56.15C338.504 56.15 339.074 56.005 339.584 55.715C340.104 55.425 340.519 55.01 340.829 54.47C341.139 53.93 341.294 53.29 341.294 52.55ZM340.079 52.55C340.079 53.08 339.969 53.53 339.749 53.9C339.539 54.27 339.254 54.55 338.894 54.74C338.544 54.93 338.154 55.025 337.724 55.025C337.374 55.025 337.029 54.93 336.689 54.74C336.349 54.55 336.069 54.27 335.849 53.9C335.629 53.53 335.519 53.08 335.519 52.55C335.519 52.02 335.629 51.57 335.849 51.2C336.069 50.83 336.349 50.55 336.689 50.36C337.029 50.17 337.374 50.075 337.724 50.075C338.154 50.075 338.544 50.17 338.894 50.36C339.254 50.55 339.539 50.83 339.749 51.2C339.969 51.57 340.079 52.02 340.079 52.55Z" fill="#383838"/>
<path d="M342.348 52.55C342.348 53.24 342.503 53.86 342.813 54.41C343.133 54.95 343.563 55.375 344.103 55.685C344.643 55.995 345.248 56.15 345.918 56.15C346.598 56.15 347.203 55.995 347.733 55.685C348.273 55.375 348.698 54.95 349.008 54.41C349.328 53.86 349.488 53.24 349.488 52.55C349.488 51.85 349.328 51.23 349.008 50.69C348.698 50.15 348.273 49.725 347.733 49.415C347.203 49.105 346.598 48.95 345.918 48.95C345.248 48.95 344.643 49.105 344.103 49.415C343.563 49.725 343.133 50.15 342.813 50.69C342.503 51.23 342.348 51.85 342.348 52.55ZM343.563 52.55C343.563 52.07 343.663 51.645 343.863 51.275C344.073 50.895 344.353 50.6 344.703 50.39C345.063 50.18 345.468 50.075 345.918 50.075C346.368 50.075 346.768 50.18 347.118 50.39C347.478 50.6 347.758 50.895 347.958 51.275C348.168 51.645 348.273 52.07 348.273 52.55C348.273 53.03 348.168 53.455 347.958 53.825C347.758 54.195 347.478 54.49 347.118 54.71C346.768 54.92 346.368 55.025 345.918 55.025C345.468 55.025 345.063 54.92 344.703 54.71C344.353 54.49 344.073 54.195 343.863 53.825C343.663 53.455 343.563 53.03 343.563 52.55Z" fill="#383838"/>
<path d="M350.087 49.1V50.225H354.137V49.1H350.087ZM351.512 49.4V56H352.712V49.4H351.512Z" fill="#383838"/>
<path d="M365.613 50.3L365.688 48.575L359.988 54.8L359.913 56.525L365.613 50.3ZM361.113 49.1H359.913V56.525L361.113 54.875V49.1ZM365.688 48.575L364.488 50.225V56H365.688V48.575Z" fill="#383838"/>
<path d="M374.954 52.55C375.744 52.55 376.359 52.385 376.799 52.055C377.249 51.725 377.474 51.31 377.474 50.81C377.474 50.47 377.369 50.16 377.159 49.88C376.959 49.6 376.679 49.375 376.319 49.205C375.959 49.035 375.554 48.95 375.104 48.95C374.624 48.95 374.194 49.05 373.814 49.25C373.434 49.44 373.134 49.7 372.914 50.03C372.694 50.36 372.584 50.72 372.584 51.11H373.799C373.799 50.95 373.844 50.79 373.934 50.63C374.024 50.46 374.164 50.32 374.354 50.21C374.554 50.09 374.804 50.03 375.104 50.03C375.464 50.03 375.744 50.11 375.944 50.27C376.144 50.42 376.244 50.63 376.244 50.9C376.244 51.15 376.144 51.365 375.944 51.545C375.744 51.715 375.414 51.8 374.954 51.8V52.55ZM375.074 56.15C375.564 56.15 376.014 56.065 376.424 55.895C376.834 55.715 377.159 55.465 377.399 55.145C377.649 54.815 377.774 54.425 377.774 53.975C377.774 53.325 377.519 52.85 377.009 52.55C376.499 52.25 375.814 52.1 374.954 52.1V52.85C375.304 52.85 375.599 52.895 375.839 52.985C376.089 53.075 376.274 53.205 376.394 53.375C376.524 53.545 376.589 53.75 376.589 53.99C376.589 54.21 376.529 54.405 376.409 54.575C376.289 54.745 376.114 54.875 375.884 54.965C375.664 55.055 375.394 55.1 375.074 55.1C374.554 55.1 374.179 54.97 373.949 54.71C373.719 54.45 373.569 54.155 373.499 53.825H372.284C372.364 54.495 372.644 55.05 373.124 55.49C373.614 55.93 374.264 56.15 375.074 56.15Z" fill="#383838"/>
<path d="M380.109 53.975C380.109 53.695 380.174 53.455 380.304 53.255C380.434 53.055 380.629 52.9 380.889 52.79C381.159 52.68 381.494 52.625 381.894 52.625C382.334 52.625 382.729 52.685 383.079 52.805C383.429 52.915 383.774 53.09 384.114 53.33V52.625C384.044 52.535 383.914 52.42 383.724 52.28C383.534 52.13 383.279 52 382.959 51.89C382.649 51.77 382.274 51.71 381.834 51.71C381.234 51.71 380.714 51.805 380.274 51.995C379.834 52.175 379.494 52.435 379.254 52.775C379.014 53.115 378.894 53.53 378.894 54.02C378.894 54.49 378.999 54.885 379.209 55.205C379.429 55.515 379.719 55.75 380.079 55.91C380.439 56.07 380.834 56.15 381.264 56.15C381.744 56.15 382.179 56.07 382.569 55.91C382.959 55.74 383.269 55.5 383.499 55.19C383.739 54.87 383.859 54.49 383.859 54.05L383.619 53.3C383.619 53.73 383.529 54.075 383.349 54.335C383.179 54.595 382.939 54.785 382.629 54.905C382.319 55.025 381.964 55.085 381.564 55.085C381.294 55.085 381.049 55.045 380.829 54.965C380.609 54.875 380.434 54.75 380.304 54.59C380.174 54.42 380.109 54.215 380.109 53.975ZM380.109 50.72C380.219 50.64 380.369 50.545 380.559 50.435C380.759 50.315 380.994 50.215 381.264 50.135C381.534 50.045 381.834 50 382.164 50C382.544 50 382.879 50.09 383.169 50.27C383.469 50.44 383.619 50.7 383.619 51.05V56H384.819V51.05C384.819 50.6 384.704 50.22 384.474 49.91C384.254 49.6 383.944 49.365 383.544 49.205C383.154 49.035 382.694 48.95 382.164 48.95C381.544 48.95 381.014 49.045 380.574 49.235C380.134 49.425 379.784 49.615 379.524 49.805L380.109 50.72Z" fill="#383838"/>
<path d="M389.82 50.075C390.27 50.075 390.67 50.18 391.02 50.39C391.38 50.6 391.66 50.895 391.86 51.275C392.07 51.645 392.175 52.07 392.175 52.55C392.175 53.03 392.07 53.455 391.86 53.825C391.66 54.195 391.38 54.49 391.02 54.71C390.67 54.92 390.27 55.025 389.82 55.025C389.37 55.025 388.965 54.92 388.605 54.71C388.255 54.49 387.975 54.195 387.765 53.825C387.555 53.455 387.45 53.03 387.45 52.55L386.25 51.65C386.25 52.64 386.405 53.47 386.715 54.14C387.035 54.81 387.465 55.315 388.005 55.655C388.545 55.985 389.15 56.15 389.82 56.15C390.5 56.15 391.105 55.995 391.635 55.685C392.175 55.375 392.6 54.95 392.91 54.41C393.23 53.86 393.39 53.24 393.39 52.55C393.39 51.85 393.23 51.23 392.91 50.69C392.6 50.15 392.175 49.725 391.635 49.415C391.105 49.105 390.5 48.95 389.82 48.95V50.075ZM386.91 52.55H387.45C387.45 52.15 387.52 51.8 387.66 51.5C387.81 51.19 388 50.93 388.23 50.72C388.47 50.51 388.73 50.35 389.01 50.24C389.29 50.13 389.56 50.075 389.82 50.075V48.95C389.39 48.95 388.995 49.035 388.635 49.205C388.285 49.365 387.98 49.6 387.72 49.91C387.46 50.22 387.26 50.6 387.12 51.05C386.98 51.49 386.91 51.99 386.91 52.55ZM386.25 51.65L387.3 52.445V50.9C387.3 50.4 387.365 49.9 387.495 49.4C387.625 48.89 387.86 48.435 388.2 48.035C388.55 47.635 389.035 47.335 389.655 47.135C390.205 46.955 390.695 46.73 391.125 46.46C391.565 46.19 391.92 45.875 392.19 45.515C392.46 45.145 392.62 44.74 392.67 44.3H391.485C391.415 44.66 391.21 45.005 390.87 45.335C390.54 45.655 390.035 45.93 389.355 46.16C388.555 46.43 387.925 46.82 387.465 47.33C387.015 47.83 386.7 48.44 386.52 49.16C386.34 49.88 386.25 50.71 386.25 51.65Z" fill="#383838"/>
<path d="M394.438 52.55C394.438 53.24 394.593 53.86 394.903 54.41C395.223 54.95 395.653 55.375 396.193 55.685C396.733 55.995 397.338 56.15 398.008 56.15C398.688 56.15 399.293 55.995 399.823 55.685C400.363 55.375 400.788 54.95 401.098 54.41C401.418 53.86 401.578 53.24 401.578 52.55C401.578 51.85 401.418 51.23 401.098 50.69C400.788 50.15 400.363 49.725 399.823 49.415C399.293 49.105 398.688 48.95 398.008 48.95C397.338 48.95 396.733 49.105 396.193 49.415C395.653 49.725 395.223 50.15 394.903 50.69C394.593 51.23 394.438 51.85 394.438 52.55ZM395.653 52.55C395.653 52.07 395.753 51.645 395.953 51.275C396.163 50.895 396.443 50.6 396.793 50.39C397.153 50.18 397.558 50.075 398.008 50.075C398.458 50.075 398.858 50.18 399.208 50.39C399.568 50.6 399.848 50.895 400.048 51.275C400.258 51.645 400.363 52.07 400.363 52.55C400.363 53.03 400.258 53.455 400.048 53.825C399.848 54.195 399.568 54.49 399.208 54.71C398.858 54.92 398.458 55.025 398.008 55.025C397.558 55.025 397.153 54.92 396.793 54.71C396.443 54.49 396.163 54.195 395.953 53.825C395.753 53.455 395.653 53.03 395.653 52.55Z" fill="#383838"/>
<path d="M404.352 59.3V49.1H403.152V59.3H404.352ZM410.127 52.55C410.127 51.8 409.972 51.16 409.662 50.63C409.352 50.09 408.937 49.675 408.417 49.385C407.907 49.095 407.337 48.95 406.707 48.95C406.137 48.95 405.632 49.095 405.192 49.385C404.762 49.675 404.422 50.09 404.172 50.63C403.932 51.16 403.812 51.8 403.812 52.55C403.812 53.29 403.932 53.93 404.172 54.47C404.422 55.01 404.762 55.425 405.192 55.715C405.632 56.005 406.137 56.15 406.707 56.15C407.337 56.15 407.907 56.005 408.417 55.715C408.937 55.425 409.352 55.01 409.662 54.47C409.972 53.93 410.127 53.29 410.127 52.55ZM408.912 52.55C408.912 53.08 408.802 53.53 408.582 53.9C408.372 54.27 408.087 54.55 407.727 54.74C407.377 54.93 406.987 55.025 406.557 55.025C406.207 55.025 405.862 54.93 405.522 54.74C405.182 54.55 404.902 54.27 404.682 53.9C404.462 53.53 404.352 53.08 404.352 52.55C404.352 52.02 404.462 51.57 404.682 51.2C404.902 50.83 405.182 50.55 405.522 50.36C405.862 50.17 406.207 50.075 406.557 50.075C406.987 50.075 407.377 50.17 407.727 50.36C408.087 50.55 408.372 50.83 408.582 51.2C408.802 51.57 408.912 52.02 408.912 52.55Z" fill="#383838"/>
<path d="M411.181 52.55C411.181 53.24 411.336 53.86 411.646 54.41C411.966 54.95 412.396 55.375 412.936 55.685C413.476 55.995 414.081 56.15 414.751 56.15C415.431 56.15 416.036 55.995 416.566 55.685C417.106 55.375 417.531 54.95 417.841 54.41C418.161 53.86 418.321 53.24 418.321 52.55C418.321 51.85 418.161 51.23 417.841 50.69C417.531 50.15 417.106 49.725 416.566 49.415C416.036 49.105 415.431 48.95 414.751 48.95C414.081 48.95 413.476 49.105 412.936 49.415C412.396 49.725 411.966 50.15 411.646 50.69C411.336 51.23 411.181 51.85 411.181 52.55ZM412.396 52.55C412.396 52.07 412.496 51.645 412.696 51.275C412.906 50.895 413.186 50.6 413.536 50.39C413.896 50.18 414.301 50.075 414.751 50.075C415.201 50.075 415.601 50.18 415.951 50.39C416.311 50.6 416.591 50.895 416.791 51.275C417.001 51.645 417.106 52.07 417.106 52.55C417.106 53.03 417.001 53.455 416.791 53.825C416.591 54.195 416.311 54.49 415.951 54.71C415.601 54.92 415.201 55.025 414.751 55.025C414.301 55.025 413.896 54.92 413.536 54.71C413.186 54.49 412.906 54.195 412.696 53.825C412.496 53.455 412.396 53.03 412.396 52.55Z" fill="#383838"/>
<path d="M420.675 52.4V53.03H422.67C422.9 53.03 423.095 53.055 423.255 53.105C423.425 53.145 423.56 53.21 423.66 53.3C423.77 53.39 423.85 53.49 423.9 53.6C423.96 53.71 423.99 53.835 423.99 53.975C423.99 54.245 423.88 54.475 423.66 54.665C423.45 54.855 423.12 54.95 422.67 54.95H420.675V56H422.97C423.76 56 424.325 55.82 424.665 55.46C425.015 55.09 425.19 54.645 425.19 54.125C425.19 53.675 425.08 53.325 424.86 53.075C424.64 52.825 424.34 52.65 423.96 52.55C423.58 52.45 423.15 52.4 422.67 52.4H420.675ZM420.675 52.7H422.52C422.95 52.7 423.34 52.64 423.69 52.52C424.05 52.39 424.34 52.2 424.56 51.95C424.78 51.69 424.89 51.365 424.89 50.975C424.89 50.525 424.78 50.165 424.56 49.895C424.34 49.615 424.05 49.415 423.69 49.295C423.34 49.165 422.95 49.1 422.52 49.1H420.675V50.15H422.52C422.88 50.15 423.165 50.235 423.375 50.405C423.585 50.565 423.69 50.78 423.69 51.05C423.69 51.18 423.66 51.305 423.6 51.425C423.55 51.535 423.475 51.635 423.375 51.725C423.275 51.815 423.15 51.885 423 51.935C422.86 51.975 422.7 51.995 422.52 51.995H420.675V52.7ZM419.97 49.1V56H421.17V49.1H419.97Z" fill="#383838"/>
<path d="M187.68 22.72L180.84 5.99999H172.96L187.68 35.76L202.44 5.99999H194.52L187.68 22.72Z" fill="#383838"/>
<path d="M210.348 20C210.348 18.3467 210.668 16.8933 211.308 15.64C211.975 14.36 212.895 13.36 214.068 12.64C215.268 11.92 216.668 11.56 218.268 11.56C219.895 11.56 221.295 11.92 222.468 12.64C223.641 13.36 224.548 14.36 225.188 15.64C225.828 16.8933 226.148 18.3467 226.148 20C226.148 21.6533 225.815 23.12 225.148 24.4C224.508 25.6533 223.588 26.64 222.388 27.36C221.215 28.08 219.841 28.44 218.268 28.44C216.668 28.44 215.268 28.08 214.068 27.36C212.895 26.64 211.975 25.6533 211.308 24.4C210.668 23.12 210.348 21.6533 210.348 20ZM203.188 20C203.188 22.16 203.548 24.1467 204.268 25.96C205.015 27.7733 206.055 29.3467 207.388 30.68C208.748 32.0133 210.348 33.0533 212.188 33.8C214.028 34.52 216.055 34.88 218.268 34.88C220.455 34.88 222.468 34.52 224.308 33.8C226.148 33.0533 227.735 32.0133 229.068 30.68C230.428 29.3467 231.468 27.7733 232.188 25.96C232.935 24.1467 233.308 22.16 233.308 20C233.308 17.84 232.935 15.8667 232.188 14.08C231.441 12.2933 230.388 10.7467 229.028 9.43999C227.668 8.13332 226.068 7.13332 224.228 6.43999C222.415 5.71999 220.428 5.35999 218.268 5.35999C216.135 5.35999 214.148 5.71999 212.308 6.43999C210.468 7.13332 208.868 8.13332 207.508 9.43999C206.148 10.7467 205.081 12.2933 204.308 14.08C203.561 15.8667 203.188 17.84 203.188 20Z" fill="#383838"/>
<path d="M244.64 21.32L252.48 34H260.4L251.64 21.32H244.64ZM237.64 5.99999V34H244.4V5.99999H237.64ZM241.88 11.72H247.36C248.266 11.72 249.04 11.8667 249.68 12.16C250.346 12.4533 250.853 12.88 251.2 13.44C251.546 13.9733 251.72 14.6267 251.72 15.4C251.72 16.1733 251.546 16.84 251.2 17.4C250.853 17.9333 250.346 18.3467 249.68 18.64C249.04 18.9067 248.266 19.04 247.36 19.04H241.88V24.28H247.84C250.24 24.28 252.24 23.8933 253.84 23.12C255.44 22.3467 256.653 21.28 257.48 19.92C258.306 18.5333 258.72 16.9467 258.72 15.16C258.72 13.3467 258.306 11.76 257.48 10.4C256.653 9.01332 255.44 7.93332 253.84 7.15999C252.24 6.38666 250.24 5.99999 247.84 5.99999H241.88V11.72Z" fill="#383838"/>
<path d="M269.098 20C269.098 18.3467 269.418 16.8933 270.058 15.64C270.725 14.36 271.645 13.36 272.818 12.64C274.018 11.92 275.418 11.56 277.018 11.56C278.645 11.56 280.045 11.92 281.218 12.64C282.391 13.36 283.298 14.36 283.938 15.64C284.578 16.8933 284.898 18.3467 284.898 20C284.898 21.6533 284.565 23.12 283.898 24.4C283.258 25.6533 282.338 26.64 281.138 27.36C279.965 28.08 278.591 28.44 277.018 28.44C275.418 28.44 274.018 28.08 272.818 27.36C271.645 26.64 270.725 25.6533 270.058 24.4C269.418 23.12 269.098 21.6533 269.098 20ZM261.938 20C261.938 22.16 262.298 24.1467 263.018 25.96C263.765 27.7733 264.805 29.3467 266.138 30.68C267.498 32.0133 269.098 33.0533 270.938 33.8C272.778 34.52 274.805 34.88 277.018 34.88C279.205 34.88 281.218 34.52 283.058 33.8C284.898 33.0533 286.485 32.0133 287.818 30.68C289.178 29.3467 290.218 27.7733 290.938 25.96C291.685 24.1467 292.058 22.16 292.058 20C292.058 17.84 291.685 15.8667 290.938 14.08C290.191 12.2933 289.138 10.7467 287.778 9.43999C286.418 8.13332 284.818 7.13332 282.978 6.43999C281.165 5.71999 279.178 5.35999 277.018 5.35999C274.885 5.35999 272.898 5.71999 271.058 6.43999C269.218 7.13332 267.618 8.13332 266.258 9.43999C264.898 10.7467 263.831 12.2933 263.058 14.08C262.311 15.8667 261.938 17.84 261.938 20Z" fill="#383838"/>
<path d="M292.379 12.04H300.059V34H306.819V12.04H314.539V5.99999H292.379V12.04Z" fill="#383838"/>
<path d="M318.016 28.6H332.816L332.376 23.44H318.496L318.016 28.6ZM325.336 16.28L329.296 25.36L329.056 27.08L332.416 34H340.096L325.336 4.23999L310.616 34H318.256L321.736 26.8L321.416 25.32L325.336 16.28Z" fill="#383838"/>
<path d="M353.262 12.32H366.182L355.262 34H362.582L376.102 5.99999H353.262V12.32Z" fill="#383838"/>
<path d="M400.364 25.04C400.364 23.0933 399.964 21.44 399.164 20.08C398.364 18.72 397.311 17.68 396.004 16.96C394.724 16.24 393.337 15.88 391.844 15.88C390.964 15.88 390.111 15.96 389.284 16.12C388.484 16.2533 387.711 16.4933 386.964 16.84L388.564 11.84H399.764V5.99999H383.604L379.684 22.16C380.644 21.68 381.577 21.32 382.484 21.08C383.417 20.8133 384.311 20.64 385.164 20.56C386.044 20.4533 386.844 20.4 387.564 20.4C388.497 20.4 389.364 20.5333 390.164 20.8C390.991 21.0667 391.657 21.4933 392.164 22.08C392.697 22.64 392.964 23.3867 392.964 24.32C392.964 25.2 392.751 25.9467 392.324 26.56C391.897 27.1733 391.284 27.6267 390.484 27.92C389.684 28.2133 388.711 28.36 387.564 28.36C386.897 28.36 386.151 28.24 385.324 28C384.497 27.7333 383.671 27.3867 382.844 26.96C382.044 26.5067 381.257 25.96 380.484 25.32L377.844 30.88C378.724 31.5467 379.697 32.16 380.764 32.72C381.831 33.2533 383.057 33.68 384.444 34C385.831 34.3467 387.377 34.52 389.084 34.52C390.444 34.52 391.777 34.3467 393.084 34C394.417 33.6267 395.631 33.0533 396.724 32.28C397.844 31.5067 398.724 30.52 399.364 29.32C400.031 28.12 400.364 26.6933 400.364 25.04Z" fill="#383838"/>
<path d="M410.065 20C410.065 18.6933 410.185 17.5067 410.425 16.44C410.665 15.3467 411.012 14.4267 411.465 13.68C411.919 12.9067 412.452 12.32 413.065 11.92C413.705 11.4933 414.412 11.28 415.185 11.28C415.959 11.28 416.652 11.4933 417.265 11.92C417.905 12.32 418.452 12.9067 418.905 13.68C419.359 14.4267 419.705 15.3467 419.945 16.44C420.185 17.5067 420.305 18.6933 420.305 20C420.305 21.3067 420.185 22.5067 419.945 23.6C419.705 24.6667 419.359 25.5867 418.905 26.36C418.452 27.1067 417.905 27.6933 417.265 28.12C416.652 28.52 415.959 28.72 415.185 28.72C414.412 28.72 413.705 28.52 413.065 28.12C412.452 27.6933 411.919 27.1067 411.465 26.36C411.012 25.5867 410.665 24.6667 410.425 23.6C410.185 22.5067 410.065 21.3067 410.065 20ZM403.545 20C403.545 23.04 404.025 25.64 404.985 27.8C405.972 29.96 407.345 31.6267 409.105 32.8C410.865 33.9467 412.892 34.52 415.185 34.52C417.585 34.52 419.652 33.9467 421.385 32.8C423.119 31.6267 424.452 29.96 425.385 27.8C426.345 25.64 426.825 23.04 426.825 20C426.825 16.96 426.345 14.36 425.385 12.2C424.452 10.04 423.119 8.38666 421.385 7.23999C419.652 6.06666 417.585 5.47999 415.185 5.47999C412.892 5.47999 410.865 6.06666 409.105 7.23999C407.345 8.38666 405.972 10.04 404.985 12.2C404.025 14.36 403.545 16.96 403.545 20Z" fill="#383838"/>
<path d="M115.5 54.5V6.24282L138.639 30.3463L161.827 54.5H115.5Z" stroke="#00CB00"/>
<path d="M139 30L139.5 30.5L117 54V53L139 30Z" fill="#00CB00"/>
<rect x="30.5" y="3.5" width="86" height="53" fill="#383838" stroke="#00CB00"/>
<rect x="45" y="13" width="2" height="34" fill="#3E3E3E"/>
<rect x="59" y="13" width="2" height="34" fill="#3E3E3E"/>
<rect x="73" y="13" width="2" height="34" fill="#3E3E3E"/>
<rect x="87" y="13" width="2" height="34" fill="#3E3E3E"/>
<rect x="101" y="13" width="2" height="34" fill="#3E3E3E"/>
<rect width="16" height="58" fill="#00CB00"/>
<rect x="88" width="12" height="58" fill="#00CB00"/>
</svg>
