<svg width="264" height="20" fill="none" xmlns="http://www.w3.org/2000/svg"><path fill-rule="evenodd" clip-rule="evenodd" d="M11 0a1 1 0 0 1 1 1v6a1 1 0 0 1-2 0V1a1 1 0 0 1 1-1Zm3 2a1 1 0 0 1 1 1v6a1 1 0 0 1-2 0V3a1 1 0 0 1 1-1ZM8 2a1 1 0 0 1 1 1v5a1 1 0 0 1-2 0V3a1 1 0 0 1 1-1ZM5 4a1 1 0 0 1 1 1v4a1 1 0 0 1-2 0V5a1 1 0 0 1 1-1Zm12 7v4.509c0 .93-.225 1.875-.875 2.54A6.479 6.479 0 0 1 11.5 20h-1A6.5 6.5 0 0 1 4 13.5v-1c.008-.507.078-1.01.21-1.5H17Z" fill="#F9C0B0"/><path d="M18 6H2a2 2 0 0 0-2 2v5a2 2 0 0 0 2 2h16a2 2 0 0 0 2-2V8a2 2 0 0 0-2-2Z" fill="#0D8F1F"/><path fill-rule="evenodd" clip-rule="evenodd" d="M17 15.05A1.95 1.95 0 0 1 15.05 17h-3.705a3.496 3.496 0 0 1 .343-3.597c.38-.51.89-.902 1.477-1.136a3.379 3.379 0 0 1 1.845-.188V9.008c0-.267.105-.523.292-.712a.989.989 0 0 1 1.407 0c.186.189.291.445.291.712v6.042Z" fill="#F9C0B0"/><path fill-rule="evenodd" clip-rule="evenodd" d="M65.664 13.895c.095.42.378 2.092.378 2.092l.002.004h2.957l-2.6-11.98h-2.464c-.389 0-.71.037-1.011.22-.302.182-.53.459-.647.784l-4.717 10.972h3.335s.566-1.764.68-2.092h4.087ZM63.24 9.798c.327-.835.654-1.67.935-2.52.177.8.347 1.6.516 2.402.146.693.293 1.386.445 2.078h-2.638c.233-.658.487-1.309.742-1.96Z" fill="#3156FF"/><path d="M53.319 7.522c.02-.51.585-1.02 1.848-1.02.942-.03 1.806.213 2.652.576l.434-2.587A8.34 8.34 0 0 0 55.389 4c-3.148 0-5.352 1.626-5.372 3.939-.017 1.624 1.422 2.29 2.6 2.836l.19.088c1.244.583 1.658.966 1.658 1.494-.11.868-1.014 1.15-1.9 1.15-1.192 0-2.626-.449-3.433-.822l-.433 2.678c1.13.423 2.33.64 3.542.636 3.358 0 5.525-1.601 5.544-4.06.018-1.365-.83-2.107-2.657-2.942-1.13-.547-1.809-.91-1.809-1.476Zm-7.797-3.474-1.999 11.938h3.186l1.997-11.938h-3.184ZM33.028 5.686l2.825 10.3h3.373L44.24 4.047h-3.373l-3.126 8.129c-.5-2.41-1.007-4.818-1.518-7.226a1.181 1.181 0 0 0-.452-.68 1.37 1.37 0 0 0-.815-.266H30v.355c1.014.276 2.07.668 2.981 1.161l.047.166Z" fill="#3156FF"/><path d="M88 19a9 9 0 1 0 0-18 9 9 0 0 0 0 18Z" fill="#E70025"/><path d="M97 19a9 9 0 0 0 9-9 9 9 0 1 0-9 9Z" fill="#F59E2D"/><path fill-rule="evenodd" clip-rule="evenodd" d="M92.5 2.204A8.996 8.996 0 0 0 88 10c0 3.331 1.81 6.24 4.5 7.796A8.996 8.996 0 0 0 97 10c0-3.331-1.81-6.24-4.5-7.796Z" fill="#FC5D1D"/><path fill-rule="evenodd" clip-rule="evenodd" d="M129.531 16V8.874h-.367L126.551 16h-3.111l-2.607-7.126h-.364V16H116V4h4.469a2.82 2.82 0 0 1 1.538.428c.449.285.783.689.955 1.154l1.837 5.546h.386l1.839-5.546c.173-.467.51-.872.961-1.157A2.827 2.827 0 0 1 129.531 4H134v12h-4.469Zm15.09-.005V8.87h-.328l-2.719 5.977a1.996 1.996 0 0 1-.779.836 2.24 2.24 0 0 1-1.146.31H136V4h4.336v7.123h.344l2.753-5.983.022-.046a2.01 2.01 0 0 1 .779-.795 2.242 2.242 0 0 1 1.117-.294H149V16h-4.376l-.003-.005Zm17.217-4.17h-5.317V16H152V9h15a5.2 5.2 0 0 1-2.122 2.134 5.764 5.764 0 0 1-3.04.691Z" fill="#52B461"/><path fill-rule="evenodd" clip-rule="evenodd" d="M166.89 8h-8.291c-3.786 0-6.936-1.73-7.599-4h10.758C164.653 4 167 5.486 167 7.319c0 .23-.037.46-.11.681Z" fill="url(#a)"/><path d="M238 4a3 3 0 0 0-3-3h-55a3 3 0 0 0-3 3v12a3 3 0 0 0 3 3h55a3 3 0 0 0 3-3V4Z" fill="#FFDD2D"/><path d="M187.626 13.762v-5.54h2.677V6.206H183v2.016h2.677v5.54h1.949Zm5.406-7.556h-1.949v7.556h1.949V6.206Zm1.427 0v7.556h1.793V9.587l3.34 4.175h1.663V6.206h-1.793v4.143L196.2 6.206h-1.741Zm10.627 4.699 2.248 2.857h2.508l-3.132-3.937 3.015-3.619h-2.365l-2.274 2.842h-.52V6.206h-1.884v7.556h1.884v-2.857h.52ZM213.719 6c-2.533 0-4.055 1.746-4.055 4s1.522 4 4.055 4c2.521 0 4.041-1.746 4.041-4s-1.52-4-4.041-4Zm0 6.159c-1.26 0-2.066-.921-2.066-2.159 0-1.238.806-2.143 2.066-2.143 1.248 0 2.067.905 2.067 2.143 0 1.238-.819 2.159-2.067 2.159Zm11.187-5.953h-6.251v7.556h1.885v-2.525h4.093V9.57h-4.093V8.127h4.366v-1.92Zm7.094 0h-6.25v7.556h1.884v-2.525h4.093V9.57h-4.093V8.127H232v-1.92Z" fill="#000"/><path fill-rule="evenodd" clip-rule="evenodd" d="m262.702 14.463-2.318.864a.298.298 0 0 1-.227-.012.312.312 0 0 1-.156-.17L258.8 11.81h-5.625l-1.198 3.329a.309.309 0 0 1-.155.17.295.295 0 0 1-.226.012l-2.315-.864a.28.28 0 0 1-.17-.148.277.277 0 0 1-.03-.113.283.283 0 0 1 .015-.115l4.681-12.604c.188-.44.497-.813.889-1.075a2.364 2.364 0 0 1 2.634 0c.392.262.7.636.889 1.075l4.698 12.611a.282.282 0 0 1 .015.115.289.289 0 0 1-.2.26Zm-6.347-9.806-.369-1.06V3.59l-2.118 5.846h4.238l-1.751-4.778Zm-7.26 13.024h13.81c.294.01.572.136.777.352.204.216.318.506.318.807 0 .302-.114.591-.318.808a1.12 1.12 0 0 1-.777.352h-13.81a1.12 1.12 0 0 1-.777-.352 1.177 1.177 0 0 1-.318-.808c0-.301.114-.59.318-.807a1.12 1.12 0 0 1 .777-.352Z" fill="#FC0018"/><defs><linearGradient id="a" x1="167.014" y1="5.996" x2="150.977" y2="5.996" gradientUnits="userSpaceOnUse"><stop stop-color="#198ECA"/><stop offset="1" stop-color="#1DB5E4"/></linearGradient></defs></svg>