<?xml version="1.0" encoding="utf-8"?><svg xmlns="http://www.w3.org/2000/svg" xmlns:xlink="http://www.w3.org/1999/xlink"><symbol viewBox="0 0 16 17" id="address" xmlns="http://www.w3.org/2000/svg"><g clip-path="url(#aaa)"><path d="M8 .5a6.293 6.293 0 0 0-6.285 6.286 6.222 6.222 0 0 0 1.266 3.771s.172.226.2.258L8 16.5l4.822-5.687c.025-.03.197-.256.197-.256v-.002a6.22 6.22 0 0 0 1.266-3.77A6.294 6.294 0 0 0 8.001.5Zm0 8.571A2.286 2.286 0 1 1 8 4.5 2.286 2.286 0 0 1 8 9.07Z"/></g><defs><clipPath id="aaa"><path transform="translate(0 .5)" d="M0 0h16v16H0z"/></clipPath></defs></symbol><symbol viewBox="0 0 12 12" id="arrow" xmlns="http://www.w3.org/2000/svg"><path d="M3.427 12a1.04 1.04 0 0 1-.727-.293.98.98 0 0 1 0-1.414L7.117 6 2.7 1.707a.98.98 0 0 1 0-1.414 1.05 1.05 0 0 1 1.454 0l5.143 5a.98.98 0 0 1 0 1.414l-5.143 5c-.2.196-.464.293-.727.293Z"/></symbol><symbol viewBox="0 0 12 12" id="arrow-left" xmlns="http://www.w3.org/2000/svg"><path d="M8.573 12c.263 0 .527-.098.727-.293a.98.98 0 0 0 0-1.414L4.883 6 9.3 1.707a.98.98 0 0 0 0-1.414 1.05 1.05 0 0 0-1.454 0l-5.143 5a.98.98 0 0 0 0 1.414l5.143 5c.2.196.464.293.727.293Z"/></symbol><symbol viewBox="0 0 8 9" id="arrow-long" xmlns="http://www.w3.org/2000/svg"><g clip-path="url(#aca)"><path fill-rule="evenodd" clip-rule="evenodd" d="M.667 3.833a.667.667 0 1 0 0 1.333h5.06l-2.2 2.191a.667.667 0 0 0 .217 1.092.666.666 0 0 0 .73-.146l3.333-3.33a.668.668 0 0 0 .17-.31.666.666 0 0 0-.068-.497.668.668 0 0 0-.102-.14L4.473.697a.67.67 0 0 0-.946.946l2.2 2.191H.667Zm3.566 4.232Z"/></g><defs><clipPath id="aca"><path transform="translate(0 .5)" d="M0 0h8v8H0z"/></clipPath></defs></symbol><symbol viewBox="0 0 12 12" id="arrow-right" xmlns="http://www.w3.org/2000/svg"><path d="M3.427 12a1.04 1.04 0 0 1-.727-.293.98.98 0 0 1 0-1.414L7.117 6 2.7 1.707a.98.98 0 0 1 0-1.414 1.05 1.05 0 0 1 1.454 0l5.143 5a.98.98 0 0 1 0 1.414l-5.143 5c-.2.196-.464.293-.727.293Z"/></symbol><symbol viewBox="0 0 20 20" id="bars" xmlns="http://www.w3.org/2000/svg"><path d="M.91 5.714h18.18c.503 0 .91-.426.91-.952s-.407-.952-.91-.952H.91c-.503 0-.91.426-.91.952s.407.952.91.952ZM19.09 8.961H.91c-.503 0-.91.426-.91.952s.407.953.91.953h18.18c.503 0 .91-.427.91-.953s-.407-.952-.91-.952ZM19.09 14.113H.91c-.503 0-.91.426-.91.952s.407.952.91.952h18.18c.503 0 .91-.426.91-.952s-.407-.952-.91-.952Z"/></symbol><symbol viewBox="0 0 20 21" id="cart" xmlns="http://www.w3.org/2000/svg"><path d="M8.358 18.256c0 .28-.081.552-.234.784-.153.232-.371.413-.626.52a1.377 1.377 0 0 1-1.518-.306 1.416 1.416 0 0 1-.302-1.537c.106-.258.284-.478.513-.633a1.382 1.382 0 0 1 1.76.175c.26.265.407.623.407.997Zm7.662-1.41c-.275 0-.545.083-.774.238-.229.155-.407.375-.513.633a1.426 1.426 0 0 0 .302 1.537 1.377 1.377 0 0 0 1.518.306c.255-.107.473-.288.626-.52a1.422 1.422 0 0 0-.174-1.78 1.385 1.385 0 0 0-.985-.414Zm3.953-11.088-2.298 8.144c-.127.442-.39.83-.754 1.106a2.082 2.082 0 0 1-1.258.428h-8.34a2.082 2.082 0 0 1-1.259-.428 2.125 2.125 0 0 1-.753-1.106L3.013 5.767v-.018l-.854-3.005H.697a.692.692 0 0 1-.493-.207.71.71 0 0 1 0-.997.692.692 0 0 1 .493-.207h1.462c.303.001.597.102.839.286.241.184.418.443.502.737l.705 2.503h15.098a.69.69 0 0 1 .556.28.709.709 0 0 1 .114.619Zm-1.593.511H4.606l2.046 7.245a.69.69 0 0 0 .67.511h8.341a.69.69 0 0 0 .42-.141.705.705 0 0 0 .25-.37L18.38 6.27Z"/></symbol><symbol viewBox="0 0 18 18" id="cash" xmlns="http://www.w3.org/2000/svg"><g clip-path="url(#aha)"><path d="M.245 9.023a.375.375 0 0 0-.222.48l.235.648 1.793-1.793-1.806.665ZM1.941 14.783l1.08 2.97a.371.371 0 0 0 .353.247.368.368 0 0 0 .13-.023l1.191-.44-2.754-2.754ZM17.977 12.248l-1.236-3.399-2.966 2.966 1.47-.541a.374.374 0 1 1 .26.704l-1.868.688a.375.375 0 0 1-.481-.222l-.001-.007-3.143 3.143 7.742-2.853a.374.374 0 0 0 .223-.48ZM17.89 6.11l-6-6a.375.375 0 0 0-.53 0L.11 11.36a.375.375 0 0 0 0 .53l6 6a.377.377 0 0 0 .53 0L17.89 6.64a.376.376 0 0 0 0-.53Zm-13.5 4.28-1.5 1.5a.377.377 0 0 1-.531 0 .375.375 0 0 1 0-.53l1.5-1.5a.375.375 0 0 1 .53.53Zm6.476.477c-.266.265-.626.393-1.028.393-.663 0-1.437-.347-2.085-.996-.474-.474-.807-1.041-.937-1.596-.144-.619-.026-1.157.334-1.517.359-.36.897-.479 1.517-.334.555.13 1.122.462 1.596.937 1.042 1.04 1.307 2.409.603 3.113Zm4.773-4.226-1.5 1.5a.377.377 0 0 1-.53 0 .375.375 0 0 1 0-.53l1.5-1.5a.375.375 0 0 1 .53.53Z"/></g><defs><clipPath id="aha"><path d="M0 0h18v18H0z"/></clipPath></defs></symbol><symbol viewBox="0 0 10 10" id="check" xmlns="http://www.w3.org/2000/svg"><path d="M8.85 1.444a.668.668 0 0 1 .477-.194.684.684 0 0 1 .475.194c.26.255.264.667.01.927L4.436 8.539a.666.666 0 0 1-.48.21.684.684 0 0 1-.488-.193L.197 5.34a.658.658 0 0 1 .476-1.13.684.684 0 0 1 .476.195l2.774 2.729 4.91-5.67a.22.22 0 0 1 .018-.019Z"/></symbol><symbol viewBox="0 0 16 17" id="clock" xmlns="http://www.w3.org/2000/svg"><g clip-path="url(#aja)"><path d="M16 8.5a8 8 0 1 1-16.001 0A8 8 0 0 1 16 8.5ZM8 4a.5.5 0 1 0-1 0v5.5a.5.5 0 0 0 .252.434l3.5 2a.5.5 0 0 0 .496-.868L8 9.21V4Z"/></g><defs><clipPath id="aja"><path transform="translate(0 .5)" d="M0 0h16v16H0z"/></clipPath></defs></symbol><symbol viewBox="0 0 32 32" id="close" xmlns="http://www.w3.org/2000/svg"><g clip-path="url(#aka)"><path d="m18.932 16.026 12.46-12.46a2.07 2.07 0 0 0 0-2.932 2.071 2.071 0 0 0-2.932 0L16 13.094 3.54.635a2.071 2.071 0 0 0-2.932 0 2.07 2.07 0 0 0 0 2.932l12.46 12.46-12.46 12.46a2.07 2.07 0 0 0 0 2.932c.404.405.935.608 1.466.608.53 0 1.061-.204 1.466-.608L16 18.958l12.46 12.46a2.068 2.068 0 0 0 2.931 0 2.07 2.07 0 0 0 0-2.931l-12.46-12.46Z"/></g><defs><clipPath id="aka"><path d="M0 0h32v32H0z"/></clipPath></defs></symbol><symbol viewBox="0 0 18 18" id="delivery" xmlns="http://www.w3.org/2000/svg"><g clip-path="url(#ala)"><path d="M11.553 2.455H.585a.572.572 0 0 0-.577.577v6.927c0 .318.254.578.577.578h10.968c.318 0 .578-.26.578-.578V3.032a.575.575 0 0 0-.578-.577ZM0 13.423c0 .317.26.577.577.577h.624a2.908 2.908 0 0 1 2.47-2.309H.584A1.63 1.63 0 0 1 0 11.587v1.836Z"/><path d="M16.706 14h.716a.58.58 0 0 0 .578-.577V8.366c0-.906-2.211-3.025-3.424-3.025h-1.293v4.618c0 .953-.78 1.732-1.732 1.732h-7.13a2.908 2.908 0 0 1 2.472 2.31h4.121a2.91 2.91 0 0 1 2.847-2.339c1.402 0 2.58 1.01 2.845 2.338ZM14.23 6.761c2.956-.144 2.834 2.91 2.834 2.91H14.23V6.76Z"/><path d="M13.86 16.306a1.743 1.743 0 1 0 0-3.487 1.743 1.743 0 0 0 0 3.487ZM4.044 16.306a1.743 1.743 0 1 0 0-3.487 1.743 1.743 0 0 0 0 3.487Z"/></g><defs><clipPath id="ala"><path d="M0 0h18v18H0z"/></clipPath></defs></symbol><symbol viewBox="0 0 8 9" id="dropdown" xmlns="http://www.w3.org/2000/svg"><path d="M4 7.5a.685.685 0 0 1-.279-.058.717.717 0 0 1-.235-.168L.117 3.687a.802.802 0 0 1 .081-.946.695.695 0 0 1 .89-.14L4 5.674 6.912 2.6a.695.695 0 0 1 .89.141.803.803 0 0 1 .081.946L4.485 7.274A.701.701 0 0 1 4 7.5Z"/></symbol><symbol viewBox="0 0 16 17" id="facebook" xmlns="http://www.w3.org/2000/svg"><g clip-path="url(#ana)"><path d="M8.946 16.497V9.212h2.458l.365-2.852H8.946V4.543c0-.823.23-1.387 1.41-1.387h1.497V.613A19.855 19.855 0 0 0 9.66.5C7.488.5 5.996 1.826 5.996 4.26v2.094H3.555v2.853h2.447v7.29h2.944Z"/></g><defs><clipPath id="ana"><path transform="translate(0 .5)" d="M0 0h16v16H0z"/></clipPath></defs></symbol><symbol viewBox="0 0 16 17" id="instagram" xmlns="http://www.w3.org/2000/svg"><g clip-path="url(#aoa)"><path d="M12.273 5.19a.96.96 0 1 0 0-1.92.96.96 0 0 0 0 1.92ZM7.999 4.392a4.108 4.108 0 1 0 0 8.216 4.108 4.108 0 0 0 0-8.216Zm0 6.775a2.667 2.667 0 1 1 0-5.334 2.667 2.667 0 0 1 0 5.334Z"/><path d="M8 1.941c2.136 0 2.39.008 3.233.047.507.006 1.01.1 1.485.275a2.65 2.65 0 0 1 1.519 1.519c.176.476.269.978.275 1.485.039.844.047 1.097.047 3.234 0 2.136-.008 2.388-.047 3.232a4.43 4.43 0 0 1-.275 1.485 2.652 2.652 0 0 1-1.519 1.519 4.43 4.43 0 0 1-1.485.275c-.844.039-1.097.047-3.233.047s-2.39-.008-3.233-.047a4.43 4.43 0 0 1-1.485-.275 2.652 2.652 0 0 1-1.519-1.519 4.428 4.428 0 0 1-.275-1.485c-.039-.844-.047-1.097-.047-3.233s.008-2.39.047-3.233c.006-.507.1-1.01.275-1.485a2.65 2.65 0 0 1 1.519-1.519c.476-.176.978-.269 1.485-.275.844-.039 1.097-.047 3.233-.047ZM8 .5C5.827.5 5.555.51 4.701.548c-.663.013-1.32.14-1.941.372A4.09 4.09 0 0 0 .42 3.26a5.871 5.871 0 0 0-.372 1.942C.009 6.055 0 6.327 0 8.5s.01 2.445.048 3.299c.013.663.14 1.32.372 1.941a4.091 4.091 0 0 0 2.34 2.34 5.87 5.87 0 0 0 1.942.372c.853.039 1.125.048 3.298.048s2.445-.01 3.299-.048a5.87 5.87 0 0 0 1.942-.372 4.092 4.092 0 0 0 2.34-2.34 5.873 5.873 0 0 0 .371-1.942c.039-.853.048-1.125.048-3.298s-.01-2.445-.048-3.299a5.872 5.872 0 0 0-.372-1.941A4.091 4.091 0 0 0 13.24.92a5.871 5.871 0 0 0-1.942-.371C10.445.509 10.173.5 8 .5Z"/></g><defs><clipPath id="aoa"><path transform="translate(0 .5)" d="M0 0h16v16H0z"/></clipPath></defs></symbol><symbol viewBox="0 0 15 14" id="list" xmlns="http://www.w3.org/2000/svg"><g clip-path="url(#apa)"><path d="M1.667 2.333a1.167 1.167 0 1 0 0-2.333 1.167 1.167 0 0 0 0 2.333ZM1.667 8.167a1.167 1.167 0 1 0 0-2.334 1.167 1.167 0 0 0 0 2.334ZM1.667 14a1.167 1.167 0 1 0 0-2.333 1.167 1.167 0 0 0 0 2.333ZM7.499 2.333a1.167 1.167 0 1 0 0-2.333 1.167 1.167 0 0 0 0 2.333ZM7.499 8.167a1.167 1.167 0 1 0 0-2.334 1.167 1.167 0 0 0 0 2.334ZM7.499 14a1.167 1.167 0 1 0 0-2.333 1.167 1.167 0 0 0 0 2.333ZM13.335 2.333a1.167 1.167 0 1 0 0-2.333 1.167 1.167 0 0 0 0 2.333ZM13.335 8.167a1.167 1.167 0 1 0 0-2.334 1.167 1.167 0 0 0 0 2.334ZM13.335 14a1.167 1.167 0 1 0 0-2.333 1.167 1.167 0 0 0 0 2.333Z"/></g><defs><clipPath id="apa"><path transform="translate(.5)" d="M0 0h14v14H0z"/></clipPath></defs></symbol><symbol viewBox="0 0 16 17" id="mail" xmlns="http://www.w3.org/2000/svg"><path d="M16 5.373V12.5a2.5 2.5 0 0 1-2.5 2.5h-11A2.5 2.5 0 0 1 0 12.5V5.373l7.746 4.558a.5.5 0 0 0 .508 0L16 5.373ZM13.5 2a2.5 2.5 0 0 1 2.485 2.223L8 8.92.015 4.223A2.5 2.5 0 0 1 2.5 2h11Z"/></symbol><symbol viewBox="0 0 18 19" id="measure" xmlns="http://www.w3.org/2000/svg"><g clip-path="url(#ara)"><path d="M6.462 8.216c1.139.222 2.292-.284 2.292-.825 0-.415-.737-.88-1.723-.88-.922 0-1.722.434-1.722.88 0 .342.495.697 1.153.825ZM12.043 10.8h1.985V9.529c-.566.535-1.279.954-1.985 1.273Z"/><path d="M1.595 9.296c.977.6 2.292 1.087 3.607 1.336 4.021.764 8.825-1.252 8.825-3.241 0-1.243-.762-2.392-2.147-3.235-1.304-.793-3.026-1.23-4.849-1.23C3.277 2.926 0 4.814 0 7.39c0 .611.59 1.288 1.595 1.905Zm2.682-2.161c.177-.972 1.335-1.678 2.754-1.678 1.558 0 2.778.85 2.778 1.934S8.589 9.324 7.03 9.324c-.262 0-.522-.024-.771-.073-1.2-.234-2.006-.981-2.006-1.86 0-.086.008-.172.023-.256Z"/><path d="M7.031 11.855c-.69 0-1.372-.063-2.025-.187C3.35 11.354 1.242 10.591 0 9.444v3.29c0 1.005.718 1.931 1.958 2.607.7.381 1.473.62 2.3.71.04.004.007.003.84.004v-1.9c0-.283.218-.528.502-.541a.527.527 0 0 1 .552.527v1.916l1.758.002v-1.904c0-.283.218-.528.502-.541a.527.527 0 0 1 .553.527v1.92l1.758.003v-1.909c0-.283.218-.528.502-.541a.527.527 0 0 1 .552.527v1.924l1.758.003v-1.913c0-.283.218-.528.502-.541a.527.527 0 0 1 .553.527v1.929l2.882.004a.527.527 0 0 0 .528-.536v-3.155a.527.527 0 0 0-.527-.527H7.03Z"/></g><defs><clipPath id="ara"><path transform="translate(0 .5)" d="M0 0h18v18H0z"/></clipPath></defs></symbol><symbol viewBox="0 0 8 8" id="minus" xmlns="http://www.w3.org/2000/svg"><g clip-path="url(#asa)"><path d="M7.455 3.5H.545A.546.546 0 0 0 0 4.045v.364c0 .301.244.546.545.546h6.91A.546.546 0 0 0 8 4.409v-.364a.546.546 0 0 0-.545-.545Z"/></g><defs><clipPath id="asa"><path d="M0 0h8v8H0z"/></clipPath></defs></symbol><symbol viewBox="0 0 18 18" id="payments" xmlns="http://www.w3.org/2000/svg"><g clip-path="url(#ata)"><path d="M16.773 14.727h-2.864a3.276 3.276 0 0 1-3.273-3.272 3.276 3.276 0 0 1 3.273-3.273h2.864c.226 0 .409-.183.409-.41V6.547c0-.858-.666-1.556-1.506-1.624L13.325.82A1.616 1.616 0 0 0 11.105.22L3.05 4.91H1.636C.734 4.91 0 5.642 0 6.545v9.818C0 17.266.734 18 1.636 18h13.91c.902 0 1.636-.734 1.636-1.636v-1.228a.409.409 0 0 0-.41-.409Zm-2.94-11.375.892 1.557h-3.566l2.674-1.557ZM4.677 4.91l6.84-3.982a.802.802 0 0 1 1.099.298v.002L6.293 4.909H4.677Z"/><path d="M16.771 9h-2.863a2.457 2.457 0 0 0-2.455 2.455 2.457 2.457 0 0 0 2.455 2.454h2.863c.677 0 1.227-.55 1.227-1.227v-2.455c0-.676-.55-1.227-1.227-1.227Zm-2.863 3.273a.82.82 0 0 1 0-1.636.82.82 0 0 1 0 1.636Z"/></g><defs><clipPath id="ata"><path d="M0 0h18v18H0z"/></clipPath></defs></symbol><symbol viewBox="0 0 16 16" id="phone" xmlns="http://www.w3.org/2000/svg"><g clip-path="url(#aua)"><path d="m10.863 10.951 1.328-1.327a1.298 1.298 0 0 1 1.386-.285l1.618.646a1.292 1.292 0 0 1 .806 1.185v2.963a1.286 1.286 0 0 1-1.35 1.274C3.313 14.702 1.025 5.102.593 1.428A1.286 1.286 0 0 1 1.88 0h2.862a1.28 1.28 0 0 1 1.185.806l.646 1.618a1.28 1.28 0 0 1-.278 1.386L4.967 5.138s.765 5.173 5.896 5.813Z"/></g><defs><clipPath id="aua"><path d="M0 0h16v16H0z"/></clipPath></defs></symbol><symbol viewBox="0 0 20 20" id="play" xmlns="http://www.w3.org/2000/svg"><path d="M16.992 11.548 4.62 19.751c-1.05.696-2.397-.146-2.397-1.548V1.796C2.223.396 3.568-.448 4.62.25l12.372 8.203c.239.156.437.381.575.653.139.272.211.58.211.895 0 .314-.072.622-.21.894a1.685 1.685 0 0 1-.576.653Z"/></symbol><symbol viewBox="0 0 8 8" id="plus" xmlns="http://www.w3.org/2000/svg"><g clip-path="url(#awa)"><path d="M7.455 3.273H4.727V.545A.546.546 0 0 0 4.182 0h-.364a.546.546 0 0 0-.545.545v2.728H.545A.546.546 0 0 0 0 3.818v.364c0 .3.244.545.545.545h2.728v2.728c0 .3.244.545.545.545h.364a.546.546 0 0 0 .545-.545V4.727h2.728A.546.546 0 0 0 8 4.182v-.364a.546.546 0 0 0-.545-.545Z"/></g><defs><clipPath id="awa"><path d="M0 0h8v8H0z"/></clipPath></defs></symbol><symbol viewBox="0 0 16 17" id="question" xmlns="http://www.w3.org/2000/svg"><g clip-path="url(#axa)"><path d="M16 8.5a8 8 0 1 1-16.001 0A8 8 0 0 1 16 8.5ZM5.496 6.533h.825c.138 0 .248-.113.266-.25.09-.656.54-1.134 1.342-1.134.686 0 1.314.343 1.314 1.168 0 .635-.374.927-.965 1.371-.673.489-1.206 1.06-1.168 1.987l.003.217a.25.25 0 0 0 .25.246h.811a.25.25 0 0 0 .25-.25v-.105c0-.718.273-.927 1.01-1.486.609-.463 1.244-.977 1.244-2.056C10.678 4.73 9.402 4 8.005 4c-1.267 0-2.655.59-2.75 2.286a.237.237 0 0 0 .241.247Zm2.325 6.443c.61 0 1.029-.394 1.029-.927 0-.552-.42-.94-1.029-.94-.584 0-1.009.388-1.009.94 0 .533.425.927 1.01.927h-.001Z"/></g><defs><clipPath id="axa"><path transform="translate(0 .5)" d="M0 0h16v16H0z"/></clipPath></defs></symbol><symbol viewBox="0 0 16 16" id="search" xmlns="http://www.w3.org/2000/svg"><g clip-path="url(#aya)" fill-rule="evenodd" clip-rule="evenodd"><path d="M10.852 10.854a.75.75 0 0 1 1.061 0l3.692 3.693a.75.75 0 0 1-1.06 1.06l-3.693-3.692a.75.75 0 0 1 0-1.06Z"/><path d="M6.768 1.673a5.096 5.096 0 1 0 0 10.192 5.096 5.096 0 0 0 0-10.192ZM.172 6.77a6.596 6.596 0 1 1 13.192 0 6.596 6.596 0 0 1-13.192 0Z"/></g><defs><clipPath id="aya"><path d="M0 0h16v16H0z"/></clipPath></defs></symbol><symbol viewBox="0 0 16 16" id="star" xmlns="http://www.w3.org/2000/svg"><g clip-path="url(#baa)"><path d="M3.581 15.364a.85.85 0 0 1-.829-1.04l1.03-4.534L.29 6.728A.85.85 0 0 1 .773 5.24l4.619-.419L7.218.548A.85.85 0 0 1 8.782.547l1.826 4.274 4.618.42a.85.85 0 0 1 .483 1.487L12.22 9.79l1.029 4.534a.85.85 0 0 1-1.265.919L8 12.862l-3.983 2.381a.852.852 0 0 1-.436.121ZM8 11.836c.151 0 .301.041.436.121l3.759 2.248-.972-4.28a.85.85 0 0 1 .27-.828l3.296-2.89-4.361-.397a.85.85 0 0 1-.707-.515L8 1.262 6.277 5.296a.847.847 0 0 1-.705.513l-4.362.396 3.296 2.89c.237.207.34.525.27.83l-.97 4.28 3.758-2.248a.853.853 0 0 1 .436-.12ZM5.357 4.904l-.001.001v-.001Zm5.285-.002v.001-.001Z"/></g><defs><clipPath id="baa"><path d="M0 0h16v16H0z"/></clipPath></defs></symbol><symbol viewBox="0 0 16 16" id="star-filled" xmlns="http://www.w3.org/2000/svg"><g clip-path="url(#aza)"><path d="M15.958 5.824a.85.85 0 0 0-.731-.584l-4.619-.419L8.783.548a.85.85 0 0 0-1.565 0L5.393 4.82l-4.62.42A.852.852 0 0 0 .29 6.727L3.78 9.79l-1.03 4.534a.85.85 0 0 0 1.266.92L8 12.861l3.982 2.381a.85.85 0 0 0 1.266-.92l-1.03-4.533 3.492-3.062a.852.852 0 0 0 .248-.904Z"/></g><defs><clipPath id="aza"><path d="M0 0h16v16H0z"/></clipPath></defs></symbol><symbol viewBox="0 0 54 54" id="subscribe" xmlns="http://www.w3.org/2000/svg"><path d="M51.52 14.373H19.391a2.485 2.485 0 0 0-2.482 2.482v20.29a2.485 2.485 0 0 0 2.482 2.483h32.127a2.485 2.485 0 0 0 2.482-2.482v-20.29a2.485 2.485 0 0 0-2.482-2.483Zm-32.128 1.582h32.127a.9.9 0 0 1 .834.563L38.477 27.261a4.936 4.936 0 0 1-6.043 0L18.558 16.518a.9.9 0 0 1 .834-.563Zm33.027 19.578-8.87-6.867a.791.791 0 0 0-.969 1.25l9.773 7.567a.9.9 0 0 1-.834.563H19.392a.9.9 0 0 1-.834-.563l9.773-7.566a.791.791 0 1 0-.969-1.251l-8.87 6.867V18.468l12.973 10.044a6.508 6.508 0 0 0 3.99 1.364 6.508 6.508 0 0 0 3.99-1.364L52.42 18.468v17.065ZM14.32 28.746H4.173a.791.791 0 0 0 0 1.582h10.145a.791.791 0 0 0 0-1.582ZM14.318 32.973H.791a.791.791 0 1 0 0 1.582h13.527a.791.791 0 0 0 0-1.582ZM14.316 24.519H7.553a.791.791 0 1 0 0 1.582h6.763a.791.791 0 1 0 0-1.582ZM14.317 20.291h-3.382a.791.791 0 0 0 0 1.582h3.382a.79.79 0 1 0 0-1.582Z"/></symbol><symbol viewBox="0 0 18 19" id="telegram" xmlns="http://www.w3.org/2000/svg"><path d="M17.947 3.16 15.23 15.967c-.205.904-.74 1.13-1.499.704l-4.138-3.05-1.997 1.92c-.221.222-.406.406-.832.406l.298-4.214 7.67-6.93c.333-.298-.073-.463-.519-.165l-9.482 5.97L.65 9.333c-.888-.278-.904-.888.185-1.314l15.967-6.152c.74-.277 1.386.164 1.145 1.293Z"/></symbol><symbol viewBox="0 0 16 16" id="thumbs-down" xmlns="http://www.w3.org/2000/svg"><g clip-path="url(#bda)"><path d="M14.833.667h-1.666C12.523.667 12 1.19 12 1.833V9.5c0 .643.523 1.167 1.167 1.167h1.666c.644 0 1.167-.524 1.167-1.167V1.833c0-.643-.523-1.166-1.167-1.166ZM3.413.5c-1.3 0-2.407.933-2.627 2.213L.039 7.047a2.665 2.665 0 0 0 2.627 3.12h3.147s-.5 1-.5 2.666c0 2 1.5 2.667 2.166 2.667.667 0 1-.333 1-2 0-1.584 1.534-2.859 2.52-3.515V1.726C9.934 1.232 7.797.5 4.48.5H3.413Z"/></g><defs><clipPath id="bda"><path d="M0 0h16v16H0z"/></clipPath></defs></symbol><symbol viewBox="0 0 16 16" id="thumbs-up" xmlns="http://www.w3.org/2000/svg"><g clip-path="url(#bea)"><path d="M13.681 5.22H9.877c.267-.466.4-1 .467-1.6.267-1.536-.934-2.87-2.47-2.87h-.4c-.266 0-.533.266-.533.533v1.602a3.64 3.64 0 0 1-1.802 3.137v8.342l.534.4c.4.267.867.468 1.334.468h5.873c1.135 0 2.069-.801 2.202-1.87l.868-5.538c.267-1.335-.667-2.603-2.269-2.603ZM1.001 14.764h1.735c.534 0 1.001-.467 1.001-1V6.955c0-.534-.467-1.001-1-1.001H1C.467 5.955 0 6.422 0 6.956v6.807c0 .534.467 1.001 1.001 1.001Z"/></g><defs><clipPath id="bea"><path d="M0 0h16v16H0z"/></clipPath></defs></symbol><symbol viewBox="0 0 16 17" id="tiktok" xmlns="http://www.w3.org/2000/svg"><g clip-path="url(#bfa)"><path d="M12.883 4.208c-.102-.052-.2-.11-.296-.172a4.15 4.15 0 0 1-.758-.644 3.571 3.571 0 0 1-.854-1.763h.002C10.912 1.247 10.94 1 10.944 1H8.367v9.962c0 .133 0 .266-.005.397l-.003.048c0 .007 0 .015-.002.022v.006a2.187 2.187 0 0 1-1.1 1.736 2.15 2.15 0 0 1-1.066.282 2.18 2.18 0 0 1-2.174-2.188 2.18 2.18 0 0 1 2.174-2.188c.227 0 .453.036.669.107l.003-2.624a4.785 4.785 0 0 0-3.688 1.08A5.055 5.055 0 0 0 2.072 9c-.109.187-.52.941-.569 2.164-.031.693.178 1.413.277 1.71v.007c.062.174.305.772.7 1.275.317.404.693.759 1.115 1.053v-.006l.006.006c1.247.847 2.63.792 2.63.792.24-.01 1.042 0 1.952-.432 1.01-.478 1.585-1.191 1.585-1.191.367-.426.66-.911.864-1.435a5.37 5.37 0 0 0 .31-1.642V6.015c.032.019.448.294.448.294s.6.385 1.536.635c.67.178 1.575.216 1.575.216V4.602c-.316.035-.96-.065-1.62-.393l.002-.001Z"/></g><defs><clipPath id="bfa"><path transform="translate(0 .5)" d="M0 0h16v16H0z"/></clipPath></defs></symbol><symbol viewBox="0 0 18 18" id="trash" xmlns="http://www.w3.org/2000/svg"><g clip-path="url(#bga)"><path d="M12.365 17.973H5.632a2.674 2.674 0 0 1-2.63-2.508L2.204 3.332a.666.666 0 0 1 .394-.642.675.675 0 0 1 .263-.06h12.274a.657.657 0 0 1 .658.702l-.763 12.133a2.674 2.674 0 0 1-2.665 2.508ZM3.598 3.945l.675 11.441a1.359 1.359 0 0 0 1.359 1.271h6.733a1.368 1.368 0 0 0 1.359-1.27l.71-11.398-10.836-.044Z"/><path d="M16.89 3.945H1.109a.658.658 0 0 1 0-1.315h15.78a.658.658 0 1 1 0 1.315Z"/><path d="M11.629 3.945h-5.26a.666.666 0 0 1-.658-.657V1.71A1.753 1.753 0 0 1 7.42 0h3.156a1.753 1.753 0 0 1 1.71 1.753v1.535a.667.667 0 0 1-.658.657ZM7.026 2.63h3.945v-.877a.395.395 0 0 0-.394-.394H7.42a.395.395 0 0 0-.395.394v.877ZM7.658 14.466A.667.667 0 0 1 7 13.808V6.795a.658.658 0 0 1 1.315 0v7.013a.667.667 0 0 1-.657.658ZM10.288 14.466a.667.667 0 0 1-.657-.658V6.795a.658.658 0 0 1 1.315 0v7.013a.666.666 0 0 1-.658.658Z"/></g><defs><clipPath id="bga"><path d="M0 0h18v18H0z"/></clipPath></defs></symbol><symbol viewBox="0 0 6 9" id="triangle-arrow" xmlns="http://www.w3.org/2000/svg"><g clip-path="url(#bha)"><path d="M2.753 8.12a.3.3 0 0 0 .493 0l2.7-3.9a.3.3 0 0 0-.246-.47H.3a.3.3 0 0 0-.247.47l2.7 3.9Z"/></g><defs><clipPath id="bha"><path transform="translate(0 .5)" d="M0 0h6v8H0z"/></clipPath></defs></symbol><symbol viewBox="0 0 16 17" id="vk" xmlns="http://www.w3.org/2000/svg"><g clip-path="url(#bia)"><path d="M10.456.5H5.545C1.063.5 0 1.563 0 6.045v4.911C0 15.438 1.063 16.5 5.545 16.5h4.911c4.482 0 5.544-1.062 5.544-5.544V6.045C16 1.563 14.928.5 10.456.5Zm2.461 11.414h-1.162c-.44 0-.575-.349-1.367-1.151-.687-.666-.992-.755-1.161-.755-.24 0-.308.068-.308.396v1.05c0 .281-.088.45-.833.45-1.232 0-2.599-.745-3.558-2.133-1.445-2.034-1.84-3.558-1.84-3.873 0-.169.067-.327.392-.327h1.165c.294 0 .406.135.52.45.576 1.662 1.535 3.117 1.93 3.117.146 0 .213-.068.213-.44V6.982c-.044-.792-.46-.86-.46-1.14 0-.136.111-.271.291-.271h1.83c.248 0 .339.135.339.426v2.316c0 .25.112.338.18.338.146 0 .27-.088.541-.36.836-.937 1.435-2.383 1.435-2.383a.513.513 0 0 1 .508-.328h1.164c.349 0 .427.18.349.43-.146.677-1.57 2.688-1.57 2.688-.123.202-.17.291 0 .518.124.169.531.52.801.836.498.565.88 1.039.982 1.367.115.325-.054.495-.383.495h.002Z"/></g><defs><clipPath id="bia"><path transform="translate(0 .5)" d="M0 0h16v16H0z"/></clipPath></defs></symbol><symbol viewBox="0 0 18 19" id="youtube" xmlns="http://www.w3.org/2000/svg"><path d="M17.623 5.254a2.167 2.167 0 0 0-.574-.982 2.27 2.27 0 0 0-1.004-.573c-1.408-.383-7.05-.383-7.05-.383a55.763 55.763 0 0 0-7.042.364c-.376.107-.72.309-1.003.587a2.252 2.252 0 0 0-.584.986A23.158 23.158 0 0 0 0 9.5a23.115 23.115 0 0 0 .366 4.247c.103.37.303.708.582.98.278.273.624.47 1.005.575 1.427.382 7.042.382 7.042.382 2.355.027 4.71-.094 7.05-.364a2.27 2.27 0 0 0 1.004-.573 2.16 2.16 0 0 0 .573-.982c.26-1.4.385-2.822.376-4.247.02-1.431-.106-2.86-.375-4.265v.001ZM7.201 12.147V6.854l4.694 2.647-4.694 2.646Z"/></symbol></svg>