<svg width="101" height="101" fill="none" xmlns="http://www.w3.org/2000/svg"><path d="M43.54 55.44l.353.355.354-.355 18.052-18.094.001-.001a3.708 3.708 0 015.228 0v.001a3.709 3.709 0 010 5.266l-.001.002-21.04 21.04h-.001a3.708 3.708 0 01-2.595 1.075h-.001a3.708 3.708 0 01-2.632-1.074v-.001l-9.888-9.93-.014-.014-.015-.013a3.706 3.706 0 01-.21-5.439 3.708 3.708 0 015.438.21l.013.015.014.014 6.943 6.944zM27.397 15.926a41.584 41.584 0 1146.205 69.151 41.584 41.584 0 01-46.205-69.151zm4.12 62.984a34.167 34.167 0 1037.965-56.82 34.167 34.167 0 00-37.964 56.82z" fill="#27AE60" stroke="#27AE60"/></svg>