<svg width="32" height="32" fill="none" xmlns="http://www.w3.org/2000/svg"><path d="M16.005 2c-5.845 0-7.555.006-7.887.034-1.2.1-1.946.288-2.759.693A5.589 5.589 0 003.75 3.905c-.888.922-1.426 2.057-1.621 3.406-.095.655-.122.788-.128 4.133-.002 1.115 0 2.582 0 4.55 0 5.842.006 7.55.034 7.882.097 1.168.28 1.902.668 2.706a5.898 5.898 0 003.822 3.123c.577.149 1.215.23 2.033.27.347.014 3.88.025 7.417.025 3.536 0 7.072-.004 7.41-.021.947-.045 1.497-.119 2.106-.276a5.862 5.862 0 003.822-3.13c.38-.784.573-1.547.66-2.653.019-.241.027-4.088.027-7.93 0-3.841-.009-7.68-.028-7.922-.088-1.124-.28-1.88-.673-2.68a5.553 5.553 0 00-1.198-1.642c-.927-.884-2.06-1.423-3.409-1.618-.654-.094-.784-.122-4.13-.128h-4.557z" fill="url(#paint0_radial)"/><path d="M16.005 2c-5.845 0-7.555.006-7.887.034-1.2.1-1.946.288-2.759.693A5.589 5.589 0 003.75 3.905c-.888.922-1.426 2.057-1.621 3.406-.095.655-.122.788-.128 4.133-.002 1.115 0 2.582 0 4.55 0 5.842.006 7.55.034 7.882.097 1.168.28 1.902.668 2.706a5.898 5.898 0 003.822 3.123c.577.149 1.215.23 2.033.27.347.014 3.88.025 7.417.025 3.536 0 7.072-.004 7.41-.021.947-.045 1.497-.119 2.106-.276a5.862 5.862 0 003.822-3.13c.38-.784.573-1.547.66-2.653.019-.241.027-4.088.027-7.93 0-3.841-.009-7.68-.028-7.922-.088-1.124-.28-1.88-.673-2.68a5.553 5.553 0 00-1.198-1.642c-.927-.884-2.06-1.423-3.409-1.618-.654-.094-.784-.122-4.13-.128h-4.557z" fill="url(#paint1_radial)"/><path d="M16 6c-2.715 0-3.056.012-4.122.06-1.065.05-1.792.218-2.428.465a4.897 4.897 0 00-1.77 1.153A4.909 4.909 0 006.525 9.45c-.248.636-.417 1.363-.465 2.428C6.013 12.943 6 13.284 6 16s.012 3.056.06 4.122c.05 1.065.218 1.791.465 2.427a4.9 4.9 0 001.153 1.772 4.896 4.896 0 001.771 1.154c.636.247 1.363.416 2.428.465 1.066.048 1.407.06 4.123.06s3.056-.012 4.122-.06c1.065-.05 1.792-.218 2.429-.465a4.892 4.892 0 001.77-1.154 4.909 4.909 0 001.154-1.771c.246-.637.415-1.363.465-2.428.047-1.066.06-1.406.06-4.122s-.012-3.057-.06-4.123c-.05-1.065-.22-1.792-.465-2.427a4.908 4.908 0 00-1.154-1.772 4.887 4.887 0 00-1.771-1.153c-.637-.247-1.365-.416-2.43-.465-1.066-.048-1.405-.06-4.122-.06H16zm-.896 1.802H16c2.67 0 2.986.01 4.04.058.976.044 1.505.207 1.857.344.467.181.8.398 1.15.748.35.35.566.683.748 1.15.137.352.3.881.344 1.856.048 1.054.059 1.371.059 4.04 0 2.668-.01 2.985-.059 4.04-.044.974-.207 1.503-.344 1.855a3.091 3.091 0 01-.748 1.15 3.09 3.09 0 01-1.15.747c-.352.138-.881.3-1.856.345-1.054.048-1.371.058-4.041.058-2.67 0-2.987-.01-4.04-.058-.976-.045-1.505-.208-1.858-.345a3.098 3.098 0 01-1.15-.748 3.1 3.1 0 01-.748-1.15c-.137-.351-.3-.88-.345-1.855-.047-1.055-.057-1.371-.057-4.042 0-2.67.01-2.985.057-4.04.045-.974.208-1.504.345-1.856.181-.467.398-.8.748-1.15a3.1 3.1 0 011.15-.748c.353-.138.882-.3 1.857-.345.923-.042 1.28-.054 3.144-.056v.002zm6.235 1.66a1.2 1.2 0 100 2.401 1.2 1.2 0 000-2.4zM16 10.866a5.136 5.136 0 100 10.27 5.136 5.136 0 000-10.27zm0 1.802a3.333 3.333 0 110 6.666 3.333 3.333 0 010-6.666z" fill="#fff"/><defs><radialGradient id="paint0_radial" cx="0" cy="0" r="1" gradientUnits="userSpaceOnUse" gradientTransform="matrix(0 -27.7501 25.8097 0 9.438 32.157)"><stop stop-color="#FD5"/><stop offset=".1" stop-color="#FD5"/><stop offset=".5" stop-color="#FF543E"/><stop offset="1" stop-color="#C837AB"/></radialGradient><radialGradient id="paint1_radial" cx="0" cy="0" r="1" gradientUnits="userSpaceOnUse" gradientTransform="matrix(2.43471 12.16311 -50.1368 10.03598 -2.69 4.017)"><stop stop-color="#3771C8"/><stop offset=".128" stop-color="#3771C8"/><stop offset="1" stop-color="#60F" stop-opacity="0"/></radialGradient></defs></svg>