<svg width="239" height="41" fill="none" xmlns="http://www.w3.org/2000/svg"><path d="M0 38h10.23L29.473 9.314l1.288-7.941H3.577l-1.288 7.94h16.883l-.072.215L0 38z" fill="url(#paint0_linear)"/><path d="M40.173 38.5c8.96 0 15.685-5.436 16.883-13.09 1.163-6.94-2.843-11.876-9.371-11.876-3.702 0-6.993 1.646-8.513 3.863h-.215l2.075-8.083h16.453l1.288-7.941H34.164l-4.793 20.174 8.442 1.716c1.162-1.788 3.237-2.861 5.365-2.861 3.022 0 4.81 2.074 4.292 5.294-.554 3.219-2.986 5.293-6.08 5.293-2.63 0-4.49-1.645-4.15-4.149h-9.657c-1.055 6.796 4.167 11.66 12.59 11.66z" fill="url(#paint1_linear)"/><path d="M72.057 39.002c9.944 0 17.312-7.154 19.315-19.244C93.375 7.65 88.296.872 78.352.872c-9.943 0-17.24 6.796-19.315 18.886-2.074 12.072 3.005 19.244 13.02 19.244zm1.36-8.084c-3.434 0-5.366-3.434-4.078-11.16 1.252-7.511 4.292-10.874 7.726-10.874s5.294 3.363 4.006 10.874c-1.323 7.708-4.22 11.16-7.654 11.16z" fill="url(#paint2_linear)"/><path d="M109.154 18h3.793l-5.158-15.169h-4.421L98.211 18h3.792l.759-2.384h5.634l.758 2.384zm-5.352-5.634l1.777-5.57 1.777 5.57h-3.554zm19.734-2.232c.824-.715 1.322-1.712 1.322-2.969 0-2.622-2.145-4.334-4.789-4.334h-5.937V18h6.371c2.708 0 4.897-1.755 4.897-4.442 0-1.539-.737-2.71-1.864-3.424zm-3.467-4.053c.802 0 1.322.564 1.322 1.344 0 .78-.542 1.344-1.322 1.344h-2.47V6.08h2.47zm.434 8.668h-2.904v-2.903h2.904c.866 0 1.43.606 1.43 1.452 0 .845-.564 1.451-1.43 1.451zm16.275-11.918H125.51v3.337h3.901V18h3.467V6.168h3.9V2.831zm7.78 15.472c4.356 0 7.888-3.424 7.888-7.888s-3.532-7.887-7.888-7.887-7.888 3.423-7.888 7.887c0 4.465 3.532 7.888 7.888 7.888zm0-3.38c-2.47 0-4.421-1.799-4.421-4.508 0-2.708 1.951-4.507 4.421-4.507s4.421 1.799 4.421 4.507c0 2.71-1.951 4.508-4.421 4.508zm24.901-12.092h-3.468l-4.117 6.74-4.117-6.74h-3.467V18h3.467V9.18l3.922 6.436h.39l3.922-6.436V18h3.468V2.831zM181.601 18h3.792l-5.158-15.169h-4.42L170.657 18h3.793l.758-2.384h5.634l.759 2.384zm-5.353-5.634l1.777-5.57 1.777 5.57h-3.554zm19.436-9.535h-11.269v3.337h3.901V18h3.467V6.168h3.901V2.831zM205.544 18h3.468V2.831h-2.601l-5.851 8.235V2.83h-3.467V18h2.6l5.851-8.235V18zm18.223 0l-5.331-7.78 5.114-7.389h-3.944l-4.637 6.588V2.83h-3.467V18h3.467v-7.021L219.823 18h3.944zm11.258 0h3.792L233.66 2.831h-4.421L224.081 18h3.793l.758-2.384h5.634l.759 2.384zm-5.353-5.634l1.777-5.57 1.777 5.57h-3.554zM111.43 34.663V22.83h-10.164v6.804c0 2.58-.498 4.031-1.191 5.028h-1.539v6.24h3.467V38h7.585v2.904h3.467v-6.241h-1.625zm-7.672 0c.542-.975.976-2.492.976-4.984V26.08h3.228v8.582h-4.204zM113.916 38c2.795.303 5.981-.737 5.981-6.154v-5.678h3.554V38h3.467V22.831h-10.489v9.145c0 2.535-.953 3.012-2.513 2.773V38zm26.435-15.169h-6.067a5.189 5.189 0 00-5.201 5.2c0 1.973 1.279 3.771 3.121 4.552L128.65 38h3.9l3.229-4.984h1.105V38h3.467V22.831zm-6.067 7.151c-.954 0-1.734-.845-1.734-1.95s.78-1.95 1.734-1.95h2.6v3.9h-2.6zm23.273.152c.824-.715 1.322-1.712 1.322-2.969 0-2.622-2.145-4.334-4.789-4.334h-5.937V38h6.371c2.708 0 4.897-1.755 4.897-4.442 0-1.539-.737-2.71-1.864-3.424zm-3.467-4.053c.802 0 1.322.564 1.322 1.344 0 .78-.542 1.343-1.322 1.343h-2.47v-2.687h2.47zm.434 8.668h-2.904v-2.903h2.904c.866 0 1.43.607 1.43 1.452s-.564 1.451-1.43 1.451zm13.752 3.554c4.355 0 7.888-3.423 7.888-7.887 0-4.465-3.533-7.888-7.888-7.888-4.356 0-7.888 3.423-7.888 7.888 0 4.463 3.532 7.887 7.888 7.887zm0-3.38c-2.471 0-4.421-1.799-4.421-4.508 0-2.708 1.95-4.507 4.421-4.507 2.47 0 4.42 1.799 4.42 4.508 0 2.708-1.95 4.507-4.42 4.507zm15.474-12.092h-5.743V38h3.468v-4.767h2.275c2.99 0 5.309-2.32 5.309-5.201 0-2.882-2.319-5.201-5.309-5.201zm0 7.151h-2.275v-3.9h2.275c1.062 0 1.842.845 1.842 1.95s-.78 1.95-1.842 1.95zm14.063 8.321c4.356 0 7.888-3.423 7.888-7.887 0-4.465-3.532-7.888-7.888-7.888s-7.888 3.423-7.888 7.888c0 4.463 3.532 7.887 7.888 7.887zm0-3.38c-2.471 0-4.421-1.799-4.421-4.508 0-2.708 1.95-4.507 4.421-4.507 2.47 0 4.421 1.799 4.421 4.508 0 2.708-1.951 4.507-4.421 4.507zm19.049-12.092h-11.269v3.337h3.901V38h3.467V26.168h3.901v-3.337z" fill="#2A2B2E"/><defs><linearGradient id="paint0_linear" x1="47.211" y1="-14" x2="47.211" y2="53.053" gradientUnits="userSpaceOnUse"><stop stop-color="#FFCC4A"/><stop offset="1" stop-color="#ECAA00"/></linearGradient><linearGradient id="paint1_linear" x1="47.211" y1="-14" x2="47.211" y2="53.053" gradientUnits="userSpaceOnUse"><stop stop-color="#FFCC4A"/><stop offset="1" stop-color="#ECAA00"/></linearGradient><linearGradient id="paint2_linear" x1="47.211" y1="-14" x2="47.211" y2="53.053" gradientUnits="userSpaceOnUse"><stop stop-color="#FFCC4A"/><stop offset="1" stop-color="#ECAA00"/></linearGradient></defs></svg>