<svg width="1270" height="178" fill="none" xmlns="http://www.w3.org/2000/svg"><g clip-path="url(#clip0)" stroke-width="25" stroke-miterlimit="10"><path d="M164.222 164.888v-110c0-20.37-20.296-42-41.555-42H89.222" stroke="#EE7038" stroke-linecap="square"/><path d="M14.222 164.888v-110c0-20.37 20.297-42 41.556-42h33.444m-26 102h100" stroke="#EE7038" stroke-linecap="square"/><path d="M267.222 12.888h107.445c21.259 0 38.219 21.904 41.555 42 .703 4.231.773 13.185 0 18-3.228 20.113-20.296 42-41.555 42H267.222m-1-102v152m200-152v152m148 0h-148m197-152v152m50-152h148m-74 152v-151m123-1v152m34-76h-32" stroke="#737879" stroke-linecap="square"/><path d="M1071.33 195.777L944.223 88.888 1065.55-12.6" stroke="#737879" stroke-linejoin="bevel"/><path d="M1256.22 164.888v-110c0-20.37-20.29-42-41.55-42h-33.45m-75 152v-110c0-20.37 20.3-42 41.56-42h33.44m-26 102h100" stroke="#737879" stroke-linecap="square"/></g><defs><clipPath id="clip0"><path fill="#fff" d="M0 0h1269.37v177.11H0z"/></clipPath></defs></svg>