<svg width="176" height="176" fill="none" xmlns="http://www.w3.org/2000/svg"><circle cx="88" cy="88" r="88" fill="#FFF9E7"/><path d="M34.563 158.156A168.175 168.175 0 0015.526 166a184.175 184.175 0 012.345-11.446l.114-.479-.43-.238A178.64 178.64 0 007 148.444c4.39-2.134 8.9-4.1 13.427-5.877l4.094 10.614.002.004c.823 2.093 4.556 2.044 7.821.915 2.415-.84 4.462-.716 5.42-.223.337.173.545.386.618.634v.001c.373 1.254-1.196 2.752-3.819 3.644zm3.22-5.618c-1.505-.52-3.657-.427-5.86.337-3.18 1.102-5.819.798-6.2-.164v-.002c-.13-.331-.103-.702.08-1.103.478-1.05 1.92-2.084 3.856-2.768a174.14 174.14 0 016.365-2.088l1.759 5.788zm-8.552-4.922c-2.053.725-3.564 1.765-4.33 2.962l-6.67-17.289c-.112-.288-.083-.621.083-.988.522-1.144 2.196-2.309 4.48-3.116 42.371-14.913 89.042-14.913 131.411 0 2.283.806 3.958 1.971 4.48 3.115.168.368.195.701.082.992l-6.667 17.285c-.768-1.197-2.279-2.236-4.331-2.961-38.219-13.453-80.316-13.451-118.538 0zm118.11 1.222c1.937.684 3.378 1.718 3.856 2.768.183.402.21.773.081 1.103l-.001.001c-.379.962-3.018 1.266-6.2.166-2.174-.756-4.339-.892-5.842-.394l1.741-5.732c2.132.66 4.256 1.345 6.365 2.088zm12.104 4.999l-.43.238.115.479c.903 3.794 1.69 7.637 2.343 11.446a167.966 167.966 0 00-19.037-7.844c-2.623-.892-4.193-2.391-3.817-3.646.073-.246.28-.459.617-.633.961-.492 3.006-.617 5.42.223 3.263 1.129 6.999 1.177 7.821-.916l.001-.003h.001l4.094-10.614A187.622 187.622 0 01170 148.444a178.12 178.12 0 00-10.555 5.393z" fill="#27AE60"/><path d="M82.785 18.707a9 9 0 0110.43 0l1.392.99a8.999 8.999 0 007.907 1.252l1.63-.51a9 9 0 019.919 3.222l1.018 1.371a9 9 0 007.134 3.635l1.708.018a9 9 0 018.437 6.13l.545 1.619a8.997 8.997 0 005.661 5.661l1.619.545a8.999 8.999 0 016.13 8.437l.018 1.708a9.002 9.002 0 003.634 7.134l1.372 1.018a9 9 0 013.223 9.919l-.511 1.63a9 9 0 001.252 7.907l.99 1.392a9.002 9.002 0 010 10.43l-.99 1.392a8.999 8.999 0 00-1.252 7.907l.511 1.63a9 9 0 01-3.223 9.919l-1.372 1.018a9.002 9.002 0 00-3.634 7.134l-.018 1.708a8.998 8.998 0 01-6.13 8.437l-1.619.545a8.995 8.995 0 00-5.661 5.661l-.545 1.619a8.998 8.998 0 01-8.437 6.13l-1.708.018a9.002 9.002 0 00-7.134 3.634l-1.018 1.372a9 9 0 01-9.919 3.223l-1.63-.511a8.999 8.999 0 00-7.907 1.252l-1.392.99a9.002 9.002 0 01-10.43 0l-1.392-.99a9 9 0 00-7.907-1.252l-1.63.511a9 9 0 01-9.92-3.223l-1.017-1.372a9.002 9.002 0 00-7.134-3.634l-1.708-.018a8.999 8.999 0 01-8.437-6.13l-.545-1.619a8.997 8.997 0 00-5.661-5.661l-1.619-.545a9 9 0 01-6.13-8.437l-.018-1.708a9 9 0 00-3.635-7.134l-1.37-1.018a9 9 0 01-3.224-9.919l.511-1.63a8.999 8.999 0 00-1.252-7.907l-.99-1.392a9 9 0 010-10.43l.99-1.392a9 9 0 001.252-7.907l-.51-1.63a9 9 0 013.222-9.92l1.371-1.017a9 9 0 003.635-7.134l.018-1.708a9 9 0 016.13-8.437l1.619-.545a9 9 0 005.661-5.661l.545-1.619a9 9 0 018.437-6.13l1.708-.018a9 9 0 007.134-3.635l1.018-1.37a9 9 0 019.919-3.224l1.63.511a9 9 0 007.907-1.252l1.392-.99z" fill="#F8CB2D"/><g filter="url(#filter0_b)"><path d="M82.636 26.813a9.257 9.257 0 0110.728 0 9.257 9.257 0 008.133 1.289 9.258 9.258 0 0110.203 3.314 9.256 9.256 0 007.337 3.74 9.256 9.256 0 018.679 6.305 9.259 9.259 0 005.823 5.823 9.258 9.258 0 016.306 8.678 9.258 9.258 0 003.738 7.338 9.257 9.257 0 013.315 10.203 9.26 9.26 0 001.289 8.133 9.257 9.257 0 010 10.728 9.259 9.259 0 00-1.289 8.133 9.257 9.257 0 01-3.315 10.203 9.257 9.257 0 00-3.738 7.337 9.257 9.257 0 01-6.306 8.679 9.26 9.26 0 00-5.823 5.823 9.257 9.257 0 01-8.679 6.306 9.257 9.257 0 00-7.337 3.738 9.257 9.257 0 01-10.203 3.315 9.259 9.259 0 00-8.133 1.289 9.257 9.257 0 01-10.728 0 9.26 9.26 0 00-8.133-1.289 9.257 9.257 0 01-10.203-3.315 9.258 9.258 0 00-7.337-3.738 9.258 9.258 0 01-8.68-6.306 9.259 9.259 0 00-5.822-5.823 9.256 9.256 0 01-6.306-8.679 9.256 9.256 0 00-3.739-7.337 9.258 9.258 0 01-3.314-10.203 9.257 9.257 0 00-1.289-8.133 9.257 9.257 0 010-10.728 9.258 9.258 0 001.289-8.133A9.257 9.257 0 0132.416 63.3a9.257 9.257 0 003.74-7.337 9.257 9.257 0 016.305-8.68 9.257 9.257 0 005.823-5.822 9.257 9.257 0 018.678-6.306 9.257 9.257 0 007.338-3.739 9.257 9.257 0 0110.203-3.314 9.258 9.258 0 008.133-1.289z" fill="#fff" fill-opacity=".4"/></g><g filter="url(#filter1_b)"><path d="M83.39 35.277a7.955 7.955 0 019.22 0 7.955 7.955 0 006.99 1.107 7.955 7.955 0 018.767 2.849 7.956 7.956 0 006.306 3.213 7.954 7.954 0 017.458 5.419 7.956 7.956 0 005.004 5.004 7.955 7.955 0 015.419 7.458 7.958 7.958 0 003.213 6.306 7.955 7.955 0 012.849 8.768 7.955 7.955 0 001.107 6.99 7.955 7.955 0 010 9.218 7.955 7.955 0 00-1.107 6.99 7.955 7.955 0 01-2.849 8.768 7.959 7.959 0 00-3.213 6.306 7.954 7.954 0 01-5.419 7.458 7.957 7.957 0 00-5.004 5.004 7.954 7.954 0 01-7.458 5.419 7.959 7.959 0 00-6.306 3.213 7.955 7.955 0 01-8.768 2.849 7.955 7.955 0 00-6.99 1.107 7.955 7.955 0 01-9.218 0 7.955 7.955 0 00-6.99-1.107 7.955 7.955 0 01-8.768-2.849 7.958 7.958 0 00-6.306-3.213 7.955 7.955 0 01-7.458-5.419 7.956 7.956 0 00-5.004-5.004 7.954 7.954 0 01-5.42-7.458 7.956 7.956 0 00-3.212-6.306 7.955 7.955 0 01-2.849-8.768 7.955 7.955 0 00-1.107-6.99 7.955 7.955 0 010-9.218 7.955 7.955 0 001.107-6.99 7.955 7.955 0 012.849-8.768 7.955 7.955 0 003.213-6.306 7.955 7.955 0 015.419-7.458 7.955 7.955 0 005.004-5.004 7.955 7.955 0 017.458-5.42 7.955 7.955 0 006.306-3.212 7.955 7.955 0 018.768-2.849 7.955 7.955 0 006.99-1.107z" fill="#fff" fill-opacity=".4"/></g><path d="M65.244 68.364h-3.902L56.48 71.44v3.682l4.496-2.819h.116V88h4.151V68.364zM77.34 88.43c4.938 0 7.92-3.758 7.93-10.23.01-6.424-3.01-10.106-7.93-10.106-4.928 0-7.92 3.672-7.929 10.106-.02 6.453 2.982 10.22 7.93 10.23zm0-3.442c-2.253 0-3.71-2.262-3.7-6.788.009-4.458 1.457-6.702 3.7-6.702 2.234 0 3.692 2.244 3.692 6.702.01 4.526-1.448 6.788-3.692 6.788zm18.32 3.442c4.937 0 7.919-3.758 7.929-10.23.009-6.424-3.011-10.106-7.93-10.106-4.928 0-7.92 3.672-7.93 10.106-.018 6.453 2.983 10.22 7.93 10.23zm0-3.442c-2.254 0-3.711-2.262-3.702-6.788.01-4.458 1.458-6.702 3.701-6.702 2.234 0 3.692 2.244 3.692 6.702.01 4.526-1.448 6.788-3.692 6.788zm21.367-.67c.01 2.358 1.515 4.362 4.324 4.362 2.781 0 4.334-2.004 4.325-4.363v-1.035c.009-2.378-1.506-4.363-4.325-4.363-2.771 0-4.314 2.004-4.324 4.363v1.035zM106.95 73.08c.01 2.359 1.515 4.343 4.315 4.343 2.79 0 4.343-1.965 4.334-4.343v-1.035c.009-2.378-1.506-4.363-4.334-4.363-2.742 0-4.305 1.985-4.315 4.362v1.036zm.94 14.92h2.502l13.5-19.636h-2.502L107.89 88zm11.927-4.717c.01-.94.384-1.908 1.534-1.908 1.208 0 1.525.968 1.515 1.908v1.035c.01.94-.345 1.889-1.515 1.889-1.169 0-1.524-.978-1.534-1.889v-1.035zm-10.058-11.237c.01-.911.365-1.909 1.506-1.909 1.208 0 1.534.969 1.524 1.909v1.035c.01.94-.355 1.889-1.524 1.889-1.132 0-1.496-.95-1.506-1.889v-1.035zM59.879 100h3.728c1.96 0 3.005-1.023 3.005-2.412 0-1.291-.925-2.071-1.918-2.118v-.085c.908-.205 1.577-.848 1.577-1.875 0-1.308-.972-2.237-2.898-2.237h-3.494V100zm1.845-1.508v-2.319h1.547c.886 0 1.436.512 1.436 1.232 0 .656-.448 1.087-1.479 1.087h-1.504zm0-3.567v-2.16h1.402c.818 0 1.282.421 1.282 1.052 0 .69-.562 1.108-1.316 1.108h-1.368zm15.428.711c0-2.855-1.773-4.483-4.087-4.483-2.326 0-4.086 1.628-4.086 4.483 0 2.843 1.76 4.483 4.086 4.483 2.314 0 4.087-1.627 4.087-4.483zm-1.87 0c0 1.85-.879 2.851-2.217 2.851-1.342 0-2.215-1.001-2.215-2.85 0-1.85.873-2.852 2.215-2.852 1.338 0 2.216 1.002 2.216 2.851zm7.732 4.483c1.96 0 3.362-1.078 3.358-2.57.004-1.086-.686-1.862-1.97-2.023v-.069c.977-.174 1.65-.865 1.646-1.845.004-1.376-1.202-2.459-3.009-2.459-1.79 0-3.136 1.049-3.162 2.557h1.769c.021-.664.63-1.095 1.385-1.095.745 0 1.244.452 1.24 1.108.004.686-.58 1.15-1.42 1.15h-.813v1.356h.814c.988 0 1.606.494 1.602 1.197.004.695-.592 1.172-1.436 1.172-.814 0-1.423-.426-1.457-1.065h-1.859c.03 1.525 1.394 2.586 3.312 2.586zm6.055-.119h3.729c1.96 0 3.004-1.023 3.004-2.412 0-1.291-.925-2.071-1.918-2.118v-.085c.908-.205 1.577-.848 1.577-1.875 0-1.308-.971-2.237-2.898-2.237H89.07V100zm1.845-1.508v-2.319h1.547c.886 0 1.436.512 1.436 1.232 0 .656-.447 1.087-1.479 1.087h-1.504zm0-3.567v-2.16h1.402c.818 0 1.283.421 1.283 1.052 0 .69-.563 1.108-1.317 1.108h-1.368zM98.323 100h1.845v-2.83h1.551c2.007 0 3.175-1.197 3.175-2.94 0-1.734-1.147-2.957-3.128-2.957h-3.443V100zm1.845-4.308v-2.91h1.244c1.065 0 1.581.579 1.581 1.448 0 .865-.516 1.462-1.572 1.462h-1.253zm7.741 4.308l.647-1.99h3.15l.647 1.99h1.978l-3.009-8.727h-2.378L105.931 100h1.978zm1.116-3.43l1.074-3.303h.068l1.074 3.303h-2.216zm6.265-3.776h2.672V100h1.824v-7.206h2.672v-1.521h-7.168v1.521z" fill="#2A2B2E"/><defs><filter id="filter0_b" x="6.101" y="5.101" width="163.798" height="163.798" filterUnits="userSpaceOnUse" color-interpolation-filters="sRGB"><feFlood flood-opacity="0" result="BackgroundImageFix"/><feGaussianBlur in="BackgroundImage" stdDeviation="10"/><feComposite in2="SourceAlpha" operator="in" result="effect1_backgroundBlur"/><feBlend in="SourceGraphic" in2="effect1_backgroundBlur" result="shape"/></filter><filter id="filter1_b" x="14.806" y="13.806" width="146.389" height="146.389" filterUnits="userSpaceOnUse" color-interpolation-filters="sRGB"><feFlood flood-opacity="0" result="BackgroundImageFix"/><feGaussianBlur in="BackgroundImage" stdDeviation="10"/><feComposite in2="SourceAlpha" operator="in" result="effect1_backgroundBlur"/><feBlend in="SourceGraphic" in2="effect1_backgroundBlur" result="shape"/></filter></defs></svg>