<svg width="32" height="32" fill="none" xmlns="http://www.w3.org/2000/svg"><g clip-path="url(#clip0)"><path d="M0 15.333C0 8.105 0 4.491 2.246 2.246 4.49 0 8.106 0 15.333 0h1.334c7.228 0 10.842 0 13.087 2.246C32 4.49 32 8.106 32 15.333v1.334c0 7.228 0 10.842-2.245 13.087C27.509 32 23.895 32 16.666 32h-1.334C8.104 32 4.49 32 2.245 29.755 0 27.509 0 23.895 0 16.666v-1.334z" fill="#2787F5"/><path fill-rule="evenodd" clip-rule="evenodd" d="M8.667 10H6.333c-.666 0-.8.314-.8.66 0 .618.791 3.683 3.684 7.737 1.929 2.769 4.646 4.27 7.119 4.27 1.483 0 1.667-.334 1.667-.908v-2.092c0-.667.14-.8.61-.8.346 0 .94.173 2.324 1.508 1.583 1.582 1.844 2.292 2.734 2.292h2.334c.667 0 1-.334.808-.992-.21-.655-.966-1.606-1.969-2.734-.544-.643-1.36-1.335-1.607-1.68-.346-.446-.247-.644 0-1.04 0 0 2.843-4.004 3.14-5.363.148-.495 0-.858-.706-.858h-2.334c-.593 0-.867.314-1.015.66 0 0-1.187 2.892-2.868 4.77-.544.545-.791.718-1.088.718-.148 0-.363-.173-.363-.668v-4.622c0-.594-.172-.858-.667-.858h-3.668c-.37 0-.593.275-.593.536 0 .563.84.693.927 2.274v3.437c0 .753-.136.89-.433.89-.791 0-2.716-2.906-3.857-6.23-.224-.646-.448-.907-1.045-.907z" fill="#fff"/></g><defs><clipPath id="clip0"><path fill="#fff" d="M0 0h32v32H0z"/></clipPath></defs></svg>