<svg fill="#ffb228" xmlns="http://www.w3.org/2000/svg" viewBox="0 0 140.591 140.591"><path d="M138.091 140.591H2.5a2.5 2.5 0 01-2.5-2.5V2.5A2.5 2.5 0 012.5 0h135.591a2.5 2.5 0 012.5 2.5v135.591a2.5 2.5 0 01-2.5 2.5zm-32.973-5h30.473v-30.473l-28.266 28.266-.013.013-.013.013-2.181 2.181zm-38.916 0h31.846l3.962-3.962-15.923-15.923-19.885 19.885zm-36.333 0h29.262l43.462-43.462-14.631-14.631-46.149 46.149-11.944 11.944zm-24.869 0h17.798l13.712-13.712-15.362-15.362L5 122.665v12.926zm84.622-23.421l15.923 15.923 30.046-30.046V66.202l-27.695 27.695-18.274 18.273zm-64.938-9.189l15.361 15.362 76.673-76.673-15.362-15.362-30.059 30.06a.043.043 0 00-.007.006l-46.606 46.607zM5 82.009v33.584l14.354-14.355.025-.025.025-.025 46.582-46.583-16.441-16.441L5 82.009zm86.497-8.047l14.631 14.631 29.39-29.389.073-.071V29.868L91.497 73.962zM5 41.208v33.785l19.798-19.487L7.833 38.54 5 41.208zm6.474-6.098l16.888 16.888 47.58-46.832H43.265L11.474 35.11zm41.634-.454L69.522 51.07 115.593 5H83.238l-30.13 29.656zm51.783-11.883l15.362 15.362 15.338-15.338V5h-12.927l-17.773 17.773zM5 5v29.34l.935-.88a2.646 2.646 0 01.473-.445L36.148 5H5z"/></svg>