<svg fill="#ffb228" xmlns="http://www.w3.org/2000/svg" viewBox="0 0 512 512"><path d="M402.059 8.551a1251.792 1251.792 0 00-292.126 0 8.527 8.527 0 00-7.535 8.474v409.667a8.528 8.528 0 007.535 8.474c48.462 5.7 97.265 8.551 146.068 8.551 48.803 0 97.606-2.85 146.068-8.551a8.527 8.527 0 007.535-8.474V17.024a8.53 8.53 0 00-7.545-8.473zm-9.523 410.528a1233.793 1233.793 0 01-273.071 0V24.636a1233.793 1233.793 0 01273.071 0v394.443z"/><path d="M256 341.331c-18.825 0-34.134 15.309-34.134 34.134 0 18.825 15.309 34.134 34.134 34.134s34.134-15.309 34.134-34.134c0-18.825-15.309-34.134-34.134-34.134zm0 51.2c-9.412 0-17.067-7.655-17.067-17.067s7.655-17.067 17.067-17.067 17.067 7.655 17.067 17.067-7.655 17.067-17.067 17.067zm42.667-324.306h-85.335c-14.114 0-25.6 11.486-25.6 25.6v34.134c0 14.114 11.486 25.6 25.6 25.6h85.335c14.114 0 25.6-11.486 25.6-25.6V93.826c.001-14.115-11.485-25.601-25.6-25.601zm8.534 59.734c0 4.702-3.832 8.533-8.534 8.533h-85.335c-4.702 0-8.534-3.831-8.534-8.533V93.826c0-4.702 3.832-8.533 8.534-8.533h85.335c4.702 0 8.534 3.831 8.534 8.533v34.133z"/><path d="M286.721 104.066c-3.772-2.833-9.122-2.057-11.947 1.707l-25.6 34.134c-2.825 3.772-2.065 9.122 1.707 11.947a8.503 8.503 0 005.112 1.707 8.518 8.518 0 006.835-3.413l25.6-34.134c2.824-3.773 2.064-9.124-1.707-11.948zm-73.388 356.733h-34.134c-4.711 0-8.534 3.823-8.534 8.533v34.134c0 4.71 3.823 8.533 8.534 8.533h34.134a8.536 8.536 0 008.533-8.533v-34.134a8.536 8.536 0 00-8.533-8.533zm-8.534 34.134h-17.067v-17.067h17.067v17.067zm128.002-34.134h-34.134a8.536 8.536 0 00-8.533 8.533v34.134a8.536 8.536 0 008.533 8.533h34.134c4.711 0 8.534-3.823 8.534-8.533v-34.134c0-4.71-3.823-8.533-8.534-8.533zm-8.533 34.134h-17.067v-17.067h17.067v17.067zm76.801-187.736H110.931a8.536 8.536 0 00-8.533 8.534v110.961a8.528 8.528 0 007.535 8.474c48.462 5.7 97.265 8.551 146.068 8.551 48.803 0 97.606-2.85 146.068-8.551a8.527 8.527 0 007.535-8.474V315.73a8.538 8.538 0 00-8.535-8.533zm-8.533 111.882a1233.793 1233.793 0 01-273.071 0v-94.815h273.071v94.815z"/><path d="M230.57 426.29a1240.256 1240.256 0 01-67.798-3.285c-2.372-.196-4.702.64-6.443 2.253a8.532 8.532 0 00-2.731 6.255v37.82c0 4.71 3.823 8.534 8.534 8.534H230.4c4.71 0 8.533-3.823 8.525-8.534v-34.509c0-4.643-3.713-8.44-8.355-8.534zm-8.704 34.509h-51.201v-20.113a1251.454 1251.454 0 0051.201 2.466v17.647zm133.797-35.542a8.47 8.47 0 00-6.443-2.253 1240.126 1240.126 0 01-67.798 3.285c-4.642.094-8.354 3.891-8.354 8.534v34.509c0 4.71 3.823 8.534 8.533 8.534h68.268c4.711 0 8.534-3.823 8.525-8.533v-37.82a8.54 8.54 0 00-2.731-6.256zm-14.328 35.542h-51.201v-17.647a1253.242 1253.242 0 0051.201-2.466v20.113z"/></svg>