<svg fill="#ffb228" xmlns="http://www.w3.org/2000/svg" viewBox="0 0 202.83 202.83"><path d="M198.933 66.346h-62.345V4.001a3.896 3.896 0 00-3.897-3.897H4.105A3.897 3.897 0 00.208 4.001v37.958a3.87 3.87 0 000 2.502v88.126a3.896 3.896 0 003.897 3.897H66.45v62.345a3.896 3.896 0 003.897 3.897h128.586a3.896 3.896 0 003.897-3.897V70.243a3.897 3.897 0 00-3.897-3.897zm-70.138-17.2l-17.2 17.2h-35.74l52.939-52.938.001 35.738zm-6.18 17.2l6.18-6.18v6.18h-6.18zm6.18 7.793v54.552H74.243V74.139h54.552zM8.002 7.898h25.66L8.002 33.56V7.898zm0 36.682L43.927 8.653c.223-.223.344-.497.502-.755h32.096L8.002 76.42V44.58zm58.448 84.111h-6.18l6.18-6.18v6.18zm0-17.199l-17.2 17.2H13.51v-.001l52.94-52.939v35.74zM8.002 123.179V87.18c.265-.16.547-.286.776-.516L86.762 8.68c.231-.231.358-.515.519-.782h36.003L8.002 123.179zm187.034 71.753H74.243v-58.448h58.448a3.896 3.896 0 003.897-3.897V74.139h58.448v120.793z"/></svg>