<svg fill="#ffb228" xmlns="http://www.w3.org/2000/svg" viewBox="0 0 512.001 512.001"><path d="M511.768 499.855l-54-245.873a10 10 0 00-9.768-7.854h-23.633c-4.419-89.828-78.884-161.55-169.789-161.55S89.209 156.3 84.789 246.128H64c-4.696 0-8.76 3.268-9.768 7.854l-54 245.873A10.002 10.002 0 0010 512h492a10.001 10.001 0 009.768-12.145zm-257.19-395.277c79.874 0 145.359 62.756 149.757 141.549H104.821c4.398-78.793 69.885-141.549 149.757-141.549zM318.711 348l4.668 62H188.622l4.668-62h125.421zm-123.914-20l4.658-61.873h113.092L317.206 328H194.797zm-32.404 164H22.435l13.616-62H167.06l-4.667 62zm6.173-82H40.445l13.617-62h119.173l-4.669 62zm6.174-82H58.453l13.589-61.873h107.355L174.74 328zm7.708 164l4.668-62h137.768l4.668 62H182.448zm150.156-225.872h107.355L453.547 328H337.261l-4.657-61.872zM338.768 348H457.94l13.617 62H343.435l-4.667-62zm10.841 144l-4.668-62H475.95l13.617 62H349.609zM256 0c-5.522 0-10 4.478-10 10v50.656c0 5.523 4.478 10 10 10s10-4.478 10-10V10c0-5.521-4.477-10-10-10zm-92.68 82.81l-25.329-43.869c-2.762-4.781-8.876-6.421-13.66-3.66-4.783 2.762-6.422 8.878-3.66 13.66L146 92.81a9.997 9.997 0 0013.66 3.66c4.783-2.762 6.423-8.878 3.66-13.66zm320.733 48.859c-2.761-4.782-8.874-6.421-13.66-3.66l-43.869 25.327c-4.783 2.761-6.422 8.877-3.66 13.66a9.997 9.997 0 0013.66 3.66l43.869-25.327c4.783-2.761 6.422-8.876 3.66-13.66zM85.476 153.336l-43.871-25.327c-4.784-2.762-10.9-1.122-13.66 3.66-2.762 4.783-1.123 10.9 3.66 13.66l43.871 25.327a9.997 9.997 0 0013.66-3.66c2.762-4.783 1.123-10.899-3.66-13.66zM387.669 35.281c-4.784-2.762-10.898-1.123-13.66 3.66L348.68 82.81c-2.762 4.782-1.123 10.898 3.66 13.66A9.998 9.998 0 00366 92.81l25.329-43.869c2.762-4.782 1.124-10.897-3.66-13.66z"/><path d="M375.246 203.729l-.026-.064c-2.092-5.112-7.919-7.527-13.029-5.438-5.113 2.092-7.548 7.963-5.457 13.074a10.004 10.004 0 009.26 6.217c1.261 0 2.543-.24 3.782-.747 5.112-2.091 7.561-7.931 5.47-13.042zm-20.514-33.458c-24.955-29.617-61.46-46.604-100.154-46.604-5.522 0-10 4.478-10 10s4.479 10.001 10.001 10.001c32.783 0 63.713 14.394 84.859 39.49a9.98 9.98 0 007.652 3.557 9.955 9.955 0 006.438-2.353c4.224-3.56 4.763-9.867 1.204-14.091z"/></svg>