<svg fill="#ffb228" xmlns="http://www.w3.org/2000/svg" viewBox="0 0 512 512"><path d="M501.106 340.864h-59.915V206.939c0-49.458-19.262-95.965-54.239-130.955C351.965 41.01 305.458 21.747 256 21.747c-102.115 0-185.191 83.077-185.191 185.191v133.924H10.894C4.878 340.863 0 345.741 0 351.757s4.878 10.894 10.894 10.894h11.983V479.36c0 6.015 4.878 10.894 10.894 10.894h444.458c6.015 0 10.894-4.878 10.894-10.894V362.651h11.983c6.015 0 10.894-4.878 10.894-10.894s-4.878-10.893-10.894-10.893zM70.809 468.466H44.664V362.651h26.145v105.815zm43.574 0H92.596V362.651h21.787v105.815zm130.723 0H136.17V362.651h108.936v105.815zm0-127.602H136.17v-45.305h108.936v45.305zm0-67.093H136.17v-66.832c0-62.404 47.945-113.82 108.936-119.34v186.172zM375.83 468.466H266.894V362.651H375.83v105.815zm0-127.602H266.894v-45.305H375.83v45.305zm0-67.092H266.894V87.601c60.991 5.519 108.936 56.935 108.936 119.34v66.831zm43.574 194.694h-21.787V362.651h21.787v105.815zm0-127.603h-21.787V206.938c0-78.089-63.528-141.617-141.617-141.617s-141.617 63.528-141.617 141.617v133.925H92.596V206.939c0-90.101 73.303-163.404 163.404-163.404 43.641 0 84.676 16.996 115.546 47.855 30.862 30.874 47.858 71.91 47.858 115.55v133.923zm47.932 127.603h-26.145V362.651h26.145v105.815z"/><path d="M203.894 180.171c-5.311-2.826-11.909-.81-14.734 4.502l-24.482 46.024c-2.826 5.312-.81 11.909 4.501 14.734a10.894 10.894 0 0014.735-4.502l24.482-46.024c2.825-5.312.809-11.909-4.502-14.734zm21.146-21.648a11.584 11.584 0 00-.621-2.037 11.056 11.056 0 00-1.002-1.874 11.093 11.093 0 00-3.019-3.019 10.173 10.173 0 00-1.874-.99 10.703 10.703 0 00-2.037-.621 10.789 10.789 0 00-4.259 0c-.697.131-1.384.349-2.036.621-.664.26-1.296.599-1.885.99-.599.403-1.155.861-1.656 1.362a10.38 10.38 0 00-1.351 1.657c-.392.588-.73 1.22-1.002 1.874a11.61 11.61 0 00-.621 2.037 10.894 10.894 0 00-.218 2.135 11.069 11.069 0 001.841 6.045c.391.599.85 1.156 1.351 1.657s1.057.959 1.656 1.35a11.056 11.056 0 006.045 1.841c.719 0 1.428-.076 2.135-.218a11.555 11.555 0 002.037-.62 10.985 10.985 0 001.874-1.003c.6-.391 1.156-.849 1.657-1.35s.959-1.058 1.362-1.657a11.092 11.092 0 001.623-3.921c.142-.698.206-1.416.206-2.124 0-.708-.065-1.427-.206-2.135zm125.165-7.483c-5.312-2.83-11.908-.81-14.732 4.501l-24.483 46.023c-2.826 5.312-.81 11.908 4.501 14.733a10.836 10.836 0 005.107 1.279c3.898 0 7.668-2.098 9.627-5.78l24.483-46.023c2.823-5.312.808-11.907-4.503-14.733zm-34.498 82.648a11.399 11.399 0 00-.62-2.047 10.911 10.911 0 00-2.365-3.531 10.973 10.973 0 00-7.701-3.192 10.993 10.993 0 00-7.702 3.192 10.39 10.39 0 00-1.351 1.657 11.05 11.05 0 00-1.002 1.874 11.416 11.416 0 00-.62 2.048 10.626 10.626 0 00-.218 2.124c0 .707.075 1.427.218 2.124.142.697.347 1.383.62 2.036.272.664.611 1.296 1.002 1.885.392.599.85 1.155 1.351 1.656.501.502 1.057.96 1.657 1.351.588.403 1.219.73 1.884 1.002.655.272 1.34.49 2.037.632.697.142 1.416.207 2.124.207a10.95 10.95 0 009.063-4.849 11.056 11.056 0 001.623-3.921c.142-.698.207-1.417.207-2.124 0-.708-.067-1.428-.207-2.124z"/></svg>