<svg fill="#ffb228" height="512" viewBox="0 0 64 64" width="512" xmlns="http://www.w3.org/2000/svg"><path d="M4 61h56a1 1 0 001-1V32a1 1 0 00-1-1H33V4a1 1 0 00-1-1H4a1 1 0 00-1 1v56a1 1 0 001 1zm27-18.051A11.01 11.01 0 0121.051 33H31zm0 2.013v3.007A16.023 16.023 0 0116.031 33h3.007A13.02 13.02 0 0031 44.962zM33 33h9.949A11.01 11.01 0 0133 42.949zm-11.949-2A11.01 11.01 0 0131 21.051V31zM31 19.038A13.02 13.02 0 0019.038 31h-3.007A16.023 16.023 0 0131 16.031zM14.051 33c.517 9.138 7.811 16.432 16.949 16.949V59H18.949A15 15 0 005 45.051V33zM5 51.059A9.013 9.013 0 0112.941 59H5zM14.955 59A11.018 11.018 0 005 49.045v-2.007A13.02 13.02 0 0116.962 59zm32.083 0A13.02 13.02 0 0159 47.038v2.007A11.018 11.018 0 0049.045 59zm4.021 0A9.013 9.013 0 0159 51.059V59zM59 45.051A15 15 0 0045.051 59H33v-9.051c9.138-.517 16.432-7.811 16.949-16.949H59zM47.969 33A16.023 16.023 0 0133 47.969v-3.007A13.02 13.02 0 0044.962 33zM31 14.051c-9.138.517-16.432 7.811-16.949 16.949H5V18.949A15 15 0 0018.949 5H31zM16.962 5A13.02 13.02 0 015 16.962v-2.007A11.018 11.018 0 0014.955 5zm-4.021 0A9.013 9.013 0 015 12.941V5z"/><path d="M35.6 19.436l.907 1.813c.108.218.228.431.355.641l-1.816 5.81a1 1 0 001.254 1.255l5.708-1.785 3.4 2.04c.862.516 1.847.79 2.852.79h3.224a5.548 5.548 0 005.151-7.607L56.077 21a10.927 10.927 0 00-.2-8.491l5.816-5.817a1 1 0 000-1.414l-2.986-2.985a1 1 0 00-1.414 0l-5.524 5.524a10.876 10.876 0 00-3.982-1.533l-.819-.137A10.857 10.857 0 0045.186 6h-1.322A9.289 9.289 0 0035.6 19.436zm4.858-2.351a5.176 5.176 0 015.433-3.591 5.11 5.11 0 012.345.856l-1.943 1.943 1.414 1.414 1.943-1.943a5.11 5.11 0 01.856 2.345 5.174 5.174 0 01-3.591 5.432l-9.392 2.935zm13.758 3.182l-.145.362a1.014 1.014 0 000 .743l.706 1.764A3.545 3.545 0 0151.484 28H48.26a3.553 3.553 0 01-1.825-.5l-1.872-1.123 2.948-.922A7.178 7.178 0 0052.5 17.91a7.099 7.099 0 00-1.416-3.576l.92-.92.778.778a1 1 0 001.414 0l.141-.14a8.9 8.9 0 01-.121 6.215zM58 4.414l1.571 1.571-6.086 6.086-1.571-1.571zm-19.7 6.2A7.228 7.228 0 0143.864 8h1.322c.487.001.973.041 1.453.12l.819.137a8.902 8.902 0 012.864 1.006l-.529.53a1 1 0 000 1.414l.793.793-.92.92a7.12 7.12 0 00-11.116 3.568l-.841 2.693-.32-.64a7.347 7.347 0 01-.635-1.868 7.22 7.22 0 011.546-6.064z"/></svg>