<svg fill="#ffb228" xmlns="http://www.w3.org/2000/svg" viewBox="0 0 496 496"><path d="M232 384H8a8 8 0 00-8 8v96a8 8 0 008 8h224a8 8 0 008-8v-96a8 8 0 00-8-8zm-8 96H16v-48h208v48zm0-64H16v-16h208v16zm264-32H264a8 8 0 00-8 8v96a8 8 0 008 8h224a8 8 0 008-8v-96a8 8 0 00-8-8zm-8 96H272v-48h208v48zm0-64H272v-16h208v16zM128 264v96a8 8 0 008 8h224a8 8 0 008-8v-96a8 8 0 00-8-8H136a8 8 0 00-8 8zm16 8h208v16H144v-16zm0 32h208v48H144v-48zm344-48h-96a8 8 0 00-8 8v96a8 8 0 008 8h96a8 8 0 008-8v-96a8 8 0 00-8-8zm-8 96h-80v-48h80v48zm0-64h-80v-16h80v16zM8 368h96a8 8 0 008-8v-96a8 8 0 00-8-8H8a8 8 0 00-8 8v96a8 8 0 008 8zm8-96h80v16H16v-16zm0 32h80v48H16v-48zm-8-64h224a8 8 0 008-8v-96a8 8 0 00-8-8H8a8 8 0 00-8 8v96a8 8 0 008 8zm8-96h208v16H16v-16zm0 32h208v48H16v-48zm472-48H264a8 8 0 00-8 8v96a8 8 0 008 8h224a8 8 0 008-8v-96a8 8 0 00-8-8zm-8 96H272v-48h208v48zm0-64H272v-16h208v16zm-344-48h224a8 8 0 008-8V8a8 8 0 00-8-8H136a8 8 0 00-8 8v96a8 8 0 008 8zm8-96h208v16H144V16zm0 32h208v48H144V48zM8 112h96a8 8 0 008-8V8a8 8 0 00-8-8H8a8 8 0 00-8 8v96a8 8 0 008 8zm8-96h80v16H16V16zm0 32h80v48H16V48z"/></svg>