<svg fill="#ffb228" height="512" viewBox="0 0 64 64" width="512" xmlns="http://www.w3.org/2000/svg"><path d="M61 55h-5V11a3.009 3.009 0 003-3V3a1 1 0 00-1-1H6a1 1 0 00-1 1v5a3.009 3.009 0 003 3v44H3a1 1 0 00-1 1v5a1 1 0 001 1h58a1 1 0 001-1v-5a1 1 0 00-1-1zM7 8V4h50v4a1 1 0 01-1 1H8a1 1 0 01-1-1zm47 3v44H10V11zm6 49H4v-3h56z"/><path d="M52 12H12a1 1 0 00-1 1v40a1 1 0 001 1h40a1 1 0 001-1V13a1 1 0 00-1-1zM31 52H13V33h18zm0-21H13V14h18zm20 21H33V33h18zm0-21H33V14h18z"/><path d="M15.29 20.292l4-4 1.413 1.415-4 4zm0 5l8.998-8.998 1.414 1.414-8.998 8.998z"/></svg>