<svg xmlns="http://www.w3.org/2000/svg" viewBox="0 0 637 70.37"><defs><style>.cls-1{fill:#fff}</style></defs><g id="Layer_2" data-name="Layer 2"><g id="Слой_1" data-name="Слой 1"><path class="cls-1" d="M33.42 34.85v22h-9.29v-3.6a15 15 0 01-11.32 4.5Q7 57.78 3.49 54.7a10.15 10.15 0 01-3.49-8 9.4 9.4 0 013.78-7.91c2.53-1.93 5.93-2.9 10.22-2.9h9.3v-1.64a6.38 6.38 0 00-1.77-4.84 7.14 7.14 0 00-5.13-1.68 10.49 10.49 0 00-5 1.2 19.49 19.49 0 00-4.8 3.89L1.35 26.6A20.3 20.3 0 0117.54 19q7.34 0 11.61 4.16t4.27 11.69zM23.31 43v-.45h-7.95q-5.17 0-5.17 3.75a3.49 3.49 0 001.46 3 6.29 6.29 0 003.86 1.09 7.87 7.87 0 005.58-2.06A6.91 6.91 0 0023.31 43zm53.91-18.53a19.5 19.5 0 015.14 13.82 19.76 19.76 0 01-5.14 13.9 16.69 16.69 0 01-12.85 5.59q-7 0-11.09-4.5v17.09H43.16V19.78h9.3v4.65Q56.29 19 64.37 19a16.8 16.8 0 0112.85 5.47zm-5.13 13.9a10.34 10.34 0 00-2.7-7.37 9.72 9.72 0 00-13.6-.15 10.23 10.23 0 00-2.66 7.49 10.35 10.35 0 002.66 7.53 8.94 8.94 0 006.71 2.74 9.1 9.1 0 006.85-2.85 10.13 10.13 0 002.74-7.39zm40.99-18.59v8.92h-2.7a10.32 10.32 0 00-7.3 2.47q-2.67 2.47-2.67 7.2v18.51H90.3v-37.1h9.29v4.42a12.46 12.46 0 0110.19-4.87 11 11 0 013.3.45zm3.44 18.51a18 18 0 015.78-13.71 20.51 20.51 0 0128.21 0 18 18 0 015.81 13.71A18 18 0 01150.47 52a19.12 19.12 0 01-14.16 5.66 18.74 18.74 0 01-14-5.66 18.13 18.13 0 01-5.79-13.71zm26.72 7.27a10 10 0 002.76-7.19 10.25 10.25 0 00-2.74-7.27 9.6 9.6 0 00-13.75 0 10.29 10.29 0 00-2.7 7.31 10 10 0 002.7 7.19 9.72 9.72 0 0013.75 0zm17.57 5.02l5.1-6.14c3.19 3.34 6.67 5 10.41 5a6.5 6.5 0 003.41-.79 2.5 2.5 0 001.32-2.28 2.15 2.15 0 00-.79-1.76 14.49 14.49 0 00-3-1.62l-4-1.64a21.87 21.87 0 01-7.72-4.76 9.27 9.27 0 01-2.39-6.56 9.77 9.77 0 013.74-8.13q3.75-3 9.89-3a17.27 17.27 0 0113.34 5.54L185 30.72a11.91 11.91 0 00-8.32-3.52c-2.65 0-4 .88-4 2.62a2.14 2.14 0 00.82 1.73 13 13 0 003.07 1.57l3.6 1.5q5.55 2.25 8 4.8a9.07 9.07 0 012.44 6.52 10.35 10.35 0 01-4.12 8.69 16.35 16.35 0 01-10.34 3.15q-9.94 0-15.34-7.2zm61.3-2.17v8.47a28.68 28.68 0 01-7 .9q-7.12 0-11-3.52t-3.81-10.42V28.33h-5.84v-8.55h5.84v-9.36h10.12v9.36h10.49v8.55h-10.49v14.61c0 2.1.54 3.58 1.61 4.46s2.84 1.31 5.29 1.31c.84 0 2.44-.1 4.79-.3zM228 6.29a6 6 0 011.9-4.49 6.35 6.35 0 014.57-1.8 6.47 6.47 0 014.61 1.8A5.9 5.9 0 01241 6.29a5.83 5.83 0 01-1.91 4.43 6.51 6.51 0 01-4.61 1.79 6.38 6.38 0 01-4.57-1.79A5.9 5.9 0 01228 6.29zm1.42 50.59v-37.1h10.12v37.1zm42.97-37.1v8.92h-2.69a10.35 10.35 0 00-7.31 2.47c-1.78 1.65-2.66 4-2.66 7.2v18.51h-10.12v-37.1h9.29v4.42a12.46 12.46 0 0110.19-4.87 11 11 0 013.3.45z"/><path d="M281 19.84l34.77 16.9v3L281 56.69V47l18.58-8.74L281 29.48z" fill="red"/><path class="cls-1" d="M356 37.61v11.46h-2.89V38a5.32 5.32 0 00-1.14-3.58 4 4 0 00-3.17-1.33 4.58 4.58 0 00-4.68 4.65v11.33h-2.89V38a5.2 5.2 0 00-1.23-3.58 4 4 0 00-3.16-1.35 4.39 4.39 0 00-3.35 1.37 4.91 4.91 0 00-1.3 3.54v11.09h-2.89V30.82h2.7v1.92a6.85 6.85 0 015.44-2.33 5.83 5.83 0 015.62 3.15 7.19 7.19 0 016.25-3.15 6.25 6.25 0 014.88 1.95 7.56 7.56 0 011.81 5.25zm19.73.22v11.24H373v-2.36a8.23 8.23 0 01-10.75 1.37 4.55 4.55 0 01-1.76-3.73 4.45 4.45 0 011.8-3.71 7.61 7.61 0 014.76-1.39h5.76v-1.57a4.65 4.65 0 00-1.18-3.41 4.32 4.32 0 00-3.24-1.2 6.58 6.58 0 00-5.28 2.93l-1.92-1.57a8.11 8.11 0 017.42-4 7 7 0 015.21 1.93 7.46 7.46 0 011.91 5.47zm-2.89 4.23v-.45h-5.43c-2.62 0-3.93.87-3.93 2.59a2.45 2.45 0 001.07 2.12 4.52 4.52 0 002.71.76 5.71 5.71 0 003.94-1.46 4.56 4.56 0 001.64-3.56zm18.7-11.24v2.55h-1.08a6 6 0 00-4.07 1.46 5 5 0 00-1.67 3.9v10.34h-2.88V30.82h2.7v2.59a6.64 6.64 0 015.66-2.74 5.79 5.79 0 011.34.15zm3.86 18.25V21h2.89v28.1zm6.67-10.23l8.62 10.23H407l-8.41-10.27 7.6-8H410zm27.65 1.99H415.3a6.31 6.31 0 002.13 4.34 6.69 6.69 0 004.57 1.65 7.71 7.71 0 005.59-2.47l1.68 1.95a9.81 9.81 0 01-7.3 3.18 9.4 9.4 0 01-6.88-2.75A9.14 9.14 0 01412.3 40a9.32 9.32 0 012.7-6.8 8.87 8.87 0 016.61-2.79 8.18 8.18 0 015.94 2.33 7.89 7.89 0 012.45 5.92 11.13 11.13 0 01-.28 2.17zm-14.31-2.55H427a5.07 5.07 0 00-1.58-3.82 5.44 5.44 0 00-3.86-1.46 6 6 0 00-4 1.45 6.64 6.64 0 00-2.15 3.83zM445 46.64v2.43a14 14 0 01-3 .41 6.43 6.43 0 01-4.6-1.48 5.74 5.74 0 01-1.61-4.42V33.41h-3.07v-2.59h3.07v-5h2.89v5h5.69v2.59h-5.69v10a3.36 3.36 0 00.95 2.68 4.49 4.49 0 002.91.8 15.26 15.26 0 002.46-.25zm3.57-22.79a2 2 0 01.64-1.47 2.07 2.07 0 011.53-.62 2 2 0 011.5.62 2 2 0 01.64 1.47 2 2 0 01-.62 1.5 2.1 2.1 0 01-1.52.6 2.14 2.14 0 01-1.53-.6 2 2 0 01-.64-1.5zm.71 25.22V30.82h2.89v18.25zm24.32-11.46v11.46h-2.89V37.94a5.05 5.05 0 00-1.21-3.52 4.25 4.25 0 00-3.32-1.35 4.65 4.65 0 00-3.45 1.37 4.77 4.77 0 00-1.34 3.5v11.13h-2.89V30.82h2.7v2a7.23 7.23 0 015.62-2.36 6.42 6.42 0 015 2 7.4 7.4 0 011.78 5.15zm20.91-6.79h2.73v16.49a8.28 8.28 0 01-8.88 8.92 11.71 11.71 0 01-8.58-3.52l1.69-2a10.27 10.27 0 006.82 2.89 5.56 5.56 0 006.07-6.11v-1.64a7.37 7.37 0 01-2.91 2.23 9.38 9.38 0 01-3.87.8 8.55 8.55 0 01-6.41-2.62 9.08 9.08 0 01-2.55-6.59 9.15 9.15 0 012.57-6.6 8.53 8.53 0 016.39-2.66 9.34 9.34 0 014 .88 7 7 0 012.91 2.46zm-.12 8.85a6.2 6.2 0 00-1.85-4.82 6.46 6.46 0 00-4.52-1.7 6.27 6.27 0 00-4.64 1.85 6.4 6.4 0 00-1.84 4.7 6.25 6.25 0 006.46 6.52 6.4 6.4 0 004.54-1.7 6.3 6.3 0 001.85-4.85zm33.35-1.84v11.24H525v-2.36a8.23 8.23 0 01-10.75 1.37 4.55 4.55 0 01-1.76-3.73 4.45 4.45 0 011.8-3.71 7.61 7.61 0 014.76-1.39h5.77v-1.57a4.69 4.69 0 00-1.18-3.41 4.36 4.36 0 00-3.25-1.2 6.58 6.58 0 00-5.27 2.93l-1.92-1.57a8.11 8.11 0 017.42-4 7 7 0 015.21 1.93 7.46 7.46 0 011.91 5.47zm-2.88 4.23v-.45h-5.44c-2.62 0-3.93.87-3.93 2.59a2.45 2.45 0 001.07 2.12 4.53 4.53 0 002.72.76 5.7 5.7 0 003.93-1.46 4.57 4.57 0 001.65-3.56zm23.79-11.24h2.73v16.49a8.27 8.27 0 01-8.88 8.92 11.71 11.71 0 01-8.58-3.52l1.69-2a10.27 10.27 0 006.82 2.89 5.56 5.56 0 006.07-6.11v-1.64a7.33 7.33 0 01-2.9 2.23 9.46 9.46 0 01-3.88.8 8.55 8.55 0 01-6.41-2.62 9.08 9.08 0 01-2.55-6.59 9.15 9.15 0 012.57-6.6 8.53 8.53 0 016.39-2.66 9.39 9.39 0 014 .88 7.08 7.08 0 012.9 2.46zm-.11 8.85a6.21 6.21 0 00-1.86-4.82 6.44 6.44 0 00-4.51-1.7 6.28 6.28 0 00-4.65 1.85 6.43 6.43 0 00-1.83 4.7 6.59 6.59 0 0011 4.82 6.27 6.27 0 001.85-4.85zm25.29 1.16H559.4a6.36 6.36 0 002.14 4.34 6.65 6.65 0 004.57 1.65 7.7 7.7 0 005.58-2.47l1.69 1.95a9.83 9.83 0 01-7.31 3.18 9.38 9.38 0 01-6.87-2.75 9.11 9.11 0 01-2.8-6.73 9.36 9.36 0 012.72-6.77 8.89 8.89 0 016.61-2.79 8.16 8.16 0 015.94 2.33 7.89 7.89 0 012.38 5.92 11.09 11.09 0 01-.22 2.14zm-14.32-2.55h11.58a5.06 5.06 0 00-1.57-3.82 5.47 5.47 0 00-3.86-1.46 5.93 5.93 0 00-4 1.45 6.6 6.6 0 00-2.15 3.83zm34.7-.67v11.46h-2.89V37.94a5.05 5.05 0 00-1.21-3.52 4.26 4.26 0 00-3.32-1.35 4.65 4.65 0 00-3.45 1.37 4.77 4.77 0 00-1.35 3.5v11.13h-2.88V30.82h2.7v2a7.23 7.23 0 015.62-2.36 6.42 6.42 0 015 2 7.4 7.4 0 011.78 5.15zm4.79 2.32a9.36 9.36 0 0117.09-5.55L614 36a6.53 6.53 0 00-5.43-3 6.24 6.24 0 00-4.72 2 6.74 6.74 0 00-1.85 4.93 6.82 6.82 0 001.92 4.89 6.26 6.26 0 004.72 2A6.49 6.49 0 00614 43.9l2.06 1.61a8.54 8.54 0 01-7.49 4 9.54 9.54 0 01-9.57-9.58zm34.93-9.11H637l-9 20.8q-2 4.6-6.19 4.61a10.34 10.34 0 01-2.8-.38v-2.43c1 .12 1.78.19 2.2.19a4.34 4.34 0 002.49-.61 4.93 4.93 0 001.65-2.27l1-2.17-7.57-17.69h3.11l6 14.54z"/></g></g></svg>