<svg viewBox="0 0 1318 243" fill="#fff" xmlns="http://www.w3.org/2000/svg"><path d="M97 96.89c-29.55 0-47.87 11.95-57.3 31.78h-2.24l3.58-87.43H.58v197.29h38.49l-3.12-31.67 2.13-.05c8.87 22.02 27.58 35.45 58.91 35.45 46.41 0 72.87-29.44 72.87-72.69.01-43.24-26.45-72.68-72.86-72.68zM85.27 217.26c-30.37 0-47.68-17.31-47.68-47.68s17.32-47.68 47.68-47.68 47.68 17.32 47.68 47.68-17.31 47.68-47.68 47.68zm549.95-57.2v78.47h-37.51v-70.82c0-25.1-5.37-46.82-35.9-46.82-33.25 0-38.47 30.5-38.47 48.68v68.96h-38.11V100.62h36.49l-3.73 41.32h2.22c5.92-23.08 18.96-45.06 54.78-45.06 48.18.01 60.23 33.65 60.23 63.18zm539.7-59.44h37.51v137.91h-37.51V100.62zm39.05-41.65c0 11.21-9.09 20.3-20.3 20.3s-20.3-9.09-20.3-20.3 9.09-20.3 20.3-20.3 20.3 9.09 20.3 20.3zM288.95 97.15c1.65.09 3.34.36 5.1.53v35.47c-10.01-3.98-33.71-10.39-48.7 4.68-4.08 4.1-7.46 8.94-9.87 14.8-2.42 5.87-3.62 12.63-3.62 20.27v65.62h-38.45v-137.9h36.49l-2.76 41.32h1.98c6.53-39.93 41.55-45.73 59.83-44.79zm857.61 0c1.65.09 3.34.36 5.1.53v35.47c-10.01-3.98-33.71-10.39-48.7 4.68-4.08 4.1-7.46 8.94-9.87 14.8-2.42 5.87-3.62 12.63-3.62 20.27v65.62h-38.45v-137.9h36.49l-2.76 41.32h1.98c6.53-39.93 41.55-45.73 59.83-44.79zm-164.8 31.52h-2.24c-9.43-19.83-27.75-31.78-57.3-31.78-46.41 0-72.87 29.44-72.87 72.69s26.46 72.69 72.87 72.69c31.33 0 50.04-13.43 58.91-35.45l2.23.05-3.21 31.67h38.49V100.62h-38.38l1.5 28.05zm-47.81 88.59c-30.37 0-47.68-17.32-47.68-47.68 0-30.37 17.32-47.68 47.68-47.68s47.68 17.32 47.68 47.68-17.31 47.68-47.68 47.68zM383.98 96.89c-46.41 0-80.57 21.86-80.57 72.69 0 49.4 34.16 72.69 80.57 72.69 39.86 0 59.86-9.45 74.65-31.28l-27.9-16.37c-8.24 16.96-24.67 29.34-46.75 29.34-28.21 0-42.93-17.1-44.88-47.23h125.13l-.01-.04c.21-2.33.33-4.7.33-7.12-.01-50.11-34.16-72.68-80.57-72.68zm-44.55 61.69c2.95-27.38 17.59-41.82 44.55-41.82 27.02 0 41.66 13.93 44.57 41.82h-89.12zm451.01-29.91h-2.24c-9.43-19.83-27.75-31.78-57.3-31.78-46.41 0-72.87 29.44-72.87 72.69s26.46 72.69 72.87 72.69c31.33 0 50.04-13.43 58.91-35.45l2.13.05-3.12 31.67h38.49V41.24h-40.46l3.59 87.43zm-47.81 88.59c-30.37 0-47.68-17.31-47.68-47.68s17.32-47.68 47.68-47.68c30.37 0 47.68 17.32 47.68 47.68.01 30.36-17.31 47.68-47.68 47.68zM1279.31 0c-21.32 0-38.67 17.35-38.67 38.67s17.35 38.67 38.67 38.67 38.67-17.35 38.67-38.67S1300.63 0 1279.31 0zm0 71.79c-18.26 0-33.12-14.86-33.12-33.12 0-18.26 14.86-33.12 33.12-33.12 18.26 0 33.12 14.86 33.12 33.12 0 18.26-14.86 33.12-33.12 33.12zm13.32-33.43c-2.59-2.11-6.12-3.17-10.58-3.17h-10.32V24.76h22.13v-6.11h-28.76V59h16.95c4.46 0 7.98-1.07 10.58-3.2 2.59-2.13 3.89-5.04 3.89-8.73 0-3.7-1.3-6.6-3.89-8.71zm-5.19 13.08c-1.44 1.08-3.41 1.61-5.91 1.61h-9.8V41.06h9.8c2.5 0 4.47.54 5.91 1.61 1.44 1.08 2.16 2.54 2.16 4.38 0 1.85-.72 3.32-2.16 4.39z"/></svg>