<svg width="186" height="60" fill="none" xmlns="http://www.w3.org/2000/svg"><path d="M65.244 30.043V18.871h6.927v1.043h-5.81v3.798h5.437v1.043h-5.437v4.32h6.033v.968h-7.15zm9.311 0V18.871h1.117v4.841h6.107v-4.84h1.117v11.171H81.78v-5.288h-6.107v5.288h-1.117zm11.245 0V18.871h7.002v1.043h-5.81v3.798h5.438v1.043h-5.438v4.32h5.959v.968H85.8zm9.311 0V18.871h3.129c1.191 0 2.085.224 2.755.745.671.521 1.043 1.266 1.043 2.234s-.372 1.713-1.043 2.235c-.67.521-1.638.744-2.755.744h-2.011v5.214H95.11zm1.192-6.182h1.937c.893 0 1.564-.149 2.01-.521.447-.372.671-.82.671-1.49 0-1.34-.894-2.01-2.756-2.01h-1.937v4.021h.075zm7.968 6.182V18.871h6.331v1.043h-5.213v10.13h-1.118zm9.087-11.172h-1.117v11.172h1.117V18.871zm2.011 11.172l3.054-4.915c-.894-.15-1.564-.522-2.086-1.043-.521-.521-.744-1.192-.744-2.085 0-1.043.372-1.788 1.042-2.384.671-.596 1.713-.82 2.905-.82h3.128V29.97h-1.117v-4.841h-2.011l-2.905 4.84h-1.266v.075zm4.394-5.81h1.862V19.84h-1.862c-2.01 0-2.979.744-2.979 2.16 0 .744.224 1.266.745 1.638.521.372 1.266.596 2.234.596zm15.045 6.108c-1.713 0-3.053-.521-4.17-1.639-1.118-1.117-1.639-2.532-1.639-4.245s.521-3.128 1.639-4.245c1.117-1.117 2.532-1.639 4.17-1.639.82 0 1.565.15 2.309.447a3.601 3.601 0 011.639 1.266l-.968.67a4.146 4.146 0 00-1.192-1.042c-.521-.298-1.117-.447-1.788-.447-1.415 0-2.532.447-3.351 1.415s-1.266 2.086-1.266 3.5c0 1.416.447 2.533 1.266 3.501.819.969 2.011 1.415 3.351 1.415 1.49 0 2.533-.521 3.278-1.638l.893.596c-.372.596-.968 1.117-1.713 1.49-.67.446-1.489.595-2.458.595zm15.343-1.638c-1.117 1.117-2.532 1.638-4.171 1.638-1.638 0-3.053-.521-4.171-1.639-1.117-1.117-1.638-2.532-1.638-4.245s.521-3.128 1.638-4.245c1.118-1.117 2.533-1.639 4.171-1.639 1.639 0 3.054.522 4.171 1.639 1.117 1.117 1.639 2.532 1.639 4.245s-.522 3.128-1.639 4.245zm-7.522-.745c.819.968 1.936 1.415 3.351 1.415s2.533-.447 3.352-1.415 1.266-2.086 1.266-3.426c0-1.341-.447-2.533-1.266-3.5-.819-.97-1.937-1.416-3.352-1.416-1.415 0-2.532.447-3.351 1.415-.82.968-1.266 2.085-1.266 3.5 0 1.416.372 2.459 1.266 3.427zm11.47 2.085V18.871h1.117v4.841h6.107v-4.84h1.192v11.171h-1.192v-5.288h-6.107v5.288h-1.117zm19.886 2.756v-2.756h-8.565V18.871h1.117v10.204h6.107V18.87h1.118v10.204h1.266v3.724h-1.043zm2.235-2.756l3.053-4.915c-.893-.15-1.564-.522-2.085-1.043-.521-.521-.745-1.192-.745-2.085 0-1.043.373-1.788 1.043-2.384.745-.521 1.713-.82 2.905-.82h3.128V29.97h-1.043v-4.841h-2.011l-2.905 4.84h-1.34v.075zm4.394-5.81h1.862V19.84h-1.862c-2.011 0-2.979.744-2.979 2.16 0 .744.223 1.266.745 1.638.521.372 1.266.596 2.234.596zM66.585 42.035c-.373 0-.745-.15-1.118-.373-.297-.223-.447-.595-.447-1.042 0-.224.075-.447.15-.596.074-.15.223-.298.372-.447.149-.075.298-.224.521-.298.15-.074.373-.149.67-.149.298 0 .522-.074.745-.074h.82v-.15c0-.819-.373-1.191-1.192-1.191-.521 0-.968.149-1.34.521l-.373-.447c.447-.446 1.043-.67 1.787-.67.522 0 .969.15 1.267.447.297.298.52.67.52 1.192v2.01c0 .373 0 .745.075 1.043h-.595c-.075-.223-.075-.521-.075-.744-.521.67-1.043.968-1.787.968zm.149-.596c.446 0 .819-.149 1.042-.447.298-.298.373-.67.373-1.043v-.372h-1.044c-.223 0-.52.075-.744.149-.223.074-.447.149-.596.298a.676.676 0 00-.223.521c0 .298.074.522.298.67.372.15.596.224.894.224zm3.426.521c-.223 0-.372 0-.521-.075l.074-.596c.075 0 .224.075.298.075.373 0 .596-.223.82-.596.148-.372.223-1.043.223-1.936v-1.564h3.277v4.543h-.596v-4.022H71.8v1.192c0 .893-.15 1.638-.373 2.085-.298.596-.67.894-1.266.894zm5.884-.074v-4.543h.67v1.713h1.118c.595 0 .968.149 1.34.372.298.224.447.596.447 1.043 0 .447-.149.82-.447 1.043-.298.223-.745.372-1.34.372h-1.788zm.67-.596h1.192c.67 0 1.043-.298 1.043-.82 0-.595-.373-.893-1.043-.893h-1.192v1.713zm4.842.596v-4.022h-1.713v-.521h3.947v.521h-1.638v4.022h-.596zm5.139.148c-.67 0-1.266-.223-1.713-.67-.447-.447-.67-1.043-.67-1.713 0-.67.223-1.266.67-1.713.447-.447.968-.67 1.638-.67.67 0 1.192.223 1.639.67.372.447.596.968.596 1.639v.297h-3.799c0 .447.15.82.522 1.192.298.298.67.447 1.191.447.298 0 .596-.075.894-.224.224-.148.447-.372.596-.52l.521.372c-.596.52-1.266.893-2.085.893zm-1.639-2.755h3.129c0-.447-.15-.82-.447-1.043-.298-.298-.596-.447-1.118-.447-.447 0-.819.149-1.117.447a2.225 2.225 0 00-.447 1.043zm5.139 4.915v-6.852h.67v.82c.15-.299.448-.522.745-.671.298-.149.67-.223.969-.223.67 0 1.266.223 1.713.67.447.447.67 1.043.67 1.713 0 .67-.223 1.266-.67 1.713-.447.447-.969.67-1.713.67-.298 0-.67-.074-.969-.223-.297-.15-.595-.373-.744-.67v3.128h-.67v-.075zm2.31-2.756c.52 0 .967-.149 1.265-.52.298-.373.447-.746.447-1.341 0-.522-.149-.969-.447-1.341-.298-.373-.745-.521-1.266-.521s-.894.148-1.266.52c-.298.373-.521.82-.521 1.342 0 .52.149.968.521 1.34.372.372.745.521 1.266.521zm3.798.448v-4.543h.67v1.936h2.607v-1.936h.67v4.543h-.67v-2.085h-2.607v2.085h-.67zm6.852.149c-.372 0-.745-.15-1.117-.373-.298-.223-.447-.595-.447-1.042 0-.224.074-.447.149-.596.074-.15.223-.298.372-.447.149-.075.298-.224.522-.298.149-.074.372-.149.67-.149.298 0 .521-.074.745-.074h.819v-.15c0-.819-.372-1.191-1.192-1.191-.521 0-.968.149-1.34.521l-.373-.447c.447-.446 1.043-.67 1.788-.67.521 0 .968.15 1.266.447.298.298.521.67.521 1.192v2.01c0 .373 0 .745.075 1.043h-.596c-.075-.223-.075-.521-.075-.744-.521.67-1.117.968-1.787.968zm.149-.596c.447 0 .819-.149 1.043-.447.298-.298.372-.67.372-1.043v-.372h-1.043c-.223 0-.521.075-.745.149-.223.074-.446.149-.595.298a.676.676 0 00-.224.521c0 .298.075.522.298.67.373.15.596.224.894.224zm4.692.447v-4.022h-1.639v-.521h3.948v.521h-1.639v4.022h-.67zm3.277 0v-4.543h.671v3.65l2.681-3.65h.745v4.543h-.67v-3.65l-2.682 3.65h-.745zm5.735 0v-4.543h2.16c.447 0 .745.074 1.042.298.298.149.447.447.447.894a.845.845 0 01-.223.595 1.627 1.627 0 01-.596.373c.298 0 .521.149.745.372.223.224.298.447.298.82 0 .372-.149.67-.447.893-.298.224-.745.373-1.266.373h-2.16v-.075zm.67-2.607h1.415c.224 0 .447-.074.596-.149.149-.074.224-.298.224-.521 0-.447-.298-.67-.969-.67h-1.266v1.34zm0 2.011h1.415c.298 0 .596-.074.745-.149.223-.149.298-.298.298-.596 0-.52-.372-.744-1.043-.744h-1.489v1.49h.074zm4.544.596v-4.543h.67v1.936h2.607v-1.936h.67v4.543h-.67v-2.085h-2.607v2.085h-.67zm6.852.149c-.373 0-.745-.15-1.117-.373-.298-.223-.447-.595-.447-1.042 0-.224.074-.447.149-.596.074-.15.223-.298.372-.447.149-.075.298-.224.521-.298a1.49 1.49 0 01.671-.149c.298 0 .521-.074.745-.074h.819v-.15c0-.819-.373-1.191-1.192-1.191-.521 0-.968.149-1.34.521l-.373-.447c.447-.446 1.043-.67 1.788-.67.521 0 .968.15 1.266.447.298.298.521.67.521 1.192v2.01c0 .373 0 .745.075 1.043h-.596c-.075-.223-.075-.521-.075-.744-.521.67-1.117.968-1.787.968zm.149-.596c.447 0 .819-.149 1.043-.447.297-.298.372-.67.372-1.043v-.372h-1.043c-.223 0-.521.075-.745.149-.223.074-.446.149-.595.298a.676.676 0 00-.224.521c0 .298.075.522.298.67.372.15.596.224.894.224zm8.118.595c-.67 0-1.266-.223-1.713-.67-.447-.447-.67-1.043-.67-1.713 0-.67.223-1.266.67-1.713.447-.447.969-.67 1.639-.67s1.192.223 1.638.67c.373.447.596.968.596 1.639v.297h-3.798c0 .447.149.82.521 1.192.298.298.67.447 1.192.447.298 0 .596-.075.894-.224.223-.148.446-.372.595-.52l.522.372c-.671.52-1.341.893-2.086.893zm-1.638-2.755h3.128c0-.447-.149-.82-.447-1.043-.298-.298-.596-.447-1.117-.447-.447 0-.819.149-1.117.447-.298.298-.447.596-.447 1.043zm5.064 2.607v-4.543h.67v1.936h2.607v-1.936h.67v4.543h-.67v-2.085h-2.607v2.085h-.67zm7.671.148c-.67 0-1.266-.223-1.713-.67-.447-.447-.67-1.043-.67-1.713 0-.67.223-1.266.67-1.713.447-.447.968-.67 1.639-.67.67 0 1.191.223 1.638.67.373.447.596.968.596 1.639v.297h-3.873c0 .447.149.82.521 1.192.298.298.671.447 1.192.447.298 0 .596-.075.894-.224.223-.148.447-.372.596-.52l.521.372c-.596.52-1.266.893-2.011.893zm-1.639-2.755h3.129c0-.447-.149-.82-.447-1.043-.298-.298-.596-.447-1.117-.447-.447 0-.82.149-1.118.447-.298.298-.447.596-.447 1.043zm5.065 4.915v-6.852h.671v.82c.149-.299.446-.522.744-.671.298-.149.671-.223.969-.223.67 0 1.266.223 1.713.67.447.447.67 1.043.67 1.713 0 .67-.223 1.266-.67 1.713-.447.447-.969.67-1.713.67-.298 0-.671-.074-.969-.223-.298-.15-.595-.373-.744-.67v3.128h-.671v-.075zm2.384-2.756c.521 0 .968-.149 1.266-.52.298-.373.447-.746.447-1.341 0-.522-.149-.969-.447-1.341-.298-.373-.745-.521-1.266-.521-.522 0-.894.148-1.267.52-.297.373-.521.82-.521 1.342 0 .52.149.968.521 1.34.298.372.745.521 1.267.521zm3.724.448v-4.543h3.053v.521h-2.383v4.022h-.67zm5.958.148c-.67 0-1.266-.223-1.713-.67-.447-.447-.67-1.043-.67-1.713 0-.67.223-1.266.67-1.713.447-.447.968-.67 1.639-.67.67 0 1.191.223 1.638.67.373.447.596.968.596 1.639v.297h-3.798c0 .447.149.82.521 1.192.298.298.67.447 1.192.447.298 0 .596-.075.893-.224.224-.148.447-.372.596-.52l.522.372c-.671.52-1.341.893-2.086.893zm-1.713-2.755h3.128c0-.447-.149-.82-.447-1.043-.297-.298-.595-.447-1.117-.447-.447 0-.819.149-1.117.447a2.234 2.234 0 00-.447 1.043zm6.108 2.607v-4.022h-1.638v-.521h3.947v.521h-1.639v4.022h-.67zm3.277 0v-4.543h.67v3.65l2.681-3.65h.745v4.543h-.67v-3.65l-2.682 3.65h-.744zm5.809 0v-4.543h.67v2.16l2.086-2.16h.968l-2.309 2.16 2.533 2.383h-.969l-2.309-2.309v2.31h-.67zm6.107.149c-.372 0-.745-.15-1.117-.373-.298-.223-.447-.595-.447-1.042 0-.224.075-.447.149-.596.075-.15.224-.298.372-.447.149-.075.298-.224.522-.298.149-.074.372-.149.67-.149.298 0 .522-.074.745-.074h.819v-.15c0-.819-.372-1.191-1.191-1.191-.522 0-.969.149-1.341.521l-.372-.447c.446-.446 1.042-.67 1.787-.67.521 0 .968.15 1.266.447.298.298.522.67.522 1.192v2.01c0 .373 0 .745.074 1.043h-.596c-.074-.223-.074-.521-.074-.744-.522.67-1.117.968-1.788.968zm.149-.596c.447 0 .819-.149 1.043-.447.298-.298.372-.67.372-1.043v-.372h-1.042c-.224 0-.522.075-.745.149-.224.074-.447.149-.596.298a.676.676 0 00-.224.521c0 .298.075.522.298.67.373.15.596.224.894.224zM31.282 51.792c-4.544-.894-8.491-2.83-12.066-5.214-4.841-3.352-11.172-12.885-5.959-23.387C19.44 10.753 33.441 8.742 43.422 10.828c-9.534-.969-18.77 3.575-23.834 10.65-4.99 6.927-3.426 13.407-3.128 14.747 2.532.969 2.681 1.043 5.363 1.564A30.02 30.02 0 0056.53 15.967c-.074-.075.075.074 0 0C52.434 8.22 44.986 2.337 35.676.549c-8.863-1.713-17.577.67-24.132 5.884-2.383 1.862-4.468 4.097-6.256 6.63 0 .074-.074.074-.074.148-.224.298-.373.596-.596.894-.075.074-.15.223-.224.298a8.133 8.133 0 00-.447.819l-.223.447a3.477 3.477 0 00-.372.745c-.075.149-.15.372-.298.521-.15.224-.224.447-.298.67-.075.224-.15.447-.298.596-.075.224-.224.447-.298.67-.075.224-.149.447-.298.67l-.223.671c-.075.224-.15.521-.224.745-.074.223-.149.372-.223.596l-.224.893c-.074.15-.074.298-.149.522-.149.447-.223.968-.298 1.415-.149.67-.223 1.266-.298 1.937 0 .148-.074.372-.074.52-.075.522-.075 1.044-.149 1.565v2.607c0 .521.074 1.042.074 1.564 0 .149 0 .298.075.447.074.595.149 1.266.223 1.862.075.596.224 1.266.373 1.862 0 .149.074.223.074.372.15.596.298 1.192.447 1.713v.075c.224.596.373 1.266.67 1.862 0 .074.075.149.075.223.223.596.447 1.117.67 1.639 0 .074.075.074.075.149.596 1.191 1.191 2.308 1.936 3.426l.075.074c1.862 2.83 4.096 5.363 6.777 7.448 3.65 2.83 7.895 4.841 12.736 5.735 12.513 2.383 24.728-3.352 31.133-13.555-6.554 5.213-15.268 7.597-24.131 5.884z" fill="#58B33E"/></svg>