<svg fill="#fff" xmlns="http://www.w3.org/2000/svg" viewBox="0 0 102.7 141.7"><path d="M4.2 4.5v94h94v-94h-94zm43.9 47L8.5 91.1V11.9l39.6 39.6zM11.5 8.8h79.2L51.2 48.5 11.5 8.8zm39.7 45.8l39.6 39.6H11.5l39.7-39.6zm3-3.1l39.6-39.6v79.2L54.2 51.5zM41.5 35.2V39h19.1V8.8H41.5v3.6h14.9v9.7H41.5v3.5h14.9v9.6H41.5zm25.9 42.3c0 4.6-1.6 8.5-4.7 11.8-3.1 3.3-7 4.9-11.6 4.9-4.5 0-8.4-1.6-11.5-4.9-3.2-3.3-4.7-7.2-4.7-11.7 0-4.5 1.6-8.3 4.8-11.5 3.2-3.2 7.1-4.8 11.5-4.8 4.5 0 8.3 1.6 11.4 4.8 3.2 3.1 4.8 6.9 4.8 11.4zm-4.4-.1c0-3.2-1.2-6-3.5-8.4-2.3-2.4-5.1-3.6-8.3-3.6-3.2 0-6 1.2-8.3 3.7-2.3 2.4-3.5 5.2-3.5 8.4 0 3.3 1.1 6.2 3.4 8.7 2.3 2.5 5.1 3.8 8.4 3.8 3.5 0 6.3-1.2 8.5-3.7 2.2-2.4 3.3-5.4 3.3-8.9zm-30.3 55.9v4.3H7.4v-33.7h25.3v4H11.9v10.8h20.8v3.9H11.9v10.7h20.8zm26.1 4.3L50.2 124l-8.6 13.6h-5.1l11.2-17-11-16.7h5.2l8.3 13.5 8.2-13.5h5.2l-11 16.7 11.2 17h-5zm39.4-17c0 4.9-1.7 9.1-5 12.5-3.3 3.5-7.4 5.2-12.3 5.2-4.8 0-8.9-1.7-12.3-5.2-3.4-3.5-5-7.7-5-12.5 0-4.7 1.7-8.8 5.2-12.2 3.4-3.4 7.5-5.1 12.3-5.1 4.8 0 8.8 1.7 12.2 5.1 3.2 3.3 4.9 7.4 4.9 12.2zm-4.8-.1c0-3.4-1.2-6.4-3.7-8.9-2.5-2.6-5.4-3.8-8.8-3.8-3.4 0-6.4 1.3-8.8 3.9-2.5 2.6-3.7 5.6-3.7 9 0 3.5 1.2 6.6 3.7 9.3 2.4 2.7 5.4 4 8.9 4 3.7 0 6.7-1.3 9.1-4 2.2-2.7 3.3-5.8 3.3-9.5z"/></svg>