<svg xmlns="http://www.w3.org/2000/svg" viewBox="0 0 119.65 25.76"><g data-name="Слой 2"><path d="M14 0C5.94 0 0 5 0 12.86s5.94 12.9 14 12.9 14-5 14-12.9S22.08 0 14 0zm0 19.79c-4.38 0-7.27-2.58-7.27-6.93S9.65 6 14 6s7.26 2.57 7.26 6.88-2.86 6.91-7.26 6.91zM49.39 7v-.43H32.55V.65h24.93V9l-16.84 9.48v.38h16.84v5.92H32.55v-8.36zm63.75 10.11h.4V.82h6.11V25H111l-9.74-16.3h-.4V25h-6.13V.82h8.63zM76.4 0c-8.09 0-14 5-14 12.86s5.94 12.9 14 12.9 14-5 14-12.9S84.45 0 76.4 0zm0 19.79c-4.38 0-7.27-2.58-7.27-6.93S72 6 76.4 6s7.27 2.57 7.27 6.88-2.89 6.91-7.27 6.91z" fill="#ffb228" data-name="Layer 1"/></g></svg>