<svg xmlns="http://www.w3.org/2000/svg" viewBox="0 0 97.13 121.3"><g data-name="Слой 2"><g data-name="Layer 1"><path d="M23.79 0C10.07 0 0 8.74 0 22.53s10.07 22.59 23.79 22.59 23.78-8.81 23.78-22.59S37.43 0 23.79 0zm0 34.65c-7.42 0-12.33-4.5-12.33-12.12s4.91-12.06 12.33-12.06S36.11 15 36.11 22.53s-4.9 12.12-12.32 12.12zm59.62-22.48v-.67H54.87V1.14h42.26v14.69L68.59 32.36V33h28.54v10.39H54.87V28.76zm2.68 70.32h.67V54h10.37v42.21h-14.7L65.91 67.67h-.68v28.54H54.87V54H69.5zm-62.3-29.97C10.07 52.52 0 61.26 0 75.05s10.07 22.59 23.79 22.59 23.78-8.81 23.78-22.59-10.14-22.53-23.78-22.53zm0 34.65c-7.42 0-12.33-4.5-12.33-12.12S16.37 63 23.79 63s12.32 4.5 12.32 12.06-4.9 12.11-12.32 12.11z" fill="#ffb228"/><path d="M9.17 107.37a3.6 3.6 0 011.83 1.39 4.82 4.82 0 01.79 1.78 9 9 0 01.2 1.81 7.25 7.25 0 01-.88 3.71 4 4 0 01-3.68 2H2.74v-11h4.73a5.74 5.74 0 011.7.31zM5 109v7.16h2.09a2.28 2.28 0 002.26-1.6 5.48 5.48 0 00.35-2.09 5.12 5.12 0 00-.52-2.57 2.22 2.22 0 00-2.09-.9zm13.87 1.16a3.18 3.18 0 011.4 1.2 3.89 3.89 0 01.65 1.68 10.05 10.05 0 01.07 1.61h-5.91a2 2 0 00.85 1.71 2.17 2.17 0 001.17.3 1.79 1.79 0 001.18-.37 1.69 1.69 0 00.43-.56h2.17a2.65 2.65 0 01-.79 1.47 3.92 3.92 0 01-3.09 1.18 4.46 4.46 0 01-2.86-1 4 4 0 01-1.24-3.25 4.43 4.43 0 011.12-3.24 3.91 3.91 0 012.9-1.12 4.49 4.49 0 011.95.39zM15.7 112a2.24 2.24 0 00-.57 1.26h3.66a1.79 1.79 0 00-.57-1.29 1.87 1.87 0 00-1.26-.43 1.67 1.67 0 00-1.26.46zm11.37-2h2.27l-2.93 8.12h-2.23L21.26 110h2.39l1.69 6zm8.77.16a3.29 3.29 0 011.4 1.2 4 4 0 01.65 1.68 11.4 11.4 0 01.07 1.61H32a2 2 0 00.85 1.71 2.21 2.21 0 001.17.3 1.77 1.77 0 001.18-.37 1.71 1.71 0 00.44-.56h2.16a2.57 2.57 0 01-.78 1.47 4 4 0 01-3.02 1.18 4.41 4.41 0 01-2.85-1 3.93 3.93 0 01-1.24-3.25A4.42 4.42 0 0131 110.9a3.93 3.93 0 012.91-1.12 4.56 4.56 0 011.93.38zM32.66 112a2.17 2.17 0 00-.56 1.26h3.65a1.79 1.79 0 00-.56-1.29 1.87 1.87 0 00-1.26-.43 1.68 1.68 0 00-1.27.46zm8.54 6.11h-2.13v-11h2.13zm8.8-.99a3.8 3.8 0 01-3.12 1.26 3.81 3.81 0 01-3.13-1.26 5.07 5.07 0 010-6.1 3.77 3.77 0 013.13-1.29A3.76 3.76 0 0150 111a5.07 5.07 0 010 6.1zm-1.7-1.18a3.78 3.78 0 000-3.76 1.71 1.71 0 00-1.43-.65 1.73 1.73 0 00-1.44.65 3.78 3.78 0 000 3.76 1.71 1.71 0 001.44.66 1.7 1.7 0 001.47-.66zm11.11-5.08a4.35 4.35 0 011 3.09 4.86 4.86 0 01-1 3.27 3.15 3.15 0 01-2.5 1.12 2.64 2.64 0 01-1.62-.48 3.27 3.27 0 01-.69-.79v4.23h-2.1V110h2v1.2a3.36 3.36 0 01.73-.83 2.66 2.66 0 011.69-.55 3.21 3.21 0 012.49 1.04zm-1.63 1.53a1.52 1.52 0 00-1.4-.72 1.6 1.6 0 00-1.61 1.09 4.16 4.16 0 00-.22 1.48 2.35 2.35 0 00.76 2 1.75 1.75 0 001.07.33 1.56 1.56 0 001.36-.68 3.61 3.61 0 000-3.49zM72 110a2.36 2.36 0 01.94.73 2.3 2.3 0 01.46 1 7.18 7.18 0 01.08 1.2v5.12h-2.16v-5.17a1.69 1.69 0 00-.15-.76 1.05 1.05 0 00-1-.56 1.23 1.23 0 00-1.22.73 2.31 2.31 0 00-.17.93v4.83H66.6v-4.83a2.68 2.68 0 00-.14-1 1 1 0 00-1-.59 1.25 1.25 0 00-1.23.59 2.29 2.29 0 00-.17 1v4.89h-2.2V110h2.06v1.18a3.68 3.68 0 01.75-.9 2.93 2.93 0 013.1-.07 2.41 2.41 0 01.7 1 2.69 2.69 0 011-1 3.2 3.2 0 011.46-.34A2.82 2.82 0 0172 110zm8.75.16a3.29 3.29 0 011.4 1.2 4 4 0 01.65 1.64 10.05 10.05 0 01.07 1.61H77a1.94 1.94 0 00.84 1.71 2.21 2.21 0 001.17.3 1.77 1.77 0 001.18-.37 1.71 1.71 0 00.44-.56h2.17a2.65 2.65 0 01-.8 1.51 3.93 3.93 0 01-3 1.18 4.44 4.44 0 01-2.86-1 3.93 3.93 0 01-1.24-3.25 4.38 4.38 0 011.12-3.24 3.9 3.9 0 012.9-1.12 4.53 4.53 0 011.83.39zM77.57 112a2.23 2.23 0 00-.56 1.26h3.65a1.75 1.75 0 00-.56-1.26 1.87 1.87 0 00-1.26-.43 1.69 1.69 0 00-1.27.43zm12.92-1.54a2.69 2.69 0 01.79 2.18v5.47h-2.17v-4.94a2.33 2.33 0 00-.17-1 1.19 1.19 0 00-1.18-.63 1.46 1.46 0 00-1.47.92 3.11 3.11 0 00-.21 1.24v4.39H84V110h2v1.18a3.48 3.48 0 01.77-.9 2.68 2.68 0 011.66-.49 3.11 3.11 0 012.06.67zm1.93 1.12v-1.51h1.14v-2.27h2.1v2.27H97v1.51h-1.34v4.29a1 1 0 00.12.62 1.44 1.44 0 00.78.12H97v1.58h-1a2.69 2.69 0 01-2.06-.52 1.54 1.54 0 01-.35-1.12v-5z" fill="#5a5c5f"/></g></g></svg>