<svg width="40" height="40" fill="none" xmlns="http://www.w3.org/2000/svg"><path d="M1.333 35.2h37.334a.575.575 0 00.583-.578v-23.11c0-.024-.012-.036-.012-.047a.406.406 0 00-.023-.116.409.409 0 00-.047-.104c-.011-.011-.011-.034-.023-.046l-4.667-6.933A.544.544 0 0034 4H6a.594.594 0 00-.49.254L.843 11.188c-.011.011-.011.034-.023.046-.023.034-.035.07-.047.104a.339.339 0 00-.023.115c0 .023-.012.035-.012.047v23.11c.012.336.269.59.595.59zm22.75-30.044h9.602l3.885 5.777H24.083V5.156zm-7 6.355V5.156h5.834V15.89l-2.509-2.485a.582.582 0 00-.828 0l-2.508 2.485v-4.38h.011zM6.315 5.156h9.602v5.777H2.418l3.897-5.777zm-4.398 6.933h14v5.2c0 .231.14.439.361.531a.577.577 0 00.63-.127L20 14.643l3.092 3.062a.569.569 0 00.63.127.576.576 0 00.361-.532v-5.2h14v21.956H1.917V12.089z" fill="#F66527"/><path d="M15.333 24.8H5.999a.575.575 0 00-.583.578c0 .323.257.577.583.577h9.334a.575.575 0 00.583-.577.575.575 0 00-.583-.578zm0 4.622H5.999a.575.575 0 00-.583.578c0 .324.257.578.583.578h9.334a.575.575 0 00.583-.578.575.575 0 00-.583-.578z" fill="#F66527"/></svg>