<svg width="155" height="38" fill="none" xmlns="http://www.w3.org/2000/svg"><g clip-path="url(#clip0_45_5633)" fill="#7843E9"><path d="M22.886 21.08v8.316l-7.625 4.158v-8.317l7.625-4.158zm-7.626 4.157v8.317l-7.646 4.158v-8.316l7.647-4.159zM7.614 37.712l-7.625-4.158v-8.317l7.625 4.159v8.316zM-.011 16.92l7.625-4.157 7.647 4.158-7.647 4.158-7.625-4.158z"/><path d="M7.614 29.396l-7.625-4.159v-8.316l7.625 4.158v8.317zm7.646-12.475V8.605l7.626-4.159v8.317L15.26 16.92zm7.626-4.158V4.446L30.532.288v8.317l-7.646 4.158zM30.532.288l7.625 4.158v8.317l-7.624-4.158V.288zm7.625 20.792l-7.624 4.157-7.648-4.158 7.647-4.158 7.625 4.158z"/><path d="M30.532 8.604l7.625 4.159v8.316l-7.624-4.158V8.604zm34.775 14.249v4.708a9.003 9.003 0 01-4.027.958c-2.978 0-5.37-.86-7.179-2.58-1.9-1.791-2.85-4.035-2.85-6.73 0-2.66.95-4.886 2.85-6.677 1.809-1.702 4.083-2.553 6.822-2.553 1.352 0 2.814.328 4.384.984v4.735c-1.224-1.26-2.648-1.889-4.274-1.889-1.498 0-2.74.461-3.726 1.383-1.15 1.082-1.726 2.448-1.726 4.097 0 1.613.53 2.917 1.589 3.91 1.023.993 2.338 1.49 3.945 1.49 1.516 0 2.914-.612 4.192-1.836zm2.918-6.597h3.945V22.8c0 .869.228 1.507.685 1.915.42.372.968.559 1.644.559.694 0 1.25-.187 1.671-.559.439-.408.658-1.046.658-1.915v-6.544h3.945v6.916c0 .816-.091 1.525-.274 2.128-.164.585-.53 1.144-1.096 1.676-1.078 1.029-2.712 1.543-4.904 1.543-2.21 0-3.854-.514-4.932-1.543-.895-.851-1.342-2.04-1.342-3.564v-7.156zm22.12 3.086h-2.44v8.778H83.96v-8.778h-1.37v-3.086h1.37v-3.83h3.946v3.83h2.438v3.086zm15.365 3.511v4.708c-1.297.639-2.639.958-4.027.958-2.978 0-5.37-.86-7.179-2.58-1.9-1.791-2.85-4.035-2.85-6.73 0-2.66.95-4.886 2.85-6.677 1.808-1.702 4.083-2.553 6.822-2.553 1.352 0 2.813.328 4.384.984v4.735c-1.224-1.26-2.648-1.889-4.274-1.889-1.498 0-2.74.461-3.726 1.383-1.15 1.082-1.726 2.448-1.726 4.097 0 1.613.53 2.917 1.589 3.91 1.023.993 2.338 1.49 3.945 1.49 1.516 0 2.914-.612 4.192-1.836zm14.836-5.08c1.224 1.188 1.835 2.66 1.835 4.415 0 1.756-.611 3.228-1.835 4.416-1.315 1.277-3.096 1.915-5.343 1.915s-4.028-.638-5.343-1.915c-1.223-1.188-1.836-2.66-1.836-4.416 0-1.755.613-3.227 1.836-4.415 1.315-1.277 3.096-1.916 5.343-1.916s4.028.639 5.343 1.916zm-3.124 2.18c-.584-.567-1.324-.85-2.219-.85-.895 0-1.635.283-2.219.85-.603.586-.905 1.33-.905 2.235 0 .905.302 1.65.905 2.235.584.567 1.333.85 2.246.85.877 0 1.608-.283 2.192-.85.603-.586.904-1.33.904-2.235 0-.904-.301-1.65-.904-2.234zM138.158 8.73v19.39h-3.946v-1.436c-.858 1.224-2.146 1.836-3.863 1.836s-3.114-.54-4.192-1.623c-1.278-1.241-1.918-2.828-1.918-4.761 0-1.933.64-3.494 1.918-4.682 1.151-1.064 2.567-1.596 4.247-1.596 1.662 0 2.932.577 3.808 1.73v-8.86h3.946zm-6.795 10.427c-.84 0-1.544.266-2.11.798-.639.585-.959 1.339-.959 2.26 0 .87.32 1.597.959 2.182.585.55 1.27.825 2.055.825.877 0 1.626-.293 2.247-.878.603-.55.904-1.26.904-2.128 0-.852-.292-1.578-.877-2.181-.584-.586-1.324-.878-2.219-.878zm13.496 1.41h5.343c-.147-.568-.411-1.029-.795-1.384-.493-.443-1.114-.665-1.863-.665-.804 0-1.471.258-2 .772a2.446 2.446 0 00-.685 1.276zm8.987 1.888v.4h-9.124c0 .815.246 1.489.74 2.02.474.497 1.15.745 2.027.745.658 0 1.187-.115 1.589-.345.311-.16.594-.488.85-.985l3.726.373c-.421 1.294-1.206 2.288-2.356 2.98-1.005.584-2.293.877-3.864.877-2.082 0-3.708-.567-4.877-1.702-1.224-1.189-1.835-2.714-1.835-4.576 0-1.88.62-3.44 1.863-4.681 1.168-1.135 2.73-1.703 4.685-1.703 2.064 0 3.68.594 4.85 1.783 1.15 1.188 1.726 2.793 1.726 4.814z"/></g><defs><clipPath id="clip0_45_5633"><path fill="#fff" d="M0 0h155v38H0z"/></clipPath></defs></svg>