<svg width="201" height="50" fill="none" xmlns="http://www.w3.org/2000/svg"><g clip-path="url(#clip0_1_1103)"><path d="M29.677 27.736v10.942L19.79 44.15V33.207l9.888-5.471zm-9.887 5.471V44.15l-9.918 5.47V38.678l9.916-5.47z" fill="#7843E9"/><path d="M9.873 49.621L-.015 44.15V33.207l9.888 5.471v10.943zM-.015 22.264l9.888-5.471 9.917 5.471-9.917 5.472-9.888-5.472z" fill="#7843E9"/><path d="M9.873 38.678l-9.888-5.47V22.263l9.888 5.472v10.942zm9.917-16.414V11.322l9.887-5.472v10.943l-9.887 5.471zm9.887-5.471V5.85L39.594.38v10.943l-9.917 5.47z" fill="#7843E9"/><path d="M39.594.379L49.48 5.85v10.943l-9.887-5.471V.379zm9.887 27.357l-9.887 5.471-9.917-5.471 9.917-5.472 9.887 5.472z" fill="#7843E9"/><path d="M39.594 11.322l9.887 5.47v10.944l-9.887-5.472V11.322z" fill="#7843E9"/><path d="M84.689 30.07v6.195c-1.682.84-3.423 1.26-5.223 1.26-3.861 0-6.964-1.132-9.309-3.395-2.463-2.357-3.695-5.308-3.695-8.855 0-3.5 1.232-6.428 3.695-8.785 2.345-2.24 5.294-3.36 8.847-3.36 1.753 0 3.648.432 5.685 1.295v6.23c-1.587-1.657-3.435-2.485-5.543-2.485-1.942 0-3.553.607-4.832 1.82-1.492 1.423-2.238 3.22-2.238 5.39 0 2.123.687 3.838 2.06 5.145 1.327 1.307 3.032 1.96 5.117 1.96 1.966 0 3.778-.805 5.436-2.415zm3.783-8.68h5.116V30c0 1.143.296 1.983.889 2.52.544.49 1.255.735 2.131.735.9 0 1.623-.245 2.168-.735.568-.537.852-1.377.852-2.52v-8.61h5.117v9.1c0 1.073-.119 2.007-.356 2.8-.213.77-.687 1.505-1.421 2.205-1.398 1.353-3.517 2.03-6.36 2.03-2.866 0-4.998-.677-6.395-2.03-1.16-1.12-1.741-2.683-1.741-4.69V21.39zm28.684 4.06h-3.162V37h-5.117V25.45h-1.776v-4.06h1.776v-5.04h5.117v5.04h3.162v4.06zm19.926 4.62v6.195c-1.682.84-3.423 1.26-5.223 1.26-3.861 0-6.963-1.132-9.308-3.395-2.464-2.357-3.696-5.308-3.696-8.855 0-3.5 1.232-6.428 3.696-8.785 2.345-2.24 5.294-3.36 8.847-3.36 1.752 0 3.647.432 5.684 1.295v6.23c-1.587-1.657-3.434-2.485-5.542-2.485-1.943 0-3.553.607-4.832 1.82-1.493 1.423-2.239 3.22-2.239 5.39 0 2.123.687 3.838 2.061 5.145 1.326 1.307 3.032 1.96 5.116 1.96 1.966 0 3.778-.805 5.436-2.415zm19.239-6.685c1.587 1.563 2.38 3.5 2.38 5.81 0 2.31-.793 4.247-2.38 5.81-1.706 1.68-4.015 2.52-6.929 2.52-2.913 0-5.223-.84-6.928-2.52-1.587-1.563-2.381-3.5-2.381-5.81 0-2.31.794-4.247 2.381-5.81 1.705-1.68 4.015-2.52 6.928-2.52 2.914 0 5.223.84 6.929 2.52zm-4.051 2.87c-.758-.747-1.717-1.12-2.878-1.12-1.16 0-2.119.373-2.878 1.12-.781.77-1.172 1.75-1.172 2.94s.391 2.17 1.172 2.94c.759.747 1.73 1.12 2.914 1.12 1.137 0 2.084-.373 2.842-1.12.782-.77 1.173-1.75 1.173-2.94s-.391-2.17-1.173-2.94zm26.889-14.77V37h-5.116v-1.89c-1.113 1.61-2.783 2.415-5.01 2.415-2.226 0-4.038-.712-5.436-2.135-1.658-1.633-2.487-3.722-2.487-6.265 0-2.543.829-4.597 2.487-6.16 1.492-1.4 3.328-2.1 5.507-2.1 2.156 0 3.802.758 4.939 2.275V11.485h5.116zm-8.811 13.72c-1.089 0-2.001.35-2.736 1.05-.829.77-1.243 1.762-1.243 2.975 0 1.143.414 2.1 1.243 2.87.758.723 1.647 1.085 2.665 1.085 1.137 0 2.108-.385 2.913-1.155.782-.723 1.173-1.657 1.173-2.8 0-1.12-.379-2.077-1.137-2.87-.758-.77-1.717-1.155-2.878-1.155zm17.501 1.855h6.929c-.19-.747-.533-1.353-1.031-1.82-.639-.583-1.445-.875-2.416-.875-1.042 0-1.907.338-2.594 1.015-.474.49-.77 1.05-.888 1.68zm11.654 2.485v.525h-11.831c0 1.073.319 1.96.959 2.66.616.653 1.492.98 2.629.98.853 0 1.54-.152 2.061-.455.402-.21.769-.642 1.101-1.295l4.832.49c-.545 1.703-1.563 3.01-3.055 3.92-1.303.77-2.973 1.155-5.01 1.155-2.7 0-4.809-.747-6.324-2.24-1.588-1.563-2.381-3.57-2.381-6.02 0-2.473.805-4.527 2.416-6.16 1.516-1.493 3.541-2.24 6.076-2.24 2.676 0 4.773.782 6.289 2.345 1.492 1.563 2.238 3.675 2.238 6.335z" fill="#fff"/></g><defs><clipPath id="clip0_1_1103"><path fill="#fff" d="M0 0h201v50H0z"/></clipPath></defs></svg>