<svg version="1.0" xmlns="http://www.w3.org/2000/svg" width="705.333" height="705.333" viewBox="0 0 529 529"><path d="M405 5.7c-27.8 16.1-35.8 20.8-39 22.6-6.8 3.8-20.5 11.8-22 12.7-.8.6-2.6 1.6-4 2.2-1.4.7-4.8 2.7-7.7 4.5-2.9 1.8-5.4 3.3-5.7 3.3-.3 0-3 1.6-6 3.5s-5.7 3.5-6 3.5c-.3 0-5.1 2.7-10.6 6s-10.3 6-10.6 6c-.3 0-3 1.6-6 3.5s-5.7 3.5-6 3.5c-.3 0-3 1.6-6 3.5s-5.6 3.5-5.8 3.5c-.3 0-17.4 9.8-22.6 13-.8.5-6.7 3.8-13 7.5-6.3 3.6-13.5 7.7-16 9.1-2.5 1.4-4.9 3-5.5 3.5-.6.6-1 21.8-1 58.9 0 31.9-.4 58-.8 58s-4.9-2.4-10-5.3c-37.3-21.8-90.3-52-91.2-52-.9 0-29.1 16.2-83.5 47.8-7.4 4.3-14.5 8.4-15.7 8.9L8 234.5v235.3l7.8 4.5c4.2 2.4 9.3 5.4 11.2 6.5 11.6 6.6 58 33.3 61 35.2 6.8 4 21.2 12 21.9 12 .7 0 29.7-16.6 71.6-41 5-2.9 11.3-6.5 14-8 2.8-1.5 12.7-7.2 22.1-12.7 9.4-5.5 17.7-10.3 18.5-10.6.8-.4 2.8-1.5 4.4-2.6 4-2.4 52.6-30.5 59-34.1 2.8-1.5 6.9-3.9 9.2-5.1l4.3-2.4v-58.8c0-32.4.4-58.7.8-58.5.8.3 28.3 16.1 31.2 17.9.8.5 16.8 9.7 35.5 20.5 30.4 17.5 34.2 19.4 36.3 18.4 2-.9 54.2-30.9 64.2-36.9 1.9-1.1 4.2-2.4 5-2.8.8-.4 7.1-4 13.9-8 6.7-4 12.6-7.3 13-7.3.5 0 1.5-.8 2.3-1.8 1.3-1.5 1.5-16 1.4-118.6l-.1-116.9-3-1.7c-3.3-1.9-36.8-21.3-72.5-42-12.9-7.5-24.2-13.9-25-14.2-.9-.3-5.7 1.8-11 4.9zm9.8 170.9l-.3 58.6-4.5 2.5c-2.5 1.4-9.7 5.6-16 9.3-6.3 3.7-14.6 8.5-18.5 10.7-3.8 2.2-20.5 11.8-37 21.3s-32 18.4-34.5 19.8c-2.5 1.4-6.1 3.5-8 4.7-1.9 1.2-5.5 3.3-8 4.7-4.8 2.7-18 10.3-33.2 19.1-23.4 13.6-75.8 43.8-100.8 58.2-15.1 8.7-29.2 16.9-31.2 18.2-2.1 1.2-4 2.3-4.3 2.3-.3 0-2.3 1.1-4.5 2.5-2.1 1.3-4.1 2.1-4.3 1.7-.1-.4-.3-26.8-.2-58.6l.1-57.9 22.4-13c12.4-7.1 24.3-14 26.5-15.2 2.2-1.3 9.6-5.6 16.5-9.5 6.9-4 14.3-8.3 16.5-9.5 2.2-1.3 16.6-9.6 32-18.5 15.4-8.9 29.4-17 31-18 1.7-.9 7.5-4.3 13-7.5s11.4-6.6 13-7.5c1.7-.9 14.9-8.6 29.5-17s28.2-16.3 30.3-17.4c2-1.2 11.8-6.8 21.8-12.6 9.9-5.8 19.9-11.6 22.2-12.9 2.3-1.3 8.9-5.1 14.7-8.5 13.6-8 14.4-8.4 15.3-8.5.4-.1.6 26.3.5 58.5z"/></svg>