<svg width="575" height="572" fill="none" xmlns="http://www.w3.org/2000/svg"><path fill-rule="evenodd" clip-rule="evenodd" d="M214.846 35.121h40.078V9.375a9.375 9.375 0 1 1 18.75 0v25.747h40.078V62.27h-98.905V35.12h-.001ZM477.45 377.483c53.679 0 97.195 43.515 97.195 97.195 0 53.679-43.516 97.196-97.195 97.196-53.679 0-97.195-43.517-97.195-97.196 0-53.68 43.516-97.195 97.195-97.195Zm-12.765 105.768-21.717-21.717c-5.629-5.629-14.76-5.629-20.389 0-5.628 5.628-5.628 14.758 0 20.387l31.943 31.943c5.629 5.628 14.76 5.628 20.389 0 19.253-19.254 38.288-38.724 57.453-58.067 5.589-5.64 5.571-14.741-.062-20.342-5.633-5.603-14.761-5.587-20.356.063l-47.261 47.733ZM32.397 183.98h98.905v19.155H32.397V183.98Zm131.302 299.649c-88.512.058-141.13.068-157.855.033A5.87 5.87 0 0 1 0 477.803v-250.06a5.87 5.87 0 0 1 5.86-5.859h151.98a5.87 5.87 0 0 1 5.859 5.859v255.886h-.001Zm-94.74-93.649H35.912a3.523 3.523 0 0 0-3.515 3.516v29.925a3.522 3.522 0 0 0 3.515 3.515H68.96a3.522 3.522 0 0 0 3.516-3.515v-29.925a3.523 3.523 0 0 0-3.516-3.516Zm-33.047-74.45H68.96a3.523 3.523 0 0 0 3.516-3.516v-29.921a3.523 3.523 0 0 0-3.516-3.516H35.912a3.523 3.523 0 0 0-3.515 3.516v29.921a3.523 3.523 0 0 0 3.515 3.516Zm58.827 0h33.047a3.523 3.523 0 0 0 3.516-3.516v-29.921a3.523 3.523 0 0 0-3.516-3.516H94.739a3.523 3.523 0 0 0-3.516 3.516v29.921a3.524 3.524 0 0 0 3.516 3.516Zm33.047 18.75H94.739a3.522 3.522 0 0 0-3.516 3.515v29.921a3.522 3.522 0 0 0 3.516 3.515h33.047a3.523 3.523 0 0 0 3.516-3.515v-29.921a3.522 3.522 0 0 0-3.516-3.515Zm-58.827 0H35.912a3.522 3.522 0 0 0-3.515 3.515v29.921a3.522 3.522 0 0 0 3.515 3.515H68.96a3.522 3.522 0 0 0 3.516-3.515v-29.921a3.522 3.522 0 0 0-3.516-3.515Zm58.827 55.7H94.739a3.523 3.523 0 0 0-3.516 3.516v29.925a3.522 3.522 0 0 0 3.516 3.515h33.047a3.523 3.523 0 0 0 3.516-3.515v-29.925a3.523 3.523 0 0 0-3.516-3.516Zm123.622-107.657h-33.047a3.522 3.522 0 0 1-3.515-3.515v-29.926a3.523 3.523 0 0 1 3.515-3.516h33.047a3.523 3.523 0 0 1 3.516 3.516v29.925a3.523 3.523 0 0 1-3.516 3.516Zm0-55.706h-33.047a3.521 3.521 0 0 1-3.515-3.515v-29.921a3.522 3.522 0 0 1 3.515-3.515h33.047a3.523 3.523 0 0 1 3.516 3.515v29.921a3.523 3.523 0 0 1-3.516 3.515Zm0-55.701h-33.047a3.523 3.523 0 0 1-3.515-3.516v-29.921a3.523 3.523 0 0 1 3.515-3.516h33.047a3.523 3.523 0 0 1 3.516 3.516V167.4a3.523 3.523 0 0 1-3.516 3.516Zm22.266 52.186v-29.921a3.522 3.522 0 0 1 3.515-3.515h33.047a3.523 3.523 0 0 1 3.516 3.515v29.921a3.523 3.523 0 0 1-3.516 3.515h-33.047a3.522 3.522 0 0 1-3.515-3.515Zm36.561-52.186h-33.047a3.523 3.523 0 0 1-3.515-3.516v-29.921a3.523 3.523 0 0 1 3.515-3.516h33.047a3.523 3.523 0 0 1 3.516 3.516V167.4a3.523 3.523 0 0 1-3.516 3.516Zm-36.561 107.892v-29.926a3.523 3.523 0 0 1 3.515-3.516h33.047a3.523 3.523 0 0 1 3.516 3.516v29.925a3.523 3.523 0 0 1-3.516 3.515h-33.047a3.52 3.52 0 0 1-3.515-3.514Zm-91.225 204.821h39.822V370.862c0-10.462 9.467-18.996 21.077-18.996h41.902c11.608 0 21.077 8.535 21.077 18.996v112.767h39.821V86.877a5.87 5.87 0 0 0-5.859-5.86H188.307a5.87 5.87 0 0 0-5.859 5.86l.001 396.752ZM397.295 183.98H496.2v19.155h-98.905V183.98Zm-32.398 262.781c8.396-33.958 29.768-60.111 60.144-75.53h-24.232a3.522 3.522 0 0 1-3.515-3.515v-29.921a3.522 3.522 0 0 1 3.515-3.515h33.047a3.523 3.523 0 0 1 3.516 3.515v28.055a115.104 115.104 0 0 1 18.75-5.15v-22.904a3.523 3.523 0 0 1 3.516-3.515h33.046a3.523 3.523 0 0 1 3.516 3.515v22.456a115.185 115.185 0 0 1 32.398 10.353V227.743a5.87 5.87 0 0 0-5.86-5.859H370.757a5.87 5.87 0 0 0-5.86 5.859v219.018Zm35.914-131.231a3.523 3.523 0 0 1-3.516-3.516v-29.921a3.523 3.523 0 0 1 3.516-3.516h33.046a3.523 3.523 0 0 1 3.516 3.516v29.921a3.523 3.523 0 0 1-3.516 3.516h-33.046Zm58.827 0a3.523 3.523 0 0 1-3.516-3.516v-29.921a3.523 3.523 0 0 1 3.516-3.516h33.046a3.523 3.523 0 0 1 3.516 3.516v29.921a3.523 3.523 0 0 1-3.516 3.516h-33.046Z" fill="#fff"/></svg>