<svg width="600" height="600" fill="none" xmlns="http://www.w3.org/2000/svg"><path fill-rule="evenodd" clip-rule="evenodd" d="m247.038 147.483-14.104-14.105-14.105 14.105h28.209Zm97.669 361.009H311.36v30.222h33.347v-30.222Zm52.096 0h-33.347v30.222h33.347v-30.222Zm-52.096-67.723H311.36v-30.222h33.347v30.222Zm52.096 0h-33.347v-30.222h33.347v30.222Zm-33.347 18.75h33.347v30.223h-33.347v-30.223Zm-52.096 0h33.347v30.223H311.36v-30.223Zm0-128.774h85.444v11.495H311.36v-11.495Zm193.515 52.235h-33.347v30.223h33.347V382.98Zm52.097 0h-33.347v30.223h33.347V382.98Zm-52.097-67.723h-33.347v-30.223h33.347v30.223Zm52.097 0h-33.347v-30.223h33.347v30.223Zm-33.347 18.75h33.347v30.222h-33.347v-30.222Zm-52.097 0h33.347v30.222h-33.347v-30.222Zm-27.987 253.102V239.295h141.418v347.814h-34.402V489.69c0-9.037-8.178-16.411-18.208-16.411h-36.198c-10.029 0-18.209 7.373-18.209 16.411v97.419h-34.401Zm27.987-378.639h85.444v12.076h-85.444V208.47Zm-46.737 378.639H283.372V360.99h141.419v226.119ZM272.014 145.944l14.105-14.105H257.91l14.104 14.105Zm53.186 1.539-14.105-14.105-14.104 14.105H325.2Zm62.97-13.02-13.019 13.02h28.585l-15.566-13.02Zm-37.995 11.481 14.105-14.105h-28.21l14.105 14.105Zm-144.179-37.542h120.697L205.996 50.33v58.072Zm-54.232 0h30.794V36.328h-11.311l-19.483 72.074Zm29.256 370.65-38.995-38.994v77.989l38.995-38.995Zm1.538-102.964v77.989l-38.994-38.994 38.994-38.995Zm-1.538-24.977-38.995-38.994v77.99l38.995-38.996Zm1.538-102.964v77.989l-38.994-38.994 38.994-38.995Zm-1.538-24.975-38.995-38.994v77.989l38.995-38.995Zm-25.737-52.252h27.275v27.276l-27.275-27.276Zm24.465-39.081 14.105 14.105 14.104-14.105h-28.209Zm-10.87 15.644-14.105-14.105-14.105 14.105h28.21Zm-51.838-2.888 12.756-12.756h-21.475l8.719 12.756Zm-20.638-36.193v-2.391a7.01 7.01 0 0 0-2.15-5.048l45.104-36.357-11.841 43.796H96.402Zm47.161 434.62 38.994-38.994v38.994h-38.994Zm-49.602 0h24.627V170.92H96.402v2.391c0 3.867-3.164 7.031-7.031 7.031h-67.3c-3.867 0-7.031-3.164-7.031-7.031V106.01c0-3.867 3.164-7.031 7.031-7.031h44.84l80.749-65.09 3.326-12.302c1.399-5.235 6.133-8.687 11.307-8.685l31.984-.011c6.472 0 11.719 5.246 11.719 11.718v4.998l163.766 78.795h19.494a11.68 11.68 0 0 1 8.02 3.175l46.214 38.652c8.427 7.051 3.283 20.664-7.507 20.67l-39.147.021v44.713h15.234a4.701 4.701 0 0 1 4.687 4.688v49.218a4.7 4.7 0 0 1-4.687 4.688h-49.219a4.7 4.7 0 0 1-4.687-4.688v-49.218a4.701 4.701 0 0 1 4.687-4.688h15.235V170.92h-172.09v372.102h24.627a4.701 4.701 0 0 1 4.687 4.688v34.712a4.7 4.7 0 0 1-4.687 4.687H93.961a4.7 4.7 0 0 1-4.688-4.687V547.71a4.701 4.701 0 0 1 4.688-4.688Z" fill="#fff"/></svg>