<svg width="32" height="32" fill="none" xmlns="http://www.w3.org/2000/svg"><path fill="#1B3529" d="M0 0h32v32H0z"/><path fill-rule="evenodd" clip-rule="evenodd" d="m19.167 8.582-.634 1.337h1.8c3.234 0 5.867 2.706 5.867 6.03 0 3.323-2.633 6.03-5.867 6.03h-2.866v1.336h2.866c3.934 0 7.167-3.29 7.167-7.366 0-4.078-3.2-7.367-7.167-7.367h-1.166Zm-.9 1.85-.8 1.645v9.353h2.866c2.967 0 5.367-2.466 5.367-5.516 0-3.049-2.4-5.516-5.367-5.516h-2.066v.034Zm-1.3 2.673-1.3 2.672v8.017h-.5V16.84L11.7 24l-.3-.548.033-.069c1.267-2.535 2.5-5.105 3.734-7.674l.2-.411c.833-1.748 1.7-3.495 2.533-5.242l.7-1.44h-1.433a2153.906 2153.906 0 0 0-4.3 8.874c-.5 1.063-1.034 2.09-1.534 3.152-.166.377-.333.72-.5 1.097l-.133.274L4 8.034h.533l6.2 12.745.7-1.473L5.967 8H6.5l5.2 10.758c1.733-3.563 3.467-7.126 5.2-10.724h3.433c4.234 0 7.667 3.53 7.667 7.88 0 4.351-3.433 7.88-7.667 7.88h-3.366v-10.69Z" fill="#fff"/></svg>