<svg width="67" height="51" fill="none" xmlns="http://www.w3.org/2000/svg"><path d="M40.91.84h-.313l-.137.281-1.498 3.074-.35.72h5.056c7.37 0 13.373 6.002 13.373 13.372S51.038 31.66 43.668 31.66H36.39v4.074h7.278c9.576 0 17.447-7.79 17.447-17.447A17.42 17.42 0 0 0 43.668.84H40.91Zm-2.63 4.638-1.839 3.678-.052.106v22.137h7.278c7.292 0 13.191-5.9 13.191-13.19 0-7.292-5.9-13.191-13.19-13.191H38.33l.032-.067.001-.002 1.654-3.307.362-.723H35.87l-.138.276c-3.39 6.779-6.78 13.559-10.17 20.418l-.001.003c-.589 1.217-1.198 2.415-1.809 3.617v.002c-.61 1.201-1.224 2.407-1.817 3.633l-.005.011c-.195.429-.39.839-.588 1.253v.002c-.152.318-.304.638-.457.968L5.849.58h.148L20.52 29.625l.453.905.444-.91 1.655-3.389.108-.221-.11-.22L10.502.5h.145l12.158 24.473.447.899.448-.898.002-.002C27.754 16.867 31.807 8.76 35.86.579h7.808c9.735 0 17.63 7.895 17.63 17.63 0 9.734-7.895 17.629-17.63 17.629h-7.46V11.745l-.948-.224-3.074 6.148-.053.106v18.063h-.182V20.336l-.948-.222-7.777 15.629-.116-.206c2.982-5.81 5.886-11.696 8.788-17.578l.001-.003.472-.943.002-.004a859.489 859.489 0 0 1 2.993-6.026v-.001c.978-1.954 1.956-3.91 2.915-5.866v.362ZM4.178 47.74h-.525v-.025h1.05v2.074H.5v-4.202h4.202v.025H.525v4.153h4.153V47.74h-.5Zm13.767.16-.148-.16h-1.744v2.05h-.025v-2.075h4.099v-2.103h-4.099v-.025h4.203v2.153h-2.423l.258.291-.12-.13Zm17.632-1.788v-.5h-4.153v4.153h4.153v-3.653Zm-4.178-.525H35.6v4.202h-4.2v-4.202Zm19.627 3.678v-3.678h.025v4.202h-4.203v-4.202h.025v4.178h4.153v-.5Zm11.296-1.025v1.55h-.025v-4.203H66.5v2.153h-4.178v.5Zm4.153-2.128v-.5h-4.153v2.024h4.153v-1.524Z" fill="#fff" stroke="#CB9F3A"/></svg>