<svg width="67" height="50" fill="none" xmlns="http://www.w3.org/2000/svg"><path fill-rule="evenodd" clip-rule="evenodd" d="M40.91 1.332 39.412 4.39h4.256c7.646 0 13.873 6.19 13.873 13.793 0 7.602-6.227 13.793-13.873 13.793H36.89v3.056h6.778c9.302 0 16.947-7.523 16.947-16.85 0-9.325-7.567-16.849-16.947-16.849H40.91Zm-2.13 4.232-1.89 3.762v21.395h6.778c7.016 0 12.691-5.643 12.691-12.618 0-6.975-5.675-12.617-12.69-12.617H38.78v.078Zm-3.074 6.113-3.074 6.113v18.339H31.45v-15.91L23.253 36.6l-.71-1.254.08-.157c2.995-5.8 5.911-11.677 8.828-17.555l.473-.94c1.97-3.997 4.02-7.994 5.99-11.99L39.57 1.41h-3.39a4899.27 4899.27 0 0 0-10.168 20.297c-1.182 2.43-2.444 4.781-3.626 7.21-.394.863-.788 1.646-1.182 2.508l-.316.627L5.045.078h1.261l14.661 29.154 1.656-3.37L9.696 0h1.26l12.297 24.608c4.099-8.15 8.198-16.3 12.297-24.53h8.118c10.011 0 18.13 8.072 18.13 18.025S53.679 36.13 43.668 36.13h-7.96V11.677Z" fill="#161616"/><path d="M5.202 50H0v-5.172h5.202v1.018H1.025v3.135h3.153v-1.019H3.153v-1.018h2.05V50Zm12.376-2.038h-1.025V50h-1.025v-5.172h5.203v3.134h-1.813L20.73 50h-1.262l-1.891-2.038Zm-1.104-1.018h3.153v-1.098h-3.153v1.098Zm14.425-2.116H36.1V50h-5.2v-5.172Zm4.178 1.018h-3.153v3.135h3.153v-3.135Zm12.296-1.018v4.153h3.153v-4.153h1.025V50h-5.203v-5.172h1.025ZM62.822 50h-1.024v-5.172H67v3.134h-4.178V50Zm3.153-4.154h-3.153v1.02h3.153v-1.02Z" fill="#161616"/></svg>