<?xml version="1.0" encoding="utf-8"?><svg xmlns="http://www.w3.org/2000/svg" xmlns:xlink="http://www.w3.org/1999/xlink"><symbol viewBox="0 0 8 12" id="arrow" xmlns="http://www.w3.org/2000/svg"><path fill-rule="evenodd" clip-rule="evenodd" d="M4.293 6 0 1.707 1.414.293 7.121 6l-5.707 5.707L0 10.293 4.293 6Z"/></symbol><symbol viewBox="0 0 24 24" id="close" xmlns="http://www.w3.org/2000/svg"><path d="M24 2.1 21.9 0 12 9.9 2.1 0 0 2.1 9.9 12 0 21.9 2.1 24l9.9-9.9 9.9 9.9 2.1-2.1-9.9-9.9L24 2.1Z"/></symbol><symbol viewBox="0 0 16 28" id="facebook" xmlns="http://www.w3.org/2000/svg"><path fill-rule="evenodd" clip-rule="evenodd" d="M6.092 2.547C7.302 1.35 9.012.75 11.012.75c.937 0 1.889.082 2.602.164a28.704 28.704 0 0 1 1.116.15l.066.01.018.003h.006l-.083.494.083-.493.417.07v4.968H12.64c-.927 0-1.453.28-1.755.625-.314.358-.457.865-.457 1.441v2.583h4.7l-.894 5.75h-3.806V28H4.226V16.516H0v-5.751h4.226v-3.12c0-2.162.654-3.9 1.866-5.098ZM14.237 2c-.193-.027-.445-.06-.736-.094a22.735 22.735 0 0 0-2.489-.157c-1.801 0-3.235.537-4.217 1.508-.981.97-1.57 2.428-1.57 4.386v4.121H1v3.75h4.226V27h4.2V15.516h3.95l.583-3.751H9.426V8.182c0-.724.18-1.5.705-2.1.537-.613 1.367-.966 2.508-.966h1.598V2Z"/></symbol><symbol viewBox="0 0 14 14" id="home" xmlns="http://www.w3.org/2000/svg"><path fill-rule="evenodd" clip-rule="evenodd" d="m7 0 7 6.087V14h-3.111V7.712L7 4.33 3.111 7.712V14H0V6.087L7 0Z"/></symbol><symbol viewBox="0 0 28 28" id="instagram" xmlns="http://www.w3.org/2000/svg"><path fill-rule="evenodd" clip-rule="evenodd" d="M13.604.375h.02c3.557 0 4.014.017 5.422.08 1.144.024 2.275.242 3.346.643l.005.002a7.222 7.222 0 0 1 4.124 4.117l.002.004a9.992 9.992 0 0 1 .642 3.384c.082 1.392.082 1.868.085 5.347v.068c0 3.554-.019 4.01-.082 5.416a10.07 10.07 0 0 1-.642 3.342l-.002.005A7.216 7.216 0 0 1 22.4 26.9l-.005.002c-1.07.4-2.2.618-3.343.641-1.399.082-1.877.082-5.407.082h-.02c-3.56 0-4.015-.019-5.427-.082a10.11 10.11 0 0 1-3.347-.688 7.22 7.22 0 0 1-4.125-4.116l-.002-.005a10.084 10.084 0 0 1-.642-3.339C0 17.997 0 17.521 0 13.997v-.02c0-3.552.019-4.008.082-5.415.022-1.142.24-2.272.643-3.34l.001-.005A7.204 7.204 0 0 1 4.85 1.1l.005-.002c1.07-.4 2.199-.618 3.34-.643 1.4-.08 1.878-.08 5.409-.08Zm.02 1c-3.563 0-4.005 0-5.38.08h-.019a9.144 9.144 0 0 0-3.017.579A6.217 6.217 0 0 0 1.66 5.577a9.024 9.024 0 0 0-.577 3.01V8.6C1.018 9.991 1 10.427 1 13.977c0 3.557 0 3.995.08 5.37l.001.01v.009a9.084 9.084 0 0 0 .578 3.014 6.208 6.208 0 0 0 3.553 3.542l.002.001a9.112 9.112 0 0 0 3.02.62l.005.001c1.394.062 1.83.081 5.386.081 3.563 0 4.004 0 5.379-.08l.01-.001h.01a9.12 9.12 0 0 0 3.018-.578 6.23 6.23 0 0 0 3.549-3.543 9.07 9.07 0 0 0 .578-3.014v-.012c.062-1.39.081-1.825.081-5.376v-.03c-.003-3.53-.003-3.967-.084-5.339V8.63a8.99 8.99 0 0 0-.578-3.052 6.207 6.207 0 0 0-3.55-3.543 9.144 9.144 0 0 0-3.018-.58h-.012c-1.392-.061-1.828-.079-5.384-.079Zm6.997 4.55a1.072 1.072 0 0 0-1.07 1.068 1.068 1.068 0 0 0 1.07 1.069 1.069 1.069 0 1 0 0-2.137Zm-.792-.843a2.073 2.073 0 0 1 2.705 1.12 2.066 2.066 0 0 1-1.912 2.86 2.072 2.072 0 0 1-2.072-2.07m-4.935.75a6.232 6.232 0 0 0-6.24 6.227 6.232 6.232 0 0 0 6.24 6.228 6.244 6.244 0 0 0 4.412-1.824 6.222 6.222 0 0 0 0-8.807 6.244 6.244 0 0 0-4.412-1.824Zm-7.24 6.227c0-3.993 3.242-7.227 7.24-7.227 1.92 0 3.76.761 5.118 2.116a7.222 7.222 0 0 1 0 10.223 7.245 7.245 0 0 1-5.118 2.116c-3.998 0-7.24-3.234-7.24-7.228Z"/><path fill-rule="evenodd" clip-rule="evenodd" d="M13.625 9.727a4.273 4.273 0 1 0 0 8.545 4.273 4.273 0 0 0 0-8.545ZM8.352 14a5.273 5.273 0 1 1 10.546 0 5.273 5.273 0 0 1-10.546 0Z"/></symbol><symbol viewBox="0 0 16 16" id="phone" xmlns="http://www.w3.org/2000/svg"><path fill-rule="evenodd" clip-rule="evenodd" d="M.746 2.526a2.552 2.552 0 0 0-.711 2.212c.431 2.617 1.823 5.213 3.916 7.308 2.092 2.094 4.686 3.484 7.311 3.92a2.555 2.555 0 0 0 2.21-.712l2.066-2.068a1.569 1.569 0 0 0 0-2.227l-2.225-2.225a1.57 1.57 0 0 0-2.228 0L9.458 10.36a7.647 7.647 0 0 1-2.254-1.563 7.676 7.676 0 0 1-1.569-2.254l1.627-1.628a1.57 1.57 0 0 0 0-2.227L5.04.462A1.57 1.57 0 0 0 3.924 0c-.421 0-.817.165-1.114.462L.746 2.526Zm5.751 6.98a8.648 8.648 0 0 0 2.548 1.766l.63.286 2.117-2.117a.567.567 0 0 1 .627-.126.57.57 0 0 1 .185.124l2.227 2.227a.568.568 0 0 1 .125.626.567.567 0 0 1-.124.185l-2.065 2.068h-.001c-.357.355-.86.514-1.341.435-2.396-.399-4.806-1.678-6.766-3.64-1.964-1.966-3.244-4.378-3.637-6.765l-.002-.009a1.552 1.552 0 0 1 .431-1.332L3.517 1.17c.11-.11.252-.169.407-.169h.001a.57.57 0 0 1 .405.168l2.224 2.228a.57.57 0 0 1 .003.812l-2.12 2.12.288.63a8.677 8.677 0 0 0 1.772 2.547Z"/></symbol><symbol viewBox="0 0 29 29" id="phone-2" xmlns="http://www.w3.org/2000/svg"><path fill-rule="evenodd" clip-rule="evenodd" d="M8.898.89A2.76 2.76 0 0 0 6.94.077c-.74 0-1.436.29-1.958.811L1.356 4.511a4.475 4.475 0 0 0-1.31 3.158c0 .249.021.487.062.722.757 4.592 3.203 9.147 6.88 12.824 3.673 3.672 8.23 6.111 12.841 6.878a4.492 4.492 0 0 0 3.881-1.25l3.63-3.629a2.752 2.752 0 0 0 .811-1.952c0-.74-.29-1.434-.811-1.955l-3.91-3.905a2.758 2.758 0 0 0-1.953-.81c-.74 0-1.436.29-1.958.81l-2.858 2.855a13.432 13.432 0 0 1-3.96-2.742 13.468 13.468 0 0 1-2.756-3.956l2.858-2.854a2.753 2.753 0 0 0 0-3.908L8.898.889Zm14.107 25.244.001-.001 3.628-3.628a1.755 1.755 0 0 0-.001-2.49l-3.91-3.907a1.756 1.756 0 0 0-1.246-.516c-.474 0-.916.183-1.252.518l-3.347 3.344-.63-.286a14.435 14.435 0 0 1-4.254-2.945 14.468 14.468 0 0 1-2.959-4.248l-.289-.632 3.352-3.348a1.754 1.754 0 0 0-.002-2.49L8.19 1.595a1.76 1.76 0 0 0-1.249-.518H6.94c-.474 0-.916.184-1.251.519L2.062 5.22a3.475 3.475 0 0 0-1.015 2.449c0 .193.015.374.046.55l.002.01c.719 4.361 3.052 8.732 6.6 12.278 3.542 3.542 7.915 5.87 12.297 6.6a3.492 3.492 0 0 0 3.013-.973Z"/></symbol><symbol viewBox="0 0 20 18" id="photo" xmlns="http://www.w3.org/2000/svg"><path d="M10 14.5c1.25 0 2.313-.437 3.188-1.312S14.5 11.25 14.5 10c0-1.25-.437-2.313-1.312-3.188S11.25 5.5 10 5.5c-1.25 0-2.313.437-3.188 1.312S5.5 8.75 5.5 10c0 1.25.437 2.313 1.312 3.188S8.75 14.5 10 14.5ZM2 18c-.55 0-1.02-.196-1.412-.587A1.927 1.927 0 0 1 0 16V4c0-.55.196-1.02.588-1.412A1.923 1.923 0 0 1 2 2h3.15L7 0h6l1.85 2H18c.55 0 1.021.196 1.413.588.391.391.587.862.587 1.412v12c0 .55-.196 1.021-.587 1.413A1.928 1.928 0 0 1 18 18H2Z"/></symbol><symbol viewBox="0 0 96 96" id="play" xmlns="http://www.w3.org/2000/svg"><path d="M36 69.6 69.6 48 36 26.4v43.2ZM48 96c-6.64 0-12.88-1.26-18.72-3.782-5.84-2.519-10.92-5.938-15.24-10.258-4.32-4.32-7.74-9.4-10.258-15.24C1.261 60.88 0 54.64 0 48c0-6.64 1.26-12.88 3.782-18.72C6.301 23.44 9.72 18.36 14.04 14.04c4.32-4.32 9.4-7.74 15.24-10.262C35.12 1.259 41.36 0 48 0c6.64 0 12.88 1.26 18.72 3.778C72.56 6.299 77.64 9.72 81.96 14.04s7.74 9.4 10.258 15.24C94.739 35.12 96 41.36 96 48c0 6.64-1.26 12.88-3.782 18.72-2.519 5.84-5.938 10.92-10.258 15.24-4.32 4.32-9.4 7.74-15.24 10.258C60.88 94.739 54.64 96 48 96Z"/></symbol><symbol viewBox="0 0 32 32" id="question" xmlns="http://www.w3.org/2000/svg"><path fill-rule="evenodd" clip-rule="evenodd" d="M16 31c8.284 0 15-6.716 15-15 0-8.284-6.716-15-15-15C7.716 1 1 7.716 1 16c0 8.284 6.716 15 15 15Zm0 1c8.837 0 16-7.163 16-16S24.837 0 16 0 0 7.163 0 16s7.163 16 16 16Z"/><path d="M15.413 18.837c0-.625.135-1.209.406-1.749a5.28 5.28 0 0 1 .981-1.387c.384-.384.768-.746 1.152-1.088.384-.355.711-.74.981-1.152.27-.426.406-.874.406-1.344 0-.71-.25-1.251-.747-1.621-.484-.384-1.116-.576-1.899-.576-1.564 0-2.567.69-3.008 2.07L12 11.05c.356-.995.96-1.749 1.813-2.26.854-.527 1.82-.79 2.902-.79 1.265 0 2.346.356 3.242 1.067.91.71 1.366 1.7 1.366 2.965 0 .597-.135 1.16-.406 1.685-.27.527-.597.982-.981 1.366-.384.384-.768.76-1.152 1.13-.384.356-.711.761-.981 1.216-.27.441-.406.91-.406 1.408h-1.984Zm.982 4.608c-.384 0-.711-.135-.982-.405a1.337 1.337 0 0 1-.405-.981c0-.384.135-.711.405-.982.27-.27.598-.405.982-.405.398 0 .725.135.981.405.27.27.405.598.405.982s-.135.71-.405.981c-.256.27-.583.405-.981.405Z"/></symbol><symbol viewBox="0 0 28 20" id="youtube" xmlns="http://www.w3.org/2000/svg"><path fill-rule="evenodd" clip-rule="evenodd" d="M13.625 1.75c-3.665 0-6.714.083-9.15.249L4.458 2h-.002l-.043.003-.177.016a3.072 3.072 0 0 0-.281.033c-.077.016-.198.038-.36.066a1.636 1.636 0 0 0-.318.083c-.104.041-.23.097-.38.167-.127.06-.251.135-.374.224a2.904 2.904 0 0 0-.352.304l-.194.224c-.082.094-.213.316-.387.722a4.812 4.812 0 0 0-.33 1.252v.002A27.403 27.403 0 0 0 1 9.052v2.442c.01.369.037.885.08 1.55.044.661.104 1.282.18 1.862.063.467.18.887.349 1.265.196.438.313.647.358.704.089.11.148.175.181.207l.008.007c.19.188.419.346.687.472.31.144.525.226.66.26.15.039.39.082.733.127l.514.054.706.055a121 121 0 0 0 2.917.103c1.485.041 3.236.072 5.254.09 3.664 0 6.712-.088 9.146-.263H22.793l.04-.004.172-.016a3.49 3.49 0 0 0 .29-.035l.36-.064c.136-.023.24-.052.318-.083.109-.043.239-.098.39-.166a2 2 0 0 0 .364-.21c.119-.087.236-.188.352-.305l.194-.223c.082-.095.213-.317.387-.723.155-.365.267-.781.33-1.252v-.002c.183-1.32.269-2.638.26-3.956V8.507c-.01-.37-.037-.886-.08-1.55a28.547 28.547 0 0 0-.18-1.863 4.57 4.57 0 0 0-.349-1.265c-.196-.438-.313-.647-.358-.704a2.256 2.256 0 0 0-.181-.207l-.007-.006-.006-.006a2.912 2.912 0 0 0-.362-.314 2.342 2.342 0 0 0-.374-.224 6.38 6.38 0 0 0-.38-.167 1.635 1.635 0 0 0-.319-.083c-.161-.028-.282-.05-.359-.066a3.072 3.072 0 0 0-.281-.033 36.975 36.975 0 0 0-.177-.016L22.793 2h-.004l-1.082-.057a99.238 99.238 0 0 0-3.343-.13 174.071 174.071 0 0 0-4.739-.063Zm-9.217-.749C6.875.833 9.948.75 13.625.75c1.645 0 3.234.02 4.767.063 1.527.041 2.654.085 3.377.132l1.066.056c.027 0 .058.004.078.005l.007.001.182.016c.158.014.294.03.392.05.06.012.17.032.33.06.186.031.36.076.516.138.13.052.278.117.441.194.186.088.364.194.534.318a3.91 3.91 0 0 1 .748.717c.14.175.306.507.49.92.213.475.354.99.428 1.541v.001c.08.605.142 1.248.187 1.929.044.674.071 1.207.081 1.596v2.456c.01 1.366-.08 2.731-.268 4.097l-.495-.068.495.068a5.808 5.808 0 0 1-.402 1.51c-.178.418-.36.766-.55.986l-.216.248-.011.011a3.911 3.911 0 0 1-.487.422 2.99 2.99 0 0 1-.545.316c-.16.072-.304.132-.43.182-.157.062-.33.107-.516.139l-.343.06a4.37 4.37 0 0 1-.385.05l-.176.015-.078.006h.003l-.036-.499v.5l.034-.001c-2.467.177-5.54.265-9.218.265h-.005a284.819 284.819 0 0 1-5.275-.09 120.69 120.69 0 0 1-2.952-.105h-.01l-.73-.058-.541-.057a7.73 7.73 0 0 1-.857-.15 5.109 5.109 0 0 1-.835-.323 3.431 3.431 0 0 1-.96-.66l.344-.363-.351.356.003.004a3.206 3.206 0 0 1-.269-.304c-.14-.174-.306-.507-.49-.92a5.572 5.572 0 0 1-.428-1.541v-.001a29.562 29.562 0 0 1-.187-1.929 42.774 42.774 0 0 1-.081-1.596V9.057v.002l.5-.003H0v.001C-.01 7.691.08 6.326.269 4.96a5.808 5.808 0 0 1 .402-1.51c.178-.418.36-.766.55-.986l.216-.248.011-.011c.155-.157.317-.298.487-.422.17-.124.348-.23.534-.318.163-.077.31-.142.44-.194.158-.062.331-.107.517-.139.16-.027.27-.047.33-.06.097-.02.234-.035.392-.05l.182-.015h.007c.018-.002.046-.005.071-.006Zm6.007 4.43 8.72 4.322-8.72 4.27V5.43Zm1 1.611v5.379l5.458-2.674-5.458-2.705Z"/></symbol></svg>